<?xml version="1.0" standalone="no"?>
<!DOCTYPE svg PUBLIC "-//W3C//DTD SVG 1.1//EN" "http://www.w3.org/Graphics/SVG/1.1/DTD/svg11.dtd" >
<svg xmlns="http://www.w3.org/2000/svg" xmlns:xlink="http://www.w3.org/1999/xlink" version="1.1">
<metadata>
Created by FontForge 20170731 at Fri May 20 10:33:39 2022
 By Aleksey,,,
Copyright 2015 The Atma Project Authors (www.black-foundry.com)
</metadata>
<defs>
<font id="Atma-Medium" horiz-adv-x="0" >
  <font-face 
    font-family="Atma"
    font-weight="500"
    font-stretch="normal"
    units-per-em="2048"
    panose-1="0 0 0 0 0 0 0 0 0 0"
    ascent="1638"
    descent="-410"
    x-height="1071"
    cap-height="1397"
    bbox="-1290 -940 2869 2081"
    underline-thickness="0"
    underline-position="0"
    unicode-range="U+000D-FB02"
  />
<missing-glyph 
 />
    <glyph glyph-name=".notdef" 
 />
    <glyph glyph-name=".null" 
 />
    <glyph glyph-name="nonmarkingreturn" horiz-adv-x="682" 
 />
    <glyph glyph-name="null" 
 />
    <glyph glyph-name="null" 
 />
    <glyph glyph-name="CR" unicode="&#xd;" 
 />
    <glyph glyph-name="space" unicode=" " horiz-adv-x="397" 
 />
    <glyph glyph-name="exclam" unicode="!" horiz-adv-x="495" 
d="M160 446q-35 468 -35 908q0 33 4 119q73 36 145 36q46 0 95 -14q-30 -266 -41 -514q-13 -293 -4 -539q-16 -6 -64 -6t-100 10zM260 -23q-47 0 -106 19q-3 106 0 199q92 3 198 -5q6 -112 13 -202q-67 -11 -105 -11z" />
    <glyph glyph-name="quotedbl" unicode="&#x22;" horiz-adv-x="606" 
d="M162 1520q31 0 88 -13q-10 -235 -47 -487q-51 -16 -121 -6q-11 405 -16 491q34 15 96 15zM430 1520q31 0 88 -13q-10 -235 -47 -487q-51 -16 -121 -6q-11 405 -16 491q34 15 96 15z" />
    <glyph glyph-name="numbersign" unicode="#" horiz-adv-x="1245" 
d="M436 481q195 -14 312 -16q40 126 71 268q-146 2 -307 17q-43 -168 -76 -269zM1206 485q9 -86 -18 -151q-172 -12 -338 -12q-65 -189 -162 -402q-77 11 -129 47q70 150 141 357q-158 9 -309 24q-79 -221 -168 -420q-71 11 -131 49q95 214 156 390q-55 8 -96.5 15.5
t-75.5 15t-51 10.5q-8 63 14 133q121 -29 250 -43q32 106 73 268q-158 22 -311 53q-8 63 15 133q106 -26 325 -51q39 179 55 373q89 -10 148 -55q-16 -130 -53 -332q178 -11 311 -8q39 190 55 385q93 -10 148 -54q-23 -172 -51 -329q157 8 229 16q9 -74 -19 -149
q-145 -11 -241 -13q-49 -193 -74 -268q163 3 307 18z" />
    <glyph glyph-name="dollar" unicode="$" horiz-adv-x="798" 
d="M465 84q12 -112 2 -209q-61 -21 -154 -8q20 134 17 219q-136 25 -214.5 129t-78.5 260q94 36 182 33q-6 -135 43.5 -215t140.5 -80q69 0 107.5 40.5t38.5 113.5q0 93 -80 176q-5 5 -16 17t-17 18q-10 7 -119 98q-153 126 -202 211t-49 190q0 128 74.5 214.5t201.5 105.5
q-15 118 -12 182q66 25 155 12q-8 -86 -4 -192q116 -17 182.5 -93t92.5 -223q-73 -40 -181 -43q-19 122 -55 175t-102 53q-61 0 -96 -40.5t-35 -109.5q0 -79 46 -147.5t167 -163.5q158 -122 213 -209q55 -88 55 -195q0 -127 -83.5 -213.5t-219.5 -105.5z" />
    <glyph glyph-name="percent" unicode="%" horiz-adv-x="1718" 
d="M1081 1610q89 -21 162 -88q-154 -384 -332 -750q-185 -379 -442 -840q-51 10 -133 72q231 429 418 832q167 359 327 774zM68 1083q0 217 105 347.5t282 130.5q136 0 213 -95t77 -262q0 -246 -100 -387q-102 -147 -276 -147q-139 0 -220 113t-81 300zM555 1141
q0 154 -33 227.5t-102 73.5q-74 0 -120 -91.5t-46 -242.5q0 -138 42.5 -229t109.5 -91q68 0 108.5 96.5t40.5 256.5zM973 385q0 217 106 347t283 130q135 0 212 -94.5t77 -261.5q0 -244 -100 -388.5t-275 -144.5q-140 0 -221.5 112.5t-81.5 299.5zM1462 442q0 154 -33 227.5
t-102 73.5q-75 0 -121.5 -91t-46.5 -242q0 -140 42.5 -230t109.5 -90q68 0 109.5 97.5t41.5 254.5z" />
    <glyph glyph-name="ampersand" unicode="&#x26;" horiz-adv-x="1595" 
d="M793 1352q-64 0 -102 -72.5t-38 -198.5q0 -77 17 -184q116 35 176.5 108t60.5 177q0 82 -29.5 126t-84.5 44zM297 422q0 -176 115 -285q114 -108 301 -108q135 0 254 86q-360 259 -471 620q-94 -43 -146.5 -125.5t-52.5 -187.5zM1518 45q-38 -102 -129 -154
q-157 62 -273 129q-177 -145 -438 -145q-271 0 -432 139q-164 138 -164 361q0 167 102.5 288.5t286.5 170.5q-20 97 -20 213q0 198 98 314t268 116q129 0 208 -77t79 -200q0 -148 -105.5 -249.5t-306.5 -145.5q97 -318 408 -539q78 138 78 305q0 94 -25 213q105 28 217 -14
q9 -84 0 -201q-15 -235 -119 -397q127 -72 267 -127z" />
    <glyph glyph-name="quotesingle" unicode="'" horiz-adv-x="335" 
d="M162 1520q31 0 88 -13q-10 -235 -47 -487q-51 -16 -121 -6q-11 405 -16 491q34 15 96 15z" />
    <glyph glyph-name="parenleft" unicode="(" horiz-adv-x="710" 
d="M715 1536q-239 -155 -364.5 -385.5t-125.5 -513.5q0 -268 115.5 -481t355.5 -392q-58 -72 -137 -108q-252 191 -382 436.5t-130 532.5q0 636 531 1022q70 -33 137 -111z" />
    <glyph glyph-name="parenright" unicode=")" horiz-adv-x="763" 
d="M-18 -233q237 155 365 388t128 509q0 540 -448 876q60 72 137 107q235 -179 363 -431.5t128 -539.5q0 -308 -137 -568t-401 -452q-73 38 -135 111z" />
    <glyph glyph-name="asterisk" unicode="*" horiz-adv-x="935" 
d="M520 946q9 -177 29 -307q-50 -16 -96 -16q-35 0 -62 6q-3 135 17 315q-49 -32 -252 -174q-49 45 -62 78q-18 33 -24 55q88 52 282 146q-134 70 -278 129q14 65 35 92q4 10 13 23t16 21l7 7q97 -51 265 -170q-2 46 -13 188q-3 32 -5.5 60.5t-3.5 40t-1 12.5q50 16 94 16
q33 0 64 -6q0 -108 -17 -321q131 86 250 180q42 -39 64 -78q11 -15 24 -55q-74 -49 -280 -144q163 -83 274 -131q-10 -53 -35 -92q-14 -23 -34 -51q-75 40 -271 176z" />
    <glyph glyph-name="plus" unicode="+" horiz-adv-x="813" 
d="M485 614q-3 -131 -20 -270q-71 -9 -141 0q15 136 18 268q-171 9 -279 23q0 52 13 141q133 -17 266 -20q-3 118 -16 262q58 9 139 6q17 -132 20 -268q129 3 275 18q0 -57 -19 -139q-141 -19 -256 -21z" />
    <glyph glyph-name="comma" unicode="," horiz-adv-x="354" 
d="M104 197q107 9 207 -15q-12 -311 -145 -643q-91 10 -148 27q77 307 86 631z" />
    <glyph glyph-name="hyphen" unicode="-" horiz-adv-x="626" 
d="M553 492q-129 -20 -279 -17q-147 3 -215 29q-3 104 19 178q97 -23 266 -23q151 0 227 11q0 -118 -18 -178z" />
    <glyph glyph-name="period" unicode="." horiz-adv-x="391" 
d="M86 184q135 28 242 9q-7 -127 -19 -207q-103 -11 -215 0v8q-1 9 -2 26.5t-2 38.5q-4 94 -4 125z" />
    <glyph glyph-name="slash" unicode="/" horiz-adv-x="950" 
d="M807 1534q76 -15 156 -86q-187 -441 -412 -911q-230 -481 -481 -953q-105 41 -146 74q168 299 418 829q225 475 465 1047z" />
    <glyph glyph-name="zero" unicode="0" horiz-adv-x="1110" 
d="M74 627q0 349 147 551q147 200 400 200q194 0 303.5 -153t109.5 -422q0 -394 -135 -619q-138 -225 -383 -225q-201 0 -321 184q-121 186 -121 484zM811 711q0 263 -57 388.5t-176 125.5q-128 0 -205 -154q-78 -159 -78 -414q0 -240 72 -393q71 -153 188 -153
q116 0 186 165q70 162 70 435z" />
    <glyph glyph-name="one" unicode="1" horiz-adv-x="768" 
d="M512 -70q-36 -20 -100 -20q-41 -3 -78 4q9 226 28 393q26 370 113 770q-142 -110 -317 -221q-73 57 -119 158q345 178 600 409q84 -38 127 -84q-78 -197 -148 -594q-73 -414 -106 -815z" />
    <glyph glyph-name="two" unicode="2" horiz-adv-x="884" 
d="M825 113q-3 -100 -41 -187q-482 28 -784 113q0 79 20 135q310 226 452 416.5t142 380.5q0 94 -40.5 149.5t-112.5 55.5q-152 0 -211 -310q-107 0 -201 43q44 196 152.5 300t267.5 104q164 0 265.5 -99.5t101.5 -259.5q0 -197 -144 -393.5t-450 -417.5q189 -18 315 -24
q126 -9 268 -6z" />
    <glyph glyph-name="three" unicode="3" horiz-adv-x="913" 
d="M891 332q0 -197 -119 -322q-121 -127 -297 -127q-181 0 -290 121.5t-119 337.5q82 36 200 39q0 -166 59 -263.5t156 -97.5q91 0 140 68t49 193q0 180 -105 274.5t-297 87.5q-16 72 -16 131q238 147 383 344q-314 -23 -584 -88q-25 80 -16 180q423 92 801 95
q22 -68 22 -175q-72 -113 -153 -198t-203 -178q192 -41 290.5 -148t98.5 -274z" />
    <glyph glyph-name="four" unicode="4" horiz-adv-x="1103" 
d="M774 264q-10 -124 -20 -340q-53 -13 -109 -10q-41 0 -70 10q-1 52 -2.5 115t-1.5 88q0 119 2 158q-383 45 -507 67q-22 52 -37 113q186 275 295 508q109 231 215 573q88 -3 213 -57q-195 -540 -476 -977q143 -29 308 -53q12 187 47 362q45 26 131 29q38 3 104 -10
q-49 -150 -75 -406q75 -8 307 -22q-12 -113 -41 -166q-21 1 -124 7t-159 11z" />
    <glyph glyph-name="five" unicode="5" horiz-adv-x="927" 
d="M842 401q0 -213 -113 -344q-115 -133 -297 -133q-188 0 -299 128.5t-123 357.5q43 0 66 -2q7 -1 145 -23q0 -158 53.5 -241t153.5 -83q94 0 143.5 74.5t49.5 216.5q0 150 -72.5 238t-196.5 88q-69 0 -143 -31q-57 43 -84 82q-4 70 -4 148q0 240 45 497q193 -44 369 -63
q185 -20 370 -23q-3 -101 -43 -192q-269 19 -526 67q-32 -221 -23 -354q64 25 148 25q173 0 277 -117.5t104 -315.5z" />
    <glyph glyph-name="six" unicode="6" horiz-adv-x="1036" 
d="M616 788q163 0 265 -108t102 -277q0 -216 -123 -360q-124 -145 -332 -145q-215 0 -333.5 185.5t-118.5 516.5q0 374 145 596q145 219 393 219q306 0 365 -366q-82 -47 -193 -62q-17 141 -62 207t-124 66q-139 0 -221 -175q-84 -179 -84 -467v-16q124 186 321 186z
M311 397q25 -165 88.5 -256.5t151.5 -91.5q91 0 150 82t59 205q0 139 -57.5 220t-155.5 81q-74 0 -137.5 -64t-98.5 -176z" />
    <glyph glyph-name="seven" unicode="7" horiz-adv-x="851" 
d="M844 1159q-220 -302 -352 -563q-134 -259 -263 -631q-108 -9 -213 33q128 345 276.5 625.5t342.5 541.5q-217 -6 -350 2q-145 6 -301 27q-3 109 32 192q247 -46 437 -61q190 -19 385 -16q13 -70 6 -150z" />
    <glyph glyph-name="eight" unicode="8" horiz-adv-x="1019" 
d="M944 465q0 -206 -133 -342q-135 -135 -354 -135q-171 0 -277 100t-106 260q0 119 57 219t160 160q-94 41 -149.5 129.5t-55.5 198.5q0 191 127 309q126 117 334 117q167 0 272 -91t105 -237q0 -127 -51.5 -227.5t-145.5 -157.5q101 -42 159 -121.5t58 -181.5zM504 815
q90 0 144 76.5t54 200.5q0 121 -50 188.5t-138 67.5q-90 0 -148.5 -79.5t-58.5 -201.5q0 -114 53 -183t144 -69zM494 119q99 0 164 91t65 228q0 109 -54.5 174.5t-146.5 65.5q-97 0 -163 -84.5t-66 -212.5q0 -118 55 -190t146 -72z" />
    <glyph glyph-name="nine" unicode="9" horiz-adv-x="1060" 
d="M309 979q0 -141 58 -220t161 -79q86 0 149 69t89 193q-19 173 -79.5 267t-154.5 94q-98 0 -160.5 -91.5t-62.5 -232.5zM995 803q0 -375 -168 -619q-169 -245 -424 -245q-207 0 -337 157q47 97 116 160q38 -75 103 -115.5t143 -40.5q140 0 234 162q95 165 110 426
q-122 -162 -301 -162q-169 0 -276 119q-109 118 -109 297q0 224 127 369t324 145q213 0 335 -174q123 -175 123 -479z" />
    <glyph glyph-name="colon" unicode=":" horiz-adv-x="399" 
d="M209 1122q60 0 113 -16q2 -84 -3 -209q-113 -3 -229 6q-4 69 -6 115q-1 25 -3.5 52.5t-2.5 39.5q62 12 131 12zM90 197q117 20 244 10q0 -162 -6 -217q-157 -4 -232 10q0 9 -1 33t-1 47q-1 22 -2 47t-1.5 40t-0.5 30z" />
    <glyph glyph-name="semicolon" unicode=";" horiz-adv-x="397" 
d="M336 1106q2 -100 -2 -209q-114 -3 -230 6q-4 69 -6 115q-1 25 -3.5 52.5t-2.5 39.5q62 12 131 12q60 0 113 -16zM111 199q110 0 206 -13q0 -307 -149 -645q-81 9 -143 29q89 355 86 629z" />
    <glyph glyph-name="less" unicode="&#x3c;" horiz-adv-x="811" 
d="M748 432q-11 -70 -43 -129q-180 67 -352.5 160.5t-291.5 187.5l5 92q266 196 641 347q34 -73 45 -127q-284 -121 -506 -269q192 -131 502 -262z" />
    <glyph glyph-name="equal" unicode="=" horiz-adv-x="813" 
d="M70 733q0 61 12 144q313 -40 684 -5q0 -62 -18 -139q-333 -43 -678 0zM45 453q0 61 12 143q312 -39 684 -4q0 -73 -16 -139q-155 -20 -337 -20t-343 20z" />
    <glyph glyph-name="greater" unicode="&#x3e;" horiz-adv-x="811" 
d="M104 305q-33 67 -45 129q290 124 508 266q-203 139 -504 265q11 70 46 127q177 -67 349 -160.5t292 -186.5l-5 -92q-272 -204 -641 -348z" />
    <glyph glyph-name="question" unicode="?" horiz-adv-x="866" 
d="M471 446q-55 -10 -154 -10q-31 234 -34 373q147 31 224 124t77 236q0 122 -44 191.5t-122 69.5q-91 0 -141 -92t-50 -257q-112 0 -196 35q12 221 113 334t286 113q163 0 272 -109q105 -108 105 -280q0 -150 -87 -260.5t-245 -159.5v-90q0 -3 -4 -218zM510 98
q1 -10 8 -102q-50 -12 -104 -12q-46 -3 -105 14q-7 73 -4 199q60 2 199 0q4 -52 6 -99z" />
    <glyph glyph-name="at" unicode="@" horiz-adv-x="1820" 
d="M1329 -86q-207 -125 -477 -125q-353 0 -563 219q-211 217 -211 578q0 406 239 651q241 244 641 244q352 0 551 -205q201 -207 201 -543q0 -246 -119 -401q-122 -158 -295 -158q-211 0 -270 209q-73 -186 -231 -186q-123 0 -197 108.5t-74 288.5q0 225 103.5 359
t275.5 134q23 0 88 -12v49q111 25 195 6q-19 -286 -19 -497q0 -180 34.5 -262t109.5 -82q103 0 174 127q67 125 67 321q0 281 -163 447q-166 166 -455 166q-315 0 -502 -199q-188 -200 -188 -526q0 -325 166 -512q165 -189 458 -189q231 0 369 113q56 -48 92 -123zM702 621
q0 -136 36.5 -213.5t99.5 -77.5q123 0 170 233q-1 41 -5.5 167.5t-7.5 227.5q-32 11 -75 11q-98 0 -158 -95t-60 -253z" />
    <glyph glyph-name="A" unicode="A" horiz-adv-x="1286" 
d="M1255 -152q-82 -47 -217 -67q-55 384 -116 631q-295 0 -519 -35q-90 -230 -192 -426q-109 20 -184 98q175 316 292 623q114 304 228 774q121 -3 209 -25q200 -366 311 -723q116 -371 188 -850zM651 1190q-85 -364 -188 -653q235 29 418 32q-86 323 -230 621z" />
    <glyph glyph-name="B" unicode="B" horiz-adv-x="1208" 
d="M1137 535q0 -239 -187 -408q-186 -168 -454 -168q-81 0 -163.5 22.5t-146.5 61.5q-15 272 -26 557q-8 211 -8 502v133q-3 110 0 192q192 89 399 89q231 0 357 -87.5t126 -246.5q0 -215 -217 -326q155 -29 237.5 -111.5t82.5 -209.5zM815 1153q0 109 -71.5 166t-206.5 57
q-71 0 -152 -20q-18 -260 -20 -516q232 25 341 101t109 212zM371 137q73 -33 149 -33q159 0 277 115q114 114 114 266q0 246 -284 246q-120 0 -265 -51v-170q0 -80 3 -156q3 -73 6 -217z" />
    <glyph glyph-name="C" unicode="C" horiz-adv-x="1155" 
d="M874 461q105 9 175 -35q-12 -242 -134 -370t-342 -128q-230 0 -357.5 166t-127.5 471q0 377 168 615q169 239 436 239q180 0 272.5 -117t92.5 -346q-80 -45 -213 -45q11 186 -35 272.5t-156 86.5q-136 0 -231 -185q-96 -190 -96 -471q0 -258 74.5 -396t215.5 -138
q129 0 198.5 102t59.5 279z" />
    <glyph glyph-name="D" unicode="D" horiz-adv-x="1206" 
d="M1133 907q0 -305 -215 -561q-217 -258 -568 -366q-25 0 -95 6.5t-93 11.5q-23 364 -31 573q-10 270 -10 469q0 40 6 334q195 94 412 94q290 0 442 -144.5t152 -416.5zM362 1296q-15 -202 -18 -378q-6 -176 -6 -467q0 -2 4 -310q277 109 420 304t143 464q0 198 -102.5 305
t-294.5 107q-57 0 -146 -25z" />
    <glyph glyph-name="E" unicode="E" horiz-adv-x="1107" 
d="M1030 -25q-172 -28 -362 -41q-211 -15 -406 -18q-51 325 -96 784q-40 408 -43 709q252 49 461 72q190 21 397 24q3 -95 -16 -182q-298 0 -594 -41q-9 -222 4 -479q290 57 497 71q20 -81 17 -174q-313 -21 -504 -53q15 -247 57 -561q308 10 572 66q20 -56 16 -177z" />
    <glyph glyph-name="F" unicode="F" horiz-adv-x="1064" 
d="M420 -143q-86 -21 -203 -21q6 448 -18 875q-28 437 -84 764q175 12 399 38q160 19 455 72q13 -44 16 -94q3 -35 -6 -96q-223 -34 -367 -52q-74 -9 -231 -22q29 -253 39 -473q204 44 430 53q18 -66 18 -176q-175 -8 -444 -39v-16q4 -332 4 -432q-4 -255 -8 -381z" />
    <glyph glyph-name="G" unicode="G" horiz-adv-x="1200" 
d="M1051 715q-9 -389 100 -754q-62 -18 -166 -22q-55 128 -90 264q-145 -246 -391 -246q-189 0 -303 172q-113 168 -113 465q0 388 160 639q157 250 409 250q173 0 274.5 -127t106.5 -344q-112 -30 -223 -33q-15 354 -203 354q-128 0 -211 -188q-84 -191 -84 -483
q0 -256 64.5 -393.5t181.5 -137.5q97 0 169.5 74t115.5 215q-16 83 -29 270q106 25 232 25z" />
    <glyph glyph-name="H" unicode="H" horiz-adv-x="1275" 
d="M1094 1489q18 -368 30 -827q13 -499 13 -777q-118 0 -217 23q0 210 -11 766q-336 -3 -553 -35q3 -394 15 -606q-86 -25 -195 -21q-51 782 -51 1418q59 32 143 32q56 0 111 -14q-20 -189 -23 -645q253 44 549 47q-16 488 -33 651q64 19 111 19q58 0 111 -31z" />
    <glyph glyph-name="I" unicode="I" horiz-adv-x="528" 
d="M375 1016q0 -262 -4 -578q-2 -82 -17 -475q-77 -19 -184 -22q12 788 -43 1419q61 37 143 37q30 0 97 -11q8 -151 8 -370z" />
    <glyph glyph-name="J" unicode="J" horiz-adv-x="974" 
d="M768 166q-41 -167 -129.5 -256.5t-212.5 -89.5q-148 0 -247 131.5t-122 357.5q70 49 179 70q30 -226 70.5 -315t117.5 -89q91 0 133.5 119.5t42.5 370.5q0 433 -63 977q51 36 143 39q72 3 113 -4q36 -396 36 -646q0 -424 -61 -665z" />
    <glyph glyph-name="K" unicode="K" horiz-adv-x="1196" 
d="M1190 -43q-72 -97 -180 -147q-144 253 -256 399q-117 152 -291 323q-95 -73 -111 -86q9 -297 45 -571q-98 -20 -192 -20q-45 308 -58 520q-18 240 -18 526q0 179 21 510q74 31 147 31q53 0 111 -15q-58 -357 -58 -780v-22q186 174 297 333q117 168 252 457
q91 -36 174 -131q-117 -212 -224.5 -357t-240.5 -268q167 -148 295 -301q129 -157 287 -401z" />
    <glyph glyph-name="L" unicode="L" horiz-adv-x="1007" 
d="M979 29q22 -95 22 -176q-196 -3 -366 -15q-150 -11 -385 -43q-55 379 -82 801q-29 448 -21 758q95 26 185 26q15 0 65 -4q-22 -206 -22 -596q3 -270 18 -452q11 -168 37 -351q284 52 549 52z" />
    <glyph glyph-name="M" unicode="M" horiz-adv-x="1562" 
d="M1425 -74q-104 -39 -223 -39q40 569 37 1327q-217 -358 -375 -833q-60 -20 -141 -10q-159 461 -381 817q-2 -39 -2 -174q0 -480 100 -998q-74 -24 -202 -24q-50 318 -74 723q-23 396 -14 751q113 71 212 86q294 -410 447 -876q142 418 424 876q103 -15 188 -57
q14 -270 17 -707q0 -379 -13 -862z" />
    <glyph glyph-name="N" unicode="N" horiz-adv-x="1327" 
d="M360 600q2 -183 31 -661q-77 -23 -180 -23q-42 485 -59 815q-19 359 -19 645q9 3 12 6q103 50 232 64q189 -251 331 -501.5t265 -551.5q1 19 2 60.5t2 62.5v205q0 552 -37 792q120 36 231 39q6 -120 11 -260q2 -59 2 -168q0 -280 -10 -557q-7 -187 -33 -514
q-138 -20 -189 -22q-153 356 -294.5 613.5t-299.5 463.5v-172q0 -174 2 -336z" />
    <glyph glyph-name="O" unicode="O" horiz-adv-x="1251" 
d="M688 1501q231 0 353 -174t122 -502q0 -150 -35 -299t-98 -266q-79 -148 -198.5 -224.5t-268.5 -76.5q-218 0 -350 203q-133 201 -133 524q0 354 170 586q168 229 438 229zM596 115q161 0 250 182q88 180 88 475q0 296 -69 433.5t-218 137.5q-150 0 -244 -172
q-94 -175 -94 -452q0 -261 78 -434q77 -170 209 -170z" />
    <glyph glyph-name="P" unicode="P" horiz-adv-x="1167" 
d="M350 465q2 -208 31 -604q-104 -4 -188 12q-34 344 -46 621q-12 267 -12 608q0 160 15 348q198 70 415 70q250 0 386 -105t136 -295q0 -436 -737 -655zM383 1356q-33 -329 -33 -723v-12q510 134 510 466q0 140 -82 215.5t-235 75.5q-83 0 -160 -22z" />
    <glyph glyph-name="Q" unicode="Q" horiz-adv-x="1249" 
d="M1219 -86q-34 -76 -134 -141q-106 158 -200 268q-144 -123 -338 -123q-214 0 -340 176q-127 177 -127 471q0 354 170 586q169 227 436 227q227 0 348 -163.5t121 -466.5q0 -165 -42 -317t-120 -267q93 -85 226 -250zM305 596q0 -239 74 -380.5t201 -141.5q114 0 192 90
q-94 94 -168 153q38 66 80 91q60 -39 168 -119q74 165 74 405q0 268 -67 397.5t-204 129.5q-160 0 -254 -172q-96 -175 -96 -453z" />
    <glyph glyph-name="R" unicode="R" horiz-adv-x="1187" 
d="M1159 31q-60 -60 -196 -101q-129 285 -199 416q-86 157 -176 285q-130 -46 -197 -66q-12 -331 -35 -575q-88 -10 -184 10q9 243 12 297v117q0 290 -10 528q-11 197 -43 488q91 69 210.5 108t240.5 39q216 0 341.5 -108t125.5 -293q0 -289 -293 -465q201 -245 403 -680z
M371 1393q22 -290 22 -586v-94q220 56 325 161t105 271q0 139 -69 214t-197 75q-90 0 -186 -41z" />
    <glyph glyph-name="S" unicode="S" horiz-adv-x="1013" 
d="M852 614q82 -122 82 -286q0 -182 -119 -295q-121 -115 -301 -115q-214 0 -342 152q-127 151 -127 383q97 48 188 51q-2 -205 69 -323t198 -118q96 0 152.5 61.5t56.5 164.5q0 96 -47 176q-46 75 -207 197q-98 73 -144.5 117.5t-79.5 92.5q-84 121 -84 291
q0 185 112 296.5t298 111.5q172 0 269 -93t135 -300q-63 -39 -191 -50q-19 154 -70 222.5t-149 68.5q-85 0 -129.5 -55.5t-44.5 -159.5q0 -103 49 -182q44 -78 207 -201q93 -70 139.5 -114.5t79.5 -92.5z" />
    <glyph glyph-name="T" unicode="T" horiz-adv-x="1204" 
d="M758 74q-86 -25 -203 -25q9 300 -10 682q-22 385 -60 666q-282 -31 -422 -51q-24 76 -24 172q309 55 555 79q256 22 541 25q13 -45 16 -98q0 -41 -8 -92q-229 -3 -414 -15q45 -431 45 -887q0 -197 -16 -456z" />
    <glyph glyph-name="U" unicode="U" horiz-adv-x="1148" 
d="M950 1448q92 -368 92 -670q0 -942 -536 -942q-406 0 -406 717q0 201 33 403q30 205 74 328q47 14 121 14q52 0 92 -14q-84 -385 -84 -676q0 -314 50.5 -463t156.5 -149q127 0 197.5 177.5t70.5 496.5q0 378 -94 737q95 38 233 41z" />
    <glyph glyph-name="V" unicode="V" horiz-adv-x="1175" 
d="M1118 1522q-56 -473 -166 -854q-117 -397 -327 -842q-68 -23 -183 -23q-287 685 -409 1442q117 52 231 55q84 -689 295 -1247q152 379 229 711q81 347 125 799q101 -3 205 -41z" />
    <glyph glyph-name="W" unicode="W" horiz-adv-x="1613" 
d="M797 702q-94 -438 -254 -813q-92 -25 -170 -28q-155 470 -228 780q-74 313 -122 692q119 40 237 43q21 -288 76 -569q55 -296 151 -641q91 270 146 493q50 213 80 451q134 29 227 29q18 -263 55 -477q33 -211 97 -459q126 325 197 618t106 633q113 -3 207 -68
q-66 -405 -172 -741q-110 -339 -287 -700q-105 -19 -166 -21q-97 351 -125 479q-36 152 -55 299z" />
    <glyph glyph-name="X" unicode="X" horiz-adv-x="1316" 
d="M1202 39q-50 -56 -160 -111q-179 412 -352 721q-285 -354 -551 -620q-32 20 -64.5 51.5t-51.5 60.5q215 239 333 379q104 124 236 295q-199 330 -481 635q98 86 211 133q226 -283 419 -594q194 277 338 543q43 -20 86 -57.5t72 -79.5q-171 -273 -401 -572
q169 -304 366 -784z" />
    <glyph glyph-name="Y" unicode="Y" horiz-adv-x="1075" 
d="M1018 1391q-142 -568 -293 -928q-152 -354 -358 -643q-110 31 -174 80q166 241 280 487q-157 212 -264 457q-109 246 -191 583q107 59 230 68q43 -251 118 -465.5t197 -431.5q143 371 228 872q133 -22 227 -79z" />
    <glyph glyph-name="Z" unicode="Z" horiz-adv-x="1200" 
d="M1085 147q-3 -119 -43 -217q-224 1 -497 23.5t-502 56.5q-3 116 16 176q566 590 832 1041q-345 25 -725 88q3 116 53 198q352 -70 936 -157q-12 -109 -29 -158q-147 -224 -356 -477.5t-510 -573.5q443 -27 825 0z" />
    <glyph glyph-name="bracketleft" unicode="[" horiz-adv-x="763" 
d="M723 -111q18 -63 18 -151q-206 -32 -481 -29q-62 399 -98 893q-34 468 -37 942q255 58 502 70q0 -88 -9 -150q-135 -3 -288 -20q-18 -380 0 -752q18 -381 76 -831q135 0 317 28z" />
    <glyph glyph-name="backslash" unicode="\" horiz-adv-x="950" 
d="M145 1536q240 -572 465 -1047q250 -530 418 -829q-42 -34 -145 -74q-261 491 -482 953q-217 452 -411 911q81 71 155 86z" />
    <glyph glyph-name="bracketright" unicode="]" horiz-adv-x="727" 
d="M528 1647q47 -279 56 -777q6 -492 -29 -1046q-237 -50 -489 -64q-3 79 8 152q207 9 313 22q62 811 -37 1559q-152 0 -307 -29q-18 63 -18 154q218 32 503 29z" />
    <glyph glyph-name="asciicircum" unicode="^" horiz-adv-x="860" 
d="M821 416q-73 -31 -127 -43q-123 289 -268 506q-131 -192 -262 -502q-71 12 -127 43q66 178 159 351t187 292l92 -4q189 -252 346 -643z" />
    <glyph glyph-name="underscore" unicode="_" horiz-adv-x="858" 
d="M846 -221q-184 -26 -404 -23q-219 6 -374 39q3 77 16 150q98 -17 221 -25q117 -8 242 -8q153 0 317 14q0 -48 -18 -147z" />
    <glyph glyph-name="grave" unicode="`" horiz-adv-x="532" 
d="M317 1534q15 -160 78 -342q-81 -19 -135 -21q-113 185 -135 351q36 13 90.5 16.5t101.5 -4.5z" />
    <glyph glyph-name="a" unicode="a" horiz-adv-x="974" 
d="M866 707q0 -141 -37 -363q-41 -247 -88 -416q-78 0 -174 27q9 53 25 115q-88 -58 -211 -58q-148 0 -238 77t-90 206q0 136 115 206t338 70q21 0 147 -4v86q0 172 -36.5 248t-118.5 76q-85 0 -140.5 -78t-60.5 -201q-142 12 -191 105q28 132 146 219q119 90 268 90
q346 0 346 -405zM272 285q0 -68 43.5 -109t116.5 -41q104 0 182 60q31 171 33 268q-375 12 -375 -178z" />
    <glyph glyph-name="b" unicode="b" horiz-adv-x="974" 
d="M899 600q0 -306 -135 -494q-138 -188 -354 -188q-159 0 -281 96q-16 272 -16 686q0 515 32 740q49 24 160 24q33 0 92 -10q-35 -207 -61 -547q99 135 258 135q149 0 227 -112.5t78 -329.5zM317 109q45 -39 107 -39q122 0 188 145t66 406q0 274 -156 274q-60 0 -111.5 -57
t-88.5 -162q-1 -29 -4 -139.5t-3 -167.5v-172q0 -63 2 -88z" />
    <glyph glyph-name="c" unicode="c" horiz-adv-x="915" 
d="M852 756q-79 -39 -203 -39q0 262 -133 262q-101 0 -172 -170q-74 -171 -74 -389q0 -156 50.5 -245t140.5 -89q72 0 138.5 62.5t117.5 175.5q73 -15 125 -84q-35 -121 -150 -205q-121 -86 -268 -86q-177 0 -274 121t-97 338q0 295 133 499q133 201 338 201
q155 0 241.5 -93.5t86.5 -258.5z" />
    <glyph glyph-name="d" unicode="d" horiz-adv-x="1009" 
d="M868 -63q-77 -23 -163 -23q-18 186 -23 254q-41 -118 -105.5 -173.5t-160.5 -55.5q-163 0 -256.5 143.5t-93.5 386.5q0 275 129 442q126 164 344 164q57 0 106 -12q-2 119 -2 256q-2 51 -2 139q68 31 152 31q43 0 96 -12q-15 -138 -21 -406q-6 -270 -6 -831
q0 -186 6 -303zM279 498q0 -190 49 -296t135 -106q78 0 130.5 93t72.5 270q-6 99 -19 469q-31 10 -88 10q-129 0 -204.5 -117.5t-75.5 -322.5z" />
    <glyph glyph-name="e" unicode="e" horiz-adv-x="944" 
d="M303 657q98 -36 229 -36q20 0 84 8q29 119 29 192q0 79 -25 113.5t-81 34.5q-73 0 -136.5 -85.5t-99.5 -226.5zM711 358q43 -8 87.5 -32t75.5 -56q-39 -118 -161 -204q-128 -93 -273 -93q-178 0 -278.5 126.5t-100.5 344.5q0 253 148 457q145 201 346 201
q133 0 211 -79.5t78 -213.5q0 -154 -49 -274q-93 -37 -275 -37q-121 0 -239 37q-1 -30 -3 -55.5t-2 -33.5q0 -152 51.5 -243.5t137.5 -91.5q71 0 143 75q77 77 103 172z" />
    <glyph glyph-name="f" unicode="f" horiz-adv-x="825" 
d="M387 770q8 -190 37 -414q26 -204 65 -360q-112 -39 -225 -39q-27 119 -51 377q-26 244 -29 461q-62 9 -133 32q0 27 8 65.5t15 45.5q35 -3 112 -12q24 563 342 563q116 0 185 -73.5t69 -192.5q0 -77 -22 -119q-83 0 -166 26q16 66 16 103q0 54 -22.5 84.5t-61.5 30.5
q-69 0 -106 -110.5t-37 -319.5v-5q35 -1 69.5 -2t54 -1.5t34.5 -0.5q91 0 174 13q0 -54 -15 -146q-46 -12 -155 -12q-11 0 -158 6z" />
    <glyph glyph-name="g" unicode="g" horiz-adv-x="985" 
d="M301 541q0 -177 51.5 -281t136.5 -104q107 0 166 211q-3 308 -67 548q-27 9 -74 9q-213 0 -213 -383zM872 346q0 -412 -116.5 -632t-331.5 -220q-145 0 -234.5 87t-109.5 241q78 55 188 80q23 -142 63 -204.5t109 -62.5q88 0 143 129.5t68 378.5q-83 -135 -211 -135
q-166 0 -263 137.5t-97 370.5q0 262 120 407.5t335 145.5q138 0 266 -53q30 -125 51 -318q20 -181 20 -352z" />
    <glyph glyph-name="h" unicode="h" horiz-adv-x="1017" 
d="M915 676q0 -168 -49 -391q-55 -235 -106 -351q-76 2 -187 50q60 167 93.5 349.5t33.5 340.5q0 142 -28 198t-97 56q-68 0 -138.5 -76.5t-117.5 -204.5q-2 -27 -2 -108q0 -95 9 -236q12 -191 16 -227q-82 -21 -195 -21q-32 388 -32 803q0 148 10 363q8 180 25 290
q59 35 159 35q23 0 101 -16q-61 -283 -82 -656q61 101 139 156t164 55q149 0 216.5 -97.5t67.5 -311.5z" />
    <glyph glyph-name="i" unicode="i" horiz-adv-x="468" 
d="M336 1524q68 0 117 -27q-54 -133 -74 -237q-61 -12 -182 -9q-11 45 -11 92q0 92 27 158q50 26 123 23zM147 1024q62 35 150 35q47 0 80 -8q-43 -193 -64 -486q-20 -273 -10 -563q-49 -22 -121 -22q-39 0 -53 6q-33 251 -27 538q3 266 45 500z" />
    <glyph glyph-name="j" unicode="j" horiz-adv-x="514" 
d="M319 1516q-41 -116 -57 -248q-73 -19 -188 -21q-19 80 -21 125q-2 73 15 141q59 27 127 27q83 -3 124 -24zM389 422q0 -398 -96 -608.5t-279 -210.5q-181 0 -288 180q46 93 110 129q73 -137 162 -137q88 0 133 125.5t45 367.5q0 316 -121 809q104 35 256 25
q78 -386 78 -680z" />
    <glyph glyph-name="k" unicode="k" horiz-adv-x="978" 
d="M305 461q0 -297 35 -541q-86 -24 -190 -24q-25 212 -35 387q-11 194 -11 335q0 205 17 480q15 251 41 411q53 5 123 -3t112 -25q-72 -373 -88 -826q115 104 217 224q93 109 224 305q39 -21 79 -55t66 -70q-91 -132 -189 -236.5t-241 -222.5q89 -121 199 -217
q109 -100 274 -211q-49 -64 -84 -95.5t-76 -49.5q-122 99 -225 211q-89 94 -213 264q-4 -3 -17.5 -12.5t-17.5 -12.5v-16z" />
    <glyph glyph-name="l" unicode="l" horiz-adv-x="466" 
d="M346 -102q-90 -23 -190 -23q-65 905 -33 1608q63 37 137 37q56 0 109 -15q-31 -313 -37 -751q-6 -466 14 -856z" />
    <glyph glyph-name="m" unicode="m" horiz-adv-x="1525" 
d="M1409 774q0 -184 -35 -424q-37 -237 -84 -405q-114 3 -211 30q115 462 115 801q0 113 -26.5 163t-86.5 50q-58 0 -115.5 -63.5t-101.5 -177.5q2 -16 2 -80q0 -148 -24 -336q-22 -174 -56 -309q-72 0 -200 28q71 391 71 611q0 113 -26 162.5t-86 49.5q-63 0 -125 -61
t-103 -166q-2 -102 -2 -219q-2 -45 -2 -119q0 -211 11 -327q-83 -27 -183 -27q-19 231 -35 586q-16 347 -16 538q67 31 156 31q57 0 98 -10q-6 -47 -18 -248q125 199 305 199q145 0 198 -136q139 250 340 250q123 0 181.5 -95t58.5 -296z" />
    <glyph glyph-name="n" unicode="n" horiz-adv-x="1009" 
d="M313 309q0 -243 13 -360q-84 -25 -183 -25q-15 226 -30 568q-15 340 -15 575q63 29 156 29q55 0 98 -11q-13 -109 -16 -213q133 213 301 213q131 0 193.5 -95t62.5 -296q0 -164 -27 -364q-26 -193 -55 -307q-74 0 -205 28q72 397 72 645q0 112 -29 162.5t-92 50.5
q-64 0 -126.5 -65.5t-106.5 -181.5q-11 -251 -11 -353z" />
    <glyph glyph-name="o" unicode="o" horiz-adv-x="970" 
d="M57 492q0 268 133 442q132 172 342 172q167 0 264 -118t97 -322q0 -300 -125 -492q-126 -194 -338 -194q-170 0 -272 141q-101 140 -101 371zM672 573q0 390 -187 390q-86 0 -151 -127q-64 -128 -64 -316q0 -167 56 -282q52 -117 145 -117q83 0 141 135q60 135 60 317z
" />
    <glyph glyph-name="p" unicode="p" horiz-adv-x="983" 
d="M326 195q50 -41 104 -41q108 0 184 163q78 167 78 408q0 116 -36.5 180t-102.5 64q-153 0 -227 -269q-1 -46 -2 -99t-1.5 -84.5t-0.5 -59.5q0 -20 4 -262zM336 29q4 -56 16 -193q9 -98 33 -268q-84 -25 -184 -25q-39 279 -58 574q-22 341 -22 598q0 246 18 407
q62 35 166 35q24 0 78 -10q-23 -95 -37 -199q57 98 133 148.5t164 50.5q124 0 197 -109.5t73 -294.5q0 -309 -139 -516t-344 -207q-36 0 -94 9z" />
    <glyph glyph-name="q" unicode="q" horiz-adv-x="1054" 
d="M834 -473q-41 -21 -117 -21q-41 0 -66 11q-5 60 -10 215q-4 108 -8 331q-89 -165 -225 -165q-153 0 -242.5 137t-89.5 366q0 301 135 480q135 176 367 176q56 0 129 -21q4 18 9.5 51t8.5 46q53 30 143 30q44 0 105 -14q-72 -244 -113 -709t-26 -913zM289 426
q0 -171 45.5 -271t120.5 -100q63 0 106 51.5t74 163.5q3 265 51 631q-66 17 -113 17q-130 0 -207 -131t-77 -361z" />
    <glyph glyph-name="r" unicode="r" horiz-adv-x="811" 
d="M313 504q12 -227 58 -508q-54 -19 -125 -16q-41 0 -72 10q-52 261 -71.5 553t-2.5 559q53 16 123 16q62 0 117 -18q-22 -161 -27 -240q47 145 125 231.5t160 86.5q182 0 182 -273q0 -14 -1 -31t-2.5 -38t-2.5 -33q-57 -22 -186 -19q8 52 8 103q0 125 -61 125
q-66 0 -126.5 -138t-95.5 -370z" />
    <glyph glyph-name="s" unicode="s" horiz-adv-x="825" 
d="M498 610q154 -107 204 -184t50 -172q0 -147 -103 -242q-104 -96 -258 -96q-156 0 -250 107q-98 104 -98 268q71 30 162 26q-4 -127 45.5 -199.5t140.5 -72.5q69 0 109.5 44.5t40.5 119.5q0 64 -37 119q-43 60 -168 145q-155 110 -205 191q-49 79 -49 178q0 137 89.5 221
t238.5 84q143 0 227 -77t113 -236q-63 -36 -177 -48q-19 117 -57.5 169.5t-105.5 52.5q-54 0 -86.5 -36.5t-32.5 -97.5q0 -65 39 -118q45 -62 168 -146z" />
    <glyph glyph-name="t" unicode="t" horiz-adv-x="802" 
d="M575 436q80 -9 154 -55q-5 -169 -75 -266t-193 -97q-146 0 -223.5 148.5t-77.5 429.5q0 195 20 356q-66 10 -149 27q0 73 28 131q68 -16 140 -25q23 145 55 269q148 -9 227 -35q-32 -92 -61 -250q163 -3 311 12q0 -65 -24 -129q-165 -17 -308 -14q-28 -194 -28 -371
q0 -409 106 -409q95 0 98 278z" />
    <glyph glyph-name="u" unicode="u" horiz-adv-x="907" 
d="M412 -20q-165 0 -250.5 145t-85.5 424q0 149 26 293q24 149 58 213q50 16 100 16q49 0 90 -18q-57 -206 -57 -488q0 -200 40 -320t111 -120q81 0 124.5 138.5t43.5 393.5q0 96 -8 177q-11 105 -16 127q84 38 221 38q20 -81 20 -254q0 -376 -105.5 -570.5t-311.5 -194.5z
" />
    <glyph glyph-name="v" unicode="v" horiz-adv-x="937" 
d="M893 1051q-66 -266 -158 -512q-92 -241 -231 -504q-45 -19 -178 -19q-109 577 -328 1098q103 54 229 57q125 -337 230 -911q187 444 239 846q96 -12 197 -55z" />
    <glyph glyph-name="w" unicode="w" horiz-adv-x="1427" 
d="M1012 -43q-74 -25 -168 -29q-58 395 -154 738q-97 -339 -229 -627q-89 -26 -185 -29q-100 271 -161.5 526t-96.5 543q92 34 228 43q25 -284 61 -483q36 -218 92 -406q135 329 205 732q120 26 195 26q118 -330 182 -780q165 417 217 817q115 -12 191 -61
q-81 -320 -166 -547q-74 -203 -211 -463z" />
    <glyph glyph-name="x" unicode="x" horiz-adv-x="1024" 
d="M950 29q-54 -54 -157 -99q-112 232 -273 494q-209 -241 -436 -447q-56 40 -98 113q216 207 444 477q-156 237 -332 443q101 82 215 127q188 -277 267 -408q104 135 270 395q76 -51 143 -151q-149 -204 -321 -402q162 -287 278 -542z" />
    <glyph glyph-name="y" unicode="y" horiz-adv-x="976" 
d="M864 385q0 -411 -113 -630.5t-321 -219.5q-138 0 -225 86.5t-107 241.5q89 63 189 78q23 -146 59.5 -206.5t99.5 -60.5q85 0 136 134t61 387q-100 -160 -250 -160q-138 0 -227 133q-90 134 -90 344q0 145 20 262q17 113 78 318q92 -3 205 -31q-50 -181 -66 -287
q-18 -117 -18 -252q0 -142 45.5 -229.5t120.5 -87.5q112 0 186 201q-10 368 -84 608q41 25 105 36t125 5q30 -126 51 -316q20 -181 20 -354z" />
    <glyph glyph-name="z" unicode="z" horiz-adv-x="956" 
d="M834 135q-3 -96 -41 -186q-455 3 -766 96q0 72 14 133q311 414 633 719q-164 22 -236 27q-99 7 -313 14q8 110 41 182q194 -13 393 -45q160 -29 336 -86q-9 -89 -31 -141q-372 -372 -628 -713q210 -17 321 -14q143 0 277 14z" />
    <glyph glyph-name="braceleft" unicode="{" horiz-adv-x="634" 
d="M571 -315q-64 -29 -165 -29q-119 0 -196 76.5t-77 197.5q0 74 22.5 138.5t77.5 148.5t76 133t21 92q0 60 -36.5 95.5t-96.5 35.5q-64 0 -103 -10q-27 108 -4 203q49 -10 98 -10q61 0 96 36.5t35 98.5q0 38 -14 76q-10 25 -84 137q-59 86 -81.5 149.5t-22.5 137.5
q0 123 75.5 201.5t194.5 78.5q88 0 164 -29q10 -59 -25 -131q-43 21 -92 21q-60 0 -95.5 -42t-35.5 -114q0 -50 17.5 -96t70.5 -127q57 -89 76.5 -145t19.5 -115q0 -75 -41.5 -134.5t-113.5 -88.5q76 -25 121 -86t45 -140q0 -58 -18 -111.5t-72 -142.5q-52 -84 -69 -133.5
t-17 -103.5q0 -73 34.5 -115.5t94.5 -42.5q38 0 94 23q30 -61 26 -133z" />
    <glyph glyph-name="bar" unicode="|" horiz-adv-x="548" 
d="M362 -332q-72 -18 -143 -14q-22 378 -31 833q-13 508 -10 973q91 41 195 25q-20 -309 -23 -899q-3 -574 12 -918z" />
    <glyph glyph-name="braceright" unicode="}" horiz-adv-x="651" 
d="M508 -61q-1 -121 -84 -199t-207 -76q-75 3 -125 21q-12 65 17 135q42 -19 88 -19q60 -1 93.5 37.5t33.5 106.5q0 54 -16.5 103.5t-67.5 135.5q-50 89 -67 140t-17 106q1 79 45 141t118 88q-78 29 -119 90t-40 146q2 56 21.5 108t74.5 140q57 84 76.5 136.5t19.5 109.5
q1 67 -33.5 109t-91.5 44q-51 0 -86 -16q-21 62 -12 133q61 23 135 20q128 -2 203.5 -77.5t71.5 -196.5q0 -73 -22 -132.5t-85 -152.5q-60 -92 -82 -142t-22 -91q0 -61 34.5 -97t94.5 -38q57 0 90 8q12 -50 11 -108t-13 -97q-46 14 -90 14q-57 2 -93 -35t-36 -98
q-3 -31 14 -76q12 -34 76 -139q51 -78 71.5 -141t20.5 -141z" />
    <glyph glyph-name="asciitilde" unicode="~" horiz-adv-x="794" 
d="M408 735q88 -37 131 -37q101 0 92 97q56 3 108 -19q8 -99 -40 -156t-140 -57q-71 0 -182 47q-83 33 -117 33q-49 0 -70.5 -22t-19.5 -72q-49 -4 -104 16q-8 99 40 156t138 57q56 0 164 -43z" />
    <glyph glyph-name="uni00A0" unicode="&#xa0;" horiz-adv-x="450" 
 />
    <glyph glyph-name="exclamdown" unicode="&#xa1;" horiz-adv-x="495" 
d="M221 1145q43 0 109 -17q3 -68 0 -200q-99 -3 -201 4l-1 9q0 9 -1 28t-2 41q-1 27 -4 71t-4 54q61 10 104 10zM324 674q32 -465 32 -905q0 -94 -2 -119q-71 -35 -147 -35q-51 0 -92 12q30 258 41 510q10 306 2 541q16 6 63 6q48 0 103 -10z" />
    <glyph glyph-name="cent" unicode="&#xa2;" horiz-adv-x="923" 
d="M864 389q-31 -116 -151 -205q-125 -90 -273 -90q-56 0 -102 12q-37 -118 -86 -212q-83 3 -152 49q60 101 109 229q-139 117 -139 383q0 295 135 498q135 202 342 202q75 0 125 -18q48 141 76 188q71 -3 145 -53q-62 -114 -102 -215q77 -95 77 -254q-79 -39 -202 -39
q0 262 -134 262q-101 0 -172 -170q-73 -168 -73 -389q0 -159 49 -246.5t141 -87.5q69 0 135 61t121 177q37 -4 75.5 -28.5t55.5 -53.5z" />
    <glyph glyph-name="sterling" unicode="&#xa3;" horiz-adv-x="948" 
d="M428 -12q-134 14 -166 14q-70 0 -182 -45q-38 58 -41 119q105 51 203 61q92 74 92 191q0 75 -35 141q-121 -2 -254 2q-8 100 0 133q66 -4 160 -4q-133 186 -133 361q0 178 121 299q118 118 305 118q183 0 284.5 -128t102.5 -363q-91 -25 -209 0q15 350 -180 350
q-94 0 -148.5 -77t-54.5 -210q0 -81 20 -145q17 -68 95 -199q172 11 387 43q8 -29 4 -59q0 -38 -11 -84q-146 -22 -317 -31q16 -53 16 -104q0 -135 -112 -244q75 -12 162 -12q191 3 364 59q40 -100 25 -197q-106 -14 -224 -14q-101 3 -274 25z" />
    <glyph glyph-name="currency" unicode="&#xa4;" horiz-adv-x="1155" 
d="M770 760q0 327 -180 327q-97 0 -156 -103t-59 -269q0 -146 55 -244q54 -100 139 -100t144 114q57 111 57 275zM823 377q-112 -133 -288 -133q-132 0 -222 84q-80 -113 -178 -207q-72 28 -127 96q121 105 219 238q-43 105 -43 231q0 211 97 350q-132 122 -191 209
q28 63 109 117q78 -122 182 -223q104 75 244 75q131 0 221 -75q87 125 172 204q68 -26 121 -96q-118 -104 -209 -225q35 -80 35 -193q0 -183 -68 -335q129 -114 211 -224q-43 -67 -111 -106q-99 138 -174 213z" />
    <glyph glyph-name="yen" unicode="&#xa5;" horiz-adv-x="1036" 
d="M573 -80q-88 -18 -180 -18q11 265 13 397q-175 0 -304 14q0 102 13 146q179 -15 288 -17v62q-2 33 -2 61q-1 3 -5 13.5t-5 13.5q-172 0 -289 8q-3 92 13 145q96 -6 217 -10q-101 237 -291 551q38 47 94 70q53 20 88 26q88 -154 153.5 -308t133.5 -363q89 148 170 327
q69 153 135 363q90 -13 168 -88q-65 -176 -121 -291q-61 -124 -164 -287q146 11 246 25q4 -46 2 -70q0 -33 -20 -74q-58 -9 -123 -12q-23 -2 -197 -14h-2q0 -111 -2 -146q143 8 324 25q3 -57 2 -63q-3 -35 -17 -80q-36 -3 -108.5 -9.5t-117 -9.5t-85.5 -4q-11 -185 -27 -383
z" />
    <glyph glyph-name="brokenbar" unicode="&#xa6;" horiz-adv-x="552" 
d="M371 1485q-21 -391 -23 -713q-70 -15 -168 -12q-13 348 -4 700q91 41 195 25zM360 -332q-72 -18 -143 -14q-20 283 -31 799q77 9 160 -4q0 -426 14 -781z" />
    <glyph glyph-name="section" unicode="&#xa7;" horiz-adv-x="813" 
d="M385 705q-137 -38 -137 -166q0 -59 39.5 -111t134.5 -119q137 38 137 166q0 62 -39.5 115t-134.5 115zM721 -84q0 -126 -90 -213q-92 -86 -232 -86q-139 0 -221 75t-119 234q63 44 150 47q40 -233 188 -233q60 0 95.5 39.5t35.5 105.5q0 75 -46.5 136t-164.5 139
q-139 90 -194 168t-55 174q0 92 53 164.5t151 113.5q-86 65 -124.5 138.5t-38.5 166.5q0 131 92 220q89 86 229 86t221 -73.5t107 -225.5q-59 -36 -154 -39q-17 114 -57.5 165.5t-110.5 51.5q-63 0 -99 -40.5t-36 -113.5q0 -75 45.5 -136t153.5 -130q133 -86 185 -162
t52 -176q0 -93 -52 -165.5t-148 -113.5q96 -68 140 -145t44 -172z" />
    <glyph glyph-name="dieresis" unicode="&#xa8;" horiz-adv-x="532" 
d="M129 1532q77 -3 117 -27q-50 -117 -74 -239q-74 -12 -182 -9q-10 41 -10 93q0 96 28 157q55 25 121 25zM451 1532q75 -3 116 -27q-48 -112 -73 -239q-75 -12 -183 -9q-10 41 -10 93q0 94 29 157q55 25 121 25z" />
    <glyph glyph-name="copyright" unicode="&#xa9;" horiz-adv-x="1591" 
d="M848 1436q310 0 489 -203q176 -206 176 -545q0 -357 -194 -563q-196 -205 -539 -205q-316 0 -510 197q-192 195 -192 524q0 352 215 573q216 222 555 222zM797 53q262 0 406.5 168t144.5 471q0 285 -139 446.5t-386 161.5q-244 0 -411 -182q-168 -183 -168 -456
q0 -283 149 -445q147 -164 404 -164zM940 569q38 4 76 -2t59 -20q-8 -131 -85 -202t-212 -71t-209.5 89t-74.5 253q0 206 104 340q103 136 264 136q103 0 161 -64.5t62 -185.5q-42 -20 -76 -26.5t-87 -6.5q2 89 -20 131.5t-71 42.5q-63 0 -106 -94.5t-43 -233.5
q0 -131 36 -200.5t103 -69.5q64 0 96.5 49.5t22.5 134.5z" />
    <glyph glyph-name="ordfeminine" unicode="&#xaa;" horiz-adv-x="571" 
d="M522 1274q0 -79 -20 -199q-20 -117 -49 -235q-51 0 -136 18q1 5 5.5 26.5t5.5 26.5q-47 -24 -115 -24q-90 0 -143.5 44t-53.5 118q0 155 258 155q31 0 58 -2h24v17q0 99 -17 143.5t-54 44.5t-63 -40t-27 -101q-104 12 -142 65q26 80 91.5 125t156.5 45q221 0 221 -227z
M188 1040q0 -32 19.5 -50.5t54.5 -18.5q44 0 78 22q9 82 12 101q2 12 2 34q-166 3 -166 -88z" />
    <glyph glyph-name="guillemotleft" unicode="&#xab;" horiz-adv-x="1028" 
d="M981 233q-30 -46 -59.5 -73t-73.5 -51q-249 195 -373 434q212 143 367 391q98 -58 137 -117q-156 -190 -313 -297q121 -154 315 -287zM522 233q-30 -46 -59 -73t-72 -51q-245 192 -375 434q212 143 367 391q98 -58 137 -117q-156 -190 -313 -297q121 -154 315 -287z" />
    <glyph glyph-name="logicalnot" unicode="&#xac;" horiz-adv-x="811" 
d="M750 819q15 -190 -13 -420q-58 0 -141 13q16 151 14 254q-284 -22 -557 14q0 54 13 143q311 -39 684 -4z" />
    <glyph glyph-name="uni00AD" unicode="&#xad;" 
 />
    <glyph glyph-name="registered" unicode="&#xae;" horiz-adv-x="1591" 
d="M848 1436q310 0 489 -203q176 -206 176 -545q0 -357 -194 -563q-196 -205 -539 -205q-316 0 -510 197q-192 195 -192 524q0 352 215 573q216 222 555 222zM244 662q0 -283 149 -445q147 -164 404 -164q262 0 406.5 168t144.5 471q0 285 -139 446.5t-386 161.5
q-244 0 -411 -182q-168 -183 -168 -456zM1139 303q-56 -53 -156 -80q-60 141 -106 230q-46 81 -93 145q-3 -1 -15.5 -5t-25.5 -7q-7 -3 -15.5 -6.5t-12.5 -4.5q-3 -142 -19 -311q-100 0 -149 12q6 66 6 181q0 291 -35 592q119 86 277 86q130 0 208 -62.5t78 -165.5
q0 -147 -163 -248q115 -131 221 -356zM707 1024q10 -156 10 -309v-39q97 25 143.5 77t46.5 136q0 69 -34 108t-95 39q-36 0 -71 -12z" />
    <glyph glyph-name="overscore" unicode="&#xaf;" horiz-adv-x="532" 
d="M477 1294q-292 -37 -424 15q-4 86 6 135q209 -36 420 -12q8 -66 -2 -138z" />
    <glyph glyph-name="degree" unicode="&#xb0;" horiz-adv-x="522" 
d="M20 1290q0 106 70.5 169t188.5 63q102 0 162.5 -53.5t60.5 -141.5q0 -125 -66.5 -194.5t-187.5 -69.5q-103 0 -165.5 62t-62.5 165zM367 1309q0 56 -28 89.5t-73 33.5q-51 0 -83.5 -40t-32.5 -106q0 -60 28 -93.5t78 -33.5q48 0 79.5 42.5t31.5 107.5z" />
    <glyph glyph-name="plusminus" unicode="&#xb1;" horiz-adv-x="811" 
d="M481 651q-3 -131 -20 -270q-71 -9 -142 0q16 147 19 268q-171 9 -279 23q0 52 13 141q133 -17 266 -20q-3 118 -16 262q58 9 139 6q17 -132 20 -268q129 3 275 18q0 -57 -19 -139q-141 -19 -256 -21zM43 180q0 62 12 144q315 -40 684 -5q0 -61 -16 -139
q-155 -23 -337 -23t-343 23z" />
    <glyph glyph-name="twosuperior" unicode="&#xb2;" horiz-adv-x="622" 
d="M586 729q-3 -83 -31 -147q-350 13 -555 75q2 56 16 99q214 142 306 253.5t92 227.5q0 55 -22.5 86t-63.5 31q-92 0 -129 -189q-98 0 -168 33q32 127 109 192.5t194 65.5q121 0 194.5 -66.5t73.5 -172.5q0 -116 -95.5 -238t-279.5 -240q235 -12 359 -10z" />
    <glyph glyph-name="threesuperior" unicode="&#xb3;" horiz-adv-x="657" 
d="M635 842q0 -124 -86 -207q-85 -82 -215 -82q-128 0 -204.5 75t-82.5 208q62 27 170 30q0 -97 34.5 -153t90.5 -56q51 0 79 38.5t28 107.5q0 109 -65.5 165t-182.5 44q-15 66 -15 98q163 88 252 199q-210 -14 -387 -54q-19 73 -16 138q270 65 559 65q25 -61 22 -141
q-52 -70 -103.5 -120.5t-123.5 -100.5q119 -25 182.5 -90t63.5 -164z" />
    <glyph glyph-name="acute" unicode="&#xb4;" horiz-adv-x="532" 
d="M391 1518q-20 -166 -135 -349q-71 0 -135 19q64 183 78 344q109 13 192 -14z" />
    <glyph glyph-name="uni00B5" unicode="&#xb5;" horiz-adv-x="970" 
d="M221 74q25 -288 76 -480q-39 -10 -88 -10q-58 0 -127 27q-6 261 -6 428q-3 147 4 328q9 320 84 686q97 0 207 -29q-72 -397 -72 -645q0 -112 28 -161.5t91 -49.5q66 0 130.5 69t108.5 187q13 411 -12 704q73 25 189 25q15 -219 30 -565q15 -344 15 -578q-68 -28 -156 -28
q-23 0 -92 10q3 23 5.5 55t6 82t6.5 86q-125 -219 -280 -219q-94 0 -148 78z" />
    <glyph glyph-name="paragraph" unicode="&#xb6;" horiz-adv-x="1370" 
d="M1225 1450q25 -1023 -62 -2023q-82 -17 -143 -15q54 863 57 1168q3 330 -12 763q-44 16 -96 27q10 -586 -4 -969q-13 -372 -64 -974q-67 -14 -145 -11q32 510 43 738q8 169 8 325q-346 104 -514 266.5t-168 393.5q0 196 146.5 309t402.5 113q130 0 244 -21
q104 -19 307 -90z" />
    <glyph glyph-name="middot" unicode="&#xb7;" horiz-adv-x="391" 
d="M86 598q133 27 242 8q-7 -127 -19 -207q-103 -11 -215 0v9q-1 8 -2 26t-2 39q-4 94 -4 125z" />
    <glyph glyph-name="cedilla" unicode="&#xb8;" horiz-adv-x="534" 
d="M483 -264q0 -90 -64.5 -144.5t-170.5 -54.5q-163 0 -217 150q53 35 96 51q14 -45 45 -71.5t72 -26.5q42 0 66 22.5t24 61.5q0 35 -23.5 57t-60.5 22q-38 0 -74 -20q-40 36 -51 53q58 91 61 187l105 -23q-10 -62 -31 -109q4 0 22 3.5t27 3.5q79 0 126.5 -44t47.5 -118z
" />
    <glyph glyph-name="onesuperior" unicode="&#xb9;" horiz-adv-x="548" 
d="M371 571q-50 -16 -92 -16q-35 -3 -62 4q3 95 16 193q13 242 64 499q-41 -31 -186 -118q-62 46 -95 120q228 110 412 256q66 -24 109 -67q-51 -124 -97 -369q-49 -266 -69 -502z" />
    <glyph glyph-name="ordmasculine" unicode="&#xba;" horiz-adv-x="555" 
d="M18 1141q0 153 84 249.5t217 96.5q103 0 160.5 -63t57.5 -175q0 -162 -80 -274q-82 -113 -217 -113q-102 0 -162 76.5t-60 202.5zM362 1192q0 99 -19.5 145.5t-61.5 46.5q-39 0 -66 -63.5t-27 -159.5q0 -83 24 -139.5t62 -56.5q37 0 62.5 67t25.5 160z" />
    <glyph glyph-name="guillemotright" unicode="&#xbb;" horiz-adv-x="1028" 
d="M1010 543q-124 -239 -373 -434q-44 24 -73.5 51t-59.5 73q194 133 315 287q-157 103 -311 297q45 68 141 119q152 -243 361 -393zM551 543q-124 -239 -373 -434q-80 43 -133 124q194 133 315 287q-157 103 -311 297q45 68 141 119q152 -243 361 -393z" />
    <glyph glyph-name="onequarter" unicode="&#xbc;" horiz-adv-x="1558" 
d="M373 629q-53 -17 -92 -17q-35 -3 -62 4q3 86 17 193q13 250 63 500q-48 -36 -186 -119q-61 45 -95 121q228 110 412 256q65 -24 109 -68q-51 -124 -97 -369q-49 -267 -69 -501zM946 1610q89 -21 162 -88q-154 -384 -332 -750q-185 -379 -442 -840q-51 10 -133 72
q224 416 417 832q173 372 328 774zM1331 168q-16 -191 -16 -201q-47 -12 -94 -12l-56 8q-4 54 -4 125q0 73 2 96q-244 22 -356 41q-15 36 -25 82q128 190 193 326q76 154 137 350q74 0 180 -41q-118 -316 -299 -592q34 -8 58 -10q25 -6 120 -18q9 124 31 204q36 23 111 23
q42 0 86 -8q-31 -100 -51 -240q20 -1 73.5 -5.5t110.5 -8.5q-3 -78 -33 -129q-18 0 -168 10z" />
    <glyph glyph-name="onehalf" unicode="&#xbd;" horiz-adv-x="1507" 
d="M373 629q-53 -17 -92 -17q-35 -3 -62 4q3 86 17 193q13 250 63 500q-48 -36 -186 -119q-61 45 -95 121q228 110 412 256q65 -24 109 -68q-51 -124 -97 -369q-49 -267 -69 -501zM936 1612q89 -21 162 -88q-154 -384 -332 -750q-185 -379 -442 -840q-30 6 -57 20.5
t-77 51.5q231 429 418 832q173 372 328 774zM1409 135q-3 -83 -31 -147q-350 13 -555 75q2 52 17 99q213 142 305 253.5t92 227.5q0 55 -22.5 86t-63.5 31q-92 0 -129 -189q-98 0 -168 33q32 127 109 192.5t194 65.5q121 0 194.5 -66.5t73.5 -172.5q0 -116 -95 -238
t-279 -240q235 -12 358 -10z" />
    <glyph glyph-name="threequarters" unicode="&#xbe;" horiz-adv-x="1669" 
d="M1110 1610q89 -21 162 -88q-154 -384 -332 -750q-185 -379 -442 -840q-51 10 -133 72q224 416 417 832q173 372 328 774zM657 948q0 -124 -86 -207q-85 -82 -215 -82q-128 0 -204 75t-82 208q65 28 170 31q0 -97 34.5 -153t90.5 -56q51 0 78.5 38t27.5 107
q0 109 -65.5 165t-182.5 44q-14 61 -14 99q165 89 252 198q-216 -15 -387 -53q-20 76 -17 137q274 66 559 66q26 -64 23 -142q-52 -70 -103.5 -120.5t-123.5 -100.5q119 -25 182 -90t63 -164zM1456 172q-16 -191 -16 -201q-46 -12 -94 -12l-56 8q-4 54 -4 125q0 73 2 96
q-244 22 -356 41q-15 36 -25 82q128 190 193 326q76 154 137 350q74 0 180 -41q-118 -316 -299 -592q34 -8 58 -10q25 -6 120 -18q9 124 31 204q36 23 111 23q42 0 86 -8q-31 -100 -51 -240q20 -1 73.5 -5.5t110.5 -8.5q-3 -78 -33 -129q-18 0 -168 10z" />
    <glyph glyph-name="questiondown" unicode="&#xbf;" horiz-adv-x="823" 
d="M354 1030q-1 6 -8 105q50 12 105 12q45 3 104 -14q7 -77 4 -201q-60 -2 -199 0q-4 53 -6 98zM836 12q-12 -219 -114 -331.5t-288 -112.5q-165 0 -270 108q-107 107 -107 281q0 152 87.5 261.5t246.5 156.5q0 225 2 307q68 13 154 10q32 -244 35 -370q-147 -32 -224 -125
t-77 -236q0 -118 45 -189t120 -71q90 0 140.5 92t50.5 254q112 0 199 -35z" />
    <glyph glyph-name="Agrave" unicode="&#xc0;" horiz-adv-x="1286" 
d="M1255 -152q-82 -47 -217 -67q-55 384 -116 631q-295 0 -519 -35q-90 -230 -192 -426q-109 20 -184 98q175 316 292 623q114 304 228 774q121 -3 209 -25q200 -366 311 -723q116 -371 188 -850zM651 1190q-85 -364 -188 -653q235 29 418 32q-86 323 -230 621zM643 1894
q15 -160 78 -342q-76 -18 -135 -20q-113 185 -135 350q36 13 90.5 16.5t101.5 -4.5z" />
    <glyph glyph-name="Aacute" unicode="&#xc1;" horiz-adv-x="1286" 
d="M1255 -152q-82 -47 -217 -67q-55 384 -116 631q-295 0 -519 -35q-90 -230 -192 -426q-109 20 -184 98q175 316 292 623q114 304 228 774q121 -3 209 -25q200 -366 311 -723q116 -371 188 -850zM651 1190q-85 -364 -188 -653q235 29 418 32q-86 323 -230 621zM856 1880
q-20 -164 -135 -348q-75 0 -135 18q64 183 78 344q109 13 192 -14z" />
    <glyph glyph-name="Acircumflex" unicode="&#xc2;" horiz-adv-x="1286" 
d="M1255 -152q-82 -47 -217 -67q-55 384 -116 631q-295 0 -519 -35q-90 -230 -192 -426q-109 20 -184 98q175 316 292 623q114 304 228 774q121 -3 209 -25q200 -366 311 -723q116 -371 188 -850zM651 1190q-85 -364 -188 -653q235 29 418 32q-86 323 -230 621zM934 1593
q-47 -55 -103 -75q-108 81 -172 170q-56 -80 -170 -175q-62 23 -100 74q78 69 122.5 126.5t76.5 131.5q54 6 67 6q7 0 76 -6q31 -67 75.5 -123.5t127.5 -128.5z" />
    <glyph glyph-name="Atilde" unicode="&#xc3;" horiz-adv-x="1286" 
d="M1255 -152q-82 -47 -217 -67q-55 384 -116 631q-295 0 -519 -35q-90 -230 -192 -426q-109 20 -184 98q175 316 292 623q114 304 228 774q121 -3 209 -25q200 -366 311 -723q116 -371 188 -850zM651 1190q-85 -364 -188 -653q235 29 418 32q-86 323 -230 621zM664 1690
q58 -31 86 -31q31 0 43 18.5t10 61.5q51 3 102 -19q8 -92 -26.5 -142t-106.5 -50q-52 0 -123 41q-48 28 -76 28q-54 0 -51 -75q-48 -3 -104 14q-8 88 28 140.5t105 52.5q48 0 113 -39z" />
    <glyph glyph-name="Adieresis" unicode="&#xc4;" horiz-adv-x="1286" 
d="M1255 -152q-82 -47 -217 -67q-55 384 -116 631q-295 0 -519 -35q-90 -230 -192 -426q-109 20 -184 98q175 316 292 623q114 304 228 774q121 -3 209 -25q200 -366 311 -723q116 -371 188 -850zM651 1190q-85 -364 -188 -653q235 29 418 32q-86 323 -230 621zM528 1808
q78 -3 117 -26q-50 -116 -74 -240q-69 -11 -182 -8q-10 41 -10 92q0 95 29 158q53 24 120 24zM850 1808q78 -3 117 -26q-50 -116 -74 -240q-69 -11 -182 -8q-11 45 -11 92q0 95 29 158q52 24 121 24z" />
    <glyph glyph-name="Aring" unicode="&#xc5;" horiz-adv-x="1286" 
d="M1255 -152q-82 -47 -217 -67q-55 384 -116 631q-295 0 -519 -35q-90 -230 -192 -426q-109 20 -184 98q175 316 292 623q114 304 228 774q121 -3 209 -25q200 -366 311 -723q116 -371 188 -850zM651 1190q-85 -364 -188 -653q235 29 418 32q-86 323 -230 621zM467 1702
q0 94 62 151.5t165 57.5q84 0 133.5 -44.5t49.5 -119.5q0 -103 -61.5 -164t-164.5 -61q-82 0 -133 50t-51 130zM743 1731q0 104 -67 104q-36 0 -58 -36t-22 -95q0 -44 20 -72t52 -28q35 0 55 34.5t20 92.5z" />
    <glyph glyph-name="AE" unicode="&#xc6;" horiz-adv-x="1724" 
d="M1647 -31q-176 -28 -365 -41q-212 -15 -405 -18q-40 299 -58 467q-230 -9 -401 -33q-94 -202 -205 -399q-115 21 -184 100q192 320 319 633q125 306 246 760q61 -2 184 -27q285 51 455 68q205 17 364 20q0 -77 -18 -180q-295 -3 -592 -41q-8 -185 4 -479q270 55 498 69
q19 -78 16 -174q-276 -14 -504 -51q15 -270 58 -563q313 10 571 65q20 -83 17 -176zM752 1253q-106 -384 -260 -747q100 16 311 29q-40 424 -51 718z" />
    <glyph glyph-name="Ccedilla" unicode="&#xc7;" horiz-adv-x="1155" 
d="M874 461q105 9 175 -35q-12 -242 -134 -370t-342 -128q-230 0 -357.5 166t-127.5 471q0 377 168 615q169 239 436 239q180 0 272.5 -117t92.5 -346q-80 -45 -213 -45q11 186 -35 272.5t-156 86.5q-136 0 -231 -185q-96 -190 -96 -471q0 -258 74.5 -396t215.5 -138
q129 0 198.5 102t59.5 279zM815 -311q0 -90 -64.5 -144.5t-170.5 -54.5q-164 0 -218 150q52 34 97 51q14 -45 44.5 -72t71.5 -27q42 0 66.5 22.5t24.5 61.5q0 35 -23.5 57.5t-60.5 22.5q-38 0 -74 -20q-40 36 -51 53q58 91 61 186l105 -22q-10 -62 -31 -109q48 6 49 6
q79 0 126.5 -43.5t47.5 -117.5z" />
    <glyph glyph-name="Egrave" unicode="&#xc8;" horiz-adv-x="1107" 
d="M1030 -25q-172 -28 -362 -41q-211 -15 -406 -18q-51 325 -96 784q-40 408 -43 709q252 49 461 72q190 21 397 24q3 -95 -16 -182q-298 0 -594 -41q-9 -222 4 -479q290 57 497 71q20 -81 17 -174q-313 -21 -504 -53q15 -247 57 -561q308 10 572 66q20 -56 16 -177z
M563 1907q15 -160 78 -342q-81 -19 -135 -21q-113 185 -135 350q83 30 192 13z" />
    <glyph glyph-name="Eacute" unicode="&#xc9;" horiz-adv-x="1107" 
d="M1030 -25q-172 -28 -362 -41q-211 -15 -406 -18q-51 325 -96 784q-40 408 -43 709q252 49 461 72q190 21 397 24q3 -95 -16 -182q-298 0 -594 -41q-9 -222 4 -479q290 57 497 71q20 -81 17 -174q-313 -21 -504 -53q15 -247 57 -561q308 10 572 66q20 -56 16 -177z
M682 1898q-20 -164 -135 -348q-71 0 -135 19q63 179 77 344q107 13 193 -15z" />
    <glyph glyph-name="Ecircumflex" unicode="&#xca;" horiz-adv-x="1107" 
d="M1030 -25q-172 -28 -362 -41q-211 -15 -406 -18q-51 325 -96 784q-40 408 -43 709q252 49 461 72q190 21 397 24q3 -95 -16 -182q-298 0 -594 -41q-9 -222 4 -479q290 57 497 71q20 -81 17 -174q-313 -21 -504 -53q15 -247 57 -561q308 10 572 66q20 -56 16 -177z
M817 1634q-47 -55 -102 -75q-108 81 -172 170q-56 -80 -170 -175q-64 24 -101 74q78 69 122.5 126.5t76.5 131.5q54 6 68 6q6 0 75 -6q31 -67 75.5 -123.5t127.5 -128.5z" />
    <glyph glyph-name="Edieresis" unicode="&#xcb;" horiz-adv-x="1107" 
d="M1030 -25q-172 -28 -362 -41q-211 -15 -406 -18q-51 325 -96 784q-40 408 -43 709q252 49 461 72q190 21 397 24q3 -95 -16 -182q-298 0 -594 -41q-9 -222 4 -479q290 57 497 71q20 -81 17 -174q-313 -21 -504 -53q15 -247 57 -561q308 10 572 66q20 -56 16 -177z
M420 1853q78 -3 117 -26q-50 -116 -74 -240q-69 -11 -182 -8q-11 45 -11 92q0 95 29 158q53 24 121 24zM741 1853q78 -3 117 -26q-50 -116 -74 -240q-69 -11 -182 -8q-10 41 -10 92q0 95 29 158q53 24 120 24z" />
    <glyph glyph-name="Igrave" unicode="&#xcc;" horiz-adv-x="528" 
d="M375 1016q0 -262 -4 -578q-2 -82 -17 -475q-77 -19 -184 -22q12 788 -43 1419q61 37 143 37q30 0 97 -11q8 -151 8 -370zM231 1874q15 -160 78 -342q-81 -19 -135 -21q-113 185 -135 351q36 13 90.5 16.5t101.5 -4.5z" />
    <glyph glyph-name="Iacute" unicode="&#xcd;" horiz-adv-x="528" 
d="M375 1016q0 -262 -4 -578q-2 -82 -17 -475q-77 -19 -184 -22q12 788 -43 1419q61 37 143 37q30 0 97 -11q8 -151 8 -370zM422 1866q-20 -164 -135 -348q-75 0 -135 18q63 179 77 344q109 13 193 -14z" />
    <glyph glyph-name="Icircumflex" unicode="&#xce;" horiz-adv-x="528" 
d="M375 1016q0 -262 -4 -578q-2 -82 -17 -475q-77 -19 -184 -22q12 788 -43 1419q61 37 143 37q30 0 97 -11q8 -151 8 -370zM506 1579q-48 -56 -103 -76q-108 81 -172 170q-54 -78 -170 -174q-62 23 -100 74q78 69 122.5 126.5t76.5 131.5q54 6 67 6q7 0 76 -6
q31 -67 75.5 -123.5t127.5 -128.5z" />
    <glyph glyph-name="Idieresis" unicode="&#xcf;" horiz-adv-x="528" 
d="M375 1016q0 -262 -4 -578q-2 -82 -17 -475q-77 -19 -184 -22q12 788 -43 1419q61 37 143 37q30 0 97 -11q8 -151 8 -370zM117 1829q75 -3 116 -27q-48 -112 -73 -239q-75 -12 -183 -9q-10 41 -10 93q0 94 29 157q55 25 121 25zM438 1829q76 -3 117 -27q-50 -117 -74 -239
q-74 -12 -182 -9q-10 41 -10 93q0 96 28 157q55 25 121 25z" />
    <glyph glyph-name="Eth" unicode="&#xd0;" horiz-adv-x="1206" 
d="M338 694v-243q0 -2 4 -310q277 109 420 304t143 464q0 198 -102.5 305t-294.5 107q-60 0 -146 -25q-12 -183 -22 -471q173 11 274 27q4 -73 -2 -127q-119 -21 -274 -31zM1133 907q0 -305 -215 -561q-217 -258 -568 -366q-25 0 -95 6.5t-93 11.5q-27 442 -35 694
q-77 3 -176 13q-3 95 4 129q47 -3 97.5 -6.5t70.5 -4.5q-2 51 -2 217q0 40 6 334q204 94 391 94q303 0 459 -142.5t156 -418.5z" />
    <glyph glyph-name="Ntilde" unicode="&#xd1;" horiz-adv-x="1327" 
d="M360 600q2 -183 31 -661q-77 -23 -180 -23q-42 485 -59 815q-19 359 -19 645q9 3 12 6q103 50 232 64q189 -251 331 -501.5t265 -551.5q1 19 2 60.5t2 62.5v205q0 552 -37 792q120 36 231 39q6 -120 11 -260q2 -59 2 -168q0 -280 -10 -557q-7 -187 -33 -514
q-138 -20 -189 -22q-153 356 -294.5 613.5t-299.5 463.5v-172q0 -174 2 -336zM645 1767q56 -30 86 -30q31 0 43 18.5t10 61.5q52 3 103 -19q8 -92 -26.5 -142t-106.5 -50q-52 0 -123 41q-48 28 -76 28q-54 0 -51 -76q-46 -3 -105 15q-8 88 28 140t105 52q48 0 113 -39z" />
    <glyph glyph-name="Ograve" unicode="&#xd2;" horiz-adv-x="1251" 
d="M688 1501q231 0 353 -174t122 -502q0 -150 -35 -299t-98 -266q-79 -148 -198.5 -224.5t-268.5 -76.5q-218 0 -350 203q-133 201 -133 524q0 354 170 586q168 229 438 229zM596 115q161 0 250 182q88 180 88 475q0 296 -69 433.5t-218 137.5q-150 0 -244 -172
q-94 -175 -94 -452q0 -261 78 -434q77 -170 209 -170zM666 1929q16 -164 77 -342q-76 -18 -135 -20q-113 185 -135 350q36 13 91 16.5t102 -4.5z" />
    <glyph glyph-name="Oacute" unicode="&#xd3;" horiz-adv-x="1251" 
d="M688 1501q231 0 353 -174t122 -502q0 -150 -35 -299t-98 -266q-79 -148 -198.5 -224.5t-268.5 -76.5q-218 0 -350 203q-133 201 -133 524q0 354 170 586q168 229 438 229zM596 115q161 0 250 182q88 180 88 475q0 296 -69 433.5t-218 137.5q-150 0 -244 -172
q-94 -175 -94 -452q0 -261 78 -434q77 -170 209 -170zM793 1909q-19 -162 -136 -348q-75 0 -135 18q64 183 78 344q109 13 193 -14z" />
    <glyph glyph-name="Ocircumflex" unicode="&#xd4;" horiz-adv-x="1251" 
d="M688 1501q231 0 353 -174t122 -502q0 -150 -35 -299t-98 -266q-79 -148 -198.5 -224.5t-268.5 -76.5q-218 0 -350 203q-133 201 -133 524q0 354 170 586q168 229 438 229zM596 115q161 0 250 182q88 180 88 475q0 296 -69 433.5t-218 137.5q-150 0 -244 -172
q-94 -175 -94 -452q0 -261 78 -434q77 -170 209 -170zM922 1632q-48 -56 -103 -76q-108 81 -172 170q-54 -78 -170 -174q-62 23 -100 74q77 68 121 126t77 132q54 6 68 6q7 0 76 -6q31 -67 75.5 -123.5t127.5 -128.5z" />
    <glyph glyph-name="Otilde" unicode="&#xd5;" horiz-adv-x="1251" 
d="M688 1501q231 0 353 -174t122 -502q0 -150 -35 -299t-98 -266q-79 -148 -198.5 -224.5t-268.5 -76.5q-218 0 -350 203q-133 201 -133 524q0 354 170 586q168 229 438 229zM596 115q161 0 250 182q88 180 88 475q0 296 -69 433.5t-218 137.5q-150 0 -244 -172
q-94 -175 -94 -452q0 -261 78 -434q77 -170 209 -170zM668 1772q58 -31 86 -31q31 0 43 18.5t10 61.5q51 3 102 -19q8 -92 -26.5 -142t-106.5 -50q-52 0 -123 41q-48 28 -75 28q-55 0 -52 -75q-48 -3 -104 14q-8 88 28 140t105 52q50 0 113 -38z" />
    <glyph glyph-name="Odieresis" unicode="&#xd6;" horiz-adv-x="1251" 
d="M688 1501q231 0 353 -174t122 -502q0 -150 -35 -299t-98 -266q-79 -148 -198.5 -224.5t-268.5 -76.5q-218 0 -350 203q-133 201 -133 524q0 354 170 586q168 229 438 229zM596 115q161 0 250 182q88 180 88 475q0 296 -69 433.5t-218 137.5q-150 0 -244 -172
q-94 -175 -94 -452q0 -261 78 -434q77 -170 209 -170zM516 1876q76 -3 117 -27q-50 -117 -74 -239q-69 -11 -182 -8q-10 41 -10 92q0 96 28 157q55 25 121 25zM838 1876q75 -3 116 -27q-48 -112 -73 -239q-69 -11 -183 -8q-10 41 -10 92q0 94 29 157q55 25 121 25z" />
    <glyph glyph-name="multiply" unicode="&#xd7;" horiz-adv-x="813" 
d="M713 440q-44 -49 -105 -96q-115 142 -186 215q-41 -41 -90 -92q-28 -28 -69 -68t-54 -53q-65 62 -94 103q30 30 69 71q130 133 138 142q-136 124 -218 190q36 45 99 100q125 -96 217 -188q16 16 75 76.5t121 122.5q55 -49 91 -111q-43 -43 -66 -68q-9 -9 -48.5 -49
t-70.5 -71q111 -120 191 -224z" />
    <glyph glyph-name="Oslash" unicode="&#xd8;" horiz-adv-x="1228" 
d="M637 1343q-151 0 -242 -174q-94 -175 -94 -450q0 -217 49 -363q189 340 461 914q-64 73 -174 73zM436 188q64 -73 150 -73q159 0 248 182q88 180 88 475q0 172 -25 297q-224 -457 -461 -881zM1020 260q-79 -148 -198.5 -224.5t-268.5 -76.5q-120 0 -209 59
q-12 -23 -59 -104q-11 -18 -21 -36.5t-15 -28t-7 -11.5q-93 31 -146 82q26 41 127 213q-149 203 -149 553q0 357 168 586t434 229q121 0 221 -53q24 53 48 105t32 69q73 -21 141 -86l-92 -203q127 -174 127 -508q0 -150 -35 -299t-98 -266z" />
    <glyph glyph-name="Ugrave" unicode="&#xd9;" horiz-adv-x="1148" 
d="M950 1448q92 -368 92 -670q0 -942 -536 -942q-406 0 -406 717q0 201 33 403q30 205 74 328q47 14 121 14q52 0 92 -14q-84 -385 -84 -676q0 -314 50.5 -463t156.5 -149q127 0 197.5 177.5t70.5 496.5q0 378 -94 737q95 38 233 41zM522 1786q15 -160 78 -342
q-81 -19 -135 -21q-113 185 -135 351q36 13 90.5 16.5t101.5 -4.5z" />
    <glyph glyph-name="Uacute" unicode="&#xda;" horiz-adv-x="1148" 
d="M950 1448q92 -368 92 -670q0 -942 -536 -942q-406 0 -406 717q0 201 33 403q30 205 74 328q47 14 121 14q52 0 92 -14q-84 -385 -84 -676q0 -314 50.5 -463t156.5 -149q127 0 197.5 177.5t70.5 496.5q0 378 -94 737q95 38 233 41zM705 1767q-19 -162 -136 -348
q-71 0 -135 19q64 183 78 344q107 13 193 -15z" />
    <glyph glyph-name="Ucircumflex" unicode="&#xdb;" horiz-adv-x="1148" 
d="M950 1448q92 -368 92 -670q0 -942 -536 -942q-406 0 -406 717q0 201 33 403q30 205 74 328q47 14 121 14q52 0 92 -14q-84 -385 -84 -676q0 -314 50.5 -463t156.5 -149q127 0 197.5 177.5t70.5 496.5q0 378 -94 737q95 38 233 41zM813 1569q-48 -57 -102 -76
q-108 81 -172 170q-54 -78 -170 -174q-64 24 -101 74q78 69 122.5 126.5t76.5 131.5q54 6 68 6q6 0 75 -6q31 -67 75.5 -123.5t127.5 -128.5z" />
    <glyph glyph-name="Udieresis" unicode="&#xdc;" horiz-adv-x="1148" 
d="M950 1448q92 -368 92 -670q0 -942 -536 -942q-406 0 -406 717q0 201 33 403q30 205 74 328q47 14 121 14q52 0 92 -14q-84 -385 -84 -676q0 -314 50.5 -463t156.5 -149q127 0 197.5 177.5t70.5 496.5q0 378 -94 737q95 38 233 41zM430 1788q76 -3 117 -27
q-50 -117 -74 -239q-74 -12 -182 -9q-10 41 -10 93q0 96 28 157q55 25 121 25zM752 1788q75 -3 116 -27q-48 -112 -73 -239q-75 -12 -183 -9q-10 41 -10 93q0 94 29 157q55 25 121 25z" />
    <glyph glyph-name="Yacute" unicode="&#xdd;" horiz-adv-x="1075" 
d="M1018 1391q-142 -568 -293 -928q-152 -354 -358 -643q-110 31 -174 80q166 241 280 487q-157 212 -264 457q-109 246 -191 583q107 59 230 68q43 -251 118 -465.5t197 -431.5q143 371 228 872q133 -22 227 -79zM692 1841q-20 -164 -135 -348q-75 0 -135 18q64 183 78 344
q109 13 192 -14z" />
    <glyph glyph-name="Thorn" unicode="&#xde;" horiz-adv-x="1144" 
d="M352 174q1 -38 19 -313q-119 -3 -191 12q-32 365 -43 606q-12 264 -12 623q0 182 14 354q128 16 240 -22q-2 -23 -19 -222q122 17 201 17q250 0 386 -105t136 -295q0 -436 -731 -655zM350 1059q-10 -156 -10 -426q0 -76 2 -117q0 -102 2 -186q512 133 512 467
q0 140 -82 215t-235 75q-97 0 -189 -28z" />
    <glyph glyph-name="germandbls" unicode="&#xdf;" horiz-adv-x="1259" 
d="M1210 254q0 -154 -89 -246t-238 -92q-150 0 -245 102.5t-99 272.5q77 29 161 26q-4 -128 44 -200t135 -72q63 0 99 44.5t36 119.5q0 64 -39 115q-40 49 -168 125q-145 84 -193 151q-47 65 -47 152q0 72 24 129t81 118q47 54 64.5 96t17.5 103q0 66 -40.5 108t-103.5 42
q-116 0 -176.5 -110t-60.5 -320q0 -227 30 -482q31 -260 76 -440q-112 -39 -225 -39q-27 119 -51 377q-26 244 -29 461q-84 12 -133 32q0 31 7 67t15 44q42 -3 115 -12q17 276 126 419.5t300 143.5q128 0 212.5 -78.5t84.5 -196.5q0 -94 -84 -188q-44 -51 -62 -93t-18 -93
q0 -62 41 -115t172 -135q154 -92 211 -168q49 -73 49 -168z" />
    <glyph glyph-name="agrave" unicode="&#xe0;" horiz-adv-x="974" 
d="M866 707q0 -141 -37 -363q-41 -247 -88 -416q-78 0 -174 27q9 53 25 115q-88 -58 -211 -58q-148 0 -238 77t-90 206q0 136 115 206t338 70q21 0 147 -4v86q0 172 -36.5 248t-118.5 76q-85 0 -140.5 -78t-60.5 -201q-142 12 -191 105q28 132 146 219q119 90 268 90
q346 0 346 -405zM272 285q0 -68 43.5 -109t116.5 -41q104 0 182 60q31 171 33 268q-375 12 -375 -178zM557 1544q15 -160 78 -342q-76 -18 -135 -20q-113 185 -135 350q36 13 90.5 16.5t101.5 -4.5z" />
    <glyph glyph-name="aacute" unicode="&#xe1;" horiz-adv-x="974" 
d="M866 707q0 -141 -37 -363q-41 -247 -88 -416q-78 0 -174 27q9 53 25 115q-88 -58 -211 -58q-148 0 -238 77t-90 206q0 136 115 206t338 70q21 0 147 -4v86q0 172 -36.5 248t-118.5 76q-85 0 -140.5 -78t-60.5 -201q-142 12 -191 105q28 132 146 219q119 90 268 90
q346 0 346 -405zM272 285q0 -68 43.5 -109t116.5 -41q104 0 182 60q31 171 33 268q-375 12 -375 -178zM717 1530q-20 -164 -135 -348q-76 0 -136 18q64 183 78 344q109 13 193 -14z" />
    <glyph glyph-name="acircumflex" unicode="&#xe2;" horiz-adv-x="974" 
d="M866 707q0 -141 -37 -363q-41 -247 -88 -416q-78 0 -174 27q9 53 25 115q-88 -58 -211 -58q-148 0 -238 77t-90 206q0 136 115 206t338 70q21 0 147 -4v86q0 172 -36.5 248t-118.5 76q-85 0 -140.5 -78t-60.5 -201q-142 12 -191 105q28 132 146 219q119 90 268 90
q346 0 346 -405zM272 285q0 -68 43.5 -109t116.5 -41q104 0 182 60q31 171 33 268q-375 12 -375 -178zM815 1251q-47 -55 -102 -75q-108 81 -172 170q-56 -80 -170 -175q-64 24 -101 74q78 69 122.5 126.5t76.5 131.5q54 6 68 6q6 0 75 -6q31 -67 75.5 -123.5t127.5 -128.5z
" />
    <glyph glyph-name="atilde" unicode="&#xe3;" horiz-adv-x="974" 
d="M866 707q0 -141 -37 -363q-41 -247 -88 -416q-78 0 -174 27q9 53 25 115q-88 -58 -211 -58q-148 0 -238 77t-90 206q0 136 115 206t338 70q21 0 147 -4v86q0 172 -36.5 248t-118.5 76q-85 0 -140.5 -78t-60.5 -201q-142 12 -191 105q28 132 146 219q119 90 268 90
q346 0 346 -405zM272 285q0 -68 43.5 -109t116.5 -41q104 0 182 60q31 171 33 268q-375 12 -375 -178zM543 1384q56 -30 86 -30q31 0 43 18.5t10 61.5q51 3 102 -19q8 -92 -26.5 -142t-106.5 -50q-52 0 -123 41q-48 28 -75 28q-55 0 -52 -75q-48 -3 -104 14q-8 88 28 140
t105 52q48 0 113 -39z" />
    <glyph glyph-name="adieresis" unicode="&#xe4;" horiz-adv-x="974" 
d="M866 707q0 -141 -37 -363q-41 -247 -88 -416q-78 0 -174 27q9 53 25 115q-88 -58 -211 -58q-148 0 -238 77t-90 206q0 136 115 206t338 70q21 0 147 -4v86q0 172 -36.5 248t-118.5 76q-85 0 -140.5 -78t-60.5 -201q-142 12 -191 105q28 132 146 219q119 90 268 90
q346 0 346 -405zM272 285q0 -68 43.5 -109t116.5 -41q104 0 182 60q31 171 33 268q-375 12 -375 -178zM430 1477q76 -3 117 -27q-50 -116 -74 -240q-69 -11 -182 -8q-10 41 -10 92q0 97 28 158q55 25 121 25zM752 1477q75 -3 116 -27q-48 -112 -73 -240q-69 -11 -183 -8
q-10 41 -10 92q0 95 29 158q55 25 121 25z" />
    <glyph glyph-name="aring" unicode="&#xe5;" horiz-adv-x="974" 
d="M866 707q0 -141 -37 -363q-41 -247 -88 -416q-78 0 -174 27q9 53 25 115q-88 -58 -211 -58q-148 0 -238 77t-90 206q0 136 115 206t338 70q21 0 147 -4v86q0 172 -36.5 248t-118.5 76q-85 0 -140.5 -78t-60.5 -201q-142 12 -191 105q28 132 146 219q119 90 268 90
q346 0 346 -405zM272 285q0 -68 43.5 -109t116.5 -41q104 0 182 60q31 171 33 268q-375 12 -375 -178zM338 1362q0 94 62 151.5t165 57.5q84 0 133.5 -44.5t49.5 -119.5q0 -103 -61.5 -164t-164.5 -61q-82 0 -133 50t-51 130zM614 1391q0 104 -67 104q-36 0 -58 -36t-22 -95
q0 -44 20 -72t52 -28q35 0 55 34.5t20 92.5z" />
    <glyph glyph-name="ae" unicode="&#xe6;" horiz-adv-x="1521" 
d="M883 631q103 -35 227 -35q63 0 84 8q29 110 29 193q0 78 -25.5 112.5t-81.5 34.5q-73 0 -135 -84.5t-98 -228.5zM1288 334q43 -8 88 -32t76 -56q-39 -117 -162 -207q-127 -92 -272 -92q-204 0 -305 188q-144 -147 -346 -147q-143 0 -228.5 75t-85.5 199q0 137 116 210
t337 73q31 0 145 -4q3 79 0 129q0 147 -36.5 214.5t-116.5 67.5q-82 0 -139.5 -78.5t-61.5 -199.5q-142 12 -191 104q28 132 146 219q122 90 268 90q201 0 285 -202q150 192 336 192q127 0 204.5 -81t77.5 -212q0 -150 -51 -274q-91 -39 -274 -39q-120 0 -238 37l-2 -38
t-1.5 -29.5t-0.5 -18.5q0 -154 50 -245t136 -91q73 0 146 76q73 73 100 172zM272 252q0 -67 39.5 -104t108.5 -37q138 0 258 104q-33 90 -33 209v12q-373 15 -373 -184z" />
    <glyph glyph-name="ccedilla" unicode="&#xe7;" horiz-adv-x="915" 
d="M674 -272q0 -92 -66.5 -146.5t-177.5 -54.5q-78 0 -133.5 38t-81.5 111q64 39 98 54q18 -45 47.5 -72t65.5 -27q42 0 66 22.5t24 61.5q0 35 -24 56.5t-62 21.5t-70 -18q-40 31 -51 51q38 66 53 129q-149 20 -229 140t-80 317q0 293 133 497q132 203 338 203
q155 0 241.5 -94t86.5 -260q-79 -39 -203 -39q0 262 -133 262q-101 0 -172 -170q-74 -171 -74 -389q0 -156 50.5 -245t140.5 -89q73 0 139 62t117 178q74 -20 125 -84q-31 -113 -135 -195q-107 -84 -238 -96q-9 -37 -25 -68l22 2t17.5 1.5t10.5 0.5q80 0 130 -44.5
t50 -116.5z" />
    <glyph glyph-name="egrave" unicode="&#xe8;" horiz-adv-x="944" 
d="M303 657q98 -36 229 -36q20 0 84 8q29 119 29 192q0 79 -25 113.5t-81 34.5q-73 0 -136.5 -85.5t-99.5 -226.5zM711 358q43 -8 87.5 -32t75.5 -56q-39 -118 -161 -204q-128 -93 -273 -93q-178 0 -278.5 126.5t-100.5 344.5q0 253 148 457q145 201 346 201
q133 0 211 -79.5t78 -213.5q0 -154 -49 -274q-93 -37 -275 -37q-121 0 -239 37q-1 -30 -3 -55.5t-2 -33.5q0 -152 51.5 -243.5t137.5 -91.5q71 0 143 75q77 77 103 172zM584 1534q15 -160 78 -342q-81 -19 -136 -21q-113 185 -135 351q36 13 91 16.5t102 -4.5z" />
    <glyph glyph-name="eacute" unicode="&#xe9;" horiz-adv-x="944" 
d="M303 657q98 -36 229 -36q20 0 84 8q29 119 29 192q0 79 -25 113.5t-81 34.5q-73 0 -136.5 -85.5t-99.5 -226.5zM711 358q43 -8 87.5 -32t75.5 -56q-39 -118 -161 -204q-128 -93 -273 -93q-178 0 -278.5 126.5t-100.5 344.5q0 253 148 457q145 201 346 201
q133 0 211 -79.5t78 -213.5q0 -154 -49 -274q-93 -37 -275 -37q-121 0 -239 37q-1 -30 -3 -55.5t-2 -33.5q0 -152 51.5 -243.5t137.5 -91.5q71 0 143 75q77 77 103 172zM780 1518q-20 -166 -135 -349q-71 0 -135 19q64 183 78 344q109 13 192 -14z" />
    <glyph glyph-name="ecircumflex" unicode="&#xea;" horiz-adv-x="944" 
d="M303 657q98 -36 229 -36q20 0 84 8q29 119 29 192q0 79 -25 113.5t-81 34.5q-73 0 -136.5 -85.5t-99.5 -226.5zM711 358q43 -8 87.5 -32t75.5 -56q-39 -118 -161 -204q-128 -93 -273 -93q-178 0 -278.5 126.5t-100.5 344.5q0 253 148 457q145 201 346 201
q133 0 211 -79.5t78 -213.5q0 -154 -49 -274q-93 -37 -275 -37q-121 0 -239 37q-1 -30 -3 -55.5t-2 -33.5q0 -152 51.5 -243.5t137.5 -91.5q71 0 143 75q77 77 103 172zM858 1241q-48 -57 -102 -76q-108 81 -172 170q-54 -78 -170 -174q-64 24 -101 74q78 69 122.5 126.5
t76.5 131.5q54 6 68 6q6 0 75 -6q31 -67 75.5 -123.5t127.5 -128.5z" />
    <glyph glyph-name="edieresis" unicode="&#xeb;" horiz-adv-x="944" 
d="M303 657q98 -36 229 -36q20 0 84 8q29 119 29 192q0 79 -25 113.5t-81 34.5q-73 0 -136.5 -85.5t-99.5 -226.5zM711 358q43 -8 87.5 -32t75.5 -56q-39 -118 -161 -204q-128 -93 -273 -93q-178 0 -278.5 126.5t-100.5 344.5q0 253 148 457q145 201 346 201
q133 0 211 -79.5t78 -213.5q0 -154 -49 -274q-93 -37 -275 -37q-121 0 -239 37q-1 -30 -3 -55.5t-2 -33.5q0 -152 51.5 -243.5t137.5 -91.5q71 0 143 75q77 77 103 172zM492 1462q77 -3 116 -26q-48 -112 -73 -240q-69 -11 -183 -8q-10 41 -10 92q0 95 29 158q52 24 121 24z
M813 1462q78 -3 117 -26q-50 -116 -74 -240q-69 -11 -182 -8q-10 41 -10 92q0 97 28 158q52 24 121 24z" />
    <glyph glyph-name="igrave" unicode="&#xec;" horiz-adv-x="468" 
d="M152 1024q62 35 149 35q47 0 80 -8q-43 -193 -64 -486q-20 -273 -10 -563q-49 -22 -121 -22q-39 0 -53 6q-30 237 -24 530q3 299 43 508zM285 1493q16 -164 77 -342q-81 -19 -135 -21q-113 185 -135 351q36 13 91 16.5t102 -4.5z" />
    <glyph glyph-name="iacute" unicode="&#xed;" horiz-adv-x="468" 
d="M152 1024q62 35 149 35q47 0 80 -8q-43 -193 -64 -486q-20 -273 -10 -563q-49 -22 -121 -22q-39 0 -53 6q-30 237 -24 530q3 299 43 508zM479 1479q-20 -166 -135 -349q-71 0 -135 19q64 183 78 344q109 13 192 -14z" />
    <glyph glyph-name="icircumflex" unicode="&#xee;" horiz-adv-x="468" 
d="M152 1024q62 35 149 35q47 0 80 -8q-43 -193 -64 -486q-20 -273 -10 -563q-49 -22 -121 -22q-39 0 -53 6q-30 237 -24 530q3 299 43 508zM575 1212q-47 -55 -102 -75q-108 81 -172 170q-54 -78 -170 -174q-63 24 -100 73q77 68 121 126t77 132q54 6 68 6q7 0 76 -6
q31 -67 75.5 -123.5t126.5 -128.5z" />
    <glyph glyph-name="idieresis" unicode="&#xef;" horiz-adv-x="468" 
d="M152 1024q62 35 149 35q47 0 80 -8q-43 -193 -64 -486q-20 -273 -10 -563q-49 -22 -121 -22q-39 0 -53 6q-30 237 -24 530q3 299 43 508zM197 1452q75 -3 116 -27q-48 -112 -73 -239q-69 -11 -183 -8q-10 41 -10 92q0 94 29 157q55 25 121 25zM518 1452q76 -3 117 -27
q-50 -117 -74 -239q-69 -11 -182 -8q-10 41 -10 92q0 96 28 157q55 25 121 25z" />
    <glyph glyph-name="eth" unicode="&#xf0;" horiz-adv-x="1009" 
d="M868 -63q-77 -23 -163 -23q-18 186 -23 254q-41 -118 -105.5 -173.5t-160.5 -55.5q-163 0 -256.5 143.5t-93.5 386.5q0 275 129 442q126 164 344 164q57 0 106 -12q0 24 -2 55v53q-129 0 -262 13q-3 95 4 129q160 -11 256 -13v158q68 31 152 31q43 0 96 -12
q-3 -68 -12 -168q47 2 202 22q4 -70 -2 -127q-101 -15 -205 -24q-4 -110 -8 -353q-2 -137 -2 -587q0 -186 6 -303zM279 498q0 -190 49 -296t135 -106q76 0 129.5 94t73.5 269q-6 99 -19 469q-31 10 -88 10q-129 0 -204.5 -117.5t-75.5 -322.5z" />
    <glyph glyph-name="ntilde" unicode="&#xf1;" horiz-adv-x="1009" 
d="M313 309q0 -243 13 -360q-84 -25 -183 -25q-15 226 -30 568q-15 340 -15 575q63 29 156 29q55 0 98 -11q-13 -109 -16 -213q133 213 301 213q131 0 193.5 -95t62.5 -296q0 -164 -27 -364q-26 -193 -55 -307q-74 0 -205 28q72 397 72 645q0 112 -29 162.5t-92 50.5
q-64 0 -126.5 -65.5t-106.5 -181.5q-11 -251 -11 -353zM545 1382q56 -30 86 -30q31 0 43 18.5t10 61.5q51 3 102 -19q8 -92 -26.5 -142t-106.5 -50q-52 0 -123 41q-48 28 -75 28q-55 0 -52 -76q-45 -3 -104 15q-8 88 28 140t105 52q48 0 113 -39z" />
    <glyph glyph-name="ograve" unicode="&#xf2;" horiz-adv-x="970" 
d="M57 492q0 268 133 442q132 172 342 172q167 0 264 -118t97 -322q0 -300 -125 -492q-126 -194 -338 -194q-170 0 -272 141q-101 140 -101 371zM672 573q0 390 -187 390q-86 0 -151 -127q-64 -128 -64 -316q0 -167 56 -282q52 -117 145 -117q83 0 141 135q60 135 60 317z
M528 1528q15 -160 78 -342q-81 -19 -135 -21q-113 185 -135 351q36 13 90.5 16.5t101.5 -4.5z" />
    <glyph glyph-name="oacute" unicode="&#xf3;" horiz-adv-x="970" 
d="M57 492q0 268 133 442q132 172 342 172q167 0 264 -118t97 -322q0 -300 -125 -492q-126 -194 -338 -194q-170 0 -272 141q-101 140 -101 371zM672 573q0 390 -187 390q-86 0 -151 -127q-64 -128 -64 -316q0 -167 56 -282q52 -117 145 -117q83 0 141 135q60 135 60 317z
M680 1511q-20 -164 -135 -348q-71 0 -135 19q63 179 77 344q107 13 193 -15z" />
    <glyph glyph-name="ocircumflex" unicode="&#xf4;" horiz-adv-x="970" 
d="M57 492q0 268 133 442q132 172 342 172q167 0 264 -118t97 -322q0 -300 -125 -492q-126 -194 -338 -194q-170 0 -272 141q-101 140 -101 371zM672 573q0 390 -187 390q-86 0 -151 -127q-64 -128 -64 -316q0 -167 56 -282q52 -117 145 -117q83 0 141 135q60 135 60 317z
M797 1260q-48 -56 -103 -76q-108 81 -172 170q-54 -78 -170 -174q-63 24 -100 73q78 69 122.5 126.5t76.5 131.5q63 7 67 7q15 0 44.5 -3.5t31.5 -3.5q31 -66 75.5 -122.5t127.5 -128.5z" />
    <glyph glyph-name="otilde" unicode="&#xf5;" horiz-adv-x="970" 
d="M57 492q0 268 133 442q132 172 342 172q167 0 264 -118t97 -322q0 -300 -125 -492q-126 -194 -338 -194q-170 0 -272 141q-101 140 -101 371zM672 573q0 390 -187 390q-86 0 -151 -127q-64 -128 -64 -316q0 -167 56 -282q52 -117 145 -117q83 0 141 135q60 135 60 317z
M543 1380q56 -30 86 -30q31 0 43 18.5t10 61.5q51 3 102 -19q8 -92 -26.5 -142t-106.5 -50q-52 0 -123 41q-48 28 -75 28q-55 0 -52 -76q-45 -3 -104 15q-8 88 28 140t105 52q48 0 113 -39z" />
    <glyph glyph-name="odieresis" unicode="&#xf6;" horiz-adv-x="970" 
d="M57 492q0 268 133 442q132 172 342 172q167 0 264 -118t97 -322q0 -300 -125 -492q-126 -194 -338 -194q-170 0 -272 141q-101 140 -101 371zM672 573q0 390 -187 390q-86 0 -151 -127q-64 -128 -64 -316q0 -167 56 -282q52 -117 145 -117q83 0 141 135q60 135 60 317z
M418 1499q78 -3 117 -26q-50 -116 -74 -240q-69 -11 -182 -8q-11 45 -11 92q0 95 29 158q52 24 121 24zM739 1499q78 -3 117 -26q-50 -116 -74 -240q-69 -11 -182 -8q-10 41 -10 92q0 97 28 158q53 24 121 24z" />
    <glyph glyph-name="divide" unicode="&#xf7;" horiz-adv-x="813" 
d="M563 1040q-3 -112 -18 -209q-116 -14 -215 0q0 1 -0.5 10.5l-1.5 28.5t-2 39q-4 94 -4 121q110 26 241 10zM57 594q0 54 13 143q311 -39 684 -4q0 -56 -17 -139q-155 -20 -337 -20t-343 20zM555 467q-9 -145 -18 -211q-124 -11 -215 2q0 2 -1 11.5t-2 28t-2 38.5
q-4 90 -4 121q107 26 242 10z" />
    <glyph glyph-name="oslash" unicode="&#xf8;" horiz-adv-x="970" 
d="M485 963q-86 0 -151 -127q-64 -128 -64 -316q0 -70 19 -174q31 59 71 136t66.5 128t44.5 86q81 158 115 228q-39 39 -101 39zM369 170q40 -49 102 -49q83 0 141 135q60 135 60 317q0 101 -8 156q-163 -323 -295 -559zM893 666q0 -300 -125 -492q-126 -194 -338 -194
q-87 0 -151 34q-18 -33 -89 -151q-67 23 -127 74l99 178q-105 139 -105 377q0 268 133 442q132 172 342 172q73 0 132 -23q1 2 28 58q38 78 41 86q78 -36 127 -82q-43 -101 -69 -150q102 -114 102 -329z" />
    <glyph glyph-name="ugrave" unicode="&#xf9;" horiz-adv-x="907" 
d="M412 -20q-165 0 -250.5 145t-85.5 424q0 149 26 293q24 149 58 213q50 16 100 16q49 0 90 -18q-57 -206 -57 -488q0 -200 40 -320t111 -120q81 0 124.5 138.5t43.5 393.5q0 96 -8 177q-11 105 -16 127q84 38 221 38q20 -81 20 -254q0 -376 -105.5 -570.5t-311.5 -194.5z
M494 1458q16 -164 77 -342q-76 -18 -135 -20q-113 185 -135 350q36 13 91 16.5t102 -4.5z" />
    <glyph glyph-name="uacute" unicode="&#xfa;" horiz-adv-x="907" 
d="M412 -20q-165 0 -250.5 145t-85.5 424q0 149 26 293q24 149 58 213q50 16 100 16q49 0 90 -18q-57 -206 -57 -488q0 -200 40 -320t111 -120q81 0 124.5 138.5t43.5 393.5q0 96 -8 177q-11 105 -16 127q84 38 221 38q20 -81 20 -254q0 -376 -105.5 -570.5t-311.5 -194.5z
M672 1421q-20 -164 -135 -348q-72 0 -136 19q64 183 78 344q107 13 193 -15z" />
    <glyph glyph-name="ucircumflex" unicode="&#xfb;" horiz-adv-x="907" 
d="M412 -20q-165 0 -250.5 145t-85.5 424q0 149 26 293q24 149 58 213q50 16 100 16q49 0 90 -18q-57 -206 -57 -488q0 -200 40 -320t111 -120q81 0 124.5 138.5t43.5 393.5q0 96 -8 177q-11 105 -16 127q84 38 221 38q20 -81 20 -254q0 -376 -105.5 -570.5t-311.5 -194.5z
M762 1212q-47 -55 -103 -75q-108 81 -172 170q-54 -78 -170 -174q-63 24 -100 73q78 69 122.5 126.5t76.5 131.5q54 6 67 6q7 0 76 -6q31 -67 75.5 -123.5t127.5 -128.5z" />
    <glyph glyph-name="udieresis" unicode="&#xfc;" horiz-adv-x="907" 
d="M412 -20q-165 0 -250.5 145t-85.5 424q0 149 26 293q24 149 58 213q50 16 100 16q49 0 90 -18q-57 -206 -57 -488q0 -200 40 -320t111 -120q81 0 124.5 138.5t43.5 393.5q0 96 -8 177q-11 105 -16 127q84 38 221 38q20 -81 20 -254q0 -376 -105.5 -570.5t-311.5 -194.5z
M385 1430q77 -3 117 -27q-50 -116 -74 -240q-69 -11 -182 -8q-10 41 -10 92q0 97 28 158q55 25 121 25zM707 1430q75 -3 116 -27q-48 -112 -73 -240q-69 -11 -183 -8q-10 41 -10 92q0 95 29 158q55 25 121 25z" />
    <glyph glyph-name="yacute" unicode="&#xfd;" horiz-adv-x="964" 
d="M864 385q0 -411 -113 -630.5t-321 -219.5q-138 0 -225 86.5t-107 241.5q89 63 189 78q23 -146 59.5 -206.5t99.5 -60.5q85 0 136 134t61 387q-100 -160 -250 -160q-138 0 -227 133q-90 134 -90 344q0 145 20 262q17 113 78 318q92 -3 205 -31q-50 -181 -66 -287
q-18 -117 -18 -252q0 -142 45.5 -229.5t120.5 -87.5q112 0 186 201q-10 368 -84 608q41 25 105 36t125 5q30 -126 51 -316q20 -181 20 -354zM676 1446q-20 -164 -135 -348q-75 0 -135 18q63 179 77 344q109 13 193 -14z" />
    <glyph glyph-name="thorn" unicode="&#xfe;" horiz-adv-x="970" 
d="M334 186q43 -32 96 -32q108 0 184 163q78 167 78 408q0 116 -36.5 180t-102.5 64q-74 0 -132 -68t-93 -196q-3 -263 6 -519zM342 29q12 -233 39 -459q-92 -29 -184 -29q-64 532 -76 1063q-15 519 29 883q60 45 147 45q50 0 100 -16q-48 -228 -63 -592q57 109 136 166
t173 57q124 0 197 -109.5t73 -294.5q0 -309 -139 -516t-344 -207q-50 0 -88 9z" />
    <glyph glyph-name="ydieresis" unicode="&#xff;" horiz-adv-x="964" 
d="M864 385q0 -411 -113 -630.5t-321 -219.5q-138 0 -225 86.5t-107 241.5q89 63 189 78q23 -146 59.5 -206.5t99.5 -60.5q85 0 136 134t61 387q-100 -160 -250 -160q-138 0 -227 133q-90 134 -90 344q0 145 20 262q17 113 78 318q92 -3 205 -31q-50 -181 -66 -287
q-18 -117 -18 -252q0 -142 45.5 -229.5t120.5 -87.5q112 0 186 201q-10 368 -84 608q41 25 105 36t125 5q30 -126 51 -316q20 -181 20 -354zM377 1425q78 -3 117 -26q-50 -116 -74 -240q-69 -11 -182 -8q-11 45 -11 92q0 95 29 158q53 24 121 24zM698 1425q78 -3 117 -26
q-50 -116 -74 -240q-69 -11 -182 -8q-10 41 -10 92q0 95 29 158q52 24 120 24z" />
    <glyph glyph-name="Amacron" unicode="&#x100;" horiz-adv-x="1286" 
d="M1255 -152q-82 -47 -217 -67q-55 384 -116 631q-295 0 -519 -35q-90 -230 -192 -426q-109 20 -184 98q175 316 292 623q114 304 228 774q121 -3 209 -25q200 -366 311 -723q116 -371 188 -850zM651 1190q-85 -364 -188 -653q235 29 418 32q-86 323 -230 621zM864 1581
q-294 -37 -424 14q-4 87 6 136q212 -37 420 -13q8 -65 -2 -137z" />
    <glyph glyph-name="amacron" unicode="&#x101;" horiz-adv-x="974" 
d="M866 707q0 -141 -37 -363q-41 -247 -88 -416q-78 0 -174 27q9 53 25 115q-88 -58 -211 -58q-148 0 -238 77t-90 206q0 136 115 206t338 70q21 0 147 -4v86q0 172 -36.5 248t-118.5 76q-85 0 -140.5 -78t-60.5 -201q-142 12 -191 105q28 132 146 219q119 90 268 90
q346 0 346 -405zM272 285q0 -68 43.5 -109t116.5 -41q104 0 182 60q31 171 33 268q-375 12 -375 -178zM752 1221q-294 -37 -424 14q-4 86 6 135q209 -36 420 -12q8 -65 -2 -137z" />
    <glyph glyph-name="Abreve" unicode="&#x102;" horiz-adv-x="1286" 
d="M1255 -152q-82 -47 -217 -67q-55 384 -116 631q-295 0 -519 -35q-90 -230 -192 -426q-109 20 -184 98q175 316 292 623q114 304 228 774q121 -3 209 -25q200 -366 311 -723q116 -371 188 -850zM651 1190q-85 -364 -188 -653q235 29 418 32q-86 323 -230 621zM455 1647
q-41 54 -41 157q63 19 123 19q-8 -76 19.5 -109t98.5 -33q69 0 97.5 37.5t9.5 104.5q66 15 123 2q9 -103 -27 -170q-53 -96 -205 -96q-125 0 -198 88z" />
    <glyph glyph-name="abreve" unicode="&#x103;" horiz-adv-x="974" 
d="M866 707q0 -141 -37 -363q-41 -247 -88 -416q-78 0 -174 27q9 53 25 115q-88 -58 -211 -58q-148 0 -238 77t-90 206q0 136 115 206t338 70q21 0 147 -4v86q0 172 -36.5 248t-118.5 76q-85 0 -140.5 -78t-60.5 -201q-142 12 -191 105q28 132 146 219q119 90 268 90
q346 0 346 -405zM272 285q0 -68 43.5 -109t116.5 -41q104 0 182 60q31 171 33 268q-375 12 -375 -178zM348 1268q-41 54 -41 157q63 19 123 19q-8 -75 19.5 -108t99.5 -33q69 0 97 37t9 104q66 15 123 2q9 -105 -26 -170q-53 -96 -205 -96q-126 0 -199 88z" />
    <glyph glyph-name="Aogonek" unicode="&#x104;" horiz-adv-x="1286" 
d="M1307 -477q-75 -121 -215 -121q-82 0 -130.5 42t-48.5 114q0 120 125 227q-54 380 -116 627q-295 0 -519 -35q-90 -230 -192 -426q-109 20 -184 98q175 316 292 623q114 304 228 774q121 -3 209 -25q200 -366 311 -723q116 -371 188 -850q-37 -23 -69 -32
q-123 -108 -123 -217q0 -36 17.5 -56t49.5 -20q67 0 119 88q34 -24 58 -88zM651 1190q-85 -364 -188 -653q235 29 418 32q-86 323 -230 621z" />
    <glyph glyph-name="aogonek" unicode="&#x105;" horiz-adv-x="970" 
d="M272 285q0 -68 43.5 -109t116.5 -41q104 0 182 60q31 171 33 268q-375 12 -375 -178zM707 -268q33 -23 57 -88q-82 -119 -217 -119q-80 0 -129 42t-49 111q0 151 200 283q6 28 9 41q3 15 6.5 30.5t5 23.5t2.5 14q-88 -58 -211 -58q-148 0 -238 77t-90 206q0 136 115 206
t338 70q21 0 147 -4v86q0 172 -36.5 248t-118.5 76q-85 0 -140.5 -78t-60.5 -201q-142 12 -191 105q28 132 146 219q119 90 268 90q346 0 346 -405q0 -141 -37 -363q-41 -247 -88 -416q-13 0 -96 9q-125 -110 -125 -218q0 -35 18.5 -54t49.5 -19q71 0 119 86z" />
    <glyph glyph-name="Cacute" unicode="&#x106;" horiz-adv-x="1155" 
d="M874 461q105 9 175 -35q-12 -242 -134 -370t-342 -128q-230 0 -357.5 166t-127.5 471q0 377 168 615q169 239 436 239q180 0 272.5 -117t92.5 -346q-80 -45 -213 -45q11 186 -35 272.5t-156 86.5q-136 0 -231 -185q-96 -190 -96 -471q0 -258 74.5 -396t215.5 -138
q129 0 198.5 102t59.5 279zM877 1886q-19 -162 -136 -348q-75 0 -135 18q64 182 78 345q107 13 193 -15z" />
    <glyph glyph-name="cacute" unicode="&#x107;" horiz-adv-x="915" 
d="M852 756q-79 -39 -203 -39q0 262 -133 262q-101 0 -172 -170q-74 -171 -74 -389q0 -156 50.5 -245t140.5 -89q72 0 138.5 62.5t117.5 175.5q73 -15 125 -84q-35 -121 -150 -205q-121 -86 -268 -86q-177 0 -274 121t-97 338q0 295 133 499q133 201 338 201
q155 0 241.5 -93.5t86.5 -258.5zM748 1505q-19 -162 -136 -348q-71 0 -135 19q64 183 78 344q107 13 193 -15z" />
    <glyph glyph-name="Ccaron" unicode="&#x10c;" horiz-adv-x="1155" 
d="M874 461q105 9 175 -35q-12 -242 -134 -370t-342 -128q-230 0 -357.5 166t-127.5 471q0 377 168 615q169 239 436 239q180 0 272.5 -117t92.5 -346q-80 -45 -213 -45q11 186 -35 272.5t-156 86.5q-136 0 -231 -185q-96 -190 -96 -471q0 -258 74.5 -396t215.5 -138
q129 0 198.5 102t59.5 279zM414 1774q47 55 102 75q108 -81 172 -170q54 78 170 174q63 -24 100 -73q-77 -68 -121 -126t-77 -132q-54 -6 -68 -6q-7 0 -76 6q-31 67 -75.5 123.5t-126.5 128.5z" />
    <glyph glyph-name="ccaron" unicode="&#x10d;" horiz-adv-x="915" 
d="M852 756q-79 -39 -203 -39q0 262 -133 262q-101 0 -172 -170q-74 -171 -74 -389q0 -156 50.5 -245t140.5 -89q72 0 138.5 62.5t117.5 175.5q73 -15 125 -84q-35 -121 -150 -205q-121 -86 -268 -86q-177 0 -274 121t-97 338q0 295 133 499q133 201 338 201
q155 0 241.5 -93.5t86.5 -258.5zM287 1419q48 57 102 76q108 -81 172 -170q54 78 170 174q62 -23 100 -74q-77 -68 -121 -126t-77 -132q-54 -6 -68 -6q-7 0 -76 6q-31 67 -75.5 123.5t-126.5 128.5z" />
    <glyph glyph-name="Dcaron" unicode="&#x10e;" horiz-adv-x="1206" 
d="M1133 907q0 -305 -215 -561q-217 -258 -568 -366q-25 0 -95 6.5t-93 11.5q-23 364 -31 573q-10 270 -10 469q0 40 6 334q195 94 412 94q290 0 442 -144.5t152 -416.5zM362 1296q-15 -202 -18 -378q-6 -176 -6 -467q0 -2 4 -310q277 109 420 304t143 464q0 198 -102.5 305
t-294.5 107q-57 0 -146 -25zM272 1806q48 56 103 76q108 -81 172 -170q54 78 170 174q62 -23 100 -74q-78 -69 -122.5 -126.5t-76.5 -131.5q-54 -6 -67 -6q-7 0 -76 6q-31 67 -75.5 123.5t-127.5 128.5z" />
    <glyph glyph-name="dcaron" unicode="&#x10f;" horiz-adv-x="1009" 
d="M868 -63q-77 -23 -163 -23q-18 186 -23 254q-41 -118 -105.5 -173.5t-160.5 -55.5q-163 0 -256.5 143.5t-93.5 386.5q0 275 129 442q126 164 344 164q57 0 106 -12q-2 119 -2 256q-2 51 -2 139q68 31 152 31q43 0 96 -12q-15 -138 -21 -406q-6 -270 -6 -831
q0 -186 6 -303zM279 498q0 -190 49 -296t135 -106q78 0 130.5 93t72.5 270q-6 99 -19 469q-31 10 -88 10q-129 0 -204.5 -117.5t-75.5 -322.5zM1210 1380q-12 -134 -38.5 -238t-77.5 -212q-77 3 -146 22q57 232 60 443q103 9 202 -15z" />
    <glyph glyph-name="Dcroat" unicode="&#x110;" horiz-adv-x="1206" 
d="M338 694v-243q0 -2 4 -310q277 109 420 304t143 464q0 198 -102.5 305t-294.5 107q-60 0 -146 -25q-12 -183 -22 -471q173 11 274 27q4 -73 -2 -127q-119 -21 -274 -31zM1133 907q0 -305 -215 -561q-217 -258 -568 -366q-25 0 -95 6.5t-93 11.5q-27 442 -35 694
q-77 3 -176 13q-3 95 4 129q47 -3 97.5 -6.5t70.5 -4.5q-2 51 -2 217q0 40 6 334q204 94 391 94q303 0 459 -142.5t156 -418.5z" />
    <glyph glyph-name="dslash" unicode="&#x111;" horiz-adv-x="1009" 
d="M868 -63q-77 -23 -163 -23q-18 186 -23 254q-41 -118 -105.5 -173.5t-160.5 -55.5q-163 0 -256.5 143.5t-93.5 386.5q0 275 129 442q126 164 344 164q57 0 106 -12q0 24 -2 55v53q-129 0 -262 13q-3 95 4 129q160 -11 256 -13v158q68 31 152 31q43 0 96 -12
q-3 -68 -12 -168q47 2 202 22q4 -70 -2 -127q-101 -15 -205 -24q-4 -110 -8 -353q-2 -137 -2 -587q0 -186 6 -303zM279 498q0 -190 49 -296t135 -106q76 0 129.5 94t73.5 269q-6 99 -19 469q-31 10 -88 10q-129 0 -204.5 -117.5t-75.5 -322.5z" />
    <glyph glyph-name="Emacron" unicode="&#x112;" horiz-adv-x="1107" 
d="M1030 -25q-172 -28 -362 -41q-211 -15 -406 -18q-51 325 -96 784q-40 408 -43 709q252 49 461 72q190 21 397 24q3 -95 -16 -182q-298 0 -594 -41q-9 -222 4 -479q290 57 497 71q20 -81 17 -174q-313 -21 -504 -53q15 -247 57 -561q308 10 572 66q20 -56 16 -177z
M754 1616q-294 -37 -424 14q-4 86 6 135q209 -36 420 -12q8 -65 -2 -137z" />
    <glyph glyph-name="emacron" unicode="&#x113;" horiz-adv-x="944" 
d="M303 657q98 -36 229 -36q20 0 84 8q29 119 29 192q0 79 -25 113.5t-81 34.5q-73 0 -136.5 -85.5t-99.5 -226.5zM711 358q43 -8 87.5 -32t75.5 -56q-39 -118 -161 -204q-128 -93 -273 -93q-178 0 -278.5 126.5t-100.5 344.5q0 253 148 457q145 201 346 201
q133 0 211 -79.5t78 -213.5q0 -154 -49 -274q-93 -37 -275 -37q-121 0 -239 37q-1 -30 -3 -55.5t-2 -33.5q0 -152 51.5 -243.5t137.5 -91.5q71 0 143 75q77 77 103 172zM803 1208q-292 -37 -424 15q-4 86 6 135q209 -36 420 -12q8 -66 -2 -138z" />
    <glyph glyph-name="Edotaccent" unicode="&#x116;" horiz-adv-x="1107" 
d="M1030 -25q-172 -28 -362 -41q-211 -15 -406 -18q-51 325 -96 784q-40 408 -43 709q252 49 461 72q190 21 397 24q3 -95 -16 -182q-298 0 -594 -41q-9 -222 4 -479q290 57 497 71q20 -81 17 -174q-313 -21 -504 -53q15 -247 57 -561q308 10 572 66q20 -56 16 -177z
M594 1862q76 -3 117 -27q-50 -116 -74 -240q-69 -11 -182 -8q-11 45 -11 92q0 95 29 158q55 25 121 25z" />
    <glyph glyph-name="edotaccent" unicode="&#x117;" horiz-adv-x="944" 
d="M303 657q98 -36 229 -36q20 0 84 8q29 119 29 192q0 79 -25 113.5t-81 34.5q-73 0 -136.5 -85.5t-99.5 -226.5zM711 358q43 -8 87.5 -32t75.5 -56q-39 -118 -161 -204q-128 -93 -273 -93q-178 0 -278.5 126.5t-100.5 344.5q0 253 148 457q145 201 346 201
q133 0 211 -79.5t78 -213.5q0 -154 -49 -274q-93 -37 -275 -37q-121 0 -239 37q-1 -30 -3 -55.5t-2 -33.5q0 -152 51.5 -243.5t137.5 -91.5q71 0 143 75q77 77 103 172zM651 1434q77 -3 117 -27q-50 -116 -74 -240q-69 -11 -182 -8q-10 41 -10 92q0 97 28 158q55 25 121 25z
" />
    <glyph glyph-name="Eogonek" unicode="&#x118;" horiz-adv-x="1107" 
d="M1141 -330q-82 -119 -221 -119q-80 0 -127.5 43.5t-47.5 116.5q0 67 38 126.5t120 121.5q-254 -33 -641 -43q-51 325 -96 784q-40 408 -43 709q302 54 479 74q196 19 379 22q3 -95 -16 -182q-298 0 -594 -41q-9 -222 4 -479q290 57 497 71q20 -81 17 -174
q-313 -21 -504 -53q15 -247 57 -561q308 10 572 66q20 -56 16 -177q-133 -112 -133 -227q0 -36 17.5 -56t48.5 -20q66 0 118 88q41 -35 60 -90z" />
    <glyph glyph-name="eogonek" unicode="&#x119;" horiz-adv-x="944" 
d="M303 633q101 -37 229 -37q20 0 84 8q29 110 29 193q0 78 -25 112.5t-81 34.5q-73 0 -136.5 -85t-99.5 -226zM782 -166q34 -31 58 -90q-78 -113 -215 -113q-82 0 -131.5 44.5t-49.5 117.5q0 86 68 160q-69 -6 -72 -6q-177 0 -278 127.5t-101 345.5q0 253 148 457
q144 200 346 200q133 0 211 -79.5t78 -213.5q0 -154 -49 -274q-95 -39 -275 -39q-120 0 -239 39q-1 -30 -3 -55t-2 -33q0 -153 51 -244.5t138 -91.5q70 0 143 76q77 77 103 172q43 -8 87.5 -32t75.5 -56q-26 -68 -64 -116.5t-99 -92.5q-53 -36 -84 -91.5t-31 -113.5
q0 -37 19 -61.5t49 -24.5q66 0 118 88z" />
    <glyph glyph-name="Ecaron" unicode="&#x11a;" horiz-adv-x="1107" 
d="M1030 -25q-172 -28 -362 -41q-211 -15 -406 -18q-51 325 -96 784q-40 408 -43 709q252 49 461 72q190 21 397 24q3 -95 -16 -182q-298 0 -594 -41q-9 -222 4 -479q290 57 497 71q20 -81 17 -174q-313 -21 -504 -53q15 -247 57 -561q308 10 572 66q20 -56 16 -177z
M274 1831q48 56 103 76q108 -81 172 -170q54 78 170 174q62 -23 100 -74q-77 -68 -121 -126t-77 -132q-54 -6 -68 -6q-7 0 -76 6q-31 67 -75.5 123.5t-127.5 128.5z" />
    <glyph glyph-name="ecaron" unicode="&#x11b;" horiz-adv-x="944" 
d="M303 657q98 -36 229 -36q20 0 84 8q29 119 29 192q0 79 -25 113.5t-81 34.5q-73 0 -136.5 -85.5t-99.5 -226.5zM711 358q43 -8 87.5 -32t75.5 -56q-39 -118 -161 -204q-128 -93 -273 -93q-178 0 -278.5 126.5t-100.5 344.5q0 253 148 457q145 201 346 201
q133 0 211 -79.5t78 -213.5q0 -154 -49 -274q-93 -37 -275 -37q-121 0 -239 37q-1 -30 -3 -55.5t-2 -33.5q0 -152 51.5 -243.5t137.5 -91.5q71 0 143 75q77 77 103 172zM307 1415q48 56 103 76q108 -81 172 -170q54 78 170 174q62 -23 100 -74q-78 -69 -122.5 -126.5
t-76.5 -131.5q-54 -6 -67 -6q-7 0 -76 6q-31 67 -75.5 123.5t-127.5 128.5z" />
    <glyph glyph-name="Gbreve" unicode="&#x11e;" horiz-adv-x="1200" 
d="M1051 715q-9 -389 100 -754q-62 -18 -166 -22q-55 128 -90 264q-145 -246 -391 -246q-189 0 -303 172q-113 168 -113 465q0 388 160 639q157 250 409 250q173 0 274.5 -127t106.5 -344q-112 -30 -223 -33q-15 354 -203 354q-128 0 -211 -188q-84 -191 -84 -483
q0 -256 64.5 -393.5t181.5 -137.5q97 0 169.5 74t115.5 215q-16 83 -29 270q106 25 232 25zM424 1655q-41 54 -41 157q63 19 123 19q-8 -75 19.5 -108t99.5 -33q69 0 97 37t9 104q66 15 123 2q9 -103 -27 -170q-53 -96 -204 -96q-126 0 -199 88z" />
    <glyph glyph-name="gbreve" unicode="&#x11f;" horiz-adv-x="985" 
d="M301 541q0 -177 51.5 -281t136.5 -104q107 0 166 211q-3 308 -67 548q-27 9 -74 9q-213 0 -213 -383zM872 346q0 -412 -116.5 -632t-331.5 -220q-145 0 -234.5 87t-109.5 241q78 55 188 80q23 -142 63 -204.5t109 -62.5q88 0 143 129.5t68 378.5q-83 -135 -211 -135
q-166 0 -263 137.5t-97 370.5q0 262 120 407.5t335 145.5q138 0 266 -53q30 -125 51 -318q20 -181 20 -352zM274 1229q-41 54 -41 157q63 19 123 19q-8 -75 19.5 -108t99.5 -33q69 0 97.5 37t9.5 104q66 15 123 2q9 -103 -27 -170q-53 -96 -205 -96q-126 0 -199 88z" />
    <glyph glyph-name="uni0122" unicode="&#x122;" horiz-adv-x="1200" 
d="M1051 715q-9 -389 100 -754q-62 -18 -166 -22q-55 128 -90 264q-145 -246 -391 -246q-189 0 -303 172q-113 168 -113 465q0 388 160 639q157 250 409 250q173 0 274.5 -127t106.5 -344q-112 -30 -223 -33q-15 354 -203 354q-128 0 -211 -188q-84 -191 -84 -483
q0 -256 64.5 -393.5t181.5 -137.5q97 0 169.5 74t115.5 215q-16 83 -29 270q106 25 232 25zM487 -137q113 14 164 8q9 -192 -78 -395q-77 0 -133 20q56 181 47 367z" />
    <glyph glyph-name="uni0123" unicode="&#x123;" horiz-adv-x="985" 
d="M301 541q0 -177 51.5 -281t136.5 -104q107 0 166 211q-3 308 -67 548q-27 9 -74 9q-213 0 -213 -383zM872 346q0 -412 -116.5 -632t-331.5 -220q-145 0 -234.5 87t-109.5 241q78 55 188 80q23 -142 63 -204.5t109 -62.5q88 0 143 129.5t68 378.5q-83 -135 -211 -135
q-166 0 -263 137.5t-97 370.5q0 262 120 407.5t335 145.5q138 0 266 -53q30 -125 51 -318q20 -181 20 -352zM573 1198q-94 -12 -176 0q-9 202 86 410q70 -3 135 -21q-56 -204 -45 -389z" />
    <glyph glyph-name="Imacron" unicode="&#x12a;" horiz-adv-x="528" 
d="M375 1016q0 -262 -4 -578q-2 -82 -17 -475q-77 -19 -184 -22q12 788 -43 1419q61 37 143 37q30 0 97 -11q8 -151 8 -370zM461 1602q-294 -37 -424 14q-4 86 6 135q209 -36 420 -12q8 -65 -2 -137z" />
    <glyph glyph-name="imacron" unicode="&#x12b;" horiz-adv-x="468" 
d="M152 1024q62 35 149 35q47 0 80 -8q-43 -193 -64 -486q-20 -273 -10 -563q-49 -22 -121 -22q-39 0 -53 6q-30 237 -24 530q3 299 43 508zM549 1208q-292 -37 -424 15q-4 86 6 135q209 -36 420 -12q8 -66 -2 -138z" />
    <glyph glyph-name="Iogonek" unicode="&#x12e;" horiz-adv-x="528" 
d="M442 -346q-83 -119 -217 -119q-82 0 -130 42t-48 114q0 133 158 252q-8 -2 -35 -2q12 788 -43 1419q61 37 143 37q30 0 97 -11q8 -151 8 -370q0 -262 -4 -578q-2 -82 -17 -475q-9 -3 -24 -6q-131 -110 -131 -225q0 -76 67 -76t119 88q37 -34 57 -90z" />
    <glyph glyph-name="iogonek" unicode="&#x12f;" horiz-adv-x="468" 
d="M449 1497q-54 -133 -74 -237q-61 -12 -182 -9q-11 45 -11 92q0 92 27 158q50 26 123 23q68 0 117 -27zM381 -309q-84 -121 -217 -121q-79 0 -127.5 43.5t-48.5 112.5q0 137 162 256q-3 0 -11 1.5t-14 2.5q-33 251 -27 538q3 266 45 500q62 35 150 35q47 0 80 -8
q-43 -193 -64 -486q-20 -273 -10 -563q-30 -11 -33 -12q-129 -108 -129 -223q0 -35 18 -55.5t50 -20.5q67 0 119 88q33 -26 57 -88z" />
    <glyph glyph-name="Idot" unicode="&#x130;" horiz-adv-x="528" 
d="M375 1016q0 -262 -4 -578q-2 -82 -17 -475q-77 -19 -184 -22q12 788 -43 1419q61 37 143 37q30 0 97 -11q8 -151 8 -370zM283 1835q75 -3 116 -27q-48 -112 -73 -239q-69 -11 -183 -8q-10 41 -10 92q0 94 29 157q55 25 121 25z" />
    <glyph glyph-name="dotlessi" unicode="&#x131;" horiz-adv-x="468" 
d="M147 1024q62 35 150 35q47 0 80 -8q-43 -193 -64 -486q-20 -273 -10 -563q-49 -22 -121 -22q-39 0 -53 6q-31 243 -25 530q3 299 43 508z" />
    <glyph glyph-name="uni0136" unicode="&#x136;" horiz-adv-x="1196" 
d="M1190 -43q-72 -97 -180 -147q-144 253 -256 399q-117 152 -291 323q-95 -73 -111 -86q9 -297 45 -571q-98 -20 -192 -20q-45 308 -58 520q-18 240 -18 526q0 179 21 510q74 31 147 31q53 0 111 -15q-58 -357 -58 -780v-22q186 174 297 333q117 168 252 457
q91 -36 174 -131q-117 -212 -224.5 -357t-240.5 -268q167 -148 295 -301q129 -157 287 -401zM555 -145q113 14 164 8q9 -192 -78 -395q-77 0 -133 20q56 181 47 367z" />
    <glyph glyph-name="uni0137" unicode="&#x137;" horiz-adv-x="978" 
d="M305 473q0 -297 35 -541q-86 -24 -190 -24q-25 212 -35 387q-11 194 -11 336q0 204 17 479q16 252 41 412q52 5 122.5 -3.5t112.5 -25.5q-72 -373 -88 -825q119 107 217 223q93 109 224 305q39 -21 79 -55t66 -70q-91 -132 -189 -236.5t-241 -222.5q89 -121 199 -217
q109 -100 274 -211q-49 -64 -84 -95.5t-76 -49.5q-122 99 -225 211q-89 94 -213 264q-4 -3 -17.5 -12.5t-17.5 -12.5v-16zM436 -123q113 14 164 8q9 -192 -78 -395q-74 0 -133 21q56 180 47 366z" />
    <glyph glyph-name="Lacute" unicode="&#x139;" horiz-adv-x="1007" 
d="M985 29q23 -99 23 -176q-197 -3 -367 -15q-150 -11 -385 -43q-55 379 -82 801q-28 437 -20 758q95 26 184 26q15 0 65 -4q-22 -206 -22 -596q3 -270 18 -452q11 -168 37 -351q284 52 549 52zM449 1829q-19 -162 -136 -348q-75 0 -135 18q64 183 78 344q109 13 193 -14z
" />
    <glyph glyph-name="lacute" unicode="&#x13a;" horiz-adv-x="466" 
d="M352 -102q-90 -23 -190 -23q-65 905 -33 1608q63 37 137 37q56 0 109 -15q-31 -313 -37 -751q-6 -466 14 -856zM420 1931q-20 -164 -135 -348q-71 0 -135 19q63 179 77 344q107 13 193 -15z" />
    <glyph glyph-name="uni013B" unicode="&#x13b;" horiz-adv-x="1007" 
d="M985 29q23 -99 23 -176q-197 -3 -367 -15q-150 -11 -385 -43q-55 379 -82 801q-28 437 -20 758q95 26 184 26q15 0 65 -4q-22 -206 -22 -596q3 -270 18 -452q11 -168 37 -351q284 52 549 52zM514 -258q113 14 164 8q9 -192 -78 -395q-77 0 -133 20q56 181 47 367z" />
    <glyph glyph-name="uni013C" unicode="&#x13c;" horiz-adv-x="466" 
d="M352 -102q-90 -23 -190 -23q-65 905 -33 1608q63 37 137 37q56 0 109 -15q-31 -313 -37 -751q-6 -466 14 -856zM162 -201q113 14 164 8q9 -192 -78 -395q-74 0 -133 21q56 180 47 366z" />
    <glyph glyph-name="Lcaron" unicode="&#x13d;" horiz-adv-x="1007" 
d="M985 29q23 -99 23 -176q-197 -3 -367 -15q-150 -11 -385 -43q-55 379 -82 801q-28 437 -20 758q95 26 184 26q15 0 65 -4q-22 -206 -22 -596q3 -270 18 -452q11 -168 37 -351q284 52 549 52zM807 1380q-22 -248 -117 -450q-76 3 -145 22q56 228 59 443q104 9 203 -15z
" />
    <glyph glyph-name="lcaron" unicode="&#x13e;" horiz-adv-x="466" 
d="M352 -102q-90 -23 -190 -23q-65 905 -33 1608q63 37 137 37q56 0 109 -15q-31 -313 -37 -751q-6 -466 14 -856zM666 1380q-22 -248 -117 -450q-77 3 -146 22q57 232 60 443q104 9 203 -15z" />
    <glyph glyph-name="Lslash" unicode="&#x141;" horiz-adv-x="987" 
d="M983 -147q-197 -3 -367 -15q-150 -11 -385 -43q-29 204 -59 527q-159 -96 -195 -117q-53 50 -86 135q131 74 267 164q-32 415 -29 850q98 26 184 26q6 0 68 -4q-26 -268 -23 -596q0 -106 2 -139q178 125 347 258q56 -49 92 -141q-252 -192 -432 -309q11 -234 47 -472
q284 52 549 52q20 -98 20 -176z" />
    <glyph glyph-name="lslash" unicode="&#x142;" horiz-adv-x="466" 
d="M340 -102q-90 -23 -190 -23q-22 265 -33 578q-6 -4 -24 -16.5t-36 -24.5q-64 -48 -102 -72q-60 57 -92 133q127 83 248 174q-11 415 6 836q63 37 137 37q56 0 108 -15q-24 -236 -34 -694q101 81 178 147q51 -45 96 -137q-135 -112 -276 -219q-3 -308 14 -704z" />
    <glyph glyph-name="Nacute" unicode="&#x143;" horiz-adv-x="1327" 
d="M360 600q2 -183 31 -661q-77 -23 -180 -23q-42 485 -59 815q-19 359 -19 645q9 3 12 6q103 50 232 64q189 -251 331 -501.5t265 -551.5q1 19 2 60.5t2 62.5v205q0 552 -37 792q120 36 231 39q6 -120 11 -260q2 -59 2 -168q0 -280 -10 -557q-7 -187 -33 -514
q-138 -20 -189 -22q-153 356 -294.5 613.5t-299.5 463.5v-172q0 -174 2 -336zM840 1870q-20 -164 -135 -348q-76 0 -136 18q64 183 78 344q109 13 193 -14z" />
    <glyph glyph-name="nacute" unicode="&#x144;" horiz-adv-x="1009" 
d="M313 309q0 -243 13 -360q-84 -25 -183 -25q-15 226 -30 568q-15 340 -15 575q63 29 156 29q55 0 98 -11q-13 -109 -16 -213q133 213 301 213q131 0 193.5 -95t62.5 -296q0 -164 -27 -364q-26 -193 -55 -307q-74 0 -205 28q72 397 72 645q0 112 -29 162.5t-92 50.5
q-64 0 -126.5 -65.5t-106.5 -181.5q-11 -251 -11 -353zM678 1507q-20 -164 -135 -348q-71 0 -135 19q63 179 77 344q107 13 193 -15z" />
    <glyph glyph-name="uni0145" unicode="&#x145;" horiz-adv-x="1327" 
d="M360 600q2 -183 31 -661q-77 -23 -180 -23q-42 485 -59 815q-19 359 -19 645q9 3 12 6q103 50 232 64q189 -251 331 -501.5t265 -551.5q1 19 2 60.5t2 62.5v205q0 552 -37 792q120 36 231 39q6 -120 11 -260q2 -59 2 -168q0 -280 -10 -557q-7 -187 -33 -514
q-138 -20 -189 -22q-153 356 -294.5 613.5t-299.5 463.5v-172q0 -174 2 -336zM618 -111q118 15 164 9q9 -195 -77 -396q-75 0 -134 21q56 180 47 366z" />
    <glyph glyph-name="uni0146" unicode="&#x146;" horiz-adv-x="1009" 
d="M313 309q0 -243 13 -360q-84 -25 -183 -25q-15 226 -30 568q-15 340 -15 575q63 29 156 29q55 0 98 -11q-13 -109 -16 -213q133 213 301 213q131 0 193.5 -95t62.5 -296q0 -164 -27 -364q-26 -193 -55 -307q-74 0 -205 28q72 397 72 645q0 112 -29 162.5t-92 50.5
q-64 0 -126.5 -65.5t-106.5 -181.5q-11 -251 -11 -353zM397 -133q113 14 164 8q9 -192 -78 -395q-77 0 -133 20q56 181 47 367z" />
    <glyph glyph-name="Ncaron" unicode="&#x147;" horiz-adv-x="1327" 
d="M360 600q2 -183 31 -661q-77 -23 -180 -23q-42 485 -59 815q-19 359 -19 645q9 3 12 6q103 50 232 64q189 -251 331 -501.5t265 -551.5q1 19 2 60.5t2 62.5v205q0 552 -37 792q120 36 231 39q6 -120 11 -260q2 -59 2 -168q0 -280 -10 -557q-7 -187 -33 -514
q-138 -20 -189 -22q-153 356 -294.5 613.5t-299.5 463.5v-172q0 -174 2 -336zM371 1784q48 57 102 76q108 -81 172 -170q54 78 170 174q62 -23 100 -74q-77 -68 -121 -126t-77 -132q-54 -6 -68 -6q-7 0 -76 6q-31 67 -75.5 123.5t-126.5 128.5z" />
    <glyph glyph-name="ncaron" unicode="&#x148;" horiz-adv-x="1009" 
d="M313 309q0 -243 13 -360q-84 -25 -183 -25q-15 226 -30 568q-15 340 -15 575q63 29 156 29q55 0 98 -11q-13 -109 -16 -213q133 213 301 213q131 0 193.5 -95t62.5 -296q0 -164 -27 -364q-26 -193 -55 -307q-74 0 -205 28q72 397 72 645q0 112 -29 162.5t-92 50.5
q-64 0 -126.5 -65.5t-106.5 -181.5q-11 -251 -11 -353zM252 1434q47 55 102 75q108 -81 172 -170q54 78 170 174q65 -24 101 -73q-78 -69 -122.5 -126.5t-76.5 -131.5q-54 -6 -68 -6q-6 0 -75 6q-31 67 -75.5 123.5t-127.5 128.5z" />
    <glyph glyph-name="Omacron" unicode="&#x14c;" horiz-adv-x="1251" 
d="M688 1501q231 0 353 -174t122 -502q0 -150 -35 -299t-98 -266q-79 -148 -198.5 -224.5t-268.5 -76.5q-218 0 -350 203q-133 201 -133 524q0 354 170 586q168 229 438 229zM596 115q161 0 250 182q88 180 88 475q0 296 -69 433.5t-218 137.5q-150 0 -244 -172
q-94 -175 -94 -452q0 -261 78 -434q77 -170 209 -170zM866 1661q-294 -37 -424 14q-3 82 7 135q208 -36 419 -12q8 -65 -2 -137z" />
    <glyph glyph-name="omacron" unicode="&#x14d;" horiz-adv-x="970" 
d="M57 492q0 268 133 442q132 172 342 172q167 0 264 -118t97 -322q0 -300 -125 -492q-126 -194 -338 -194q-170 0 -272 141q-101 140 -101 371zM672 573q0 390 -187 390q-86 0 -151 -127q-64 -128 -64 -316q0 -167 56 -282q52 -117 145 -117q83 0 141 135q60 135 60 317z
M713 1262q-294 -37 -424 14q-4 86 6 135q209 -36 420 -12q8 -65 -2 -137z" />
    <glyph glyph-name="Ohungarumlaut" unicode="&#x150;" horiz-adv-x="1251" 
d="M688 1501q231 0 353 -174t122 -502q0 -150 -35 -299t-98 -266q-79 -148 -198.5 -224.5t-268.5 -76.5q-218 0 -350 203q-133 201 -133 524q0 354 170 586q168 229 438 229zM596 115q161 0 250 182q88 180 88 475q0 296 -69 433.5t-218 137.5q-150 0 -244 -172
q-94 -175 -94 -452q0 -261 78 -434q77 -170 209 -170zM692 1905q-20 -166 -135 -349q-71 0 -135 19q64 183 78 344q109 13 192 -14zM973 1905q-20 -166 -135 -349q-72 0 -136 19q64 183 78 344q109 13 193 -14z" />
    <glyph glyph-name="ohungarumlaut" unicode="&#x151;" horiz-adv-x="970" 
d="M57 492q0 268 133 442q132 172 342 172q167 0 264 -118t97 -322q0 -300 -125 -492q-126 -194 -338 -194q-170 0 -272 141q-101 140 -101 371zM672 573q0 390 -187 390q-86 0 -151 -127q-64 -128 -64 -316q0 -167 56 -282q52 -117 145 -117q83 0 141 135q60 135 60 317z
M557 1520q-20 -166 -135 -349q-71 0 -135 19q64 183 78 344q109 13 192 -14zM838 1520q-20 -164 -136 -349q-71 0 -135 19q64 183 78 344q109 13 193 -14z" />
    <glyph glyph-name="OE" unicode="&#x152;" horiz-adv-x="1849" 
d="M1774 -10q-171 -27 -363 -41q-230 -16 -405 -19q-14 112 -37 252q-136 -239 -391 -239q-224 0 -359 202q-135 200 -135 523q0 367 156 592q152 223 413 223q139 0 236 -72q268 48 461 70q170 17 374 20q3 -93 -16 -180q-323 -3 -594 -41q-8 -221 4 -477q289 57 498 71
q19 -78 16 -174q-313 -21 -504 -53q12 -230 58 -547q307 10 571 66q21 -58 17 -176zM610 96q135 0 207 172t70 486q-3 571 -273 571q-142 0 -221.5 -165t-79.5 -460q0 -263 80 -434q77 -170 217 -170z" />
    <glyph glyph-name="oe" unicode="&#x153;" horiz-adv-x="1591" 
d="M903 618q98 -36 227 -36q28 0 84 8q31 113 31 192t-25 114.5t-81 35.5q-73 0 -136.5 -86t-99.5 -228zM465 90q81 0 143 135q60 135 60 318q0 198 -46 293.5t-143 95.5q-87 0 -149 -127q-64 -128 -64 -316q0 -169 56 -284q53 -115 143 -115zM1311 322q97 -24 162 -89
q-33 -111 -162 -204q-130 -95 -258 -95q-222 0 -318 203q-123 -188 -313 -188q-166 0 -268 141q-101 137 -101 369q0 271 131 442q129 172 334 172q103 0 182 -51.5t129 -149.5q69 92 154.5 141.5t177.5 49.5q129 0 206 -79.5t77 -213.5q0 -144 -49 -274q-93 -37 -277 -37
q-119 0 -237 37q-1 -28 -2.5 -53.5t-1.5 -34.5q0 -154 50.5 -245t137.5 -91q73 0 145 75q76 79 101 175z" />
    <glyph glyph-name="Racute" unicode="&#x154;" horiz-adv-x="1187" 
d="M1159 31q-60 -60 -196 -101q-129 285 -199 416q-86 157 -176 285q-130 -46 -197 -66q-12 -331 -35 -575q-88 -10 -184 10q9 243 12 297v117q0 290 -10 528q-11 197 -43 488q91 69 210.5 108t240.5 39q216 0 341.5 -108t125.5 -293q0 -289 -293 -465q201 -245 403 -680z
M371 1393q22 -290 22 -586v-94q220 56 325 161t105 271q0 139 -69 214t-197 75q-90 0 -186 -41zM684 1989q-20 -166 -135 -349q-71 0 -135 19q64 183 78 344q109 13 192 -14z" />
    <glyph glyph-name="racute" unicode="&#x155;" horiz-adv-x="811" 
d="M322 504q13 -236 57 -508q-54 -19 -125 -16q-41 0 -72 10q-51 260 -70.5 552t-2.5 560q53 16 122 16q62 0 117 -18q-20 -146 -26 -240q47 146 124.5 232t159.5 86q182 0 182 -273q0 -14 -1 -31t-2.5 -38t-2.5 -33q-57 -22 -186 -19q8 52 8 103q0 125 -61 125
q-66 0 -126 -138t-95 -370zM563 1538q-20 -164 -135 -348q-75 0 -135 18q64 183 78 344q109 13 192 -14z" />
    <glyph glyph-name="uni0156" unicode="&#x156;" horiz-adv-x="1187" 
d="M1159 31q-60 -60 -196 -101q-129 285 -199 416q-86 157 -176 285q-130 -46 -197 -66q-12 -331 -35 -575q-88 -10 -184 10q9 243 12 297v117q0 290 -10 528q-11 197 -43 488q91 69 210.5 108t240.5 39q216 0 341.5 -108t125.5 -293q0 -289 -293 -465q201 -245 403 -680z
M371 1393q22 -290 22 -586v-94q220 56 325 161t105 271q0 139 -69 214t-197 75q-90 0 -186 -41zM537 -88q113 14 163 8q9 -194 -77 -395q-78 0 -134 20q57 183 48 367z" />
    <glyph glyph-name="uni0157" unicode="&#x157;" horiz-adv-x="811" 
d="M322 504q13 -236 57 -508q-54 -19 -125 -16q-41 0 -72 10q-51 260 -70.5 552t-2.5 560q53 16 122 16q62 0 117 -18q-20 -146 -26 -240q47 146 124.5 232t159.5 86q182 0 182 -273q0 -14 -1 -31t-2.5 -38t-2.5 -33q-57 -22 -186 -19q8 52 8 103q0 125 -61 125
q-66 0 -126 -138t-95 -370zM186 -109q118 15 164 9q9 -193 -78 -396q-74 0 -133 21q56 180 47 366z" />
    <glyph glyph-name="Rcaron" unicode="&#x158;" horiz-adv-x="1187" 
d="M1159 31q-60 -60 -196 -101q-129 285 -199 416q-86 157 -176 285q-130 -46 -197 -66q-12 -331 -35 -575q-88 -10 -184 10q9 243 12 297v117q0 290 -10 528q-11 197 -43 488q91 69 210.5 108t240.5 39q216 0 341.5 -108t125.5 -293q0 -289 -293 -465q201 -245 403 -680z
M371 1393q22 -290 22 -586v-94q220 56 325 161t105 271q0 139 -69 214t-197 75q-90 0 -186 -41zM270 1913q48 56 103 76q108 -81 172 -170q54 78 170 174q62 -23 100 -74q-78 -69 -122.5 -126.5t-76.5 -131.5q-54 -6 -67 -6q-7 0 -76 6q-31 67 -75.5 123.5t-127.5 128.5z
" />
    <glyph glyph-name="rcaron" unicode="&#x159;" horiz-adv-x="811" 
d="M322 504q13 -236 57 -508q-54 -19 -125 -16q-41 0 -72 10q-51 260 -70.5 552t-2.5 560q53 16 122 16q62 0 117 -18q-20 -146 -26 -240q47 146 124.5 232t159.5 86q182 0 182 -273q0 -14 -1 -31t-2.5 -38t-2.5 -33q-57 -22 -186 -19q8 52 8 103q0 125 -61 125
q-66 0 -126 -138t-95 -370zM106 1444q48 56 103 76q108 -81 172 -170q54 78 170 174q62 -23 100 -74q-77 -68 -121 -126t-77 -132q-54 -6 -68 -6q-7 0 -76 6q-31 67 -75.5 123.5t-127.5 128.5z" />
    <glyph glyph-name="Sacute" unicode="&#x15a;" horiz-adv-x="1013" 
d="M852 614q82 -122 82 -286q0 -182 -119 -295q-121 -115 -301 -115q-214 0 -342 152q-127 151 -127 383q97 48 188 51q-2 -205 69 -323t198 -118q96 0 152.5 61.5t56.5 164.5q0 96 -47 176q-46 75 -207 197q-98 73 -144.5 117.5t-79.5 92.5q-84 121 -84 291
q0 185 112 296.5t298 111.5q172 0 269 -93t135 -300q-63 -39 -191 -50q-19 154 -70 222.5t-149 68.5q-85 0 -129.5 -55.5t-44.5 -159.5q0 -103 49 -182q44 -78 207 -201q93 -70 139.5 -114.5t79.5 -92.5zM733 1982q-20 -164 -135 -348q-71 0 -135 19q64 183 78 344
q107 13 192 -15z" />
    <glyph glyph-name="sacute" unicode="&#x15b;" horiz-adv-x="825" 
d="M498 610q154 -107 204 -184t50 -172q0 -147 -103 -242q-104 -96 -258 -96q-156 0 -250 107q-98 104 -98 268q71 30 162 26q-4 -127 45.5 -199.5t140.5 -72.5q69 0 109.5 44.5t40.5 119.5q0 64 -37 119q-43 60 -168 145q-155 110 -205 191q-49 79 -49 178q0 137 89.5 221
t238.5 84q143 0 227 -77t113 -236q-63 -36 -177 -48q-19 117 -57.5 169.5t-105.5 52.5q-54 0 -86.5 -36.5t-32.5 -97.5q0 -65 39 -118q45 -62 168 -146zM618 1540q-20 -164 -135 -348q-75 0 -135 18q64 183 78 344q109 13 192 -14z" />
    <glyph glyph-name="uni015E" unicode="&#x15e;" horiz-adv-x="1013" 
d="M852 614q82 -122 82 -286q0 -182 -119 -295q-121 -115 -301 -115q-214 0 -342 152q-127 151 -127 383q97 48 188 51q-2 -205 69 -323t198 -118q96 0 152.5 61.5t56.5 164.5q0 96 -47 176q-46 75 -207 197q-98 73 -144.5 117.5t-79.5 92.5q-84 121 -84 291
q0 185 112 296.5t298 111.5q172 0 269 -93t135 -300q-63 -39 -191 -50q-19 154 -70 222.5t-149 68.5q-85 0 -129.5 -55.5t-44.5 -159.5q0 -103 49 -182q44 -78 207 -201q93 -70 139.5 -114.5t79.5 -92.5zM729 -303q0 -90 -64.5 -144.5t-170.5 -54.5q-164 0 -218 150
q52 34 97 51q14 -45 44.5 -71.5t71.5 -26.5q42 0 66.5 22.5t24.5 61.5q0 35 -23.5 57t-60.5 22q-38 0 -74 -20q-40 36 -51 53q58 91 61 187l105 -23q-9 -61 -31 -108q48 6 49 6q79 0 126.5 -44t47.5 -118z" />
    <glyph glyph-name="uni015F" unicode="&#x15f;" horiz-adv-x="825" 
d="M498 610q154 -107 204 -184t50 -172q0 -147 -103 -242q-104 -96 -258 -96q-156 0 -250 107q-98 104 -98 268q71 30 162 26q-4 -127 45.5 -199.5t140.5 -72.5q69 0 109.5 44.5t40.5 119.5q0 64 -37 119q-43 60 -168 145q-155 110 -205 191q-49 79 -49 178q0 137 89.5 221
t238.5 84q143 0 227 -77t113 -236q-63 -36 -177 -48q-19 117 -57.5 169.5t-105.5 52.5q-54 0 -86.5 -36.5t-32.5 -97.5q0 -65 39 -118q45 -62 168 -146zM653 -309q0 -90 -64.5 -144.5t-170.5 -54.5q-163 0 -217 150q53 35 96 51q14 -45 45 -72t72 -27q42 0 66 22.5t24 61.5
q0 35 -23.5 57.5t-60.5 22.5q-38 0 -74 -20q-40 36 -51 53q58 91 61 186l105 -22q-10 -62 -31 -109q4 0 22 3.5t27 3.5q79 0 126.5 -44t47.5 -118z" />
    <glyph glyph-name="Scaron" unicode="&#x160;" horiz-adv-x="1013" 
d="M852 614q82 -122 82 -286q0 -182 -119 -295q-121 -115 -301 -115q-214 0 -342 152q-127 151 -127 383q97 48 188 51q-2 -205 69 -323t198 -118q96 0 152.5 61.5t56.5 164.5q0 96 -47 176q-46 75 -207 197q-98 73 -144.5 117.5t-79.5 92.5q-84 121 -84 291
q0 185 112 296.5t298 111.5q172 0 269 -93t135 -300q-63 -39 -191 -50q-19 154 -70 222.5t-149 68.5q-85 0 -129.5 -55.5t-44.5 -159.5q0 -103 49 -182q44 -78 207 -201q93 -70 139.5 -114.5t79.5 -92.5zM303 1886q48 56 103 76q108 -81 172 -170q54 78 170 174
q62 -23 100 -74q-78 -69 -122.5 -126.5t-76.5 -131.5q-54 -6 -67 -6q-7 0 -76 6q-31 67 -75.5 123.5t-127.5 128.5z" />
    <glyph glyph-name="scaron" unicode="&#x161;" horiz-adv-x="825" 
d="M498 610q154 -107 204 -184t50 -172q0 -147 -103 -242q-104 -96 -258 -96q-156 0 -250 107q-98 104 -98 268q71 30 162 26q-4 -127 45.5 -199.5t140.5 -72.5q69 0 109.5 44.5t40.5 119.5q0 64 -37 119q-43 60 -168 145q-155 110 -205 191q-49 79 -49 178q0 137 89.5 221
t238.5 84q143 0 227 -77t113 -236q-63 -36 -177 -48q-19 117 -57.5 169.5t-105.5 52.5q-54 0 -86.5 -36.5t-32.5 -97.5q0 -65 39 -118q45 -62 168 -146zM162 1452q48 57 102 76q108 -81 172 -170q54 78 170 174q64 -24 101 -74q-78 -69 -122.5 -126.5t-76.5 -131.5
q-54 -6 -68 -6q-6 0 -75 6q-31 67 -75.5 123.5t-127.5 128.5z" />
    <glyph glyph-name="uni0162" unicode="&#x162;" horiz-adv-x="1204" 
d="M758 74q-86 -25 -203 -25q9 300 -10 682q-22 385 -60 666q-282 -31 -422 -51q-24 76 -24 172q309 55 555 79q256 22 541 25q13 -45 16 -98q0 -41 -8 -92q-229 -3 -414 -15q45 -431 45 -887q0 -197 -16 -456zM895 -186q0 -90 -65 -144.5t-171 -54.5q-164 0 -217 149
q56 37 97 52q14 -45 44.5 -72t71.5 -27q42 0 66 22.5t24 61.5q0 35 -23 57.5t-60 22.5q-38 0 -74 -20q-40 36 -51 53q58 91 61 186l104 -22q-10 -65 -30 -109q48 6 49 6q79 0 126.5 -43.5t47.5 -117.5z" />
    <glyph glyph-name="uni0163" unicode="&#x163;" horiz-adv-x="802" 
d="M575 436q80 -9 154 -55q-5 -169 -75 -266t-193 -97q-146 0 -223.5 148.5t-77.5 429.5q0 195 20 356q-66 10 -149 27q0 73 28 131q68 -16 140 -25q23 145 55 269q148 -9 227 -35q-32 -92 -61 -250q163 -3 311 12q0 -65 -24 -129q-165 -17 -308 -14q-28 -194 -28 -371
q0 -409 106 -409q95 0 98 278zM670 -195q0 -90 -65 -144t-171 -54q-164 0 -217 149q53 35 96 51q14 -45 45 -71.5t72 -26.5q42 0 66 22.5t24 61.5q0 35 -23.5 57.5t-60.5 22.5q-38 0 -74 -20q-40 36 -51 53q59 93 62 186l104 -22q-10 -62 -31 -109q48 6 50 6q79 0 126.5 -44
t47.5 -118z" />
    <glyph glyph-name="Tcaron" unicode="&#x164;" horiz-adv-x="1204" 
d="M758 74q-86 -25 -203 -25q9 300 -10 682q-22 385 -60 666q-282 -31 -422 -51q-24 76 -24 172q309 55 555 79q256 22 541 25q13 -45 16 -98q0 -41 -8 -92q-229 -3 -414 -15q45 -431 45 -887q0 -197 -16 -456zM305 1929q48 56 103 76q108 -81 172 -170q54 78 170 174
q62 -23 100 -74q-78 -69 -122.5 -126.5t-76.5 -131.5q-54 -6 -67 -6q-7 0 -76 6q-31 67 -75.5 123.5t-127.5 128.5z" />
    <glyph glyph-name="tcaron" unicode="&#x165;" horiz-adv-x="802" 
d="M575 436q80 -9 154 -55q-5 -169 -75 -266t-193 -97q-146 0 -223.5 148.5t-77.5 429.5q0 195 20 356q-66 10 -149 27q0 73 28 131q68 -16 140 -25q23 145 55 269q148 -9 227 -35q-32 -92 -61 -250q163 -3 311 12q0 -65 -24 -129q-165 -17 -308 -14q-28 -194 -28 -371
q0 -409 106 -409q95 0 98 278zM797 1599q-22 -248 -117 -450q-76 3 -145 22q56 228 59 443q104 9 203 -15z" />
    <glyph glyph-name="Umacron" unicode="&#x16a;" horiz-adv-x="1148" 
d="M950 1448q92 -368 92 -670q0 -942 -536 -942q-406 0 -406 717q0 201 33 403q30 205 74 328q47 14 121 14q52 0 92 -14q-84 -385 -84 -676q0 -314 50.5 -463t156.5 -149q127 0 197.5 177.5t70.5 496.5q0 378 -94 737q95 38 233 41zM721 1468q-292 -37 -424 15q-4 86 6 135
q209 -36 420 -12q8 -66 -2 -138z" />
    <glyph glyph-name="umacron" unicode="&#x16b;" horiz-adv-x="907" 
d="M412 -20q-165 0 -250.5 145t-85.5 424q0 149 26 293q24 149 58 213q50 16 100 16q49 0 90 -18q-57 -206 -57 -488q0 -200 40 -320t111 -120q81 0 124.5 138.5t43.5 393.5q0 96 -8 177q-11 105 -16 127q84 38 221 38q20 -81 20 -254q0 -376 -105.5 -570.5t-311.5 -194.5z
M713 1200q-294 -37 -424 14q-4 87 6 136q212 -37 420 -13q8 -65 -2 -137z" />
    <glyph glyph-name="Uring" unicode="&#x16e;" horiz-adv-x="1148" 
d="M950 1448q92 -368 92 -670q0 -942 -536 -942q-406 0 -406 717q0 201 33 403q30 205 74 328q47 14 121 14q52 0 92 -14q-84 -385 -84 -676q0 -314 50.5 -463t156.5 -149q127 0 197.5 177.5t70.5 496.5q0 378 -94 737q95 38 233 41zM324 1593q0 94 62 151.5t165 57.5
q84 0 133 -44.5t49 -119.5q0 -103 -61 -164t-164 -61q-82 0 -133 50t-51 130zM600 1622q0 104 -68 104q-35 0 -57 -35.5t-22 -95.5q0 -45 19.5 -72.5t51.5 -27.5q35 0 55.5 35t20.5 92z" />
    <glyph glyph-name="uring" unicode="&#x16f;" horiz-adv-x="907" 
d="M412 -20q-165 0 -250.5 145t-85.5 424q0 149 26 293q24 149 58 213q50 16 100 16q49 0 90 -18q-57 -206 -57 -488q0 -200 40 -320t111 -120q81 0 124.5 138.5t43.5 393.5q0 96 -8 177q-11 105 -16 127q84 38 221 38q20 -81 20 -254q0 -376 -105.5 -570.5t-311.5 -194.5z
M287 1296q0 94 62 151.5t165 57.5q84 0 133 -44.5t49 -119.5q0 -103 -61 -164t-164 -61q-82 0 -133 50t-51 130zM563 1325q0 105 -67 105q-36 0 -58 -36t-22 -96q0 -45 19.5 -72.5t51.5 -27.5q35 0 55.5 35t20.5 92z" />
    <glyph glyph-name="Uhungarumlaut" unicode="&#x170;" horiz-adv-x="1148" 
d="M950 1448q92 -368 92 -670q0 -942 -536 -942q-406 0 -406 717q0 201 33 403q30 205 74 328q47 14 121 14q52 0 92 -14q-84 -385 -84 -676q0 -314 50.5 -463t156.5 -149q127 0 197.5 177.5t70.5 496.5q0 378 -94 737q95 38 233 41zM559 1804q-20 -164 -135 -348
q-71 0 -135 19q64 183 78 344q107 13 192 -15zM840 1804q-20 -164 -135 -348q-72 0 -136 19q64 183 78 344q107 13 193 -15z" />
    <glyph glyph-name="uhungarumlaut" unicode="&#x171;" horiz-adv-x="907" 
d="M412 -20q-165 0 -250.5 145t-85.5 424q0 149 26 293q24 149 58 213q50 16 100 16q49 0 90 -18q-57 -206 -57 -488q0 -200 40 -320t111 -120q81 0 124.5 138.5t43.5 393.5q0 96 -8 177q-11 105 -16 127q84 38 221 38q20 -81 20 -254q0 -376 -105.5 -570.5t-311.5 -194.5z
M535 1458q-19 -162 -136 -348q-75 0 -135 18q64 182 78 345q107 13 193 -15zM815 1458q-20 -164 -135 -348q-75 0 -135 18q64 182 78 345q107 13 192 -15z" />
    <glyph glyph-name="Uogonek" unicode="&#x172;" horiz-adv-x="1148" 
d="M778 -449q-76 -114 -215 -114q-85 0 -132.5 44t-47.5 122q0 123 131 233h-8q-406 0 -406 717q0 201 33 403q30 205 74 328q47 14 121 14q52 0 92 -14q-84 -385 -84 -676q0 -314 50.5 -463t156.5 -149q127 0 197.5 177.5t70.5 496.5q0 378 -94 737q95 38 233 41
q92 -368 92 -670q0 -376 -81 -594t-254 -309q-79 -43 -125.5 -105.5t-46.5 -125.5q0 -42 17 -66t48 -24q71 0 119 86q34 -24 59 -89z" />
    <glyph glyph-name="uogonek" unicode="&#x173;" horiz-adv-x="907" 
d="M664 -299q-78 -113 -215 -113q-85 0 -133 42.5t-48 117.5q0 119 138 232q-164 1 -247 146t-83 423q0 149 26 293q24 149 58 213q50 16 100 16q49 0 90 -18q-57 -206 -57 -488q0 -200 40 -320t111 -120q81 0 124.5 138.5t43.5 393.5q0 96 -8 177q-11 105 -16 127
q84 38 221 38q20 -81 20 -254q0 -568 -235 -716q-81 -50 -127.5 -118t-46.5 -132q0 -33 18.5 -54.5t48.5 -21.5q67 0 119 88q34 -31 58 -90z" />
    <glyph glyph-name="Ydieresis" unicode="&#x178;" horiz-adv-x="1075" 
d="M1018 1391q-142 -568 -293 -928q-152 -354 -358 -643q-110 31 -174 80q166 241 280 487q-157 212 -264 457q-109 246 -191 583q107 59 230 68q43 -251 118 -465.5t197 -431.5q143 371 228 872q133 -22 227 -79zM414 1853q77 -3 116 -26q-48 -112 -73 -240
q-69 -11 -183 -8q-10 41 -10 92q0 95 29 158q52 24 121 24zM735 1853q78 -3 117 -26q-50 -116 -74 -240q-69 -11 -182 -8q-10 41 -10 92q0 97 28 158q53 24 121 24z" />
    <glyph glyph-name="Zacute" unicode="&#x179;" horiz-adv-x="1200" 
d="M1087 147q-3 -119 -43 -217q-224 1 -497 23.5t-502 56.5q-3 116 16 176q566 590 832 1041q-345 25 -725 88q3 116 53 198q352 -70 936 -157q-12 -109 -29 -158q-147 -224 -356 -477.5t-510 -573.5q443 -27 825 0zM883 1874q-20 -164 -135 -348q-76 0 -136 18
q64 183 78 344q109 13 193 -14z" />
    <glyph glyph-name="zacute" unicode="&#x17a;" horiz-adv-x="956" 
d="M834 135q-3 -96 -41 -186q-455 3 -766 96q0 72 14 133q311 414 633 719q-164 22 -236 27q-99 7 -313 14q8 110 41 182q194 -13 393 -45q160 -29 336 -86q-9 -89 -31 -141q-372 -372 -628 -713q210 -17 321 -14q143 0 277 14zM743 1477q-20 -166 -135 -349q-71 0 -135 19
q64 183 78 344q109 13 192 -14z" />
    <glyph glyph-name="Zdotaccent" unicode="&#x17b;" horiz-adv-x="1200" 
d="M1087 147q-3 -119 -43 -217q-224 1 -497 23.5t-502 56.5q-3 116 16 176q566 590 832 1041q-345 25 -725 88q3 116 53 198q352 -70 936 -157q-12 -109 -29 -158q-147 -224 -356 -477.5t-510 -573.5q443 -27 825 0zM756 1821q75 -3 116 -27q-48 -112 -73 -240
q-69 -11 -183 -8q-10 41 -10 92q0 95 29 158q55 25 121 25z" />
    <glyph glyph-name="zdotaccent" unicode="&#x17c;" horiz-adv-x="956" 
d="M834 135q-3 -96 -41 -186q-455 3 -766 96q0 72 14 133q311 414 633 719q-164 22 -236 27q-99 7 -313 14q8 110 41 182q194 -13 393 -45q160 -29 336 -86q-9 -89 -31 -141q-372 -372 -628 -713q210 -17 321 -14q143 0 277 14zM606 1434q76 -3 117 -27q-50 -116 -74 -240
q-69 -11 -182 -8q-10 41 -10 92q0 97 28 158q55 25 121 25z" />
    <glyph glyph-name="Zcaron" unicode="&#x17d;" horiz-adv-x="1200" 
d="M1087 147q-3 -119 -43 -217q-224 1 -497 23.5t-502 56.5q-3 116 16 176q566 590 832 1041q-345 25 -725 88q3 116 53 198q352 -70 936 -157q-12 -109 -29 -158q-147 -224 -356 -477.5t-510 -573.5q443 -27 825 0zM430 1784q48 57 102 76q110 -82 173 -170q56 80 169 174
q64 -24 101 -74q-78 -69 -122.5 -126.5t-76.5 -131.5q-54 -6 -67 -6q-7 0 -76 6q-31 67 -75.5 123.5t-127.5 128.5z" />
    <glyph glyph-name="zcaron" unicode="&#x17e;" horiz-adv-x="956" 
d="M834 135q-3 -96 -41 -186q-455 3 -766 96q0 72 14 133q311 414 633 719q-164 22 -236 27q-99 7 -313 14q8 110 41 182q194 -13 393 -45q160 -29 336 -86q-9 -89 -31 -141q-372 -372 -628 -713q210 -17 321 -14q143 0 277 14zM225 1436q47 55 103 75q108 -81 172 -170
q56 80 170 175q62 -23 100 -74q-78 -69 -122.5 -126.5t-76.5 -131.5q-54 -6 -67 -6q-7 0 -76 6q-31 67 -75.5 123.5t-127.5 128.5z" />
    <glyph glyph-name="florin" unicode="&#x192;" horiz-adv-x="782" 
d="M500 86q-27 -403 -312 -403q-109 0 -173 73t-64 193q0 64 24 117q78 0 164 -27q-16 -43 -16 -100q0 -55 22.5 -86t61.5 -31q60 0 88.5 64t28.5 198q0 179 -56 418q-57 229 -61 260q-86 10 -189 39q0 51 25 114q100 -14 143 -16q-6 81 -6 90q-4 232 86.5 362.5
t255.5 135.5q118 1 188 -71t72 -191q0 -75 -24 -121q-78 0 -166 24q16 40 16 103q0 54 -25.5 85.5t-68.5 31.5q-127 -3 -127 -293q0 -94 10 -168q31 -2 135 -2q116 0 187 14q0 -61 -14 -147q-57 -13 -166 -13q-92 0 -119 2q4 -19 33 -151q27 -121 34 -172q27 -177 13 -332z
" />
    <glyph glyph-name="uni0218" unicode="&#x218;" horiz-adv-x="1013" 
d="M852 614q82 -122 82 -286q0 -182 -119 -295q-121 -115 -301 -115q-214 0 -342 152q-127 151 -127 383q97 48 188 51q-2 -205 69 -323t198 -118q96 0 152.5 61.5t56.5 164.5q0 96 -47 176q-46 75 -207 197q-98 73 -144.5 117.5t-79.5 92.5q-84 121 -84 291
q0 185 112 296.5t298 111.5q172 0 269 -93t135 -300q-63 -39 -191 -50q-19 154 -70 222.5t-149 68.5q-85 0 -129.5 -55.5t-44.5 -159.5q0 -103 49 -182q44 -78 207 -201q93 -70 139.5 -114.5t79.5 -92.5zM434 -145q113 14 164 8q9 -192 -78 -395q-77 0 -133 20
q56 181 47 367z" />
    <glyph glyph-name="uni0219" unicode="&#x219;" horiz-adv-x="825" 
d="M498 610q154 -107 204 -184t50 -172q0 -147 -103 -242q-104 -96 -258 -96q-156 0 -250 107q-98 104 -98 268q71 30 162 26q-4 -127 45.5 -199.5t140.5 -72.5q69 0 109.5 44.5t40.5 119.5q0 64 -37 119q-43 60 -168 145q-155 110 -205 191q-49 79 -49 178q0 137 89.5 221
t238.5 84q143 0 227 -77t113 -236q-63 -36 -177 -48q-19 117 -57.5 169.5t-105.5 52.5q-54 0 -86.5 -36.5t-32.5 -97.5q0 -65 39 -118q45 -62 168 -146zM324 -152q117 15 163 9q9 -195 -77 -396q-76 0 -134 21q56 183 48 366z" />
    <glyph glyph-name="uni021A" unicode="&#x21a;" horiz-adv-x="1204" 
d="M758 74q-86 -25 -203 -25q9 300 -10 682q-22 385 -60 666q-282 -31 -422 -51q-24 76 -24 172q309 55 555 79q256 22 541 25q13 -45 16 -98q0 -41 -8 -92q-229 -3 -414 -15q45 -431 45 -887q0 -197 -16 -456zM571 -39q113 14 164 8q9 -192 -78 -395q-77 0 -133 20
q56 181 47 367z" />
    <glyph glyph-name="uni021B" unicode="&#x21b;" horiz-adv-x="802" 
d="M575 436q80 -9 154 -55q-5 -169 -75 -266t-193 -97q-146 0 -223.5 148.5t-77.5 429.5q0 195 20 356q-66 10 -149 27q0 73 28 131q68 -16 140 -25q23 145 55 269q148 -9 227 -35q-32 -92 -61 -250q163 -3 311 12q0 -65 -24 -129q-165 -17 -308 -14q-28 -194 -28 -371
q0 -409 106 -409q95 0 98 278zM336 -57q113 14 164 8q9 -192 -78 -395q-77 0 -133 20q56 181 47 367z" />
    <glyph glyph-name="circumflex" unicode="&#x2c6;" horiz-adv-x="532" 
d="M532 1262q-48 -57 -102 -76q-108 81 -172 170q-54 -78 -170 -174q-63 24 -100 73q77 68 121 126t77 132q63 7 68 7q15 0 44.5 -3.5t31.5 -3.5q31 -67 75 -123t127 -128z" />
    <glyph glyph-name="caron" unicode="&#x2c7;" horiz-adv-x="532" 
d="M-8 1436q47 55 102 75q108 -81 172 -170q56 80 170 175q64 -24 101 -74q-78 -69 -122.5 -126.5t-76.5 -131.5q-54 -6 -68 -6q-6 0 -75 6q-31 67 -75.5 123.5t-127.5 128.5z" />
    <glyph glyph-name="uni02C9" unicode="&#x2c9;" horiz-adv-x="530" 
d="M53 1309q-4 86 6 135q209 -36 420 -12q8 -66 -2 -138q-292 -37 -424 15z" />
    <glyph glyph-name="breve" unicode="&#x2d8;" horiz-adv-x="532" 
d="M70 1331q-41 54 -41 158q59 18 123 18q-8 -75 19 -108t99 -33q69 0 97.5 37t9.5 104q66 15 123 2q9 -103 -27 -170q-53 -96 -205 -96q-125 0 -198 88z" />
    <glyph glyph-name="dotaccent" unicode="&#x2d9;" horiz-adv-x="534" 
d="M307 1532q77 -3 117 -27q-50 -117 -74 -239q-74 -12 -182 -9q-10 41 -10 93q0 96 28 157q55 25 121 25z" />
    <glyph glyph-name="ring" unicode="&#x2da;" horiz-adv-x="532" 
d="M59 1360q0 94 62.5 151.5t165.5 57.5q84 0 133 -44.5t49 -119.5q0 -103 -61 -164t-164 -61q-82 0 -133.5 50t-51.5 130zM336 1389q0 104 -68 104q-36 0 -58 -36t-22 -95q0 -44 20 -72t52 -28q35 0 55.5 35t20.5 92z" />
    <glyph glyph-name="ogonek" unicode="&#x2db;" horiz-adv-x="534" 
d="M274 16l68 -24q-135 -114 -135 -228q0 -35 17.5 -55t49.5 -20q67 0 119 88q34 -24 58 -88q-84 -121 -218 -121q-79 0 -128.5 43.5t-49.5 112.5q0 158 219 292z" />
    <glyph glyph-name="tilde" unicode="&#x2dc;" horiz-adv-x="532" 
d="M272 1454q58 -31 86 -31q31 0 43.5 18.5t10.5 61.5q53 3 102 -18q8 -93 -26.5 -143t-106.5 -50q-52 0 -123 41q-50 29 -76 29q-54 0 -51 -76q-48 -3 -104 14q-8 88 28 140.5t105 52.5q47 0 112 -39z" />
    <glyph glyph-name="hungarumlaut" unicode="&#x2dd;" horiz-adv-x="532" 
d="M281 1518q-20 -164 -136 -349q-71 0 -135 19q64 183 78 344q109 13 193 -14zM561 1518q-20 -166 -135 -349q-71 0 -135 19q64 183 78 344q109 13 192 -14z" />
    <glyph glyph-name="pi" unicode="&#x3c0;" horiz-adv-x="1325" 
d="M504 649q0 -159 -19 -305q-18 -137 -65 -330q-42 -10 -106.5 -4.5t-112.5 23.5q59 201 78 307q20 113 26 270q8 130 -4 279q-56 -4 -244 -25q-31 143 2 240q200 9 574 6q304 -2 616 -14q16 -98 -8 -209q-205 12 -262 12q-31 -213 -31 -338q0 -403 103 -403q30 0 44 51.5
t19 177.5q87 -3 156 -53q-5 -150 -66 -233t-170 -83q-139 0 -217 151t-78 421q0 115 23 315h-55q-29 0 -65 -1t-81 -2.5t-72 -2.5q12 -111 15 -250z" />
    <glyph glyph-name="bn_danda" unicode="&#x964;" horiz-adv-x="1200" 
d="M901 537q0 -448 60 -703q-118 -41 -199 -41q0 32 -8 123q-11 150 -11 207q0 374 11 633q8 191 34 440l144 23q-20 -264 -25 -388q-6 -150 -6 -294z" />
    <glyph glyph-name="bn_doubledanda" unicode="&#x965;" horiz-adv-x="1712" 
d="M901 537q0 -448 60 -703q-118 -41 -199 -41q0 32 -8 123q-11 150 -11 207q0 374 11 633q8 191 34 440l144 23q-20 -264 -25 -388q-6 -150 -6 -294zM1413 537q0 -448 60 -703q-118 -41 -199 -41q0 32 -8 123q-11 150 -11 207q0 374 11 633q8 191 34 440l144 23
q-20 -264 -25 -388q-6 -150 -6 -294z" />
    <glyph glyph-name="bn_chandrabindu" unicode="&#x981;" 
d="M10 1851q43 0 72 -30t29 -74q0 -41 -28 -69.5t-69 -28.5q-42 0 -71 30.5t-29 73.5q0 41 28.5 69.5t67.5 28.5zM215 1710l98 -31q-25 -134 -114 -218.5t-207 -84.5q-112 0 -195 69.5t-100 174.5l137 43q17 -60 68 -99.5t112 -39.5q72 0 126.5 50t74.5 136z" />
    <glyph glyph-name="bn_anusvar" unicode="&#x982;" horiz-adv-x="911" 
d="M475 1262q127 0 209 -78.5t80 -200.5q-3 -133 -96 -223q-95 -92 -230 -92q-122 0 -205 80q-82 76 -79 196q3 135 96 225q93 93 225 93zM432 1130q-67 0 -105 -37.5t-38 -103.5q0 -82 54 -136t136 -54q68 0 109 39t41 106q0 81 -56 133.5t-141 52.5zM121 645
q224 -82 434 -262q212 -185 324 -389q-34 -61 -113 -98q-134 212 -328 366t-399 213q22 97 82 170z" />
    <glyph glyph-name="bn_bisarga" unicode="&#x983;" horiz-adv-x="886" 
d="M475 1262q127 0 209 -78.5t80 -200.5q0 -130 -96 -223q-95 -92 -230 -92q-122 0 -205 80q-82 76 -79 196q3 135 96 225q93 93 225 93zM432 1130q-67 0 -105 -37.5t-38 -103.5q0 -82 54 -136t136 -54q68 0 109 39t41 106q0 81 -56 133.5t-141 52.5zM467 563q119 0 203 -78
q82 -79 82 -196q0 -124 -90 -211q-88 -88 -220 -88q-121 0 -200.5 76.5t-79.5 193.5q0 125 90 215q88 88 215 88zM434 430q-63 0 -100 -35t-37 -96q0 -75 53 -126.5t131 -51.5q63 0 99 33.5t36 93.5q0 78 -52 130t-130 52z" />
    <glyph glyph-name="bn_a" unicode="&#x985;" horiz-adv-x="1349" 
d="M1210 825q0 -261 -36 -497q-37 -243 -97 -379q-83 0 -155 33q-69 121 -170 217q-62 -41 -148 -41q-358 0 -577 714q44 42 112 66q94 -284 210.5 -436t240.5 -152q86 0 132 66t46 190q0 125 -39.5 202t-105.5 77q-41 0 -62.5 -33.5t-21.5 -95.5q0 -75 36 -131
q-96 0 -161 26q-25 61 -25 125q0 106 55.5 176t141.5 70q138 0 229 -141q90 -143 90 -338q0 -146 -59 -246q73 -97 121 -197q67 231 67 678q0 190 -16 344q-185 17 -330 17q-340 0 -688 -66q-12 27 -12 90q0 44 12 68q323 72 696 72q366 0 654 -72q12 -27 12 -70
q0 -51 -12 -88q-80 16 -150 27q10 -120 10 -275z" />
    <glyph glyph-name="bn_aa" unicode="&#x986;" horiz-adv-x="1855" 
d="M1706 985q-63 -535 -14 -1055q-95 -16 -211 -12q6 358 18 569q9 162 35 433q-35 135 -315 188q-37 -185 -37 -500q0 -421 53 -616q-67 -39 -188 -39q-93 155 -244 276q-76 -82 -199 -82q-180 0 -325.5 180.5t-251.5 534.5q63 48 112 66q94 -284 210.5 -436t240.5 -152
q87 0 132.5 65.5t45.5 190.5t-39.5 201.5t-105.5 76.5q-39 0 -61.5 -34t-22.5 -95q0 -76 36 -131q-105 0 -161 27q-25 64 -25 125q0 106 56 175t143 69q135 0 227 -142q90 -143 90 -338q0 -114 -37 -198q89 -77 152 -178q-4 152 -4 198q0 506 65 776q-163 17 -331 17
q-388 0 -750 -72q-12 38 -12.5 86t12.5 72q348 80 758 80q292 0 516 -51q225 -51 336 -148q80 80 245 119q12 -21 11.5 -70t-11.5 -88q-109 -27 -149 -88z" />
    <glyph glyph-name="bn_i" unicode="&#x987;" horiz-adv-x="964" 
d="M975 1159q0 -56 -10 -86q-93 23 -226 38t-254 15q-238 0 -485 -53q-14 47 -14 88q0 42 14 70q208 61 489 61q203 0 363 -32q-53 190 -207 190q-73 0 -196 -29q-116 -28 -189 -28q-196 0 -317 221q40 58 104 100q56 -92 108.5 -130t116.5 -38q29 0 162 25q143 31 209 31
q124 0 208.5 -98.5t113.5 -272.5q10 -20 10 -72zM999 -145q-37 -52 -104 -119q-362 389 -784 520l-41 219q204 -67 344 -67q121 0 185.5 49t64.5 141q0 110 -74 199q-76 88 -172 88q-44 0 -70 -23t-26 -61q0 -63 84 -142q-77 -41 -177 -41q-75 90 -75 195q0 94 62 150.5
t165 56.5q172 0 313 -150q140 -152 140 -335q0 -133 -86 -214.5t-240 -93.5q235 -137 491 -372z" />
    <glyph glyph-name="bn_ii" unicode="&#x988;" horiz-adv-x="1153" 
d="M1163 1159q0 -56 -10 -86q-241 53 -573 53q-307 0 -580 -53q-14 47 -14 88q0 42 14 70q235 61 582 61q275 0 460 -37q-58 195 -211 195q-45 0 -196 -25q-141 -24 -191 -24q-98 0 -176 51.5t-145 161.5q43 50 110 94q56 -87 106.5 -121.5t117.5 -34.5q36 0 161 23
q137 27 211 27q126 0 210 -98t114 -273q10 -20 10 -72zM1053 -14q-27 -12 -73 -22t-87 -11q-43 152 -44.5 341.5t36.5 373.5q-113 -302 -230 -422q-116 -119 -293 -119q-103 0 -212 41l-41 205q143 -58 245 -58t161.5 60.5t59.5 161.5q0 125 -77 225q-81 96 -183 96
q-44 0 -71 -23t-27 -61q0 -88 129 -156q-26 -31 -67.5 -53t-73.5 -24q-139 109 -139 245q0 94 60 149.5t163 55.5q139 0 254 -100q116 -101 157 -252q125 235 191 301q104 -35 170 -109q-122 -387 -8 -845z" />
    <glyph glyph-name="bn_u" unicode="&#x989;" horiz-adv-x="1187" 
d="M1145 426q0 -222 -106.5 -348.5t-295.5 -126.5q-248 0 -424 220t-299 697q48 35 132 66q117 -412 262 -603.5t340 -191.5q125 0 192.5 86t67.5 246q0 95 -21 184q-72 -93 -136.5 -135.5t-133.5 -42.5q-115 0 -191 98q-77 95 -77 224q0 113 55 336q-258 -3 -510 -62
q-14 44 -14 88q0 42 14 70q262 72 596 72q265 0 483 -46q-58 193 -211 193q-69 0 -200 -29q-123 -26 -197 -26q-207 0 -330 219q43 62 107 100q56 -91 110.5 -128.5t124.5 -37.5q61 0 170 25q140 29 213 29q127 0 211.5 -98.5t110.5 -272.5q14 -24 14 -68q0 -50 -14 -90
q-210 53 -496 62q-90 -288 -90 -394q0 -50 22.5 -78t63.5 -28q39 0 94.5 54t141.5 179q72 -16 133 -49q88 -181 88 -393z" />
    <glyph glyph-name="bn_uu" unicode="&#x98a;" horiz-adv-x="1314" 
d="M1272 428q0 -232 -117 -360.5t-330 -128.5q-270 0 -475 215.5t-340 640.5q63 37 115 55q87 -285 195.5 -460.5t252.5 -266.5q-111 106 -196.5 288.5t-163.5 477.5q59 34 115 55q115 -443 237 -622q123 -185 303 -185q134 0 203.5 87.5t69.5 254.5q0 70 -19 178
q-74 -96 -139 -138t-135 -42q-115 0 -191 98q-77 95 -77 230q0 94 55 325q-363 -3 -635 -57q-14 31 -14 88q0 50 14 70q310 65 657 65q312 0 547 -45q-53 199 -211 199q-85 0 -239 -29q-148 -26 -234 -26q-211 0 -334 219q42 60 109 100q55 -91 109.5 -128.5t127.5 -37.5
q69 0 203 25q183 29 258 29q124 0 208.5 -98.5t113.5 -272.5q12 -37 12 -72q0 -49 -12 -86q-203 42 -498 55q-88 -281 -88 -383q0 -51 21.5 -80.5t58.5 -29.5q40 0 88 45q47 41 154 188q72 -16 133 -49q88 -184 88 -391z" />
    <glyph glyph-name="bn_ri" unicode="&#x98b;" horiz-adv-x="1443" 
d="M379 522q245 -133 366 -360q3 312 43 600q-101 -42 -212.5 -107t-196.5 -133zM899 152q0 -109 4 -187q-49 -15 -145 -12q-174 367 -500 453q-37 55 -52.5 100t-15.5 104q86 83 214 164.5t272 143.5q-12 75 -62 131q-58 -76 -140 -122t-163 -46q-109 0 -172 66t-63 181
q0 67 20 103q72 38 176 35q-28 -39 -28 -103q0 -108 104 -108q66 0 132 40.5t114 108.5l100 -59q62 -74 84 -187q6 5 37 15q12 122 49 295q98 -3 170 -43q-107 -346 -127 -756q146 -100 244 -246q-18 180 -18 324q0 386 100 690q77 0 143 -27q-45 -124 -70.5 -278.5
t-25.5 -302.5q0 -358 98 -613q-31 -17 -81 -25.5t-97 -6.5q-125 219 -299 329q-2 -39 -2 -161z" />
    <glyph glyph-name="bn_li" unicode="&#x98c;" horiz-adv-x="1005" 
d="M930 659q0 -152 -44 -340t-122 -368q-77 0 -158 31q4 230 -68.5 364.5t-197.5 134.5q-78 0 -125 -53t-47 -141q0 -69 29.5 -110.5t78.5 -41.5q85 0 136 129q25 -45 43.5 -100.5t19.5 -95.5q-27 -52 -74 -83.5t-100 -31.5q-109 0 -182 104q-76 101 -76 256q0 158 84 265
q83 102 217 102q140 0 236 -121.5t116 -327.5q48 116 76.5 247.5t28.5 236.5q0 97 -58 149q-56 50 -254 94q-116 25 -180 49.5t-110 57.5q-107 79 -140 268q67 44 136 60q21 -115 71 -168q48 -54 183 -84l139 -31q183 -43 262.5 -148.5t79.5 -302.5z" />
    <glyph glyph-name="bn_e" unicode="&#x98f;" horiz-adv-x="1232" 
d="M1051 -25q-76 -26 -160 -26q-52 101 -68 121q-46 57 -125 57q-59 0 -184 -39q-140 -45 -217 -45q-115 0 -183.5 75.5t-68.5 200.5q0 142 78 295q86 -3 133 -34q-23 -42 -38 -100t-15 -103q0 -65 33 -100t94 -35q49 0 162 39q129 41 184 41q72 0 119 -43.5t84 -143.5
q32 220 45 430q14 227 14 488q0 64 -27.5 100.5t-76.5 36.5q-95 0 -199 -119q-107 -119 -107 -229q0 -51 26.5 -78t76.5 -27q74 0 145 74q8 -13 8 -53q0 -88 -36 -140q-66 -53 -162 -53q-113 0 -183.5 69t-70.5 181q0 174 151 338q75 78 163 123t167 45q124 0 209 -94
q84 -96 84 -236q0 -589 -55 -1016z" />
    <glyph glyph-name="bn_ai" unicode="&#x990;" horiz-adv-x="1374" 
d="M1051 -25q-76 -26 -160 -26q-52 101 -68 121q-46 57 -125 57q-59 0 -184 -39q-140 -45 -217 -45q-115 0 -183.5 75.5t-68.5 200.5q0 142 78 295q86 -3 133 -34q-23 -42 -38 -100t-15 -103q0 -65 33 -100t94 -35q49 0 162 39q129 41 184 41q72 0 119 -43.5t84 -143.5
q32 220 45 430q14 227 14 488q0 64 -27.5 100.5t-76.5 36.5q-95 0 -199 -119q-107 -119 -107 -229q0 -51 26.5 -78t76.5 -27q74 0 145 74q8 -13 8 -53q0 -88 -36 -140q-66 -53 -162 -53q-113 0 -183.5 69t-70.5 181q0 174 151 338q75 78 163 123t167 45q121 0 207 -92
t86 -228q113 99 113 224q0 60 -29.5 96t-97.5 59q-68 22 -218 43q-121 19 -185 38t-109 48q-109 73 -142 260q67 46 135 62q21 -121 74 -174t180 -74l152 -27q340 -58 340 -344q0 -221 -215 -413q-3 -417 -53 -824z" />
    <glyph glyph-name="bn_o" unicode="&#x993;" horiz-adv-x="1396" 
d="M1305 324q0 -167 -108.5 -271t-287.5 -104q-290 0 -504.5 285.5t-365.5 883.5q62 47 133 70q129 -511 321 -779t429 -268q112 0 173.5 60.5t61.5 169.5q0 98 -53 172q-80 -107 -189 -107q-85 0 -140.5 57.5t-55.5 147.5q0 88 55 148.5t135 60.5q45 0 89.5 -19.5
t74.5 -54.5q74 100 74 211q0 91 -51 139t-148 50q-132 3 -225 -84q-92 -89 -92 -215q0 -58 8 -89q-51 0 -107.5 22t-87.5 54q-3 200 125 328q127 127 324 127q173 0 287 -102q110 -101 110 -267q0 -82 -28.5 -164.5t-77.5 -142.5q121 -139 121 -319zM819 662
q0 -33 21.5 -54.5t56.5 -21.5q66 0 125 86q-50 76 -117 76q-37 0 -61.5 -24.5t-24.5 -61.5z" />
    <glyph glyph-name="bn_au" unicode="&#x994;" horiz-adv-x="1525" 
d="M1305 324q0 -167 -108.5 -271t-287.5 -104q-290 0 -504.5 285.5t-365.5 883.5q62 47 133 70q129 -511 321 -779t429 -268q112 0 173.5 60.5t61.5 169.5q0 98 -53 172q-80 -107 -189 -107q-85 0 -140.5 57.5t-55.5 147.5q0 88 55 148.5t135 60.5q45 0 89.5 -19.5
t74.5 -54.5q74 100 74 211q0 91 -51 139t-148 50q-132 3 -225 -84q-92 -89 -92 -215q0 -58 8 -89q-51 0 -107.5 22t-87.5 54q-3 200 125 328q127 127 324 127q154 0 261 -82.5t130 -218.5q39 45 61.5 99.5t22.5 105.5q0 80 -61 123q-57 41 -283 79q-124 20 -188 39.5
t-107 48.5q-105 70 -139 263q57 38 133 53q21 -120 74 -170q52 -52 190 -76l146 -24q335 -61 335 -347q0 -220 -206 -426q-25 -78 -78 -143q121 -139 121 -319zM819 662q0 -33 21.5 -54.5t56.5 -21.5q66 0 125 86q-50 76 -117 76q-37 0 -61.5 -24.5t-24.5 -61.5z" />
    <glyph glyph-name="bn_ka" unicode="&#x995;" horiz-adv-x="1273" 
d="M776 586q0 -407 41 -606q-73 -27 -190 -27q-183 399 -490 475q-74 95 -82 207q93 108 251.5 215t338.5 186q4 18 6 51q0 30 4 50h-30q-311 0 -625 -64q-14 40 -14 86q0 41 14 72q285 72 633 72q165 0 350 -19q187 -22 291 -53q14 -40 14 -70q0 -42 -14 -88
q-226 48 -475 60q0 -6 -0.5 -13.5t-1.5 -20t-2 -24.5l-2 -20t-1.5 -15.5t-0.5 -9.5q196 -47 315 -166q121 -121 121 -266q0 -98 -51 -187t-136 -139q-39 11 -75.5 49t-59.5 93q94 32 149.5 89t55.5 120q0 75 -85.5 129t-244.5 79q-4 -102 -4 -245zM616 180q-2 33 -2 166
q0 254 15 471q-99 -47 -203.5 -120t-179.5 -146q233 -121 370 -371z" />
    <glyph glyph-name="bn_kha" unicode="&#x996;" horiz-adv-x="1173" 
d="M1051 952q0 -681 -142 -1005q-98 0 -182 35q-85 203 -184 309.5t-234 138.5q-73 94 -82 184l168 88q122 62 177 126.5t55 146.5q0 7 -4 35q-57 -75 -138.5 -121.5t-156.5 -46.5q-113 0 -177.5 65.5t-64.5 182.5q0 59 20 98q67 39 177 39q-29 -43 -29 -97q0 -114 106 -114
q61 0 129 43t115 112l101 -59q59 -83 59 -213q0 -116 -69.5 -213t-198.5 -158l-11 -4q197 -126 297 -422q103 273 103 736q0 19 -4 129q-2 27 -2 45q0 110 90 153q52 28 205 66q16 -22 16 -72q0 -60 -16 -86q-52 -13 -84 -31q-21 -11 -30 -30.5t-9 -59.5z" />
    <glyph glyph-name="bn_ga" unicode="&#x997;" horiz-adv-x="1013" 
d="M885 948q0 -597 -99 -999q-104 0 -188 24q58 192 86.5 369t34.5 389q-6 159 -98 268q-95 105 -218 105q-91 0 -142.5 -43.5t-51.5 -118.5q0 -9 4 -29q80 45 164 45q92 0 155.5 -70.5t63.5 -170.5q0 -170 -248 -438q-100 66 -149 149q280 223 280 322q0 67 -76 67
q-113 0 -253 -100l-70 98q-14 75 -14 119q0 149 92 252q90 100 237 100q118 0 208 -84t140 -239q-2 18 -2 75q0 42 22.5 77t59.5 54q66 35 191 62q14 -24 14 -76q0 -51 -14 -82q-7 -2 -80 -29q-49 -22 -49 -96z" />
    <glyph glyph-name="bn_gha" unicode="&#x998;" horiz-adv-x="1026" 
d="M532 858q48 -74 58 -182l-246 -193q220 -108 356 -313q-4 164 -4 199q0 416 43 749q-95 10 -215 10h-67q-215 -90 -215 -223q0 -56 33 -91.5t87 -35.5q77 0 170 80zM864 590q0 -408 47 -604q-74 -31 -186 -31q-195 343 -508 407q-86 77 -86 191l168 133q-101 17 -159 79
t-58 155q0 104 72 182q-51 -8 -154 -29q-12 37 -12 88q0 46 12 70q215 63 530 63q295 0 496 -63q12 -27 12 -70q0 -51 -12 -88q-113 24 -131 27q-31 -224 -31 -510z" />
    <glyph glyph-name="bn_nga" unicode="&#x999;" horiz-adv-x="1202" 
d="M659 1055q77 -21 136 -21q69 0 106 27t37 78q0 41 -28.5 65.5t-75.5 24.5q-113 0 -175 -174zM1141 397q0 -217 -108 -344t-292 -127q-241 0 -417 221q-175 216 -304 719q85 39 136 54q115 -416 257.5 -608.5t334.5 -192.5q127 0 194.5 87t67.5 247q0 103 -19 172
q-78 -85 -140 -121.5t-126 -38.5q-119 -5 -193.5 89t-74.5 249q0 86 12 160q-159 60 -266 139q24 99 71 164q83 -80 238 -154q44 108 122 164.5t183 56.5q104 0 169 -57.5t65 -149.5q0 -103 -76 -165t-205 -62q-48 0 -145 19q-15 -107 -15 -179q0 -66 18.5 -94.5t59.5 -28.5
q37 0 92.5 48t145.5 159q72 -14 125 -49q90 -172 90 -377z" />
    <glyph glyph-name="bn_ca" unicode="&#x99a;" horiz-adv-x="925" 
d="M686 823q91 -43 129.5 -99t38.5 -146q0 -244 -135 -435q-137 -192 -318 -192q-130 0 -205 98t-75 275q0 134 24 352q18 182 58 430q-125 -14 -203 -33q-12 41 -12 86t12 72q88 25 217 41t244 16q107 0 254 -16q124 -16 211 -41q10 -20 10 -70q0 -44 -10 -88
q-77 19 -215 35q-123 14 -240 14q-66 0 -84 -2q32 -97 104 -168.5t195 -128.5zM283 252q0 -91 21.5 -130.5t72.5 -39.5q105 0 196 166q91 168 91 344q0 44 -21.5 71.5t-81.5 59.5q-154 90 -207 235q-30 -190 -51 -387q-20 -190 -20 -319z" />
    <glyph glyph-name="bn_cha" unicode="&#x99b;" horiz-adv-x="1040" 
d="M297 666q0 -35 13 -50.5t42 -15.5q72 0 131 80q60 78 60 178v19q-157 35 -230 129q-16 -181 -16 -340zM1047 -193q-37 -53 -109 -112q-321 333 -692 489l-35 219q178 -55 289 -55q130 0 205 64t75 176q0 120 -82 205q-26 -134 -120.5 -220t-215.5 -86q-98 0 -165.5 61
t-67.5 152q0 219 25 402q-79 -11 -154 -29q-12 41 -12 86t12 72q78 25 238 47q153 18 297 18q143 0 290 -18q137 -17 215 -47q11 -22 11 -70q0 -46 -11 -88q-94 27 -225 41q-154 16 -283 16q-63 0 -204 -8l-2 -2q47 -53 130 -87t234 -64q118 -80 186 -196.5t68 -242.5
q0 -152 -101.5 -244t-281.5 -106q240 -148 486 -373z" />
    <glyph glyph-name="bn_ja" unicode="&#x99c;" horiz-adv-x="1445" 
d="M1348 -6q-29 -12 -82 -21.5t-90 -9.5q-43 174 -43 377q0 242 67 455q-37 -11 -82 -11q-146 0 -263.5 92t-174.5 250q-68 -94 -113 -206q-49 -116 -49 -189q0 -44 21.5 -68t60.5 -24q47 0 115 42t131 110q62 -27 133 -91q43 -143 43 -284q0 -210 -95 -328.5t-265 -118.5
q-223 0 -379 215t-265 684q47 26 132 60q97 -394 224 -584t294 -190q229 0 229 319q0 12 -6 117q-138 -109 -246 -109q-106 0 -184 84q-80 83 -80 207q0 75 32 176t83 189q-279 -16 -496 -64q-14 40 -14 90q0 37 14 68q147 37 336 57q196 21 389 21t393 -21q186 -20 328 -57
q12 -24 12 -72q0 -59 -12 -86q-290 60 -649 70q50 -100 115.5 -146.5t158.5 -46.5q97 0 180 45q73 -52 109 -149q-68 -210 -68 -428q0 -202 56 -424z" />
    <glyph glyph-name="bn_jha" unicode="&#x99d;" horiz-adv-x="1304" 
d="M594 178v10q0 301 53 627q-99 -43 -209 -115.5t-198 -150.5q230 -130 354 -371zM772 346q0 -215 29 -360q-62 -33 -189 -33q-181 389 -487 473q-67 103 -70 211q106 115 277 225q172 108 356 178q4 16 10 39q0 5 9 39q-85 10 -187 10q-129 0 -272.5 -15t-247.5 -40
q-10 38 -10 92q0 39 10 66q81 25 240 47q150 18 280 18q139 0 246 -22q80 -13 80 -92q0 -15 -8 -64q-49 -289 -62 -590q148 -106 240 -252q-23 212 -23 412q0 8 11 338q3 99 92 139q111 45 209 66q14 -28 14 -76q0 -51 -14 -82q-42 -10 -121 -45q-45 -20 -45 -78
q-2 -41 -2 -172q0 -413 112 -708q-32 -20 -83.5 -30.5t-98.5 -6.5q-126 231 -295 340v-27z" />
    <glyph glyph-name="bn_nya" unicode="&#x99e;" horiz-adv-x="1710" 
d="M1096 532q61 -78 140.5 -122.5t154.5 -44.5q63 0 100 31.5t37 82.5q0 42 -23 86q-67 -86 -151 -86q-69 0 -115.5 47.5t-46.5 120.5t47.5 121.5t116.5 48.5q82 0 137 -61q27 59 27 102t-32 67.5t-87 24.5q-80 0 -158 -50t-139 -142q0 -11 -8 -226zM1278 662
q0 -29 17 -46.5t46 -17.5q51 0 101 70l-2 2q8 8 8 12q-39 51 -94 51q-32 0 -54 -20t-22 -51zM1051 -25q-76 -26 -160 -26q-52 101 -68 121q-46 57 -125 57q-59 0 -184 -39q-140 -45 -217 -45q-115 0 -183.5 75.5t-68.5 200.5q0 142 78 295q86 -3 133 -34q-23 -42 -38 -100
t-15 -103q0 -65 33 -100t94 -35q49 0 162 39q129 41 184 41q72 0 119 -43.5t84 -143.5q32 220 45 430q14 227 14 488q0 64 -27.5 100.5t-76.5 36.5q-95 0 -199 -119q-107 -119 -107 -229q0 -51 26.5 -78t76.5 -27q74 0 145 74q8 -13 8 -53q0 -88 -36 -140q-66 -53 -162 -53
q-113 0 -183.5 69t-70.5 181q0 174 151 338q75 78 163 123t167 45q124 0 209 -94q84 -96 84 -236v-28q60 66 135.5 102.5t153.5 36.5q109 0 177 -65t68 -169q0 -117 -69 -223q78 -101 78 -207t-66.5 -169.5t-175.5 -63.5q-86 0 -171.5 45.5t-148.5 124.5q-6 -114 -36 -400z
" />
    <glyph glyph-name="bn_tta" unicode="&#x99f;" horiz-adv-x="995" 
d="M678 782q111 0 180.5 -75t69.5 -199q0 -186 -146 -365q-74 -88 -164.5 -140t-171.5 -52q-126 0 -208 94q-86 92 -86 236q0 423 47 829q-88 -10 -199 -37q-10 34 -10 78q0 42 10 80q73 29 204 46t279 17q220 0 402 -37q-59 185 -213 185q-79 0 -197 -25q-127 -22 -186 -22
q-189 0 -299 178q35 72 88 119q55 -81 105.5 -113.5t117.5 -32.5q37 0 160 23q130 26 209 26q128 0 213.5 -96.5t111.5 -267.5q13 -26 13 -76q0 -53 -13 -82q-261 55 -506 55q-75 0 -98 -2q-32 -183 -51 -438q-21 -243 -21 -465q0 -66 28.5 -104.5t78.5 -40.5q96 0 203 137
q104 137 104 266q0 60 -27.5 93.5t-74.5 33.5q-76 0 -137 -73q-19 27 -19 59q0 75 37 131q60 57 166 57z" />
    <glyph glyph-name="bn_ttha" unicode="&#x9a0;" horiz-adv-x="954" 
d="M141 303q23 -92 86 -140t160 -48q151 0 246 129q94 128 94 323q0 263 -188 559l-2 2q38 -96 38 -217q0 -210 -114.5 -370t-319.5 -238zM657 1120q226 -339 226 -641q0 -233 -123 -377q-126 -147 -324 -147q-183 0 -286 117t-103 321q0 9 1.5 31t2.5 41q183 71 297 215
q113 140 113 315q0 55 -19 133q-199 -3 -442 -55q-14 47 -14 90q0 37 14 68q183 51 408 61q-97 163 -97 310q0 172 111 311q78 -35 123 -80q-41 -43 -68.5 -116.5t-27.5 -141.5q0 -132 94 -283q221 -10 411 -61q15 -30 15 -68q0 -39 -15 -90q-163 35 -297 47z" />
    <glyph glyph-name="bn_dda" unicode="&#x9a1;" horiz-adv-x="1187" 
d="M1145 426q0 -222 -106.5 -348.5t-295.5 -126.5q-248 0 -424 220t-299 697q48 35 132 66q117 -412 262 -603.5t340 -191.5q125 0 192.5 86t67.5 246q0 95 -21 184q-72 -93 -136.5 -135.5t-133.5 -42.5q-115 0 -191 98q-77 95 -77 224q0 113 55 336q-258 -3 -510 -62
q-14 44 -14 88q0 42 14 70q262 72 596 72q319 0 592 -72q14 -24 14 -68q0 -50 -14 -90q-210 53 -496 62q-90 -288 -90 -394q0 -50 22.5 -78t63.5 -28q39 0 94.5 54t141.5 179q72 -16 133 -49q88 -181 88 -393z" />
    <glyph glyph-name="bn_ddha" unicode="&#x9a2;" horiz-adv-x="995" 
d="M678 782q111 0 180.5 -75t69.5 -199q0 -186 -146 -365q-74 -88 -164.5 -140t-171.5 -52q-126 0 -208 94q-86 92 -86 236q0 423 47 829q-88 -10 -199 -37q-10 34 -10 78q0 42 10 80q73 29 204 46t279 17q295 0 512 -63q13 -26 13 -76q0 -53 -13 -82q-261 55 -506 55
q-75 0 -98 -2q-32 -183 -51 -438q-21 -243 -21 -465q0 -66 28.5 -104.5t78.5 -40.5q96 0 203 137q104 137 104 266q0 60 -27.5 93.5t-74.5 33.5q-76 0 -137 -73q-19 27 -19 59q0 75 37 131q60 57 166 57z" />
    <glyph glyph-name="bn_nna" unicode="&#x9a3;" horiz-adv-x="978" 
d="M850 954q-15 -454 -39 -635q-22 -173 -84 -370q-102 0 -186 43q65 156 102 338q31 155 41 405q-9 154 -94 248q-90 96 -203 96q-81 0 -133.5 -61.5t-52.5 -155.5q0 -66 31 -105.5t81 -39.5q41 0 67 33t26 84q0 36 -33 108q94 -13 162 -74q16 -37 16 -80
q0 -94 -62.5 -156.5t-154.5 -62.5q-116 0 -193 99q-80 95 -80 241q0 161 86 267q85 104 222 104q117 0 204.5 -79.5t137.5 -229.5q-2 14 -2 57q0 60 16 90t57 49q78 38 197 64q14 -24 14 -74q0 -53 -14 -84q-56 -16 -82 -29q-27 -12 -37 -30t-10 -60z" />
    <glyph glyph-name="bn_ta" unicode="&#x9a4;" horiz-adv-x="1206" 
d="M1206 1073q-306 55 -604 55q-324 0 -602 -55q-14 31 -14 84q0 49 14 74q267 63 602 63q330 0 604 -63q15 -30 15 -74q0 -41 -15 -84zM752 993q167 0 290 -172q121 -177 121 -418q0 -213 -102.5 -333.5t-282.5 -120.5q-245 0 -429 225.5t-314 687.5q41 29 129 66
q106 -371 264.5 -576t341.5 -205q121 0 184.5 81t63.5 235q0 164 -64 269.5t-159 105.5q-51 0 -79 -37t-28 -105q0 -118 88 -209q-40 -24 -106 -24q-60 0 -92 18q-72 105 -72 232q0 123 68.5 201.5t177.5 78.5z" />
    <glyph glyph-name="bn_tha" unicode="&#x9a5;" horiz-adv-x="1128" 
d="M995 938q0 -304 -35.5 -564.5t-101.5 -426.5q-106 0 -184 45q-85 189 -186.5 288t-241.5 130q-71 89 -74 190l170 96q111 63 163 133t52 156q0 66 -44.5 107t-113.5 41q-67 0 -106 -40.5t-39 -107.5q0 -90 63 -131q-62 -50 -182 -63q-74 87 -74 194q0 127 89 213
q86 86 221 86q147 0 239 -99t92 -255q0 -246 -258 -408l-24 -14q212 -124 313 -399q101 276 101 737q0 17 -2 54.5t-3 62.5q-2 35 -2 59q0 99 88 141q89 44 213 68q15 -30 15 -72q0 -52 -15 -86q-56 -14 -86 -31q-27 -12 -37 -33t-10 -71z" />
    <glyph glyph-name="bn_da" unicode="&#x9a6;" horiz-adv-x="1009" 
d="M846 383q0 -198 45 -385q-76 -35 -160 -45q-41 172 -41 358q0 231 55 437q-144 -107 -266 -240q-130 -139 -207 -275q-51 6 -104 26.5t-82 45.5q124 407 137 805q-136 -15 -223 -37q-14 40 -14 90q0 37 14 68q99 29 244.5 46t292.5 17q128 0 266 -18q136 -18 207 -45
q10 -17 10 -66q0 -54 -10 -92q-104 27 -219 39q-147 16 -265 16q-5 0 -170 -6q2 -14 2 -61q0 -253 -36 -465q204 243 428 377q96 -39 163 -142q-67 -226 -67 -448z" />
    <glyph glyph-name="bn_dha" unicode="&#x9a7;" horiz-adv-x="1021" 
d="M852 604q0 -408 39 -612q-67 -39 -191 -39q-197 402 -518 477q-74 95 -82 207q73 70 176 137q-101 30 -159 97.5t-58 158.5q0 117 74 189.5t195 72.5q78 0 146 -47t99 -121q-26 -37 -63 -65.5t-74 -40.5q-1 49 -35 80.5t-82 31.5q-47 0 -73.5 -33t-26.5 -93
q0 -61 44 -101.5t106 -40.5q50 0 112 29q97 48 250 106q0 3 1 12l1 9q7 58 26.5 90t57.5 53q80 45 205 70q16 -22 16 -76q0 -36 -16 -82q-66 -20 -111 -43q-23 -12 -32 -29t-13 -61q-14 -219 -14 -336zM688 152q-2 33 -2 170q0 222 21 456q-241 -94 -408 -225
q254 -135 389 -401z" />
    <glyph glyph-name="bn_na" unicode="&#x9a8;" horiz-adv-x="1011" 
d="M872 -29q-77 -18 -196 -18q-8 96 -8 340v14q0 145 -115 275q-117 129 -248 129q-66 0 -101.5 -33.5t-35.5 -93.5q0 -66 47 -104t129 -38q69 0 121 27q0 -107 -27 -193q-13 -16 -82 -16q-137 0 -222 92.5t-85 241.5q0 131 71.5 213t186.5 82q108 0 206.5 -79.5
t158.5 -215.5q12 291 57 526q-76 8 -199 8q-272 0 -530 -55q-12 41 -12 90q0 44 12 68q264 63 528 63q244 0 484 -63q8 -21 8 -72q0 -62 -8 -86q-33 9 -135 29q-39 -272 -39 -555q0 -428 34 -576z" />
    <glyph glyph-name="bn_pa" unicode="&#x9aa;" horiz-adv-x="1155" 
d="M1036 -29q-77 -18 -196 -18q-9 111 -9 352q0 251 11 397q-3 81 -27 154q-80 -111 -200 -234t-242 -219q-85 60 -135 150q45 32 47 33q30 30 30 76q0 59 -64 102t-177 67q-44 72 -60 173q93 134 213.5 208t247.5 74q140 0 241 -87t152 -251q3 25 6 43t4.5 24.5t2.5 12.5
t2 10q12 56 30.5 85t53.5 48q79 36 188 60q14 -24 14 -74q0 -53 -14 -84q-40 -13 -80 -29q-24 -10 -36.5 -33.5t-18.5 -68.5q-19 -148 -19 -389q0 -424 35 -582zM221 950q195 -98 195 -209q0 -20 -15 -63q205 170 332 328q-94 108 -231 108q-150 0 -281 -164z" />
    <glyph glyph-name="bn_pha" unicode="&#x9ab;" horiz-adv-x="1386" 
d="M874 604q0 -412 64 -616q-64 -37 -193 -37q-210 358 -540 422q-98 76 -107 188l283 262q-13 9 -49 32t-77 49t-50 32q-120 83 -142 149q-9 -1 -29 -5t-34 -7q-12 38 -12.5 86t12.5 72q315 72 729 72q187 0 369 -21q179 -21 288 -51q10 -29 10 -75t-10 -83
q-282 64 -665 64q-217 0 -436 -23q6 -44 51 -98q44 -56 182 -176l80 -68l-272 -274q236 -102 385 -320q-4 148 -4 170q0 411 32 676q265 -21 422 -139q156 -117 156 -283q0 -95 -50.5 -179t-133.5 -132q-39 11 -76.5 49.5t-57.5 91.5q90 26 145.5 77.5t55.5 108.5
q0 143 -319 191q-7 -74 -7 -205z" />
    <glyph glyph-name="bn_ba" unicode="&#x9ac;" horiz-adv-x="983" 
d="M811 604q0 -409 55 -612q-67 -39 -190 -39q-197 372 -533 444q-73 90 -82 207q106 121 277 240q173 119 356 194q0 4 2.5 15t3.5 20q2 7 9 43q-92 10 -193 10q-253 0 -516 -53q-14 40 -14 86q0 41 14 72q111 27 255 44t269 17q109 0 237.5 -17t221.5 -44q14 -28 14 -72
q0 -46 -14 -86q-111 23 -137 25q-35 -216 -35 -494zM647 172q-4 136 -4 168q0 273 23 473q-111 -55 -221.5 -132t-188.5 -155q256 -124 391 -354z" />
    <glyph glyph-name="bn_bha" unicode="&#x9ad;" horiz-adv-x="1257" 
d="M1257 1073q-306 55 -630 55q-321 0 -627 -55q-14 31 -14 86q0 44 14 72q267 63 627 63q353 0 630 -63q15 -26 15 -74q0 -41 -15 -84zM1210 424q0 -219 -116 -346t-314 -127q-257 0 -441.5 225t-307.5 692q49 36 131 66q116 -404 268 -597.5t354 -193.5q139 0 213 87
t74 249q0 95 -22 185q-91 -88 -168.5 -128t-155.5 -40q-118 0 -201 77q-84 78 -84 189q0 85 53.5 154t141.5 102q41 -11 79.5 -44.5t55.5 -74.5q-92 -24 -146.5 -68.5t-54.5 -97.5q0 -41 28.5 -64.5t78.5 -23.5q62 0 138 47t208 170q67 -44 119 -96q69 -170 69 -342z" />
    <glyph glyph-name="bn_ma" unicode="&#x9ae;" horiz-adv-x="1056" 
d="M430 815q96 -85 130 -146.5t34 -138.5q0 -43 -16 -86q80 -90 139 -208q-2 31 -2 143q3 234 12 401q7 120 33 338q-95 10 -217 10q-111 0 -213 -10q-29 -50 -29 -102q0 -46 26 -89t103 -112zM954 4q-83 -53 -188 -53q-86 218 -248 368q-65 -124 -205 -124
q-103 0 -170 69.5t-67 175.5q0 100 59.5 165t151.5 65q84 0 147 -54q-2 50 -36 89t-132 92q-103 58 -138.5 100.5t-35.5 99.5q0 45 25 97q-34 -5 -117 -21q-12 38 -12.5 86t12.5 72q264 63 547 63q295 0 510 -63q11 -29 11 -75t-11 -83q-64 16 -142 27q-32 -202 -32 -494
q0 -404 71 -602zM193 463q0 -43 29.5 -69.5t76.5 -26.5q45 0 78.5 25.5t46.5 72.5q-26 44 -64 69t-77 25q-38 0 -64 -27.5t-26 -68.5z" />
    <glyph glyph-name="bn_ya" unicode="&#x9af;" horiz-adv-x="1054" 
d="M874 604q0 -406 56 -612q-77 -41 -193 -41q-205 353 -526 416q-100 71 -109 180l279 276q-13 9 -49 32t-77 49t-50 32q-123 86 -142 149q-9 -1 -29 -5t-34 -7q-12 38 -12.5 86t12.5 72q234 63 557 63q130 0 268 -17t230 -46q12 -30 11.5 -76t-11.5 -82q-68 16 -148 27
q-33 -206 -33 -496zM518 840l80 -68l-262 -280q232 -101 375 -320q-4 144 -4 176q0 221 10 416q7 146 35 354q-93 10 -201 10q-143 0 -266 -12q6 -43 47 -96t186 -180z" />
    <glyph glyph-name="bn_ra" unicode="&#x9b0;" horiz-adv-x="983" 
d="M811 604q0 -409 55 -612q-67 -39 -190 -39q-197 372 -533 444q-73 90 -82 207q106 121 277 240q173 119 356 194q0 4 2.5 15t3.5 20q2 7 9 43q-92 10 -193 10q-253 0 -516 -53q-14 40 -14 86q0 41 14 72q111 27 255 44t269 17q109 0 237.5 -17t221.5 -44q14 -28 14 -72
q0 -46 -14 -86q-111 23 -137 25q-35 -216 -35 -494zM647 172q-4 136 -4 168q0 273 23 473q-111 -55 -221.5 -132t-188.5 -155q256 -124 391 -354zM223 16q0 44 30.5 75.5t74.5 31.5q51 0 86 -36t35 -87q0 -44 -30.5 -75t-74.5 -31q-51 0 -86 35.5t-35 86.5z" />
    <glyph glyph-name="bn_la" unicode="&#x9b2;" horiz-adv-x="1193" 
d="M1065 -25q-68 -22 -195 -22q-14 106 -14 369q0 8 4 270q-5 63 -40.5 104t-86.5 41q-37 0 -58.5 -20t-21.5 -55q0 -25 31 -78l10 -21q-40 -30 -131 -53l-41 70q-44 66 -103 101.5t-122 35.5q-62 0 -98.5 -35t-36.5 -96q0 -73 59 -119.5t150 -46.5q36 0 88 10
q0 -51 -16.5 -108.5t-41.5 -94.5q-154 3 -258 113q-102 108 -102 272q0 135 70 221.5t180 86.5q138 0 250 -152q17 69 59.5 110.5t97.5 41.5q51 0 96 -37t74 -103q10 144 37 336q-192 17 -317 17q-291 0 -588 -60q-14 47 -14 90q0 37 14 68q273 69 590 69q341 0 604 -69
q10 -17 10 -70q0 -65 -10 -88q-92 19 -143 25q-25 -269 -25 -531q0 -409 39 -592z" />
    <glyph glyph-name="bn_sha" unicode="&#x9b6;" horiz-adv-x="1153" 
d="M1020 954q-9 -429 -29 -612q-23 -210 -63 -389q-120 0 -199 27q63 200 88 368q28 189 31 422q-7 142 -67.5 234t-145.5 92q-56 0 -96 -43q89 -36 144.5 -118t55.5 -181q0 -91 -48.5 -146t-127.5 -55q-115 0 -170 106q-63 -110 -174 -110q-76 0 -123 50.5t-47 135.5
q0 114 74 209t186 119q-46 37 -121 37q-66 0 -188 -27q-12 35 -12 84q0 47 12 74q102 26 184 26q80 0 135.5 -45.5t81.5 -132.5q31 94 90 148.5t132 54.5q90 0 157.5 -85t104.5 -241v93q0 77 78 118q63 39 190 64q14 -24 14 -72q0 -55 -14 -86q-63 -18 -86 -31
q-26 -12 -36.5 -31t-10.5 -57zM483 860q0 -78 29 -131t72 -53q51 0 51 80q0 67 -36.5 121t-98.5 79q-17 -53 -17 -96zM193 733q0 -71 55 -71q43 0 71.5 54t28.5 138q0 45 -14 92q-59 -17 -100 -80.5t-41 -132.5z" />
    <glyph glyph-name="bn_ssa" unicode="&#x9b7;" horiz-adv-x="1038" 
d="M270 1116q10 -60 92.5 -131t225.5 -143l119 -60q14 154 36 336q-123 10 -211 10q-142 0 -262 -12zM864 604q0 -443 47 -618q-72 -35 -190 -35q-193 357 -510 426q-98 73 -109 176l240 272q-111 56 -190.5 126.5t-98.5 131.5q-28 -4 -53 -10q-12 38 -12.5 86t12.5 72
q243 63 541 63q139 0 276.5 -17t220.5 -46q12 -26 12 -74.5t-12 -83.5q-75 18 -143 29q-31 -221 -31 -498zM696 180q-4 152 -4 168q0 192 8 309l-172 80l-200 -235q229 -107 368 -322z" />
    <glyph glyph-name="bn_sa" unicode="&#x9b8;" horiz-adv-x="1089" 
d="M481 752q48 28 107 28q81 0 141 -75q8 190 33 415q-153 8 -211 8q-141 0 -264 -12q2 -28 20 -61.5t70 -96.5q61 -72 82.5 -114t21.5 -80v-12zM932 -23q-66 -16 -199 -16q-10 112 -10 389q0 127 2 162l-2 -2q0 49 -25.5 78.5t-68.5 29.5q-37 0 -71 -35t-93 -143
q-82 -152 -141 -202q-58 -52 -129 -52q-61 0 -117 29q-40 84 -37 207q39 -45 111 -45q26 0 52 25t62 83q84 133 84 232q0 62 -33.5 112t-130.5 123q-62 48 -88 76.5t-37 56.5q-34 -3 -61 -12q-12 37 -12 90q0 44 12 68q105 30 250 47q163 16 303 16q145 0 309 -18
q160 -21 232 -45q10 -20 10 -70t-10 -88q-84 21 -179 31q-24 -270 -24 -500q0 -168 12 -340q8 -153 29 -287z" />
    <glyph glyph-name="bn_ha" unicode="&#x9b9;" horiz-adv-x="964" 
d="M965 1073q-93 23 -226 38t-254 15q-238 0 -485 -53q-14 47 -14 88q0 42 14 70q208 61 489 61q119 0 263 -16q137 -18 213 -45q10 -20 10 -72q0 -56 -10 -86zM999 -145q-37 -52 -104 -119q-362 389 -784 520l-41 219q204 -67 344 -67q121 0 185.5 49t64.5 141
q0 110 -74 199q-76 88 -172 88q-44 0 -70 -23t-26 -61q0 -63 84 -142q-77 -41 -177 -41q-75 90 -75 195q0 94 62 150.5t165 56.5q172 0 313 -150q140 -152 140 -335q0 -133 -86 -214.5t-240 -93.5q235 -137 491 -372z" />
    <glyph glyph-name="bn_nukta" unicode="&#x9bc;" 
d="M-127 -78q0 51 35 85t86 34q55 0 94 -42t39 -99q0 -51 -34 -85t-85 -34q-57 0 -96 40.5t-39 100.5z" />
    <glyph glyph-name="bn_avagraha" unicode="&#x9bd;" horiz-adv-x="942" 
d="M260 950q0 -45 35 -73.5t92 -28.5q112 0 162 115q-78 75 -176 75q-54 0 -83.5 -23.5t-29.5 -64.5zM975 -4q-45 -62 -103 -117q-371 389 -784 518l-41 219q196 -77 354 -77q121 0 184.5 50t63.5 144q0 67 -24 119q-65 -115 -211 -115q-123 0 -204 66.5t-81 169.5
q0 87 60.5 138.5t160.5 51.5q119 0 238 -80q32 102 45 228q81 -3 139 -41q-25 -169 -72 -295q111 -139 111 -299q0 -133 -86 -213t-240 -92q257 -154 490 -375z" />
    <glyph glyph-name="bn_aakaar" unicode="&#x9be;" horiz-adv-x="503" 
d="M358 991q-3 -562 -43 -1110q-138 0 -211 25q77 391 86 983q-8 70 -57 118.5t-133 65.5q-11 33 -11.5 83.5t11.5 74.5q163 -41 256 -121q83 83 248 121q12 -20 12 -71.5t-12 -86.5q-93 -23 -146 -82z" />
    <glyph glyph-name="bn_ikaar" unicode="&#x9bf;" horiz-adv-x="503" 
d="M428 -90q-77 -25 -209 -25q-19 276 -26 490q-11 326 -11 514q-6 68 -54.5 116.5t-127.5 67.5q-11 33 -11.5 83.5t11.5 74.5q103 -23 199 -82q-125 166 -125 317q0 149 99.5 232.5t277.5 83.5q180 0 417.5 -68t503.5 -196q-13 -54 -63 -125q-250 122 -437 175.5t-360 53.5
q-137 0 -200.5 -53t-63.5 -170q0 -115 57 -248q80 55 199 80q12 -20 12 -71.5t-12 -86.5q-110 -24 -152 -88q-9 -597 76 -1075z" />
    <glyph glyph-name="bn_iikaar" unicode="&#x9c0;" horiz-adv-x="503" 
d="M358 991q3 -201 -12 -438q-18 -291 -59 -672q-125 0 -205 39q99 430 108 963q-9 150 -190 190q-12 32 -12 83.5t12 74.5q97 -22 184 -72q-12 270 -174.5 397t-498.5 127q-139 0 -212 -26t-73 -76q0 -37 42.5 -57.5t117.5 -20.5q83 0 180 29q83 22 129 22q96 0 164 -55
q-12 -70 -56 -125q-48 60 -120 60q-29 0 -109 -23q-119 -35 -195 -35q-127 0 -203.5 60t-76.5 159q0 119 109.5 186.5t304.5 67.5q335 0 561 -182q226 -185 272 -493q81 43 158 57q12 -20 12 -70.5t-12 -87.5q-102 -27 -146 -82z" />
    <glyph glyph-name="bn_ukaar" unicode="&#x9c1;" 
d="M307 -625l-260 199q-44 -77 -113 -118.5t-151 -41.5q-109 0 -174.5 62.5t-65.5 167.5q0 102 63 166.5t158 64.5q103 0 203 -86v6q0 101 -41 191l125 12q53 -112 53 -227q0 -39 -8 -72l295 -207q-26 -62 -84 -117zM-342 -358q0 -38 29.5 -63t76.5 -25q100 0 162 100
q-78 78 -162 78q-49 0 -77.5 -24.5t-28.5 -65.5z" />
    <glyph glyph-name="bn_uukaar" unicode="&#x9c2;" 
d="M346 -612l-229 174q-103 -103 -232 -103q-106 0 -173.5 64.5t-67.5 167.5q0 216 288 340l109 -4l22 -86l-32 -13q-112 -35 -185 -104.5t-73 -138.5q0 -35 22.5 -55.5t59.5 -20.5q85 0 229 135l344 -242q-33 -68 -82 -114z" />
    <glyph glyph-name="bn_rikaar" unicode="&#x9c3;" 
d="M55 -621l-385 297v41l260 267v47l127 -11l39 -69l-246 -252l287 -205q-23 -60 -82 -115z" />
    <glyph glyph-name="bn_rrikaar" unicode="&#x9c4;" 
d="M-133 -475l-78 -72l211 -147q-30 -66 -74 -101l-301 232v37l137 133l-92 69v41l260 267v47l127 -11l39 -69l-246 -252l287 -205q-23 -60 -82 -115z" />
    <glyph glyph-name="bn_ekaar" unicode="&#x9c7;" horiz-adv-x="577" 
d="M686 -6q-88 -139 -225 -139q-154 0 -242 168q-90 169 -90 446q0 312 80 514q-62 53 -209 90q-10 38 -10 82q0 46 10 76q205 -48 305 -123q70 76 273 123q12 -27 12 -72q0 -62 -12 -86q-148 -27 -207 -164q-60 -142 -60 -448q0 -475 113 -475q32 0 63.5 39.5t83.5 140.5
q43 -25 79 -79.5t36 -92.5z" />
    <glyph glyph-name="bn_aikaar" unicode="&#x9c8;" horiz-adv-x="577" 
d="M686 -6q-88 -139 -225 -139q-154 0 -242 168q-90 169 -90 446q0 312 80 514q-62 53 -209 90q-10 38 -10 82q0 46 10 76q205 -48 305 -123q50 56 172 96q-23 117 -60 164t-104 47q-45 0 -116 -18q-92 -19 -127 -19q-85 0 -152 48.5t-127 154.5q36 44 115 86
q44 -74 85 -105.5t91 -31.5q34 0 106 16q89 21 125 21q105 0 173.5 -87.5t91.5 -248.5q12 -27 12 -72q0 -62 -12 -86q-148 -27 -207 -164q-60 -142 -60 -448q0 -475 113 -475q32 0 63.5 39.5t83.5 140.5q43 -25 79 -79.5t36 -92.5z" />
    <glyph glyph-name="bn_okaar" unicode="&#x9cb;" horiz-adv-x="2453" 
d="M2308 991q-3 -562 -43 -1110q-138 0 -211 25q77 391 86 983q-8 70 -57 118.5t-133 65.5q-11 33 -11.5 83.5t11.5 74.5q163 -41 256 -121q83 83 248 121q12 -20 12 -71.5t-12 -86.5q-93 -23 -146 -82zM686 -6q-88 -139 -225 -139q-154 0 -242 168q-90 169 -90 446
q0 312 80 514q-62 53 -209 90q-10 38 -10 82q0 46 10 76q205 -48 305 -123q70 76 273 123q12 -27 12 -72q0 -62 -12 -86q-148 -27 -207 -164q-60 -142 -60 -448q0 -475 113 -475q32 0 63.5 39.5t83.5 140.5q43 -25 79 -79.5t36 -92.5zM1276 1227q39 0 61.5 -23.5t22.5 -64.5
q0 -39 -21.5 -61.5t-62.5 -22.5q-39 0 -60.5 21.5t-21.5 62.5q0 42 21.5 65t60.5 23zM1552 1149q38 0 62 -24t24 -62t-24 -61t-62 -23t-61 23t-23 61t23 62t61 24zM995 1149q38 0 62 -24t24 -62t-24 -61t-62 -23q-37 0 -59.5 23t-22.5 61t22.5 62t59.5 24zM799 946
q37 0 58.5 -22.5t21.5 -63.5q0 -37 -22.5 -61.5t-57.5 -24.5q-37 0 -61.5 25.5t-24.5 62.5t24 60.5t62 23.5zM1757 946q37 0 58.5 -23t21.5 -61q0 -41 -21.5 -64.5t-58.5 -23.5t-61.5 25.5t-24.5 62.5q0 35 24.5 59.5t61.5 24.5zM1831 674q38 0 60 -23t22 -61
q0 -41 -21.5 -63.5t-60.5 -22.5q-38 0 -61 24t-23 62t23 61t61 23zM725 674q39 0 60.5 -21.5t21.5 -62.5t-21.5 -63.5t-60.5 -22.5q-41 0 -64.5 23.5t-23.5 62.5t23.5 61.5t64.5 22.5zM1757 403q37 0 58.5 -22.5t21.5 -63.5t-21.5 -64.5t-58.5 -23.5t-61.5 25t-24.5 63
q0 37 24.5 61.5t61.5 24.5zM799 403q36 0 58 -23.5t22 -62.5q0 -41 -21.5 -64.5t-58.5 -23.5q-38 0 -62 25t-24 63t24 62t62 24zM1552 201q38 0 62 -25t24 -63q0 -37 -24 -59.5t-62 -22.5t-61 22.5t-23 59.5q0 41 22.5 64.5t61.5 23.5zM995 201q38 0 62 -25t24 -63
q0 -37 -24 -59.5t-62 -22.5q-37 0 -59.5 22.5t-22.5 59.5q0 39 23 63.5t59 24.5zM1276 125q39 0 61.5 -22.5t22.5 -63.5q0 -38 -23 -61t-61 -23t-60 23t-22 61q0 41 21.5 63.5t60.5 22.5z" />
    <glyph glyph-name="bn_aukaar" unicode="&#x9cc;" horiz-adv-x="2453" 
d="M2308 991q0 -549 -37 -1104q-121 0 -207 21q73 425 76 975q-6 73 -55.5 123t-134.5 67q-11 33 -11 84q0 48 11 74q160 -40 254 -121q55 68 55 145q0 48 -37.5 94t-144.5 124q-20 15 -80 59q-71 49 -99 78q-43 43 -61 89.5t-18 112.5q0 48 12 101q62 21 139 18
q-8 -41 -8 -90q0 -86 59 -145q17 -17 133 -101q109 -78 157 -148.5t48 -154.5q0 -56 -14 -94q90 29 109 33q12 -21 12 -68q0 -53 -12 -90q-93 -23 -146 -82zM686 -6q-88 -139 -225 -139q-154 0 -242 168q-90 169 -90 446q0 312 80 514q-62 53 -209 90q-10 38 -10 82
q0 46 10 76q205 -48 305 -123q70 76 273 123q12 -27 12 -72q0 -62 -12 -86q-148 -27 -207 -164q-60 -142 -60 -448q0 -475 113 -475q32 0 63.5 39.5t83.5 140.5q43 -25 79 -79.5t36 -92.5zM1272 1227q41 0 63.5 -23.5t22.5 -64.5q0 -39 -22.5 -61.5t-63.5 -22.5
q-38 0 -60 23t-22 61q0 41 22 64.5t60 23.5zM1548 1149q38 0 62 -24t24 -62t-24 -61t-62 -23t-60 23t-22 61t22.5 62t59.5 24zM993 1149q38 0 61 -24t23 -62t-23 -61t-61 -23q-37 0 -60.5 23.5t-23.5 60.5q0 38 23.5 62t60.5 24zM1753 946q38 0 60 -23t22 -61
q0 -41 -22.5 -64.5t-59.5 -23.5t-61.5 25.5t-24.5 62.5q0 35 24.5 59.5t61.5 24.5zM797 946q36 0 58 -23.5t22 -62.5q0 -37 -22.5 -61.5t-57.5 -24.5q-37 0 -62.5 25.5t-25.5 62.5t25 60.5t63 23.5zM721 674q84 0 84 -84q0 -41 -22.5 -63.5t-61.5 -22.5q-38 0 -62 24t-24 62
t24 61t62 23zM1827 674q84 0 84 -84q0 -41 -22.5 -63.5t-61.5 -22.5q-37 0 -60.5 24t-23.5 62q0 37 23.5 60.5t60.5 23.5zM1753 403q39 0 60.5 -22.5t21.5 -63.5t-22.5 -64.5t-59.5 -23.5t-61.5 25t-24.5 63q0 37 24.5 61.5t61.5 24.5zM797 403q36 0 58 -23.5t22 -62.5
q0 -38 -22.5 -63t-57.5 -25q-38 0 -63 25t-25 63t25 62t63 24zM1548 201q39 0 62.5 -23.5t23.5 -64.5q0 -37 -24 -59.5t-62 -22.5q-37 0 -59.5 22.5t-22.5 59.5q0 41 22.5 64.5t59.5 23.5zM993 201q39 0 61.5 -23.5t22.5 -64.5q0 -37 -23 -59.5t-61 -22.5q-37 0 -60.5 22.5
t-23.5 59.5q0 38 23.5 63t60.5 25zM1272 125q41 0 63.5 -22.5t22.5 -63.5q0 -38 -24 -61t-62 -23t-60 23t-22 61q0 41 21.5 63.5t60.5 22.5z" />
    <glyph glyph-name="bn_halanth" unicode="&#x9cd;" 
d="M143 -193l420 -315q-26 -62 -84 -117l-424 326q24 55 88 106z" />
    <glyph glyph-name="bn_khanda_ta" unicode="&#x9ce;" horiz-adv-x="929" 
d="M340 1038q7 -132 56.5 -204t129.5 -72q64 0 105 41t41 108q0 78 -47 122t-131 44q-81 0 -154 -39zM776 281q54 -57 78.5 -132t24.5 -184q-24 -12 -73 -23t-95 -12q-1 102 -19 155.5t-61 90.5q-28 24 -66 47l-35 17.5t-61.5 30.5t-71.5 34q-200 95 -268 187
q-70 88 -70 235q0 215 125 367q124 151 299 151q138 0 221.5 -87t83.5 -228q0 -139 -73 -230q-74 -92 -189 -92q-121 0 -195 89.5t-93 256.5q-72 -87 -72 -200q0 -60 26.5 -106t83.5 -87q36 -23 62 -35q9 -4 145 -69q147 -70 195 -101q64 -41 98 -75z" />
    <glyph glyph-name="bn_aumark" unicode="&#x9d7;" horiz-adv-x="503" 
d="M358 991q0 -564 -36 -1104q-121 0 -207 21q72 419 75 975q-6 73 -55.5 123t-134.5 67q-10 30 -10 84q0 51 10 74q160 -40 254 -121q55 68 55 145q0 48 -37.5 94t-144.5 124q-20 15 -80 59q-67 47 -98 78q-43 43 -61.5 89.5t-18.5 112.5q0 48 12 101q62 21 139 18
q-8 -41 -8 -90q0 -85 60 -145q17 -17 133 -101q109 -78 157 -148.5t48 -154.5q0 -54 -15 -94q90 29 109 33q12 -21 12 -68q0 -53 -12 -90q-93 -23 -146 -82z" />
    <glyph glyph-name="bn_rra" unicode="&#x9dc;" horiz-adv-x="1187" 
d="M1145 426q0 -222 -106.5 -348.5t-295.5 -126.5q-248 0 -424 220t-299 697q48 35 132 66q117 -412 262 -603.5t340 -191.5q125 0 192.5 86t67.5 246q0 95 -21 184q-72 -93 -136.5 -135.5t-133.5 -42.5q-115 0 -191 98q-77 95 -77 224q0 113 55 336q-258 -3 -510 -62
q-14 44 -14 88q0 42 14 70q262 72 596 72q319 0 592 -72q14 -24 14 -68q0 -50 -14 -90q-210 53 -496 62q-90 -288 -90 -394q0 -50 22.5 -78t63.5 -28q39 0 94.5 54t141.5 179q72 -16 133 -49q88 -181 88 -393zM678 -147q44 0 75 -30.5t31 -74.5q0 -51 -36.5 -87t-90.5 -36
q-44 0 -74 29.5t-30 73.5q0 53 36.5 89t88.5 36z" />
    <glyph glyph-name="bn_rha" unicode="&#x9dd;" horiz-adv-x="995" 
d="M678 782q111 0 180.5 -75t69.5 -199q0 -186 -146 -365q-74 -88 -164.5 -140t-171.5 -52q-126 0 -208 94q-86 92 -86 236q0 423 47 829q-88 -10 -199 -37q-10 34 -10 78q0 42 10 80q73 29 204 46t279 17q295 0 512 -63q13 -26 13 -76q0 -53 -13 -82q-261 55 -506 55
q-75 0 -98 -2q-32 -183 -51 -438q-21 -243 -21 -465q0 -66 28.5 -104.5t78.5 -40.5q96 0 203 137q104 137 104 266q0 60 -27.5 93.5t-74.5 33.5q-76 0 -137 -73q-19 27 -19 59q0 75 37 131q60 57 166 57zM461 -147q47 0 77.5 -30t30.5 -75q0 -51 -36 -87t-87 -36
q-47 0 -77.5 30t-30.5 75q0 51 36 87t87 36z" />
    <glyph glyph-name="bn_yya" unicode="&#x9df;" horiz-adv-x="1054" 
d="M874 604q0 -406 56 -612q-77 -41 -193 -41q-205 353 -526 416q-100 71 -109 180l279 276q-13 9 -49 32t-77 49t-50 32q-123 86 -142 149q-9 -1 -29 -5t-34 -7q-12 38 -12.5 86t12.5 72q234 63 557 63q130 0 268 -17t230 -46q12 -30 11.5 -76t-11.5 -82q-68 16 -148 27
q-33 -206 -33 -496zM518 840l80 -68l-262 -280q232 -101 375 -320q-4 144 -4 176q0 221 10 416q7 146 35 354q-93 10 -201 10q-143 0 -266 -12q6 -43 47 -96t186 -180zM260 25q0 44 31.5 75t75.5 31q51 0 85.5 -36.5t34.5 -90.5q0 -43 -30 -72.5t-74 -29.5q-53 0 -88 35.5
t-35 87.5z" />
    <glyph glyph-name="bn_rri" unicode="&#x9e0;" horiz-adv-x="1443" 
d="M379 522q245 -133 366 -360q3 312 43 600q-101 -42 -212.5 -107t-196.5 -133zM899 152q0 -109 4 -187q-49 -15 -145 -12q-174 367 -500 453q-37 55 -52.5 100t-15.5 104q86 83 214 164.5t272 143.5q-12 75 -62 131q-58 -76 -140 -122t-163 -46q-109 0 -172 66t-63 181
q0 67 20 103q72 38 176 35q-28 -39 -28 -103q0 -108 104 -108q66 0 132 40.5t114 108.5l100 -59q62 -74 84 -187q6 5 37 15q12 122 49 295q98 -3 170 -43q-107 -346 -127 -756q146 -100 244 -246q-18 180 -18 324q0 386 100 690q77 0 143 -27q-45 -124 -70.5 -278.5
t-25.5 -302.5q0 -358 98 -613q-31 -17 -81 -25.5t-97 -6.5q-125 219 -299 329q-2 -39 -2 -161zM580 -283l-385 297v41l260 267v47l127 -11l39 -69l-246 -252l287 -205q-23 -60 -82 -115z" />
    <glyph glyph-name="bn_lli" unicode="&#x9e1;" horiz-adv-x="1382" 
d="M1313 211q0 -152 -39 -328t-107 -332q-106 9 -166 46q6 209 -59 331.5t-176 122.5q-68 0 -110 -46.5t-42 -123.5q0 -59 27.5 -96t69.5 -37q71 0 118 113q51 -95 62 -195q-23 -47 -64.5 -73.5t-89.5 -26.5q-96 0 -168 96q-69 97 -69 242q0 139 75 235q-19 159 -86.5 250.5
t-164.5 91.5q-74 0 -119 -53t-45 -141q0 -68 28.5 -110t73.5 -42q78 0 129 129q55 -96 66 -196q-29 -54 -73.5 -84.5t-94.5 -30.5q-106 0 -176 104q-74 103 -74 256q0 162 81 264.5t210 102.5q140 0 233 -120t113 -327q49 121 78 250q28 140 28 232q0 130 -98 180
q-27 16 -64 26.5t-147 36.5q-118 29 -180 53t-103 56q-53 41 -84 104t-49 162q77 49 136 60q20 -113 69 -168t174 -84l133 -31q172 -41 249 -141t81 -289l105 -35q166 -55 237.5 -156t71.5 -278zM1108 428q-20 11 -190 72l-27 10q-15 -130 -53 -277q103 -25 169 -128.5
t85 -268.5q49 109 79.5 225.5t30.5 198.5q0 62 -22 102t-72 66z" />
    <glyph glyph-name="bn_likaar" unicode="&#x9e2;" horiz-adv-x="614" 
d="M586 -350q0 -175 -99 -385q-65 0 -112 20q1 126 -41.5 197.5t-116.5 71.5q-38 0 -63 -24t-25 -62q0 -29 15 -45.5t40 -16.5q40 0 74 57q42 -78 45 -143q-37 -53 -100 -53q-74 0 -125 61.5t-51 153.5q0 97 52 158t136 61q92 0 153 -66t78 -182q39 119 39 207
q0 53 -33.5 82.5t-134.5 54.5q-132 29 -184 78q-50 50 -65 152q51 30 96 43q12 -68 39.5 -95.5t105.5 -44.5l80 -18q103 -25 150 -87.5t47 -174.5z" />
    <glyph glyph-name="bn_llikaar" unicode="&#x9e3;" horiz-adv-x="1024" 
d="M915 -590q0 -167 -94 -350q-39 0 -102 18q1 112 -36.5 175t-104.5 63q-37 0 -58.5 -19.5t-21.5 -54.5q0 -25 13 -39t36 -14q42 0 65 51q39 -67 43 -131q-14 -20 -39 -33.5t-51 -13.5q-67 0 -113 56.5t-46 138.5q0 81 40 133q-13 77 -53 120.5t-96 43.5q-38 0 -63 -24
t-25 -62q0 -29 14 -45.5t39 -16.5q44 0 76 57q42 -78 45 -143q-13 -24 -41 -38.5t-59 -14.5q-74 0 -125.5 61.5t-51.5 153.5q0 97 52.5 158t136.5 61q92 0 153 -66t78 -182q39 119 39 207q0 53 -33.5 82.5t-134.5 54.5q-132 29 -184 78q-50 50 -68 152q61 31 99 43
q12 -68 39.5 -95.5t103.5 -44.5l82 -18q97 -25 145 -82t52 -156l71 -22q92 -25 135 -83.5t43 -158.5zM823 -582q0 49 -30 75.5t-121 55.5l-15 5q-2 -28 -22 -111q61 -19 99.5 -74.5t49.5 -140.5q39 98 39 190z" />
    <glyph glyph-name="bn_zero" unicode="&#x9e6;" horiz-adv-x="1126" 
d="M602 1204q189 0 290 -139.5t101 -398.5q0 -298 -131 -508q-132 -211 -342 -211q-189 0 -290 139.5t-101 396.5q0 297 133 510q132 211 340 211zM598 999q-148 0 -240 -139q-94 -137 -94 -354q0 -171 68 -263.5t192 -92.5q147 0 242 139q92 139 92 354q0 171 -68 263.5
t-192 92.5z" />
    <glyph glyph-name="bn_one" unicode="&#x9e7;" horiz-adv-x="1126" 
d="M877 705q106 -117 106 -291q0 -195 -117 -330q-119 -137 -291 -137q-140 0 -228.5 87.5t-88.5 223.5q0 124 72 211q72 84 180 84q75 0 134.5 -44t96.5 -126q-44 -71 -116 -113q-35 129 -125 129q-49 0 -82 -38t-33 -95q0 -69 50 -112t132 -43q119 0 203 84q80 83 80 211
q0 134 -109 221q-53 46 -221 125q-199 90 -272 166q-71 74 -86 172q74 74 170 118q12 -83 69 -145q62 -71 226 -170q109 -65 161 -105t89 -83z" />
    <glyph glyph-name="bn_two" unicode="&#x9e8;" horiz-adv-x="1126" 
d="M1079 41q-25 -49 -90 -125q-204 180 -405.5 288.5t-421.5 155.5l-41 226q198 -68 344 -68q250 0 250 164q0 59 -45 104q-46 43 -195 101q-146 58 -199 102q-52 43 -61 101q76 74 170 118q9 -60 55 -106q46 -52 172 -121q164 -87 219 -164q52 -73 52 -174
q0 -123 -76 -197.5t-219 -93.5q254 -123 491 -311z" />
    <glyph glyph-name="bn_three" unicode="&#x9e9;" horiz-adv-x="1126" 
d="M678 1202q152 0 260 -203q109 -204 109 -499q0 -259 -89 -406t-247 -147q-455 0 -660 1116q52 34 131 43q82 -442 221 -698q138 -258 302 -258q200 0 200 397q0 217 -53 356q-56 139 -135 139q-41 0 -63.5 -43.5t-22.5 -124.5q0 -99 27 -186t75 -141q-26 -17 -78 -25.5
t-102 -3.5q-45 73 -71.5 168.5t-26.5 190.5q0 146 61.5 235.5t161.5 89.5z" />
    <glyph glyph-name="bn_four" unicode="&#x9ea;" horiz-adv-x="1130" 
d="M993 322q0 -158 -125 -265q-123 -108 -327 -108q-177 0 -281 84.5t-104 224.5q0 85 42 154.5t134 132.5q-96 35 -150.5 110t-54.5 172q0 160 125 267q126 108 328 108q177 0 281 -86t104 -229q0 -165 -170 -287q93 -35 145.5 -108.5t52.5 -169.5zM641 1065
q-143 0 -252 -92q-108 -91 -108 -207q0 -133 155 -158q19 10 109 58q65 32 125 65q78 49 113.5 98t35.5 105q0 63 -45.5 97t-132.5 34zM303 215q0 -63 45 -97t131 -34q145 0 254 92t109 209q0 62 -38.5 103t-107.5 53q-57 -32 -116 -62q-31 -16 -71.5 -37.5t-47.5 -25.5
q-84 -51 -121 -98t-37 -103z" />
    <glyph glyph-name="bn_five" unicode="&#x9eb;" horiz-adv-x="1126" 
d="M823 373q0 -201 107 -314q-66 -50 -167.5 -81t-197.5 -31q-208 0 -327 136t-119 372q0 219 108 428q110 209 281 334q27 -124 125 -213q95 -86 211 -86q35 0 72 8.5t55 19.5l80 -133q-89 -83 -115 -115q-44 -59 -53 -77q-60 -114 -60 -248zM287 408q0 -159 74.5 -248.5
t205.5 -89.5q114 0 193 67q-96 125 -96 305q0 199 118 355q-157 22 -268 161q-106 -110 -166.5 -257t-60.5 -293z" />
    <glyph glyph-name="bn_six" unicode="&#x9ec;" horiz-adv-x="1126" 
d="M1049 430q0 -226 -96.5 -352.5t-268.5 -126.5q-223 0 -381.5 227.5t-267.5 716.5q71 31 135 39q98 -410 225 -603.5t297 -193.5q232 0 232 342q0 52 -15 170q-59 -90 -116 -131t-119 -41q-101 0 -172 86q-74 86 -74 197q0 37 6 88q6 47 6 78q0 58 -47 97t-160 71
q74 69 162 112q103 -41 152 -95t49 -126q0 -44 -18 -125q-17 -83 -17 -121q0 -49 18.5 -75.5t51.5 -26.5q38 0 83.5 49.5t125.5 181.5q62 -13 133 -49q76 -175 76 -389z" />
    <glyph glyph-name="bn_seven" unicode="&#x9ed;" horiz-adv-x="1126" 
d="M1057 53q-69 -69 -154 -114q-115 41 -154.5 90.5t-39.5 152.5q0 95 28 277q-144 -21 -256 -21q-162 0 -274 86q-111 86 -111 217q0 81 46 169t124 157q156 137 344 137q149 0 244 -92q94 -94 94 -233q0 -43 -20 -238q-21 -172 -27 -250q-6 -83 -6 -141q0 -88 33.5 -126.5
t128.5 -70.5zM270 705q0 -68 45 -99t150 -31q145 0 305 56q37 193 37 248q0 75 -42 114t-122 39q-144 0 -258 -102q-115 -103 -115 -225z" />
    <glyph glyph-name="bn_eight" unicode="&#x9ee;" horiz-adv-x="1126" 
d="M770 123q-69 -82 -151.5 -127t-163.5 -45q-133 0 -219 93.5t-86 246.5q0 30 10 160q18 253 18 393q3 128 -28 170q-37 43 -127 69q63 71 149 125q107 -33 147.5 -86.5t40.5 -169.5q0 -80 -8 -161q-9 -95 -33 -271q-26 -176 -26 -237q0 -79 32.5 -120.5t94.5 -41.5
q119 0 225 127q103 127 103 268q0 125 -109 125q-84 0 -199 -74q-28 92 -28 172q101 49 190 49q57 0 139 -30q68 -29 117 -29q103 0 211 102q36 -82 45 -176q-32 -35 -78 -56t-90 -21q-30 0 -76 14q41 -59 41 -135q0 -79 -38 -169.5t-103 -164.5z" />
    <glyph glyph-name="bn_nine" unicode="&#x9ef;" horiz-adv-x="1126" 
d="M1008 604q0 -140 -43 -315.5t-117 -337.5q-77 0 -158 31q4 224 -72 357.5t-206 133.5q-78 0 -125 -51t-47 -137q0 -67 31.5 -108.5t82.5 -41.5q84 0 138 129q62 -111 65 -196q-31 -54 -81 -84.5t-107 -30.5q-108 0 -181 104q-75 100 -75 254q0 158 84 257.5t217 99.5
q147 0 246.5 -114.5t125.5 -313.5q43 98 69 205.5t26 185.5q0 70 -27 111.5t-90 66.5q-45 17 -57 20q-57 15 -170 37q-94 18 -152 35q-20 5 -76 25q-61 25 -100 62.5t-62 94.5q68 71 166 129q21 -90 72 -125q49 -35 258 -75q197 -37 281 -131t84 -277z" />
    <glyph glyph-name="asa_ra" unicode="&#x9f0;" horiz-adv-x="983" 
d="M811 604q0 -419 57 -608q-78 -43 -192 -43q-197 372 -533 444q-40 53 -58.5 102.5t-23.5 112.5q101 116 275 234q182 120 358 192q1 6 5.5 30t7.5 48q-120 10 -191 10q-253 0 -516 -53q-14 40 -14 86q0 44 14 72q256 61 524 61q108 0 236 -17t223 -44q12 -24 12 -72
q0 -45 -12 -86q-134 25 -139 25q-33 -206 -33 -494zM432 690q127 -82 215 -217q2 152 21 356q-96 -44 -236 -139zM236 528q267 -126 415 -374q-6 153 -6 182q-117 204 -315 276q-88 -78 -94 -84z" />
    <glyph glyph-name="asa_ba" unicode="&#x9f1;" horiz-adv-x="983" 
d="M811 604q0 -409 55 -612q-67 -39 -190 -39q-197 372 -533 444q-73 90 -82 207q106 121 277 240q173 119 356 194q0 4 2.5 15t3.5 20q2 7 9 43q-92 10 -193 10q-253 0 -516 -53q-14 40 -14 86q0 41 14 72q111 27 255 44t269 17q109 0 237.5 -17t221.5 -44q14 -28 14 -72
q0 -46 -14 -86q-111 23 -137 25q-35 -216 -35 -494zM647 172q-4 136 -4 168q0 273 23 473q-111 -55 -221.5 -132t-188.5 -155q256 -124 391 -354zM414 -37q-57 77 -159.5 138.5t-203.5 78.5q12 71 58 131q115 -38 221 -116q102 -78 151 -168q-15 -41 -67 -64z" />
    <glyph glyph-name="bn_rupeemark" unicode="&#x9f2;" horiz-adv-x="1159" 
d="M-6 897l88 193q636 -372 1020 -1049q-44 -72 -92 -125q-307 635 -1016 981z" />
    <glyph glyph-name="bn_rupeesign" unicode="&#x9f3;" horiz-adv-x="995" 
d="M678 782q111 0 180.5 -75t69.5 -199q0 -186 -146 -365q-74 -88 -164.5 -140t-171.5 -52q-126 0 -208 94q-86 92 -86 236q0 267 28 634q-123 -17 -180 -34q-10 34 -10 80q0 39 10 77q93 32 195 45q20 185 49 410l213 29q-46 -232 -70 -422q23 2 96 2q292 0 512 -64
q13 -26 13 -75q0 -45 -13 -82q-261 55 -506 55q-14 0 -29 -0.5t-41.5 -1.5t-53.5 -2q-46 -386 -46 -709q0 -66 28.5 -104.5t78.5 -40.5q96 0 203 137q104 137 104 266q0 60 -27.5 93.5t-74.5 33.5q-76 0 -137 -73q-19 27 -19 59q0 75 37 131q60 57 166 57z" />
    <glyph glyph-name="bn_currency1" unicode="&#x9f4;" horiz-adv-x="1110" 
d="M1081 1145q-222 -722 -831 -1202l-129 190q563 329 827 1053q63 -12 133 -41z" />
    <glyph glyph-name="bn_currency2" unicode="&#x9f5;" horiz-adv-x="1110" 
d="M1081 1145q-222 -722 -831 -1202l-129 190q373 226 373 453q0 90 -68 155q-68 62 -156 62q-67 0 -106 -30t-39 -81q0 -47 37 -74.5t100 -27.5q74 0 131 33q9 -84 -8 -170q-8 -8 -38.5 -14.5t-61.5 -6.5q-119 0 -198 80t-79 201q0 110 74.5 177.5t196.5 67.5
q135 0 229 -98t94 -256q0 -6 -0.5 -12.5t-1.5 -18.5l-2 -24q218 270 350 637q63 -12 133 -41z" />
    <glyph glyph-name="bn_currency3" unicode="&#x9f6;" horiz-adv-x="1110" 
d="M551 774q0 57 -38 94t-99 37q-127 0 -127 -129q0 -70 28 -117q-80 -8 -170 9q-18 18 -18 94q0 113 74.5 186.5t191.5 73.5q138 0 232 -76q92 -77 92 -194q0 -110 -62 -193q-70 -89 -247 -180q-119 -61 -148 -90q-33 -33 -33 -74q0 -54 44 -84.5t118 -30.5q205 0 377 295
q174 295 262 791q63 -12 133 -41q-99 -593 -286.5 -884.5t-466.5 -291.5q-163 0 -264 73t-101 189q0 79 49 140q51 60 209 139q159 78 203 133q47 59 47 131z" />
    <glyph glyph-name="bn_currency4" unicode="&#x9f7;" horiz-adv-x="571" 
d="M272 537q0 -448 60 -703l-209 70q0 7 -0.5 16.5t-1.5 27t-2 34.5q-1 29 -2 59.5t-1.5 48.5t-0.5 33q0 398 10 633q7 175 35 440l143 23q-26 -416 -27 -451q-4 -160 -4 -231z" />
    <glyph glyph-name="bn_currencyless" unicode="&#x9f8;" horiz-adv-x="1009" 
d="M891 -2q-76 -35 -160 -45q-41 172 -41 358q0 231 55 437q-144 -107 -266 -240q-130 -139 -207 -275q-51 6 -104 26.5t-82 45.5q66 214 101.5 469.5t35.5 503.5l129 18q6 -222 6 -235q0 -253 -36 -465q204 243 428 377q96 -39 163 -142q-67 -226 -67 -448q0 -198 45 -385z
" />
    <glyph glyph-name="bn_currency16" unicode="&#x9f9;" horiz-adv-x="1089" 
d="M553 1204q168 0 259 -95.5t91 -272.5q0 -205 -117 -349q-121 -145 -307 -145q-166 0 -257 96t-91 273q0 205 119 348q118 145 303 145zM549 1055q-130 0 -214.5 -93.5t-84.5 -236.5q0 -110 62 -171.5t171 -61.5q130 0 213.5 92t83.5 235q0 113 -60.5 174.5t-170.5 61.5z
" />
    <glyph glyph-name="bn_isshar" unicode="&#x9fa;" horiz-adv-x="1024" 
d="M645 487q136 0 203 112t67 339l142 -47q0 -291 -106.5 -450.5t-301.5 -159.5q-218 0 -375 213q-160 217 -223 569q52 34 131 43q54 -290 176.5 -454.5t286.5 -164.5zM459 891q0 51 34.5 86t84.5 35q57 0 96 -41.5t39 -102.5q0 -51 -34 -84.5t-85 -33.5q-59 0 -97 40
t-38 101z" />
    <glyph glyph-name="uni200C" unicode="&#x200c;" 
 />
    <glyph glyph-name="uni200D" unicode="&#x200d;" 
 />
    <glyph glyph-name="endash" unicode="&#x2013;" horiz-adv-x="911" 
d="M836 496q-191 -27 -404 -21q-214 3 -375 37q3 69 17 150q78 -13 221 -23q147 -10 242 -10q153 0 317 14q0 -48 -18 -147z" />
    <glyph glyph-name="emdash" unicode="&#x2014;" horiz-adv-x="1484" 
d="M1407 483q-319 -46 -692 -43q-365 3 -658 60q3 68 17 149q217 -32 356 -39q169 -12 406 -12q269 0 589 33q0 -63 -18 -148z" />
    <glyph glyph-name="quoteleft" unicode="&#x2018;" horiz-adv-x="350" 
d="M131 993q-55 148 -78.5 263t-25.5 237q101 28 200 20q-15 -242 52 -505q-86 -18 -148 -15z" />
    <glyph glyph-name="quoteright" unicode="&#x2019;" horiz-adv-x="350" 
d="M115 1507q113 10 196 -10q0 -124 -20 -227q-21 -111 -76 -277q-75 3 -143 23q55 303 43 491z" />
    <glyph glyph-name="quotesinglbase" unicode="&#x201a;" horiz-adv-x="339" 
d="M80 188q99 9 199 -8q0 -119 -21 -227q-22 -110 -76 -275q-64 2 -145 23q56 285 43 487z" />
    <glyph glyph-name="quotedblleft" unicode="&#x201c;" horiz-adv-x="661" 
d="M131 993q-55 148 -78.5 263t-25.5 237q101 28 200 20q-15 -242 52 -505q-86 -18 -148 -15zM442 993q-55 148 -78.5 263t-25.5 237q101 28 201 20q-15 -245 51 -505q-86 -18 -148 -15z" />
    <glyph glyph-name="quotedblright" unicode="&#x201d;" horiz-adv-x="665" 
d="M115 1507q113 10 196 -10q0 -124 -20 -227q-21 -111 -76 -277q-75 3 -143 23q55 303 43 491zM430 1507q114 10 197 -10q0 -119 -21 -227q-21 -111 -76 -277q-75 3 -143 23q55 303 43 491z" />
    <glyph glyph-name="quotedblbase" unicode="&#x201e;" horiz-adv-x="647" 
d="M80 188q99 9 199 -8q0 -119 -21 -227q-22 -110 -76 -275q-64 2 -145 23q56 285 43 487zM387 188q99 9 199 -8q0 -119 -21 -227q-22 -110 -76 -275q-64 2 -145 23q56 285 43 487z" />
    <glyph glyph-name="dagger" unicode="&#x2020;" horiz-adv-x="972" 
d="M547 977q19 -281 16 -791q-6 -486 -6 -618q-77 -11 -137 -2q-13 613 -10 880q3 323 14 535q-54 0 -148 -4q-76 -6 -198 -21q-17 75 -15 107q0 8 9 63q37 2 129 -2q20 -2 223 -22q-23 262 -25 354q49 17 99 17q38 0 73 -9q-2 -41 -5.5 -110.5t-4.5 -96.5q-3 -77 -12 -159
q203 9 346 22q16 -76 14 -102q0 -27 -8 -68q-57 0 -127 6q-15 1 -227 21z" />
    <glyph glyph-name="daggerdbl" unicode="&#x2021;" horiz-adv-x="972" 
d="M557 -63q2 -37 5.5 -85t5.5 -80t3 -53q4 -96 2 -137q-42 -10 -88 -10q-34 0 -84 16q16 130 31 346q-112 -6 -350 -24q-13 62 -10 94q0 34 14 74q76 0 119 -2q40 -2 227 -19q-19 226 -22 465q-3 210 12 459q-159 -3 -344 -25q-17 75 -15 107q0 8 9 63q37 2 129 -2
q20 -2 223 -22q-23 262 -25 354q49 17 99 17q38 0 73 -9q-2 -41 -5.5 -110.5t-4.5 -96.5q-3 -77 -12 -159q203 9 346 22q16 -76 14 -102q0 -27 -8 -68q-115 0 -354 25q21 -231 24 -408q3 -167 -16 -512q54 3 172 13q111 9 182 12q9 -62 9 -90q3 -30 -13 -78q-44 3 -137 10
q-170 14 -211 15z" />
    <glyph glyph-name="bullet" unicode="&#x2022;" horiz-adv-x="518" 
d="M72 713q176 41 383 14q-8 -202 -31 -334q-194 -16 -338 2q-14 197 -14 318z" />
    <glyph glyph-name="ellipsis" unicode="&#x2026;" horiz-adv-x="1136" 
d="M86 184q135 28 242 9q-7 -127 -19 -207q-103 -11 -215 0v8q-1 9 -2 26.5t-2 38.5q-4 94 -4 125zM457 184q135 28 241 9q-8 -138 -18 -207q-103 -11 -215 0l-1 8q0 9 -1 26.5t-2 38.5q-4 94 -4 125zM829 184q135 28 242 9q-8 -138 -18 -207q-103 -11 -215 0v8
q-1 9 -2 26.5t-2 38.5q-5 117 -5 125z" />
    <glyph glyph-name="perthousand" unicode="&#x2030;" horiz-adv-x="2490" 
d="M1081 1610q89 -21 162 -88q-154 -384 -332 -750q-185 -379 -442 -840q-51 10 -133 72q231 429 418 832q167 359 327 774zM68 1083q0 217 105 347.5t282 130.5q136 0 213 -95t77 -262q0 -246 -100 -387q-102 -147 -276 -147q-139 0 -220 113t-81 300zM555 1141
q0 154 -33 227.5t-102 73.5q-74 0 -120 -91.5t-46 -242.5q0 -138 42.5 -229t109.5 -91q68 0 108.5 96.5t40.5 256.5zM1745 385q0 217 106 347t283 130q135 0 212 -94.5t77 -261.5q0 -244 -100 -388.5t-275 -144.5q-140 0 -221.5 112.5t-81.5 299.5zM973 385q0 217 106 347
t283 130q135 0 212 -94.5t77 -261.5q0 -244 -100 -388.5t-275 -144.5q-140 0 -221.5 112.5t-81.5 299.5zM2234 442q0 154 -33 227.5t-102 73.5q-75 0 -121.5 -91t-46.5 -242q0 -140 42.5 -230t109.5 -90q68 0 109.5 97.5t41.5 254.5zM1462 442q0 154 -33 227.5t-102 73.5
q-75 0 -121.5 -91t-46.5 -242q0 -140 42.5 -230t109.5 -90q68 0 109.5 97.5t41.5 254.5z" />
    <glyph glyph-name="guilsinglleft" unicode="&#x2039;" horiz-adv-x="569" 
d="M522 233q-30 -46 -59 -73t-72 -51q-245 192 -375 434q212 143 367 391q98 -58 137 -117q-156 -190 -313 -297q121 -154 315 -287z" />
    <glyph glyph-name="guilsinglright" unicode="&#x203a;" horiz-adv-x="569" 
d="M551 543q-124 -239 -373 -434q-80 43 -133 124q194 133 315 287q-157 103 -311 297q45 68 141 119q152 -243 361 -393z" />
    <glyph glyph-name="fraction" unicode="&#x2044;" horiz-adv-x="647" 
d="M616 1616q89 -21 162 -88q-154 -384 -332 -750q-181 -371 -442 -839q-30 6 -57 20t-76 51q231 429 418 832q167 359 327 774z" />
    <glyph glyph-name="foursuperior" unicode="&#x2074;" horiz-adv-x="751" 
d="M551 655q-16 -192 -16 -200q-50 -13 -95 -13q-16 1 -34.5 5t-20.5 4q-4 54 -4 124q0 74 2 97q-244 22 -356 41q-15 36 -25 82q130 193 193 325q76 154 137 350q77 0 180 -40q-118 -316 -299 -592q43 -10 57 -11q23 -5 121 -18q9 126 31 205q34 22 110 22q42 0 86 -8
q-31 -100 -51 -240q21 -1 74.5 -5.5t110.5 -8.5q-3 -78 -33 -129q-18 0 -168 10z" />
    <glyph glyph-name="Euro" unicode="&#x20ac;" horiz-adv-x="1103" 
d="M1044 354q-51 -225 -153 -330.5t-268 -105.5q-162 0 -267.5 116.5t-136.5 330.5q-129 3 -182 10q-11 95 -2 143q109 -8 172 -8v43q0 12 1.5 43t2.5 55q-106 0 -182 8q-10 90 0 144q60 -7 198 -10q47 266 185.5 420.5t330.5 154.5q313 0 304 -457q-48 -22 -91.5 -30.5
t-109.5 -10.5q12 184 -21.5 268.5t-119.5 84.5q-88 0 -157 -116t-95 -308q140 10 280 30q10 -70 -10 -131q-112 -18 -184 -26q-81 -9 -99 -10q-2 -18 -2 -80q0 -52 2 -68q121 8 297 33q10 -69 -10 -131q-163 -28 -276 -39q47 -311 217 -311q96 0 152 94t67 272
q88 -9 157 -78z" />
    <glyph glyph-name="uni20B9.rupee" unicode="&#x20b9;" horiz-adv-x="1077" 
d="M1012 31q-30 -30 -85.5 -59t-111.5 -42q-118 271 -197 414q-84 153 -178 287q-150 -55 -221 -72l-31 141q207 43 323 123t151 205q-353 -4 -564 12q0 93 17 146q238 -20 561 -17q-5 103 -47.5 171t-120.5 94q-204 0 -410 12q0 92 17 145q505 -35 1026 11q3 -28 0 -64
q-3 -35 -19 -78q-16 -1 -53.5 -4t-58.5 -4q-64 -3 -203 -12q94 -101 94 -262q5 1 105 8q70 3 135 10q3 -32 0 -63q-2 -24 -19 -80q-17 -1 -157 -11q-36 -2 -82 -6q-51 -189 -275 -325q199 -234 404 -680z" />
    <glyph glyph-name="uni20BA" unicode="&#x20ba;" horiz-adv-x="1118" 
d="M1083 623q-65 -326 -237 -461q-177 -142 -551 -166q-41 259 -68 561q-107 0 -186 8q-15 88 -2 144q132 -9 176 -9q0 8 -1.5 30.5t-2.5 41.5q-1 16 -2 31t-1.5 23.5t-0.5 15.5q-74 0 -174 8q-11 97 -2 145q22 -2 51 -3.5t44.5 -2.5t23.5 -2q18 -2 51 -2q-10 219 -2 416
q110 29 184 29q41 0 68 -7q-23 -224 -23 -436q130 8 309 33q10 -70 -10 -131q-166 -27 -299 -39q0 -112 2 -145q175 13 311 34q4 -97 -10 -133q-178 -31 -295 -41q11 -162 39 -362q195 20 300.5 138.5t142.5 354.5q98 -14 165 -73z" />
    <glyph glyph-name="uni20BD" unicode="&#x20bd;" horiz-adv-x="1204" 
d="M887 1071q0 113 -69.5 174.5t-196.5 61.5q-53 0 -119 -19q-32 -276 -35 -569q207 26 313.5 116t106.5 236zM475 289q3 -49 11.5 -162t13.5 -184q-112 -4 -191 10q0 1 -1 14.5t-3.5 46t-5.5 70.5q-14 145 -16 197q-109 -3 -224 10q-11 100 -2 145q125 -9 215 -12
q-8 126 -8 141q-74 2 -203 13q-12 81 0 139q100 -10 197 -10q-6 109 -6 319q0 169 14 344q184 74 363 74q231 0 361 -97.5t130 -269.5q0 -207 -172.5 -340t-480.5 -164q0 -34 2 -75v-72q87 2 299 31q4 -33 2 -71t-10 -62q-182 -27 -285 -35z" />
    <glyph glyph-name="uni2113" unicode="&#x2113;" horiz-adv-x="1247" 
d="M836 1405q-133 0 -222 -191q-90 -194 -90 -477q0 -136 15 -235q194 35 331 215q138 181 138 401q0 136 -45 211.5t-127 75.5zM1178 141q-149 -168 -387 -168q-162 0 -282 96.5t-177 274.5q-157 20 -303 105q22 105 77 167q99 -69 189 -96q-8 57 -8 150q0 384 157 635
q156 249 408 249q167 0 268 -113.5t101 -299.5q3 -293 -183 -520q-188 -229 -463 -275q72 -221 248 -221q141 0 240 147q34 -18 65.5 -54.5t49.5 -76.5z" />
    <glyph glyph-name="trademark" unicode="&#x2122;" horiz-adv-x="1615" 
d="M442 729q-78 -16 -159 -16q3 140 -7 352q-9 197 -30 346q-40 -3 -111 -12q-27 -3 -57 -6t-35 -4q-20 50 -23 124q169 34 303 47t312 13q10 -22 12 -72q0 -38 -8 -71q-28 0 -92.5 -2t-106.5 -3q17 -226 17 -401q0 -132 -15 -295zM1507 678q-83 -29 -178 -29q20 350 23 588
q-107 -183 -181 -287q-46 -12 -94 -12q-95 219 -172 352v-39q0 -272 56 -522q-18 -6 -70 -11t-90 -5q-24 164 -39 391q-15 225 -12 401q31 23 81.5 42t86.5 24q145 -194 241 -441q125 201 199 433q61 -10 141 -41q6 -117 10 -392q2 -153 -2 -452z" />
    <glyph glyph-name="uni2126" unicode="&#x2126;" horiz-adv-x="1433" 
d="M1403 150q16 -104 6 -177q-205 16 -315 19q-126 3 -289 -6q-10 92 -10 139q168 199 240.5 366t72.5 349q0 225 -109 364q-112 139 -286 139q-170 0 -279 -139q-108 -141 -108 -368q0 -181 72.5 -347t240.5 -362q0 -49 -10 -141q-181 10 -283 8q-107 -3 -319 -19
q-5 100 8 177q199 16 430 -5q-369 299 -369 703q0 290 172 471q171 180 451 180t448 -180q170 -182 170 -473q0 -399 -368 -703q213 21 434 5z" />
    <glyph glyph-name="estimated" unicode="&#x212e;" horiz-adv-x="1431" 
d="M1341 561v-14h-1015q-9 0 -9 -6v-308q0 -21 15 -36q75 -79 174.5 -121.5t210.5 -42.5q118 0 223 48t180 136h90q-93 -105 -221 -162t-274 -57q-262 0 -443 166q-184 163 -184 397q0 233 184 402q183 165 443 165q259 0 442 -165q184 -169 184 -402zM1112 586v309
q0 23 -16 39q-154 160 -379 160q-110 0 -209.5 -43t-173.5 -123q-17 -14 -17 -39v-303q0 -8 9 -8h780q6 0 6 8z" />
    <glyph glyph-name="partialdiff" unicode="&#x2202;" horiz-adv-x="1036" 
d="M442 791q197 0 322 -187v17q0 287 -84 466q-82 175 -221 175q-79 0 -124.5 -66t-62.5 -207q-110 14 -192 62q58 366 364 366q249 0 394 -219q145 -222 145 -596q0 -331 -119 -516.5t-334 -185.5q-208 0 -329 145q-125 143 -125 361q0 168 102 276q103 109 264 109z
M748 399q-35 112 -98.5 176t-137.5 64q-98 0 -155.5 -81t-57.5 -220q0 -123 59 -205t150 -82q88 0 151.5 91.5t88.5 256.5z" />
    <glyph glyph-name="uni2206" unicode="&#x2206;" horiz-adv-x="1312" 
d="M801 1608q164 -324 303 -770q133 -440 188 -826q-667 -68 -1280 31q125 453 269 852q135 372 309 737q149 -8 211 -24zM684 1391q-250 -549 -424 -1205q188 -23 381 -26q212 -3 397 12q-106 627 -354 1219z" />
    <glyph glyph-name="product" unicode="&#x220f;" horiz-adv-x="1210" 
d="M1110 -90q-105 0 -217 22q4 326 -4 674q-7 297 -27 703q-255 0 -520 -17q-15 -258 -12 -633q0 -351 16 -714q-76 -23 -196 -19q-25 421 -35 762q-14 372 -17 752q410 58 971 43v-2q20 -423 31 -826q10 -495 10 -745z" />
    <glyph glyph-name="summation" unicode="&#x2211;" horiz-adv-x="978" 
d="M971 -12q-178 -30 -422 -51q-249 -21 -455 -21q-18 99 -18 139q142 174 270 351q93 132 205 329q-366 302 -547 531q-7 71 -4 145q263 49 469 72q200 19 387 22q0 -76 -18 -182q-303 0 -621 -43q205 -244 545 -512q-89 -168 -195 -326.5t-258 -353.5q341 10 645 76
q11 -31 16 -84.5t1 -91.5z" />
    <glyph glyph-name="minus" unicode="&#x2212;" horiz-adv-x="813" 
d="M63 594q0 54 13 143q311 -39 684 -4q0 -69 -17 -139q-155 -20 -337 -20t-343 20z" />
    <glyph glyph-name="uni2215" unicode="&#x2215;" horiz-adv-x="647" 
d="M616 1616q89 -21 162 -88q-154 -384 -332 -750q-181 -371 -442 -839q-30 6 -57 20t-76 51q231 429 418 832q167 359 327 774z" />
    <glyph glyph-name="uni2219" unicode="&#x2219;" horiz-adv-x="430" 
d="M47 803q162 39 336 14q-9 -142 -12 -190q-6 -53 -15 -99q-158 -20 -297 2q0 6 -6 105q-6 95 -6 168z" />
    <glyph glyph-name="radical" unicode="&#x221a;" horiz-adv-x="1015" 
d="M1030 1522q-56 -473 -166 -854q-117 -397 -327 -842q-73 -23 -160 -23q-132 285 -197 486q-65 200 -92 420q105 45 205 53q14 -163 57 -330q43 -173 121 -379q156 388 234 723q79 340 120 787q95 -3 205 -41z" />
    <glyph glyph-name="infinity" unicode="&#x221e;" horiz-adv-x="1275" 
d="M735 721q68 -103 116.5 -142.5t104.5 -39.5q60 0 95.5 48t35.5 130q0 92 -39.5 142t-111.5 50q-54 -2 -103 -47t-98 -141zM186 707q0 -80 38 -127t104 -48q63 -2 114.5 36t98.5 122q-71 113 -115.5 152t-99.5 39q-62 0 -101 -48t-39 -126zM1225 721q0 -147 -84 -248
q-82 -98 -213 -98q-155 0 -289 170q-114 -176 -289 -176q-134 0 -216.5 93t-82.5 243q0 149 82 243q79 94 203 94q83 0 152.5 -41.5t148.5 -140.5q67 108 134.5 155.5t152.5 47.5q133 0 217 -96t84 -246z" />
    <glyph glyph-name="integral" unicode="&#x222b;" horiz-adv-x="782" 
d="M451 606q45 -201 53 -303q9 -103 -4 -217q-27 -403 -312 -403q-109 0 -173 73t-64 193q0 64 24 117q78 0 164 -27q-16 -43 -16 -100q0 -55 22.5 -86t61.5 -31q60 0 88.5 64t28.5 198q0 100 -15 205q-16 111 -61 293q-41 167 -53 247q-12 82 -15 160q-4 232 86.5 362.5
t255.5 135.5q118 1 188 -71t72 -191q0 -75 -24 -121q-78 0 -166 24q16 40 16 103q0 54 -25.5 85.5t-68.5 31.5q-127 -3 -127 -293q0 -93 12 -187q13 -101 52 -262z" />
    <glyph glyph-name="approxequal" unicode="&#x2248;" horiz-adv-x="794" 
d="M416 571q86 -36 131 -36q101 0 92 96q57 3 109 -19q8 -99 -40.5 -156t-140.5 -57q-71 0 -182 47q-83 33 -117 33q-49 0 -70.5 -22t-19.5 -72q-49 -4 -104 16q-8 99 40 156t138 57q56 0 164 -43zM414 879q88 -37 131 -37q101 0 92 96q59 3 108 -18q8 -99 -40 -156
t-140 -57q-71 0 -182 47q-81 32 -117 32q-49 0 -70.5 -22t-19.5 -72q-47 -3 -104 17q-8 99 40 156t138 57q56 0 164 -43z" />
    <glyph glyph-name="notequal" unicode="&#x2260;" horiz-adv-x="813" 
d="M741 592q0 -73 -16 -139q-159 -21 -356 -21q-36 -55 -129 -188q-68 20 -125 61q4 6 15.5 23t32.5 47.5t42 62.5q-20 1 -160 15q0 61 12 143q121 -15 236 -18q76 130 78 135q-148 3 -301 20q0 61 12 144q196 -24 364 -21l6.5 13l10 20t12.5 26q46 92 60 123
q74 -20 131 -55q-17 -38 -35 -74.5t-23 -48.5q39 3 88 7t70 5q0 -62 -18 -139q-18 -2 -213 -18q-5 -12 -21.5 -40t-24.5 -44q-8 -13 -16.5 -28.5t-11.5 -21t-4 -6.5q122 2 284 17z" />
    <glyph glyph-name="lessequal" unicode="&#x2264;" horiz-adv-x="811" 
d="M745 487q-11 -70 -43 -129q-180 69 -353 163t-290 186l4 92q122 92 291 182t353 164q34 -83 43 -127q-289 -123 -506 -268q198 -135 501 -263zM731 164q-155 -23 -337 -23t-343 23q0 60 12 143q311 -39 687 -4q0 -57 -19 -139z" />
    <glyph glyph-name="greaterequal" unicode="&#x2265;" horiz-adv-x="811" 
d="M90 354q-25 66 -35 131q277 105 516 246q-215 153 -493 285q14 67 51 125q169 -70 338 -172q180 -108 289 -201l-8 -92q-257 -178 -658 -322zM733 164q-155 -23 -337 -23t-343 23q0 70 15 143q308 -39 684 -4q0 -57 -19 -139z" />
    <glyph glyph-name="lozenge" unicode="&#x25ca;" horiz-adv-x="872" 
d="M827 801q-151 -395 -346 -643l-92 4q-194 263 -346 641q80 207 164 368q75 141 180 277l94 -4q189 -252 346 -643zM188 807q116 -263 250 -465q115 165 244 457q-116 263 -250 465q-115 -165 -244 -457z" />
    <glyph glyph-name="uni25CC" unicode="&#x25cc;" horiz-adv-x="1480" 
d="M739 1055q-39 0 -60.5 21.5t-21.5 62.5q0 42 21.5 65t60.5 23t61.5 -23.5t22.5 -64.5q0 -39 -21.5 -61.5t-62.5 -22.5zM1016 979q-38 0 -61 23t-23 61t23 62t61 24t62 -24t24 -62t-24 -61t-62 -23zM459 979q-37 0 -59.5 23t-22.5 61t22.5 62t59.5 24q38 0 62 -24t24 -62
t-24 -61t-62 -23zM262 774q-37 0 -61.5 25.5t-24.5 62.5t24 60.5t62 23.5q37 0 58.5 -22.5t21.5 -63.5q0 -37 -22.5 -61.5t-57.5 -24.5zM1221 774q-37 0 -61.5 25.5t-24.5 62.5q0 35 24.5 59.5t61.5 24.5t58 -23t21 -61q0 -41 -21 -64.5t-58 -23.5zM1294 504q-38 0 -61 24
t-23 62t23 61t61 23t61 -23t23 -61t-23 -62t-61 -24zM188 504q-38 0 -62 24t-24 62t24 61t62 23q39 0 60.5 -21.5t21.5 -62.5t-21.5 -63.5t-60.5 -22.5zM1221 229q-37 0 -61.5 25t-24.5 63q0 37 24.5 61.5t61.5 24.5t58 -22.5t21 -63.5t-21 -64.5t-58 -23.5zM262 229
q-38 0 -62 25t-24 63t24 62t62 24q36 0 58 -23.5t22 -62.5q0 -41 -21.5 -64.5t-58.5 -23.5zM1016 31q-38 0 -61 22.5t-23 59.5q0 41 22.5 64.5t61.5 23.5q38 0 62 -25t24 -63q0 -37 -24 -59.5t-62 -22.5zM459 31q-37 0 -59.5 22.5t-22.5 59.5q0 39 23 63.5t59 24.5
q38 0 62 -25t24 -63q0 -37 -24 -59.5t-62 -22.5zM739 -45q-38 0 -60 23t-22 61q0 41 21.5 63.5t60.5 22.5t61.5 -22.5t22.5 -63.5q0 -38 -23 -61t-61 -23z" />
    <glyph glyph-name="commaaccent" unicode="&#xf6c3;" horiz-adv-x="532" 
d="M207 -156q118 15 164 9q9 -193 -78 -396q-75 0 -133 21q56 180 47 366z" />
    <glyph glyph-name="fi" unicode="&#xfb01;" horiz-adv-x="1130" 
d="M995 1495q70 -3 117 -27q-45 -96 -76 -239q-69 -11 -180 -8q-12 46 -12 92q0 96 28 157q55 25 123 25zM807 993q64 37 147 37q41 0 82 -10q-41 -187 -63 -485q-20 -273 -10 -562q-41 -24 -121 -24q-24 0 -54 6q-32 216 -26 528q3 287 45 510zM387 768q9 -192 37 -412
q26 -204 65 -360q-112 -39 -225 -39q-27 119 -51 377q-26 244 -29 459q-115 27 -133 34q0 27 8 65.5t15 45.5q4 0 8 -0.5l12 -1.5t15 -2q41 -6 77 -10q24 565 338 565q108 0 170 -69t62 -185q0 -68 -23 -119q-71 0 -166 27q17 80 17 102q0 48 -16.5 75.5t-45.5 27.5
q-67 0 -103 -111.5t-36 -318.5v-7q31 -2 129 -2q91 0 174 13q0 -60 -14 -146q-47 -12 -156 -12q-15 0 -31.5 0.5t-44.5 1.5t-53 2z" />
    <glyph glyph-name="fl" unicode="&#xfb02;" horiz-adv-x="1153" 
d="M1024 -102q-90 -23 -188 -23q-65 905 -33 1608q56 37 135 37q52 0 111 -15q-31 -310 -37 -745q-6 -451 12 -862zM387 768q9 -192 37 -412q26 -204 65 -360q-112 -39 -225 -39q-27 119 -51 377q-26 244 -29 459q-115 27 -133 34q0 27 8 65.5t15 45.5q4 0 8 -0.5l12 -1.5
t15 -2q41 -6 77 -10q24 565 332 565q105 0 166 -69t61 -185q0 -66 -24 -119q-75 0 -164 27q16 75 16 102q0 45 -15.5 74t-41.5 29q-63 0 -98 -112t-35 -318v-7q31 -2 129 -2q91 0 174 13q0 -60 -14 -146q-47 -12 -156 -12q-15 0 -31.5 0.5t-44.5 1.5t-53 2z" />
    <glyph glyph-name="caron.alt" horiz-adv-x="532" 
d="M397 1513q-12 -134 -38.5 -238t-77.5 -212q-77 3 -146 22q57 232 60 443q103 9 202 -15z" />
    <glyph glyph-name="revcommaaccent" horiz-adv-x="532" 
d="M336 1198q-94 -12 -176 0q-9 202 86 410q70 -3 135 -21q-56 -204 -45 -389z" />
    <glyph glyph-name="bn_ukaar.alt" 
d="M485 -666l-245 201l-11 10q-44 -84 -113.5 -128t-156.5 -44q-110 0 -176 63t-66 167q0 102 63.5 167.5t160.5 65.5q85 0 174 -47q96 -51 262 -186l192 -152q-26 -62 -84 -117zM-166 -399q0 -38 30 -63t77 -25q51 0 95 31t73 87q-97 60 -168 60q-49 0 -78 -24.5t-29 -65.5
z" />
    <glyph glyph-name="bn_uukaar.alt" 
d="M440 -711l-231 174q-103 -100 -229 -100q-110 0 -176 58.5t-66 156.5q0 242 428 283q17 -70 14 -131q-313 -34 -313 -154q0 -32 24.5 -51t63.5 -19q104 0 235 119l332 -219q-27 -62 -82 -117z" />
    <glyph glyph-name="bn_rikaar.alt" 
d="M160 -729l-396 287v41l322 241q58 -51 84 -114l-211 -154l279 -182q-25 -66 -78 -119z" />
    <glyph glyph-name="bn_rrikaar.alt" 
d="M-35 -582l-78 -73l224 -152q-20 -56 -72 -108l-322 239v39l142 131l-86 64v41l331 249q51 -48 84 -116l-221 -160l277 -182q-25 -68 -76 -119z" />
    <glyph glyph-name="bn_ekaar.init" horiz-adv-x="630" 
d="M545 166q42 -25 78 -79t36 -93q-91 -139 -227 -139q-152 0 -246 163q-96 166 -96 426q0 346 132.5 539t408.5 248q10 -17 10 -74q0 -54 -10 -84q-189 -35 -273 -190t-84 -469q0 -198 32 -313t87 -115q35 0 68.5 40t83.5 140z" />
    <glyph glyph-name="bn_aikaar.init" horiz-adv-x="630" 
d="M659 -6q-91 -139 -227 -139q-152 0 -246 163q-96 166 -96 426q0 313 107.5 499.5t330.5 260.5q-23 117 -59.5 164t-103.5 47q-43 0 -117 -18q-92 -19 -127 -19q-83 0 -150 48t-129 155q36 44 115 86q43 -76 84 -106.5t94 -30.5q38 0 105 16q94 21 125 21q104 0 172.5 -87
t93.5 -249q10 -17 10 -74q0 -54 -10 -84q-189 -35 -273 -190t-84 -469q0 -198 32 -313t87 -115q35 0 68.5 40t83.5 140q42 -25 78 -79t36 -93z" />
    <glyph glyph-name="bn_k_ka" horiz-adv-x="1273" 
d="M1038 494q78 53 78 133q0 176 -334 225q-6 -74 -6 -234q154 -42 262 -124zM246 598q110 -44 131 -53q7 -4 24 -13.5t25 -13.5q95 54 195 98q3 106 12 228q-86 -37 -199.5 -109t-187.5 -137zM776 434q3 -394 41 -592q-65 -32 -184 -32q-40 101 -135 172q-91 68 -328 137
q-69 83 -72 172q80 73 211 155q-60 19 -102 29q-71 17 -72 17q-61 72 -72 172q79 85 250 194t334 178q0 4 0.5 10t1.5 16.5t2 20.5q1 14 2.5 30.5t1.5 23.5h-30q-311 0 -625 -64q-14 40 -14 86q0 41 14 72q285 72 633 72q165 0 350 -19q187 -22 291 -53q14 -40 14 -70
q0 -42 -14 -88q-225 47 -473 60q-8 -99 -8 -101q198 -44 319 -162q123 -120 123 -268q0 -146 -78 -237q45 -74 45 -154q0 -93 -50 -173.5t-130 -117.5q-37 11 -72 49.5t-53 93.5q84 20 136 68t52 105q0 70 -71 116.5t-238 81.5zM621 4q-7 77 -7 246q0 143 2 184
q-142 -65 -337 -215q166 -78 233 -123q70 -51 109 -92z" />
    <glyph glyph-name="bn_k_tta" horiz-adv-x="1302" 
d="M973 350q106 0 173.5 -52t67.5 -136q0 -145 -178 -271q-179 -124 -372 -124q-132 0 -218 63q-88 64 -88 158q0 55 24.5 107.5t92.5 142.5q-146 253 -360 288q-76 94 -84 203q110 97 282 189q170 89 363 155q2 14 2 64h-39q-322 0 -639 -64q-14 31 -14 86q0 41 14 72
q301 72 647 72q291 0 545 -48q-51 195 -209 195q-56 0 -246 -25q-183 -24 -239 -24q-214 0 -336 219q35 50 110 98q54 -89 110.5 -126.5t127.5 -37.5q43 0 207 21q173 27 264 27q124 0 208.5 -98.5t113.5 -272.5q10 -42 10 -78t-10 -80q-250 49 -488 60q4 -33 6 -70
q195 -38 309 -143q117 -108 117 -242q0 -68 -31.5 -140t-82.5 -116q-48 2 -102.5 33t-78.5 73q90 43 137.5 89t47.5 90q0 61 -83.5 104.5t-232.5 62.5q-12 -229 -84 -452q-35 -116 -133 -287q-67 -122 -67 -160q0 -41 30.5 -64.5t81.5 -23.5q115 0 246 84q129 82 129 166
q0 31 -21.5 47.5t-60.5 16.5q-78 0 -143 -74q-17 24 -17 55q0 67 33 111q64 57 158 57zM240 647q192 -97 295 -307q105 224 131 534q-98 -32 -215.5 -95t-210.5 -132z" />
    <glyph glyph-name="bn_k_tt_ra" horiz-adv-x="1302" 
d="M240 659q183 -85 288 -299q110 209 136 519q-99 -32 -216 -93t-208 -127zM1051 -522q-73 -27 -148 -27q-72 72 -88 80q-50 29 -115 29q-51 0 -176 -23q-104 -24 -182 -24q-123 0 -195.5 67t-72.5 180q0 97 61 222q73 0 123 -33q-37 -75 -37 -146q0 -60 34.5 -92.5
t94.5 -32.5q37 0 144 23q117 27 182 27q131 0 219 -125q18 214 20 284q-143 -57 -256 -57q-125 0 -213 64q-90 66 -90 157q0 102 107 215q-134 241 -348 277q-76 94 -84 198q126 103 280 181q186 94 363 149q2 14 2 66h-37q-322 0 -639 -64q-14 31 -14 88q0 42 14 70
q301 72 647 72q291 0 545 -48q-26 102 -79 148.5t-140 46.5q-40 0 -225 -25q-157 -26 -244 -26q-212 0 -334 215q42 60 109 100q53 -87 109 -125.5t126 -38.5q73 0 215 25q170 27 246 27q131 0 214 -94t114 -277q10 -49 10 -82q0 -34 -10 -76q-255 49 -486 60
q1 -21 2.5 -42.5t1.5 -29.5q194 -38 310 -139.5t116 -231.5q0 -64 -30.5 -133t-79.5 -113q-50 2 -104 33.5t-79 73.5q93 43 137 83t44 83q0 59 -83.5 101t-234.5 61q-15 -254 -102 -465q-37 -87 -107 -215q-44 -74 -57.5 -108t-13.5 -60q0 -38 30.5 -61t81.5 -23
q111 0 244 80q129 80 129 157q0 30 -22.5 47t-61.5 17q-78 0 -143 -74q-15 24 -15 57q0 58 31 111q70 57 158 57q106 0 173.5 -52t67.5 -136q0 -115 -137 -227q-9 -339 -22 -506z" />
    <glyph glyph-name="bn_k_ta" horiz-adv-x="1624" 
d="M1624 1073q-132 27 -375 45q-257 19 -461 19q-180 0 -426 -17q-199 -16 -362 -47q-14 40 -14 86q0 41 14 72q114 31 350 53q233 19 449 19q237 0 477 -21q237 -21 348 -51q14 -22 14 -72q0 -46 -14 -86zM1163 279q0 -132 -101 -215.5t-265 -83.5q-281 0 -498 251
q-221 256 -285 639q39 33 123 56q78 -365 262 -570q185 -209 414 -209q97 0 153 45t56 121q0 64 -45 109q-75 -105 -176 -105q-75 0 -127.5 51t-52.5 126q0 74 49.5 124t122.5 50q81 0 153 -66q47 67 47 133q0 60 -44 93.5t-120 33.5q-129 0 -219 -78q-90 -81 -90 -190
q0 -37 10 -64q-39 0 -89 20.5t-79 49.5q-3 160 121 272q126 111 305 111q127 0 220 -62t116 -159q86 98 197 98q104 0 169.5 -95t65.5 -247q0 -139 -54.5 -222t-145.5 -83q-97 0 -139 88q1 47 17.5 100t39.5 88q13 -53 40 -83.5t58 -30.5q72 0 72 117q0 82 -42 135t-108 53
q-64 0 -130 -52.5t-101 -135.5q100 -90 100 -213zM713 508q0 -29 19 -47.5t50 -18.5q61 0 115 76q-50 59 -109 62q-34 0 -54.5 -20t-20.5 -52z" />
    <glyph glyph-name="bn_k_t_ba" horiz-adv-x="1624" 
d="M1624 1073q-132 27 -375 45q-257 19 -461 19q-180 0 -426 -17q-199 -16 -362 -47q-14 40 -14 86q0 41 14 72q114 31 350 53q233 19 449 19q237 0 477 -21q237 -21 348 -51q14 -22 14 -72q0 -46 -14 -86zM936 -207q0 -172 33 -262q-68 -36 -185 -27q-118 170 -450 230
q-67 90 -64 186q84 64 250 129q-189 103 -323 322q-136 220 -183 499q39 33 123 56q78 -365 262 -570q185 -209 414 -209q97 0 153 45t56 121q0 64 -45 109q-75 -105 -176 -105q-75 0 -127.5 51t-52.5 126q0 74 49.5 124t122.5 50q81 0 153 -66q47 67 47 133q0 60 -44 93.5
t-120 33.5q-129 0 -219 -78q-90 -81 -90 -190q0 -37 10 -64q-39 0 -89 20.5t-79 49.5q-3 160 121 272q126 111 305 111q127 0 220 -62t116 -159q86 98 197 98q104 0 169.5 -95t65.5 -247q0 -136 -56 -220.5t-144 -84.5q-44 0 -81.5 23.5t-57.5 64.5q1 47 17.5 100t39.5 88
q36 -114 98 -114q32 0 52 31.5t20 85.5q0 82 -42 135t-108 53q-64 0 -130 -52.5t-101 -135.5q100 -90 100 -213q0 -95 -56 -169t-153 -106q-18 -130 -18 -211zM713 508q0 -29 19 -47.5t50 -18.5q61 0 115 76q-50 59 -109 62q-34 0 -54.5 -20t-20.5 -52zM465 -164
q119 -50 191 -92.5t116 -89.5q3 130 35 317q-198 -52 -342 -135z" />
    <glyph glyph-name="bn_k_t_ra" horiz-adv-x="1624" 
d="M1624 1073q-132 27 -375 45q-257 19 -461 19q-180 0 -426 -17q-199 -16 -362 -47q-14 40 -14 86q0 41 14 72q114 31 350 53q233 19 449 19q237 0 477 -21q237 -21 348 -51q14 -22 14 -72q0 -46 -14 -86zM713 508q0 -29 19 -47.5t50 -18.5q61 0 115 76q-50 59 -109 62
q-34 0 -54.5 -20t-20.5 -52zM989 -385q-73 -27 -147 -27q-72 72 -88 80q-50 29 -115 29q-51 0 -176 -23q-104 -24 -182 -24q-123 0 -196 67.5t-73 180.5q0 98 62 219q73 0 123 -33q-37 -81 -37 -143q0 -60 34.5 -92.5t94.5 -32.5q40 0 143 22q117 27 182 27q135 0 220 -127
q11 92 14 244q-10 -2 -51 -2q-281 0 -498 251q-221 256 -285 639q39 33 123 56q78 -365 262 -570q185 -209 414 -209q97 0 153 45t56 121q0 64 -45 109q-75 -105 -176 -105q-75 0 -127.5 51t-52.5 126q0 74 49.5 124t122.5 50q81 0 153 -66q47 67 47 133q0 60 -44 93.5
t-120 33.5q-129 0 -219 -78q-90 -81 -90 -190q0 -37 10 -64q-39 0 -89 20.5t-79 49.5q-3 160 121 272q126 111 305 111q127 0 220 -62t116 -159q86 98 197 98q104 0 169.5 -95t65.5 -247q0 -136 -56 -220.5t-144 -84.5q-44 0 -81.5 23.5t-57.5 64.5q1 47 17.5 100t39.5 88
q36 -114 98 -114q32 0 52 31.5t20 85.5q0 82 -42 135t-108 53q-64 0 -130 -52.5t-101 -135.5q100 -90 100 -213q0 -80 -41.5 -148t-115.5 -106q0 -16 -9 -256q-1 -30 -4 -82t-4 -72z" />
    <glyph glyph-name="bn_k_na" horiz-adv-x="1273" 
d="M616 180q-2 35 -2 166q0 254 15 471q-99 -47 -203.5 -120t-179.5 -146q233 -121 370 -371zM414 -137q9 -85 -8 -170q-8 -8 -39 -15.5t-62 -7.5q-119 0 -197.5 80t-78.5 201q0 106 72 176t182 70q88 0 173 -51.5t148 -143.5q-184 356 -467 426q-74 95 -82 207
q93 108 251.5 215t338.5 186q4 18 6 51q0 30 4 50h-30q-311 0 -625 -64q-14 40 -14 86q0 41 14 72q285 72 633 72q165 0 350 -19q187 -22 291 -53q14 -40 14 -70q0 -42 -14 -88q-226 48 -475 60q0 -6 -0.5 -13.5t-1.5 -20t-2 -24.5l-2 -20t-1.5 -15.5t-0.5 -9.5
q196 -47 315 -166q121 -121 121 -266q0 -98 -51 -187t-136 -139q-39 11 -75.5 49t-59.5 93q94 32 149.5 89t55.5 120q0 75 -85.5 129t-244.5 79q-4 -102 -4 -245q0 -240 19 -490q15 -245 49 -397q-79 -27 -195 -27q0 16 -4 33q-18 133 -125 234q-108 102 -229 102
q-67 0 -106.5 -29.5t-39.5 -79.5q0 -47 37.5 -74.5t100.5 -27.5q74 0 131 33z" />
    <glyph glyph-name="bn_k_ba" horiz-adv-x="1273" 
d="M776 516q0 -454 41 -674q-65 -32 -184 -32q-40 101 -135 172q-91 68 -328 137q-69 83 -72 172q80 73 211 155q-60 19 -102 29q-71 17 -72 17q-61 72 -72 172q79 85 250 194t334 178q0 4 0.5 10t1.5 16.5t2 20.5q1 14 2.5 30.5t1.5 23.5h-30q-311 0 -625 -64
q-14 40 -14 86q0 41 14 72q285 72 633 72q165 0 350 -19q187 -22 291 -53q14 -40 14 -70q0 -42 -14 -88q-225 47 -473 60q-8 -99 -8 -101q198 -44 319 -162q123 -120 123 -268q0 -94 -35.5 -171t-95.5 -112q-38 8 -76.5 47t-58.5 93q69 25 108 69t39 99q0 176 -334 225
q-6 -100 -6 -336zM246 598q110 -44 131 -53q7 -4 24 -13.5t25 -13.5q95 54 195 98q3 106 12 228q-86 -37 -199.5 -109t-187.5 -137zM621 4q-7 77 -7 246q0 143 2 184q-142 -65 -337 -215q166 -78 233 -123q70 -51 109 -92z" />
    <glyph glyph-name="bn_k_ma" horiz-adv-x="1724" 
d="M735 780q-2 -55 -2 -248q0 -83 12 -227t27 -246q281 -155 395 -288q-57 260 -57 626q0 432 51 746q-185 8 -301 8q-79 0 -102 -2q-13 -149 -15 -193q152 -54 241 -150t89 -206q0 -93 -50 -173.5t-130 -119.5q-36 11 -68 46.5t-49 84.5q80 20 131 69.5t51 108.5
q0 60 -51 97.5t-172 66.5zM238 573q238 -103 333 -198q2 166 13 401q-64 -24 -160.5 -81t-185.5 -122zM1405 -412q-71 -47 -184 -47q0 1 -1 5t-1 5q-62 109 -162 187q-114 87 -322 186q-35 -72 -97 -113.5t-134 -41.5q-105 0 -177.5 72t-72.5 177q0 100 59.5 164t151.5 64
q35 0 94 -19q-55 84 -151 139.5t-269 98.5q-62 74 -65 180q93 86 241 176q162 98 281 142q3 27 6 57q1 6 4 47.5t6 77.5q-330 -16 -612 -72q-14 40 -14 86q0 44 14 72q342 86 858 86q530 0 866 -86q13 -23 13 -72t-13 -86q-218 43 -421 57q-16 -174 -19 -270
q-6 -114 -6 -274q0 -219 37 -494q34 -276 90 -504zM371 39q0 -43 25.5 -67.5t72.5 -24.5q97 0 117 110q-47 78 -125 78q-38 0 -64 -27.5t-26 -68.5z" />
    <glyph glyph-name="bn_k_ra" horiz-adv-x="1501" 
d="M1501 1073q-148 30 -342 47q-220 19 -414 19q-187 0 -401 -19q-184 -16 -344 -47q-14 40 -14 84q0 46 14 74q121 30 344 53q206 21 406 21q202 0 413 -21q224 -23 338 -53q15 -30 15 -74q0 -41 -15 -84zM948 -156q-64 -22 -153 -22q-7 14 -21 41q-13 26 -39 63
q-40 49 -108 49q-59 0 -160 -34q-123 -39 -191 -39q-100 0 -160.5 65t-60.5 174q0 113 66 258q80 -3 135 -28q-49 -81 -49 -174q0 -109 106 -109q39 0 138 31q99 35 155 35q62 0 104.5 -38t73.5 -122q52 336 52 782q0 53 -24.5 84t-63.5 31q-83 0 -170 -100
q-91 -105 -91 -193t84 -88q62 0 121 59q6 -30 6 -43q0 -79 -30 -131q-53 -43 -136 -43q-100 0 -162.5 61t-62.5 160q0 156 137 299q139 142 285 142q108 0 184 -82t76 -209v-47q47 72 108.5 110.5t127.5 38.5q104 0 169.5 -96t65.5 -246q0 -139 -56 -223t-147 -84
q-45 0 -82 24t-57 66q1 46 17.5 98.5t40.5 90.5q17 -55 43 -86t55 -31q33 0 52.5 32t19.5 87q0 82 -42 134t-108 52q-57 0 -114.5 -39.5t-94.5 -105.5q-10 -424 -39 -654z" />
    <glyph glyph-name="bn_k_ra.alt01" horiz-adv-x="1380" 
d="M721 203v143q0 268 14 471q-99 -47 -203.5 -120t-179.5 -146q259 -126 369 -348zM940 -412q-73 -28 -188 -28q-31 34 -48.5 51.5t-22 20.5t-15.5 10q-54 26 -117 26q-41 0 -131 -10q-86 -12 -133 -12q-123 0 -195 64t-72 173q0 98 62 219q71 0 125 -32q-39 -76 -39 -144
q0 -54 33.5 -84t93.5 -30q28 0 102 10q82 12 129 12q131 0 215 -117q-9 102 -12 215q-49 190 -176 319t-307 177q-74 95 -82 207q93 108 251.5 215t338.5 186q4 19 6 54q1 10 2 20.5t1.5 16.5t0.5 10h-84q-349 0 -678 -64q-14 40 -14 86q0 41 14 72q291 72 686 72
q184 0 385 -19q204 -23 309 -53q15 -43 15 -70q0 -39 -15 -88q-222 45 -475 57q0 -7 -1.5 -23t-2.5 -30q-1 -10 -2 -20.5t-1.5 -16.5t-0.5 -10q196 -47 315 -166q121 -121 121 -266q0 -98 -50.5 -187.5t-135.5 -138.5q-39 11 -75.5 49t-59.5 93q94 32 149.5 89t55.5 120
q0 75 -85.5 129t-244.5 79q-4 -102 -4 -245q0 -701 57 -998z" />
    </font>
</defs>
</svg>
