<?xml version="1.0" standalone="no"?>
<!DOCTYPE svg PUBLIC "-//W3C//DTD SVG 1.1//EN" "http://www.w3.org/Graphics/SVG/1.1/DTD/svg11.dtd" >
<svg xmlns="http://www.w3.org/2000/svg" xmlns:xlink="http://www.w3.org/1999/xlink" version="1.1">
<metadata>
Created by FontForge 20170731 at Fri May 20 10:33:46 2022
 By Aleksey,,,
Copyright 2015 The Atma Project Authors (www.black-foundry.com)
</metadata>
<defs>
<font id="Atma-SemiBold" horiz-adv-x="0" >
  <font-face 
    font-family="Atma"
    font-weight="600"
    font-stretch="normal"
    units-per-em="2048"
    panose-1="0 0 0 0 0 0 0 0 0 0"
    ascent="1638"
    descent="-410"
    x-height="1083"
    cap-height="1403"
    bbox="-1339 -993 3021 2161"
    underline-thickness="0"
    underline-position="0"
    unicode-range="U+000D-FB02"
  />
<missing-glyph 
 />
    <glyph glyph-name=".notdef" 
 />
    <glyph glyph-name=".null" 
 />
    <glyph glyph-name="nonmarkingreturn" horiz-adv-x="682" 
 />
    <glyph glyph-name="null" 
 />
    <glyph glyph-name="null" 
 />
    <glyph glyph-name="CR" unicode="&#xd;" 
 />
    <glyph glyph-name="space" unicode=" " horiz-adv-x="421" 
 />
    <glyph glyph-name="exclam" unicode="!" horiz-adv-x="573" 
d="M168 477q-19 194 -29 416t-10 448q0 94 2 119q101 49 205 49q70 0 131 -20q-38 -214 -53 -496q-19 -293 -13 -524q-24 -8 -86 -8q-72 0 -147 16zM311 -39q-80 0 -153 27q-8 113 0 260h84q13 -1 192 -8q9 -142 12 -189q1 -14 3.5 -39.5t3.5 -36.5q-60 -14 -142 -14z" />
    <glyph glyph-name="quotedbl" unicode="&#x22;" horiz-adv-x="741" 
d="M195 1528q69 0 133 -21q-26 -269 -68 -489q-47 -15 -164 -12q-3 99 -6 212.5t-4 129.5q-1 29 -4 82t-4 77q53 21 117 21zM518 1528q68 0 133 -21q-27 -280 -67 -489q-47 -15 -164 -12q-3 99 -6 212.5t-4 129.5q-1 29 -4.5 82t-4.5 77q53 21 117 21z" />
    <glyph glyph-name="numbersign" unicode="#" horiz-adv-x="1259" 
d="M471 504q160 -10 264 -10q12 35 19 63q2 8 17 61.5t28 102.5q-110 4 -264 14q-26 -119 -64 -231zM1223 510q12 -49 7.5 -106t-24.5 -99q-139 -8 -338 -8q-85 -225 -155 -379q-89 11 -166 62q57 124 129 323q-91 3 -264 21q-68 -186 -164 -396q-83 11 -164 62
q57 127 139 358q-28 4 -198 35q-12 82 18 170q125 -21 236 -33q38 126 63 238q-141 18 -289 45q-12 90 19 170q153 -27 309 -41q38 187 51 346q120 -10 195 -72q-19 -137 -49 -286q200 -9 262 -9q38 167 53 357q129 -10 194 -72q-20 -137 -49 -281q57 2 213 15
q12 -47 8 -105t-24 -100l-240 -6q-26 -115 -61 -225q165 3 289 16z" />
    <glyph glyph-name="dollar" unicode="$" horiz-adv-x="907" 
d="M535 78q14 -128 6 -203q-105 -32 -203 -10q16 125 14 215q-153 26 -245.5 134.5t-92.5 258.5q110 49 244 49q-2 -126 48 -205t134 -79q61 0 94 33.5t33 95.5q0 81 -86 161q-21 18 -84 68q-16 12 -31 23t-24.5 19t-11.5 9q-158 125 -207 209q-51 80 -51 193
q0 135 84 230.5t225 121.5q-16 122 -8 186q104 33 202 12q-13 -120 -10 -196q127 -19 203.5 -99.5t105.5 -226.5q-90 -50 -251 -59q-19 119 -50 168t-88 49q-45 0 -72.5 -32.5t-27.5 -86.5q0 -69 46.5 -131.5t156.5 -140.5q163 -114 227 -207q59 -92 59 -211
q0 -133 -93 -228t-246 -120z" />
    <glyph glyph-name="percent" unicode="%" horiz-adv-x="1863" 
d="M1137 1624q127 -26 221 -119q-169 -402 -350 -764q-195 -387 -447 -817q-94 24 -178 92q498 889 754 1608zM55 1096q0 214 121 350q120 135 313 135q152 0 236 -91.5t84 -258.5q0 -227 -117 -383q-118 -158 -315 -158q-151 0 -236.5 109.5t-85.5 296.5zM551 1161
q0 264 -107 264q-62 0 -99.5 -81t-37.5 -216q0 -123 33 -202.5t88 -79.5q56 0 89.5 87t33.5 228zM1053 369q0 214 121 350q120 135 313 135q152 0 236.5 -91t84.5 -257q0 -230 -116 -385q-117 -156 -318 -156q-151 0 -236 109t-85 295zM1548 434q0 264 -106 264
q-61 0 -98 -81.5t-37 -215.5q0 -121 33 -201.5t87 -80.5q56 0 88.5 86t32.5 229z" />
    <glyph glyph-name="ampersand" unicode="&#x26;" horiz-adv-x="1656" 
d="M1618 80q-49 -136 -172 -221q-134 51 -283 127q-181 -123 -448 -123q-285 0 -459 143q-174 140 -174 369q0 165 102.5 285t284.5 167q-16 106 -16 189q0 215 114 339t314 124q146 0 235.5 -77.5t89.5 -201.5q0 -149 -112 -250.5t-322 -142.5q87 -279 381 -488
q57 111 57 252q0 86 -26 213q156 42 301 -26q3 -94 -10 -211q-24 -202 -113 -352q145 -74 256 -115zM842 1319q-54 0 -83.5 -62.5t-29.5 -175.5q0 -94 14 -163q92 35 141.5 102t49.5 158q0 68 -24 104.5t-68 36.5zM385 451q0 -168 111 -273q107 -104 284 -104q92 0 176 41
q-340 247 -452 581q-119 -85 -119 -245z" />
    <glyph glyph-name="quotesingle" unicode="'" horiz-adv-x="415" 
d="M195 1528q69 0 133 -21q-26 -269 -68 -489q-47 -15 -164 -12q-3 99 -6 212.5t-4 129.5q-1 29 -4 82t-4 77q53 21 117 21z" />
    <glyph glyph-name="parenleft" unicode="(" horiz-adv-x="741" 
d="M766 1518q-235 -165 -360 -393t-125 -496q0 -246 108.5 -448.5t347.5 -403.5q-35 -44 -75 -73t-107 -60q-247 198 -378.5 449t-131.5 523q0 623 539 1043q97 -40 182 -141z" />
    <glyph glyph-name="parenright" unicode=")" horiz-adv-x="831" 
d="M-51 -217q235 164 361 394t126 493q0 246 -107.5 452t-338.5 402q32 44 72.5 74t107.5 61q238 -192 369 -447t131 -530q0 -616 -541 -1038q-97 34 -180 139z" />
    <glyph glyph-name="asterisk" unicode="*" horiz-adv-x="989" 
d="M559 922q8 -104 41 -291q-52 -27 -115 -27q-31 0 -84 12q-3 117 19 297q-59 -39 -115 -84q-76 -56 -117 -84q-51 38 -79 89q-17 31 -33 77q87 48 278 138q-132 64 -270 110q0 60 35 113q23 41 49 67q113 -63 252 -163q-14 101 -33 282q52 27 117 27q33 0 82 -10
q0 -136 -19 -314q129 88 234 182q47 -28 78 -88q19 -31 32 -77q-91 -57 -266 -134q4 -2 17 -7.5t39.5 -17t52.5 -22.5q142 -63 151 -67q-3 -55 -35 -113q-24 -38 -51 -67q-128 80 -260 172z" />
    <glyph glyph-name="plus" unicode="+" horiz-adv-x="911" 
d="M565 586q-3 -158 -22 -285q-103 -12 -191 -4q13 142 21 289q-171 3 -303 24q0 96 14 191q120 -15 289 -23q-8 143 -21 277q98 13 191 10q19 -119 22 -287q154 8 295 21q0 -101 -24 -189q-119 -14 -271 -24z" />
    <glyph glyph-name="comma" unicode="," horiz-adv-x="458" 
d="M129 242q160 13 287 -23q-21 -355 -164 -692q-113 8 -209 35q86 350 86 680z" />
    <glyph glyph-name="hyphen" unicode="-" horiz-adv-x="702" 
d="M623 455q-146 -28 -318 -25q-179 3 -248 37q-8 137 27 240q121 -25 276 -25q190 0 289 12q0 -154 -26 -239z" />
    <glyph glyph-name="period" unicode="." horiz-adv-x="466" 
d="M98 225q147 38 310 13q-3 -135 -25 -269q-145 -13 -274 2q-9 120 -9 164q-2 29 -2 90z" />
    <glyph glyph-name="slash" unicode="/" horiz-adv-x="950" 
d="M780 1544q51 -6 113 -40t106 -81q-174 -407 -428 -925q-257 -526 -477 -920q-46 13 -98 39.5t-86 52.5q182 328 450 910q293 636 420 964z" />
    <glyph glyph-name="zero" unicode="0" horiz-adv-x="1200" 
d="M68 614q0 345 168 555q167 209 442 209q215 0 335 -150.5t120 -416.5q0 -374 -158 -614q-160 -238 -438 -238q-219 0 -344 180q-125 177 -125 475zM815 711q0 235 -48 349t-146 114q-109 0 -174.5 -142t-65.5 -375q0 -215 59 -354q59 -141 158 -141q102 0 160 153
q57 149 57 396z" />
    <glyph glyph-name="one" unicode="1" horiz-adv-x="876" 
d="M596 -66q-61 -25 -158 -28q-57 0 -98 8q0 102 12 299q16 341 97 758q-138 -99 -254 -170q-106 84 -166 225q379 185 639 404q108 -40 182 -119q-76 -200 -148 -588q-69 -373 -106 -789z" />
    <glyph glyph-name="two" unicode="2" horiz-adv-x="995" 
d="M905 174q-3 -148 -49 -258q-259 10 -473 41q-258 38 -391 78q0 106 20 176q611 427 611 752q0 82 -32.5 127t-92.5 45q-67 0 -111.5 -70.5t-73.5 -224.5q-173 0 -280 55q99 418 481 418q184 0 305 -103q117 -105 117 -268q0 -188 -137 -362q-144 -183 -457 -396
q190 -10 342 -14q101 -3 221 4z" />
    <glyph glyph-name="three" unicode="3" horiz-adv-x="1034" 
d="M989 346q0 -192 -139 -328q-138 -135 -336 -135q-202 0 -321.5 117t-129.5 330q106 50 283 53q0 -146 51.5 -235t130.5 -89q72 0 110 58t38 164q0 153 -94 239.5t-265 87.5q-22 103 -22 183q202 128 334 278q-281 -21 -549 -82q-32 112 -29 238q185 51 424 80
q231 29 451 32q42 -115 39 -252q-81 -109 -158 -185t-189 -159q371 -94 371 -395z" />
    <glyph glyph-name="four" unicode="4" horiz-adv-x="1210" 
d="M893 240q-16 -140 -27 -308q-62 -24 -159 -24q-48 2 -93 14q-6 177 -6 193q0 114 2 149q-343 37 -553 66q-22 53 -41 141q183 282 293 516q107 235 209 563q127 -3 297 -69q-189 -521 -442 -930q78 -17 254 -45q12 160 43 313q82 39 190 39q67 0 141 -18
q-40 -121 -79 -371q99 -10 268 -20q0 -60 -15 -122.5t-40 -103.5q-31 1 -242 17z" />
    <glyph glyph-name="five" unicode="5" horiz-adv-x="1069" 
d="M952 424q0 -218 -131 -358q-133 -142 -340 -142q-211 0 -335 127.5t-136 360.5q145 0 297 -35q0 -135 44 -206t126 -71q160 0 160 244q0 134 -68 214.5t-184 80.5q-59 0 -141 -29q-28 18 -62 50.5t-47 54.5q-6 51 -6 145q0 238 49 533q230 -49 402 -66q162 -19 428 -22
q-3 -154 -50 -263q-273 13 -536 60q-16 -180 -14 -271q74 19 141 19q183 0 293 -117t110 -309z" />
    <glyph glyph-name="six" unicode="6" horiz-adv-x="1142" 
d="M700 801q174 0 281 -107q106 -106 106 -278q0 -216 -139 -367q-142 -151 -375 -151q-240 0 -371.5 185t-131.5 517q0 368 166 592q165 223 438 223q170 0 275 -90t136 -262q-117 -73 -266 -84q-13 117 -51 171t-106 54q-123 0 -199 -151t-80 -408q128 156 317 156z
M399 410q23 -147 77.5 -228.5t129.5 -81.5q71 0 117.5 68t46.5 168q0 118 -50 190t-132 72q-62 0 -112.5 -50t-76.5 -138z" />
    <glyph glyph-name="seven" unicode="7" horiz-adv-x="966" 
d="M924 1069q-194 -244 -332 -506q-141 -261 -266 -614q-161 -15 -301 45q122 327 271 594.5t345 507.5q-344 -9 -647 24q-9 150 47 271q321 -59 506 -78q240 -25 401 -27q9 -99 -24 -217z" />
    <glyph glyph-name="eight" unicode="8" horiz-adv-x="1153" 
d="M1065 471q0 -204 -152 -344q-154 -139 -411 -139q-197 0 -312.5 98.5t-115.5 261.5q0 116 61.5 212.5t173.5 156.5q-106 41 -166.5 129.5t-60.5 200.5q0 192 151 313t398 121q195 0 309.5 -87.5t114.5 -236.5q0 -121 -60 -225t-166 -166q113 -37 174.5 -114t61.5 -181z
M563 829q79 0 126.5 71t47.5 185q0 106 -42 166t-115 60q-82 0 -134.5 -71.5t-52.5 -180.5q0 -103 46 -166.5t124 -63.5zM559 156q84 0 136.5 79t52.5 199q0 103 -43 160t-121 57q-87 0 -142 -73t-55 -189q0 -102 48.5 -167.5t123.5 -65.5z" />
    <glyph glyph-name="nine" unicode="9" horiz-adv-x="1155" 
d="M393 975q0 -118 52.5 -188t140.5 -70q139 0 190 201q-24 333 -194 333q-82 0 -135.5 -77.5t-53.5 -198.5zM1094 819q0 -385 -187 -633q-186 -247 -479 -247q-223 0 -369 143q68 138 158 217q35 -60 103 -96.5t143 -36.5q121 0 202.5 122.5t106.5 342.5
q-110 -119 -276 -119q-189 0 -303 117q-117 117 -117 305q0 225 141 375q141 147 369 147q234 0 372 -172q136 -174 136 -465z" />
    <glyph glyph-name="colon" unicode=":" horiz-adv-x="481" 
d="M244 1126q91 0 155 -28q9 -225 7 -264q-134 -3 -304 8q-1 44 -18 268q82 16 160 16zM109 252q192 16 311 14v-110q0 -129 -2 -176q-186 -3 -307 16q-2 39 -2 106v150z" />
    <glyph glyph-name="semicolon" unicode=";" horiz-adv-x="479" 
d="M426 1098q8 -213 6 -264q-133 -3 -303 8q-1 44 -18 268q82 16 159 16q92 0 156 -28zM133 246q168 3 283 -21q-3 -329 -162 -690q-127 10 -209 33q91 355 88 678z" />
    <glyph glyph-name="less" unicode="&#x3c;" horiz-adv-x="909" 
d="M848 420q-14 -89 -57 -172q-198 73 -392 180q-211 115 -340 215l2 111q121 94 340 215q204 110 392 182q36 -74 57 -174q-293 -126 -535 -281q232 -147 533 -276z" />
    <glyph glyph-name="equal" unicode="=" horiz-adv-x="911" 
d="M72 733q0 96 14 191q362 -47 776 -2q0 -100 -24 -189q-167 -26 -381.5 -26t-384.5 26zM47 422q0 95 14 190q361 -47 777 -2q0 -82 -27 -188q-183 -25 -383 -25q-204 0 -381 25z" />
    <glyph glyph-name="greater" unicode="&#x3e;" horiz-adv-x="909" 
d="M117 248q-42 92 -58 174q302 132 535 280q-255 161 -533 277q13 87 60 174q200 -76 393 -182q215 -119 336 -215l-2 -111q-127 -98 -336 -211q-191 -106 -395 -186z" />
    <glyph glyph-name="question" unicode="?" horiz-adv-x="989" 
d="M565 481q-70 -20 -221 -20q-38 236 -41 360q152 29 232.5 118.5t80.5 229.5q0 105 -36 164.5t-103 59.5q-75 0 -121.5 -89t-46.5 -237q-170 0 -278 51q12 220 128 332.5t330 112.5q192 0 318 -111q127 -115 127 -283q0 -148 -95.5 -254t-267.5 -149q-4 -124 -6 -285z
M600 252l8 -88t6 -74q1 -15 11 -104q-78 -15 -142 -17q-83 0 -149 27q-12 134 -4 260h82q12 0 35.5 -0.5t68 -1.5t84.5 -2z" />
    <glyph glyph-name="at" unicode="@" horiz-adv-x="1845" 
d="M1358 -100q-226 -129 -496 -129q-365 0 -581 219q-215 218 -215 588q0 408 256 661q256 250 675 250q360 0 562 -205t202 -545q0 -245 -127 -405t-307 -160q-233 0 -295 211q-74 -188 -237 -188q-123 0 -196 107t-73 284q0 225 111 360q108 135 291 135q5 0 59 -6l-2 45
q138 33 252 6q-18 -276 -18 -499q0 -165 31 -241.5t98 -76.5q92 0 157 123q64 122 64 309q0 272 -157.5 426t-438.5 154q-318 0 -506 -188q-188 -191 -188 -510q0 -322 158 -502t442 -180q114 0 197.5 25.5t160.5 84.5q76 -71 121 -153zM764 618q0 -119 28 -184t82 -65
q45 0 81 56t53 157q0 13 -1.5 45.5t-2.5 58.5q-10 213 -11 252q-14 6 -49 6q-82 0 -131 -88.5t-49 -237.5z" />
    <glyph glyph-name="A" unicode="A" horiz-adv-x="1329" 
d="M1311 -133q-106 -70 -305 -96q-38 310 -103 583q-260 0 -479 -28q-90 -231 -168 -381q-165 29 -252 133q172 316 287 614q115 299 233 758q153 -3 281 -33q185 -322 309 -700.5t197 -849.5zM659 1094q-76 -305 -159 -553q197 25 348 28q-87 302 -189 525z" />
    <glyph glyph-name="B" unicode="B" horiz-adv-x="1257" 
d="M1200 539q0 -244 -186 -412t-461 -168q-186 0 -354 102q-27 377 -33 539q-10 270 -10 502q0 233 2 313q214 103 442 103q239 0 368.5 -87.5t129.5 -248.5q0 -209 -195 -324q141 -32 219 -116t78 -203zM795 1141q0 94 -60 144t-172 50q-29 0 -84 -10q-16 -212 -24 -471
q172 23 256 93.5t84 193.5zM457 182q57 -32 125 -32q127 0 217 100q90 101 90 225q0 211 -242 211q-87 0 -196 -37v-166q0 -205 6 -301z" />
    <glyph glyph-name="C" unicode="C" horiz-adv-x="1204" 
d="M883 469q66 6 133.5 -6t105.5 -37q-17 -240 -154 -369t-378 -129q-242 0 -376 163.5t-134 459.5q0 373 186 620q184 248 471 248q186 0 288.5 -116.5t113.5 -337.5q-78 -37 -139 -49.5t-152 -10.5q9 320 -162 320q-114 0 -190 -172q-80 -174 -80 -428q0 -240 64.5 -368
t185.5 -128q115 0 172 90.5t45 249.5z" />
    <glyph glyph-name="D" unicode="D" horiz-adv-x="1247" 
d="M1190 905q0 -298 -217 -561q-215 -260 -551 -364q-118 0 -262 20q-51 584 -51 1040q0 22 6 322q221 106 450 106q306 0 465.5 -144t159.5 -419zM440 1264q-17 -226 -22 -396q-8 -172 -8 -446q0 -5 4 -217q223 97 340.5 276.5t117.5 423.5q0 174 -89.5 272.5t-250.5 98.5
q-46 0 -92 -12z" />
    <glyph glyph-name="E" unicode="E" horiz-adv-x="1171" 
d="M1102 -23q-124 -23 -375 -43q-243 -17 -463 -20q-50 329 -94 784q-42 439 -45 705q309 59 504 78q208 21 424 24q0 -109 -29 -254q-301 -3 -545 -26q-9 -173 -6 -391q233 56 465 65q25 -106 25 -244q-322 -13 -482 -39q12 -261 39 -464q110 3 279 24q144 15 276 41
q12 -37 20.5 -110.5t6.5 -129.5z" />
    <glyph glyph-name="F" unicode="F" horiz-adv-x="1103" 
d="M522 614q3 -383 -14 -753q-133 -32 -285 -29q3 408 -24 862q-29 439 -84 774q159 8 340 31q159 17 573 86q19 -53 19 -131q2 -48 -15 -133q-323 -45 -536 -59q20 -277 22 -418q205 44 391 47q25 -113 25 -248q-185 -3 -412 -29z" />
    <glyph glyph-name="G" unicode="G" horiz-adv-x="1251" 
d="M1133 717q-9 -380 94 -752q-76 -19 -230 -31q-46 103 -88 240q-154 -217 -393 -217q-200 0 -317 164q-119 162 -119 444q0 394 176 656t444 262q186 0 297 -122.5t123 -338.5q-128 -43 -311 -43q-26 309 -170 309q-106 0 -170 -174q-66 -180 -66 -452q0 -463 211 -463
q78 0 139.5 57.5t98.5 163.5q-20 102 -31 262q118 35 312 35z" />
    <glyph glyph-name="H" unicode="H" horiz-adv-x="1335" 
d="M1176 1473q17 -391 28 -793q10 -505 10 -799q-88 0 -167 8t-138 23q0 406 -8 721q-231 -3 -459 -29q-4 -359 4 -565q-44 -12 -125 -21t-145 -8q-63 861 -63 1403q77 49 202 49q82 0 152 -20q-20 -283 -23 -608q189 35 453 45q-11 350 -14 407q-10 152 -17 213
q89 21 142 21q97 0 168 -47z" />
    <glyph glyph-name="I" unicode="I" horiz-adv-x="598" 
d="M461 1044q0 -590 -33 -1075q-42 -12 -116.5 -21t-139.5 -9q3 849 -57 1413q79 51 194 51q61 0 144 -17q8 -128 8 -342z" />
    <glyph glyph-name="J" unicode="J" horiz-adv-x="1030" 
d="M842 231q-43 -200 -145.5 -305.5t-252.5 -105.5q-154 0 -268 129q-113 131 -137 336q101 78 237 98q26 -199 64 -283q34 -75 98 -75q75 0 111.5 105t36.5 325q0 177 -17 473q-13 229 -47 502q79 50 207 53q67 2 152 -15q22 -236 22 -489q0 -269 -14 -424
q-16 -186 -47 -324z" />
    <glyph glyph-name="K" unicode="K" horiz-adv-x="1259" 
d="M1274 -8q-95 -138 -262 -209q-112 216 -230 381q-123 164 -278 319q-54 -40 -72 -51q9 -300 43 -551q-42 -12 -122.5 -21.5t-147.5 -9.5q-84 522 -84 1053q0 177 18 490q93 49 207 49q82 0 152 -21q-58 -330 -68 -735q147 144 256 309q101 157 227 437q134 -46 246 -179
q-102 -190 -208 -332t-236 -264q167 -142 293 -292q124 -152 266 -373z" />
    <glyph glyph-name="L" unicode="L" horiz-adv-x="1046" 
d="M1012 90q35 -138 35 -237q-219 -3 -383 -17q-199 -13 -416 -45q-52 343 -82 789q-34 434 -31 763q127 39 268 39q59 0 86 -6q-31 -268 -28 -614q0 -461 43 -731q239 59 508 59z" />
    <glyph glyph-name="M" unicode="M" horiz-adv-x="1632" 
d="M1528 -53q-157 -56 -318 -56q35 474 45 1209q-188 -317 -325 -701q-77 -25 -191 -8q-139 360 -329 668v-84q0 -514 100 -952q-44 -12 -128 -21.5t-157 -9.5q-43 288 -67 702q-26 398 -23 748q146 94 297 119q285 -393 432 -773q159 408 398 771q141 -21 249 -74
q26 -567 17 -1538z" />
    <glyph glyph-name="N" unicode="N" horiz-adv-x="1386" 
d="M442 481q0 -102 2 -159q11 -310 13 -379q-97 -27 -252 -31q-76 931 -76 1446q9 10 29 16q129 66 305 78q158 -216 277.5 -433t224.5 -474v174q0 544 -37 784q158 50 317 53q10 -198 10 -432q0 -530 -41 -1065q-161 -27 -274 -30q-155 365 -256 559q-106 203 -242 395
q-3 -240 0 -502z" />
    <glyph glyph-name="O" unicode="O" horiz-adv-x="1286" 
d="M717 1501q238 0 365.5 -168t127.5 -481q0 -157 -38.5 -314t-106.5 -274q-173 -305 -498 -305q-234 0 -366 197q-133 195 -133 518q0 367 180 596q182 231 469 231zM625 164q127 0 195.5 160.5t68.5 447.5q0 272 -55.5 396t-178.5 124q-125 0 -198 -155q-74 -157 -74 -418
q0 -255 64 -405t178 -150z" />
    <glyph glyph-name="P" unicode="P" horiz-adv-x="1226" 
d="M434 449q2 -210 27 -588q-155 -4 -266 18q-36 360 -50 635q-16 301 -16 588q0 138 14 323q106 44 234.5 69.5t249.5 25.5q250 0 386 -105t136 -295q0 -223 -185.5 -397t-529.5 -274zM831 1067q0 130 -66 200t-190 70q-53 0 -106 -12q-26 -310 -35 -670q397 99 397 412z
" />
    <glyph glyph-name="Q" unicode="Q" horiz-adv-x="1300" 
d="M1266 -57q-38 -100 -174 -187q-91 134 -197 267q-148 -105 -338 -105q-228 0 -356 174q-131 174 -131 469q0 358 184 588q180 229 461 229q245 0 373.5 -157.5t128.5 -456.5q0 -160 -45 -316t-125 -272q96 -84 219 -233zM387 606q0 -219 61 -351t166 -132q81 0 138 57
q-70 70 -146 135q39 73 103 109q77 -44 135 -86q51 148 51 344q0 253 -53 370t-168 117q-132 0 -209 -153q-78 -156 -78 -410z" />
    <glyph glyph-name="R" unicode="R" horiz-adv-x="1241" 
d="M1231 57q-104 -100 -277 -147q-120 279 -194 424q-74 140 -162 266q-80 -29 -125 -41q-12 -329 -35 -571q-123 -3 -264 16q10 184 10 332q0 290 -14 522q-16 258 -49 559q94 73 223 116.5t254 43.5q241 0 375.5 -111t134.5 -307q0 -269 -279 -448q199 -227 402 -654z
M457 1376q14 -322 14 -334q4 -168 4 -235v-55q162 44 240 135t78 237q0 128 -61 198.5t-173 70.5q-43 0 -102 -17z" />
    <glyph glyph-name="S" unicode="S" horiz-adv-x="1075" 
d="M915 653q86 -127 86 -291q0 -190 -133 -317t-333 -127q-225 0 -371 152q-144 150 -144 370q50 25 120.5 44t123.5 20q0 -184 64.5 -289.5t179.5 -105.5q86 0 134 51t48 139q0 80 -43 150q-47 68 -194 180q-94 71 -143.5 118t-84.5 95q-90 134 -90 297q0 192 127 313
q125 119 338 119q190 0 301.5 -97.5t149.5 -299.5q-81 -56 -256 -68q-20 141 -66.5 202.5t-134.5 61.5q-67 0 -105 -44t-38 -122q0 -89 45 -157q48 -72 196 -185q94 -71 141 -116t82 -93z" />
    <glyph glyph-name="T" unicode="T" horiz-adv-x="1196" 
d="M788 82q-114 -32 -282 -35q3 287 -12 647q-14 329 -52 631q-105 -10 -137 -14q-153 -18 -231 -27q-42 124 -39 227q312 62 543 84q249 24 559 27q18 -63 18 -133q0 -43 -14 -131q-119 0 -359 -8q31 -306 31 -732q0 -194 -25 -536z" />
    <glyph glyph-name="U" unicode="U" horiz-adv-x="1187" 
d="M1018 1452q86 -366 86 -645q0 -482 -144.5 -726.5t-431.5 -244.5q-440 0 -440 713q0 197 35 418q35 220 74 311q86 20 157 20q84 0 133 -22q-69 -327 -69 -662q0 -571 160 -571q96 0 150 173.5t54 475.5q0 331 -90 703q61 24 150.5 39.5t175.5 17.5z" />
    <glyph glyph-name="V" unicode="V" horiz-adv-x="1220" 
d="M1194 1509q-109 -860 -502 -1673q-82 -33 -258 -33q-286 682 -416 1432q136 61 328 70q84 -690 254 -1164q220 580 313 1426q157 -9 281 -58z" />
    <glyph glyph-name="W" unicode="W" horiz-adv-x="1744" 
d="M877 725q-95 -445 -252 -838q-112 -36 -248 -39q-146 420 -227 754q-86 343 -144 717q181 54 340 57q40 -502 201 -1122q135 430 205 883q162 39 325 39q21 -206 60 -461q32 -207 73 -391q208 577 267 1130q167 -12 280 -100q-135 -753 -491 -1403q-117 -20 -224 -27
q-108 433 -129 563q-24 125 -36 238z" />
    <glyph glyph-name="X" unicode="X" horiz-adv-x="1323" 
d="M1233 57q-66 -72 -219 -147q-161 357 -336 674q-177 -213 -270 -318q-97 -110 -238 -254q-41 26 -88.5 71.5t-73.5 84.5q247 284 361 422q95 118 172 223q-200 320 -463 608q143 127 293 181q211 -279 377 -545q183 264 307 497q59 -30 118.5 -80t96.5 -104
q-155 -244 -391 -543q185 -333 354 -770z" />
    <glyph glyph-name="Y" unicode="Y" horiz-adv-x="1112" 
d="M1077 1372q-141 -543 -291 -903q-146 -352 -356 -662q-61 13 -129 44t-111 63q160 250 263 475q-156 199 -265 445.5t-182 568.5q133 89 309 98q38 -239 99 -430.5t159 -382.5q124 352 195 793q175 -25 309 -109z" />
    <glyph glyph-name="Z" unicode="Z" horiz-adv-x="1204" 
d="M1106 223q0 -174 -53 -295q-220 3 -518 25q-278 24 -504 59q0 151 26 244q247 253 425 473t317 445q-278 14 -666 71q0 158 66 273q438 -84 970 -164q-15 -122 -24 -160q-8 -35 -19 -61q-255 -375 -792 -932q420 -12 772 22z" />
    <glyph glyph-name="bracketleft" unicode="[" horiz-adv-x="823" 
d="M768 -53q11 -32 19 -95t8 -112q-264 -34 -531 -31q-55 354 -94 887q-40 500 -43 948q306 68 575 80q3 -120 -12 -203q-182 -2 -289 -12q-40 -647 56 -1497q145 0 311 35z" />
    <glyph glyph-name="backslash" unicode="\" horiz-adv-x="950" 
d="M172 1546q127 -328 420 -964q268 -582 450 -910q-34 -26 -86 -52.5t-98 -39.5q-220 394 -477 920q-254 518 -428 925q44 47 106 81t113 40z" />
    <glyph glyph-name="bracketright" unicode="]" horiz-adv-x="802" 
d="M604 1647q47 -279 53 -773q6 -530 -26 -1050q-283 -56 -555 -70q0 118 12 201q173 3 320 16q57 754 -46 1465q-146 0 -307 -29q-10 36 -18 98.5t-8 106.5q259 35 575 35z" />
    <glyph glyph-name="asciicircum" unicode="^" horiz-adv-x="933" 
d="M920 375q-68 -37 -175 -60q-129 306 -280 535q-143 -219 -277 -533q-84 13 -174 60q69 181 185 393q124 223 213 336l110 -2q99 -131 215 -340q106 -192 183 -389z" />
    <glyph glyph-name="underscore" unicode="_" horiz-adv-x="962" 
d="M930 -246q-181 -31 -453 -28q-259 6 -403 45q8 107 20 198q99 -13 250 -22q177 -10 256 -10q199 0 356 16q0 -103 -26 -199z" />
    <glyph glyph-name="grave" unicode="`" horiz-adv-x="532" 
d="M354 1534q9 -167 70 -340q-91 -23 -180 -23q-122 190 -142 340q105 40 252 23z" />
    <glyph glyph-name="a" unicode="a" horiz-adv-x="1046" 
d="M954 719q0 -132 -34 -354q-36 -214 -91 -437q-123 0 -239 29q17 95 18 100q-85 -49 -209 -49q-158 0 -253 81t-95 216q0 283 461 283q49 0 147 -4v30q0 185 -30.5 266t-98.5 81t-115 -74.5t-48 -186.5q-199 3 -261 146q35 121 160 203q124 81 293 81q195 0 295 -104
t100 -307zM358 287q0 -60 33.5 -92.5t95.5 -32.5q73 0 144 41q21 149 24 248q-150 2 -223.5 -38t-73.5 -126z" />
    <glyph glyph-name="b" unicode="b" horiz-adv-x="1062" 
d="M993 575q0 -294 -147 -485q-150 -190 -375 -190q-95 0 -173.5 23.5t-162.5 78.5q-11 182 -16 358q-6 208 -6 410q0 403 24 637q73 39 234 39q74 0 123 -14q-41 -213 -66 -508q93 112 240 112q160 0 242.5 -117t82.5 -344zM403 133q43 -31 84 -31q96 0 147.5 134t51.5 382
q0 222 -121 222q-45 0 -84.5 -44t-68.5 -128q-9 -298 -9 -396v-139z" />
    <glyph glyph-name="c" unicode="c" horiz-adv-x="985" 
d="M942 758q-101 -49 -272 -49q0 239 -109 239q-82 0 -141 -160q-62 -160 -62 -364q0 -140 41.5 -218.5t116.5 -78.5q124 0 246 221q47 -12 90.5 -41.5t73.5 -68.5q-35 -117 -162 -201q-131 -88 -303 -88q-194 0 -301 123t-107 340q0 288 150 493q147 205 375 205
q171 0 267.5 -93.5t96.5 -258.5z" />
    <glyph glyph-name="d" unicode="d" horiz-adv-x="1110" 
d="M963 -53q-43 -14 -111.5 -23.5t-122.5 -9.5q-18 111 -31 242q-43 -111 -109.5 -164t-162.5 -53q-171 0 -267 138t-96 380q0 283 140 458q138 172 372 172q1 0 70 -6q-2 115 -2 242q-2 47 -2 125q80 41 225 41q51 0 123 -14q-15 -137 -24 -433q-9 -292 -9 -821
q0 -150 7 -274zM362 494q0 -163 39 -251.5t109 -88.5q60 0 102.5 77t61.5 220q-5 113 -12.5 258t-10.5 196q-54 4 -55 4q-107 0 -170.5 -111t-63.5 -304z" />
    <glyph glyph-name="e" unicode="e" horiz-adv-x="1021" 
d="M393 680q86 -25 162 -25q41 0 76 7q28 112 28 182q0 62 -18 90.5t-59 28.5q-57 0 -108.5 -77t-80.5 -206zM725 375q59 -10 120 -42.5t103 -74.5q-41 -115 -172 -203q-130 -90 -303 -90q-194 0 -303 125t-109 342q0 274 164 486q162 210 379 210q152 0 241 -82.5
t89 -222.5q0 -148 -49 -278q-103 -47 -324 -47q-93 0 -192 24q-1 -17 -2 -34.5t-1.5 -27.5t-0.5 -18q0 -140 42 -219.5t115 -79.5q56 0 119 72q60 73 84 160z" />
    <glyph glyph-name="f" unicode="f" horiz-adv-x="890" 
d="M461 756q9 -173 45 -396q39 -242 67 -352q-62 -23 -151 -37t-166 -14q-27 120 -51 375q-26 244 -29 456q-98 17 -139 35q0 37 10.5 85.5t22.5 60.5q15 -1 112 -13q20 263 118.5 398t270.5 135q132 0 210.5 -76.5t78.5 -202.5q0 -63 -22 -112q-106 0 -224 35q15 47 15 84
q0 92 -62 92q-107 0 -110 -367q35 -2 145 -2q146 0 207 12q0 -83 -21 -186q-49 -14 -170 -14q-17 0 -37 0.5t-54 1.5t-66 2z" />
    <glyph glyph-name="g" unicode="g" horiz-adv-x="1075" 
d="M375 559q0 -163 48.5 -259.5t127.5 -96.5q71 0 117 114q-3 300 -62 576q-54 6 -57 6q-174 0 -174 -340zM973 346q0 -415 -131.5 -633.5t-376.5 -218.5q-163 0 -263 89.5t-112 238.5q105 79 256 102q19 -131 52.5 -189.5t90.5 -58.5q146 0 173 433q-76 -101 -197 -101
q-178 0 -285 137q-108 135 -108 361q0 281 134 431t386 150q147 0 307 -55q33 -119 53 -309q21 -202 21 -377z" />
    <glyph glyph-name="h" unicode="h" horiz-adv-x="1114" 
d="M1010 688q0 -172 -52 -401q-55 -243 -106 -353q-122 3 -266 60q121 382 121 692q0 115 -21.5 159t-75.5 44q-49 0 -102 -54t-100 -153q-1 -58 -3 -134.5t-2 -107.5q0 -135 17 -354q-37 -12 -119 -21.5t-154 -9.5q-34 427 -34 875q0 162 8 307q5 139 16 266q75 43 234 43
q58 0 125 -16q-52 -270 -76 -604q122 172 291 172q154 0 226.5 -99.5t72.5 -310.5z" />
    <glyph glyph-name="i" unicode="i" horiz-adv-x="538" 
d="M373 1536q99 -3 157 -33q-49 -111 -75 -256q-114 -15 -258 -12q-21 64 -21 131q0 76 23 133q75 37 174 37zM139 1026q88 51 213 51q58 0 117 -12q-43 -161 -70 -455q-26 -282 -26 -600q-79 -33 -180 -33q-9 0 -72 7q-32 281 -27.5 553.5t45.5 488.5z" />
    <glyph glyph-name="j" unicode="j" horiz-adv-x="577" 
d="M408 1522q-24 -72 -60 -267q-76 -31 -274 -28q-29 106 -29 164q-3 64 14 122q71 39 177 39q100 0 172 -30zM473 455q0 -414 -108 -634t-312 -220q-205 0 -319 182q67 131 151 168q62 -115 142 -115q147 0 147 369q0 188 -35 428q-38 235 -96 434q75 23 174 33t184 2
q72 -339 72 -647z" />
    <glyph glyph-name="k" unicode="k" horiz-adv-x="1075" 
d="M383 428q0 -281 33 -502q-101 -35 -264 -35q-50 337 -50 721q0 191 17 494q15 264 39 414q65 3 178 -13q92 -13 153 -39q-29 -123 -59 -362q-27 -218 -39 -422q102 99 182 199q115 145 224 299q57 -29 114.5 -80.5t89.5 -102.5q-167 -220 -436 -428q85 -100 194.5 -191.5
t274.5 -199.5q-70 -89 -123 -132t-112 -62q-236 197 -412 456l-4 -2v-12z" />
    <glyph glyph-name="l" unicode="l" horiz-adv-x="550" 
d="M428 -94q-47 -15 -117 -23q-73 -8 -145 -8q-32 377 -45 821q-15 418 -6 772q82 52 194 52q75 0 152 -21q-26 -249 -35 -729q-8 -421 2 -864z" />
    <glyph glyph-name="m" unicode="m" horiz-adv-x="1646" 
d="M1536 786q0 -191 -37 -434q-38 -247 -84 -422q-157 0 -303 35q121 522 121 815q0 88 -21.5 127t-70.5 39q-48 0 -94 -54.5t-82 -156.5q2 -10 2 -51q0 -158 -27 -358q-26 -198 -55 -306q-133 3 -283 35q72 419 72 609q0 88 -21.5 126.5t-70.5 38.5q-50 0 -99 -55t-84 -151
q-2 -104 -2 -232q-2 -49 -2 -131q0 -203 6 -252q-103 -28 -254 -28q-30 291 -51 602q-20 299 -20 514q76 39 227 39q64 0 127 -13q-10 -79 -20 -248q120 193 313 193q139 0 201 -127q133 244 356 244q256 0 256 -398z" />
    <glyph glyph-name="n" unicode="n" horiz-adv-x="1107" 
d="M395 260q0 -142 11 -307q-45 -14 -118.5 -23.5t-135.5 -9.5q-25 250 -41 561q-21 347 -21 588q80 41 227 41q55 0 125 -12q-9 -70 -18 -197q123 197 303 197q270 0 270 -400q0 -158 -24 -360q-25 -193 -55 -318q-140 3 -295 35q71 384 71 637q0 90 -22 129t-72 39
q-54 0 -104.5 -58t-87.5 -161q-13 -203 -13 -381z" />
    <glyph glyph-name="o" unicode="o" horiz-adv-x="1044" 
d="M55 483q0 281 150 459q147 176 383 176q183 0 286 -116t103 -320q0 -302 -143 -500q-144 -202 -388 -202q-183 0 -287 136t-104 367zM670 580q0 352 -150 352q-70 0 -117 -115q-49 -116 -49 -291q0 -157 42.5 -259.5t113.5 -102.5q69 0 115 125q45 119 45 291z" />
    <glyph glyph-name="p" unicode="p" horiz-adv-x="1067" 
d="M401 223q39 -28 86 -28q89 0 154 153q64 149 64 379q0 99 -29 151t-84 52q-123 0 -182 -223q-11 -137 -11 -369q0 -90 2 -115zM408 25q2 -43 10 -142l35 -315q-115 -33 -256 -33q-32 226 -54 578q-22 344 -22 606q0 246 18 407q78 43 228 43q43 0 100 -14
q-22 -74 -33 -176q113 180 291 180q133 0 210 -107.5t77 -293.5q0 -324 -148 -531q-151 -207 -372 -207q-12 0 -38 2t-46 3z" />
    <glyph glyph-name="q" unicode="q" horiz-adv-x="1134" 
d="M907 -465q-66 -29 -164 -29q-55 0 -92 11q-3 30 -6 198q-3 176 -6 326q-88 -143 -219 -143q-165 0 -258.5 135t-93.5 368q0 308 143 488t385 180q53 0 119 -16q2 24 16 82q75 41 199 41q70 0 141 -21q-66 -196 -119 -692q-51 -482 -45 -928zM367 446q0 -155 37 -243
t100 -88q87 0 135 139q3 262 49 625q-34 12 -82 12q-111 0 -175 -118t-64 -327z" />
    <glyph glyph-name="r" unicode="r" horiz-adv-x="925" 
d="M410 463q12 -248 49 -465q-70 -24 -183 -21q-55 3 -94 17q-56 270 -76 553q-21 305 -4 547q56 22 164 22q96 0 172 -29q-14 -82 -24 -200q49 130 124.5 206t155.5 76q100 0 155.5 -81t55.5 -230q0 -67 -2 -90q-95 -33 -268 -23q1 30 2.5 53.5t1.5 30.5q0 115 -55 115
q-52 0 -100 -131t-74 -350z" />
    <glyph glyph-name="s" unicode="s" horiz-adv-x="915" 
d="M559 647q168 -110 223 -192q56 -83 56 -183q0 -155 -121 -258q-123 -102 -301 -102q-165 0 -271 106q-108 105 -108 261q40 18 101.5 29t107.5 9q-2 -109 43.5 -173t124.5 -64q60 0 93.5 34t33.5 95q0 52 -35 102q-38 47 -160 129q-162 110 -215 193q-53 80 -53 180
q0 153 106 246q104 94 275 94q167 0 268.5 -80.5t132.5 -238.5q-86 -57 -250 -68q-13 106 -48 155.5t-95 49.5q-47 0 -72.5 -29t-25.5 -80q0 -49 34 -92q33 -45 156 -123z" />
    <glyph glyph-name="t" unicode="t" horiz-adv-x="866" 
d="M600 453q118 -10 211 -80q-5 -164 -85.5 -261.5t-219.5 -97.5q-173 0 -268 149.5t-95 426.5q0 176 15 323q-92 11 -148 29q3 116 39 170q52 -16 131 -25q21 138 56 263q188 0 319 -43q-40 -147 -57 -242q175 -3 307 10q0 -70 -31 -168q-110 -19 -305 -16
q-25 -202 -25 -340q0 -354 82 -354q71 0 74 256z" />
    <glyph glyph-name="u" unicode="u" horiz-adv-x="1005" 
d="M453 -20q-188 0 -286.5 145.5t-98.5 421.5q0 139 28 301q27 154 62 217q88 18 139 18q92 0 131 -22q-49 -209 -49 -469q0 -194 32 -308t89 -114q63 0 97 129t34 358q0 101 -8 185q-9 100 -17 131q60 25 146 40t166 15q20 -97 20 -266q0 -383 -123 -582.5t-362 -199.5z
" />
    <glyph glyph-name="v" unicode="v" horiz-adv-x="1003" 
d="M981 1057q-127 -510 -406 -1014q-71 -27 -260 -27q-113 584 -342 1098q140 67 330 70q111 -311 201 -860q152 386 207 798q136 -9 270 -65z" />
    <glyph glyph-name="w" unicode="w" horiz-adv-x="1538" 
d="M1139 -31q-92 -32 -234 -43q-64 399 -143 707q-65 -202 -117 -332q-64 -161 -110 -260q-50 -14 -125 -26t-134 -13q-185 481 -268 1065q168 52 334 55q16 -229 47 -448q29 -206 72 -373q128 359 192 692q168 40 281 37q89 -267 166 -731q128 395 166 745
q82 -6 140.5 -22.5t117.5 -50.5q-74 -289 -174 -557q-95 -247 -211 -445z" />
    <glyph glyph-name="x" unicode="x" horiz-adv-x="1073" 
d="M993 49q-70 -70 -219 -139q-135 239 -258 434q-189 -194 -422 -395q-70 54 -125 153q268 261 420 433q-162 234 -340 434q144 117 293 172q124 -167 262 -387q117 150 277 381q114 -75 190 -207q-197 -237 -338 -387q102 -172 260 -492z" />
    <glyph glyph-name="y" unicode="y" horiz-adv-x="1077" 
d="M975 367q0 -414 -129.5 -632t-372.5 -218q-161 0 -258 89t-109 238q106 78 256 103q19 -133 50.5 -190.5t85.5 -57.5q74 0 117.5 123.5t50.5 367.5q-99 -155 -258 -155q-150 0 -244 137q-96 137 -96 350q0 145 20 262q18 123 74 312q150 0 293 -33q-48 -182 -62 -287
q-18 -114 -18 -239q0 -124 37 -201.5t98 -77.5q94 0 156 160q-5 141 -29 330q-20 153 -53 258q59 25 146 39t171 10q33 -122 53 -312q21 -203 21 -376z" />
    <glyph glyph-name="z" unicode="z" horiz-adv-x="1034" 
d="M907 184q0 -146 -49 -256q-236 3 -461 33q-225 34 -372 86q-3 94 20 176q294 371 621 651q-212 21 -551 13q1 78 14.5 135t44.5 117q454 -20 805 -140q-13 -121 -47 -194q-218 -205 -367 -367q-147 -157 -237 -282q203 -6 319 2q131 6 260 26z" />
    <glyph glyph-name="braceleft" unicode="{" horiz-adv-x="677" 
d="M645 -319q-83 -35 -196 -35q-131 0 -217.5 83.5t-86.5 211.5q0 85 24.5 152.5t86.5 152.5q49 71 68.5 116t19.5 84q0 50 -34 79.5t-91 29.5q-63 0 -119 -16q-30 121 -8 239q59 -12 119 -12q57 0 90 31t33 82q0 38 -18.5 78.5t-71.5 113.5q-70 90 -96.5 156.5t-26.5 146.5
q0 135 84.5 219t218.5 84q109 0 188 -32q14 -72 -24 -168q-45 22 -86 22q-60 0 -94.5 -39.5t-34.5 -107.5q0 -45 17 -88t69 -119q60 -91 81 -149t21 -122q0 -65 -41.5 -121.5t-109.5 -86.5q71 -26 114 -83.5t43 -125.5q0 -62 -18 -114t-70 -136q-51 -75 -67.5 -123.5
t-16.5 -106.5q0 -69 33.5 -108t93.5 -39q47 0 92 18q41 -102 31 -167z" />
    <glyph glyph-name="bar" unicode="|" horiz-adv-x="555" 
d="M375 -326q-37 -12 -89.5 -17t-90.5 -1q-22 363 -31 833q-13 521 -10 971q60 25 129 31.5t123 -6.5q-22 -317 -31 -893q-9 -598 0 -918z" />
    <glyph glyph-name="braceright" unicode="}" horiz-adv-x="663" 
d="M541 -47q0 -128 -97 -213t-237 -82q-62 0 -117 14q-22 77 4 172q46 -12 82 -12q60 0 90.5 34t30.5 97q0 52 -16.5 100.5t-65.5 126.5q-52 87 -69 139t-17 111q2 74 44.5 134.5t115.5 89.5q-72 29 -112 88.5t-38 134.5q0 59 19.5 110t77.5 129q58 82 77 131t19 107
q0 66 -33.5 105.5t-89.5 39.5q-39 0 -74 -12q-22 80 -6 170q47 19 137 19q146 -1 232 -78t86 -205q-3 -74 -25 -139q-21 -56 -96 -168q-56 -82 -78.5 -130t-22.5 -85q0 -54 31.5 -83.5t87.5 -29.5q51 0 101 12q12 -56 11.5 -124.5t-13.5 -112.5q-69 14 -103 14
q-54 0 -87 -30t-34 -81q0 -39 18.5 -81t67.5 -115q57 -82 78.5 -147t20.5 -150z" />
    <glyph glyph-name="asciitilde" unicode="~" horiz-adv-x="901" 
d="M451 766q103 -43 155 -43q57 0 82.5 24.5t24.5 79.5q81 3 133 -20q11 -125 -45 -195.5t-166 -70.5q-77 0 -199 51q-91 37 -133 37q-57 0 -81.5 -25t-20.5 -80q-57 -3 -131 21q-11 125 44.5 195.5t164.5 70.5q56 0 172 -45z" />
    <glyph glyph-name="uni00A0" unicode="&#xa0;" horiz-adv-x="450" 
 />
    <glyph glyph-name="exclamdown" unicode="&#xa1;" horiz-adv-x="573" 
d="M254 1155q86 0 152 -27q9 -144 0 -262h-95q-48 0 -180 6q-3 55 -6 116t-4 71q-1 13 -4 40.5t-4 41.5q60 14 141 14zM397 637q23 -233 31 -414q8 -177 8 -448q0 -21 -4 -119q-101 -49 -203 -49q-70 0 -131 20q37 232 54 502q18 282 12 516q24 8 86 8q72 0 147 -16z" />
    <glyph glyph-name="cent" unicode="&#xa2;" horiz-adv-x="993" 
d="M938 383q-35 -114 -164 -201q-134 -90 -305 -90q-3 0 -84 6q-41 -136 -84 -217q-48 5 -103.5 24.5t-93.5 45.5q72 112 111 221q-74 60 -114 159t-40 226q0 288 150 494q149 204 379 204q64 0 117 -12q35 113 75 182q42 -2 95.5 -20t95.5 -47q-70 -126 -103 -211
q80 -93 80 -244q-101 -49 -272 -49q0 240 -109 240q-82 0 -141 -160q-61 -158 -61 -365q0 -140 41 -218.5t116 -78.5q124 0 246 222q48 -11 96 -42t72 -69z" />
    <glyph glyph-name="sterling" unicode="&#xa3;" horiz-adv-x="1054" 
d="M477 -41q-123 18 -190 18q-51 0 -95.5 -10.5t-111.5 -40.5q-50 77 -53 152q127 74 235 84q66 75 66 166q0 68 -23 118q-42 -1 -272 3q-10 113 4 174q27 -2 141 -2q-119 167 -119 323q0 183 140 311q138 123 354 123q197 0 315.5 -131.5t130.5 -363.5q-118 -37 -297 -9
q7 155 -32 238.5t-119 83.5q-82 0 -127 -72.5t-45 -201.5q0 -76 17 -140t63 -149q244 14 397 45q5 -39 10 -80q0 -65 -16 -115q-131 -20 -318 -30q1 -15 3 -33.5t2 -26.5q0 -140 -111 -248q62 -12 141 -12q220 10 432 84q23 -56 32 -131t1 -139q-143 -17 -246 -17
q-130 3 -309 29z" />
    <glyph glyph-name="currency" unicode="&#xa4;" horiz-adv-x="1150" 
d="M723 760q0 295 -145 295q-74 0 -120 -95t-46 -247q0 -131 43 -220.5t108 -89.5q69 0 115 107q45 102 45 250zM805 344q-118 -106 -295 -106q-122 0 -207 59q-89 -125 -160 -193q-42 18 -88.5 53.5t-72.5 71.5q125 114 202 220q-43 105 -43 225q0 207 107 358
q-102 94 -182 195q20 38 61 80t82 67q89 -132 178 -217q112 64 246 64q130 0 215 -58q90 130 160 191q37 -13 81.5 -48.5t77.5 -74.5q-123 -111 -200 -215q30 -64 30 -172q0 -202 -84 -355q137 -121 203 -208q-24 -40 -63.5 -80t-79.5 -62q-105 147 -168 205z" />
    <glyph glyph-name="yen" unicode="&#xa5;" horiz-adv-x="1126" 
d="M659 -72q-118 -30 -253 -30q1 24 2 73.5t2 75.5v236q-141 0 -314 10q0 118 19 196q120 -9 291 -12v39q-3 35 -3 39q-1 3 -3.5 10t-7.5 18.5t-9 22.5q-162 -4 -293 4q-4 133 12 197q171 -6 191 -6q-92 191 -252 461q46 73 143 108q89 29 119 31q147 -281 260 -645
q87 150 151.5 303t125.5 354q127 -24 239 -133q-106 -258 -239 -475q117 9 204 24q11 -43 11 -94q-3 -55 -33 -100q-170 -26 -311 -29l-17 -24q-2 -23 -2 -101q186 9 330 25q7 -39 4 -82q0 -57 -20 -113q-210 -20 -322 -22q-8 -160 -25 -361z" />
    <glyph glyph-name="brokenbar" unicode="&#xa6;" horiz-adv-x="559" 
d="M403 1485q-20 -264 -30 -713q-85 -15 -217 -12q-16 409 -4 700q60 25 128.5 31.5t122.5 -6.5zM373 -326q-37 -12 -89.5 -17t-90.5 -1q-20 273 -31 795q100 13 209 -2q-2 -137 -2 -412q0 -159 4 -363z" />
    <glyph glyph-name="section" unicode="&#xa7;" horiz-adv-x="899" 
d="M426 682q-111 -34 -111 -147q0 -50 37.5 -96t130.5 -107q107 36 107 145q0 55 -34.5 99t-129.5 106zM809 -76q0 -139 -104 -227q-110 -90 -273 -90q-152 0 -246 77t-135 236q38 26 94.5 45.5t104.5 20.5q48 -232 184 -232q51 0 82 35t31 92q0 63 -48.5 121t-160.5 125
q-145 89 -204.5 170.5t-59.5 181.5q0 96 57 173t158 120q-86 66 -126 139t-40 164q0 141 104 232q107 90 269 90q302 0 366 -295q-64 -39 -209 -51q-17 103 -52.5 149.5t-98.5 46.5q-56 0 -86.5 -34t-30.5 -95q0 -63 47.5 -120.5t153.5 -123.5q139 -83 193.5 -160t54.5 -182
q0 -96 -56 -171.5t-157 -118.5q98 -72 143 -148t45 -170z" />
    <glyph glyph-name="dieresis" unicode="&#xa8;" horiz-adv-x="532" 
d="M80 1538q96 0 158 -33q-20 -43 -42 -117t-34 -137q-94 -15 -258 -12q-21 65 -21 131q0 76 23 133q72 38 174 35zM498 1538q95 0 157 -33q-48 -106 -75 -254q-94 -15 -258 -12q-21 65 -21 131q0 76 23 133q72 38 174 35z" />
    <glyph glyph-name="copyright" unicode="&#xa9;" horiz-adv-x="1685" 
d="M891 1442q332 0 532 -215q197 -215 197 -555q0 -377 -209 -592q-212 -215 -582 -215q-351 0 -555 207q-208 205 -208 553q0 351 235 583q234 234 590 234zM846 35q262 0 410.5 170t148.5 471q0 277 -143.5 435.5t-395.5 158.5q-251 0 -420 -178q-167 -179 -167 -453
q0 -277 151 -442q149 -162 416 -162zM977 555q49 4 101 -5t75 -26q-8 -131 -97.5 -204.5t-242.5 -73.5q-148 0 -229.5 88t-81.5 252q0 209 119 352q117 141 294 141q110 0 176.5 -65.5t77.5 -184.5q-59 -26 -101 -33.5t-116 -7.5q0 75 -20 116.5t-55 41.5q-51 0 -85 -88.5
t-34 -216.5q0 -123 29.5 -188.5t86.5 -65.5t85 45t18 123z" />
    <glyph glyph-name="ordfeminine" unicode="&#xaa;" horiz-adv-x="645" 
d="M602 1257q0 -132 -74 -452q-65 0 -178 18q5 32 6 51q-52 -22 -118 -22q-98 0 -156.5 47t-58.5 127q0 162 272 162q76 0 86 -2q0 107 -13 147.5t-46 40.5q-30 0 -50.5 -37t-21.5 -96q-128 15 -184 82q82 168 274 168q129 0 195.5 -59.5t66.5 -174.5zM254 1012
q0 -58 57 -58q34 0 58 15q10 110 10 125q-125 -3 -125 -82z" />
    <glyph glyph-name="guillemotleft" unicode="&#xab;" horiz-adv-x="1124" 
d="M1090 246q-37 -61 -79 -99.5t-102 -64.5q-268 216 -389 461q122 91 214 194.5t171 235.5q133 -68 185 -150q-169 -199 -318 -299q121 -146 318 -278zM584 246q-37 -61 -79 -99.5t-102 -64.5q-268 216 -389 461q122 91 214 194.5t171 235.5q133 -68 185 -150
q-169 -199 -318 -299q121 -146 318 -278z" />
    <glyph glyph-name="logicalnot" unicode="&#xac;" horiz-adv-x="909" 
d="M846 821q21 -221 -19 -493q-91 0 -192 14q19 119 22 274q-301 -24 -602 17q0 88 15 190q361 -47 776 -2z" />
    <glyph glyph-name="uni00AD" unicode="&#xad;" 
 />
    <glyph glyph-name="registered" unicode="&#xae;" horiz-adv-x="1685" 
d="M891 1442q332 0 532 -215q197 -215 197 -555q0 -377 -209 -592q-212 -215 -582 -215q-351 0 -555 207q-208 205 -208 553q0 351 235 583q234 234 590 234zM279 639q0 -277 151 -442q149 -162 416 -162q262 0 410.5 170t148.5 471q0 277 -143.5 435.5t-395.5 158.5
q-251 0 -420 -178q-167 -179 -167 -453zM1219 293q-72 -69 -211 -111q-79 184 -109 240q-39 74 -86 139q-3 0 -8 -1.5t-11.5 -3.5t-9.5 -3q-2 -90 -20 -315q-91 -3 -199 14q0 32 2 67v66q0 266 -41 643q140 98 312 98q147 0 236 -67t89 -176q0 -69 -44 -132t-128 -112
q124 -136 228 -346zM778 995q8 -205 8 -299v-20q146 38 146 186q0 63 -30.5 100t-84.5 37q-3 0 -13.5 -1.5t-25.5 -2.5z" />
    <glyph glyph-name="overscore" unicode="&#xaf;" horiz-adv-x="530" 
d="M496 1282q-153 -24 -275 -21t-186 33q-4 32 -3 82.5t7 81.5q228 -37 457 -14q9 -78 0 -162z" />
    <glyph glyph-name="degree" unicode="&#xb0;" horiz-adv-x="548" 
d="M20 1290q0 111 73.5 175.5t201.5 64.5q108 0 170.5 -55t62.5 -148q0 -131 -68.5 -201.5t-197.5 -70.5q-110 0 -176 64.5t-66 170.5zM367 1309q0 57 -22.5 87.5t-63.5 30.5q-44 0 -72.5 -39t-28.5 -102q0 -57 23.5 -89t66.5 -32t70 40.5t27 103.5z" />
    <glyph glyph-name="plusminus" unicode="&#xb1;" horiz-adv-x="911" 
d="M565 657q-3 -156 -22 -284q-103 -12 -191 -4q13 144 21 288q-164 3 -303 25q0 95 14 190q106 -13 289 -22q-8 141 -21 276q105 13 191 11q19 -119 22 -287q184 10 295 20q0 -100 -24 -188q-136 -17 -271 -25zM43 121q0 95 14 190q361 -47 777 -2q0 -96 -25 -188
q-177 -25 -379 -25q-204 0 -387 25z" />
    <glyph glyph-name="twosuperior" unicode="&#xb2;" horiz-adv-x="712" 
d="M662 764q-3 -124 -39 -197q-148 3 -330 25q-184 22 -281 53q-3 62 17 119q215 136 312 244t97 211q0 44 -18 71t-49 27q-38 0 -63.5 -41t-45.5 -137q-139 0 -229 41q73 268 350 268q137 0 223 -71.5t86 -186.5q0 -106 -91.5 -218.5t-260.5 -211.5q221 -3 322 4z" />
    <glyph glyph-name="threesuperior" unicode="&#xb3;" horiz-adv-x="745" 
d="M711 846q0 -130 -99 -213q-100 -86 -247 -86q-142 0 -226.5 72t-91.5 202q90 41 229 41q0 -85 29 -134.5t74 -49.5q76 0 76 119q0 98 -60 148.5t-159 33.5q-18 71 -21 129q135 63 234 162q-210 -15 -375 -51q-25 67 -25 178q109 34 285 55q162 20 330 23q34 -81 34 -197
q-99 -110 -221 -195q112 -25 173 -87t61 -150z" />
    <glyph glyph-name="acute" unicode="&#xb4;" horiz-adv-x="532" 
d="M422 1509q-23 -161 -141 -340q-102 0 -181 23q61 173 70 338q61 11 131 5t121 -26z" />
    <glyph glyph-name="uni00B5" unicode="&#xb5;" horiz-adv-x="1064" 
d="M272 53q26 -247 97 -471q-52 -12 -109 -12q-106 0 -170 37q-25 414 -18 702q3 317 92 754q138 -3 293 -35q-72 -389 -72 -637q0 -88 22.5 -128t73.5 -40q54 0 105 58.5t88 162.5q17 426 -2 689q42 13 117 22.5t139 9.5q26 -229 43 -563q18 -350 18 -590q-79 -37 -227 -37
q-58 0 -121 13q10 81 18 194q-112 -186 -251 -186q-88 0 -136 57z" />
    <glyph glyph-name="paragraph" unicode="&#xb6;" horiz-adv-x="1445" 
d="M1311 1423q6 -433 -15 -1026q-22 -631 -59 -985q-110 -26 -184 -26q45 677 57 946q15 466 4 950q-54 16 -106 27q6 -419 -15 -871q-22 -465 -73 -1026q-64 -21 -183 -18q1 9 29 448q25 445 25 588q-689 199 -689 682q0 204 156 324t418 120q144 0 270 -24
q107 -20 365 -109z" />
    <glyph glyph-name="middot" unicode="&#xb7;" horiz-adv-x="466" 
d="M98 631q145 37 310 12q-3 -133 -25 -268q-145 -13 -274 2q-9 120 -9 164q-2 29 -2 90z" />
    <glyph glyph-name="cedilla" unicode="&#xb8;" horiz-adv-x="534" 
d="M506 -258q0 -94 -70.5 -151.5t-187.5 -57.5q-82 0 -142 38.5t-86 109.5q58 37 115 61q14 -43 43 -68.5t66 -25.5q35 0 56.5 20.5t21.5 55.5q0 32 -20.5 51.5t-55.5 19.5q-40 0 -72 -18q-38 30 -49 49q56 91 59 199l109 -25q-3 -42 -23 -100q48 6 56 6q80 0 130 -45.5
t50 -118.5z" />
    <glyph glyph-name="onesuperior" unicode="&#xb9;" horiz-adv-x="634" 
d="M444 573q-61 -20 -131 -20q-44 0 -75 8q1 20 4 56.5t4 58.5q13 288 51 512q-92 -60 -145 -90q-83 60 -127 166q240 107 440 247q99 -36 145 -90q-50 -123 -96 -366q-48 -237 -70 -482z" />
    <glyph glyph-name="ordmasculine" unicode="&#xba;" horiz-adv-x="643" 
d="M29 1102q0 158 96 262q95 102 248 102q117 0 179 -62t62 -179q0 -165 -92 -283q-94 -119 -254 -119q-112 0 -175.5 75.5t-63.5 203.5zM383 1161q0 176 -59 176q-31 0 -49.5 -56t-18.5 -148q0 -77 17 -129t46 -52q30 0 47 57.5t17 151.5z" />
    <glyph glyph-name="guillemotright" unicode="&#xbb;" horiz-adv-x="1124" 
d="M1108 543q-121 -245 -389 -461q-60 26 -101.5 64t-78.5 100q195 131 317 278q-161 112 -319 299q58 84 194 154q85 -138 174 -240t203 -194zM602 543q-121 -245 -389 -461q-60 26 -101.5 64t-78.5 100q195 131 317 278q-161 112 -319 299q58 84 194 154q85 -138 174 -240
t203 -194z" />
    <glyph glyph-name="onequarter" unicode="&#xbc;" horiz-adv-x="1742" 
d="M440 645q-61 -20 -131 -20q-45 0 -76 8q1 20 4.5 56.5t4.5 58.5q13 288 51 512q-98 -64 -146 -91q-83 60 -127 166q239 106 441 248q99 -36 145 -90q-49 -122 -96 -367q-48 -238 -70 -481zM999 1624q129 -26 222 -119q-164 -390 -351 -764q-201 -399 -446 -817
q-94 24 -178 92q495 884 753 1608zM1513 -31q-47 -20 -133 -20q-35 -3 -73 6q-4 50 -4 119q0 67 2 90q-233 20 -279 26q-89 11 -111 13q-12 24 -28 102q117 180 190 332q68 139 135 346q99 0 238 -51q-114 -307 -272 -559q44 -8 86.5 -14.5t52.5 -8.5q9 92 26 170
q64 28 158 31q41 0 113 -14q-31 -80 -55 -218q113 -10 155 -12q0 -45 -12.5 -93t-32.5 -77q-2 0 -13 1t-26 1q-38 2 -98 6q-4 -29 -19 -176z" />
    <glyph glyph-name="onehalf" unicode="&#xbd;" horiz-adv-x="1693" 
d="M440 643q-61 -20 -131 -20q-45 0 -76 8q1 20 4.5 56t4.5 58q13 288 51 512q-84 -55 -146 -90q-83 60 -127 166q239 106 441 248q99 -36 145 -90q-49 -122 -96 -367q-48 -238 -70 -481zM993 1626q127 -26 221 -119q-169 -402 -350 -764q-201 -399 -446 -817
q-94 24 -178 92q495 884 753 1608zM1579 172q-3 -124 -39 -197q-168 3 -330 23q-189 26 -280 55q-3 64 16 119q215 137 312.5 244.5t97.5 210.5q0 44 -18.5 71t-49.5 27q-38 0 -63 -40.5t-45 -137.5q-140 0 -230 41q73 268 350 268q137 0 223.5 -71.5t86.5 -186.5
q0 -106 -91.5 -218.5t-261.5 -211.5q221 -3 322 4z" />
    <glyph glyph-name="threequarters" unicode="&#xbe;" horiz-adv-x="1865" 
d="M1163 1624q127 -26 221 -119q-169 -402 -350 -764q-201 -399 -446 -817q-94 24 -178 92q495 884 753 1608zM717 952q0 -130 -99 -213q-100 -86 -247 -86q-142 0 -226.5 72.5t-91.5 202.5q90 41 230 41q0 -85 28.5 -135t73.5 -50q76 0 76 119q0 98 -60 148.5t-159 33.5
q-18 71 -21 129q135 63 234 162q-210 -15 -375 -51q-25 67 -25 178q115 36 285 56q153 19 330 22q35 -84 35 -197q-95 -105 -222 -194q112 -25 173 -87.5t61 -150.5zM1642 -25q-47 -20 -133 -20q-35 -3 -73 6q-4 50 -4 119q0 67 2 90q-208 18 -279 27t-111 12
q-12 24 -28 102q117 180 190 332q68 139 135 346q99 0 238 -51q-114 -307 -272 -559q44 -8 86.5 -14.5t52.5 -8.5q8 83 27 170q64 28 157 31q41 0 113 -14q-31 -80 -55 -217q138 -12 155 -13q0 -45 -12.5 -93t-32.5 -77q-2 0 -13 1t-26 1q-8 0 -98 7q-4 -26 -19 -177z" />
    <glyph glyph-name="questiondown" unicode="&#xbf;" horiz-adv-x="927" 
d="M387 877q-3 43 -8 100t-6 72q-10 85 -11 96q72 14 142 16q86 0 149 -26q12 -135 4 -263h-79q-11 0 -36.5 1t-69 2t-85.5 2zM958 10q-12 -217 -129 -329.5t-331 -112.5q-193 0 -318 110q-127 115 -127 283q0 148 96.5 254t268.5 147q0 11 1 53.5t1 88.5t1 89t1 54
q95 24 221 21q38 -236 41 -359q-152 -31 -232.5 -121t-80.5 -227q0 -105 36.5 -164t102.5 -59q76 0 122 87.5t46 235.5q169 0 280 -51z" />
    <glyph glyph-name="Agrave" unicode="&#xc0;" horiz-adv-x="1329" 
d="M1311 -133q-106 -70 -305 -96q-38 310 -103 583q-260 0 -479 -28q-90 -231 -168 -381q-165 29 -252 133q172 316 287 614q115 299 233 758q153 -3 281 -33q185 -322 309 -700.5t197 -849.5zM659 1094q-76 -305 -159 -553q197 25 348 28q-87 302 -189 525zM692 1898
q9 -166 70 -339q-91 -23 -180 -23q-122 190 -142 340q103 39 252 22z" />
    <glyph glyph-name="Aacute" unicode="&#xc1;" horiz-adv-x="1329" 
d="M1311 -133q-106 -70 -305 -96q-38 310 -103 583q-260 0 -479 -28q-90 -231 -168 -381q-165 29 -252 133q172 316 287 614q115 299 233 758q153 -3 281 -33q185 -322 309 -700.5t197 -849.5zM659 1094q-76 -305 -159 -553q197 25 348 28q-87 302 -189 525zM899 1874
q-23 -161 -141 -340q-104 0 -180 22q59 170 69 338q61 11 131.5 5.5t120.5 -25.5z" />
    <glyph glyph-name="Acircumflex" unicode="&#xc2;" horiz-adv-x="1329" 
d="M1311 -133q-106 -70 -305 -96q-38 310 -103 583q-260 0 -479 -28q-90 -231 -168 -381q-165 29 -252 133q172 316 287 614q115 299 233 758q153 -3 281 -33q185 -322 309 -700.5t197 -849.5zM659 1094q-76 -305 -159 -553q197 25 348 28q-87 302 -189 525zM958 1618
q-59 -74 -133 -100q-100 88 -155 168q-56 -81 -158 -173q-71 25 -129 97q130 119 197 250q31 8 79 8q58 0 99 -8q58 -119 200 -242z" />
    <glyph glyph-name="Atilde" unicode="&#xc3;" horiz-adv-x="1329" 
d="M1311 -133q-106 -70 -305 -96q-38 310 -103 583q-260 0 -479 -28q-90 -231 -168 -381q-165 29 -252 133q172 316 287 614q115 299 233 758q153 -3 281 -33q185 -322 309 -700.5t197 -849.5zM659 1094q-76 -305 -159 -553q197 25 348 28q-87 302 -189 525zM670 1722
q59 -30 94 -30q60 0 57 77q77 3 121 -18q8 -103 -31 -162t-116 -59q-55 0 -125 37q-48 28 -82 28q-61 0 -58 -75q-55 -3 -118 16q-7 104 31.5 162.5t113.5 58.5q39 0 113 -35z" />
    <glyph glyph-name="Adieresis" unicode="&#xc4;" horiz-adv-x="1329" 
d="M1311 -133q-106 -70 -305 -96q-38 310 -103 583q-260 0 -479 -28q-90 -231 -168 -381q-165 29 -252 133q172 316 287 614q115 299 233 758q153 -3 281 -33q185 -322 309 -700.5t197 -849.5zM659 1094q-76 -305 -159 -553q197 25 348 28q-87 302 -189 525zM498 1839
q95 0 157 -33q-48 -106 -75 -254q-94 -15 -258 -12q-21 64 -21 131q0 75 23 133q72 38 174 35zM915 1839q96 0 158 -33q-20 -43 -42 -117t-34 -137q-94 -15 -258 -12q-20 61 -20 131q0 78 22 133q72 38 174 35z" />
    <glyph glyph-name="Aring" unicode="&#xc5;" horiz-adv-x="1329" 
d="M1311 -133q-106 -70 -305 -96q-38 310 -103 583q-260 0 -479 -28q-90 -231 -168 -381q-165 29 -252 133q172 316 287 614q115 299 233 758q153 -3 281 -33q185 -322 309 -700.5t197 -849.5zM659 1094q-76 -305 -159 -553q197 25 348 28q-87 302 -189 525zM471 1704
q0 97 66.5 156t175.5 59q87 0 135.5 -43t48.5 -121q0 -105 -66 -169t-174 -64q-84 0 -135 50t-51 132zM741 1733q0 100 -53 100q-29 0 -47 -34t-18 -89q0 -43 15.5 -69.5t41.5 -26.5q29 0 45 32t16 87z" />
    <glyph glyph-name="AE" unicode="&#xc6;" horiz-adv-x="1789" 
d="M1720 -25q-124 -23 -374 -43q-243 -17 -463 -20q-39 316 -49 424q-202 -3 -394 -29q-85 -184 -182 -366q-77 13 -143.5 49t-108.5 86q178 310 301 614q125 318 242 754q107 0 262 -37q288 54 473 74q175 17 385 20q3 -96 -27 -254q-298 0 -546 -26q-8 -157 -4 -392
q250 60 462 68q28 -117 25 -244q-270 -9 -479 -41q9 -228 37 -462q124 4 272 22q159 17 283 43q12 -35 20 -106t8 -134zM770 1184q-91 -312 -235 -660q145 22 278 25q-29 335 -43 635z" />
    <glyph glyph-name="Ccedilla" unicode="&#xc7;" horiz-adv-x="1204" 
d="M883 469q66 6 133.5 -6t105.5 -37q-17 -240 -154 -369t-378 -129q-242 0 -376 163.5t-134 459.5q0 373 186 620q184 248 471 248q186 0 288.5 -116.5t113.5 -337.5q-78 -37 -139 -49.5t-152 -10.5q9 320 -162 320q-114 0 -190 -172q-80 -174 -80 -428q0 -240 64.5 -368
t185.5 -128q115 0 172 90.5t45 249.5zM874 -305q0 -94 -70.5 -151.5t-187.5 -57.5q-83 0 -142 38t-85 109q62 40 115 62q14 -43 43 -68.5t65 -25.5t57 20t21 55q0 33 -20.5 52.5t-55.5 19.5q-39 0 -71 -18q-38 30 -49 49q56 91 59 198l109 -24q-3 -42 -23 -100q48 6 55 6
q80 0 130 -45.5t50 -118.5z" />
    <glyph glyph-name="Egrave" unicode="&#xc8;" horiz-adv-x="1171" 
d="M1102 -23q-124 -23 -375 -43q-243 -17 -463 -20q-50 329 -94 784q-42 439 -45 705q309 59 504 78q208 21 424 24q0 -109 -29 -254q-301 -3 -545 -26q-9 -173 -6 -391q233 56 465 65q25 -106 25 -244q-322 -13 -482 -39q12 -261 39 -464q110 3 279 24q144 15 276 41
q12 -37 20.5 -110.5t6.5 -129.5zM623 1905q10 -171 69 -340q-91 -23 -180 -23q-121 188 -141 340q105 40 252 23z" />
    <glyph glyph-name="Eacute" unicode="&#xc9;" horiz-adv-x="1171" 
d="M1102 -23q-124 -23 -375 -43q-243 -17 -463 -20q-50 329 -94 784q-42 439 -45 705q309 59 504 78q208 21 424 24q0 -109 -29 -254q-301 -3 -545 -26q-9 -173 -6 -391q233 56 465 65q25 -106 25 -244q-322 -13 -482 -39q12 -261 39 -464q110 3 279 24q144 15 276 41
q12 -37 20.5 -110.5t6.5 -129.5zM743 1884q-23 -161 -141 -340q-101 0 -180 23q61 173 70 338q61 11 130.5 5t120.5 -26z" />
    <glyph glyph-name="Ecircumflex" unicode="&#xca;" horiz-adv-x="1171" 
d="M1102 -23q-124 -23 -375 -43q-243 -17 -463 -20q-50 329 -94 784q-42 439 -45 705q309 59 504 78q208 21 424 24q0 -109 -29 -254q-301 -3 -545 -26q-9 -173 -6 -391q233 56 465 65q25 -106 25 -244q-322 -13 -482 -39q12 -261 39 -464q110 3 279 24q144 15 276 41
q12 -37 20.5 -110.5t6.5 -129.5zM860 1647q-60 -75 -133 -101q-103 90 -156 168q-55 -81 -157 -172q-72 26 -129 96q71 65 115.5 122.5t80.5 127.5q31 8 80 8q57 0 98 -8q57 -116 201 -241z" />
    <glyph glyph-name="Edieresis" unicode="&#xcb;" horiz-adv-x="1171" 
d="M1102 -23q-124 -23 -375 -43q-243 -17 -463 -20q-50 329 -94 784q-42 439 -45 705q309 59 504 78q208 21 424 24q0 -109 -29 -254q-301 -3 -545 -26q-9 -173 -6 -391q233 56 465 65q25 -106 25 -244q-322 -13 -482 -39q12 -261 39 -464q110 3 279 24q144 15 276 41
q12 -37 20.5 -110.5t6.5 -129.5zM412 1882q95 0 157 -33q-48 -106 -75 -254q-94 -15 -258 -12q-21 65 -21 131q0 76 23 133q72 38 174 35zM829 1882q96 0 158 -33q-20 -43 -42 -117t-34 -137q-94 -15 -258 -12q-20 61 -20 131q0 78 22 133q72 38 174 35z" />
    <glyph glyph-name="Igrave" unicode="&#xcc;" horiz-adv-x="598" 
d="M461 1044q0 -590 -33 -1075q-42 -12 -116.5 -21t-139.5 -9q3 849 -57 1413q79 51 194 51q61 0 144 -17q8 -128 8 -342zM313 1880q9 -167 70 -340q-87 -22 -180 -22q-122 190 -142 340q103 39 252 22z" />
    <glyph glyph-name="Iacute" unicode="&#xcd;" horiz-adv-x="598" 
d="M461 1044q0 -590 -33 -1075q-42 -12 -116.5 -21t-139.5 -9q3 849 -57 1413q79 51 194 51q61 0 144 -17q8 -128 8 -342zM492 1868q-23 -159 -142 -340q-104 0 -180 22q61 173 70 338q61 11 131.5 5.5t120.5 -25.5z" />
    <glyph glyph-name="Icircumflex" unicode="&#xce;" horiz-adv-x="598" 
d="M461 1044q0 -590 -33 -1075q-42 -12 -116.5 -21t-139.5 -9q3 849 -57 1413q79 51 194 51q61 0 144 -17q8 -128 8 -342zM561 1618q-59 -74 -133 -100q-103 90 -156 168q-57 -84 -157 -173q-71 25 -129 97q71 65 115.5 122.5t80.5 127.5q31 8 80 8q57 0 98 -8
q57 -118 201 -242z" />
    <glyph glyph-name="Idieresis" unicode="&#xcf;" horiz-adv-x="598" 
d="M461 1044q0 -590 -33 -1075q-42 -12 -116.5 -21t-139.5 -9q3 849 -57 1413q79 51 194 51q61 0 144 -17q8 -128 8 -342zM104 1868q96 0 158 -33q-20 -43 -42 -117t-34 -137q-94 -15 -258 -12q-20 61 -20 131q0 78 22 133q72 38 174 35zM522 1868q96 0 158 -33
q-20 -43 -42 -117t-34 -137q-94 -15 -258 -12q-20 61 -20 131q0 78 22 133q72 38 174 35z" />
    <glyph glyph-name="Eth" unicode="&#xd0;" horiz-adv-x="1247" 
d="M412 680q-2 -59 -2 -258q0 -5 4 -217q223 97 340.5 276.5t117.5 423.5q0 174 -89.5 272.5t-250.5 98.5q-46 0 -92 -12q-21 -233 -24 -420q211 17 219 18q3 -121 -2 -157q-131 -18 -221 -25zM1190 905q0 -298 -217 -561q-215 -260 -551 -364q-118 0 -262 20
q-35 457 -43 674q-75 4 -162 10q-11 101 4 162q3 0 19 -1t32 -1q26 -1 57.5 -2.5t43.5 -1.5q-2 47 -2 200q0 22 6 322q223 106 440 106q312 0 473.5 -143.5t161.5 -419.5z" />
    <glyph glyph-name="Ntilde" unicode="&#xd1;" horiz-adv-x="1386" 
d="M442 481q0 -102 2 -159q11 -310 13 -379q-97 -27 -252 -31q-76 931 -76 1446q9 10 29 16q129 66 305 78q158 -216 277.5 -433t224.5 -474v174q0 544 -37 784q158 50 317 53q10 -198 10 -432q0 -530 -41 -1065q-161 -27 -274 -30q-155 365 -256 559q-106 203 -242 395
q-3 -240 0 -502zM680 1802q59 -30 94 -30q60 0 57 77q77 3 121 -18q8 -103 -31 -162t-116 -59q-55 0 -125 37q-48 28 -82 28q-60 0 -57 -76q-53 -3 -119 17q-7 104 31.5 162.5t113.5 58.5q39 0 113 -35z" />
    <glyph glyph-name="Ograve" unicode="&#xd2;" horiz-adv-x="1286" 
d="M717 1501q238 0 365.5 -168t127.5 -481q0 -157 -38.5 -314t-106.5 -274q-173 -305 -498 -305q-234 0 -366 197q-133 195 -133 518q0 367 180 596q182 231 469 231zM625 164q127 0 195.5 160.5t68.5 447.5q0 272 -55.5 396t-178.5 124q-125 0 -198 -155q-74 -157 -74 -418
q0 -255 64 -405t178 -150zM725 1917q9 -167 70 -340q-91 -23 -181 -23q-121 188 -141 340q105 40 252 23z" />
    <glyph glyph-name="Oacute" unicode="&#xd3;" horiz-adv-x="1286" 
d="M717 1501q238 0 365.5 -168t127.5 -481q0 -157 -38.5 -314t-106.5 -274q-173 -305 -498 -305q-234 0 -366 197q-133 195 -133 518q0 367 180 596q182 231 469 231zM625 164q127 0 195.5 160.5t68.5 447.5q0 272 -55.5 396t-178.5 124q-125 0 -198 -155q-74 -157 -74 -418
q0 -255 64 -405t178 -150zM821 1888q-23 -161 -141 -340q-101 0 -180 23q59 170 69 338q61 11 131 5t121 -26z" />
    <glyph glyph-name="Ocircumflex" unicode="&#xd4;" horiz-adv-x="1286" 
d="M717 1501q238 0 365.5 -168t127.5 -481q0 -157 -38.5 -314t-106.5 -274q-173 -305 -498 -305q-234 0 -366 197q-133 195 -133 518q0 367 180 596q182 231 469 231zM625 164q127 0 195.5 160.5t68.5 447.5q0 272 -55.5 396t-178.5 124q-125 0 -198 -155q-74 -157 -74 -418
q0 -255 64 -405t178 -150zM936 1645q-60 -75 -133 -101q-103 90 -156 168q-54 -79 -158 -172q-72 26 -129 96q130 119 197 250q31 8 80 8q57 0 98 -8q57 -116 201 -241z" />
    <glyph glyph-name="Otilde" unicode="&#xd5;" horiz-adv-x="1286" 
d="M717 1501q238 0 365.5 -168t127.5 -481q0 -157 -38.5 -314t-106.5 -274q-173 -305 -498 -305q-234 0 -366 197q-133 195 -133 518q0 367 180 596q182 231 469 231zM625 164q127 0 195.5 160.5t68.5 447.5q0 272 -55.5 396t-178.5 124q-125 0 -198 -155q-74 -157 -74 -418
q0 -255 64 -405t178 -150zM664 1806q59 -30 94 -30q60 0 57 77q77 3 121 -18q8 -103 -31 -162t-117 -59q-54 0 -124 37q-48 28 -82 28q-61 0 -58 -75q-55 -3 -118 16q-7 104 31.5 162.5t113.5 58.5q39 0 113 -35z" />
    <glyph glyph-name="Odieresis" unicode="&#xd6;" horiz-adv-x="1286" 
d="M717 1501q238 0 365.5 -168t127.5 -481q0 -157 -38.5 -314t-106.5 -274q-173 -305 -498 -305q-234 0 -366 197q-133 195 -133 518q0 367 180 596q182 231 469 231zM625 164q127 0 195.5 160.5t68.5 447.5q0 272 -55.5 396t-178.5 124q-125 0 -198 -155q-74 -157 -74 -418
q0 -255 64 -405t178 -150zM471 1892q98 0 158 -32q-20 -43 -42 -117t-34 -137q-100 -16 -258 -13q-21 65 -21 131q0 76 23 134q70 37 174 34zM889 1892q98 0 158 -32q-20 -43 -42 -117t-34 -137q-100 -16 -258 -13q-21 65 -21 131q0 76 23 134q70 37 174 34z" />
    <glyph glyph-name="multiply" unicode="&#xd7;" horiz-adv-x="911" 
d="M811 444q-63 -76 -133 -135q-74 94 -199 230q-143 -143 -246 -228q-74 71 -127 142q139 124 238 223q-128 119 -238 207q48 60 130 139q111 -80 243 -209q23 25 64.5 70t76 82t64.5 71q78 -78 119 -151q-110 -129 -189 -209q89 -89 197 -232z" />
    <glyph glyph-name="Oslash" unicode="&#xd8;" horiz-adv-x="1275" 
d="M649 1292q-121 0 -192.5 -155t-71.5 -418q0 -101 18 -238q168 299 392 748q-54 63 -146 63zM500 223q50 -59 121 -59q127 0 195.5 160.5t68.5 447.5q0 9 -4 141q-143 -274 -381 -690zM1059 264q-173 -305 -498 -305q-103 0 -190 41q-6 -10 -23 -39t-35 -59
q-14 -23 -26.5 -45.5t-16.5 -28.5q-68 23 -109 47t-79 62q47 74 125 206q-139 199 -139 531q0 367 180 596q178 231 465 231q109 0 196 -37q8 18 31 66t43 92q50 -14 102.5 -46t90.5 -73q-4 -10 -17.5 -37.5t-25.5 -54.5q-11 -23 -26 -51.5t-20 -40.5q117 -168 117 -467
q0 -157 -38.5 -314t-106.5 -274z" />
    <glyph glyph-name="Ugrave" unicode="&#xd9;" horiz-adv-x="1187" 
d="M1018 1452q86 -366 86 -645q0 -482 -144.5 -726.5t-431.5 -244.5q-440 0 -440 713q0 197 35 418q35 220 74 311q86 20 157 20q84 0 133 -22q-69 -327 -69 -662q0 -571 160 -571q96 0 150 173.5t54 475.5q0 331 -90 703q61 24 150.5 39.5t175.5 17.5zM561 1798
q9 -167 70 -340q-87 -22 -180 -22q-122 190 -142 340q103 39 252 22z" />
    <glyph glyph-name="Uacute" unicode="&#xda;" horiz-adv-x="1187" 
d="M1018 1452q86 -366 86 -645q0 -482 -144.5 -726.5t-431.5 -244.5q-440 0 -440 713q0 197 35 418q35 220 74 311q86 20 157 20q84 0 133 -22q-69 -327 -69 -662q0 -571 160 -571q96 0 150 173.5t54 475.5q0 331 -90 703q61 24 150.5 39.5t175.5 17.5zM737 1772
q-23 -161 -141 -340q-104 0 -180 22q59 170 69 338q61 11 131.5 5.5t120.5 -25.5z" />
    <glyph glyph-name="Ucircumflex" unicode="&#xdb;" horiz-adv-x="1187" 
d="M1018 1452q86 -366 86 -645q0 -482 -144.5 -726.5t-431.5 -244.5q-440 0 -440 713q0 197 35 418q35 220 74 311q86 20 157 20q84 0 133 -22q-69 -327 -69 -662q0 -571 160 -571q96 0 150 173.5t54 475.5q0 331 -90 703q61 24 150.5 39.5t175.5 17.5zM848 1581
q-59 -74 -133 -100q-103 90 -156 168q-54 -79 -158 -172q-72 26 -129 96q130 119 197 250q31 8 80 8q57 0 98 -8q57 -118 201 -242z" />
    <glyph glyph-name="Udieresis" unicode="&#xdc;" horiz-adv-x="1187" 
d="M1018 1452q86 -366 86 -645q0 -482 -144.5 -726.5t-431.5 -244.5q-440 0 -440 713q0 197 35 418q35 220 74 311q86 20 157 20q84 0 133 -22q-69 -327 -69 -662q0 -571 160 -571q96 0 150 173.5t54 475.5q0 331 -90 703q61 24 150.5 39.5t175.5 17.5zM406 1819
q95 0 157 -33q-20 -43 -42 -117t-34 -137q-94 -15 -258 -12q-20 61 -20 131q0 78 22 133q72 38 175 35zM823 1819q96 0 158 -33q-20 -43 -42 -117t-34 -137q-94 -15 -258 -12q-20 61 -20 131q0 78 22 133q72 38 174 35z" />
    <glyph glyph-name="Yacute" unicode="&#xdd;" horiz-adv-x="1112" 
d="M1077 1372q-141 -543 -291 -903q-146 -352 -356 -662q-61 13 -129 44t-111 63q160 250 263 475q-156 199 -265 445.5t-182 568.5q133 89 309 98q38 -239 99 -430.5t159 -382.5q124 352 195 793q175 -25 309 -109zM752 1853q-23 -159 -142 -340q-101 0 -180 23
q61 173 70 338q61 11 131 5t121 -26z" />
    <glyph glyph-name="Thorn" unicode="&#xde;" horiz-adv-x="1216" 
d="M438 147q1 -12 2 -37t2 -38q6 -86 13 -211q-154 -4 -265 18q-33 338 -49 635q-16 301 -16 588q0 156 14 338q169 24 332 -21q0 -3 -18 -215q93 13 172 13q250 0 386 -105t136 -295q0 -222 -184.5 -396t-524.5 -274zM440 1016q-12 -237 -12 -467q0 -152 2 -199
q399 100 399 414q0 130 -66 200t-190 70q-62 0 -133 -18z" />
    <glyph glyph-name="germandbls" unicode="&#xdf;" horiz-adv-x="1396" 
d="M1348 272q0 -166 -99.5 -263t-271.5 -97q-160 0 -262 100.5t-109 266.5q37 18 98.5 29t110.5 9q-1 -112 38.5 -174.5t113.5 -62.5q54 0 83 33.5t29 95.5q0 53 -37 96q-40 47 -159 109q-158 87 -209 155t-51 164q0 136 102 252q48 56 65 95t17 94q0 56 -39 95.5t-96 39.5
q-109 0 -165 -99.5t-56 -291.5q0 -216 36 -469q36 -274 80 -441q-61 -23 -149.5 -37t-167.5 -14q-27 120 -51 375q-26 244 -29 454q-92 19 -139 37q0 33 11 83.5t21 62.5q27 -2 115 -13q26 257 152.5 395t331.5 138q138 0 233 -80q94 -79 94 -192q0 -94 -65 -173
q-42 -56 -57 -94t-15 -86q0 -57 41 -110q38 -49 178 -133q165 -99 223 -179q54 -79 54 -170z" />
    <glyph glyph-name="agrave" unicode="&#xe0;" horiz-adv-x="1046" 
d="M954 719q0 -132 -34 -354q-36 -214 -91 -437q-123 0 -239 29q17 95 18 100q-85 -49 -209 -49q-158 0 -253 81t-95 216q0 283 461 283q49 0 147 -4v30q0 185 -30.5 266t-98.5 81t-115 -74.5t-48 -186.5q-199 3 -261 146q35 121 160 203q124 81 293 81q195 0 295 -104
t100 -307zM358 287q0 -60 33.5 -92.5t95.5 -32.5q73 0 144 41q21 149 24 248q-150 2 -223.5 -38t-73.5 -126zM629 1556q10 -169 69 -339q-91 -23 -180 -23q-121 188 -141 340q103 39 252 22z" />
    <glyph glyph-name="aacute" unicode="&#xe1;" horiz-adv-x="1046" 
d="M954 719q0 -132 -34 -354q-36 -214 -91 -437q-123 0 -239 29q17 95 18 100q-85 -49 -209 -49q-158 0 -253 81t-95 216q0 283 461 283q49 0 147 -4v30q0 185 -30.5 266t-98.5 81t-115 -74.5t-48 -186.5q-199 3 -261 146q35 121 160 203q124 81 293 81q195 0 295 -104
t100 -307zM358 287q0 -60 33.5 -92.5t95.5 -32.5q73 0 144 41q21 149 24 248q-150 2 -223.5 -38t-73.5 -126zM784 1536q-23 -161 -141 -340q-101 0 -180 23q60 170 69 337q61 11 131.5 5.5t120.5 -25.5z" />
    <glyph glyph-name="acircumflex" unicode="&#xe2;" horiz-adv-x="1046" 
d="M954 719q0 -132 -34 -354q-36 -214 -91 -437q-123 0 -239 29q17 95 18 100q-85 -49 -209 -49q-158 0 -253 81t-95 216q0 283 461 283q49 0 147 -4v30q0 185 -30.5 266t-98.5 81t-115 -74.5t-48 -186.5q-199 3 -261 146q35 121 160 203q124 81 293 81q195 0 295 -104
t100 -307zM358 287q0 -60 33.5 -92.5t95.5 -32.5q73 0 144 41q21 149 24 248q-150 2 -223.5 -38t-73.5 -126zM881 1286q-59 -74 -133 -100q-103 90 -156 168q-54 -79 -158 -172q-72 26 -129 96q130 119 197 250q31 8 80 8q57 0 98 -8q57 -118 201 -242z" />
    <glyph glyph-name="atilde" unicode="&#xe3;" horiz-adv-x="1046" 
d="M954 719q0 -132 -34 -354q-36 -214 -91 -437q-123 0 -239 29q17 95 18 100q-85 -49 -209 -49q-158 0 -253 81t-95 216q0 283 461 283q49 0 147 -4v30q0 185 -30.5 266t-98.5 81t-115 -74.5t-48 -186.5q-199 3 -261 146q35 121 160 203q124 81 293 81q195 0 295 -104
t100 -307zM358 287q0 -60 33.5 -92.5t95.5 -32.5q73 0 144 41q21 149 24 248q-150 2 -223.5 -38t-73.5 -126zM582 1419q59 -30 94 -30q60 0 57 77q77 3 121 -18q8 -103 -31 -162t-116 -59q-55 0 -125 37q-48 28 -82 28q-61 0 -58 -75q-55 -3 -118 16q-7 104 31.5 162.5
t113.5 58.5q39 0 113 -35z" />
    <glyph glyph-name="adieresis" unicode="&#xe4;" horiz-adv-x="1046" 
d="M954 719q0 -132 -34 -354q-36 -214 -91 -437q-123 0 -239 29q17 95 18 100q-85 -49 -209 -49q-158 0 -253 81t-95 216q0 283 461 283q49 0 147 -4v30q0 185 -30.5 266t-98.5 81t-115 -74.5t-48 -186.5q-199 3 -261 146q35 121 160 203q124 81 293 81q195 0 295 -104
t100 -307zM358 287q0 -60 33.5 -92.5t95.5 -32.5q73 0 144 41q21 149 24 248q-150 2 -223.5 -38t-73.5 -126zM418 1509q97 0 157 -32q-48 -106 -75 -254q-100 -16 -258 -13q-21 64 -21 131q0 77 23 134q70 37 174 34zM836 1509q97 0 157 -32q-48 -106 -75 -254
q-100 -16 -259 -13q-20 61 -20 131q0 77 23 134q70 37 174 34z" />
    <glyph glyph-name="aring" unicode="&#xe5;" horiz-adv-x="1046" 
d="M954 719q0 -132 -34 -354q-36 -214 -91 -437q-123 0 -239 29q17 95 18 100q-85 -49 -209 -49q-158 0 -253 81t-95 216q0 283 461 283q49 0 147 -4v30q0 185 -30.5 266t-98.5 81t-115 -74.5t-48 -186.5q-199 3 -261 146q35 121 160 203q124 81 293 81q195 0 295 -104
t100 -307zM358 287q0 -60 33.5 -92.5t95.5 -32.5q73 0 144 41q21 149 24 248q-150 2 -223.5 -38t-73.5 -126zM369 1374q0 97 66 156t175 59q87 0 136 -43t49 -121q0 -105 -66 -169t-174 -64q-84 0 -135 50t-51 132zM639 1403q0 100 -53 100q-29 0 -47.5 -34t-18.5 -89
q0 -43 16 -69.5t42 -26.5q29 0 45 32t16 87z" />
    <glyph glyph-name="ae" unicode="&#xe6;" horiz-adv-x="1601" 
d="M971 633q86 -25 164 -25q27 0 75 6q29 122 29 183q0 63 -18.5 90.5t-59.5 27.5q-57 0 -108 -76.5t-82 -205.5zM1305 328q60 -10 121.5 -43t99.5 -74q-34 -111 -168 -201q-133 -90 -305 -90q-99 0 -182 45t-138 129q-146 -131 -340 -131q-155 0 -248.5 80t-93.5 213
q0 141 117 214t344 73q61 0 147 -4q1 12 1 30.5v33t-0.5 28t-0.5 14.5q-5 143 -34.5 205.5t-94.5 62.5q-68 0 -115 -73t-48 -187q-199 3 -261 146q35 121 164 202q128 82 289 82q203 0 291 -168q152 166 346 166q141 0 228 -85t87 -220q0 -146 -47 -278q-105 -47 -323 -47
q-96 0 -195 24q-1 -17 -2 -34.5t-1.5 -27.5t-0.5 -18q0 -137 42.5 -217t117.5 -80q54 0 117 72q60 72 86 158zM358 238q0 -60 31.5 -91.5t91.5 -31.5q93 0 205 73q-37 93 -37 207v11q-291 3 -291 -168z" />
    <glyph glyph-name="ccedilla" unicode="&#xe7;" horiz-adv-x="985" 
d="M727 -270q0 -94 -71.5 -150.5t-190.5 -56.5q-82 0 -140.5 37.5t-84.5 109.5q41 26 114 60q12 -42 41 -67t66 -25q35 0 55.5 20t20.5 55q0 31 -20.5 50.5t-55.5 19.5q-36 0 -70 -19q-37 29 -49 50q37 57 53 141q-163 20 -252.5 140.5t-89.5 316.5q0 290 150 495
q147 205 375 205q171 0 267.5 -93.5t96.5 -258.5q-101 -49 -272 -49q0 239 -109 239q-83 0 -141 -159q-62 -165 -62 -365q0 -140 41.5 -218.5t116.5 -78.5q125 0 246 219q46 -11 91 -40.5t73 -69.5q-27 -106 -148 -189q-122 -87 -274 -96q-9 -42 -19 -66q21 7 58 7
q82 0 133 -45.5t51 -118.5z" />
    <glyph glyph-name="egrave" unicode="&#xe8;" horiz-adv-x="1021" 
d="M393 680q86 -25 162 -25q41 0 76 7q28 112 28 182q0 62 -18 90.5t-59 28.5q-57 0 -108.5 -77t-80.5 -206zM725 375q59 -10 120 -42.5t103 -74.5q-41 -115 -172 -203q-130 -90 -303 -90q-194 0 -303 125t-109 342q0 274 164 486q162 210 379 210q152 0 241 -82.5
t89 -222.5q0 -148 -49 -278q-103 -47 -324 -47q-93 0 -192 24q-1 -17 -2 -34.5t-1.5 -27.5t-0.5 -18q0 -140 42 -219.5t115 -79.5q56 0 119 72q60 73 84 160zM653 1534q9 -167 70 -340q-91 -23 -180 -23q-122 190 -142 340q105 40 252 23z" />
    <glyph glyph-name="eacute" unicode="&#xe9;" horiz-adv-x="1021" 
d="M393 680q86 -25 162 -25q41 0 76 7q28 112 28 182q0 62 -18 90.5t-59 28.5q-57 0 -108.5 -77t-80.5 -206zM725 375q59 -10 120 -42.5t103 -74.5q-41 -115 -172 -203q-130 -90 -303 -90q-194 0 -303 125t-109 342q0 274 164 486q162 210 379 210q152 0 241 -82.5
t89 -222.5q0 -148 -49 -278q-103 -47 -324 -47q-93 0 -192 24q-1 -17 -2 -34.5t-1.5 -27.5t-0.5 -18q0 -140 42 -219.5t115 -79.5q56 0 119 72q60 73 84 160zM854 1509q-23 -161 -141 -340q-102 0 -181 23q61 173 70 338q61 11 131 5t121 -26z" />
    <glyph glyph-name="ecircumflex" unicode="&#xea;" horiz-adv-x="1021" 
d="M393 680q86 -25 162 -25q41 0 76 7q28 112 28 182q0 62 -18 90.5t-59 28.5q-57 0 -108.5 -77t-80.5 -206zM725 375q59 -10 120 -42.5t103 -74.5q-41 -115 -172 -203q-130 -90 -303 -90q-194 0 -303 125t-109 342q0 274 164 486q162 210 379 210q152 0 241 -82.5
t89 -222.5q0 -148 -49 -278q-103 -47 -324 -47q-93 0 -192 24q-1 -17 -2 -34.5t-1.5 -27.5t-0.5 -18q0 -140 42 -219.5t115 -79.5q56 0 119 72q60 73 84 160zM905 1266q-60 -75 -133 -101q-103 90 -156 168q-55 -81 -157 -172q-72 26 -129 96q71 65 115.5 122.5t80.5 127.5
q34 9 80 9q52 0 99 -9q57 -117 200 -241z" />
    <glyph glyph-name="edieresis" unicode="&#xeb;" horiz-adv-x="1021" 
d="M393 680q86 -25 162 -25q41 0 76 7q28 112 28 182q0 62 -18 90.5t-59 28.5q-57 0 -108.5 -77t-80.5 -206zM725 375q59 -10 120 -42.5t103 -74.5q-41 -115 -172 -203q-130 -90 -303 -90q-194 0 -303 125t-109 342q0 274 164 486q162 210 379 210q152 0 241 -82.5
t89 -222.5q0 -148 -49 -278q-103 -47 -324 -47q-93 0 -192 24q-1 -17 -2 -34.5t-1.5 -27.5t-0.5 -18q0 -140 42 -219.5t115 -79.5q56 0 119 72q60 73 84 160zM492 1501q95 0 157 -33q-20 -43 -42 -117t-34 -137q-94 -15 -258 -12q-20 61 -20 131q0 78 22 133q72 38 175 35z
M909 1501q96 0 158 -33q-20 -43 -42 -117t-34 -137q-94 -15 -258 -12q-20 61 -20 131q0 78 22 133q72 38 174 35z" />
    <glyph glyph-name="igrave" unicode="&#xec;" horiz-adv-x="540" 
d="M143 1026q88 51 213 51q58 0 117 -12q-43 -161 -70 -455q-26 -282 -26 -600q-79 -33 -180 -33q-9 0 -72 7q-31 224 -25 528q3 311 43 514zM381 1513q9 -166 70 -339q-91 -23 -181 -23q-121 188 -141 340q103 39 252 22z" />
    <glyph glyph-name="iacute" unicode="&#xed;" horiz-adv-x="540" 
d="M143 1026q88 51 213 51q58 0 117 -12q-43 -161 -70 -455q-26 -282 -26 -600q-79 -33 -180 -33q-9 0 -72 7q-31 224 -25 528q3 311 43 514zM559 1489q-23 -161 -141 -340q-104 0 -180 22q59 170 69 338q61 11 131.5 5.5t120.5 -25.5z" />
    <glyph glyph-name="icircumflex" unicode="&#xee;" horiz-adv-x="540" 
d="M143 1026q88 51 213 51q58 0 117 -12q-43 -161 -70 -455q-26 -282 -26 -600q-79 -33 -180 -33q-9 0 -72 7q-31 224 -25 528q3 311 43 514zM651 1251q-59 -74 -133 -100q-103 90 -156 168q-55 -81 -157 -172q-72 26 -129 96q71 65 115.5 122.5t80.5 127.5q31 8 80 8
q58 0 99 -8q58 -119 200 -242z" />
    <glyph glyph-name="idieresis" unicode="&#xef;" horiz-adv-x="540" 
d="M143 1026q88 51 213 51q58 0 117 -12q-43 -161 -70 -455q-26 -282 -26 -600q-79 -33 -180 -33q-9 0 -72 7q-31 224 -25 528q3 311 43 514zM217 1495q96 0 158 -33q-20 -43 -42 -117t-34 -137q-94 -15 -258 -12q-21 64 -21 131q0 75 23 133q72 38 174 35zM635 1495
q96 0 158 -33q-20 -43 -42 -117t-34 -137q-94 -15 -258 -12q-21 64 -21 131q0 75 23 133q72 38 174 35z" />
    <glyph glyph-name="eth" unicode="&#xf0;" horiz-adv-x="1110" 
d="M963 -53q-43 -14 -111.5 -23.5t-122.5 -9.5q-18 111 -31 242q-43 -111 -109.5 -164t-162.5 -53q-171 0 -267 138t-96 380q0 283 140 458q138 172 372 172q1 0 70 -6v80q-121 3 -227 13q-11 97 4 161q181 -7 219 -8v121q80 41 225 41q51 0 123 -14q-3 -57 -12 -140
q20 1 182 17q3 -124 -2 -158q-141 -21 -188 -23q-4 -111 -8 -354q-5 -343 -5 -596q0 -150 7 -274zM362 494q0 -163 39 -251.5t109 -88.5q57 0 100.5 77.5t63.5 219.5q-5 113 -12.5 258t-10.5 196q-54 4 -55 4q-107 0 -170.5 -111t-63.5 -304z" />
    <glyph glyph-name="ntilde" unicode="&#xf1;" horiz-adv-x="1107" 
d="M395 260q0 -142 11 -307q-45 -14 -118.5 -23.5t-135.5 -9.5q-25 250 -41 561q-21 347 -21 588q80 41 227 41q55 0 125 -12q-9 -70 -18 -197q123 197 303 197q270 0 270 -400q0 -158 -24 -360q-25 -193 -55 -318q-140 3 -295 35q71 384 71 637q0 90 -22 129t-72 39
q-54 0 -104.5 -58t-87.5 -161q-13 -203 -13 -381zM596 1425q59 -30 94 -30q61 0 58 78q74 3 120 -19q8 -103 -31 -162t-116 -59q-55 0 -125 37q-48 28 -82 28q-60 0 -57 -75q-56 -3 -119 16q-7 104 31.5 162.5t113.5 58.5q39 0 113 -35z" />
    <glyph glyph-name="ograve" unicode="&#xf2;" horiz-adv-x="1044" 
d="M55 483q0 281 150 459q147 176 383 176q183 0 286 -116t103 -320q0 -302 -143 -500q-144 -202 -388 -202q-183 0 -287 136t-104 367zM670 580q0 352 -150 352q-70 0 -117 -115q-49 -116 -49 -291q0 -157 42.5 -259.5t113.5 -102.5q69 0 115 125q45 119 45 291zM608 1530
q9 -167 70 -340q-91 -23 -180 -23q-122 190 -142 340q105 40 252 23z" />
    <glyph glyph-name="oacute" unicode="&#xf3;" horiz-adv-x="1044" 
d="M55 483q0 281 150 459q147 176 383 176q183 0 286 -116t103 -320q0 -302 -143 -500q-144 -202 -388 -202q-183 0 -287 136t-104 367zM670 580q0 352 -150 352q-70 0 -117 -115q-49 -116 -49 -291q0 -157 42.5 -259.5t113.5 -102.5q69 0 115 125q45 119 45 291zM743 1505
q-23 -161 -141 -340q-101 0 -180 23q61 173 70 338q61 11 130.5 5t120.5 -26z" />
    <glyph glyph-name="ocircumflex" unicode="&#xf4;" horiz-adv-x="1044" 
d="M55 483q0 281 150 459q147 176 383 176q183 0 286 -116t103 -320q0 -302 -143 -500q-144 -202 -388 -202q-183 0 -287 136t-104 367zM670 580q0 352 -150 352q-70 0 -117 -115q-49 -116 -49 -291q0 -157 42.5 -259.5t113.5 -102.5q69 0 115 125q45 119 45 291zM856 1274
q-59 -74 -133 -100q-104 91 -156 167q-55 -81 -157 -172q-71 25 -129 97q71 65 115.5 122.5t80.5 127.5q31 8 80 8q57 0 98 -8q57 -118 201 -242z" />
    <glyph glyph-name="otilde" unicode="&#xf5;" horiz-adv-x="1044" 
d="M55 483q0 281 150 459q147 176 383 176q183 0 286 -116t103 -320q0 -302 -143 -500q-144 -202 -388 -202q-183 0 -287 136t-104 367zM670 580q0 352 -150 352q-70 0 -117 -115q-49 -116 -49 -291q0 -157 42.5 -259.5t113.5 -102.5q69 0 115 125q45 119 45 291zM567 1425
q59 -30 95 -30q60 0 57 78q75 3 121 -19q8 -103 -31 -162t-117 -59q-55 0 -125 37q-48 28 -82 28q-60 0 -57 -75q-56 -3 -119 16q-7 104 32 162.5t114 58.5q38 0 112 -35z" />
    <glyph glyph-name="odieresis" unicode="&#xf6;" horiz-adv-x="1044" 
d="M55 483q0 281 150 459q147 176 383 176q183 0 286 -116t103 -320q0 -302 -143 -500q-144 -202 -388 -202q-183 0 -287 136t-104 367zM670 580q0 352 -150 352q-70 0 -117 -115q-49 -116 -49 -291q0 -157 42.5 -259.5t113.5 -102.5q69 0 115 125q45 119 45 291zM416 1520
q95 0 157 -33q-48 -106 -75 -254q-94 -15 -258 -12q-21 65 -21 131q0 76 23 133q72 38 174 35zM834 1520q95 0 157 -33q-20 -43 -42 -117t-34 -137q-94 -15 -258 -12q-20 61 -20 131q0 78 22 133q72 38 175 35z" />
    <glyph glyph-name="divide" unicode="&#xf7;" horiz-adv-x="911" 
d="M653 1124q-10 -188 -24 -268q-136 -14 -275 0q-12 150 -12 258q151 35 311 10zM59 578q0 88 15 190q361 -47 776 -2q0 -92 -27 -188q-167 -26 -380.5 -26t-383.5 26zM639 444q-3 -133 -25 -268q-136 -14 -274 0q-12 150 -12 258q153 35 311 10z" />
    <glyph glyph-name="oslash" unicode="&#xf8;" horiz-adv-x="1044" 
d="M520 932q-70 0 -117 -115q-49 -116 -49 -291q0 -57 2 -73q8 14 33.5 58t40.5 69q8 14 64.5 116.5t109.5 198.5q-34 37 -84 37zM436 201q34 -37 74 -37q69 0 115 125q45 119 45 291v22q-175 -303 -234 -401zM977 682q0 -302 -143 -500q-144 -202 -388 -202q-74 0 -133 22
q-1 -2 -14.5 -24.5t-28.5 -45.5q-11 -17 -19 -30.5t-14.5 -23.5t-9.5 -15q-72 21 -157 92q88 152 92 158q-107 138 -107 370q0 281 150 459q147 176 383 176q61 0 127 -16q25 43 67 125q51 -22 84.5 -45t77.5 -64q-9 -16 -31 -61q-10 -18 -19.5 -37l-12.5 -25
q96 -122 96 -313z" />
    <glyph glyph-name="ugrave" unicode="&#xf9;" horiz-adv-x="1005" 
d="M453 -20q-188 0 -286.5 145.5t-98.5 421.5q0 139 28 301q27 154 62 217q88 18 139 18q92 0 131 -22q-49 -209 -49 -469q0 -194 32 -308t89 -114q63 0 97 129t34 358q0 101 -8 185q-9 100 -17 131q60 25 146 40t166 15q20 -97 20 -266q0 -383 -123 -582.5t-362 -199.5z
M586 1493q10 -171 69 -340q-91 -23 -180 -23q-121 188 -141 340q105 40 252 23z" />
    <glyph glyph-name="uacute" unicode="&#xfa;" horiz-adv-x="1005" 
d="M453 -20q-188 0 -286.5 145.5t-98.5 421.5q0 139 28 301q27 154 62 217q88 18 139 18q92 0 131 -22q-49 -209 -49 -469q0 -194 32 -308t89 -114q63 0 97 129t34 358q0 101 -8 185q-9 100 -17 131q60 25 146 40t166 15q20 -97 20 -266q0 -383 -123 -582.5t-362 -199.5z
M756 1458q-23 -159 -142 -340q-101 0 -180 23q61 173 70 338q61 11 131 5t121 -26z" />
    <glyph glyph-name="ucircumflex" unicode="&#xfb;" horiz-adv-x="1005" 
d="M453 -20q-188 0 -286.5 145.5t-98.5 421.5q0 139 28 301q27 154 62 217q88 18 139 18q92 0 131 -22q-49 -209 -49 -469q0 -194 32 -308t89 -114q63 0 97 129t34 358q0 101 -8 185q-9 100 -17 131q60 25 146 40t166 15q20 -97 20 -266q0 -383 -123 -582.5t-362 -199.5z
M842 1249q-59 -74 -133 -100q-103 90 -156 168q-54 -79 -158 -172q-72 26 -129 96q130 119 197 250q31 8 80 8q57 0 98 -8q57 -118 201 -242z" />
    <glyph glyph-name="udieresis" unicode="&#xfc;" horiz-adv-x="1005" 
d="M453 -20q-188 0 -286.5 145.5t-98.5 421.5q0 139 28 301q27 154 62 217q88 18 139 18q92 0 131 -22q-49 -209 -49 -469q0 -194 32 -308t89 -114q63 0 97 129t34 358q0 101 -8 185q-9 100 -17 131q60 25 146 40t166 15q20 -97 20 -266q0 -383 -123 -582.5t-362 -199.5z
M387 1485q96 0 158 -33q-20 -43 -42 -117t-34 -137q-94 -15 -258 -12q-21 64 -21 131q0 75 23 133q72 38 174 35zM805 1485q96 0 158 -33q-20 -43 -42 -117t-34 -137q-94 -15 -258 -12q-21 64 -21 131q0 75 23 133q72 38 174 35z" />
    <glyph glyph-name="yacute" unicode="&#xfd;" horiz-adv-x="1067" 
d="M975 367q0 -414 -129.5 -632t-372.5 -218q-161 0 -258 89t-109 238q106 78 256 103q19 -133 50.5 -190.5t85.5 -57.5q74 0 117.5 123.5t50.5 367.5q-99 -155 -258 -155q-150 0 -244 137q-96 137 -96 350q0 145 20 262q18 123 74 312q150 0 293 -33q-48 -182 -62 -287
q-18 -114 -18 -239q0 -124 37 -201.5t98 -77.5q94 0 156 160q-5 141 -29 330q-20 153 -53 258q59 25 146 39t171 10q33 -122 53 -312q21 -203 21 -376zM743 1473q-23 -161 -141 -340q-104 0 -180 22q61 173 70 338q61 11 131 5.5t120 -25.5z" />
    <glyph glyph-name="thorn" unicode="&#xfe;" horiz-adv-x="1060" 
d="M420 215q39 -20 72 -20q88 0 153 153q64 149 64 379q0 99 -29 151t-84 52q-117 0 -176 -199q-3 -258 0 -516zM426 25q12 -274 27 -455q-42 -17 -116.5 -28t-139.5 -11q-58 545 -72 1036q-18 520 8 901q89 64 201 64q77 0 145 -23q-39 -227 -51 -544q118 194 301 194
q133 0 210 -107.5t77 -293.5q0 -324 -148 -531q-151 -207 -372 -207q-10 0 -34.5 2t-35.5 3z" />
    <glyph glyph-name="ydieresis" unicode="&#xff;" horiz-adv-x="1067" 
d="M975 367q0 -414 -129.5 -632t-372.5 -218q-161 0 -258 89t-109 238q106 78 256 103q19 -133 50.5 -190.5t85.5 -57.5q74 0 117.5 123.5t50.5 367.5q-99 -155 -258 -155q-150 0 -244 137q-96 137 -96 350q0 145 20 262q18 123 74 312q150 0 293 -33q-48 -182 -62 -287
q-18 -114 -18 -239q0 -124 37 -201.5t98 -77.5q94 0 156 160q-5 141 -29 330q-20 153 -53 258q59 25 146 39t171 10q33 -122 53 -312q21 -203 21 -376zM373 1481q95 0 157 -33q-48 -106 -75 -254q-94 -15 -258 -12q-21 64 -21 131q0 75 23 133q72 38 174 35zM791 1481
q95 0 157 -33q-20 -43 -42 -117t-34 -137q-94 -15 -258 -12q-20 61 -20 131q0 78 22 133q72 38 175 35z" />
    <glyph glyph-name="Amacron" unicode="&#x100;" horiz-adv-x="1329" 
d="M1311 -133q-106 -70 -305 -96q-38 310 -103 583q-260 0 -479 -28q-90 -231 -168 -381q-165 29 -252 133q172 316 287 614q115 299 233 758q153 -3 281 -33q185 -322 309 -700.5t197 -849.5zM659 1094q-76 -305 -159 -553q197 25 348 28q-87 302 -189 525zM897 1606
q-153 -24 -275 -21t-186 33q-4 32 -3 82.5t7 81.5q232 -38 457 -15q9 -77 0 -161z" />
    <glyph glyph-name="amacron" unicode="&#x101;" horiz-adv-x="1046" 
d="M954 719q0 -132 -34 -354q-36 -214 -91 -437q-123 0 -239 29q17 95 18 100q-85 -49 -209 -49q-158 0 -253 81t-95 216q0 283 461 283q49 0 147 -4v30q0 185 -30.5 266t-98.5 81t-115 -74.5t-48 -186.5q-199 3 -261 146q35 121 160 203q124 81 293 81q195 0 295 -104
t100 -307zM358 287q0 -60 33.5 -92.5t95.5 -32.5q73 0 144 41q21 149 24 248q-150 2 -223.5 -38t-73.5 -126zM805 1243q-153 -24 -275 -21t-186 33q-4 32 -3 82.5t7 81.5q228 -37 457 -14q9 -78 0 -162z" />
    <glyph glyph-name="Abreve" unicode="&#x102;" horiz-adv-x="1329" 
d="M1311 -133q-106 -70 -305 -96q-38 310 -103 583q-260 0 -479 -28q-90 -231 -168 -381q-165 29 -252 133q172 316 287 614q115 299 233 758q153 -3 281 -33q185 -322 309 -700.5t197 -849.5zM659 1094q-76 -305 -159 -553q197 25 348 28q-87 302 -189 525zM457 1653
q-44 58 -41 178q61 21 137 18q-7 -73 21 -105t98 -32q148 0 110 135q63 16 146 2q8 -97 -31 -170q-29 -55 -88 -84.5t-139 -29.5q-143 0 -213 88z" />
    <glyph glyph-name="abreve" unicode="&#x103;" horiz-adv-x="1046" 
d="M954 719q0 -132 -34 -354q-36 -214 -91 -437q-123 0 -239 29q17 95 18 100q-85 -49 -209 -49q-158 0 -253 81t-95 216q0 283 461 283q49 0 147 -4v30q0 185 -30.5 266t-98.5 81t-115 -74.5t-48 -186.5q-199 3 -261 146q35 121 160 203q124 81 293 81q195 0 295 -104
t100 -307zM358 287q0 -60 33.5 -92.5t95.5 -32.5q73 0 144 41q21 149 24 248q-150 2 -223.5 -38t-73.5 -126zM371 1280q-44 58 -41 178q64 22 137 19q-7 -73 21.5 -105.5t97.5 -32.5q148 0 110 136q63 16 146 2q8 -97 -31 -170q-29 -55 -88 -85t-139 -30q-143 0 -213 88z
" />
    <glyph glyph-name="Aogonek" unicode="&#x104;" horiz-adv-x="1329" 
d="M1319 -481q-87 -121 -236 -121q-88 0 -141 43t-53 115q0 120 117 217q-38 308 -103 581q-260 0 -479 -28q-90 -231 -168 -381q-165 29 -252 133q172 316 287 614q115 299 233 758q153 -3 281 -33q185 -322 309 -700.5t197 -849.5q-63 -39 -129 -60q-109 -89 -109 -198
q0 -72 62 -72q64 0 116 84q45 -41 68 -102zM659 1094q-76 -305 -159 -553q197 25 348 28q-87 302 -189 525z" />
    <glyph glyph-name="aogonek" unicode="&#x105;" horiz-adv-x="1044" 
d="M358 287q0 -60 33.5 -92.5t95.5 -32.5q73 0 144 41q21 149 24 248q-150 2 -223.5 -38t-73.5 -126zM737 -256q45 -41 68 -102q-85 -123 -234 -123q-91 0 -143.5 42.5t-52.5 116.5q0 81 51.5 150t165.5 137q4 22 6 41q3 12 5 22t3 18t2 11q-85 -49 -209 -49q-158 0 -253 81
t-95 216q0 283 461 283q49 0 147 -4v30q0 185 -30.5 266t-98.5 81t-115 -74.5t-48 -186.5q-199 3 -261 146q35 121 160 203q124 81 293 81q195 0 295 -104t100 -307q0 -132 -34 -354q-36 -214 -91 -437q-71 0 -149 11q-57 -44 -89 -98.5t-32 -108.5q0 -35 16.5 -54.5
t45.5 -19.5q65 0 116 86z" />
    <glyph glyph-name="Cacute" unicode="&#x106;" horiz-adv-x="1204" 
d="M883 469q66 6 133.5 -6t105.5 -37q-17 -240 -154 -369t-378 -129q-242 0 -376 163.5t-134 459.5q0 373 186 620q184 248 471 248q186 0 288.5 -116.5t113.5 -337.5q-78 -37 -139 -49.5t-152 -10.5q9 320 -162 320q-114 0 -190 -172q-80 -174 -80 -428q0 -240 64.5 -368
t185.5 -128q115 0 172 90.5t45 249.5zM946 1878q-23 -161 -141 -340q-101 0 -180 23q60 170 69 337q61 11 131.5 5.5t120.5 -25.5z" />
    <glyph glyph-name="cacute" unicode="&#x107;" horiz-adv-x="985" 
d="M942 758q-101 -49 -272 -49q0 239 -109 239q-82 0 -141 -160q-62 -160 -62 -364q0 -140 41.5 -218.5t116.5 -78.5q124 0 246 221q47 -12 90.5 -41.5t73.5 -68.5q-35 -117 -162 -201q-131 -88 -303 -88q-194 0 -301 123t-107 340q0 288 150 493q147 205 375 205
q171 0 267.5 -93.5t96.5 -258.5zM834 1503q-23 -159 -142 -340q-101 0 -180 23q61 173 70 338q61 11 131 5t121 -26z" />
    <glyph glyph-name="Ccaron" unicode="&#x10c;" horiz-adv-x="1204" 
d="M883 469q66 6 133.5 -6t105.5 -37q-17 -240 -154 -369t-378 -129q-242 0 -376 163.5t-134 459.5q0 373 186 620q184 248 471 248q186 0 288.5 -116.5t113.5 -337.5q-78 -37 -139 -49.5t-152 -10.5q9 320 -162 320q-114 0 -190 -172q-80 -174 -80 -428q0 -240 64.5 -368
t185.5 -128q115 0 172 90.5t45 249.5zM449 1772q59 74 133 100q100 -88 155 -168q54 79 158 172q72 -26 129 -96q-130 -119 -197 -250q-31 -8 -79 -8q-58 0 -99 8q-58 119 -200 242z" />
    <glyph glyph-name="ccaron" unicode="&#x10d;" horiz-adv-x="985" 
d="M942 758q-101 -49 -272 -49q0 239 -109 239q-82 0 -141 -160q-62 -160 -62 -364q0 -140 41.5 -218.5t116.5 -78.5q124 0 246 221q47 -12 90.5 -41.5t73.5 -68.5q-35 -117 -162 -201q-131 -88 -303 -88q-194 0 -301 123t-107 340q0 288 150 493q147 205 375 205
q171 0 267.5 -93.5t96.5 -258.5zM336 1413q59 74 133 100q104 -91 156 -167q55 81 157 172q71 -25 129 -97q-71 -65 -115.5 -122.5t-80.5 -127.5q-31 -8 -80 -8q-57 0 -98 8q-57 118 -201 242z" />
    <glyph glyph-name="Dcaron" unicode="&#x10e;" horiz-adv-x="1247" 
d="M1190 905q0 -298 -217 -561q-215 -260 -551 -364q-118 0 -262 20q-51 584 -51 1040q0 22 6 322q221 106 450 106q306 0 465.5 -144t159.5 -419zM440 1264q-17 -226 -22 -396q-8 -172 -8 -446q0 -5 4 -217q223 97 340.5 276.5t117.5 423.5q0 174 -89.5 272.5t-250.5 98.5
q-46 0 -92 -12zM276 1790q58 73 134 100q100 -88 155 -168q54 79 158 172q72 -26 129 -96q-130 -119 -197 -250q-31 -8 -80 -8q-57 0 -98 8q-57 118 -201 242z" />
    <glyph glyph-name="dcaron" unicode="&#x10f;" horiz-adv-x="1110" 
d="M963 -53q-43 -14 -111.5 -23.5t-122.5 -9.5q-18 111 -31 242q-43 -111 -109.5 -164t-162.5 -53q-171 0 -267 138t-96 380q0 283 140 458q138 172 372 172q1 0 70 -6q-2 115 -2 242q-2 47 -2 125q80 41 225 41q51 0 123 -14q-15 -137 -24 -433q-9 -292 -9 -821
q0 -150 7 -274zM362 494q0 -163 39 -251.5t109 -88.5q60 0 102.5 77t61.5 220q-5 113 -12.5 258t-10.5 196q-54 4 -55 4q-107 0 -170.5 -111t-63.5 -304zM1356 1370q-11 -126 -36.5 -232t-78.5 -237q-127 11 -199 31q47 241 50 461q151 13 264 -23z" />
    <glyph glyph-name="Dcroat" unicode="&#x110;" horiz-adv-x="1247" 
d="M412 680q-2 -59 -2 -258q0 -5 4 -217q223 97 340.5 276.5t117.5 423.5q0 174 -89.5 272.5t-250.5 98.5q-46 0 -92 -12q-21 -233 -24 -420q211 17 219 18q3 -121 -2 -157q-131 -18 -221 -25zM1190 905q0 -298 -217 -561q-215 -260 -551 -364q-118 0 -262 20
q-35 457 -43 674q-75 4 -162 10q-11 101 4 162q3 0 19 -1t32 -1q26 -1 57.5 -2.5t43.5 -1.5q-2 47 -2 200q0 22 6 322q223 106 440 106q312 0 473.5 -143.5t161.5 -419.5z" />
    <glyph glyph-name="dslash" unicode="&#x111;" horiz-adv-x="1110" 
d="M963 -53q-43 -14 -111.5 -23.5t-122.5 -9.5q-18 111 -31 242q-43 -111 -109.5 -164t-162.5 -53q-171 0 -267 138t-96 380q0 283 140 458q138 172 372 172q1 0 70 -6v80q-121 3 -227 13q-11 97 4 161q181 -7 219 -8v121q80 41 225 41q51 0 123 -14q-3 -57 -12 -140
q20 1 182 17q3 -124 -2 -158q-141 -21 -188 -23q-4 -111 -8 -354q-5 -343 -5 -596q0 -150 7 -274zM362 494q0 -163 39 -251.5t109 -88.5q57 0 100.5 77.5t63.5 219.5q-5 113 -12.5 258t-10.5 196q-54 4 -55 4q-107 0 -170.5 -111t-63.5 -304z" />
    <glyph glyph-name="Emacron" unicode="&#x112;" horiz-adv-x="1171" 
d="M1102 -23q-124 -23 -375 -43q-243 -17 -463 -20q-50 329 -94 784q-42 439 -45 705q309 59 504 78q208 21 424 24q0 -109 -29 -254q-301 -3 -545 -26q-9 -173 -6 -391q233 56 465 65q25 -106 25 -244q-322 -13 -482 -39q12 -261 39 -464q110 3 279 24q144 15 276 41
q12 -37 20.5 -110.5t6.5 -129.5zM809 1624q-153 -24 -275 -21t-186 33q-4 32 -3 82.5t7 81.5q228 -37 457 -14q9 -78 0 -162z" />
    <glyph glyph-name="emacron" unicode="&#x113;" horiz-adv-x="1021" 
d="M393 680q86 -25 162 -25q41 0 76 7q28 112 28 182q0 62 -18 90.5t-59 28.5q-57 0 -108.5 -77t-80.5 -206zM725 375q59 -10 120 -42.5t103 -74.5q-41 -115 -172 -203q-130 -90 -303 -90q-194 0 -303 125t-109 342q0 274 164 486q162 210 379 210q152 0 241 -82.5
t89 -222.5q0 -148 -49 -278q-103 -47 -324 -47q-93 0 -192 24q-1 -17 -2 -34.5t-1.5 -27.5t-0.5 -18q0 -140 42 -219.5t115 -79.5q56 0 119 72q60 73 84 160zM870 1237q-153 -24 -274.5 -21t-185.5 33q-4 32 -3 82.5t7 81.5q228 -37 456 -14q9 -78 0 -162z" />
    <glyph glyph-name="Edotaccent" unicode="&#x116;" horiz-adv-x="1171" 
d="M1102 -23q-124 -23 -375 -43q-243 -17 -463 -20q-50 329 -94 784q-42 439 -45 705q309 59 504 78q208 21 424 24q0 -109 -29 -254q-301 -3 -545 -26q-9 -173 -6 -391q233 56 465 65q25 -106 25 -244q-322 -13 -482 -39q12 -261 39 -464q110 3 279 24q144 15 276 41
q12 -37 20.5 -110.5t6.5 -129.5zM623 1886q95 0 157 -33q-48 -106 -75 -254q-94 -15 -259 -12q-20 61 -20 131q0 76 23 133q72 38 174 35z" />
    <glyph glyph-name="edotaccent" unicode="&#x117;" horiz-adv-x="1021" 
d="M393 680q86 -25 162 -25q41 0 76 7q28 112 28 182q0 62 -18 90.5t-59 28.5q-57 0 -108.5 -77t-80.5 -206zM725 375q59 -10 120 -42.5t103 -74.5q-41 -115 -172 -203q-130 -90 -303 -90q-194 0 -303 125t-109 342q0 274 164 486q162 210 379 210q152 0 241 -82.5
t89 -222.5q0 -148 -49 -278q-103 -47 -324 -47q-93 0 -192 24q-1 -17 -2 -34.5t-1.5 -27.5t-0.5 -18q0 -140 42 -219.5t115 -79.5q56 0 119 72q60 73 84 160zM694 1485q96 0 158 -33q-20 -43 -42 -117t-34 -137q-94 -15 -258 -12q-20 61 -20 131q0 78 22 133q72 38 174 35z
" />
    <glyph glyph-name="Eogonek" unicode="&#x118;" horiz-adv-x="1171" 
d="M1214 -330q-86 -121 -237 -121q-90 0 -141.5 44t-51.5 120q0 132 158 242q-217 -21 -344 -29q-186 -9 -334 -12q-50 329 -94 784q-42 439 -45 705q309 59 504 78q208 21 424 24q0 -109 -29 -254q-301 -3 -545 -26q-9 -173 -6 -391q233 56 465 65q25 -106 25 -244
q-322 -13 -482 -39q12 -261 39 -464q100 3 273 24q140 15 282 41q12 -37 20.5 -110.5t6.5 -129.5q-131 -103 -131 -217q0 -71 61 -71q65 0 117 84q40 -29 65 -103z" />
    <glyph glyph-name="eogonek" unicode="&#x119;" horiz-adv-x="1021" 
d="M393 633q86 -25 162 -25q28 0 76 6q28 118 28 183q0 63 -18 90.5t-59 27.5q-57 0 -107.5 -75.5t-81.5 -206.5zM844 -182q32 -23 67 -101q-82 -120 -231 -120q-91 0 -145 44t-54 117q0 91 72 166q-17 -1 -34.5 -2t-27.5 -1.5t-18 -0.5q-194 0 -303 124.5t-109 340.5
q0 273 164 485q163 211 379 211q152 0 241 -82.5t89 -222.5q0 -148 -49 -278q-103 -47 -324 -47q-93 0 -192 24q-1 -17 -2 -34.5t-1.5 -27.5t-0.5 -18q0 -140 41 -218.5t116 -78.5q56 0 119 72q61 74 84 158q59 -10 120 -42.5t103 -74.5q-30 -69 -65.5 -113.5t-94.5 -81.5
q-55 -37 -88.5 -92.5t-33.5 -111.5q0 -35 17 -56.5t44 -21.5q68 0 117 84z" />
    <glyph glyph-name="Ecaron" unicode="&#x11a;" horiz-adv-x="1171" 
d="M1102 -23q-124 -23 -375 -43q-243 -17 -463 -20q-50 329 -94 784q-42 439 -45 705q309 59 504 78q208 21 424 24q0 -109 -29 -254q-301 -3 -545 -26q-9 -173 -6 -391q233 56 465 65q25 -106 25 -244q-322 -13 -482 -39q12 -261 39 -464q110 3 279 24q144 15 276 41
q12 -37 20.5 -110.5t6.5 -129.5zM295 1804q60 75 133 101q103 -90 156 -168q55 81 157 172q71 -25 129 -97q-71 -65 -115.5 -122t-80.5 -127q-34 -9 -80 -9q-52 0 -98 9q-57 116 -201 241z" />
    <glyph glyph-name="ecaron" unicode="&#x11b;" horiz-adv-x="1021" 
d="M393 680q86 -25 162 -25q41 0 76 7q28 112 28 182q0 62 -18 90.5t-59 28.5q-57 0 -108.5 -77t-80.5 -206zM725 375q59 -10 120 -42.5t103 -74.5q-41 -115 -172 -203q-130 -90 -303 -90q-194 0 -303 125t-109 342q0 274 164 486q162 210 379 210q152 0 241 -82.5
t89 -222.5q0 -148 -49 -278q-103 -47 -324 -47q-93 0 -192 24q-1 -17 -2 -34.5t-1.5 -27.5t-0.5 -18q0 -140 42 -219.5t115 -79.5q56 0 119 72q60 73 84 160zM340 1411q59 74 133 100q103 -90 156 -168q57 84 157 173q71 -25 129 -97q-71 -65 -115.5 -122.5t-80.5 -127.5
q-31 -8 -80 -8q-57 0 -98 8q-57 118 -201 242z" />
    <glyph glyph-name="Gbreve" unicode="&#x11e;" horiz-adv-x="1251" 
d="M1133 717q-9 -380 94 -752q-76 -19 -230 -31q-46 103 -88 240q-154 -217 -393 -217q-200 0 -317 164q-119 162 -119 444q0 394 176 656t444 262q186 0 297 -122.5t123 -338.5q-128 -43 -311 -43q-26 309 -170 309q-106 0 -170 -174q-66 -180 -66 -452q0 -463 211 -463
q78 0 139.5 57.5t98.5 163.5q-20 102 -31 262q118 35 312 35zM455 1657q-44 58 -41 178q61 21 137 18q-7 -73 21 -105t98 -32q148 0 110 135q63 16 146 2q8 -97 -31 -170q-29 -55 -88 -84.5t-139 -29.5q-143 0 -213 88z" />
    <glyph glyph-name="gbreve" unicode="&#x11f;" horiz-adv-x="1075" 
d="M375 559q0 -163 48.5 -259.5t127.5 -96.5q71 0 117 114q-3 300 -62 576q-54 6 -57 6q-174 0 -174 -340zM973 346q0 -415 -131.5 -633.5t-376.5 -218.5q-163 0 -263 89.5t-112 238.5q105 79 256 102q19 -131 52.5 -189.5t90.5 -58.5q146 0 173 433q-76 -101 -197 -101
q-178 0 -285 137q-108 135 -108 361q0 281 134 431t386 150q147 0 307 -55q33 -119 53 -309q21 -202 21 -377zM315 1257q-44 58 -41 179q62 21 138 18q-7 -73 21 -105t97 -32q148 0 111 135q63 16 145 2q8 -98 -30 -170q-29 -55 -88.5 -85t-139.5 -30q-143 0 -213 88z" />
    <glyph glyph-name="uni0122" unicode="&#x122;" horiz-adv-x="1251" 
d="M1133 717q-9 -380 94 -752q-76 -19 -230 -31q-46 103 -88 240q-154 -217 -393 -217q-200 0 -317 164q-119 162 -119 444q0 394 176 656t444 262q186 0 297 -122.5t123 -338.5q-128 -43 -311 -43q-26 309 -170 309q-106 0 -170 -174q-66 -180 -66 -452q0 -463 211 -463
q78 0 139.5 57.5t98.5 163.5q-20 102 -31 262q118 35 312 35zM504 -143q106 17 211 8q-3 -214 -82 -395q-115 0 -176 20q55 182 47 367z" />
    <glyph glyph-name="uni0123" unicode="&#x123;" horiz-adv-x="1075" 
d="M375 559q0 -163 48.5 -259.5t127.5 -96.5q71 0 117 114q-3 300 -62 576q-54 6 -57 6q-174 0 -174 -340zM973 346q0 -415 -131.5 -633.5t-376.5 -218.5q-163 0 -263 89.5t-112 238.5q105 79 256 102q19 -131 52.5 -189.5t90.5 -58.5q146 0 173 433q-76 -101 -197 -101
q-178 0 -285 137q-108 135 -108 361q0 281 134 431t386 150q147 0 307 -55q33 -119 53 -309q21 -202 21 -377zM657 1210q-125 -12 -235 9q0 106 26 219.5t70 201.5q106 -3 180 -22q-52 -229 -41 -408z" />
    <glyph glyph-name="Imacron" unicode="&#x12a;" horiz-adv-x="598" 
d="M461 1044q0 -590 -33 -1075q-42 -12 -116.5 -21t-139.5 -9q3 849 -57 1413q79 51 194 51q61 0 144 -17q8 -128 8 -342zM518 1616q-153 -24 -275 -21t-186 33q-4 32 -3 82.5t7 81.5q228 -37 457 -14q9 -78 0 -162z" />
    <glyph glyph-name="imacron" unicode="&#x12b;" horiz-adv-x="540" 
d="M143 1026q88 51 213 51q58 0 117 -12q-43 -161 -70 -455q-26 -282 -26 -600q-79 -33 -180 -33q-9 0 -72 7q-31 224 -25 528q3 311 43 514zM610 1233q-153 -24 -274.5 -21t-185.5 33q-4 32 -3 82.5t7 81.5q228 -37 456 -14q9 -78 0 -162z" />
    <glyph glyph-name="Iogonek" unicode="&#x12e;" horiz-adv-x="598" 
d="M502 -346q-84 -121 -234 -121q-88 0 -142 43t-54 115q0 135 157 250q-14 -2 -57 -2q3 849 -57 1413q79 51 194 51q61 0 144 -17q8 -128 8 -342q0 -590 -33 -1075q-28 -5 -41 -10q-131 -103 -131 -215q0 -33 16 -52.5t45 -19.5q68 0 117 84q36 -26 68 -102z" />
    <glyph glyph-name="iogonek" unicode="&#x12f;" horiz-adv-x="538" 
d="M526 1503q-49 -111 -75 -256q-114 -15 -258 -12q-21 64 -21 131q0 76 23 133q75 37 174 37q99 -3 157 -33zM432 -311q-86 -121 -233 -121q-88 0 -142.5 43t-54.5 115q0 71 39.5 130.5t124.5 120.5l-49 7q-32 281 -27.5 553.5t45.5 488.5q88 51 213 51q58 0 117 -12
q-43 -161 -70 -455q-26 -282 -26 -600q-32 -16 -56 -18q-127 -102 -127 -213q0 -72 62 -72q68 0 117 84q31 -22 67 -102z" />
    <glyph glyph-name="Idot" unicode="&#x130;" horiz-adv-x="598" 
d="M461 1044q0 -590 -33 -1075q-42 -12 -116.5 -21t-139.5 -9q3 849 -57 1413q79 51 194 51q61 0 144 -17q8 -128 8 -342zM317 1872q96 0 158 -33q-20 -43 -42 -117t-34 -137q-94 -15 -258 -12q-20 61 -20 131q0 78 22 133q72 38 174 35z" />
    <glyph glyph-name="dotlessi" unicode="&#x131;" horiz-adv-x="538" 
d="M139 1026q88 51 213 51q58 0 117 -12q-43 -161 -70 -455q-26 -282 -26 -600q-79 -33 -180 -33q-9 0 -72 7q-31 224 -25 528q3 311 43 514z" />
    <glyph glyph-name="uni0136" unicode="&#x136;" horiz-adv-x="1259" 
d="M1274 -8q-95 -138 -262 -209q-112 216 -230 381q-123 164 -278 319q-54 -40 -72 -51q9 -300 43 -551q-42 -12 -122.5 -21.5t-147.5 -9.5q-84 522 -84 1053q0 177 18 490q93 49 207 49q82 0 152 -21q-58 -330 -68 -735q147 144 256 309q101 157 227 437q134 -46 246 -179
q-102 -190 -208 -332t-236 -264q167 -142 293 -292q124 -152 266 -373zM590 -152q110 17 211 9q-3 -215 -82 -396q-111 0 -176 21q55 182 47 366z" />
    <glyph glyph-name="uni0137" unicode="&#x137;" horiz-adv-x="1075" 
d="M383 434q0 -281 33 -502q-98 -34 -264 -34q-50 337 -50 720q0 191 17 494q15 264 39 414q65 3 178 -13q96 -14 153 -38q-29 -122 -59 -363q-27 -218 -39 -422q102 99 182 199q115 145 224 299q57 -29 114.5 -80t89.5 -102q-167 -220 -436 -428q85 -101 194.5 -192.5
t274.5 -199.5q-70 -89 -123 -132t-112 -62q-120 100 -217.5 207.5t-194.5 249.5l-4 -3v-12zM451 -158q106 17 211 8q-3 -214 -82 -395q-112 0 -177 21q56 185 48 366z" />
    <glyph glyph-name="Lacute" unicode="&#x139;" horiz-adv-x="1046" 
d="M1014 90q35 -138 35 -237q-219 -3 -383 -17q-199 -13 -416 -45q-52 343 -82 789q-34 434 -31 763q127 39 269 39q59 0 86 -6q-32 -276 -29 -614q0 -461 43 -731q239 59 508 59zM524 1845q-23 -161 -141 -340q-101 0 -180 23q59 170 69 338q61 11 131 5t121 -26z" />
    <glyph glyph-name="lacute" unicode="&#x13a;" horiz-adv-x="550" 
d="M432 -94q-47 -15 -117 -23q-73 -8 -145 -8q-32 377 -45 821q-15 418 -6 772q82 52 194 52q75 0 152 -21q-26 -249 -35 -729q-8 -421 2 -864zM487 1925q-23 -161 -141 -340q-101 0 -180 23q61 173 70 338q61 11 130.5 5t120.5 -26z" />
    <glyph glyph-name="uni013B" unicode="&#x13b;" horiz-adv-x="1046" 
d="M1014 90q35 -138 35 -237q-219 -3 -383 -17q-199 -13 -416 -45q-52 343 -82 789q-34 434 -31 763q127 39 269 39q59 0 86 -6q-32 -276 -29 -614q0 -461 43 -731q239 59 508 59zM508 -264q106 17 211 8q-3 -214 -82 -395q-115 0 -176 20q55 182 47 367z" />
    <glyph glyph-name="uni013C" unicode="&#x13c;" horiz-adv-x="550" 
d="M432 -94q-47 -15 -117 -23q-73 -8 -145 -8q-32 377 -45 821q-15 418 -6 772q82 52 194 52q75 0 152 -21q-26 -249 -35 -729q-8 -421 2 -864zM188 -205q106 17 211 8q-3 -214 -82 -395q-112 0 -176 21q55 182 47 366z" />
    <glyph glyph-name="Lcaron" unicode="&#x13d;" horiz-adv-x="1046" 
d="M1014 90q35 -138 35 -237q-219 -3 -383 -17q-199 -13 -416 -45q-52 343 -82 789q-34 434 -31 763q127 39 269 39q59 0 86 -6q-32 -276 -29 -614q0 -461 43 -731q239 59 508 59zM940 1370q-11 -126 -36.5 -232t-78.5 -237q-126 11 -198 31q46 235 49 461q151 13 264 -23z
" />
    <glyph glyph-name="lcaron" unicode="&#x13e;" horiz-adv-x="550" 
d="M432 -94q-47 -15 -117 -23q-73 -8 -145 -8q-32 377 -45 821q-15 418 -6 772q82 52 194 52q75 0 152 -21q-26 -249 -35 -729q-8 -421 2 -864zM815 1370q-11 -126 -36.5 -232t-78.5 -237q-126 11 -198 31q46 235 49 461q151 13 264 -23z" />
    <glyph glyph-name="Lslash" unicode="&#x141;" horiz-adv-x="1034" 
d="M1038 -147q-220 -3 -381 -17q-194 -13 -415 -45q-40 270 -58 473q-133 -81 -182 -110q-40 37 -63.5 75t-44.5 97q124 74 270 172q-38 451 -35 845q121 39 268 39q9 0 84 -6q-28 -226 -28 -614v-64q97 70 325 244q78 -65 119 -186q-202 -154 -438 -314q12 -250 37 -411
q239 59 508 59q13 -43 23.5 -115.5t10.5 -121.5z" />
    <glyph glyph-name="lslash" unicode="&#x142;" horiz-adv-x="550" 
d="M424 -94q-47 -15 -117 -23q-73 -8 -145 -8q-26 343 -33 512q-5 -3 -37 -25t-65 -43q-19 -13 -38 -24.5t-24 -15.5q-41 36 -66 74t-49 96l16.5 11t39.5 27.5t55 38.5q81 55 156 111q-15 485 -6 831q82 52 194 52q75 0 152 -21q-21 -217 -33 -633q2 2 11.5 9.5t28 21.5
t36.5 29q16 13 52.5 42t51.5 42q78 -65 121 -185q-167 -131 -305 -231q-3 -492 4 -688z" />
    <glyph glyph-name="Nacute" unicode="&#x143;" horiz-adv-x="1386" 
d="M442 481q0 -102 2 -159q11 -310 13 -379q-97 -27 -252 -31q-76 931 -76 1446q9 10 29 16q129 66 305 78q158 -216 277.5 -433t224.5 -474v174q0 544 -37 784q158 50 317 53q10 -198 10 -432q0 -530 -41 -1065q-161 -27 -274 -30q-155 365 -256 559q-106 203 -242 395
q-3 -240 0 -502zM903 1868q-23 -161 -141 -340q-104 0 -180 22q59 170 69 338q61 11 131.5 5.5t120.5 -25.5z" />
    <glyph glyph-name="nacute" unicode="&#x144;" horiz-adv-x="1107" 
d="M395 260q0 -142 11 -307q-45 -14 -118.5 -23.5t-135.5 -9.5q-25 250 -41 561q-21 347 -21 588q80 41 227 41q55 0 125 -12q-9 -70 -18 -197q123 197 303 197q270 0 270 -400q0 -158 -24 -360q-25 -193 -55 -318q-140 3 -295 35q71 384 71 637q0 90 -22 129t-72 39
q-54 0 -104.5 -58t-87.5 -161q-13 -203 -13 -381zM772 1503q-23 -161 -141 -340q-101 0 -180 23q59 170 69 338q61 11 131 5t121 -26z" />
    <glyph glyph-name="uni0145" unicode="&#x145;" horiz-adv-x="1386" 
d="M442 481q0 -102 2 -159q11 -310 13 -379q-97 -27 -252 -31q-76 931 -76 1446q9 10 29 16q129 66 305 78q158 -216 277.5 -433t224.5 -474v174q0 544 -37 784q158 50 317 53q10 -198 10 -432q0 -530 -41 -1065q-161 -27 -274 -30q-155 365 -256 559q-106 203 -242 395
q-3 -240 0 -502zM629 -111q110 17 211 9q-3 -215 -82 -396q-112 0 -176 21q55 182 47 366z" />
    <glyph glyph-name="uni0146" unicode="&#x146;" horiz-adv-x="1107" 
d="M395 260q0 -142 11 -307q-45 -14 -118.5 -23.5t-135.5 -9.5q-25 250 -41 561q-21 347 -21 588q80 41 227 41q55 0 125 -12q-9 -70 -18 -197q123 197 303 197q270 0 270 -400q0 -158 -24 -360q-25 -193 -55 -318q-140 3 -295 35q71 384 71 637q0 90 -22 129t-72 39
q-54 0 -104.5 -58t-87.5 -161q-13 -203 -13 -381zM430 -168q106 17 211 8q-3 -214 -82 -395q-115 0 -176 20q55 182 47 367z" />
    <glyph glyph-name="Ncaron" unicode="&#x147;" horiz-adv-x="1386" 
d="M442 481q0 -102 2 -159q11 -310 13 -379q-97 -27 -252 -31q-76 931 -76 1446q9 10 29 16q129 66 305 78q158 -216 277.5 -433t224.5 -474v174q0 544 -37 784q158 50 317 53q10 -198 10 -432q0 -530 -41 -1065q-161 -27 -274 -30q-155 365 -256 559q-106 203 -242 395
q-3 -240 0 -502zM393 1778q59 74 133 100q103 -90 156 -168q54 79 158 172q72 -26 129 -96q-130 -119 -197 -250q-31 -8 -80 -8q-57 0 -98 8q-57 118 -201 242z" />
    <glyph glyph-name="ncaron" unicode="&#x148;" horiz-adv-x="1107" 
d="M395 260q0 -142 11 -307q-45 -14 -118.5 -23.5t-135.5 -9.5q-25 250 -41 561q-21 347 -21 588q80 41 227 41q55 0 125 -12q-9 -70 -18 -197q123 197 303 197q270 0 270 -400q0 -158 -24 -360q-25 -193 -55 -318q-140 3 -295 35q71 384 71 637q0 90 -22 129t-72 39
q-54 0 -104.5 -58t-87.5 -161q-13 -203 -13 -381zM295 1421q60 75 133 101q103 -90 156 -168q55 81 157 172q72 -26 129 -96q-71 -65 -115.5 -122.5t-80.5 -127.5q-34 -9 -80 -9q-52 0 -98 9q-57 116 -201 241z" />
    <glyph glyph-name="Omacron" unicode="&#x14c;" horiz-adv-x="1286" 
d="M717 1501q238 0 365.5 -168t127.5 -481q0 -157 -38.5 -314t-106.5 -274q-173 -305 -498 -305q-234 0 -366 197q-133 195 -133 518q0 367 180 596q182 231 469 231zM625 164q127 0 195.5 160.5t68.5 447.5q0 272 -55.5 396t-178.5 124q-125 0 -198 -155q-74 -157 -74 -418
q0 -255 64 -405t178 -150zM887 1649q-153 -24 -275 -21t-186 33q-4 32 -3 82.5t7 81.5q232 -38 457 -15q9 -77 0 -161z" />
    <glyph glyph-name="omacron" unicode="&#x14d;" horiz-adv-x="1044" 
d="M55 483q0 281 150 459q147 176 383 176q183 0 286 -116t103 -320q0 -302 -143 -500q-144 -202 -388 -202q-183 0 -287 136t-104 367zM670 580q0 352 -150 352q-70 0 -117 -115q-49 -116 -49 -291q0 -157 42.5 -259.5t113.5 -102.5q69 0 115 125q45 119 45 291zM762 1266
q-153 -24 -275 -21t-186 33q-4 32 -3 82.5t7 81.5q232 -38 457 -15q9 -77 0 -161z" />
    <glyph glyph-name="Ohungarumlaut" unicode="&#x150;" horiz-adv-x="1286" 
d="M717 1501q238 0 365.5 -168t127.5 -481q0 -157 -38.5 -314t-106.5 -274q-173 -305 -498 -305q-234 0 -366 197q-133 195 -133 518q0 367 180 596q182 231 469 231zM625 164q127 0 195.5 160.5t68.5 447.5q0 272 -55.5 396t-178.5 124q-125 0 -198 -155q-74 -157 -74 -418
q0 -255 64 -405t178 -150zM717 1888q-23 -159 -142 -340q-101 0 -180 23q61 173 70 338q61 11 131 5t121 -26zM1057 1888q-23 -159 -142 -340q-101 0 -180 23q61 173 70 338q61 11 131 5t121 -26z" />
    <glyph glyph-name="ohungarumlaut" unicode="&#x151;" horiz-adv-x="1044" 
d="M55 483q0 281 150 459q147 176 383 176q183 0 286 -116t103 -320q0 -302 -143 -500q-144 -202 -388 -202q-183 0 -287 136t-104 367zM670 580q0 352 -150 352q-70 0 -117 -115q-49 -116 -49 -291q0 -157 42.5 -259.5t113.5 -102.5q69 0 115 125q45 119 45 291zM602 1509
q-23 -161 -141 -340q-101 0 -180 23q59 170 69 338q61 11 131 5t121 -26zM942 1509q-23 -161 -141 -340q-101 0 -180 23q59 170 69 338q61 11 131 5t121 -26z" />
    <glyph glyph-name="OE" unicode="&#x152;" horiz-adv-x="1888" 
d="M1821 2q-108 -19 -377 -41q-242 -17 -461 -20q-3 25 -10 65q-4 34 -10 71.5t-7 53.5q-149 -168 -383 -168t-366 197q-133 195 -133 518q0 368 172 598q172 227 454 227q158 0 271 -84q249 44 428 62q184 15 373 18q0 -112 -29 -254q-299 0 -545 -26q-9 -164 -6 -385
q233 56 465 65q24 -102 24 -244q-321 -13 -481 -39q12 -228 39 -438q88 3 272 25q143 15 283 41q12 -37 20.5 -111t6.5 -131zM633 168q116 0 174.5 154.5t56.5 451.5q-2 271 -56 396.5t-171 125.5t-182.5 -152.5t-65.5 -422.5q0 -246 66 -399q65 -154 178 -154z" />
    <glyph glyph-name="oe" unicode="&#x153;" horiz-adv-x="1634" 
d="M977 627q86 -25 164 -25q34 0 76 6q28 112 28 183q0 60 -19.5 88t-60.5 28q-57 0 -107 -75t-81 -205zM502 123q66 0 112 123q45 119 45 293q0 180 -36 266t-111 86q-69 0 -119 -115q-49 -116 -49 -291q0 -152 43 -256q43 -106 115 -106zM1311 322q60 -11 121.5 -43.5
t99.5 -75.5q-36 -113 -170 -199q-139 -92 -279 -92q-230 0 -333 186q-133 -157 -316 -157q-179 0 -284 136.5t-105 366.5q0 275 145 455q144 178 369 178q199 0 313 -168q69 79 154.5 122.5t173.5 43.5q142 0 230 -84t88 -221q0 -155 -50 -278q-112 -50 -321 -50
q-92 0 -195 25q-1 -14 -2 -32t-1.5 -28t-0.5 -18q0 -139 42 -219t116 -80q56 0 119 72q59 71 86 160z" />
    <glyph glyph-name="Racute" unicode="&#x154;" horiz-adv-x="1241" 
d="M1231 57q-104 -100 -277 -147q-120 279 -194 424q-74 140 -162 266q-80 -29 -125 -41q-12 -329 -35 -571q-123 -3 -264 16q10 184 10 332q0 290 -14 522q-16 258 -49 559q94 73 223 116.5t254 43.5q241 0 375.5 -111t134.5 -307q0 -269 -279 -448q199 -227 402 -654z
M457 1376q14 -322 14 -334q4 -168 4 -235v-55q162 44 240 135t78 237q0 128 -61 198.5t-173 70.5q-43 0 -102 -17zM768 1980q-23 -161 -141 -340q-102 0 -181 23q61 173 70 338q61 11 131 5t121 -26z" />
    <glyph glyph-name="racute" unicode="&#x155;" horiz-adv-x="925" 
d="M420 463q12 -248 49 -465q-70 -24 -182 -21q-55 3 -94 17q-56 270 -76 553q-21 305 -4 547q56 22 163 22q97 0 173 -29q-16 -93 -25 -200q49 130 125 206t156 76q100 0 155 -81t55 -230q0 -67 -2 -90q-95 -33 -268 -23q1 30 2.5 53.5t1.5 30.5q0 115 -55 115
q-52 0 -100 -131t-74 -350zM649 1520q-23 -161 -141 -340q-104 0 -180 22q59 170 69 338q61 11 131.5 5.5t120.5 -25.5z" />
    <glyph glyph-name="uni0156" unicode="&#x156;" horiz-adv-x="1241" 
d="M1231 57q-104 -100 -277 -147q-120 279 -194 424q-74 140 -162 266q-80 -29 -125 -41q-12 -329 -35 -571q-123 -3 -264 16q10 184 10 332q0 290 -14 522q-16 258 -49 559q94 73 223 116.5t254 43.5q241 0 375.5 -111t134.5 -307q0 -269 -279 -448q199 -227 402 -654z
M457 1376q14 -322 14 -334q4 -168 4 -235v-55q162 44 240 135t78 237q0 128 -61 198.5t-173 70.5q-43 0 -102 -17zM551 -96q106 17 211 8q-3 -214 -82 -395q-115 0 -176 20q55 182 47 367z" />
    <glyph glyph-name="uni0157" unicode="&#x157;" horiz-adv-x="925" 
d="M420 463q12 -248 49 -465q-70 -24 -182 -21q-55 3 -94 17q-56 270 -76 553q-21 305 -4 547q56 22 163 22q97 0 173 -29q-16 -93 -25 -200q49 130 125 206t156 76q100 0 155 -81t55 -230q0 -67 -2 -90q-95 -33 -268 -23q1 30 2.5 53.5t1.5 30.5q0 115 -55 115
q-52 0 -100 -131t-74 -350zM211 -111q110 17 211 9q-3 -215 -82 -396q-112 0 -176 21q55 182 47 366z" />
    <glyph glyph-name="Rcaron" unicode="&#x158;" horiz-adv-x="1241" 
d="M1231 57q-104 -100 -277 -147q-120 279 -194 424q-74 140 -162 266q-80 -29 -125 -41q-12 -329 -35 -571q-123 -3 -264 16q10 184 10 332q0 290 -14 522q-16 258 -49 559q94 73 223 116.5t254 43.5q241 0 375.5 -111t134.5 -307q0 -269 -279 -448q199 -227 402 -654z
M457 1376q14 -322 14 -334q4 -168 4 -235v-55q162 44 240 135t78 237q0 128 -61 198.5t-173 70.5q-43 0 -102 -17zM305 1901q59 74 133 100q103 -90 156 -168q54 79 158 172q72 -26 129 -96q-130 -119 -197 -250q-31 -8 -80 -8q-57 0 -98 8q-57 118 -201 242z" />
    <glyph glyph-name="rcaron" unicode="&#x159;" horiz-adv-x="925" 
d="M420 463q12 -248 49 -465q-70 -24 -182 -21q-55 3 -94 17q-56 270 -76 553q-21 305 -4 547q56 22 163 22q97 0 173 -29q-16 -93 -25 -200q49 130 125 206t156 76q100 0 155 -81t55 -230q0 -67 -2 -90q-95 -33 -268 -23q1 30 2.5 53.5t1.5 30.5q0 115 -55 115
q-52 0 -100 -131t-74 -350zM154 1425q60 75 133 101q100 -88 155 -168q54 79 158 172q72 -26 129 -96q-130 -119 -197 -250q-31 -8 -79 -8q-58 0 -99 8q-57 117 -200 241z" />
    <glyph glyph-name="Sacute" unicode="&#x15a;" horiz-adv-x="1075" 
d="M915 653q86 -127 86 -291q0 -190 -133 -317t-333 -127q-225 0 -371 152q-144 150 -144 370q50 25 120.5 44t123.5 20q0 -184 64.5 -289.5t179.5 -105.5q86 0 134 51t48 139q0 80 -43 150q-47 68 -194 180q-94 71 -143.5 118t-84.5 95q-90 134 -90 297q0 192 127 313
q125 119 338 119q190 0 301.5 -97.5t149.5 -299.5q-81 -56 -256 -68q-20 141 -66.5 202.5t-134.5 61.5q-67 0 -105 -44t-38 -122q0 -89 45 -157q48 -72 196 -185q94 -71 141 -116t82 -93zM813 1966q-23 -161 -141 -340q-101 0 -180 23q59 170 69 338q61 11 131 5t121 -26z
" />
    <glyph glyph-name="sacute" unicode="&#x15b;" horiz-adv-x="915" 
d="M559 647q168 -110 223 -192q56 -83 56 -183q0 -155 -121 -258q-123 -102 -301 -102q-165 0 -271 106q-108 105 -108 261q40 18 101.5 29t107.5 9q-2 -109 43.5 -173t124.5 -64q60 0 93.5 34t33.5 95q0 52 -35 102q-38 47 -160 129q-162 110 -215 193q-53 80 -53 180
q0 153 106 246q104 94 275 94q167 0 268.5 -80.5t132.5 -238.5q-86 -57 -250 -68q-13 106 -48 155.5t-95 49.5q-47 0 -72.5 -29t-25.5 -80q0 -49 34 -92q33 -45 156 -123zM715 1536q-23 -159 -142 -340q-101 0 -180 23q61 173 70 337q61 11 131.5 5.5t120.5 -25.5z" />
    <glyph glyph-name="uni015E" unicode="&#x15e;" horiz-adv-x="1075" 
d="M915 653q86 -127 86 -291q0 -190 -133 -317t-333 -127q-225 0 -371 152q-144 150 -144 370q50 25 120.5 44t123.5 20q0 -184 64.5 -289.5t179.5 -105.5q86 0 134 51t48 139q0 80 -43 150q-47 68 -194 180q-94 71 -143.5 118t-84.5 95q-90 134 -90 297q0 192 127 313
q125 119 338 119q190 0 301.5 -97.5t149.5 -299.5q-81 -56 -256 -68q-20 141 -66.5 202.5t-134.5 61.5q-67 0 -105 -44t-38 -122q0 -89 45 -157q48 -72 196 -185q94 -71 141 -116t82 -93zM758 -297q0 -94 -70.5 -151.5t-187.5 -57.5q-82 0 -142 38.5t-86 109.5q58 37 115 61
q14 -43 43 -68.5t66 -25.5q35 0 56 20.5t21 55.5q0 33 -20 52t-55 19q-40 0 -72 -18q-38 30 -49 49q56 91 59 199l109 -25q-3 -42 -23 -100q48 6 56 6q80 0 130 -45.5t50 -118.5z" />
    <glyph glyph-name="uni015F" unicode="&#x15f;" horiz-adv-x="915" 
d="M559 647q168 -110 223 -192q56 -83 56 -183q0 -155 -121 -258q-123 -102 -301 -102q-165 0 -271 106q-108 105 -108 261q40 18 101.5 29t107.5 9q-2 -109 43.5 -173t124.5 -64q60 0 93.5 34t33.5 95q0 52 -35 102q-38 47 -160 129q-162 110 -215 193q-53 80 -53 180
q0 153 106 246q104 94 275 94q167 0 268.5 -80.5t132.5 -238.5q-86 -57 -250 -68q-13 106 -48 155.5t-95 49.5q-47 0 -72.5 -29t-25.5 -80q0 -49 34 -92q33 -45 156 -123zM713 -303q0 -94 -70.5 -151.5t-187.5 -57.5q-83 0 -142.5 38t-85.5 109q62 40 115 62
q14 -43 43 -68.5t66 -25.5q35 0 56 20t21 55q0 33 -20 52.5t-55 19.5q-40 0 -72 -18q-38 30 -49 49q56 91 59 199l109 -25q-3 -42 -23 -100q48 6 55 6q80 0 130.5 -45.5t50.5 -118.5z" />
    <glyph glyph-name="Scaron" unicode="&#x160;" horiz-adv-x="1075" 
d="M915 653q86 -127 86 -291q0 -190 -133 -317t-333 -127q-225 0 -371 152q-144 150 -144 370q50 25 120.5 44t123.5 20q0 -184 64.5 -289.5t179.5 -105.5q86 0 134 51t48 139q0 80 -43 150q-47 68 -194 180q-94 71 -143.5 118t-84.5 95q-90 134 -90 297q0 192 127 313
q125 119 338 119q190 0 301.5 -97.5t149.5 -299.5q-81 -56 -256 -68q-20 141 -66.5 202.5t-134.5 61.5q-67 0 -105 -44t-38 -122q0 -89 45 -157q48 -72 196 -185q94 -71 141 -116t82 -93zM338 1872q59 74 133 100q103 -90 156 -168q55 81 157 172q72 -26 129 -96
q-71 -65 -115.5 -122.5t-80.5 -127.5q-31 -8 -80 -8q-57 0 -98 8q-57 118 -201 242z" />
    <glyph glyph-name="scaron" unicode="&#x161;" horiz-adv-x="915" 
d="M559 647q168 -110 223 -192q56 -83 56 -183q0 -155 -121 -258q-123 -102 -301 -102q-165 0 -271 106q-108 105 -108 261q40 18 101.5 29t107.5 9q-2 -109 43.5 -173t124.5 -64q60 0 93.5 34t33.5 95q0 52 -35 102q-38 47 -160 129q-162 110 -215 193q-53 80 -53 180
q0 153 106 246q104 94 275 94q167 0 268.5 -80.5t132.5 -238.5q-86 -57 -250 -68q-13 106 -48 155.5t-95 49.5q-47 0 -72.5 -29t-25.5 -80q0 -49 34 -92q33 -45 156 -123zM213 1448q59 74 133 100q103 -90 156 -168q55 81 157 172q72 -26 129 -96q-71 -65 -115.5 -122.5
t-80.5 -127.5q-31 -8 -80 -8q-57 0 -98 8q-57 118 -201 242z" />
    <glyph glyph-name="uni0162" unicode="&#x162;" horiz-adv-x="1196" 
d="M791 82q-114 -32 -283 -35q3 287 -12 647q-14 329 -52 631q-105 -10 -137 -14q-153 -18 -231 -27q-42 124 -39 227q312 62 543 84q249 24 559 27q18 -63 18 -133q0 -43 -14 -131q-119 0 -359 -8q31 -306 31 -732q0 -208 -24 -536zM897 -176q0 -94 -70.5 -151.5
t-187.5 -57.5q-83 0 -142 38t-85 109q64 41 114 62q14 -43 43 -68.5t66 -25.5q36 0 57 20t21 55q0 33 -20.5 52.5t-55.5 19.5q-40 0 -72 -18q-38 30 -49 49q56 91 59 198l109 -24q-3 -45 -22 -100q48 6 55 6q80 0 130 -45.5t50 -118.5z" />
    <glyph glyph-name="uni0163" unicode="&#x163;" horiz-adv-x="866" 
d="M600 453q118 -10 211 -80q-5 -164 -85.5 -261.5t-219.5 -97.5q-173 0 -268 149.5t-95 426.5q0 176 15 323q-92 11 -148 29q3 116 39 170q52 -16 131 -25q21 138 56 263q188 0 319 -43q-40 -147 -57 -242q175 -3 307 10q0 -70 -31 -168q-110 -19 -305 -16
q-25 -202 -25 -340q0 -354 82 -354q71 0 74 256zM700 -199q0 -94 -70.5 -151.5t-187.5 -57.5q-82 0 -141.5 38.5t-85.5 109.5q58 37 115 61q14 -43 43 -68.5t65 -25.5q35 0 56.5 20.5t21.5 55.5q0 33 -20.5 52.5t-55.5 19.5q-37 0 -71 -19q-40 31 -50 49q57 92 60 199
l108 -25q-3 -45 -22 -100q48 6 55 6q80 0 130 -45.5t50 -118.5z" />
    <glyph glyph-name="Tcaron" unicode="&#x164;" horiz-adv-x="1196" 
d="M791 82q-114 -32 -283 -35q3 287 -12 647q-14 329 -52 631q-105 -10 -137 -14q-153 -18 -231 -27q-42 124 -39 227q312 62 543 84q249 24 559 27q18 -63 18 -133q0 -43 -14 -131q-119 0 -359 -8q31 -306 31 -732q0 -208 -24 -536zM299 1915q59 74 133 100
q103 -90 156 -168q55 81 157 172q72 -26 129 -96q-71 -65 -115.5 -122.5t-80.5 -127.5q-31 -8 -80 -8q-57 0 -98 8q-57 118 -201 242z" />
    <glyph glyph-name="tcaron" unicode="&#x165;" horiz-adv-x="866" 
d="M600 453q118 -10 211 -80q-5 -164 -85.5 -261.5t-219.5 -97.5q-173 0 -268 149.5t-95 426.5q0 176 15 323q-92 11 -148 29q3 116 39 170q52 -16 131 -25q21 138 56 263q188 0 319 -43q-40 -147 -57 -242q175 -3 307 10q0 -70 -31 -168q-110 -19 -305 -16
q-25 -202 -25 -340q0 -354 82 -354q71 0 74 256zM926 1602q-11 -126 -36.5 -232t-78.5 -237q-133 12 -199 30q47 241 50 461q153 13 264 -22z" />
    <glyph glyph-name="Umacron" unicode="&#x16a;" horiz-adv-x="1187" 
d="M1018 1452q86 -366 86 -645q0 -482 -144.5 -726.5t-431.5 -244.5q-440 0 -440 713q0 197 35 418q35 220 74 311q86 20 157 20q84 0 133 -22q-69 -327 -69 -662q0 -571 160 -571q96 0 150 173.5t54 475.5q0 331 -90 703q61 24 150.5 39.5t175.5 17.5zM762 1479
q-153 -24 -275 -21t-186 33q-4 32 -3 82.5t7 81.5q232 -38 457 -15q9 -77 0 -161z" />
    <glyph glyph-name="umacron" unicode="&#x16b;" horiz-adv-x="1005" 
d="M453 -20q-188 0 -286.5 145.5t-98.5 421.5q0 139 28 301q27 154 62 217q88 18 139 18q92 0 131 -22q-49 -209 -49 -469q0 -194 32 -308t89 -114q63 0 97 129t34 358q0 101 -8 185q-9 100 -17 131q60 25 146 40t166 15q20 -97 20 -266q0 -383 -123 -582.5t-362 -199.5z
M778 1231q-153 -24 -275 -21t-186 33q-11 81 5 164q228 -37 456 -14q9 -78 0 -162z" />
    <glyph glyph-name="Uring" unicode="&#x16e;" horiz-adv-x="1187" 
d="M1018 1452q86 -366 86 -645q0 -482 -144.5 -726.5t-431.5 -244.5q-440 0 -440 713q0 197 35 418q35 220 74 311q86 20 157 20q84 0 133 -22q-69 -327 -69 -662q0 -571 160 -571q96 0 150 173.5t54 475.5q0 331 -90 703q61 24 150.5 39.5t175.5 17.5zM336 1616
q0 97 66.5 156t175.5 59q87 0 135.5 -43t48.5 -121q0 -105 -66 -169t-174 -64q-84 0 -135 50t-51 132zM606 1645q0 100 -53 100q-29 0 -47.5 -34t-18.5 -89q0 -43 16 -69.5t42 -26.5q29 0 45 32t16 87z" />
    <glyph glyph-name="uring" unicode="&#x16f;" horiz-adv-x="1005" 
d="M453 -20q-188 0 -286.5 145.5t-98.5 421.5q0 139 28 301q27 154 62 217q88 18 139 18q92 0 131 -22q-49 -209 -49 -469q0 -194 32 -308t89 -114q63 0 97 129t34 358q0 101 -8 185q-9 100 -17 131q60 25 146 40t166 15q20 -97 20 -266q0 -383 -123 -582.5t-362 -199.5z
M309 1325q0 97 66.5 156t175.5 59q87 0 135.5 -43t48.5 -121q0 -105 -65.5 -169t-173.5 -64q-85 0 -136 50t-51 132zM580 1354q0 100 -54 100q-29 0 -47 -34t-18 -89q0 -43 15.5 -69.5t41.5 -26.5q29 0 45.5 32t16.5 87z" />
    <glyph glyph-name="Uhungarumlaut" unicode="&#x170;" horiz-adv-x="1187" 
d="M1018 1452q86 -366 86 -645q0 -482 -144.5 -726.5t-431.5 -244.5q-440 0 -440 713q0 197 35 418q35 220 74 311q86 20 157 20q84 0 133 -22q-69 -327 -69 -662q0 -571 160 -571q96 0 150 173.5t54 475.5q0 331 -90 703q61 24 150.5 39.5t175.5 17.5zM580 1817
q-23 -159 -142 -340q-104 0 -180 22q61 173 70 338q61 11 131.5 5.5t120.5 -25.5zM920 1817q-23 -159 -142 -340q-104 0 -180 22q61 173 70 338q61 11 131.5 5.5t120.5 -25.5z" />
    <glyph glyph-name="uhungarumlaut" unicode="&#x171;" horiz-adv-x="1005" 
d="M453 -20q-188 0 -286.5 145.5t-98.5 421.5q0 139 28 301q27 154 62 217q88 18 139 18q92 0 131 -22q-49 -209 -49 -469q0 -194 32 -308t89 -114q63 0 97 129t34 358q0 101 -8 185q-9 100 -17 131q60 25 146 40t166 15q20 -97 20 -266q0 -383 -123 -582.5t-362 -199.5z
M582 1479q-23 -159 -142 -340q-104 0 -180 22q61 173 70 338q61 11 131.5 5.5t120.5 -25.5zM922 1479q-23 -159 -142 -340q-104 0 -180 22q61 173 70 338q61 11 131.5 5.5t120.5 -25.5z" />
    <glyph glyph-name="Uogonek" unicode="&#x172;" horiz-adv-x="1187" 
d="M795 -463q-82 -119 -232 -119q-92 0 -145 46t-53 126q0 130 149 246q-211 6 -318.5 185.5t-107.5 527.5q0 197 35 418q35 220 74 311q86 20 157 20q84 0 133 -22q-69 -327 -69 -662q0 -571 160 -571q96 0 150 173.5t54 475.5q0 331 -90 703q61 24 150.5 39.5t175.5 17.5
q86 -366 86 -645q0 -386 -89.5 -615t-275.5 -321q-85 -42 -137.5 -109t-52.5 -129q0 -37 17 -58t46 -21q66 0 117 86q27 -19 66 -103z" />
    <glyph glyph-name="uogonek" unicode="&#x173;" horiz-adv-x="1005" 
d="M717 -313q-83 -121 -232 -121q-92 0 -145 45.5t-53 124.5q0 128 149 244q-180 6 -274 152t-94 415q0 139 28 301q27 154 62 217q77 18 139 18q92 0 131 -22q-49 -209 -49 -469q0 -194 32 -308t89 -114q63 0 97 129t34 358q0 101 -8 185q-9 100 -17 131q60 25 146 40
t166 15q20 -97 20 -266q0 -582 -274 -733q-90 -51 -141.5 -118.5t-51.5 -133.5q0 -32 17.5 -53t43.5 -21q68 0 117 84q34 -24 68 -100z" />
    <glyph glyph-name="Ydieresis" unicode="&#x178;" horiz-adv-x="1112" 
d="M1077 1372q-141 -543 -291 -903q-146 -352 -356 -662q-61 13 -129 44t-111 63q160 250 263 475q-156 199 -265 445.5t-182 568.5q133 89 309 98q38 -239 99 -430.5t159 -382.5q124 352 195 793q175 -25 309 -109zM403 1880q96 0 158 -33q-20 -43 -42 -117t-34 -137
q-94 -15 -258 -12q-20 61 -20 131q0 78 22 133q72 38 174 35zM821 1880q96 0 158 -33q-20 -43 -42 -117t-34 -137q-94 -15 -258 -12q-20 61 -20 131q0 78 22 133q72 38 174 35z" />
    <glyph glyph-name="Zacute" unicode="&#x179;" horiz-adv-x="1204" 
d="M1106 223q0 -174 -53 -295q-220 3 -518 25q-278 24 -504 59q0 151 26 244q247 253 425 473t317 445q-278 14 -666 71q0 158 66 273q438 -84 970 -164q-15 -122 -24 -160q-8 -35 -19 -61q-255 -375 -792 -932q420 -12 772 22zM924 1872q-23 -159 -142 -340q-104 0 -180 22
q61 173 70 338q61 11 131.5 5.5t120.5 -25.5z" />
    <glyph glyph-name="zacute" unicode="&#x17a;" horiz-adv-x="1034" 
d="M909 184q0 -146 -49 -256q-236 3 -461 33q-225 34 -372 86q-3 94 20 176q294 371 621 651q-212 21 -551 13q1 78 14.5 135t44.5 117q454 -20 805 -140q-13 -121 -47 -194q-218 -205 -367 -367q-147 -157 -237 -282q203 -6 319 2q131 6 260 26zM819 1487
q-23 -161 -141 -340q-104 0 -180 22q59 170 69 338q61 11 131.5 5.5t120.5 -25.5z" />
    <glyph glyph-name="Zdotaccent" unicode="&#x17b;" horiz-adv-x="1204" 
d="M1106 223q0 -174 -53 -295q-220 3 -518 25q-278 24 -504 59q0 151 26 244q247 253 425 473t317 445q-278 14 -666 71q0 158 66 273q438 -84 970 -164q-15 -122 -24 -160q-8 -35 -19 -61q-255 -375 -792 -932q420 -12 772 22zM772 1864q96 0 158 -33q-20 -43 -42 -117
t-34 -137q-94 -15 -258 -12q-21 65 -21 131q0 76 23 133q72 38 174 35z" />
    <glyph glyph-name="zdotaccent" unicode="&#x17c;" horiz-adv-x="1034" 
d="M909 184q0 -146 -49 -256q-236 3 -461 33q-225 34 -372 86q-3 94 20 176q294 371 621 651q-212 21 -551 13q1 78 14.5 135t44.5 117q454 -20 805 -140q-13 -121 -47 -194q-218 -205 -367 -367q-147 -157 -237 -282q203 -6 319 2q131 6 260 26zM664 1485q95 0 157 -33
q-20 -43 -42 -117t-34 -137q-94 -15 -258 -12q-20 61 -20 131q0 78 22 133q72 38 175 35z" />
    <glyph glyph-name="Zcaron" unicode="&#x17d;" horiz-adv-x="1204" 
d="M1106 223q0 -174 -53 -295q-220 3 -518 25q-278 24 -504 59q0 151 26 244q247 253 425 473t317 445q-278 14 -666 71q0 158 66 273q438 -84 970 -164q-15 -122 -24 -160q-8 -35 -19 -61q-255 -375 -792 -932q420 -12 772 22zM426 1778q59 74 133 100q103 -90 156 -168
q55 81 157 172q72 -26 129 -96q-71 -65 -115.5 -122.5t-80.5 -127.5q-31 -8 -80 -8q-57 0 -98 8q-57 118 -201 242z" />
    <glyph glyph-name="zcaron" unicode="&#x17e;" horiz-adv-x="1034" 
d="M909 184q0 -146 -49 -256q-236 3 -461 33q-225 34 -372 86q-3 94 20 176q294 371 621 651q-212 21 -551 13q1 78 14.5 135t44.5 117q454 -20 805 -140q-13 -121 -47 -194q-218 -205 -367 -367q-147 -157 -237 -282q203 -6 319 2q131 6 260 26zM283 1421q60 75 133 101
q100 -88 155 -168q54 79 158 172q72 -26 129 -96q-71 -65 -115.5 -122.5t-80.5 -127.5q-35 -9 -80 -9q-52 0 -99 9q-57 117 -200 241z" />
    <glyph glyph-name="florin" unicode="&#x192;" horiz-adv-x="868" 
d="M553 49q-26 -180 -117.5 -273t-240.5 -93q-128 0 -202.5 76t-74.5 202q0 63 21 109q111 0 221 -35q-13 -37 -13 -82q0 -90 72 -90q98 0 98 211q0 190 -57 409q-56 215 -63 256q-100 12 -183 41q0 31 10.5 81t20.5 67q26 -6 127 -15q-2 8 -2 39q-6 241 100 384.5
t291 148.5q134 1 214.5 -73.5t82.5 -199.5q0 -54 -18 -110q-115 -3 -224 28q13 50 13 87q-2 41 -22.5 64.5t-55.5 23.5q-51 0 -76.5 -68.5t-21.5 -196.5q0 -77 10 -141q31 -2 131 -2q125 0 211 14q0 -83 -21 -186q-53 -16 -174 -16q-87 0 -114 2q57 -249 67 -326
q22 -181 -10 -336z" />
    <glyph glyph-name="uni0218" unicode="&#x218;" horiz-adv-x="1075" 
d="M915 653q86 -127 86 -291q0 -190 -133 -317t-333 -127q-225 0 -371 152q-144 150 -144 370q50 25 120.5 44t123.5 20q0 -184 64.5 -289.5t179.5 -105.5q86 0 134 51t48 139q0 80 -43 150q-47 68 -194 180q-94 71 -143.5 118t-84.5 95q-90 134 -90 297q0 192 127 313
q125 119 338 119q190 0 301.5 -97.5t149.5 -299.5q-81 -56 -256 -68q-20 141 -66.5 202.5t-134.5 61.5q-67 0 -105 -44t-38 -122q0 -89 45 -157q48 -72 196 -185q94 -71 141 -116t82 -93zM436 -145q106 17 211 8q-3 -214 -82 -395q-115 0 -176 20q55 182 47 367z" />
    <glyph glyph-name="uni0219" unicode="&#x219;" horiz-adv-x="915" 
d="M559 647q168 -110 223 -192q56 -83 56 -183q0 -155 -121 -258q-123 -102 -301 -102q-165 0 -271 106q-108 105 -108 261q40 18 101.5 29t107.5 9q-2 -109 43.5 -173t124.5 -64q60 0 93.5 34t33.5 95q0 52 -35 102q-38 47 -160 129q-162 110 -215 193q-53 80 -53 180
q0 153 106 246q104 94 275 94q167 0 268.5 -80.5t132.5 -238.5q-86 -57 -250 -68q-13 106 -48 155.5t-95 49.5q-47 0 -72.5 -29t-25.5 -80q0 -49 34 -92q33 -45 156 -123zM336 -152q110 17 211 9q-3 -215 -82 -396q-111 0 -176 21q55 182 47 366z" />
    <glyph glyph-name="uni021A" unicode="&#x21a;" horiz-adv-x="1196" 
d="M791 82q-114 -32 -283 -35q3 287 -12 647q-14 329 -52 631q-105 -10 -137 -14q-153 -18 -231 -27q-42 124 -39 227q312 62 543 84q249 24 559 27q18 -63 18 -133q0 -43 -14 -131q-119 0 -359 -8q31 -306 31 -732q0 -208 -24 -536zM537 -51q106 17 211 8q-3 -214 -82 -395
q-116 0 -177 20q56 185 48 367z" />
    <glyph glyph-name="uni021B" unicode="&#x21b;" horiz-adv-x="866" 
d="M600 453q118 -10 211 -80q-5 -164 -85.5 -261.5t-219.5 -97.5q-173 0 -268 149.5t-95 426.5q0 176 15 323q-92 11 -148 29q3 116 39 170q52 -16 131 -25q21 138 56 263q188 0 319 -43q-40 -147 -57 -242q175 -3 307 10q0 -70 -31 -168q-110 -19 -305 -16
q-25 -202 -25 -340q0 -354 82 -354q71 0 74 256zM350 -57q106 17 211 8q-3 -214 -82 -395q-115 0 -176 20q55 182 47 367z" />
    <glyph glyph-name="circumflex" unicode="&#x2c6;" horiz-adv-x="532" 
d="M543 1276q-59 -74 -133 -100q-104 91 -156 167q-54 -79 -158 -172q-71 25 -129 97q130 119 197 250q31 8 80 8q57 0 98 -8q57 -118 201 -242z" />
    <glyph glyph-name="caron" unicode="&#x2c7;" horiz-adv-x="532" 
d="M-23 1421q59 75 134 101q100 -88 155 -168q54 79 158 172q72 -26 129 -96q-130 -119 -197 -250q-35 -9 -80 -9q-52 0 -98 9q-57 116 -201 241z" />
    <glyph glyph-name="uni02C9" unicode="&#x2c9;" horiz-adv-x="530" 
d="M35 1294q-4 32 -3 82.5t7 81.5q228 -37 457 -14q9 -78 0 -162q-153 -24 -275 -21t-186 33z" />
    <glyph glyph-name="breve" unicode="&#x2d8;" horiz-adv-x="532" 
d="M53 1313q-44 58 -41 178q62 21 138 18q-7 -73 21 -105t97 -32q148 0 111 135q63 16 145 2q8 -98 -30 -170q-29 -55 -88.5 -84.5t-139.5 -29.5q-143 0 -213 88z" />
    <glyph glyph-name="dotaccent" unicode="&#x2d9;" horiz-adv-x="534" 
d="M299 1538q96 0 158 -33q-20 -43 -42 -117t-34 -137q-94 -15 -258 -12q-21 65 -21 131q0 76 23 133q72 38 174 35z" />
    <glyph glyph-name="ring" unicode="&#x2da;" horiz-adv-x="532" 
d="M51 1358q0 97 66.5 156t175.5 59q87 0 135.5 -43t48.5 -121q0 -105 -65.5 -169t-173.5 -64q-85 0 -136 50t-51 132zM322 1386q0 101 -54 101q-29 0 -47 -34t-18 -89q0 -43 15.5 -69.5t41.5 -26.5q29 0 45.5 32t16.5 86z" />
    <glyph glyph-name="ogonek" unicode="&#x2db;" horiz-adv-x="534" 
d="M289 16l73 -30q-63 -47 -97 -104t-34 -113q0 -72 62 -72q65 0 117 84q43 -39 67 -103q-85 -122 -233 -122q-91 0 -144 43t-53 116q0 85 57.5 156.5t184.5 144.5z" />
    <glyph glyph-name="tilde" unicode="&#x2dc;" horiz-adv-x="532" 
d="M264 1464q59 -30 94 -30q61 0 58 77q77 3 121 -18q8 -103 -31 -162t-117 -59q-55 0 -125 37q-48 28 -82 28q-60 0 -57 -75q-56 -3 -119 16q-7 104 32 162.5t114 58.5q38 0 112 -35z" />
    <glyph glyph-name="hungarumlaut" unicode="&#x2dd;" horiz-adv-x="532" 
d="M268 1509q-23 -161 -141 -340q-101 0 -180 23q59 170 69 338q61 11 131 5t121 -26zM608 1509q-23 -161 -141 -340q-101 0 -180 23q59 170 69 338q61 11 131 5t121 -26z" />
    <glyph glyph-name="pi" unicode="&#x3c0;" horiz-adv-x="1452" 
d="M586 629q0 -157 -15 -295q-15 -139 -55 -318q-56 -15 -151 -12q-101 3 -170 23q57 201 75 303q25 137 35 264q12 156 12 242q-197 -16 -256 -25q-20 94 -15 186.5t34 159.5q206 3 651 -10q389 -14 633 -31q12 -120 -23 -268q-77 6 -251 10q-25 -189 -25 -309
q0 -352 78 -352q56 0 59 231q117 -13 209 -82q-2 -151 -79 -241.5t-210 -90.5q-168 0 -263 151.5t-95 422.5q0 122 14 270q-72 -2 -198 -6q9 -111 6 -223z" />
    <glyph glyph-name="bn_danda" unicode="&#x964;" horiz-adv-x="1200" 
d="M901 537q0 -448 60 -703q-120 -45 -259 -45q0 32 -8 123q-10 136 -10 207q0 398 10 633q7 175 35 440l203 27q-20 -264 -25 -388q-6 -150 -6 -294z" />
    <glyph glyph-name="bn_doubledanda" unicode="&#x965;" horiz-adv-x="1712" 
d="M901 537q0 -448 60 -703q-120 -45 -259 -45q0 32 -8 123q-10 136 -10 207q0 398 10 633q7 175 35 440l203 27q-20 -264 -25 -388q-6 -150 -6 -294zM1413 537q0 -448 60 -703q-120 -45 -259 -45q0 32 -8 123q-10 136 -10 207q0 398 10 633q7 175 35 440l203 27
q-20 -264 -25 -388q-6 -150 -6 -294z" />
    <glyph glyph-name="bn_chandrabindu" unicode="&#x981;" 
d="M12 1913q49 0 82 -35t33 -86q0 -47 -33 -80t-80 -33t-79.5 34.5t-32.5 82.5q0 50 31.5 83.5t78.5 33.5zM205 1745l123 -41q-23 -139 -118.5 -227t-223.5 -88q-125 0 -214.5 76.5t-101.5 193.5l176 49q13 -54 63 -90.5t107 -36.5q66 0 115.5 44t73.5 120z" />
    <glyph glyph-name="bn_anusvar" unicode="&#x982;" horiz-adv-x="923" 
d="M479 1290q132 0 219 -84t84 -211q-3 -143 -102 -235q-101 -98 -244 -98q-129 0 -215 83q-87 84 -84 209q3 142 101 240q101 96 241 96zM428 1124q-56 0 -88.5 -30t-32.5 -84q0 -75 55 -128t130 -53q55 0 87.5 31.5t32.5 83.5q0 75 -53 127.5t-131 52.5zM137 657
q223 -82 438 -260q210 -177 318 -377q-47 -83 -152 -135q-117 193 -313 340q-201 148 -410 203q39 130 119 229z" />
    <glyph glyph-name="bn_bisarga" unicode="&#x983;" horiz-adv-x="888" 
d="M477 1290q132 0 219 -84t84 -211q-3 -143 -102 -235q-101 -98 -244 -98q-129 0 -215 83q-87 84 -84 209q3 142 101 240q101 96 241 96zM426 1124q-56 0 -88.5 -30t-32.5 -84q0 -75 54.5 -128t129.5 -53q55 0 88 32t33 83q0 75 -53 127.5t-131 52.5zM469 580
q128 0 213 -82q84 -84 84 -209q0 -135 -94 -226q-94 -94 -234 -94q-127 0 -211 81t-84 204q0 136 95 231t231 95zM424 412q-54 0 -83.5 -29t-29.5 -80q0 -69 51.5 -118.5t124.5 -49.5q51 0 81 28t30 77q0 73 -50 122.5t-124 49.5z" />
    <glyph glyph-name="bn_a" unicode="&#x985;" horiz-adv-x="1433" 
d="M1280 770q0 -230 -35 -467q-38 -239 -94 -366q-55 0 -115 10.5t-94 27.5q-67 109 -166 195q-67 -47 -162 -47q-192 0 -343 184.5t-255 546.5q80 51 142 72q88 -248 203 -391.5t227 -143.5q80 0 122 57.5t42 167.5q0 101 -31.5 162.5t-85.5 61.5q-32 0 -50 -27t-18 -74
q0 -51 31 -118q-132 0 -209 36q-20 59 -20 115q0 106 60.5 178t152.5 72q147 0 249 -150q99 -150 99 -358q0 -120 -43 -211q54 -71 104 -172q51 200 51 553q0 242 -24 424q-115 10 -268 10q-401 0 -750 -65q-16 62 -16 123t16 90q318 73 758 73q409 0 676 -73q14 -35 14 -97
q0 -58 -14 -116q-98 18 -168 28q14 -158 14 -311z" />
    <glyph glyph-name="bn_aa" unicode="&#x986;" horiz-adv-x="1978" 
d="M1835 969q-62 -516 -14 -1053q-61 -10 -144.5 -13t-132.5 3q12 407 27 600q12 191 33 389q-37 147 -316 199q-35 -199 -35 -480q0 -403 56 -622q-91 -51 -260 -51q-93 148 -234 249q-79 -79 -201 -79q-385 0 -598 731q69 49 142 73q89 -250 202.5 -393t227.5 -143
q80 0 122 57.5t42 167.5q0 99 -33 161t-84 62q-32 0 -50 -26.5t-18 -73.5q0 -52 31 -119q-130 0 -209 37q-20 56 -20 115q0 106 60.5 179t150.5 73q147 0 249 -150q101 -149 101 -358q0 -94 -31 -182q81 -78 129 -152v121q0 535 76 827q-102 10 -293 10q-450 0 -811 -75
q-14 54 -15 116.5t15 96.5q339 82 819 82q299 0 541 -56q242 -57 346 -155q105 94 272 129q17 -29 17 -95.5t-17 -117.5q-95 -21 -143 -84z" />
    <glyph glyph-name="bn_i" unicode="&#x987;" horiz-adv-x="1015" 
d="M1030 1171q0 -64 -14 -118q-218 55 -508 55q-260 0 -508 -55q-16 53 -16 121q0 63 16 92q217 63 514 63q173 0 358 -29q-61 170 -210 170q-61 0 -197 -30q-143 -31 -201 -31q-205 0 -336 238q49 73 133 137q53 -94 105 -134t117 -40q54 0 166 28q157 35 215 35
q134 0 227 -108t125 -299q14 -32 14 -95zM1040 -137q-64 -86 -133 -146q-376 385 -794 519l-41 282q186 -61 350 -61q237 0 237 164q0 89 -57 155q-59 68 -131 68q-76 0 -76 -72q0 -50 60 -102q-45 -27 -109 -44t-117 -16q-65 83 -65 183q0 105 66.5 167t177.5 62
q179 0 331 -158q150 -156 150 -346q0 -127 -80 -206t-229 -99q205 -127 460 -350z" />
    <glyph glyph-name="bn_ii" unicode="&#x988;" horiz-adv-x="1214" 
d="M1227 1171q0 -61 -13 -118q-247 53 -606 53q-310 0 -608 -53q-16 53 -16 121q0 63 16 92q256 61 610 61q282 0 461 -33q-59 176 -211 176q-71 0 -201 -26q-135 -27 -200 -27q-203 0 -336 230q51 73 135 127q59 -89 106.5 -121.5t112.5 -32.5q57 0 170 25q138 28 215 28
q133 0 224.5 -107.5t127.5 -299.5q13 -37 13 -95zM1124 -20q-36 -14 -101.5 -26.5t-107.5 -12.5q-41 144 -41 322.5t39 354.5q-115 -279 -237 -395q-125 -119 -305 -119q-102 0 -207 43l-41 269q125 -49 231 -49q91 0 144 51t53 137q0 108 -59 188q-62 80 -142 80
q-35 0 -54.5 -18.5t-19.5 -50.5q0 -61 97 -121q-36 -39 -89.5 -67t-95.5 -29q-114 99 -114 243q0 102 63.5 161.5t169.5 59.5q127 0 238.5 -84t167.5 -221q134 205 192 260q134 -45 234 -151q-121 -390 -15 -825z" />
    <glyph glyph-name="bn_u" unicode="&#x989;" horiz-adv-x="1232" 
d="M1188 434q0 -229 -113 -363t-309 -134q-258 0 -441 223.5t-305 697.5q53 35 170 80q219 -748 590 -748q119 0 181.5 78t62.5 226q0 67 -6 100q-61 -79 -121.5 -114.5t-130.5 -35.5q-132 0 -221 115q-90 116 -90 266q0 104 41 289q-275 -12 -496 -61q-16 43 -16 121
q0 63 16 92q281 71 618 71q252 0 472 -41q-31 90 -82 132t-129 42q-74 0 -205 -28q-140 -29 -211 -29q-211 0 -346 234q52 77 135 137q54 -90 107.5 -130t121.5 -40q58 0 181 26q153 33 219 33q134 0 227 -108t125 -299q18 -32 18 -88q0 -62 -18 -125q-205 49 -492 61
q-41 -117 -66.5 -224t-25.5 -157q0 -37 16.5 -57.5t47.5 -20.5q33 0 78.5 52t123.5 182q105 -25 189 -70q84 -175 84 -385z" />
    <glyph glyph-name="bn_uu" unicode="&#x98a;" horiz-adv-x="1370" 
d="M1327 436q0 -242 -123.5 -377t-345.5 -135q-282 0 -498 222t-350 645q56 32 140 59q154 -469 397 -664q-180 225 -309 699q56 33 139 59q120 -425 239 -590q120 -166 291 -166q258 0 258 312q0 14 -1 30t-2.5 35.5t-2.5 30.5q-62 -80 -122 -116t-132 -36q-133 0 -221 117
q-90 119 -90 268q0 80 39 281q-363 -3 -633 -57q-18 49 -18 121q0 51 18 92q298 65 686 65q299 0 545 -39q-60 178 -213 178q-85 0 -238 -28q-164 -29 -248 -29q-213 0 -348 234q52 77 135 137q54 -90 108.5 -130t123.5 -40q63 0 209 26q180 33 258 33q134 0 227 -108
t125 -299q16 -29 16 -95q0 -78 -16 -118q-211 44 -491 53q-88 -280 -88 -371q0 -36 16.5 -58t42.5 -22q35 0 77.5 48.5t127.5 185.5q103 -25 188 -70q84 -175 84 -383z" />
    <glyph glyph-name="bn_ri" unicode="&#x98b;" horiz-adv-x="1533" 
d="M434 496q210 -124 318 -299q3 258 43 497q-183 -67 -361 -198zM961 186q0 -55 4 -231q-79 -17 -195 -14q-173 327 -498 411q-47 77 -65.5 138.5t-20.5 136.5q188 172 478 291q-10 70 -43 118q-60 -72 -139.5 -113.5t-157.5 -41.5q-119 0 -188.5 74.5t-69.5 203.5
q0 57 18 92q90 52 227 49q-19 -25 -22 -79q0 -52 25.5 -80.5t74.5 -28.5q59 0 120.5 37t106.5 98l119 -80q54 -85 66 -198q3 1 14 5t14 5q14 155 58 334q115 -9 225 -62q-121 -367 -145 -800q129 -86 219 -215q-15 157 -15 276q0 415 119 760q119 0 195 -37
q-50 -123 -80.5 -281t-30.5 -303q0 -167 26 -335t73 -296q-42 -21 -112 -32.5t-132 -7.5q-108 175 -268 272v-66z" />
    <glyph glyph-name="bn_li" unicode="&#x98c;" horiz-adv-x="1060" 
d="M991 653q0 -162 -47.5 -351.5t-132.5 -362.5q-120 0 -205 36q1 230 -68.5 359t-193.5 129q-69 0 -110 -42.5t-41 -111.5q0 -53 25 -82.5t67 -29.5q77 0 129 106q31 -55 54.5 -130.5t29.5 -135.5q-67 -96 -168 -96q-121 0 -203 116q-84 116 -84 287q0 179 88 288t234 109
q141 0 234 -122t116 -336q53 109 82.5 221t29.5 201q0 84 -59 131q-56 45 -250 86q-241 55 -330 147q-90 93 -120 281q77 55 176 80q21 -122 71 -175q46 -55 187 -86l135 -32q183 -43 268.5 -160t85.5 -324z" />
    <glyph glyph-name="bn_e" unicode="&#x98f;" horiz-adv-x="1294" 
d="M1114 -33q-82 -33 -213 -33q0 2 -24 48q-21 43 -43 69q-47 53 -121 53q-61 0 -185 -41q-156 -45 -219 -45q-123 0 -195.5 82t-72.5 219q0 146 74 310q99 -3 178 -33q-47 -89 -47 -182q0 -55 28.5 -85t79.5 -30t150 35q117 37 174 37q69 0 116.5 -45.5t82.5 -145.5
q63 366 63 897q0 51 -20.5 80t-57.5 29q-79 0 -164 -107q-88 -107 -88 -202q0 -41 22.5 -63.5t63.5 -22.5q64 0 123 53q8 -11 8 -47q0 -52 -16.5 -109.5t-42.5 -93.5q-61 -39 -141 -39q-124 0 -204.5 78.5t-80.5 202.5q0 183 158 352q156 166 338 166q140 0 235 -103
q96 -104 96 -260q0 -585 -55 -1024z" />
    <glyph glyph-name="bn_ai" unicode="&#x990;" horiz-adv-x="1433" 
d="M1114 -33q-82 -33 -213 -33q0 2 -24 48q-21 43 -43 69q-47 53 -121 53q-61 0 -185 -41q-156 -45 -219 -45q-123 0 -195.5 82t-72.5 219q0 146 74 310q99 -3 178 -33q-47 -89 -47 -182q0 -55 28.5 -85t79.5 -30t150 35q117 37 174 37q69 0 116.5 -45.5t82.5 -145.5
q63 366 63 897q0 51 -20.5 80t-57.5 29q-79 0 -164 -107q-88 -107 -88 -202q0 -41 22.5 -63.5t63.5 -22.5q64 0 123 53q8 -11 8 -47q0 -52 -16.5 -109.5t-42.5 -93.5q-61 -39 -141 -39q-124 0 -204.5 78.5t-80.5 202.5q0 183 158 352q156 166 338 166q123 0 214 -81
t111 -210q101 90 101 197q0 71 -62 112q-60 35 -303 70q-258 35 -342 114q-92 83 -119 263q78 53 174 77q21 -125 74 -178q52 -52 184 -73l160 -25q356 -59 356 -377q0 -116 -53 -222.5t-166 -219.5q-3 -421 -53 -834z" />
    <glyph glyph-name="bn_o" unicode="&#x993;" horiz-adv-x="1462" 
d="M1378 319q0 -173 -114.5 -280t-305.5 -107q-311 0 -539 293.5t-382 900.5q83 53 172 80q126 -468 328 -737q202 -272 436 -272q100 0 155.5 49t55.5 139q0 74 -41 133q-73 -92 -178 -92q-93 0 -153 62.5t-60 160.5q0 96 58.5 160.5t145.5 64.5q85 0 146 -61q72 87 72 186
q0 73 -44 114t-124 46q-131 3 -222 -82q-92 -86 -92 -205q0 -17 6 -86q-69 0 -144 28.5t-116 70.5q-3 195 140 332q138 135 346 135q189 0 311 -113q123 -114 123 -289q0 -84 -29 -164.5t-80 -142.5q129 -142 129 -324zM870 682q0 -29 18.5 -46.5t49.5 -17.5q55 0 106 72
q-49 68 -100 68q-31 0 -52.5 -22.5t-21.5 -53.5z" />
    <glyph glyph-name="bn_au" unicode="&#x994;" horiz-adv-x="1589" 
d="M1378 319q0 -173 -114.5 -280t-305.5 -107q-311 0 -539 293.5t-382 900.5q83 53 172 80q126 -468 328 -737q202 -272 436 -272q100 0 155.5 49t55.5 139q0 74 -41 133q-73 -92 -178 -92q-93 0 -153 62.5t-60 160.5q0 96 58.5 160.5t145.5 64.5q85 0 146 -61q72 87 72 186
q0 73 -44 114t-124 46q-131 3 -222 -82q-92 -86 -92 -205q0 -17 6 -86q-69 0 -144 28.5t-116 70.5q-3 195 140 332q138 135 346 135q153 0 266 -77t151 -206q74 90 74 184q0 75 -61 115q-63 39 -301 74q-255 40 -342 119q-90 81 -117 256q66 47 174 81q20 -121 72 -176
q51 -55 186 -75l156 -27q358 -59 358 -373q0 -235 -209 -456q-28 -84 -82 -148q129 -142 129 -324zM870 682q0 -29 18.5 -46.5t49.5 -17.5q55 0 106 72q-49 68 -100 68q-31 0 -52.5 -22.5t-21.5 -53.5z" />
    <glyph glyph-name="bn_ka" unicode="&#x995;" horiz-adv-x="1318" 
d="M834 590q0 -395 49 -615q-92 -36 -258 -36q-176 361 -471 434q-98 133 -109 280q107 114 264 215t344 174q0 3 9 74h-13q-331 0 -649 -63q-16 62 -16 118q0 66 16 95q281 71 657 71q184 0 365 -18q193 -22 297 -53q18 -41 18 -97q0 -57 -18 -116q-216 45 -467 57
q0 -2 -1 -14t-1 -25q0 -10 -1 -22t-1 -15q190 -47 311 -174q121 -130 121 -280q0 -102 -48.5 -189t-131.5 -139q-50 11 -100.5 60.5t-79.5 117.5q88 31 146 86.5t58 110.5q0 115 -288 139q-2 -39 -2 -176zM614 213v74q0 219 13 458q-179 -81 -328 -217q200 -121 315 -315z
" />
    <glyph glyph-name="bn_kha" unicode="&#x996;" horiz-adv-x="1259" 
d="M1137 932q0 -329 -33 -588t-96 -412q-68 0 -139 11.5t-113 29.5q-82 184 -183.5 283.5t-238.5 130.5q-84 125 -98 250l178 90q113 57 166 121t53 143v8q-60 -74 -140 -117.5t-157 -43.5q-122 0 -191 75.5t-69 208.5q0 41 16 84q88 54 227 54q-20 -33 -20 -78
q0 -111 98 -111q57 0 121 39.5t105 99.5l122 -77q66 -97 66 -244q0 -129 -60.5 -229t-175.5 -160q175 -134 246 -367q82 253 82 676q0 34 -4 160q-2 33 -2 53q0 123 121 176q106 44 242 68q16 -37 16 -95q0 -75 -16 -118q-61 -17 -76 -25q-26 -12 -36.5 -33t-10.5 -63z" />
    <glyph glyph-name="bn_ga" unicode="&#x997;" horiz-adv-x="1083" 
d="M954 936q0 -271 -22 -551q-21 -266 -62 -453q-146 0 -260 31q74 256 97 518v8q10 99 14 199v21q0 155 -90 262q-88 102 -211 102q-82 0 -130 -36t-48 -99q0 -14 2 -20q73 36 151 36q95 0 166 -80q68 -83 68 -196q0 -180 -246 -440q-125 84 -193 200q139 100 216 175
t77 112q0 49 -53 49q-119 0 -278 -110l-80 127q-17 73 -17 129q0 168 99 282q94 111 249 111q121 0 213.5 -87t143.5 -249q-1 26 -2.5 47.5t-1.5 28.5q0 47 29.5 89t76.5 62q117 44 221 62q19 -44 19 -99t-19 -114q-35 -10 -75 -25q-54 -22 -54 -92z" />
    <glyph glyph-name="bn_gha" unicode="&#x998;" horiz-adv-x="1071" 
d="M541 885q26 -41 48 -110t29 -136l-227 -180q191 -110 299 -269v107q0 228 10.5 404t38.5 399q-76 8 -200 8h-50q-104 -37 -158.5 -89t-54.5 -114q0 -47 29 -76.5t74 -29.5q76 0 162 86zM920 598q0 -418 41 -614q-86 -39 -252 -39q-186 305 -484 366q-55 50 -83.5 117
t-26.5 137l155 127q-97 23 -150.5 85.5t-53.5 152.5q0 82 40 143q-7 -1 -16 -2.5t-24.5 -4.5t-28.5 -5q-14 -4 -24.5 -6t-12.5 -2q-16 66 -16 121q0 63 16 92q234 63 549 63q148 0 289 -17t233 -46q16 -29 16 -92q0 -65 -16 -121q-45 10 -129 24q-22 -212 -22 -479z" />
    <glyph glyph-name="bn_nga" unicode="&#x999;" horiz-adv-x="1241" 
d="M719 1092q66 -15 112 -15q66 0 101 24t35 68q0 37 -24.5 59.5t-65.5 22.5q-98 0 -158 -159zM1184 403q0 -228 -113 -359.5t-309 -131.5q-256 0 -438 228.5t-304 715.5q99 49 175 68q110 -380 252 -565t325 -185q121 0 184.5 78t63.5 227q0 63 -6 94q-72 -74 -129 -104.5
t-119 -32.5q-136 -4 -219.5 105.5t-83.5 294.5q0 86 10 135q-184 64 -283 151q37 132 95 209q88 -95 241 -168q103 219 322 219q116 0 184 -62t68 -163q0 -116 -82 -184t-223 -68q-61 0 -115 10q-14 -110 -14 -196q0 -84 57 -84q31 0 76 46.5t123 158.5q74 -15 176 -66
q86 -170 86 -371z" />
    <glyph glyph-name="bn_ca" unicode="&#x99a;" horiz-adv-x="972" 
d="M719 834q100 -49 142 -110t42 -155q0 -246 -143 -438t-334 -192q-142 0 -229.5 105.5t-87.5 283.5q0 130 22 352q19 188 57 403q-87 -9 -188 -30q-14 54 -14 118q0 51 14 95q90 27 217 41q147 16 268 16q117 0 271 -16q131 -14 217 -41q14 -32 14 -92q0 -61 -14 -121
q-95 23 -225 37q-135 12 -259 12h-45q26 -85 91.5 -149t183.5 -119zM328 242q0 -72 15 -104t50 -32q87 0 166 166q80 165 80 324q0 34 -16 56.5t-64 52.5q-120 80 -160 206q-31 -171 -51 -368q-20 -176 -20 -301z" />
    <glyph glyph-name="bn_cha" unicode="&#x99b;" horiz-adv-x="1089" 
d="M334 682q0 -59 47 -59q63 0 115 73q53 71 53 162v6q-131 26 -197 101q-18 -166 -18 -283zM1087 -182q-64 -85 -141 -146q-323 317 -713 475l-38 285q155 -57 303 -57q131 0 206.5 61.5t75.5 169.5q0 79 -43 144q-43 -120 -140 -192.5t-218 -72.5q-111 0 -189 72
q-79 70 -79 176q0 162 22 346q-84 -13 -133 -26q-14 54 -14 118q0 51 14 95q89 30 242 47q159 18 317 18q157 0 307 -18q141 -17 226 -47q14 -32 14 -92q0 -49 -16 -121q-99 27 -238 41q-160 16 -295 16q-121 0 -184 -6q108 -93 379 -131q116 -87 182.5 -206.5t66.5 -246.5
q0 -154 -101 -249t-284 -115q225 -135 471 -338z" />
    <glyph glyph-name="bn_ja" unicode="&#x99c;" horiz-adv-x="1497" 
d="M1028 678q37 -121 37 -262q0 -220 -100.5 -344.5t-278.5 -124.5q-231 0 -394.5 221t-271.5 690q84 46 168 72q185 -735 512 -735q104 0 157.5 75.5t53.5 218.5q0 38 -2 48q-124 -93 -219 -93q-120 0 -209 99q-88 94 -88 239q0 141 86 332q-270 -16 -479 -61
q-16 53 -16 123q0 61 16 90q143 35 344 56t404 21q217 0 413 -20q194 -20 336 -57q16 -37 16 -97t-16 -116q-275 54 -631 67q87 -157 258 -157q86 0 162 43q92 -64 141 -197q-67 -213 -67 -442q0 -176 43 -381q-33 -16 -98 -25q-78 -10 -119 -10q-33 132 -33 338
q0 247 76 459h-29q-157 0 -288.5 96.5t-194.5 257.5q-57 -85 -107 -207q-45 -110 -45 -174q0 -33 15.5 -51.5t44.5 -18.5q41 0 101 43t110 107q118 -62 192 -123z" />
    <glyph glyph-name="bn_jha" unicode="&#x99d;" horiz-adv-x="1388" 
d="M293 524q201 -135 299 -327q3 256 51 544q-177 -77 -350 -217zM831 319q3 -207 31 -337q-84 -41 -260 -41q-164 347 -465 432q-87 145 -90 286q122 122 291.5 223t363.5 167q10 31 13 55q-117 8 -166 8q-139 0 -289 -16.5t-260 -42.5q-12 49 -12 125q0 54 12 88
q97 29 248 49q156 18 301 18q139 0 252 -22q96 -21 96 -117q0 -4 -0.5 -9.5t-3 -25t-4.5 -43.5q-42 -306 -55 -596q138 -108 208 -221q-16 181 -16 332q0 164 18 411q1 54 33 97.5t82 60.5q121 47 230 66q18 -32 18 -99q0 -58 -18 -114q-57 -15 -113 -37q-53 -24 -53 -84
v-156q0 -392 112 -702q-41 -23 -113 -36t-135 -9q-104 181 -256 290z" />
    <glyph glyph-name="bn_nya" unicode="&#x99e;" horiz-adv-x="1777" 
d="M1159 537q60 -67 137 -107.5t146 -40.5q60 0 95.5 29.5t35.5 79.5q0 19 -14 59q-62 -74 -142 -74q-69 0 -116.5 48.5t-47.5 121.5q0 77 48 129t118 52q72 0 127 -58q19 53 19 82q0 37 -28 58.5t-75 21.5q-79 0 -157 -52.5t-138 -146.5q0 -25 -8 -202zM1352 682
q0 -25 14 -39t39 -14q35 0 70 35q17 17 20 26q-36 51 -80 51q-29 0 -46 -16t-17 -43zM1114 -33q-82 -33 -213 -33q0 2 -24 48q-21 43 -43 69q-47 53 -121 53q-61 0 -185 -41q-156 -45 -219 -45q-123 0 -195.5 82t-72.5 219q0 146 74 310q99 -3 178 -33q-47 -89 -47 -182
q0 -55 28.5 -85t79.5 -30t150 35q117 37 174 37q69 0 116.5 -45.5t82.5 -145.5q63 366 63 897q0 51 -20.5 80t-57.5 29q-79 0 -164 -107q-88 -107 -88 -202q0 -41 22.5 -63.5t63.5 -22.5q64 0 123 53q8 -11 8 -47q0 -52 -16.5 -109.5t-42.5 -93.5q-61 -39 -141 -39
q-124 0 -204.5 78.5t-80.5 202.5q0 183 158 352q156 166 338 166q141 0 235 -101q96 -104 96 -256q133 136 289 136q116 0 187 -68t71 -180q0 -120 -76 -238q82 -107 82 -221q0 -109 -72 -176.5t-188 -67.5q-86 0 -168 42.5t-145 117.5q-13 -195 -35 -375z" />
    <glyph glyph-name="bn_tta" unicode="&#x99f;" horiz-adv-x="1030" 
d="M690 803q122 0 200.5 -82t78.5 -215q0 -93 -39 -191t-109 -184q-73 -90 -165.5 -141t-180.5 -51q-150 0 -242 102q-96 104 -96 260q0 394 49 786q-130 -18 -186 -34q-12 59 -12 108q0 67 12 105q78 29 212.5 46t287.5 17q211 0 387 -33q-31 85 -83 124.5t-132 39.5
q-46 0 -197 -24q-160 -25 -201 -25q-188 0 -309 186q52 105 113 160q54 -80 103 -111.5t112 -31.5q43 0 168 20q142 27 213 27q136 0 228 -104t128 -291q17 -39 17 -103t-17 -110q-273 55 -526 55h-55q-36 -187 -58 -432q-22 -248 -22 -451q0 -120 82 -123q78 0 163 125
q86 127 86 234q0 51 -22.5 79.5t-61.5 28.5q-70 0 -120 -57q-11 26 -11 51q0 53 16.5 108t41.5 91q59 41 147 41z" />
    <glyph glyph-name="bn_ttha" unicode="&#x9a0;" horiz-adv-x="1001" 
d="M178 260q66 -110 205 -110q147 0 242 133q94 131 94 323q0 243 -150 500q31 -114 31 -207q0 -229 -110.5 -397.5t-311.5 -241.5zM725 1096q205 -331 205 -621q0 -239 -127 -387q-129 -147 -338 -147q-195 0 -306.5 123t-111.5 337q0 8 1.5 29.5t2.5 42.5q167 74 285 229
q113 149 113 326q0 48 -7 80q-203 -9 -442 -55q-16 66 -16 123q0 61 16 90q192 48 414 61q-103 177 -103 326q0 88 30.5 173.5t86.5 153.5q99 -39 166 -98q-45 -43 -75 -118t-30 -146q0 -123 101 -291q222 -13 411 -61q19 -34 19 -90t-19 -123q-189 35 -276 43z" />
    <glyph glyph-name="bn_dda" unicode="&#x9a1;" horiz-adv-x="1232" 
d="M1188 434q0 -229 -113 -363t-309 -134q-258 0 -441 223.5t-305 697.5q53 35 170 80q219 -748 590 -748q119 0 181.5 78t62.5 226q0 67 -6 100q-61 -79 -121.5 -114.5t-130.5 -35.5q-132 0 -221 115q-90 116 -90 266q0 104 41 289q-275 -12 -496 -61q-16 43 -16 121
q0 63 16 92q281 71 618 71q331 0 615 -71q18 -32 18 -88q0 -62 -18 -125q-205 49 -492 61q-41 -117 -66.5 -224t-25.5 -157q0 -37 16.5 -57.5t47.5 -20.5q33 0 78.5 52t123.5 182q105 -25 189 -70q84 -175 84 -385z" />
    <glyph glyph-name="bn_ddha" unicode="&#x9a2;" horiz-adv-x="1030" 
d="M690 803q122 0 200.5 -82t78.5 -215q0 -93 -39 -191t-109 -184q-73 -90 -165.5 -141t-180.5 -51q-150 0 -242 102q-96 104 -96 260q0 394 49 786q-130 -18 -186 -34q-12 59 -12 108q0 67 12 105q78 29 212.5 46t287.5 17q138 0 282.5 -17t247.5 -46q17 -39 17 -103
t-17 -110q-273 55 -526 55h-55q-36 -187 -58 -432q-22 -248 -22 -451q0 -120 82 -123q78 0 163 125q86 127 86 234q0 51 -22.5 79.5t-61.5 28.5q-70 0 -120 -57q-11 26 -11 51q0 53 16.5 108t41.5 91q59 41 147 41z" />
    <glyph glyph-name="bn_nna" unicode="&#x9a3;" horiz-adv-x="1046" 
d="M920 930q-15 -398 -37 -615q-23 -197 -74 -383q-67 0 -139.5 15.5t-116.5 40.5q91 258 115 493q7 67 8 80q6 78 10 150q-3 138 -86 227q-85 88 -197 88q-78 0 -129 -56t-51 -141q0 -55 24.5 -87.5t65.5 -32.5q37 0 59.5 34.5t22.5 90.5q0 52 -22 94q118 -28 198 -111
q13 -26 13 -61q0 -99 -67 -167.5t-165 -68.5q-128 0 -211 111q-84 113 -84 276q0 173 90 289q89 115 230 115q118 0 207.5 -84t140.5 -242q0 5 -1 24t-1 27q0 68 22.5 104.5t77.5 61.5q71 35 224 64q18 -41 18 -97q0 -60 -18 -116q-40 -9 -72 -23t-43 -33t-12 -67z" />
    <glyph glyph-name="bn_ta" unicode="&#x9a4;" horiz-adv-x="1247" 
d="M1247 1053q-299 55 -624 55q-313 0 -623 -55q-18 59 -18 118q0 54 18 95q274 63 623 63q350 0 624 -63q19 -30 19 -95q0 -59 -19 -118zM774 1004q173 0 305 -181q129 -182 129 -428q0 -217 -106.5 -340t-296.5 -123q-255 0 -447 224.5t-331 689.5q69 44 170 82
q100 -324 260 -520q159 -199 331 -199q115 0 174.5 69.5t59.5 204.5q0 133 -53 219t-129 86q-43 0 -66.5 -31t-23.5 -87q0 -86 71 -172q-55 -25 -125 -25q-95 0 -137 29q-51 91 -51 194q0 134 74.5 221t191.5 87z" />
    <glyph glyph-name="bn_tha" unicode="&#x9a5;" horiz-adv-x="1204" 
d="M1077 926q0 -316 -32.5 -576t-92.5 -418q-68 0 -140.5 16t-113.5 40q-81 165 -185.5 255t-246.5 119q-78 128 -92 256l184 101q193 108 193 268q0 57 -32.5 90t-86.5 33q-55 0 -89 -36.5t-34 -92.5q0 -74 51 -113q-109 -65 -249 -65q-54 83 -54 182q0 141 90.5 231.5
t235.5 90.5q160 0 262 -111q98 -113 98 -287q0 -275 -235 -424l-6 -4q185 -125 268 -336q80 253 80 680q0 7 -4 133q-1 19 -2.5 41.5t-1.5 30.5q0 55 29.5 99t80.5 67q102 44 252 70q19 -34 19 -95q0 -59 -19 -118q-66 -22 -76 -25q-29 -12 -40 -33.5t-11 -68.5z" />
    <glyph glyph-name="bn_da" unicode="&#x9a6;" horiz-adv-x="1054" 
d="M903 344q0 -168 37 -350q-31 -20 -94.5 -35.5t-112.5 -17.5q-33 138 -33 319q0 215 56 434q-122 -93 -235 -219.5t-187 -251.5q-70 8 -144 33.5t-112 56.5q122 393 137 774q-152 -20 -215 -34q-16 56 -16 123q0 61 16 90q234 63 565 63q131 0 275 -18q142 -18 215 -45
q14 -44 14 -88q0 -71 -14 -125q-101 26 -228 39q-154 16 -270 16q-17 0 -37 -0.5t-54 -1.5t-67 -2v-68q0 -136 -18 -354q178 199 362 311q126 -49 230 -188q-70 -232 -70 -461z" />
    <glyph glyph-name="bn_dha" unicode="&#x9a7;" horiz-adv-x="1081" 
d="M926 610q0 -421 37 -618q-91 -51 -263 -51q-183 364 -493 434q-51 74 -76 139t-31 141q67 64 162 123q-97 37 -151 106.5t-54 157.5q0 131 79.5 209t215.5 78q86 0 160 -49t113 -129q-76 -101 -174 -137q-5 43 -33.5 70.5t-69.5 27.5t-64.5 -28t-23.5 -78q0 -53 41.5 -89
t99.5 -36q38 0 97 22q119 58 252 98q4 12 4 27q12 75 36 115t68 57q104 43 223 66q19 -44 19 -99t-19 -114q-59 -12 -102 -35q-22 -11 -29.5 -27t-11.5 -67q-12 -156 -12 -314zM696 170v78q0 229 19 454q-204 -78 -348 -178q215 -137 329 -354z" />
    <glyph glyph-name="bn_na" unicode="&#x9a8;" horiz-adv-x="1050" 
d="M934 -39q-84 -20 -260 -20q-10 93 -10 290v11q-3 162 -113 299q-115 139 -238 139q-60 0 -93.5 -28t-33.5 -79q0 -57 46 -90.5t122 -33.5q75 0 125 26q0 -144 -37 -260q-24 -14 -77 -14q-143 0 -233.5 107t-90.5 280q0 149 76.5 241.5t199.5 92.5q108 0 201.5 -79.5
t153.5 -221.5q12 274 55 481q-59 6 -184 6q-295 0 -543 -55q-16 78 -16 123q0 50 16 90q240 63 549 63q272 0 502 -63q14 -40 14 -95q0 -60 -14 -118q-54 14 -123 26q-21 -172 -27 -274q-8 -96 -8 -238q0 -408 41 -606z" />
    <glyph glyph-name="bn_pa" unicode="&#x9aa;" horiz-adv-x="1234" 
d="M1122 -39q-84 -20 -260 -20q-10 95 -10 305q0 256 12 465q-3 61 -14 98q-72 -106 -187 -227.5t-249 -233.5q-115 83 -178 203q2 1 12.5 8.5t21.5 15.5q43 37 43 91q0 60 -62 101t-161 52q-54 104 -74 209q97 134 223 209.5t255 75.5q139 0 242 -88t159 -250q0 20 14 78
q22 115 105 151q71 35 219 62q18 -32 18 -97q0 -60 -18 -116q-61 -18 -72 -23q-29 -10 -42.5 -33t-18.5 -65q-19 -156 -19 -354q0 -415 41 -617zM297 958q69 -37 108 -85t39 -99q0 -41 -20 -74q185 157 309 308q-90 77 -203 77q-66 0 -121 -30t-112 -97z" />
    <glyph glyph-name="bn_pha" unicode="&#x9ab;" horiz-adv-x="1449" 
d="M936 610q0 -433 63 -622q-97 -51 -264 -51q-192 317 -514 378q-62 51 -98.5 117t-40.5 135l270 271q-53 31 -71 43q-46 23 -91 51q-106 70 -127 131q-4 0 -7.5 -0.5t-10 -1.5t-12.5 -2q-18 -2 -33 -6q-18 52 -18 116.5t18 96.5q319 67 772 67q190 0 381 -18
q183 -20 297 -49q14 -37 14 -99.5t-14 -113.5q-133 28 -315 43q-200 16 -369 16q-198 0 -408 -16q12 -99 205 -271l76 -71l-252 -279q201 -105 320 -272v86q0 207 10 395q8 150 31 346q284 -12 454 -135t170 -309q0 -98 -46 -182.5t-128 -135.5q-49 10 -98 59.5t-78 118.5
q85 26 142 74.5t57 95.5q0 52 -67.5 83t-215.5 44q-2 -31 -2 -133z" />
    <glyph glyph-name="bn_ba" unicode="&#x9ac;" horiz-adv-x="1026" 
d="M866 610q0 -414 58 -618q-91 -51 -260 -51q-185 330 -508 401q-95 130 -107 281q116 125 284 233.5t369 187.5q10 30 13 56q-131 8 -174 8q-261 0 -541 -55q-16 66 -16 118q0 58 16 95q262 63 549 63q117 0 252 -18q138 -18 225 -45q16 -37 16 -97t-16 -116
q-68 13 -131 24q-29 -277 -29 -467zM641 188q-2 18 -2 97q0 254 20 450q-199 -95 -354 -235q214 -124 336 -312z" />
    <glyph glyph-name="bn_bha" unicode="&#x9ad;" horiz-adv-x="1290" 
d="M1290 1053q-313 55 -649 55q-349 0 -641 -55q-16 50 -16 118q0 58 16 95q275 63 641 63q368 0 649 -63q19 -30 19 -95q0 -67 -19 -118zM1245 424q0 -223 -121.5 -355t-330.5 -132q-266 0 -457.5 226t-315.5 695q92 55 173 80q220 -735 608 -735q131 0 198.5 76.5
t67.5 224.5q0 63 -10 117q-146 -162 -303 -162q-127 0 -215 88q-93 87 -93 209q0 87 51 157.5t136 102.5q55 -10 109 -51t77 -91q-86 -17 -147.5 -62.5t-61.5 -92.5q0 -31 20.5 -48.5t57.5 -17.5q56 0 132.5 53t199.5 179q96 -61 160 -131q65 -155 65 -330z" />
    <glyph glyph-name="bn_ma" unicode="&#x9ae;" horiz-adv-x="1095" 
d="M487 813q83 -85 112.5 -144.5t29.5 -131.5q0 -65 -31 -125q58 -64 117 -176v69q0 256 10 438q8 152 37 357q-145 8 -207 8q-15 0 -34 -0.5t-53 -1.5t-67 -2q-24 -46 -24 -92q0 -45 22 -87t88 -112zM1016 8q-121 -71 -260 -71q0 1 -1.5 4t-3.5 7.5t-3 6.5
q-88 187 -232 313q-70 -108 -205 -108q-113 0 -185.5 76.5t-72.5 197.5q0 112 66 185t166 73q84 0 147 -51q-2 46 -35 80t-129 82q-105 52 -140.5 92.5t-35.5 97.5q0 37 17 80q-13 -1 -74 -14q-20 -2 -35 -6q-14 54 -15 116.5t15 96.5q255 63 561 63q150 0 297 -17t238 -46
q14 -37 14 -99.5t-14 -113.5q-92 18 -133 24q-23 -203 -23 -463q0 -411 76 -606zM199 481q0 -38 28.5 -62t75.5 -24q78 0 113 66q-26 47 -63 73.5t-74 26.5q-35 0 -57.5 -22.5t-22.5 -57.5z" />
    <glyph glyph-name="bn_ya" unicode="&#x9af;" horiz-adv-x="1101" 
d="M936 610q0 -430 55 -618q-99 -55 -262 -55q-193 315 -506 376q-127 103 -137 236l268 287q-32 18 -75 45q-82 49 -86 51q-117 75 -130 133q-9 -1 -29 -5t-34 -7q-18 52 -18 116.5t18 96.5q242 63 580 63q132 0 282 -18q152 -18 240 -45q13 -40 12.5 -101t-12.5 -112
q-54 11 -95.5 18t-48.5 8q-22 -199 -22 -469zM563 825l76 -71l-244 -287q192 -101 312 -274v96q0 247 12 428q7 144 39 383q-76 8 -187 8q-134 0 -213 -8q9 -103 205 -275z" />
    <glyph glyph-name="bn_ra" unicode="&#x9b0;" horiz-adv-x="1024" 
d="M866 610q0 -414 58 -618q-91 -51 -260 -51q-185 330 -508 401q-95 130 -107 281q116 125 284 233.5t369 187.5q10 30 13 56q-131 8 -174 8q-261 0 -541 -55q-16 66 -16 118q0 58 16 95q262 63 549 63q117 0 252 -18q138 -18 225 -45q16 -37 16 -97t-16 -116
q-68 13 -131 24q-29 -277 -29 -467zM641 188q-2 18 -2 97q0 254 20 450q-199 -95 -354 -235q214 -124 336 -312zM186 -12q0 57 38 96t95 39q63 0 107.5 -46t44.5 -112q0 -57 -38 -95t-95 -38q-66 0 -109 45t-43 111z" />
    <glyph glyph-name="bn_la" unicode="&#x9b2;" horiz-adv-x="1263" 
d="M1147 -37q-90 -22 -260 -22q-13 117 -13 313q0 46 2 147.5t3 155.5q-6 61 -39 100t-76 39q-31 0 -48.5 -17t-17.5 -46q0 -18 9 -39l36 -66q-67 -36 -159 -59l-33 53q-105 142 -236 142q-59 0 -94 -28t-35 -73q0 -55 57 -92t138 -37q34 0 96 15q0 -69 -22.5 -145.5
t-57.5 -127.5q-161 11 -259.5 125.5t-98.5 292.5q0 154 71 251t183 97q73 0 140 -43t118 -123q20 75 65.5 120.5t100.5 45.5q53 0 98 -41.5t76 -116.5q12 158 41 316q-181 16 -314 16q-303 0 -618 -63q-16 56 -16 123q0 61 16 90q281 71 627 71q171 0 343 -19.5t294 -51.5
q14 -40 14 -95q0 -57 -14 -118q-37 7 -131 22q-19 -199 -23 -262q-6 -111 -6 -233q0 -408 43 -617z" />
    <glyph glyph-name="bn_sha" unicode="&#x9b6;" horiz-adv-x="1247" 
d="M1118 928q-10 -414 -28 -594q-22 -221 -60 -393q-171 0 -264 34q110 354 119 826q-7 114 -64.5 186t-136.5 72q-38 0 -80 -27q91 -37 144 -117t53 -178q0 -100 -56 -161.5t-147 -61.5q-121 0 -184 104q-76 -106 -189 -106q-88 0 -143 57.5t-55 153.5q0 111 77 211
q79 98 193 125q-49 18 -102 18q-101 0 -195 -24q-16 56 -16 112q0 64 16 101q101 24 180 24q184 0 242 -203q35 104 100.5 165t143.5 61q96 0 168.5 -90t107.5 -252v90q0 93 92 141q81 42 213 64q19 -34 19 -92q0 -62 -19 -121q-19 -2 -76 -25q-31 -13 -41 -33t-12 -67z
M537 838q0 -69 27 -118.5t65 -49.5q45 0 45 65q0 55 -34.5 103t-90.5 73q-12 -27 -12 -73zM223 713q0 -64 47 -64q37 0 61.5 46.5t24.5 115.5q0 43 -14 90q-47 -20 -83 -77t-36 -111z" />
    <glyph glyph-name="bn_ssa" unicode="&#x9b7;" horiz-adv-x="1085" 
d="M342 1100q7 -57 81.5 -123.5t197.5 -128.5l92 -49q3 30 37 301q-76 8 -195 8q-134 0 -213 -8zM922 610q0 -431 45 -624q-90 -49 -260 -49q-181 322 -484 391q-60 42 -95 103.5t-40 127.5l219 264q-94 50 -166.5 117.5t-89.5 122.5l-51 -10q-14 54 -15 116.5t15 96.5
q240 63 563 63q137 0 291 -16q136 -17 231 -47q13 -38 12.5 -102.5t-12.5 -110.5q-60 14 -141 26q-22 -239 -22 -469zM692 199v90q0 221 8 352l-135 64l-182 -226q201 -112 309 -280z" />
    <glyph glyph-name="bn_sa" unicode="&#x9b8;" horiz-adv-x="1138" 
d="M500 784q38 15 88 15q83 0 157 -80q8 171 33 383q-84 8 -207 8q-134 0 -213 -8q2 -25 15.5 -51.5t54.5 -79.5q43 -60 58.5 -93t15.5 -63q0 -23 -2 -31zM1008 -31q-90 -22 -267 -22q-6 84 -6 346q0 151 2 194q-5 48 -27.5 74.5t-60.5 26.5q-34 0 -65 -34t-86 -140
q-78 -148 -144 -207q-62 -53 -133 -53q-63 0 -135 30q-55 102 -55 269q39 -39 102 -39q26 0 52 27t79 116q72 116 72 193q0 53 -32.5 97t-123.5 105q-61 41 -84.5 64t-34.5 49q-34 -3 -61 -12q-16 69 -16 123q0 61 16 90q224 65 578 65q150 0 319 -18q171 -21 244 -47
q12 -34 12 -97q0 -69 -12 -116q-62 16 -162 28q-14 -203 -14 -471q0 -410 43 -641z" />
    <glyph glyph-name="bn_ha" unicode="&#x9b9;" horiz-adv-x="1015" 
d="M1016 1053q-218 55 -508 55q-260 0 -508 -55q-16 53 -16 121q0 63 16 92q217 63 514 63q145 0 284.5 -17t217.5 -46q14 -32 14 -95q0 -64 -14 -118zM1040 -137q-64 -86 -133 -146q-376 385 -794 519l-41 282q186 -61 350 -61q237 0 237 164q0 89 -57 155q-59 68 -131 68
q-76 0 -76 -72q0 -50 60 -102q-45 -27 -109 -44t-117 -16q-65 83 -65 183q0 105 66.5 167t177.5 62q179 0 331 -158q150 -156 150 -346q0 -127 -80 -206t-229 -99q205 -127 460 -350z" />
    <glyph glyph-name="bn_nukta" unicode="&#x9bc;" 
d="M-156 -104q0 61 43 104t105 43q72 0 120 -50t48 -124q0 -61 -43 -104.5t-105 -43.5q-72 0 -120 50.5t-48 124.5z" />
    <glyph glyph-name="bn_avagraha" unicode="&#x9bd;" horiz-adv-x="991" 
d="M303 961q0 -39 30 -63t79 -24q50 0 86.5 28.5t54.5 78.5q-65 53 -143 53q-51 0 -79 -19t-28 -54zM1018 33q-73 -91 -135 -146q-374 386 -795 521l-41 282q201 -82 373 -82q231 0 231 166q0 37 -6 55q-63 -84 -190 -84q-137 0 -226.5 69t-89.5 183q0 91 63.5 143t170.5 52
q110 0 219 -62q33 114 43 222q105 -9 190 -58q-26 -164 -73 -303q112 -140 112 -303q0 -127 -80 -206t-227 -99q208 -129 461 -350z" />
    <glyph glyph-name="bn_aakaar" unicode="&#x9be;" horiz-adv-x="542" 
d="M408 977q-3 -561 -43 -1108q-72 0 -153 8.5t-124 20.5q78 373 90 931q-9 197 -178 224q-13 34 -16 114q0 70 16 99q161 -38 270 -129q105 93 273 129q18 -27 18 -92.5t-18 -120.5q-86 -20 -135 -76z" />
    <glyph glyph-name="bn_ikaar" unicode="&#x9bf;" horiz-adv-x="542" 
d="M477 -94q-43 -13 -124 -23t-150 -10q-21 224 -29 457q-9 266 -6 514q-6 88 -49.5 141.5t-118.5 67.5q-13 34 -16 114q0 70 16 99q107 -25 205 -86q-75 91 -109.5 170t-34.5 163q0 154 111 243t305 89q195 0 451.5 -71t527.5 -199q-19 -70 -84 -156q-260 118 -446 172
q-183 49 -365 49q-140 0 -207 -55t-67 -172q0 -93 47 -225q97 57 209 78q18 -27 18 -92.5t-18 -120.5q-94 -21 -144 -80q-12 -581 78 -1067z" />
    <glyph glyph-name="bn_iikaar" unicode="&#x9c0;" horiz-adv-x="542" 
d="M408 977q3 -454 -72 -1108q-65 0 -142.5 13t-127.5 32q97 385 112 903q0 201 -178 236q-16 46 -16 116q0 71 16 97q91 -22 178 -68q-19 269 -183.5 387.5t-518.5 118.5q-129 0 -200 -23.5t-71 -66.5q0 -31 39 -47.5t109 -16.5q81 0 190 31q87 23 129 23q96 0 174 -60
q-25 -101 -71 -153q-51 63 -119 63q-28 0 -109 -22q-117 -37 -202 -37q-134 0 -214.5 66.5t-80.5 176.5q0 131 115 206t317 75q353 0 598 -190q246 -193 307 -515q83 40 156 52q19 -25 19 -91.5t-19 -121.5q-83 -15 -135 -76z" />
    <glyph glyph-name="bn_ukaar" unicode="&#x9c1;" 
d="M295 -664l-244 183q-101 -160 -270 -160q-123 0 -196.5 71.5t-73.5 192.5q0 108 69 179t174 71q102 0 189 -72q-3 101 -37 181l155 22q60 -111 60 -258q0 -10 -1 -20.5t-2.5 -23.5t-2.5 -21l284 -201q-44 -89 -104 -144zM-354 -383q0 -37 27.5 -59.5t70.5 -22.5
q90 0 150 88q-75 72 -150 72q-44 0 -71 -21.5t-27 -56.5z" />
    <glyph glyph-name="bn_uukaar" unicode="&#x9c2;" 
d="M350 -645l-213 162q-107 -99 -233 -99q-117 0 -193 75.5t-76 191.5q0 222 279 360l145 4l33 -112l-35 -11q-114 -38 -189 -110t-75 -140q0 -59 62 -59q88 0 239 139l363 -256q-34 -72 -107 -145z" />
    <glyph glyph-name="bn_rikaar" unicode="&#x9c3;" 
d="M61 -659l-411 317v49l262 279v59l176 -8l39 -88l-244 -258l285 -205q-34 -72 -107 -145z" />
    <glyph glyph-name="bn_rrikaar" unicode="&#x9c4;" 
d="M-104 -532l-66 -60l184 -131q-27 -73 -88 -125l-301 236v43l142 137l-117 90v49l262 279v59l176 -8l39 -88l-244 -258l285 -205q-34 -72 -107 -145z" />
    <glyph glyph-name="bn_ekaar" unicode="&#x9c7;" horiz-adv-x="647" 
d="M776 -8q-113 -154 -264 -154q-179 0 -287 172q-108 170 -108 459q0 306 84 502q-66 56 -201 82q-14 47 -14 112q0 69 14 101q215 -41 328 -125q101 85 319 125q17 -42 17 -95q0 -72 -17 -118q-161 -24 -225 -162q-66 -141 -66 -453q0 -228 25 -330t80 -102q37 0 69.5 42
t92.5 167q52 -28 104 -102q49 -70 49 -121z" />
    <glyph glyph-name="bn_aikaar" unicode="&#x9c8;" horiz-adv-x="647" 
d="M776 -8q-113 -154 -264 -154q-179 0 -287 172q-108 170 -108 459q0 306 84 502q-66 56 -201 82q-14 47 -14 112q0 69 14 101q215 -41 328 -125q70 58 188 94q-24 114 -64.5 159.5t-111.5 45.5q-40 0 -121 -19q-93 -20 -137 -20q-93 0 -168.5 52.5t-142.5 164.5
q54 67 145 121q44 -73 88 -104t100 -31q36 0 107 18q93 20 135 20q115 0 193.5 -98.5t107.5 -277.5q17 -42 17 -95q0 -72 -17 -118q-161 -24 -225 -162q-66 -141 -66 -453q0 -228 25 -330t80 -102q37 0 69.5 42t92.5 167q52 -28 104 -102q49 -70 49 -121z" />
    <glyph glyph-name="bn_okaar" unicode="&#x9cb;" horiz-adv-x="2609" 
d="M2472 977q-3 -561 -43 -1108q-72 0 -153 8.5t-124 20.5q79 378 91 931q-9 197 -179 224q-14 38 -14 114q-3 69 14 99q74 -17 147 -52t124 -77q105 94 272 129q18 -27 18 -92.5t-18 -120.5q-86 -20 -135 -76zM776 -8q-113 -154 -264 -154q-179 0 -287 172
q-108 170 -108 459q0 306 84 502q-66 56 -201 82q-14 47 -14 112q0 69 14 101q215 -41 328 -125q101 85 319 125q17 -42 17 -95q0 -72 -17 -118q-161 -24 -225 -162q-66 -141 -66 -453q0 -228 25 -330t80 -102q37 0 69.5 42t92.5 167q52 -28 104 -102q49 -70 49 -121z
M1366 1251q41 0 64.5 -24.5t23.5 -65.5t-23.5 -64.5t-64.5 -23.5t-63.5 23.5t-22.5 64.5t23.5 65.5t62.5 24.5zM1651 1171q39 0 63.5 -24.5t24.5 -65.5q0 -39 -23.5 -61.5t-64.5 -22.5q-38 0 -62 23t-24 61q0 41 23.5 65.5t62.5 24.5zM1079 1171q39 0 62.5 -24.5t23.5 -65.5
q0 -38 -24 -61t-62 -23t-62 23t-24 61q0 41 23.5 65.5t62.5 24.5zM877 963q38 0 59.5 -24t21.5 -67q0 -37 -23 -61.5t-58 -24.5q-38 0 -64.5 25.5t-26.5 62.5q0 39 25 64t66 25zM1862 963q38 0 61 -24t23 -65t-22.5 -64.5t-61.5 -23.5q-38 0 -64 25.5t-26 62.5q0 38 26 63.5
t64 25.5zM1937 684q41 0 63.5 -23.5t22.5 -64.5t-23.5 -65.5t-62.5 -24.5q-38 0 -63 26t-25 64t25 63t63 25zM799 684q41 0 63.5 -23.5t22.5 -64.5t-23.5 -65.5t-62.5 -24.5t-63.5 24.5t-24.5 65.5q0 38 25 63t63 25zM1862 403q38 0 61 -24t23 -62q0 -43 -23 -67.5
t-61 -24.5q-39 0 -64.5 25.5t-25.5 66.5q0 37 26 61.5t64 24.5zM877 403q37 0 59 -24t22 -62q0 -43 -22 -67.5t-59 -24.5q-41 0 -66 25.5t-25 66.5q0 38 25 62t66 24zM1651 195q41 0 64.5 -24t23.5 -65q0 -38 -25 -62t-63 -24t-62 24t-24 62q0 41 23.5 65t62.5 24zM1079 195
q38 0 62 -25t24 -64q0 -38 -24 -62t-62 -24t-62 24t-24 62q0 39 24 64t62 25zM1366 119q41 0 64.5 -24.5t23.5 -65.5q0 -38 -25 -62t-63 -24q-39 0 -62.5 22.5t-23.5 63.5t23.5 65.5t62.5 24.5z" />
    <glyph glyph-name="bn_aukaar" unicode="&#x9cc;" horiz-adv-x="2609" 
d="M2472 977q0 -218 -6 -467q-3 -74 -6.5 -169.5t-9 -232.5t-9.5 -227q-162 0 -270 19q63 423 72 915q0 100 -45.5 160.5t-133.5 77.5q-16 62 -16 118q0 66 16 95q74 -18 146.5 -51.5t122.5 -75.5q51 54 51 133q0 45 -33 84q-38 45 -170 135q-24 18 -54 40t-47.5 35
t-27.5 21q-33 26 -55 51q-80 86 -80 213q0 56 12 121q77 24 187 21q-11 -59 -11 -97q0 -66 31 -114q32 -50 156 -131q115 -75 167 -151.5t52 -170.5q0 -47 -12 -94q90 27 108 31q16 -26 16 -88q0 -72 -16 -125q-86 -20 -135 -76zM776 -8q-113 -154 -264 -154
q-179 0 -287 172q-108 170 -108 459q0 306 84 502q-66 56 -201 82q-14 47 -14 112q0 69 14 101q215 -41 328 -125q101 85 319 125q17 -42 17 -95q0 -72 -17 -118q-161 -24 -225 -162q-66 -141 -66 -453q0 -228 25 -330t80 -102q37 0 69.5 42t92.5 167q52 -28 104 -102
q49 -70 49 -121zM1366 1251q39 0 62.5 -24.5t23.5 -65.5t-22.5 -64.5t-63.5 -23.5t-63.5 23.5t-22.5 64.5q0 43 22.5 66.5t63.5 23.5zM1649 1171q41 0 65.5 -24.5t24.5 -65.5q0 -37 -24.5 -60.5t-65.5 -23.5q-38 0 -61 23t-23 61q0 41 23.5 65.5t60.5 24.5zM1077 1171
q39 0 63.5 -24.5t24.5 -65.5q0 -39 -23.5 -61.5t-64.5 -22.5q-38 0 -61 23t-23 61q0 41 23.5 65.5t60.5 24.5zM1862 963q38 0 60 -24t22 -65t-22.5 -64.5t-59.5 -23.5q-38 0 -64 25.5t-26 62.5q0 38 26 63.5t64 25.5zM874 963q38 0 60 -24t22 -67q0 -37 -23 -61.5t-59 -24.5
q-38 0 -64 25.5t-26 62.5q0 39 24.5 64t65.5 25zM799 684q39 0 61.5 -23.5t22.5 -64.5q0 -42 -22.5 -66t-61.5 -24q-41 0 -65.5 24.5t-24.5 65.5q0 39 24.5 63.5t65.5 24.5zM1937 684q39 0 61.5 -23.5t22.5 -64.5q0 -42 -22.5 -66t-61.5 -24q-38 0 -63 26t-25 64t25 63
t63 25zM1862 403q39 0 60.5 -22.5t21.5 -63.5q0 -43 -22 -67.5t-60 -24.5q-39 0 -64.5 25.5t-25.5 66.5q0 37 26 61.5t64 24.5zM874 403q39 0 60.5 -22.5t21.5 -63.5q0 -43 -22 -67.5t-60 -24.5q-41 0 -65.5 25.5t-24.5 66.5q0 39 24.5 62.5t65.5 23.5zM1649 195
q41 0 65.5 -25t24.5 -64t-24.5 -62.5t-65.5 -23.5q-38 0 -61 24t-23 62q0 41 23 65t61 24zM1077 195q41 0 64.5 -24t23.5 -65q0 -38 -25 -62t-63 -24t-61 24t-23 62q0 41 23 65t61 24zM1366 119q39 0 62.5 -24.5t23.5 -65.5q0 -38 -24 -62t-62 -24q-41 0 -63.5 22.5
t-22.5 63.5q0 43 22.5 66.5t63.5 23.5z" />
    <glyph glyph-name="bn_halanth" unicode="&#x9cd;" 
d="M168 -182l444 -338q-44 -89 -104 -144l-455 347q41 86 115 135z" />
    <glyph glyph-name="bn_khanda_ta" unicode="&#x9ce;" horiz-adv-x="978" 
d="M397 1020q12 -115 55 -175.5t111 -60.5q57 0 93 35t36 92q0 66 -42 101t-120 35q-60 0 -133 -27zM827 289q54 -60 77.5 -139t21.5 -195q-75 -35 -230 -47q-1 96 -14.5 145.5t-46.5 85.5q-27 27 -62 45q-96 50 -153 76q-110 50 -167 84.5t-95 75.5q-97 106 -97 285
q0 237 132 403q129 166 319 166q148 0 239 -96.5t91 -247.5q0 -143 -78 -244q-76 -98 -203 -98q-121 0 -199 88t-98 248q-67 -76 -67 -174q0 -108 118 -181q34 -19 68 -34q51 -24 139 -62q131 -59 197 -99t108 -85z" />
    <glyph glyph-name="bn_aumark" unicode="&#x9d7;" horiz-adv-x="542" 
d="M408 977q0 -177 -7 -467q-10 -271 -24 -629q-163 0 -271 19q63 423 72 915q0 203 -178 238q-16 62 -16 118q0 66 16 95q163 -39 268 -127q51 54 51 133q0 46 -32 84q-38 45 -170 135q-24 18 -54 40t-47.5 35t-27.5 21q-36 28 -56 51q-79 85 -79 213q0 56 12 121
q77 24 186 21q-10 -54 -10 -97q0 -66 31 -114q33 -51 155 -131q115 -75 167 -151.5t52 -170.5q0 -47 -12 -94q88 27 109 31q16 -26 16 -88q0 -72 -16 -125q-86 -20 -135 -76z" />
    <glyph glyph-name="bn_rra" unicode="&#x9dc;" horiz-adv-x="1232" 
d="M1188 434q0 -229 -113 -363t-309 -134q-258 0 -441 223.5t-305 697.5q53 35 170 80q219 -748 590 -748q119 0 181.5 78t62.5 226q0 67 -6 100q-61 -79 -121.5 -114.5t-130.5 -35.5q-132 0 -221 115q-90 116 -90 266q0 104 41 289q-275 -12 -496 -61q-16 43 -16 121
q0 63 16 92q281 71 618 71q331 0 615 -71q18 -32 18 -88q0 -62 -18 -125q-205 49 -492 61q-41 -117 -66.5 -224t-25.5 -157q0 -37 16.5 -57.5t47.5 -20.5q33 0 78.5 52t123.5 182q105 -25 189 -70q84 -175 84 -385zM696 -137q57 0 96 -37t39 -92q0 -66 -46.5 -111
t-112.5 -45q-57 0 -95 37t-38 92q0 66 45.5 111t111.5 45z" />
    <glyph glyph-name="bn_rha" unicode="&#x9dd;" horiz-adv-x="1030" 
d="M690 803q122 0 200.5 -82t78.5 -215q0 -93 -39 -191t-109 -184q-73 -90 -165.5 -141t-180.5 -51q-150 0 -242 102q-96 104 -96 260q0 394 49 786q-130 -18 -186 -34q-12 59 -12 108q0 67 12 105q78 29 212.5 46t287.5 17q138 0 282.5 -17t247.5 -46q17 -39 17 -103
t-17 -110q-273 55 -526 55h-55q-36 -187 -58 -432q-22 -248 -22 -451q0 -120 82 -123q78 0 163 125q86 127 86 234q0 51 -22.5 79.5t-61.5 28.5q-70 0 -120 -57q-11 26 -11 51q0 53 16.5 108t41.5 91q59 41 147 41zM475 -137q60 0 99.5 -38t39.5 -95q0 -63 -46 -107.5
t-109 -44.5q-60 0 -98.5 37t-38.5 94q0 66 43.5 110t109.5 44z" />
    <glyph glyph-name="bn_yya" unicode="&#x9df;" horiz-adv-x="1101" 
d="M936 610q0 -430 55 -618q-99 -55 -262 -55q-193 315 -506 376q-127 103 -137 236l268 287q-32 18 -75 45q-82 49 -86 51q-117 75 -130 133q-9 -1 -29 -5t-34 -7q-18 52 -18 116.5t18 96.5q242 63 580 63q132 0 282 -18q152 -18 240 -45q13 -40 12.5 -101t-12.5 -112
q-54 11 -95.5 18t-48.5 8q-22 -199 -22 -469zM563 825l76 -71l-244 -287q192 -101 312 -274v96q0 247 12 428q7 144 39 383q-76 8 -187 8q-134 0 -213 -8q9 -103 205 -275zM211 0q0 57 38 96t95 39q63 0 107.5 -46t44.5 -109q0 -57 -38.5 -96.5t-95.5 -39.5
q-66 0 -108.5 44.5t-42.5 111.5z" />
    <glyph glyph-name="bn_rri" unicode="&#x9e0;" horiz-adv-x="1533" 
d="M434 496q210 -124 318 -299q3 258 43 497q-183 -67 -361 -198zM961 186q0 -55 4 -231q-79 -17 -195 -14q-173 327 -498 411q-47 77 -65.5 138.5t-20.5 136.5q188 172 478 291q-10 70 -43 118q-60 -72 -139.5 -113.5t-157.5 -41.5q-119 0 -188.5 74.5t-69.5 203.5
q0 57 18 92q90 52 227 49q-19 -25 -22 -79q0 -52 25.5 -80.5t74.5 -28.5q59 0 120.5 37t106.5 98l119 -80q54 -85 66 -198q3 1 14 5t14 5q14 155 58 334q115 -9 225 -62q-121 -367 -145 -800q129 -86 219 -215q-15 157 -15 276q0 415 119 760q119 0 195 -37
q-50 -123 -80.5 -281t-30.5 -303q0 -167 26 -335t73 -296q-42 -21 -112 -32.5t-132 -7.5q-108 175 -268 272v-66zM586 -346l-412 317v49l262 279v59l176 -8l39 -88l-243 -258l284 -205q-34 -73 -106 -145z" />
    <glyph glyph-name="bn_lli" unicode="&#x9e1;" horiz-adv-x="1458" 
d="M1395 190q0 -164 -41 -339t-113 -322q-138 9 -215 53q1 211 -62.5 328t-175.5 117q-59 0 -92.5 -33.5t-33.5 -91.5q0 -44 21 -69.5t56 -25.5q60 0 109 89q31 -55 53 -130t27 -135q-49 -80 -142 -80q-111 0 -188 109q-78 110 -78 270q0 128 58 222q-23 148 -89.5 229.5
t-160.5 81.5q-67 0 -106.5 -42t-39.5 -112q0 -53 24 -82.5t66 -29.5q71 0 123 106q29 -57 52.5 -133t29.5 -133q-26 -44 -69.5 -70t-92.5 -26q-119 0 -198 116q-82 113 -82 287q0 177 86 287t227 110q146 0 240 -120t117 -334q53 108 83.5 221t30.5 194q0 87 -57 132
q-56 44 -256 88q-235 56 -320 147q-88 88 -118 281q77 55 176 80q22 -124 67 -175q46 -55 181 -86l133 -32q170 -38 254 -146t92 -297l104 -35q165 -54 242.5 -167.5t77.5 -301.5zM1153 387q-45 23 -104 41q-47 14 -80 25l-15 4q-10 -64 -39 -183q90 -37 147.5 -137
t74.5 -250q54 96 84 189t30 160q0 54 -23.5 90t-74.5 61z" />
    <glyph glyph-name="bn_likaar" unicode="&#x9e2;" horiz-adv-x="614" 
d="M602 -375q0 -196 -104 -399q-69 0 -133 22q0 130 -41 201.5t-115 71.5q-37 0 -58.5 -19t-21.5 -51q0 -51 47 -51q41 0 72 53q52 -106 55 -178q-38 -47 -100 -47q-82 0 -135.5 69t-53.5 173q0 109 53.5 174t143.5 65q97 0 160 -73.5t75 -200.5q37 109 37 192
q0 56 -33 84.5t-133 52.5q-137 35 -188 89q-54 61 -72 172q51 35 115 51q12 -70 41 -100t109 -48l77 -18q103 -25 153 -94.5t50 -190.5z" />
    <glyph glyph-name="bn_llikaar" unicode="&#x9e3;" horiz-adv-x="1024" 
d="M936 -633q0 -172 -98 -360q-74 0 -121 20q0 116 -37.5 178t-104.5 62q-32 0 -50.5 -16.5t-18.5 -45.5q0 -43 43 -43q17 0 30.5 9.5t32.5 35.5q47 -96 50 -159q-36 -39 -91 -39q-74 0 -122 60.5t-48 152.5q0 70 29 123q-13 85 -52 130.5t-97 45.5q-37 0 -58.5 -19
t-21.5 -51q0 -51 49 -51q38 0 69 53q53 -108 56 -178q-38 -47 -101 -47q-82 0 -135 69t-53 173q0 109 53.5 174t143.5 65q97 0 160 -73.5t75 -200.5q37 109 37 192q0 56 -33 84.5t-133 52.5q-136 34 -188 89q-56 62 -70 172q47 35 113 51q12 -70 41 -100t108 -48l78 -18
q191 -46 203 -252l80 -25q94 -29 138 -93t44 -173zM829 -631q0 43 -24 70q-23 26 -127 61l-14 6q-1 -3 -3 -9.5t-3.5 -14.5t-2.5 -19q-8 -30 -10 -41q60 -20 97.5 -81t48.5 -152q38 109 38 180z" />
    <glyph glyph-name="bn_zero" unicode="&#x9e6;" horiz-adv-x="1126" 
d="M604 1212q196 0 301 -141t105 -405q0 -306 -136 -519q-139 -213 -356 -213q-195 0 -300 141.5t-105 403.5q0 305 137 518q135 215 354 215zM598 938q-136 0 -221 -119q-86 -121 -86 -305q0 -147 61 -227t172 -80q135 0 221 121t86 303q0 147 -61 227t-172 80z" />
    <glyph glyph-name="bn_one" unicode="&#x9e7;" horiz-adv-x="1126" 
d="M899 729q105 -123 105 -297q0 -211 -125 -354q-128 -146 -312 -146q-146 0 -243 97q-99 95 -99 241q0 131 78 224q77 92 195 92q78 0 139 -45t98 -131q-24 -41 -66 -79.5t-85 -62.5q-12 53 -40 82t-67 29q-41 0 -66.5 -29t-25.5 -74q0 -57 45 -91.5t123 -34.5
q120 0 199 79q79 76 79 195q0 120 -102 194q-31 23 -74 43.5t-137 55.5q-111 42 -161.5 66t-86.5 53q-118 84 -139 229q121 100 236 156q12 -77 67 -138q47 -58 213 -161q106 -65 159 -106.5t93 -86.5z" />
    <glyph glyph-name="bn_two" unicode="&#x9e8;" horiz-adv-x="1126" 
d="M1100 59q-51 -83 -123 -155q-401 343 -834 442l-43 289q189 -62 351 -62q116 0 176.5 35.5t60.5 102.5q0 49 -41 84q-42 34 -180 77q-154 51 -205 93q-53 41 -65 100q113 98 235 156q9 -60 53 -107q39 -48 168 -123q163 -94 215 -170t52 -176q0 -121 -73.5 -196.5
t-213.5 -98.5q220 -112 467 -291z" />
    <glyph glyph-name="bn_three" unicode="&#x9e9;" horiz-adv-x="1126" 
d="M678 1210q158 0 272 -209q113 -210 113 -512q0 -258 -93.5 -407.5t-254.5 -149.5q-238 0 -406 276t-270 841q75 38 172 47q68 -391 205 -639q134 -248 286 -248q181 0 181 356q0 188 -43 307t-103 119q-32 0 -50.5 -36.5t-18.5 -102.5q0 -176 90 -293q-35 -19 -102 -28
t-134 -5q-86 141 -86 334q0 156 67 253t175 97z" />
    <glyph glyph-name="bn_four" unicode="&#x9ea;" horiz-adv-x="1128" 
d="M1016 315q0 -159 -127 -268q-123 -108 -336 -108q-190 0 -302 90.5t-112 240.5q0 155 158 283q-88 37 -139.5 111t-51.5 167q0 162 127 271q124 106 334 106q191 0 303.5 -91.5t112.5 -244.5q0 -160 -149 -282q86 -37 134 -109.5t48 -165.5zM653 1047q-119 0 -233 -99
q-115 -103 -115 -207q0 -93 90 -120q76 43 117 65q86 45 113 62q83 50 120 97t37 99q0 50 -33 76.5t-96 26.5zM340 203q0 -51 32.5 -78t94.5 -27q125 0 238 101q112 100 112 209q0 87 -82 116q-40 -24 -121 -65l-62.5 -35t-49.5 -27q-86 -51 -124 -97t-38 -97z" />
    <glyph glyph-name="bn_five" unicode="&#x9eb;" horiz-adv-x="1126" 
d="M856 371q0 -99 25.5 -185t72.5 -139q-73 -51 -177.5 -82t-209.5 -31q-221 0 -344 138t-123 383q0 232 113 436q112 207 295 332q26 -123 125 -209q95 -86 211 -86q36 0 75 9t60 21l102 -153q-99 -96 -123 -127q-28 -35 -43 -64q-59 -109 -59 -243zM324 389
q0 -142 68.5 -222.5t187.5 -80.5q98 0 172 61q-54 63 -83.5 149t-29.5 177q0 159 90 311q-105 28 -188 111q-102 -105 -159.5 -240.5t-57.5 -265.5z" />
    <glyph glyph-name="bn_six" unicode="&#x9ec;" horiz-adv-x="1126" 
d="M1069 438q0 -235 -100.5 -368t-280.5 -133q-231 0 -393 230t-270 722q81 37 176 49q91 -379 215.5 -564.5t288.5 -185.5q213 0 213 316q0 9 -2 34.5t-3 49.5q-93 -144 -211 -144q-110 0 -198 97q-86 95 -86 213q0 33 6 80q1 17 2 32.5t1.5 24t0.5 14.5q0 55 -46.5 91
t-172.5 77q100 93 215 144q211 -71 211 -213q0 -51 -27 -150q-22 -93 -22 -129q0 -70 47 -70q32 0 73 53t107 181q100 -25 184 -70q72 -159 72 -381z" />
    <glyph glyph-name="bn_seven" unicode="&#x9ed;" horiz-adv-x="1126" 
d="M1083 63q-94 -82 -213 -143q-121 41 -162.5 90t-41.5 148q0 97 30 264q-182 -12 -254 -12q-154 0 -264 96q-108 94 -108 227q0 84 47 174t129 164q75 67 168.5 104t187.5 37q162 0 262 -100q101 -101 101 -252q0 -44 -19 -219q-18 -200 -20 -242q-6 -79 -6 -135
q0 -83 33.5 -122.5t129.5 -78.5zM295 682q0 -54 35 -79t110 -25q148 0 301 55q7 36 15.5 75t13 61t6.5 32q4 46 4 55q0 127 -143 127q-126 0 -236 -96q-106 -93 -106 -205z" />
    <glyph glyph-name="bn_eight" unicode="&#x9ee;" horiz-adv-x="1126" 
d="M788 102q-141 -163 -317 -163q-143 0 -234.5 98t-91.5 260q0 27 7 123q14 230 14 354q0 156 -29 203q-27 43 -129 84q102 97 205 153q114 -30 157.5 -83t43.5 -168q0 -50 -11 -162q-6 -65 -41 -279q-30 -190 -30 -235q0 -125 100 -125q108 0 203 121q94 119 94 241
q0 47 -21 72t-59 25q-72 0 -166 -78q-31 107 -34 225q78 43 165 43q56 0 129 -29q64 -26 115 -26q45 0 91 19.5t118 72.5q36 -105 45 -234q-61 -61 -145 -61q-33 0 -70 12q37 -61 37 -133q0 -75 -40 -166t-106 -164z" />
    <glyph glyph-name="bn_nine" unicode="&#x9ef;" horiz-adv-x="1126" 
d="M1030 623q0 -151 -48 -333t-130 -351q-120 0 -205 36q1 228 -70.5 356t-199.5 128q-66 0 -103.5 -40.5t-37.5 -109.5q0 -53 25.5 -82.5t68.5 -29.5q79 0 129 106q70 -138 84 -266q-31 -45 -79 -70.5t-102 -25.5q-116 0 -198 116q-82 113 -82 283q0 173 86.5 281
t226.5 108q149 0 248.5 -117t122.5 -321q49 92 75.5 183.5t26.5 160.5q0 66 -30 106.5t-97 65.5q-32 14 -67 22q-135 30 -160 35q-220 38 -291 80q-72 40 -110 117q108 99 227 160q18 -69 63 -95q47 -29 242 -63q203 -31 294 -135t91 -305z" />
    <glyph glyph-name="asa_ra" unicode="&#x9f0;" horiz-adv-x="1024" 
d="M868 610q0 -405 62 -612q-107 -57 -266 -57q-184 331 -506 401q-96 139 -107 295q112 120 283 226.5t371 180.5q3 21 10 56q-131 8 -174 8q-268 0 -541 -55q-18 63 -18 118q0 50 18 95q255 63 549 63q117 0 252 -18q134 -18 223 -45q18 -41 18 -97q0 -57 -18 -116
q-51 12 -131 24q-25 -256 -25 -467zM471 657q112 -89 176 -194q2 86 19 303q-118 -55 -195 -109zM647 211q-2 39 -2 74v24q-113 192 -291 266q-76 -63 -82 -69q251 -135 375 -354v59z" />
    <glyph glyph-name="asa_ba" unicode="&#x9f1;" horiz-adv-x="1024" 
d="M866 610q0 -414 58 -618q-91 -51 -260 -51q-185 330 -508 401q-95 130 -107 281q116 125 284 233.5t369 187.5q10 30 13 56q-131 8 -174 8q-261 0 -541 -55q-16 66 -16 118q0 58 16 95q262 63 549 63q117 0 252 -18q138 -18 225 -45q16 -37 16 -97t-16 -116
q-68 13 -131 24q-29 -277 -29 -467zM641 188q-2 18 -2 97q0 254 20 450q-199 -95 -354 -235q214 -124 336 -312zM414 -86q-60 72 -162 129q-106 59 -201 74q25 87 82 151q109 -35 215 -110q102 -73 146 -158q-14 -47 -80 -86z" />
    <glyph glyph-name="bn_rupeemark" unicode="&#x9f2;" horiz-adv-x="1189" 
d="M-4 823l104 260q635 -363 1039 -1024q-33 -60 -121 -155q-316 613 -1022 919z" />
    <glyph glyph-name="bn_rupeesign" unicode="&#x9f3;" horiz-adv-x="1030" 
d="M690 803q122 0 200.5 -82t78.5 -215q0 -93 -39 -191t-109 -184q-73 -90 -165.5 -141t-180.5 -51q-150 0 -242 102q-96 104 -96 260q0 282 29 588q-99 -14 -166 -33q-12 58 -12 107q0 69 12 106q54 20 188 43q5 45 15 109q2 17 6.5 50t13 95.5t15.5 112.5l294 32
q-31 -133 -73 -378h41q137 0 281.5 -17.5t248.5 -46.5q17 -39 17 -102q0 -65 -17 -111q-273 55 -526 55q-62 0 -80 -2q-55 -396 -55 -684q0 -120 82 -123q78 0 163 125q86 127 86 234q0 51 -22.5 79.5t-61.5 28.5q-70 0 -120 -57q-11 26 -11 51q0 53 16.5 108t41.5 91
q59 41 147 41z" />
    <glyph glyph-name="bn_currency1" unicode="&#x9f4;" horiz-adv-x="1161" 
d="M1143 1159q-234 -748 -854 -1241l-178 260q551 271 862 1032q83 -18 170 -51z" />
    <glyph glyph-name="bn_currency2" unicode="&#x9f5;" horiz-adv-x="1161" 
d="M1143 1159q-234 -748 -854 -1241l-178 260q205 112 300 219.5t95 225.5q0 89 -74 151q-77 62 -170 62q-60 0 -97.5 -27t-37.5 -68q0 -39 34 -63.5t89 -24.5q88 0 149 39q15 -141 -6 -217q-11 -8 -46 -16t-66 -8q-123 0 -209 92t-86 227q0 118 81 191t212 73
q142 0 249 -110q105 -111 105 -285v-27q203 257 340 598q83 -18 170 -51z" />
    <glyph glyph-name="bn_currency3" unicode="&#x9f6;" horiz-adv-x="1161" 
d="M512 799q0 45 -32 75.5t-81 30.5q-110 0 -110 -112q0 -59 33 -119q-113 -13 -218 6q-6 6 -13 37.5t-7 60.5q0 117 82 193q84 78 201 78q151 0 258 -84q102 -86 102 -211q0 -110 -59 -193q-60 -81 -238 -184q-97 -54 -128.5 -85.5t-31.5 -66.5q0 -41 33 -65.5t88 -24.5
q117 0 236 116.5t213 323.5q126 276 176 635q112 -25 170 -51q-74 -588 -268 -889t-500 -301q-175 0 -285 82q-113 82 -113 201q0 79 52 143q51 64 207 152q141 78 190 133q43 52 43 119z" />
    <glyph glyph-name="bn_currency4" unicode="&#x9f7;" horiz-adv-x="614" 
d="M315 537q0 -448 60 -703l-269 88q0 33 -2 80q-4 94 -4 117q0 375 11 633q8 191 34 440l201 27q-26 -416 -27 -451q-4 -160 -4 -231z" />
    <glyph glyph-name="bn_currencyless" unicode="&#x9f8;" horiz-adv-x="1054" 
d="M940 -6q-31 -20 -94.5 -35.5t-112.5 -17.5q-33 138 -33 319q0 215 56 434q-122 -93 -235 -219.5t-187 -251.5q-70 8 -144 33.5t-112 56.5q68 216 102.5 477t30.5 519l180 22q8 -112 8 -295q0 -136 -18 -354q178 199 362 311q126 -49 230 -188q-70 -232 -70 -461
q0 -168 37 -350z" />
    <glyph glyph-name="bn_currency16" unicode="&#x9f9;" horiz-adv-x="1058" 
d="M553 1212q172 0 264 -97t92 -277q0 -212 -118 -357q-120 -147 -314 -147q-172 0 -265 98.5t-93 278.5q0 208 121 356q121 145 313 145zM547 1018q-119 0 -196 -80.5t-77 -204.5q0 -98 54.5 -151.5t152.5 -53.5q119 0 196 80.5t77 204.5q0 98 -54.5 151.5t-152.5 53.5z
" />
    <glyph glyph-name="bn_isshar" unicode="&#x9fa;" horiz-adv-x="1024" 
d="M659 485q152 0 222.5 114t70.5 359l181 -75q0 -325 -119.5 -500.5t-341.5 -175.5q-232 0 -396 221t-237 621q75 38 172 47q51 -291 167.5 -451t280.5 -160zM461 889q0 63 43 106t106 43q72 0 121 -51t49 -125q0 -62 -43 -104.5t-104 -42.5q-73 0 -122.5 50.5t-49.5 123.5
z" />
    <glyph glyph-name="uni200C" unicode="&#x200c;" 
 />
    <glyph glyph-name="uni200D" unicode="&#x200d;" 
 />
    <glyph glyph-name="endash" unicode="&#x2013;" horiz-adv-x="991" 
d="M909 471q-192 -33 -452 -27q-256 3 -404 43q7 89 21 199q99 -13 250 -22q194 -11 256 -11q189 0 356 17q0 -99 -27 -199z" />
    <glyph glyph-name="emdash" unicode="&#x2014;" horiz-adv-x="1773" 
d="M1694 465q-364 -63 -840 -57q-467 3 -801 71q7 94 21 201q210 -32 411 -43q197 -14 502 -14q372 0 733 41q0 -88 -26 -199z" />
    <glyph glyph-name="quoteleft" unicode="&#x2018;" horiz-adv-x="423" 
d="M143 987q-63 167 -84 266q-23 106 -26 234q129 35 270 22q-12 -228 49 -497q-90 -22 -209 -25z" />
    <glyph glyph-name="quoteright" unicode="&#x2019;" horiz-adv-x="423" 
d="M115 1507q136 12 270 -18q-3 -108 -27 -234q-18 -91 -82 -266q-122 3 -204 29q55 288 43 489z" />
    <glyph glyph-name="quotesinglbase" unicode="&#x201a;" horiz-adv-x="417" 
d="M96 229q159 14 271 -18q-3 -113 -25 -227q-19 -95 -84 -271q-103 3 -205 29q55 289 43 487z" />
    <glyph glyph-name="quotedblleft" unicode="&#x201c;" horiz-adv-x="806" 
d="M143 987q-63 167 -84 266q-23 106 -26 234q129 35 270 22q-12 -228 49 -497q-90 -22 -209 -25zM526 987q-63 167 -84 266q-23 106 -26 234q129 35 270 22q-12 -228 49 -497q-90 -22 -209 -25z" />
    <glyph glyph-name="quotedblright" unicode="&#x201d;" horiz-adv-x="808" 
d="M115 1507q136 12 270 -18q-3 -108 -27 -234q-18 -91 -82 -266q-122 3 -204 29q55 288 43 489zM500 1507q136 12 270 -18q-3 -108 -27 -234q-19 -97 -81 -266q-123 3 -205 29q55 288 43 489z" />
    <glyph glyph-name="quotedblbase" unicode="&#x201e;" horiz-adv-x="790" 
d="M96 229q159 14 271 -18q-3 -113 -25 -227q-19 -95 -84 -271q-103 3 -205 29q55 289 43 487zM467 229q158 14 270 -18q-3 -119 -24 -227q-19 -95 -84 -271q-103 3 -205 29q55 289 43 487z" />
    <glyph glyph-name="dagger" unicode="&#x2020;" horiz-adv-x="1009" 
d="M586 948q22 -304 16 -749q-8 -409 -8 -637q-37 -4 -87 -4t-73 4q-22 563 -22 844q-3 306 12 555q-162 -3 -338 -33q-11 20 -17.5 58t-5.5 69q0 40 13 90q93 3 346 -31q-25 190 -35 346q48 27 125 27q46 0 98 -10q-3 -182 -22 -369q21 1 71.5 5t88.5 7q35 3 73.5 6.5
t59.5 5.5t39 3q24 -46 20 -123q0 -54 -12 -94q-91 2 -342 30z" />
    <glyph glyph-name="daggerdbl" unicode="&#x2021;" horiz-adv-x="1009" 
d="M598 -66q25 -248 23 -350q-41 -12 -109 -12q-59 0 -119 27q31 164 43 329q-183 -20 -344 -32q-12 52 -12 108q-3 67 20 109q169 -10 332 -27q-23 237 -26 438q-3 199 14 434q-179 -3 -334 -32q-11 20 -17.5 59t-5.5 70q0 40 13 90q93 3 346 -31q-25 190 -35 346
q48 27 125 27q46 0 98 -10q-3 -182 -22 -369q21 1 71.5 5t88.5 7q35 3 73.5 6.5t59.5 5.5t39 3q24 -46 20 -123q0 -50 -12 -97q-55 3 -121 9q-72 6 -221 24q23 -226 26 -407q3 -176 -18 -455q190 22 244 27q62 3 108 6q12 -70 12 -105q0 -76 -22 -112q-142 18 -205 24
q-46 4 -133 8z" />
    <glyph glyph-name="bullet" unicode="&#x2022;" horiz-adv-x="606" 
d="M72 750q232 53 477 16q-10 -252 -37 -414q-240 -23 -422 2q-10 123 -14 228q-4 102 -4 168z" />
    <glyph glyph-name="ellipsis" unicode="&#x2026;" horiz-adv-x="1341" 
d="M98 225q147 38 310 13q-3 -135 -25 -269q-145 -13 -274 2q-9 120 -9 164q-2 29 -2 90zM535 225q147 37 309 13q-3 -135 -25 -269q-145 -13 -274 2q-8 107 -8 164q-2 29 -2 90zM973 225q147 37 309 13q-3 -135 -25 -269q-145 -13 -274 2q-8 107 -8 164q-2 29 -2 90z" />
    <glyph glyph-name="perthousand" unicode="&#x2030;" horiz-adv-x="2709" 
d="M1137 1624q127 -26 221 -119q-169 -402 -350 -764q-195 -387 -447 -817q-94 24 -178 92q498 889 754 1608zM55 1096q0 214 121 350q120 135 313 135q152 0 236 -91.5t84 -258.5q0 -227 -117 -383q-118 -158 -315 -158q-151 0 -236.5 109.5t-85.5 296.5zM551 1161
q0 264 -107 264q-62 0 -99.5 -81t-37.5 -216q0 -123 33 -202.5t88 -79.5q56 0 89.5 87t33.5 228zM1898 369q0 214 121 350q120 135 314 135q152 0 236.5 -91t84.5 -257q0 -229 -117 -385t-317 -156q-151 0 -236.5 109t-85.5 295zM1053 369q0 214 121 350q120 135 313 135
q152 0 236.5 -91t84.5 -257q0 -230 -116 -385q-117 -156 -318 -156q-151 0 -236 109t-85 295zM2394 434q0 264 -106 264q-61 0 -98.5 -81.5t-37.5 -215.5q0 -121 33.5 -201.5t87.5 -80.5q56 0 88.5 86t32.5 229zM1548 434q0 264 -106 264q-61 0 -98 -81.5t-37 -215.5
q0 -121 33 -201.5t87 -80.5q56 0 88.5 86t32.5 229z" />
    <glyph glyph-name="guilsinglleft" unicode="&#x2039;" horiz-adv-x="618" 
d="M584 246q-37 -61 -79 -99.5t-102 -64.5q-268 216 -389 461q122 91 214 194.5t171 235.5q133 -68 185 -150q-169 -199 -318 -299q121 -146 318 -278z" />
    <glyph glyph-name="guilsinglright" unicode="&#x203a;" horiz-adv-x="618" 
d="M602 543q-121 -245 -389 -461q-60 26 -101.5 64t-78.5 100q195 131 317 278q-161 112 -319 299q58 84 194 154q85 -138 174 -240t203 -194z" />
    <glyph glyph-name="fraction" unicode="&#x2044;" horiz-adv-x="704" 
d="M618 1630q129 -26 222 -119q-161 -383 -351 -763q-205 -406 -446 -818q-92 23 -178 93q496 886 753 1607z" />
    <glyph glyph-name="foursuperior" unicode="&#x2074;" horiz-adv-x="835" 
d="M629 461q-49 -21 -133 -21q-35 -3 -74 6q-4 50 -4 119q0 67 2 90q-208 18 -279 27q-72 9 -110 12q-14 26 -29 103q123 189 191 331q67 137 135 347q96 0 237 -52q-114 -307 -272 -559q44 -8 86 -14t53 -8q8 83 27 170q62 27 157 30q41 0 113 -14q-31 -80 -55 -217
q113 -10 155 -12q0 -45 -12.5 -93t-32.5 -77q-2 0 -13 1t-26 1q-38 2 -98 6q0 -3 -18 -176z" />
    <glyph glyph-name="Euro" unicode="&#x20ac;" horiz-adv-x="1177" 
d="M1133 303q-82 -202 -193.5 -293.5t-277.5 -91.5q-174 0 -289 107t-152 303q-58 0 -178 12q-8 44 -10 101t4 94q79 -3 166 -13v13q0 10 0.5 21.5t1.5 32t2 40.5q-91 3 -176 12q-21 121 -8 195q24 -1 87 -6t126 -9q60 254 209 400.5t350 146.5q162 0 251 -114.5t93 -333.5
q-77 -34 -135 -45t-148 -11q6 160 -22 236t-95 76q-61 0 -111 -94.5t-75 -254.5q80 3 225 23q6 -40 4 -93t-12 -81q-139 -23 -233 -31q-2 -16 -2 -76v-43q117 10 249 31q6 -36 4 -91t-12 -83q-121 -23 -223 -35q49 -231 176 -231q78 0 129.5 81t71.5 236q124 -16 203 -131z
" />
    <glyph glyph-name="uni20B9.rupee" unicode="&#x20b9;" horiz-adv-x="1122" 
d="M1030 57q-103 -96 -276 -147q-117 269 -201 430q-71 134 -158 260q-42 -16 -172 -53l-37 184q159 31 251.5 91t129.5 157q-261 -8 -499 8q0 127 18 197q223 -16 504 -13q-15 159 -135 211q-174 -3 -387 11q0 126 18 196q131 -9 311 -12h31q430 -3 680 29q8 -41 4 -82
q0 -61 -22 -113q-30 -3 -250 -18q57 -80 67 -209q63 2 201 16q7 -39 4 -82q0 -57 -22 -112q-57 -7 -213 -15q-59 -157 -248 -280q210 -245 401 -654z" />
    <glyph glyph-name="uni20BA" unicode="&#x20ba;" horiz-adv-x="1216" 
d="M1192 623q-77 -330 -274 -469q-200 -141 -621 -168q-44 269 -70 563q-102 3 -178 14q-18 135 -6 195q63 -2 168 -13q0 4 -0.5 10t-1.5 17.5t-2 24.5q-1 14 -2.5 30.5t-1.5 24.5q-58 0 -166 12q-8 44 -10 100t4 93q109 -7 114 -8q16 -2 48 -2q-8 190 -5 358q127 39 269 39
q53 0 84 -6q-24 -190 -27 -389q113 3 270 24q6 -34 4 -90t-12 -84q-122 -21 -264 -35q0 -28 2 -61v-55q174 12 279 30q6 -38 2.5 -90.5t-13.5 -81.5q-128 -24 -260 -41q12 -169 31 -282q179 25 280 132.5t136 309.5q128 -11 223 -102z" />
    <glyph glyph-name="uni20BD" unicode="&#x20bd;" horiz-adv-x="1247" 
d="M856 1059q0 98 -52.5 150.5t-150.5 52.5q-33 0 -92 -17q-24 -251 -33 -516q328 72 328 330zM532 227q1 -43 19 -303q-143 -3 -264 19q-18 175 -25 270q-104 0 -213 16q-8 39 -10 98t4 95q42 -5 203 -14q0 6 -0.5 13t-1.5 20l-2 26q-1 14 -2.5 30t-1.5 23q-107 3 -193 15
q-15 108 -6 184q97 -9 188 -12q-6 109 -6 315q0 115 15 319q225 99 444 99q238 0 374 -99.5t136 -271.5q0 -220 -174.5 -361t-489.5 -178v-12v-106q96 3 269 28q6 -42 3.5 -95t-12.5 -79q-172 -30 -254 -39z" />
    <glyph glyph-name="uni2113" unicode="&#x2113;" horiz-adv-x="1366" 
d="M899 1384q-118 0 -188 -174q-74 -177 -74 -452q0 -118 10 -203q166 45 281 211q112 161 112 360q0 121 -37.5 189.5t-103.5 68.5zM1300 141q-103 -100 -207 -143t-243 -43q-177 0 -309.5 100.5t-194.5 280.5q-148 24 -311 117q30 151 104 229q69 -51 164 -96q-2 14 -2 57
q0 410 174 672q173 264 449 264q182 0 297 -121q110 -122 110 -321q3 -288 -178 -512t-461 -283q71 -188 211 -188q69 0 124.5 39.5t109.5 125.5q44 -23 90.5 -73.5t72.5 -104.5z" />
    <glyph glyph-name="trademark" unicode="&#x2122;" horiz-adv-x="1726" 
d="M1614 688q-107 -43 -244 -43q0 5 3.5 53t4.5 78q9 222 17 402q-83 -137 -152 -220q-66 -16 -123 -16q-72 162 -143 281q3 -299 57 -490q-70 -20 -213 -20q-23 170 -37 387q-16 246 -16 405q111 72 223 88q153 -200 238 -399q109 170 190 387q99 -14 178 -51
q9 -172 11 -275q3 -159 6 -567zM500 1083q0 -110 -19 -348q-94 -22 -213 -22q0 140 -10 348q-6 134 -27 323q-76 -8 -178 -18q-30 92 -30 164q157 35 303.5 49t339.5 16q13 -49 10 -96q0 -47 -12 -96q-133 0 -172 -2q8 -112 8 -318z" />
    <glyph glyph-name="uni2126" unicode="&#x2126;" horiz-adv-x="1497" 
d="M1454 211q9 -39 14 -118t2 -124q-216 18 -346 21q-117 3 -303 -10l-6 71q-6 67 -6 111q136 183 201 348.5t65 329.5q0 206 -90 329t-240 123t-238.5 -124t-88.5 -334q0 -313 266 -670q0 -38 -12 -182q-202 10 -301 8q-129 -3 -340 -21q-5 50 -0.5 125t14.5 117
q182 15 406 -14q-355 280 -355 675q0 287 178 459q176 170 476 170q299 0 475 -170q174 -171 174 -459q0 -396 -357 -677q247 30 412 16z" />
    <glyph glyph-name="estimated" unicode="&#x212e;" horiz-adv-x="1443" 
d="M1348 561v-14h-1016q-8 0 -8 -6v-308q0 -22 14 -36q75 -79 174.5 -121.5t210.5 -42.5q118 0 223 48t180 136h91q-93 -105 -221.5 -162t-274.5 -57q-261 0 -442 166q-185 164 -185 397q0 232 185 402q183 165 442 165t442 -165q185 -170 185 -402zM1118 586v309
q0 23 -16 39q-154 160 -379 160q-110 0 -209.5 -43t-173.5 -123q-16 -13 -16 -39v-303q0 -8 8 -8h780q6 0 6 8z" />
    <glyph glyph-name="partialdiff" unicode="&#x2202;" horiz-adv-x="1142" 
d="M453 803q189 0 317 -156q-4 258 -79.5 408.5t-198.5 150.5q-68 0 -106.5 -54t-51.5 -171q-149 11 -266 84q31 172 136 262t275 90q274 0 439 -223t165 -592q0 -332 -131.5 -517t-371.5 -185q-234 0 -373 151q-141 150 -141 367q0 170 108 278q107 107 279 107zM754 412
q-26 88 -76.5 138t-112.5 50q-82 0 -132 -72t-50 -190q0 -100 46.5 -168t117.5 -68q75 0 129.5 81.5t77.5 228.5z" />
    <glyph glyph-name="uni2206" unicode="&#x2206;" horiz-adv-x="1406" 
d="M881 1610q171 -303 311 -742q138 -432 199 -856q-723 -77 -1381 21q132 483 262 833q133 367 330 779q165 -3 279 -35zM725 1309q-211 -471 -379 -1086q339 -28 690 -6q-41 261 -122.5 546t-188.5 546z" />
    <glyph glyph-name="product" unicode="&#x220f;" horiz-adv-x="1263" 
d="M418 1241q-20 -435 -4 -1284q-45 -14 -126.5 -23t-144.5 -8q-33 497 -45 826q-18 422 -18 698q460 57 1061 31v-6q18 -392 30 -832q13 -470 13 -715q-82 0 -172 8.5t-133 20.5q3 316 -2 645q-8 327 -25 641q-207 8 -434 -2z" />
    <glyph glyph-name="summation" unicode="&#x2211;" horiz-adv-x="999" 
d="M1006 -14q-127 -27 -402 -47q-307 -22 -512 -25q-21 119 -24 197q173 204 262 327q92 127 182 291q-205 163 -326.5 275t-195.5 208q-8 76 -8 193q311 58 491 76q209 21 426 24q3 -103 -27 -254q-336 -3 -587 -24q158 -177 516 -457q-179 -331 -404 -614q181 11 316 28
q132 15 266 41q11 -37 19 -108.5t8 -130.5z" />
    <glyph glyph-name="minus" unicode="&#x2212;" horiz-adv-x="911" 
d="M63 578q0 88 15 190q361 -47 776 -2q0 -82 -27 -188q-167 -26 -380.5 -26t-383.5 26z" />
    <glyph glyph-name="uni2215" unicode="&#x2215;" horiz-adv-x="704" 
d="M618 1630q129 -26 222 -119q-161 -383 -351 -763q-205 -406 -446 -818q-92 23 -178 93q496 886 753 1607z" />
    <glyph glyph-name="uni2219" unicode="&#x2219;" horiz-adv-x="512" 
d="M43 852q205 44 424 16q-7 -137 -16 -235q-4 -27 -11 -75.5t-8 -53.5q-211 -20 -373 2q-7 126 -8 135q-8 145 -8 211z" />
    <glyph glyph-name="radical" unicode="&#x221a;" horiz-adv-x="1091" 
d="M1128 1509q-56 -438 -178.5 -848t-322.5 -825q-83 -33 -230 -33q-144 298 -211 498q-72 206 -110 436q143 62 291 70q22 -174 57 -307q35 -148 111 -359q121 315 198 660q72 336 115 766q150 -9 280 -58z" />
    <glyph glyph-name="infinity" unicode="&#x221e;" horiz-adv-x="1363" 
d="M1311 700q0 -155 -92 -264q-93 -106 -234 -106q-168 0 -307 172q-120 -168 -303 -168q-143 0 -233.5 101t-90.5 261q0 154 90 258q88 101 228 101q80 0 152 -38t153 -124q74 93 144.5 132.5t158.5 39.5q147 0 242 -102q92 -103 92 -263zM815 721q72 -99 117.5 -134.5
t91.5 -35.5q56 0 87.5 41t31.5 113q0 74 -38 117t-101 42q-48 0 -92 -33t-97 -110zM213 692q0 -63 35 -101t92 -38q61 0 108.5 31t96.5 104q-56 80 -101.5 113t-99.5 33q-57 0 -94 -39.5t-37 -102.5z" />
    <glyph glyph-name="integral" unicode="&#x222b;" horiz-adv-x="868" 
d="M514 639q51 -217 57 -344q3 -123 -18 -246q-26 -180 -117.5 -273t-240.5 -93q-128 0 -202.5 76t-74.5 202q0 63 21 109q111 0 221 -35q-13 -37 -13 -82q0 -90 72 -90q98 0 98 211q0 112 -14 207q-13 88 -63 280q-43 160 -54 234q-12 66 -16 157q-6 241 100 384.5
t291 148.5q134 1 214.5 -73.5t82.5 -199.5q0 -54 -18 -110q-115 -3 -224 28q13 50 13 87q-2 41 -22.5 64.5t-55.5 23.5q-51 0 -76.5 -68.5t-21.5 -196.5q0 -78 12 -161q13 -92 49 -240z" />
    <glyph glyph-name="approxequal" unicode="&#x2248;" horiz-adv-x="901" 
d="M461 575q103 -43 155 -43q57 0 82.5 25t24.5 80q79 3 133 -21q11 -125 -45 -195.5t-166 -70.5q-77 0 -199 51q-91 37 -133 37q-57 0 -81.5 -24.5t-20.5 -79.5q-60 -3 -131 20q-11 125 44.5 196t164.5 71q54 0 172 -46zM459 942q103 -43 155 -43q57 0 82.5 25t24.5 80
q79 3 133 -21q11 -125 -45 -195.5t-166 -70.5q-77 0 -199 51q-91 37 -133 37q-57 0 -81.5 -25t-20.5 -80q-57 -3 -131 21q-11 125 44.5 195.5t164.5 70.5q56 0 172 -45z" />
    <glyph glyph-name="notequal" unicode="&#x2260;" horiz-adv-x="911" 
d="M838 610q0 -82 -27 -188q-183 -25 -387 -25q-64 -99 -143 -207q-80 23 -172 78q33 45 92 138q-57 2 -154 16q0 95 14 190q116 -16 256 -20q50 78 68 117q-176 3 -313 24q0 96 14 191q220 -26 403 -23q12 29 37 76t70 141q96 -23 174 -71q-50 -113 -61 -138q65 3 153 13
q0 -100 -24 -189q-151 -20 -228 -22q-4 -5 -12 -22t-16 -30q-12 -21 -23 -41.5t-16 -27.5q184 10 295 20z" />
    <glyph glyph-name="lessequal" unicode="&#x2264;" horiz-adv-x="909" 
d="M846 522q-12 -85 -60 -172q-202 77 -391 182q-222 122 -338 213l2 111q126 95 342 215q190 106 387 182q42 -79 60 -174q-310 -132 -535 -278q220 -147 533 -279zM825 90q-169 -24 -379 -24t-385 24q0 85 15 193q351 -49 774 -4q0 -97 -25 -189z" />
    <glyph glyph-name="greaterequal" unicode="&#x2265;" horiz-adv-x="909" 
d="M94 342q-31 74 -45 178q327 116 551 242q-202 156 -514 313q19 77 74 170q172 -79 377 -209q198 -125 321 -239l-10 -109q-144 -97 -344 -186q-204 -96 -410 -160zM817 90q-169 -24 -379 -24t-385 24q0 85 15 193q351 -49 774 -4q0 -97 -25 -189z" />
    <glyph glyph-name="lozenge" unicode="&#x25ca;" horiz-adv-x="958" 
d="M930 739q-170 -444 -395 -733l-111 2q-98 126 -213 340q-111 200 -184 391q105 263 188 416q85 157 209 315l108 -2q107 -138 216 -335q111 -206 182 -394zM225 741q120 -272 254 -477q134 202 252 473q-105 240 -254 475q-120 -177 -252 -471z" />
    <glyph glyph-name="uni25CC" unicode="&#x25cc;" horiz-adv-x="1517" 
d="M758 1073q-41 0 -63.5 23.5t-22.5 64.5t23.5 65.5t62.5 24.5q41 0 64.5 -24.5t23.5 -65.5t-23.5 -64.5t-64.5 -23.5zM1040 997q-38 0 -61 23t-23 61q0 41 23.5 65.5t60.5 24.5q41 0 65.5 -24.5t24.5 -65.5q0 -38 -24.5 -61t-65.5 -23zM471 997q-38 0 -62 23t-24 61
q0 41 23.5 65.5t62.5 24.5t62.5 -24.5t23.5 -65.5q0 -38 -24 -61t-62 -23zM268 786q-38 0 -65 25.5t-27 62.5q0 39 25.5 64t66.5 25q38 0 60 -24t22 -67q0 -37 -23.5 -61.5t-58.5 -24.5zM1253 786q-38 0 -64 25.5t-26 62.5q0 38 26 63.5t64 25.5t61 -24t23 -65t-22.5 -64.5
t-61.5 -23.5zM1329 506q-38 0 -63 26t-25 64t25 63t63 25q41 0 63.5 -23.5t22.5 -64.5t-23.5 -65.5t-62.5 -24.5zM190 506q-39 0 -63.5 24.5t-24.5 65.5q0 38 25 63t63 25q41 0 63.5 -23.5t22.5 -64.5t-23.5 -65.5t-62.5 -24.5zM1253 225q-39 0 -64.5 25.5t-25.5 66.5
q0 37 26 61.5t64 24.5t61 -24t23 -62q0 -43 -23 -67.5t-61 -24.5zM268 225q-41 0 -66.5 25.5t-25.5 66.5q0 38 25.5 62t66.5 24q37 0 59.5 -24t22.5 -62q0 -42 -22.5 -67t-59.5 -25zM1040 20q-38 0 -61 24t-23 62q0 41 23 65t61 24q41 0 65.5 -24t24.5 -65
q0 -39 -24.5 -62.5t-65.5 -23.5zM471 20q-38 0 -62 24t-24 62q0 39 24 64t62 25t62 -25t24 -64q0 -38 -24 -62t-62 -24zM758 -57q-39 0 -62.5 22.5t-23.5 63.5t23.5 65.5t62.5 24.5q41 0 64.5 -24.5t23.5 -65.5q0 -38 -25 -62t-63 -24z" />
    <glyph glyph-name="commaaccent" unicode="&#xf6c3;" horiz-adv-x="532" 
d="M184 -180q106 17 211 8q-3 -214 -82 -395q-115 0 -176 20q55 182 47 367z" />
    <glyph glyph-name="fi" unicode="&#xfb01;" horiz-adv-x="1273" 
d="M1102 1513q101 0 158 -32q-44 -97 -74 -254q-99 -16 -260 -13q-19 67 -19 132q0 80 21 133q75 37 174 34zM868 1006q82 49 215 49q70 0 115 -11q-43 -161 -70 -452q-26 -282 -26 -600q-62 -35 -180 -35q-49 0 -72 6q-31 221 -25 524q3 310 43 519zM463 754
q9 -184 43 -392q30 -212 67 -354q-62 -23 -151 -37t-166 -14q-27 120 -51 375q-26 244 -29 454q-92 19 -139 37q0 37 10.5 85.5t22.5 60.5q15 -1 112 -13q20 263 118.5 398t270.5 135q127 0 201 -74t74 -198q0 -67 -23 -111q-110 0 -223 35q14 40 14 84q0 84 -47 84
q-107 0 -110 -367q23 -2 92 -2q146 0 207 12q0 -83 -21 -186q-49 -14 -170 -14q-79 0 -102 2z" />
    <glyph glyph-name="fl" unicode="&#xfb02;" horiz-adv-x="1314" 
d="M1190 -94q-47 -15 -117 -23q-73 -8 -147 -8q-32 377 -45 821q-16 435 -7 772q80 52 197 52q77 0 150 -21q-26 -252 -35 -735q-9 -454 4 -858zM463 754q9 -184 43 -392q30 -212 67 -354q-62 -23 -151 -37t-166 -14q-27 120 -51 375q-26 244 -29 454q-92 19 -139 37
q0 37 10.5 85.5t22.5 60.5q15 -1 112 -13q20 262 115.5 397.5t259.5 135.5q124 0 196 -74t72 -198q0 -57 -20 -111q-120 0 -223 35q12 49 12 84q0 38 -11 61t-30 23q-45 0 -70 -94t-26 -273q23 -2 92 -2q146 0 207 12q0 -83 -21 -186q-49 -14 -170 -14q-79 0 -102 2z" />
    <glyph glyph-name="caron.alt" horiz-adv-x="532" 
d="M422 1442q-11 -126 -36.5 -232t-78.5 -237q-126 11 -198 31q46 235 49 460q153 13 264 -22z" />
    <glyph glyph-name="revcommaaccent" horiz-adv-x="532" 
d="M362 1210q-125 -12 -235 9q0 106 26 219.5t70 201.5q106 -3 180 -22q-52 -229 -41 -408z" />
    <glyph glyph-name="bn_ukaar.alt" 
d="M481 -705l-243 193q-47 -82 -118.5 -126t-158.5 -44q-123 0 -195.5 71.5t-72.5 192.5q0 110 69 183t172 73q93 0 195 -57q102 -54 279 -199l178 -143q-43 -88 -105 -144zM-174 -424q0 -37 27.5 -59.5t70.5 -22.5q99 0 160 107q-95 53 -160 53q-44 0 -71 -21.5t-27 -56.5z
" />
    <glyph glyph-name="bn_uukaar.alt" 
d="M428 -762l-213 160q-103 -98 -233 -98q-121 0 -195 66.5t-74 172.5q0 269 455 322q23 -79 20 -172q-317 -49 -317 -150q0 -25 20.5 -40t53.5 -15q116 0 250 113l340 -215q-36 -80 -107 -144z" />
    <glyph glyph-name="bn_rikaar.alt" 
d="M160 -774l-428 299v49l350 272q70 -70 113 -147l-209 -152l268 -170q-45 -99 -94 -151z" />
    <glyph glyph-name="bn_rrikaar.alt" 
d="M-283 -641l-67 -64l215 -143q-23 -61 -88 -133l-342 244v51l149 137l-104 74v49l356 276q66 -66 111 -147l-213 -156l270 -170q-40 -87 -94 -151z" />
    <glyph glyph-name="bn_ekaar.init" horiz-adv-x="684" 
d="M594 215q52 -28 104 -102q50 -71 50 -121q-110 -154 -267 -154q-181 0 -295 170t-114 441q0 358 148.5 557t463.5 260q18 -32 18 -99q0 -58 -18 -114q-198 -29 -285.5 -184t-87.5 -476q0 -182 31.5 -284.5t87.5 -102.5q37 0 72.5 46t91.5 163z" />
    <glyph glyph-name="bn_aikaar.init" horiz-adv-x="684" 
d="M748 -8q-110 -154 -267 -154q-181 0 -295 170t-114 441q0 321 117.5 511.5t365.5 272.5q-24 115 -64.5 161t-111.5 46q-40 0 -121 -19q-93 -20 -137 -20q-187 0 -311 217q54 67 145 121q44 -73 87.5 -104t98.5 -31q38 0 109 18q92 20 135 20q115 0 194 -99.5t105 -276.5
q18 -32 18 -99q0 -58 -18 -114q-198 -29 -285.5 -184t-87.5 -476q0 -182 31.5 -284.5t87.5 -102.5q37 0 72.5 46t91.5 163q52 -28 104 -102q50 -71 50 -121z" />
    <glyph glyph-name="bn_k_ka" horiz-adv-x="1318" 
d="M1069 518q72 51 72 115q0 76 -71.5 117.5t-231.5 54.5q-4 -180 -4 -182q143 -36 235 -105zM299 608q1 -1 7 -3.5t22.5 -10t31.5 -14.5q58 -27 93 -48q59 33 170 78q4 82 10 185q-71 -26 -164.5 -78.5t-169.5 -108.5zM836 381q10 -356 47 -543q-103 -41 -248 -41
q-44 101 -141 164q-99 67 -320 129q-79 109 -82 219q81 66 205 140q-18 6 -39 12q-4 1 -111 26q-75 104 -84 222q76 70 261 178q157 91 329 157q0 3 0.5 7.5t1.5 11.5l2 14q1 12 3 23.5t2 15.5h-13q-331 0 -649 -63q-16 62 -16 118q0 66 16 95q281 71 657 71q184 0 365 -18
q193 -22 297 -53q18 -41 18 -97q0 -57 -18 -116q-216 45 -465 57l-6 -68q196 -41 319 -170q127 -133 127 -286q0 -148 -69 -232q51 -86 51 -178q0 -96 -46 -177t-122 -124q-47 10 -96 61t-78 119q78 20 133 69.5t55 98.5q0 68 -62 104t-224 54zM618 20q-4 152 -4 166
q0 142 2 183q-131 -54 -288 -162q147 -81 202 -117q42 -27 88 -70z" />
    <glyph glyph-name="bn_k_tta" horiz-adv-x="1382" 
d="M1008 348q119 0 194.5 -57.5t75.5 -149.5q0 -150 -178 -270q-183 -121 -389 -121q-143 0 -244 66q-98 67 -98 168q0 53 21.5 100.5t88.5 132.5q-135 220 -336 258q-97 125 -106 277q111 91 282 172.5t375 142.5v49h-18q-370 0 -676 -63q-16 54 -16 116q0 57 16 97
q297 71 684 71q294 0 555 -43q-59 176 -213 176q-55 0 -248 -24q-204 -25 -254 -25q-220 0 -354 230q51 71 141 133q96 -162 232 -162q74 0 219 25q176 26 266 26q135 0 227.5 -107.5t124.5 -299.5q15 -66 15 -105q0 -50 -15 -108q-229 45 -506 57l7 -49q193 -41 311 -156
q121 -118 121 -264q0 -64 -26 -132.5t-68 -115.5q-60 0 -134 41q-76 40 -106 96q188 83 188 154q0 99 -280 121q-13 -210 -68 -375q-40 -142 -145 -328q-37 -66 -47.5 -90t-10.5 -41q0 -30 26 -47.5t69 -17.5q99 0 202 63q103 68 103 131q0 25 -17.5 38.5t-48.5 13.5
q-58 0 -110 -52q-11 14 -11 45q0 88 50 164q61 39 129 39zM309 625q164 -102 248 -275q93 193 119 451q-181 -54 -367 -176z" />
    <glyph glyph-name="bn_k_tt_ra" horiz-adv-x="1380" 
d="M309 639q154 -97 238 -266q95 162 129 434q-211 -66 -367 -168zM1116 -539q-78 -33 -196 -36q-59 62 -99 80t-100 18q-44 0 -170 -21q-122 -20 -182 -20q-135 0 -217 72.5t-82 191.5q0 116 59 234q89 -3 162 -35q-31 -74 -31 -127q0 -54 30.5 -83.5t84.5 -29.5
q27 0 135 21q120 22 170 22q68 0 122 -33t105 -106q20 230 21 254q-119 -39 -226 -39q-141 0 -239 67t-98 170q0 94 94 191q-123 205 -316 244q-97 126 -106 270q118 90 289 168.5t368 132.5v49h-18q-370 0 -676 -63q-16 54 -16 123q0 61 16 90q297 71 684 71q294 0 555 -43
q-31 92 -83 134t-134 42q-49 0 -234 -24q-176 -27 -260 -27q-212 0 -346 228q40 60 133 137q53 -87 108.5 -124.5t125.5 -37.5t219 25q174 26 256 26q139 0 231.5 -106t124.5 -301q15 -52 15 -111q0 -51 -15 -102q-194 41 -499 57q2 -27 6 -57q186 -34 307 -146
q119 -110 119 -252q0 -60 -24.5 -125t-63.5 -110q-67 0 -138 39q-76 42 -104 94q95 42 139.5 75.5t44.5 65.5q0 45 -75 76t-211 41q-23 -213 -101 -410q-52 -118 -102 -213q-40 -76 -52 -105t-12 -48q0 -29 27 -46.5t70 -17.5q93 0 196 62q101 58 101 121q0 49 -68 49
q-62 0 -111 -49q-12 15 -12 43q0 90 51 163q51 39 129 39q119 0 195 -57t76 -149q0 -116 -131 -222q-2 -154 -21 -510z" />
    <glyph glyph-name="bn_k_ta" horiz-adv-x="1691" 
d="M1692 1053q-148 30 -379 47q-249 18 -484 18q-229 0 -460 -18q-214 -17 -369 -47q-16 62 -16 118q0 66 16 95q116 31 365 53q226 20 473 20q256 0 493 -20q235 -20 361 -53q16 -37 16 -97t-16 -116zM1239 289q0 -136 -105 -222.5t-276 -86.5q-304 0 -530 241
q-230 239 -316 637q35 33 150 76q79 -324 280 -528q200 -203 432 -203q85 0 135 36.5t50 98.5q0 56 -33 82q-64 -82 -158 -82q-80 0 -134 50.5t-54 129.5q0 77 52 129.5t126 52.5q72 0 131 -53q35 46 35 105q0 44 -36 70t-97 26q-125 0 -211 -80t-86 -195q0 -31 10 -61
q-49 0 -113.5 27.5t-101.5 64.5q-3 165 129 285q132 117 320 117q125 0 221.5 -57.5t128.5 -151.5q98 131 221 131q98 0 157.5 -100.5t59.5 -264.5q0 -161 -59 -256.5t-158 -95.5q-86 0 -127 72q3 150 55 256q21 -50 48 -80.5t53 -30.5q55 0 55 94q0 68 -34.5 112t-88.5 44
q-61 0 -129 -51t-100 -125q98 -92 98 -213zM786 543q0 -23 16 -37t42 -14q45 0 90 57q-40 53 -86 53q-26 0 -44 -17t-18 -42z" />
    <glyph glyph-name="bn_k_t_ba" horiz-adv-x="1691" 
d="M1692 1053q-148 30 -379 47q-249 18 -484 18q-229 0 -460 -18q-214 -17 -369 -47q-16 62 -16 118q0 66 16 95q116 31 365 53q226 20 473 20q256 0 493 -20q235 -20 361 -53q16 -37 16 -97t-16 -116zM1008 -203q0 -177 32 -272q-82 -40 -241 -37q-125 178 -471 225
q-80 118 -80 248q86 65 239 127q-170 106 -294 306.5t-181 463.5q35 33 150 76q79 -324 280 -528q200 -203 432 -203q85 0 135 36.5t50 98.5q0 56 -33 82q-64 -82 -158 -82q-80 0 -134 50.5t-54 129.5q0 77 52 129.5t126 52.5q72 0 131 -53q35 46 35 105q0 44 -36 70t-97 26
q-125 0 -211 -80t-86 -195q0 -31 10 -61q-49 0 -113.5 27.5t-101.5 64.5q-3 165 129 285q132 117 320 117q125 0 221.5 -57.5t128.5 -151.5q98 131 221 131q98 0 157.5 -100.5t59.5 -264.5q0 -159 -60 -255.5t-157 -96.5q-82 0 -127 72q3 150 55 256q52 -111 101 -111
q26 0 40.5 25t14.5 69q0 68 -34.5 112t-88.5 44q-61 0 -129 -51t-100 -125q98 -92 98 -213q0 -99 -57.5 -174.5t-159.5 -110.5q-14 -144 -14 -207zM786 543q0 -23 16 -37t42 -14q45 0 90 57q-40 53 -86 53q-26 0 -44 -17t-18 -42zM494 -158q123 -57 189.5 -97t107.5 -81
q3 127 34 301q-160 -38 -331 -123z" />
    <glyph glyph-name="bn_k_t_ra" horiz-adv-x="1691" 
d="M1692 1053q-148 30 -379 47q-249 18 -484 18q-229 0 -460 -18q-214 -17 -369 -47q-16 62 -16 118q0 66 16 95q116 31 365 53q226 20 473 20q256 0 493 -20q235 -20 361 -53q16 -37 16 -97t-16 -116zM786 543q0 -23 16 -37t42 -14q45 0 90 57q-40 53 -86 53q-26 0 -44 -17
t-18 -42zM1055 -389q-81 -34 -197 -37q-59 62 -99 80t-100 18q-50 0 -170 -20q-129 -21 -182 -21q-135 0 -217 73t-82 192q0 111 60 231q88 -3 161 -35q-30 -72 -30 -125q0 -54 30 -83t84 -29q33 0 136 20q125 23 169 23q68 0 122.5 -33.5t105.5 -106.5q9 70 16 222h-4
q-304 0 -530 241q-230 239 -316 637q35 33 150 76q79 -324 280 -528q200 -203 432 -203q85 0 135 36.5t50 98.5q0 56 -33 82q-64 -82 -158 -82q-80 0 -134 50.5t-54 129.5q0 77 52 129.5t126 52.5q72 0 131 -53q35 46 35 105q0 44 -36 70t-97 26q-125 0 -211 -80t-86 -195
q0 -31 10 -61q-49 0 -113.5 27.5t-101.5 64.5q-3 165 129 285q132 117 320 117q125 0 221.5 -57.5t128.5 -151.5q98 131 221 131q98 0 157.5 -100.5t59.5 -264.5q0 -159 -60 -255.5t-157 -96.5q-82 0 -127 72q3 150 55 256q52 -111 101 -111q26 0 40.5 25t14.5 69
q0 68 -34.5 112t-88.5 44q-61 0 -129 -51t-100 -125q98 -92 98 -213q0 -84 -44 -153.5t-124 -110.5q-2 -64 -4.5 -152.5t-3.5 -114.5q-1 -29 -4 -78.5t-4 -68.5z" />
    <glyph glyph-name="bn_k_na" horiz-adv-x="1318" 
d="M614 213v74q0 219 13 458q-179 -81 -328 -217q200 -121 315 -315zM420 -162q14 -137 -6 -217q-11 -8 -46.5 -15t-66.5 -7q-125 0 -211 92q-86 95 -86 227q0 113 75.5 186.5t192.5 73.5q99 0 189 -57t153 -160q-181 343 -460 412q-98 133 -109 280q107 114 264 215
t344 174q0 3 9 74h-13q-331 0 -649 -63q-16 62 -16 118q0 66 16 95q281 71 657 71q184 0 365 -18q193 -22 297 -53q18 -41 18 -97q0 -57 -18 -116q-216 45 -467 57q0 -2 -1 -14t-1 -25q0 -10 -1 -22t-1 -15q190 -47 311 -174q121 -130 121 -280q0 -102 -48.5 -189
t-131.5 -139q-50 11 -100.5 60.5t-79.5 117.5q88 31 146 86.5t58 110.5q0 115 -288 139q-2 -39 -2 -176q0 -608 77 -952q-93 -37 -262 -37q-15 150 -125 266q-109 115 -241 115q-61 0 -98.5 -26t-37.5 -69q0 -39 34 -63.5t89 -24.5q89 0 150 39z" />
    <glyph glyph-name="bn_k_ba" horiz-adv-x="1318" 
d="M834 526q0 -441 49 -688q-103 -41 -248 -41q-44 101 -141 164q-99 67 -320 129q-79 109 -82 219q81 66 205 140q-18 6 -39 12q-4 1 -111 26q-75 104 -84 222q76 70 261 178q157 91 329 157q0 3 0.5 7.5t1.5 11.5l2 14q1 12 3 23.5t2 15.5h-13q-331 0 -649 -63
q-16 62 -16 118q0 66 16 95q281 71 657 71q184 0 365 -18q193 -22 297 -53q18 -41 18 -97q0 -57 -18 -116q-216 45 -465 57l-6 -68q196 -41 319 -170q127 -133 127 -286q0 -98 -35 -172.5t-98 -116.5q-50 12 -100.5 62t-79.5 118q72 23 116 66t44 90q0 76 -71.5 117.5
t-231.5 54.5q-4 -274 -4 -279zM299 608q1 -1 7 -3.5t22.5 -10t31.5 -14.5q58 -27 93 -48q59 33 170 78q4 82 10 185q-71 -26 -164.5 -78.5t-169.5 -108.5zM618 20q-4 152 -4 166q0 142 2 183q-131 -54 -288 -162q147 -81 202 -117q42 -27 88 -70z" />
    <glyph glyph-name="bn_k_ma" horiz-adv-x="1759" 
d="M756 727q-2 -41 -2 -184q0 -87 18 -260q15 -142 35 -265q275 -145 395 -262q-57 275 -57 625q0 444 55 739q-141 10 -321 10q-80 0 -105 -2q-1 -20 -5 -72t-7 -102q157 -53 254 -159q96 -113 96 -234q0 -97 -46 -179t-122 -124q-47 11 -92 53t-68 99q74 20 126.5 73
t52.5 107q0 57 -47.5 88.5t-159.5 48.5zM262 571q173 -65 275 -153q3 112 10 291q-112 -34 -285 -138zM1511 -418q-49 -29 -117 -47t-130 -18q0 8 -4 12q-46 85 -158 162q-113 76 -354 174q-44 -61 -109 -97t-133 -36q-116 0 -199 80q-84 81 -84 194q0 115 65.5 187.5
t166.5 72.5q5 0 18 -1.5t25 -2.5q-117 128 -375 178q-65 95 -74 238q74 63 234 149q145 80 282 125q8 124 15 170q-285 -14 -580 -69q-16 56 -16 118q0 69 16 95q159 38 406 63q256 23 473 23q215 0 475 -23q245 -25 405 -63q19 -30 19 -95q0 -59 -19 -118q-220 38 -368 51
q-21 -218 -21 -508q0 -237 38 -511.5t103 -502.5zM371 55q0 -82 90 -82q43 0 66.5 18.5t33.5 61.5q-39 82 -112 82q-35 0 -56.5 -22.5t-21.5 -57.5z" />
    </font>
</defs>
</svg>
