<?xml version="1.0" standalone="no"?>
<!DOCTYPE svg PUBLIC "-//W3C//DTD SVG 1.1//EN" "http://www.w3.org/Graphics/SVG/1.1/DTD/svg11.dtd" >
<svg xmlns="http://www.w3.org/2000/svg" xmlns:xlink="http://www.w3.org/1999/xlink" version="1.1">
<metadata>
Created by FontForge 20170731 at Fri May 20 10:33:41 2022
 By Aleksey,,,
Copyright (c) 2008-2011 by Accademia di Belle Arti di Urbino and others. All rights reserved.
</metadata>
<defs>
<font id="Titillium-Bold" horiz-adv-x="1146" >
  <font-face 
    font-family="Titillium Bd"
    font-weight="700"
    font-stretch="normal"
    units-per-em="2048"
    panose-1="0 0 8 0 0 0 0 0 0 0"
    ascent="1536"
    descent="-512"
    x-height="1024"
    cap-height="1393"
    bbox="-459 -637 2169 2281"
    underline-thickness="61"
    underline-position="-286"
    unicode-range="U+0020-F6C3"
  />
<missing-glyph horiz-adv-x="481" 
 />
    <glyph glyph-name=".notdef" horiz-adv-x="481" 
 />
    <glyph glyph-name=".null" horiz-adv-x="0" 
 />
    <glyph glyph-name="nonmarkingreturn" horiz-adv-x="682" 
 />
    <glyph glyph-name="space" unicode=" " horiz-adv-x="450" 
 />
    <glyph glyph-name="exclam" unicode="!" horiz-adv-x="573" 
d="M139 0v330h295v-330h-295zM166 512l-27 881h297l-28 -881h-242z" />
    <glyph glyph-name="quotedbl" unicode="&#x22;" horiz-adv-x="841" 
d="M717 901h-242l-8 492h264zM365 901h-242l-10 492h264z" />
    <glyph glyph-name="numbersign" unicode="#" 
d="M1114 305h-196v-305h-238v305h-213v-305h-238v305h-196v230h196v258h-196v229h196v330h238v-330h213v330h238v-330h196v-229h-196v-258h196v-230zM680 535v258h-213v-258h213z" />
    <glyph glyph-name="dollar" unicode="$" 
d="M1014 1323l-23 -217q-149 16 -276 24l-41 -329q213 -68 289.5 -148.5t76.5 -244.5q0 -108 -35.5 -191.5t-98.5 -136t-147.5 -79t-185.5 -26.5h-2l-30 -241q-152 6 -152 14l29 238q-67 7 -140.5 20t-113.5 22l-41 9l27 213q162 -23 299 -31l45 356q-212 63 -300 153.5
t-88 246.5q0 203 123 302t338 99h27l37 283h151l-37 -295q62 -6 129 -16.5t104 -17.5zM379 993q0 -50 30.5 -80t118.5 -63l35 285q-92 -4 -138 -41.5t-46 -100.5zM768 389q0 49 -27.5 80.5t-99.5 60.5l-39 -313q84 9 125 54t41 118z" />
    <glyph glyph-name="percent" unicode="%" 
d="M256 -16l481 1448l150 -54l-481 -1444zM274 1376q120 0 183 -74.5t63 -222.5t-63 -223.5t-183 -75.5q-119 0 -182 75.5t-63 223.5t62.5 222.5t182.5 74.5zM229 1079q0 -74 9 -104.5t36 -30.5t36 30.5t9 104.5t-9 103.5t-36 29.5t-36 -29.5t-9 -103.5zM872 571
q120 0 183 -74.5t63 -222.5t-63 -223.5t-183 -75.5q-119 0 -182 75.5t-63 223.5t62.5 222.5t182.5 74.5zM827 274q0 -74 9 -104.5t36 -30.5t36.5 30.5t9.5 104.5q0 73 -9.5 103.5t-36.5 30.5t-36 -30t-9 -104z" />
    <glyph glyph-name="ampersand" unicode="&#x26;" horiz-adv-x="1435" 
d="M647 1458q201 0 309.5 -85.5t108.5 -246.5q0 -91 -30 -159t-86.5 -123t-164.5 -129l201 -201q12 32 24.5 119.5t14.5 142.5l266 -6q-13 -106 -42.5 -223.5t-61.5 -192.5l229 -200l-155 -179l-218 179q-71 -79 -182.5 -129t-236.5 -50q-124 0 -218 19t-157 54t-102.5 88.5
t-56.5 118t-17 146.5q0 166 69 261t221 155q-84 102 -109.5 165t-25.5 167q0 143 114.5 226t305.5 83zM588 221q81 0 158.5 23t109.5 59l-354 354q-152 -74 -152 -233q0 -203 238 -203zM506 1087q0 -47 21.5 -87t70.5 -93l35 -37q84 62 118.5 110t34.5 116q0 69 -34.5 99
t-104.5 30q-67 0 -104 -34t-37 -104z" />
    <glyph glyph-name="quotesingle" unicode="'" horiz-adv-x="489" 
d="M123 901l-8 492h264l-14 -492h-242z" />
    <glyph glyph-name="parenleft" unicode="(" horiz-adv-x="630" 
d="M315 1536h260q-8 -21 -21 -58t-46.5 -147t-59 -216t-46.5 -245.5t-21 -253.5t20 -246t48.5 -238.5t57 -197t48.5 -140.5l20 -50h-260q-10 16 -26 44.5t-56.5 121t-72 189t-57 238.5t-25.5 279t24.5 282t59.5 254.5t69.5 199t58.5 136.5z" />
    <glyph glyph-name="parenright" unicode=")" horiz-adv-x="630" 
d="M55 1536h260q10 -18 26 -49.5t57 -132.5t72.5 -203.5t57 -250t25.5 -284.5t-24.5 -277t-59.5 -242.5t-70 -185t-59 -125.5l-25 -42h-260q8 19 21 52.5t46.5 135.5t59.5 201.5t47 234t21 248.5t-20 251t-48.5 250.5t-57.5 211t-49 152.5z" />
    <glyph glyph-name="asterisk" unicode="*" horiz-adv-x="870" 
d="M797 1022h-252l78 -246l-150 -45l-84 248l-211 -162l-96 121l215 160l-209 149l94 129l207 -149l80 248l154 -52l-78 -249h252v-152z" />
    <glyph glyph-name="plus" unicode="+" 
d="M102 391v246h347v344h245v-344h350v-246h-350v-348h-245v348h-347z" />
    <glyph glyph-name="comma" unicode="," horiz-adv-x="538" 
d="M41 -252l102 533h303l-184 -533h-221z" />
    <glyph glyph-name="hyphen" unicode="-" horiz-adv-x="835" 
d="M115 420v250h606v-250h-606z" />
    <glyph glyph-name="period" unicode="." horiz-adv-x="524" 
d="M115 0v340h295v-340h-295z" />
    <glyph glyph-name="slash" unicode="/" horiz-adv-x="954" 
d="M63 16l590 1454l242 -86l-590 -1454z" />
    <glyph glyph-name="zero" unicode="0" 
d="M573 1376q261 0 393 -167.5t132 -540.5q0 -190 -34 -324t-103 -215t-164 -117.5t-224 -36.5t-224 36.5t-163.5 117.5t-102.5 215t-34 324q0 252 62 410.5t176 228t286 69.5zM575 1130q-84 0 -134.5 -42t-75.5 -143.5t-25 -276.5q0 -245 55 -346t180 -101t178.5 100.5
t53.5 346.5q0 259 -53 360.5t-179 101.5z" />
    <glyph glyph-name="one" unicode="1" 
d="M152 1055l446 297h258v-1352h-283v1032l-292 -188z" />
    <glyph glyph-name="two" unicode="2" 
d="M1010 0h-877v240l289 292q79 81 119 125t81.5 99t57.5 99.5t16 92.5q0 101 -50 139.5t-171 38.5q-62 0 -141.5 -7.5t-128.5 -14.5l-49 -8l-15 219q23 7 62 17t146 27t198 17q228 0 334 -97t106 -290q0 -152 -65 -262.5t-238 -267.5l-235 -213h561v-246z" />
    <glyph glyph-name="three" unicode="3" 
d="M145 1094l-18 209q21 8 58 20t140.5 32.5t194.5 20.5q260 0 366.5 -88.5t106.5 -283.5q0 -198 -157 -304q39 -21 63 -36.5t49.5 -40t38.5 -52t22 -68.5t9 -95q0 -219 -109 -326t-352 -107q-89 0 -199 17.5t-176 35.5l-65 17l14 215q229 -39 385 -39q106 0 158.5 43.5
t52.5 136.5q0 75 -54.5 120.5t-142.5 45.5h-272v234h272q68 0 120 57t52 127q0 145 -202 145q-71 0 -160 -9t-142 -18z" />
    <glyph glyph-name="four" unicode="4" 
d="M655 0v223h-573v215l334 914h311l-362 -883h290v379h283v-379h129v-246h-129v-223h-283z" />
    <glyph glyph-name="five" unicode="5" 
d="M178 1352h826v-246h-605l-34 -293q126 49 241 49q438 0 438 -407q0 -229 -120.5 -354.5t-341.5 -125.5q-94 0 -214 19t-193 38l-73 19l31 209q248 -39 414 -39q99 0 153 53t54 150q0 102 -45.5 147t-143.5 45q-64 0 -128 -8.5t-96 -17.5l-32 -8l-168 39z" />
    <glyph glyph-name="six" unicode="6" 
d="M1040 1317l-24 -217q-209 30 -381 30q-135 0 -204 -85t-69 -230l43 12q43 12 108 25.5t108 13.5q232 0 348 -106t116 -332q0 -224 -130.5 -338.5t-364.5 -114.5q-263 0 -390.5 181t-127.5 514q0 190 38.5 327.5t113.5 219.5t176.5 120.5t234.5 38.5q76 0 177.5 -15
t164.5 -29zM596 621q-49 0 -108 -11.5t-94 -23.5l-34 -11q0 -161 54.5 -257.5t175.5 -96.5q98 0 151.5 54.5t53.5 152.5q0 95 -51.5 144t-147.5 49z" />
    <glyph glyph-name="seven" unicode="7" 
d="M141 1100v252h865v-320l-482 -1057l-262 74l461 985v66h-582z" />
    <glyph glyph-name="eight" unicode="8" 
d="M569 1376q224 0 361 -97.5t137 -272.5q0 -120 -29 -179t-118 -131q91 -75 129 -142.5t38 -186.5q0 -83 -26.5 -150t-73.5 -111.5t-113 -74.5t-141.5 -43t-163.5 -13q-512 0 -512 369q0 90 21.5 155t54.5 106t94 91q-86 69 -116.5 135.5t-30.5 176.5q0 173 132.5 270.5
t356.5 97.5zM569 229q215 0 215 181q0 106 -120 153h-181q-123 -48 -123 -153q0 -93 52 -137t157 -44zM573 1122q-92 0 -141 -41t-49 -118q0 -92 100 -160h181q100 68 100 160q0 77 -49 118t-142 41z" />
    <glyph glyph-name="nine" unicode="9" 
d="M102 35l25 217q209 -31 381 -31q137 0 204.5 86.5t67.5 245.5l-42 -15q-43 -14 -108 -30t-108 -16q-224 0 -344.5 108t-120.5 324q0 212 133 332t363 120q261 0 389.5 -181t128.5 -511q0 -197 -38.5 -336.5t-114 -220t-175.5 -116.5t-235 -36q-76 0 -177.5 15t-164.5 30z
M547 737q49 0 108 11.5t93 23.5l34 12q0 75 -12 135t-37.5 108.5t-71.5 75.5t-108 27q-98 0 -151.5 -54t-53.5 -152q0 -92 52 -139.5t147 -47.5z" />
    <glyph glyph-name="colon" unicode=":" horiz-adv-x="524" 
d="M115 592v340h295v-340h-295zM115 0v340h295v-340h-295z" />
    <glyph glyph-name="semicolon" unicode=";" horiz-adv-x="571" 
d="M158 281l-103 -533h221l185 533h-303zM141 592v340h295v-340h-295z" />
    <glyph glyph-name="less" unicode="&#x3c;" 
d="M967 723l-535 -203l535 -221v-279l-832 381v226l832 374v-278z" />
    <glyph glyph-name="equal" unicode="=" 
d="M119 604v248h909v-248h-909zM119 178v248h909v-248h-909z" />
    <glyph glyph-name="greater" unicode="&#x3e;" 
d="M715 520l-535 203v278l832 -374v-226l-832 -381v279z" />
    <glyph glyph-name="question" unicode="?" horiz-adv-x="894" 
d="M829 1081q0 -143 -32 -215.5t-135 -150.5q-70 -53 -104.5 -91t-42 -60.5t-7.5 -55.5v-64h-219q-3 3 -7 8.5t-15 23.5t-19.5 38.5t-15.5 52t-7 64.5q0 40 33 83t115 109q112 89 142 129.5t30 98.5t-39 89t-135 31q-61 0 -134.5 -8t-116.5 -16l-44 -8l-15 207q20 8 54 20
t126.5 31.5t168.5 19.5q221 0 320 -79.5t99 -256.5zM244 0v330h295v-330h-295z" />
    <glyph glyph-name="at" unicode="@" horiz-adv-x="1992" 
d="M1933 625v-17q0 -315 -99.5 -461.5t-295.5 -146.5q-60 0 -110 12t-78.5 28.5t-48.5 33.5t-27 29l-8 12q-7 -5 -18.5 -12.5t-47.5 -27.5t-70.5 -35t-81 -27.5t-85.5 -12.5q-193 0 -288 120t-95 394q0 260 88.5 385t302.5 125q34 0 80.5 -13t76.5 -25l29 -13v26h275v-366
q0 -75 0.5 -124.5t2.5 -95.5t5 -72t9 -49.5t12.5 -33.5t18 -18t23.5 -9.5t31 -1.5q43 0 69 30.5t41 115t15 233.5v19q0 327 -151 475.5t-478 148.5q-330 0 -504 -188t-174 -528q0 -189 36 -322.5t117 -223.5t210 -132.5t315 -42.5q45 0 118.5 4.5t123.5 9.5l51 4l10 -240
q-184 -20 -303 -20q-188 0 -332.5 29t-263.5 97.5t-196 178.5t-118.5 274.5t-41.5 383.5q0 239 69 423.5t195.5 300.5t300 175t387.5 59q449 0 676 -222t227 -646zM985 242q80 0 184 51q-12 73 -12 217v252q-86 20 -125 20q-105 0 -139.5 -59.5t-34.5 -208.5q0 -138 31 -205
t96 -67z" />
    <glyph glyph-name="A" unicode="A" horiz-adv-x="1232" 
d="M35 0l313 1393h537l313 -1393h-283l-55 252h-487l-56 -252h-282zM567 1159l-141 -661h381l-141 661h-99z" />
    <glyph glyph-name="B" unicode="B" horiz-adv-x="1247" 
d="M152 1393h546q217 0 326 -87.5t109 -281.5q0 -117 -35 -185.5t-119 -121.5q92 -40 136 -113.5t44 -204.5q0 -203 -118 -301t-334 -98h-555v1393zM692 582h-258v-340h258q93 0 136.5 37t43.5 135q0 168 -180 168zM684 1151h-250v-332h252q82 0 121 42t39 126
q0 85 -40.5 124.5t-121.5 39.5z" />
    <glyph glyph-name="C" unicode="C" horiz-adv-x="1112" 
d="M1028 254l6 -231q-83 -18 -200.5 -33t-204.5 -15q-107 0 -188.5 19t-140.5 60t-98.5 98t-63 141t-33 180t-9.5 223q0 204 25 336.5t86.5 221t163 126t258.5 37.5q171 0 407 -55l-8 -225q-201 30 -358 30q-85 0 -135.5 -17.5t-86 -70t-48.5 -143t-13 -240.5
q0 -84 3.5 -144.5t11.5 -112.5t23.5 -86t36.5 -60.5t52.5 -40.5t71 -20.5t92.5 -6.5q152 0 350 29z" />
    <glyph glyph-name="D" unicode="D" horiz-adv-x="1306" 
d="M621 0h-469v1393h469q104 0 185.5 -13t143.5 -38.5t107 -67t75 -93t47.5 -123.5t25 -152t7.5 -183q0 -108 -6.5 -190.5t-23 -160.5t-45.5 -133.5t-73.5 -103t-106.5 -76t-145.5 -44t-190.5 -15.5zM922 723q0 72 -2.5 120t-9.5 97t-20.5 78.5t-35 57t-54 41.5t-76.5 22
t-103 8h-187v-901h187q58 0 103 11t76.5 29t54 51t35.5 68t20 89t9.5 105t2.5 124z" />
    <glyph glyph-name="E" unicode="E" horiz-adv-x="1134" 
d="M152 0v1393h901v-246h-619v-326h496v-241h-496v-334h619v-246h-901z" />
    <glyph glyph-name="F" unicode="F" horiz-adv-x="1087" 
d="M152 0v1393h888v-246h-606v-410h496v-245h-496v-492h-282z" />
    <glyph glyph-name="G" unicode="G" horiz-adv-x="1251" 
d="M731 500v245h406v-722q-293 -48 -475 -48q-135 0 -234 31t-163.5 87.5t-103 147.5t-54 200t-15.5 255q0 386 127 553.5t432 167.5q96 0 217.5 -14.5t195.5 -28.5l73 -14l-9 -219q-246 26 -432 26q-95 0 -151.5 -18t-95 -71t-52.5 -143t-14 -239q0 -117 7.5 -192.5
t26.5 -134t54.5 -89t87 -45t129.5 -14.5q37 0 79.5 2t66.5 4l24 2v271h-127z" />
    <glyph glyph-name="H" unicode="H" horiz-adv-x="1386" 
d="M952 0v578h-518v-578h-282v1393h282v-570h518v570h283v-1393h-283z" />
    <glyph glyph-name="I" unicode="I" horiz-adv-x="585" 
d="M152 0v1393h282v-1393h-282z" />
    <glyph glyph-name="J" unicode="J" horiz-adv-x="618" 
d="M475 1393l2 -1157q0 -115 -24.5 -189t-80.5 -116t-134 -58t-199 -16v245q81 0 118.5 31t37.5 115v1145h280z" />
    <glyph glyph-name="K" unicode="K" horiz-adv-x="1214" 
d="M856 0l-233 555l-189 -20v-535h-282v1393h282v-613l189 21l229 592h322l-304 -699l312 -694h-326z" />
    <glyph glyph-name="L" unicode="L" horiz-adv-x="966" 
d="M944 0h-792v1393h282v-1143h510v-250z" />
    <glyph glyph-name="M" unicode="M" horiz-adv-x="1757" 
d="M152 0v1393h481l246 -1016l245 1016h482v-1393h-283v1077h-31l-272 -1016h-283l-272 1016h-31v-1077h-282z" />
    <glyph glyph-name="N" unicode="N" horiz-adv-x="1419" 
d="M152 0v1393h477l336 -1147h20v1147h283v-1393h-465l-348 1147h-21v-1147h-282z" />
    <glyph glyph-name="O" unicode="O" horiz-adv-x="1335" 
d="M668 221q85 0 141 26.5t88 87t44.5 144t12.5 209.5q0 101 -8 174.5t-27 134t-51.5 97.5t-82 57t-117.5 20q-165 0 -226 -114t-61 -369q0 -252 60.5 -359.5t226.5 -107.5zM668 -25q-131 0 -228.5 29.5t-164 85.5t-108 144t-59.5 198.5t-18 255.5q0 183 29 314t95.5 226.5
t179 142t274.5 46.5t274.5 -46.5t178.5 -142t95 -226.5t29 -314q0 -145 -18 -255.5t-59 -198.5t-107.5 -144t-164 -85.5t-228.5 -29.5z" />
    <glyph glyph-name="P" unicode="P" horiz-adv-x="1206" 
d="M664 406h-230v-406h-282v1393h512q495 0 495 -484q0 -245 -125.5 -374t-369.5 -129zM434 647h228q210 0 210 262q0 128 -51 185t-159 57h-228v-504z" />
    <glyph glyph-name="Q" unicode="Q" horiz-adv-x="1335" 
d="M942 -319l-184 301q-24 -7 -90 -7q-163 0 -275 43.5t-178.5 135.5t-95.5 221t-29 313q0 183 29 314t95.5 226.5t179 142t274.5 46.5t274.5 -46.5t178.5 -142t95 -226.5t29 -314q0 -232 -50.5 -380.5t-164.5 -231.5l170 -275zM668 221q69 0 118 18t81.5 52t51.5 92
t27 130.5t8 174.5q0 101 -8 174.5t-27 134t-51.5 97.5t-82 57t-117.5 20q-165 0 -226 -114t-61 -369q0 -128 12.5 -211.5t45 -143.5t88 -86t141.5 -26z" />
    <glyph glyph-name="R" unicode="R" horiz-adv-x="1269" 
d="M707 467h-273v-467h-282v1393h540q492 0 492 -459q0 -273 -205 -402l199 -532h-310zM895 930q0 102 -52 161.5t-151 59.5h-258v-442h262q101 0 150 61t49 160z" />
    <glyph glyph-name="S" unicode="S" horiz-adv-x="1114" 
d="M1010 1362l-23 -223q-288 32 -407 32q-112 0 -168 -38.5t-56 -108.5q0 -65 55 -100.5t234 -92.5q156 -50 237.5 -99.5t118.5 -122t37 -189.5q0 -147 -64 -249t-170.5 -149t-246.5 -47q-84 0 -200.5 16t-190.5 32l-74 16l29 219q275 -37 420 -37q110 0 163.5 47.5
t53.5 132.5q0 65 -50.5 103t-199.5 80q-237 68 -334.5 161t-97.5 259q0 209 126.5 311t348.5 102q83 0 197.5 -13.5t187.5 -27.5z" />
    <glyph glyph-name="T" unicode="T" horiz-adv-x="1077" 
d="M27 1143v250h1024v-250h-369v-1143h-283v1143h-372z" />
    <glyph glyph-name="U" unicode="U" horiz-adv-x="1339" 
d="M422 465q0 -124 61.5 -184t186.5 -60q248 0 248 244v928h282v-922q0 -257 -132 -376.5t-398 -119.5t-398.5 119.5t-132.5 376.5v922h283v-928z" />
    <glyph glyph-name="V" unicode="V" horiz-adv-x="1234" 
d="M905 1393h297l-323 -1393h-523l-323 1393h297l241 -1147h93z" />
    <glyph glyph-name="W" unicode="W" horiz-adv-x="1904" 
d="M39 1393h297l172 -1151h31l249 1151h328l250 -1151h31l172 1151h297l-267 -1393h-428l-219 1059l-219 -1059h-428z" />
    <glyph glyph-name="X" unicode="X" horiz-adv-x="1165" 
d="M332 1393l258 -512l264 512h293l-402 -711l402 -682h-313l-259 481l-264 -481h-293l402 668l-402 725h314z" />
    <glyph glyph-name="Y" unicode="Y" horiz-adv-x="1140" 
d="M713 563v-563h-283v563l-430 830h313l256 -555l256 555h314z" />
    <glyph glyph-name="Z" unicode="Z" horiz-adv-x="1089" 
d="M84 1147v246h922v-246l-582 -864v-37h582v-246h-922v244l582 866v37h-582z" />
    <glyph glyph-name="bracketleft" unicode="[" horiz-adv-x="727" 
d="M655 1534v-246h-235v-1294h235v-246h-516v1786h516z" />
    <glyph glyph-name="backslash" unicode="\" horiz-adv-x="1019" 
d="M954 27l-237 -101l-651 1434l233 106z" />
    <glyph glyph-name="bracketright" unicode="]" horiz-adv-x="727" 
d="M72 1288v246h516v-1786h-516v246h235v1294h-235z" />
    <glyph glyph-name="asciicircum" unicode="^" 
d="M784 641l-223 444l-231 -444h-287l397 711h234l397 -711h-287z" />
    <glyph glyph-name="underscore" unicode="_" horiz-adv-x="1269" 
d="M197 -150h876v-233h-876v233z" />
    <glyph glyph-name="grave" unicode="`" horiz-adv-x="548" 
d="M47 1542l516 -209l-61 -178l-537 152z" />
    <glyph glyph-name="a" unicode="a" horiz-adv-x="1046" 
d="M911 705v-426q3 -49 16 -69.5t52 -27.5l-8 -207q-105 0 -167.5 15t-125.5 57q-16 -8 -45 -20t-108.5 -32t-147.5 -20q-159 0 -238.5 85.5t-79.5 250.5q0 85 23.5 144t72.5 94t111.5 52.5t151.5 23.5l219 16v64q0 63 -28 86.5t-93 23.5q-60 0 -156 -4t-162 -8l-67 -4
l-8 190q25 7 66.5 17t151.5 26.5t198 16.5q198 0 285 -81.5t87 -262.5zM637 451l-186 -17q-115 -10 -115 -115q0 -120 100 -120q39 0 89.5 8t80.5 16l31 8v220z" />
    <glyph glyph-name="b" unicode="b" horiz-adv-x="1114" 
d="M623 1049q144 0 232.5 -48.5t134.5 -164t46 -310.5q0 -165 -28 -271.5t-93 -169t-156.5 -86.5t-232.5 -24q-44 0 -143.5 7.5t-177.5 14.5l-78 7v1430h274v-441q132 56 222 56zM526 221q137 0 184.5 67t47.5 238q0 149 -44 213t-128 64q-36 0 -82.5 -6.5t-74.5 -13.5
l-28 -7v-547q94 -8 125 -8z" />
    <glyph glyph-name="c" unicode="c" horiz-adv-x="913" 
d="M510 1049q53 0 135 -11.5t137 -22.5l56 -11l-9 -218q-161 17 -239 17q-74 0 -119.5 -14.5t-71 -50t-34.5 -85t-9 -131.5q0 -91 9 -144.5t35.5 -91t71.5 -51.5t120 -14q35 0 94 4.5t101 8.5l42 4l9 -220q-219 -43 -334 -43q-228 0 -327 128.5t-99 418.5q0 273 102.5 400
t329.5 127z" />
    <glyph glyph-name="d" unicode="d" horiz-adv-x="1124" 
d="M997 1434v-1434h-272v43q-16 -8 -43 -19t-93 -30t-112 -19q-115 0 -192.5 33t-123 103.5t-64.5 167.5t-19 237q0 277 105.5 405t318.5 128q34 0 89 -7.5t93 -14.5l39 -7v414h274zM524 221q43 0 92.5 7.5t77.5 15.5l29 8v539q-113 20 -201 20q-166 0 -166 -295
q0 -160 36.5 -227.5t131.5 -67.5z" />
    <glyph glyph-name="e" unicode="e" horiz-adv-x="1044" 
d="M559 217q75 0 169.5 4.5t151.5 9.5l58 5l4 -203q-236 -58 -426 -58q-232 0 -336 123.5t-104 399.5q0 274 114 412.5t338 138.5q447 0 447 -463l-21 -191h-602q2 -93 50 -135.5t157 -42.5zM350 604h355q0 123 -39.5 171t-137.5 48q-97 0 -136.5 -50t-41.5 -169z" />
    <glyph glyph-name="f" unicode="f" horiz-adv-x="731" 
d="M451 791v-791h-275v791h-110v233h110v45q0 220 65.5 304.5t233.5 84.5q30 0 88.5 -6.5t102.5 -13.5l43 -6l-4 -224q-90 4 -156 4q-57 0 -77.5 -32.5t-20.5 -112.5v-43h247v-233h-247z" />
    <glyph glyph-name="g" unicode="g" horiz-adv-x="1093" 
d="M569 -471q-94 0 -166.5 7.5t-135.5 27t-104 51t-64 82t-23 117.5q0 69 34.5 125.5t112.5 117.5q-34 23 -55 66t-21 90q0 23 20 64t40 71l20 29q-41 29 -69 62t-49 96t-21 147q0 96 33 167.5t92.5 113t135.5 61.5t169 20q40 0 91.5 -6.5t83.5 -13.5l32 -6l330 10v-219
l-154 12q45 -73 45 -139q0 -106 -27 -177t-84.5 -111t-133.5 -56t-187 -16q-48 0 -84 8q-20 -53 -20 -80q0 -28 13.5 -41t54.5 -19.5t130 -7.5q176 -1 272 -31.5t135.5 -95t39.5 -182.5q0 -73 -25.5 -131.5t-69.5 -98t-106 -65.5t-133 -37.5t-152 -11.5zM586 -55
q-25 0 -71.5 3.5t-80.5 7.5l-33 3q-55 -55 -55 -117q0 -88 225 -88q207 0 207 103q0 56 -36.5 71t-155.5 17zM520 530q156 0 156 152q0 74 -37.5 111.5t-118.5 37.5q-158 0 -158 -149q0 -152 158 -152z" />
    <glyph glyph-name="h" unicode="h" horiz-adv-x="1132" 
d="M401 0h-274v1434h274v-459q16 8 42.5 20.5t94 33t117.5 20.5q85 0 147.5 -22t103.5 -61.5t65.5 -102t34.5 -136.5t10 -172v-555h-275v549q0 51 -3 86.5t-12.5 69t-26 54t-44.5 32.5t-67 12q-40 0 -86.5 -8.5t-73.5 -16.5l-27 -8v-770z" />
    <glyph glyph-name="i" unicode="i" horiz-adv-x="528" 
d="M127 0v1024h274v-1024h-274zM127 1155v279h274v-279h-274z" />
    <glyph glyph-name="j" unicode="j" horiz-adv-x="530" 
d="M129 49v975h274v-977q0 -88 -11 -150.5t-34 -113t-68.5 -93t-102.5 -79.5t-148 -82l-109 203q57 37 86 59.5t55.5 49t36.5 54.5t15.5 63.5t5.5 90.5zM129 1155v279h274v-279h-274z" />
    <glyph glyph-name="k" unicode="k" horiz-adv-x="1054" 
d="M401 0h-274v1434h274v-816l105 19l203 387h307l-266 -485l280 -539h-309l-207 399l-113 -18v-381z" />
    <glyph glyph-name="l" unicode="l" horiz-adv-x="552" 
d="M139 0v1434h275v-1434h-275z" />
    <glyph glyph-name="m" unicode="m" horiz-adv-x="1718" 
d="M401 0h-274v1024h272v-57q16 9 42.5 22.5t91 36.5t108.5 23q166 0 256 -97q21 11 56.5 27t127 43t160.5 27q104 0 174 -30t111 -94t58.5 -153t17.5 -217v-555h-275v547q0 51 -3 87t-12 70t-24.5 54.5t-41.5 32.5t-62 12t-84 -9.5t-78 -19.5l-29 -10q8 -154 8 -234v-530
h-274v526q0 152 -27 214.5t-116 62.5q-40 0 -86 -9.5t-72 -18.5l-25 -9v-766z" />
    <glyph glyph-name="n" unicode="n" horiz-adv-x="1132" 
d="M401 0h-274v1024h272v-57q16 9 42 22.5t94 36.5t120 23q85 0 147.5 -22t103.5 -61.5t65.5 -102t34.5 -136.5t10 -172v-555h-275v547q0 51 -3 87t-12.5 70t-26 54.5t-44.5 32.5t-67 12q-43 0 -89.5 -9.5t-72.5 -18.5l-25 -9v-766z" />
    <glyph glyph-name="o" unicode="o" horiz-adv-x="1089" 
d="M545 1049q130 0 223 -38.5t146.5 -111.5t77.5 -167.5t24 -217.5t-24 -218t-77.5 -169t-146.5 -113t-223 -39t-223 39t-146.5 113t-77.5 169t-24 218t24 217.5t77.5 167.5t146.5 111.5t223 38.5zM545 209q109 0 150.5 73.5t41.5 231.5q0 157 -41.5 229t-150.5 72t-151 -72
t-42 -229q0 -158 42 -231.5t151 -73.5z" />
    <glyph glyph-name="p" unicode="p" horiz-adv-x="1114" 
d="M127 -430v1454h272v-55q15 9 40 22.5t87.5 35.5t106.5 22q206 0 304.5 -124t98.5 -405q0 -162 -27.5 -269t-88.5 -167.5t-143.5 -84.5t-205.5 -24q-34 0 -76.5 4.5t-68.5 8.5l-25 4v-422h-274zM580 803q-37 0 -82 -10.5t-71 -20.5l-26 -10v-537q93 -12 150 -12
q120 0 163.5 69.5t43.5 237.5q0 283 -178 283z" />
    <glyph glyph-name="q" unicode="q" horiz-adv-x="1112" 
d="M489 -25q-144 0 -232 48.5t-133.5 164t-45.5 310.5q0 165 28 271.5t92 169t155.5 86.5t232.5 24q53 0 152.5 -6.5t173.5 -13.5l73 -7v-1452h-274v461q-132 -56 -222 -56zM586 811q-137 0 -185.5 -70.5t-48.5 -242.5q0 -148 45 -212.5t129 -64.5q36 0 82.5 6.5t74.5 13.5
l28 7v555q-76 8 -125 8z" />
    <glyph glyph-name="r" unicode="r" horiz-adv-x="761" 
d="M127 0v1024h272v-109q19 12 52 29.5t120 54t156 50.5v-277q-80 -16 -161.5 -37.5t-123.5 -34.5l-41 -14v-686h-274z" />
    <glyph glyph-name="s" unicode="s" horiz-adv-x="966" 
d="M866 995l-4 -227q-254 33 -373 33q-85 0 -114 -19t-29 -63q0 -34 40 -49.5t187 -42.5q182 -33 252 -100t70 -220q0 -174 -106 -253t-306 -79q-68 0 -166 12.5t-163 24.5l-64 13l8 229q255 -33 359 -33q94 0 130 19t36 61q0 25 -13.5 39t-59 28t-138.5 29
q-91 15 -147.5 33.5t-103 53.5t-67 90.5t-20.5 138.5q0 87 31 152.5t86 104.5t125 58t153 19q65 0 164.5 -13t166.5 -26z" />
    <glyph glyph-name="t" unicode="t" horiz-adv-x="745" 
d="M694 791h-252v-420q0 -32 0.5 -47t3 -36.5t7.5 -30.5t14.5 -19t24.5 -13.5t36 -3.5l156 4l12 -219q-137 -31 -209 -31q-185 0 -252 83.5t-67 306.5v426h-121v233h121v285h274v-285h252v-233z" />
    <glyph glyph-name="u" unicode="u" horiz-adv-x="1132" 
d="M731 1024h275v-1024h-273v57q-16 -9 -43.5 -22.5t-96 -36.5t-116.5 -23q-111 0 -182 30t-110 97.5t-53.5 157t-14.5 227.5v537h274v-541q0 -52 1.5 -83.5t6 -65t14 -51.5t25.5 -34t39.5 -22t57.5 -6q45 0 94 9.5t75 18.5l27 9v766z" />
    <glyph glyph-name="v" unicode="v" horiz-adv-x="1019" 
d="M31 1024h286l164 -791h58l172 791h278l-246 -1024h-467z" />
    <glyph glyph-name="w" unicode="w" horiz-adv-x="1581" 
d="M49 1024h270l125 -791h50l155 771h283l155 -771h50l125 791h270l-195 -1024h-430l-116 627l-117 -627h-430z" />
    <glyph glyph-name="x" unicode="x" horiz-adv-x="970" 
d="M29 1024h293l163 -317l166 317h293l-291 -502l291 -522h-293l-166 313l-163 -313h-293l280 514z" />
    <glyph glyph-name="y" unicode="y" horiz-adv-x="1024" 
d="M33 1024h270l186 -791h48l186 791h270l-360 -1454h-268l112 430h-192z" />
    <glyph glyph-name="z" unicode="z" horiz-adv-x="929" 
d="M84 778v246h760v-246l-430 -532h430v-246h-760v246l430 532h-430z" />
    <glyph glyph-name="braceleft" unicode="{" horiz-adv-x="739" 
d="M530 352q0 -28 -7 -116t-7 -123q0 -70 29.5 -108.5t116.5 -45.5v-233q-226 7 -320 87.5t-94 264.5q0 44 7 135t7 113q0 149 -229 209v213q118 28 173.5 74.5t55.5 117.5q0 26 -7 123t-7 137q0 195 93.5 273t324.5 86v-234q-88 -7 -120 -42.5t-32 -102.5q0 -35 7 -134.5
t7 -127.5q0 -67 -7.5 -106.5t-32 -73.5t-69 -55t-120.5 -40q75 -18 121 -42t70 -61t32 -79t8 -109z" />
    <glyph glyph-name="bar" unicode="|" horiz-adv-x="548" 
d="M137 -430v1864h275v-1864h-275z" />
    <glyph glyph-name="braceright" unicode="}" horiz-adv-x="739" 
d="M209 352q0 67 8 109t32 79t70 61t121 42q-76 19 -120.5 40t-69 55t-32 73.5t-7.5 106.5q0 28 7 127.5t7 134.5q0 67 -31.5 102.5t-119.5 42.5v234q231 -8 324.5 -86t93.5 -273q0 -40 -7.5 -137t-7.5 -123q0 -71 56 -117.5t174 -74.5v-213q-115 -30 -172.5 -83.5
t-57.5 -125.5q0 -22 7.5 -113t7.5 -135q0 -184 -94 -264.5t-320 -87.5v233q86 7 115.5 45.5t29.5 108.5q0 35 -7 123t-7 116z" />
    <glyph glyph-name="asciitilde" unicode="~" 
d="M1001 672l17 -219q-4 -4 -12.5 -11t-33.5 -25.5t-51 -32t-63.5 -25t-71.5 -11.5q-60 0 -221 45t-196 45q-44 0 -100 -20t-90 -40l-34 -20l-20 220q14 12 39 29.5t91.5 47t121.5 29.5q57 0 213 -45t203 -45q36 0 88 19.5t86 38.5z" />
    <glyph glyph-name="exclamdown" unicode="&#xa1;" horiz-adv-x="540" 
d="M418 1024v-330h-295v330h295zM391 512l27 -881h-297l29 881h241z" />
    <glyph glyph-name="cent" unicode="&#xa2;" 
d="M553 -154v213q-373 26 -373 453q0 216 97.5 326.5t275.5 124.5v206h225v-215q37 -4 77.5 -10.5t62.5 -11.5l22 -4l-8 -205q-162 6 -240 6q-129 0 -181 -50t-52 -167q0 -118 52.5 -168.5t182.5 -50.5l238 8l8 -205q-80 -20 -162 -26v-224h-225z" />
    <glyph glyph-name="sterling" unicode="&#xa3;" 
d="M958 1325l-8 -213q-139 16 -268 16q-56 0 -81.5 -32t-25.5 -101v-108h314v-234h-314v-420h254l142 33l43 -229l-166 -37h-694v233h151v420h-131v234h131v121q0 110 21.5 183t67.5 112.5t105 55t146 15.5q68 0 146.5 -12t122.5 -24z" />
    <glyph glyph-name="currency" unicode="&#xa4;" 
d="M897 4l-149 150q-80 -41 -175 -41q-94 0 -174 41l-149 -150l-189 189l148 147q-39 83 -39 176q0 91 39 174l-148 150l189 188l147 -149q80 41 176 41q95 0 175 -41l149 149l188 -188l-149 -150q41 -80 41 -174q0 -96 -41 -176l149 -147zM573 340q72 0 124.5 52t52.5 124
t-52.5 124t-124.5 52t-124 -52t-52 -124t52 -124t124 -52z" />
    <glyph glyph-name="yen" unicode="&#xa5;" 
d="M119 596v229h188l-297 527h314l251 -432l250 432h314l-293 -527h182v-229h-309v-92h309v-230h-309v-274h-283v274h-317v230h317v92h-317z" />
    <glyph glyph-name="brokenbar" unicode="&#xa6;" horiz-adv-x="557" 
d="M141 1434h275v-762h-275v762zM141 348h275v-778h-275v778z" />
    <glyph glyph-name="section" unicode="&#xa7;" horiz-adv-x="1058" 
d="M922 1257l-13 -221q-231 33 -329 33q-118 0 -157.5 -28.5t-39.5 -104.5q0 -44 55.5 -68t223.5 -65q95 -23 149.5 -44t93.5 -56t53.5 -84t14.5 -125q0 -66 -29 -143t-74 -142q41 -38 59.5 -83.5t18.5 -139.5q0 -199 -105.5 -287t-338.5 -88q-64 0 -159 11.5t-159 23.5
l-63 12l27 221q220 -31 333 -31q106 0 154.5 27.5t48.5 89.5q0 56 -52 80.5t-239 71.5q-91 23 -146.5 46t-97 59.5t-58.5 87.5t-17 126q0 71 40.5 153t90.5 122q-47 34 -68.5 84t-21.5 137q0 375 444 375q64 0 154.5 -12.5t148.5 -24.5zM528 584q-16 4 -67.5 15.5
t-73.5 18.5q-13 -20 -24 -60t-11 -71q0 -60 23.5 -82t99.5 -43q71 -19 182 -57q15 20 26 66t11 84q0 51 -33 77t-133 52z" />
    <glyph glyph-name="dieresis" unicode="&#xa8;" horiz-adv-x="548" 
d="M-61 1221v270h262v-270h-262zM381 1221v270h262v-270h-262z" />
    <glyph glyph-name="copyright" unicode="&#xa9;" horiz-adv-x="1316" 
d="M94 889q0 252 159.5 416.5t405.5 164.5q167 0 297.5 -80t198.5 -211.5t68 -289.5q0 -252 -156 -417t-412 -165q-158 0 -287 76.5t-201.5 210t-72.5 295.5zM221 889q0 -190 124.5 -324.5t309.5 -134.5q125 0 227 62t158 167t56 230q0 124 -57 229t-158.5 167.5
t-223.5 62.5q-185 0 -310.5 -134.5t-125.5 -324.5zM834 756l14 -168q-6 -4 -19 -10t-57.5 -16.5t-95.5 -10.5q-95 0 -149.5 28.5t-83.5 105t-29 214.5q0 183 62.5 254.5t207.5 71.5q44 0 85 -7.5t60 -15.5l19 -8l-14 -176q-72 12 -138 12q-40 0 -55.5 -28t-15.5 -103
q0 -82 16.5 -118t54.5 -36q29 0 63.5 2.5t54.5 5.5z" />
    <glyph glyph-name="ordfeminine" unicode="&#xaa;" horiz-adv-x="851" 
d="M719 1114v-289q16 -12 37 -16l-4 -168q-97 0 -151.5 9t-73 21.5t-35.5 37.5q-10 -7 -27 -18t-65 -29.5t-91 -18.5q-108 0 -165.5 60t-57.5 165q0 100 64 150.5t196 56.5l137 6v45q0 31 -90 31q-40 0 -107 -3.5t-114 -7.5l-47 -3l-6 153q16 6 44 15t104.5 24t140.5 15
q158 0 234.5 -50t76.5 -186zM483 938l-96 -6q-33 -3 -49 -15.5t-16 -39.5q0 -29 15 -41.5t48 -12.5q18 0 42.5 8.5t40.5 16.5l15 8v82z" />
    <glyph glyph-name="guillemotleft" unicode="&#xab;" horiz-adv-x="1230" 
d="M539 653l-224 -153l224 -176v-277l-457 350v197l457 336v-277zM1118 653l-223 -153l223 -176v-277l-456 350v197l456 336v-277z" />
    <glyph glyph-name="logicalnot" unicode="&#xac;" 
d="M117 733h893v-520h-246v274h-647v246z" />
    <glyph glyph-name="registered" unicode="&#xae;" horiz-adv-x="1316" 
d="M94 889q0 252 159.5 416.5t403.5 164.5q168 0 299 -80t199 -211.5t68 -289.5q0 -165 -68.5 -297t-198.5 -208.5t-299 -76.5q-159 0 -288.5 76.5t-202 210t-72.5 295.5zM221 889q0 -123 57.5 -228.5t158 -168t220.5 -62.5q188 0 313.5 134t125.5 325q0 124 -57 229
t-158.5 167.5t-223.5 62.5q-184 0 -310 -135t-126 -324zM725 565l-57 191h-60v-191h-196v645h278q107 0 170.5 -52t63.5 -163q0 -79 -17 -123t-61 -81l84 -226h-205zM606 1063v-162h58q33 0 51 22t18 58q0 82 -71 82h-56z" />
    <glyph glyph-name="macron" unicode="&#xaf;" horiz-adv-x="548" 
d="M-10 1223v204h588v-204h-588z" />
    <glyph glyph-name="degree" unicode="&#xb0;" 
d="M266 1110q0 136 85 221.5t222 85.5t222.5 -85.5t85.5 -221.5t-85.5 -220.5t-222.5 -84.5t-222 84.5t-85 220.5zM420 1110q0 -69 42 -112.5t111 -43.5t113.5 43.5t44.5 112.5t-44.5 113.5t-113.5 44.5q-68 0 -110.5 -44t-42.5 -114z" />
    <glyph glyph-name="plusminus" unicode="&#xb1;" 
d="M102 553v246h347v221h245v-221h350v-246h-350v-205h-245v205h-347zM102 285h942v-246h-942v246z" />
    <glyph glyph-name="twosuperior" unicode="&#xb2;" horiz-adv-x="573" 
d="M516 979h-473v184l150 121q52 41 73 67.5t21 49.5q0 18 -18 24.5t-58 6.5q-20 0 -59 -3t-68 -7l-29 -3l-8 203q150 18 242 18q126 0 176.5 -47t50.5 -157q0 -68 -26.5 -114t-88.5 -91l-77 -57h192v-195z" />
    <glyph glyph-name="threesuperior" unicode="&#xb3;" horiz-adv-x="573" 
d="M49 1622q139 18 221 18q248 0 248 -182q0 -108 -59 -143q71 -30 71 -150q0 -104 -63 -156.5t-178 -52.5q-44 0 -106 4t-102 8l-40 5l12 190q125 -12 193 -12q33 0 46 7t13 26q0 18 -11.5 23t-41.5 5h-135v174h131q41 0 41 29q0 31 -56 31q-34 0 -77 -2.5t-69 -5.5l-26 -2
z" />
    <glyph glyph-name="acute" unicode="&#xb4;" horiz-adv-x="548" 
d="M10 1333l516 209l82 -235l-536 -152z" />
    <glyph glyph-name="mu" unicode="&#xb5;" 
d="M743 1024h275v-1024h-273v57q-16 -9 -43.5 -22.5t-96 -36.5t-116.5 -23q-39 0 -86 7v-412h-274v1454h274v-592q1 -59 6 -95t20.5 -64t43.5 -40t74 -12q45 0 94 9.5t75 18.5l27 9v766z" />
    <glyph glyph-name="paragraph" unicode="&#xb6;" horiz-adv-x="1226" 
d="M813 0v1159h-127v-1159h-233v586h-15q-172 0 -276.5 111.5t-104.5 289.5t106.5 292t278.5 114h678v-234h-73v-1159h-234z" />
    <glyph glyph-name="periodcentered" unicode="&#xb7;" horiz-adv-x="524" 
d="M115 342v340h295v-340h-295z" />
    <glyph glyph-name="cedilla" unicode="&#xb8;" horiz-adv-x="540" 
d="M479 -260q0 -117 -60 -175.5t-167 -58.5q-39 0 -87 6t-76 12l-28 5l9 160q63 -2 98 -2q78 0 78 53q0 26 -18 35.5t-60 9.5h-49v217h108v-78q65 -1 107.5 -8t77.5 -26.5t51 -56t16 -93.5z" />
    <glyph glyph-name="onesuperior" unicode="&#xb9;" horiz-adv-x="573" 
d="M20 1464l218 154h196v-639h-217v399l-96 -65z" />
    <glyph glyph-name="ordmasculine" unicode="&#xba;" horiz-adv-x="860" 
d="M432 1350q173 0 259.5 -85t86.5 -264q0 -358 -346 -358q-350 0 -350 358q0 179 88 264t262 85zM432 858q58 0 78 32.5t20 108.5q0 75 -19.5 106.5t-78.5 31.5t-81.5 -32t-22.5 -106t22.5 -107.5t81.5 -33.5z" />
    <glyph glyph-name="guillemotright" unicode="&#xbb;" horiz-adv-x="1234" 
d="M915 500l-223 153v277l457 -336v-197l-457 -350v277zM336 500l-223 153v277l456 -336v-197l-456 -350v277z" />
    <glyph glyph-name="onequarter" unicode="&#xbc;" horiz-adv-x="1122" 
d="M37 1464l217 154h197v-639h-218v399l-96 -65zM59 59l805 1295l109 -72l-805 -1296zM838 -205v72h-271v180l80 387h242l-107 -373h56l28 185h187v-185h22v-194h-22v-72h-215z" />
    <glyph glyph-name="onehalf" unicode="&#xbd;" horiz-adv-x="1110" 
d="M37 1464l217 154h197v-639h-218v399l-96 -65zM59 59l805 1295l109 -72l-805 -1296zM1049 -205h-474v185l150 120q52 41 73 67.5t21 49.5q0 18 -18 24.5t-58 6.5q-20 0 -58.5 -3t-67.5 -6l-29 -3l-8 202q149 19 241 19q126 0 177 -47.5t51 -157.5q0 -68 -26.5 -114
t-88.5 -91l-78 -57h193v-195z" />
    <glyph glyph-name="threequarters" unicode="&#xbe;" horiz-adv-x="1148" 
d="M82 1622q139 18 221 18q248 0 248 -182q0 -108 -59 -143q71 -30 71 -150q0 -104 -63 -156.5t-178 -52.5q-44 0 -106 4t-102 8l-40 5l12 190q125 -12 193 -12q33 0 46 7t13 26q0 18 -11.5 23t-41.5 5h-135v174h131q41 0 41 29q0 31 -56 31q-34 0 -77 -2.5t-69 -5.5l-26 -2
zM88 59l805 1295l108 -72l-804 -1296zM866 -205v72h-270v180l80 387h242l-107 -373h55l29 185h186v-185h23v-194h-23v-72h-215z" />
    <glyph glyph-name="questiondown" unicode="&#xbf;" horiz-adv-x="886" 
d="M59 -57q0 143 32 215.5t136 150.5q70 53 104.5 91t42 60.5t7.5 55.5v64h219q3 -3 7 -8.5t15 -23.5t19.5 -38.5t15.5 -52t7 -64.5q0 -40 -33 -83t-115 -109q-112 -89 -142 -129.5t-30 -98.5t39 -89t135 -31q61 0 134.5 8t117.5 16l43 8l14 -207q-20 -8 -54 -20t-126 -31.5
t-168 -19.5q-221 0 -320.5 79.5t-99.5 256.5zM645 1024v-330h-295v330h295z" />
    <glyph glyph-name="Agrave" unicode="&#xc0;" horiz-adv-x="1232" 
d="M35 0l313 1393h537l313 -1393h-283l-55 252h-487l-56 -252h-282zM567 1159l-141 -661h381l-141 661h-99zM375 1935l516 -217l-68 -190l-532 162z" />
    <glyph glyph-name="Aacute" unicode="&#xc1;" horiz-adv-x="1232" 
d="M35 0l313 1393h537l313 -1393h-283l-55 252h-487l-56 -252h-282zM567 1159l-141 -661h381l-141 661h-99zM332 1718l516 217l84 -245l-533 -162z" />
    <glyph glyph-name="Acircumflex" unicode="&#xc2;" horiz-adv-x="1232" 
d="M35 0l313 1393h537l313 -1393h-283l-55 252h-487l-56 -252h-282zM567 1159l-141 -661h381l-141 661h-99zM219 1567l275 305h239l275 -305h-291l-101 114l-106 -114h-291z" />
    <glyph glyph-name="Atilde" unicode="&#xc3;" horiz-adv-x="1232" 
d="M35 0l313 1393h537l313 -1393h-283l-55 252h-487l-56 -252h-282zM567 1159l-141 -661h381l-141 661h-99zM936 1880l59 -199q-4 -5 -12 -14t-33 -31t-49.5 -39t-59 -31t-65.5 -14q-58 0 -187.5 47.5t-158.5 47.5q-25 0 -66 -21.5t-70 -43.5l-28 -21l-59 196q4 5 12.5 14
t33 31.5t49.5 40t59 31.5t65 14q54 0 127 -23.5t133 -47t82 -23.5q24 0 66 21.5t72 42.5z" />
    <glyph glyph-name="Adieresis" unicode="&#xc4;" horiz-adv-x="1232" 
d="M35 0l313 1393h537l313 -1393h-283l-55 252h-487l-56 -252h-282zM567 1159l-141 -661h381l-141 661h-99zM264 1565v270h262v-270h-262zM702 1565v270h263v-270h-263z" />
    <glyph glyph-name="Aring" unicode="&#xc5;" horiz-adv-x="1232" 
d="M924 1477q0 -61 -31 -121l305 -1356h-283l-55 252h-487l-56 -252h-282l305 1356q-31 54 -31 121q0 120 88 189t219 69q130 0 219 -69t89 -189zM567 1159l-141 -661h381l-141 661h-99zM496 1477q0 -37 28.5 -60t79.5 -24h12q55 0 88 23t33 61t-33 61t-88 23t-87.5 -23
t-32.5 -61z" />
    <glyph glyph-name="AE" unicode="&#xc6;" horiz-adv-x="1783" 
d="M803 0v238h-436l-60 -238h-282l376 1413h1299v-270h-619v-293h496v-268h-496v-312h619v-270h-897zM600 1143l-164 -633h367l2 633h-205z" />
    <glyph glyph-name="Ccedilla" unicode="&#xc7;" horiz-adv-x="1112" 
d="M897 -260q0 -117 -60 -175.5t-167 -58.5q-39 0 -87 6t-76 12l-28 5l8 160q64 -2 99 -2q78 0 78 53q0 26 -18 35.5t-60 9.5h-49v195q-105 10 -181 44.5t-126 91t-80 144t-42 191.5t-12 245q0 204 25 336.5t86.5 221t163 126t258.5 37.5q171 0 407 -55l-8 -225
q-201 30 -358 30q-85 0 -135.5 -17.5t-86 -70t-48.5 -143t-13 -240.5q0 -84 3.5 -144.5t11.5 -112.5t23.5 -86t36.5 -60.5t52.5 -40.5t71 -20.5t92.5 -6.5q152 0 350 29l6 -231q-76 -17 -189 -32t-200 -16v-51q65 -1 107.5 -8t77.5 -26.5t51 -56t16 -93.5z" />
    <glyph glyph-name="Egrave" unicode="&#xc8;" horiz-adv-x="1134" 
d="M152 0v1393h901v-246h-619v-326h496v-241h-496v-334h619v-246h-901zM369 1935l516 -217l-68 -190l-532 162z" />
    <glyph glyph-name="Eacute" unicode="&#xc9;" horiz-adv-x="1134" 
d="M152 0v1393h901v-246h-619v-326h496v-241h-496v-334h619v-246h-901zM315 1718l516 217l84 -245l-532 -162z" />
    <glyph glyph-name="Ecircumflex" unicode="&#xca;" horiz-adv-x="1134" 
d="M152 0v1393h901v-246h-619v-326h496v-241h-496v-334h619v-246h-901zM215 1567l274 305h240l275 -305h-291l-101 114l-106 -114h-291z" />
    <glyph glyph-name="Edieresis" unicode="&#xcb;" horiz-adv-x="1134" 
d="M152 0v1393h901v-246h-619v-326h496v-241h-496v-334h619v-246h-901zM252 1565v270h262v-270h-262zM690 1565v270h262v-270h-262z" />
    <glyph glyph-name="Igrave" unicode="&#xcc;" horiz-adv-x="585" 
d="M152 0v1393h282v-1393h-282zM35 1935l516 -217l-68 -190l-532 162z" />
    <glyph glyph-name="Iacute" unicode="&#xcd;" horiz-adv-x="585" 
d="M152 0v1393h282v-1393h-282zM14 1718l516 217l84 -245l-532 -162z" />
    <glyph glyph-name="Icircumflex" unicode="&#xce;" horiz-adv-x="585" 
d="M152 0v1393h282v-1393h-282zM-102 1567l274 305h240l274 -305h-291l-100 114l-107 -114h-290z" />
    <glyph glyph-name="Idieresis" unicode="&#xcf;" horiz-adv-x="585" 
d="M152 0v1393h282v-1393h-282zM-57 1565v270h262v-270h-262zM381 1565v270h262v-270h-262z" />
    <glyph glyph-name="Eth" unicode="&#xd0;" horiz-adv-x="1314" 
d="M51 567v271h111v575h465q121 0 212 -17.5t157 -55.5t109 -91t68.5 -132.5t35.5 -170.5t10 -213q0 -109 -6.5 -192t-23.5 -162t-45.5 -136t-73.5 -105t-107 -77t-146 -45t-190 -16h-465v567h-111zM928 733q0 68 -2.5 114t-9.5 93t-20.5 76.5t-35 56.5t-54 41t-76.5 22.5
t-103 8.5h-187v-307h267v-271h-267v-299h187q58 0 103 11t76.5 29.5t54 51.5t35.5 67.5t20 86.5t9.5 101t2.5 118z" />
    <glyph glyph-name="Ntilde" unicode="&#xd1;" horiz-adv-x="1419" 
d="M152 0v1393h477l336 -1147h20v1147h283v-1393h-465l-348 1147h-21v-1147h-282zM1034 1880l60 -199q-4 -5 -12 -14t-33 -31t-50 -39t-59.5 -31t-65.5 -14q-58 0 -187.5 47.5t-158.5 47.5q-25 0 -66 -21.5t-69 -43.5l-28 -21l-60 196q4 5 12.5 14t33 31.5t49.5 40t59 31.5
t65 14q54 0 127 -23.5t133 -47t82 -23.5q24 0 66 21.5t72 42.5z" />
    <glyph glyph-name="Ograve" unicode="&#xd2;" horiz-adv-x="1335" 
d="M668 221q85 0 141 26.5t88 87t44.5 144t12.5 209.5q0 101 -8 174.5t-27 134t-51.5 97.5t-82 57t-117.5 20q-165 0 -226 -114t-61 -369q0 -252 60.5 -359.5t226.5 -107.5zM668 -25q-131 0 -228.5 29.5t-164 85.5t-108 144t-59.5 198.5t-18 255.5q0 183 29 314t95.5 226.5
t179 142t274.5 46.5t274.5 -46.5t178.5 -142t95 -226.5t29 -314q0 -145 -18 -255.5t-59 -198.5t-107.5 -144t-164 -85.5t-228.5 -29.5zM418 1935l516 -217l-68 -190l-532 162z" />
    <glyph glyph-name="Oacute" unicode="&#xd3;" horiz-adv-x="1335" 
d="M668 221q85 0 141 26.5t88 87t44.5 144t12.5 209.5q0 101 -8 174.5t-27 134t-51.5 97.5t-82 57t-117.5 20q-165 0 -226 -114t-61 -369q0 -252 60.5 -359.5t226.5 -107.5zM668 -25q-131 0 -228.5 29.5t-164 85.5t-108 144t-59.5 198.5t-18 255.5q0 183 29 314t95.5 226.5
t179 142t274.5 46.5t274.5 -46.5t178.5 -142t95 -226.5t29 -314q0 -145 -18 -255.5t-59 -198.5t-107.5 -144t-164 -85.5t-228.5 -29.5zM342 1718l516 217l84 -245l-532 -162z" />
    <glyph glyph-name="Ocircumflex" unicode="&#xd4;" horiz-adv-x="1335" 
d="M668 221q85 0 141 26.5t88 87t44.5 144t12.5 209.5q0 101 -8 174.5t-27 134t-51.5 97.5t-82 57t-117.5 20q-165 0 -226 -114t-61 -369q0 -252 60.5 -359.5t226.5 -107.5zM668 -25q-131 0 -228.5 29.5t-164 85.5t-108 144t-59.5 198.5t-18 255.5q0 183 29 314t95.5 226.5
t179 142t274.5 46.5t274.5 -46.5t178.5 -142t95 -226.5t29 -314q0 -145 -18 -255.5t-59 -198.5t-107.5 -144t-164 -85.5t-228.5 -29.5zM276 1567l275 305h240l274 -305h-291l-100 114l-107 -114h-291z" />
    <glyph glyph-name="Otilde" unicode="&#xd5;" horiz-adv-x="1335" 
d="M668 221q85 0 141 26.5t88 87t44.5 144t12.5 209.5q0 101 -8 174.5t-27 134t-51.5 97.5t-82 57t-117.5 20q-165 0 -226 -114t-61 -369q0 -252 60.5 -359.5t226.5 -107.5zM668 -25q-131 0 -228.5 29.5t-164 85.5t-108 144t-59.5 198.5t-18 255.5q0 183 29 314t95.5 226.5
t179 142t274.5 46.5t274.5 -46.5t178.5 -142t95 -226.5t29 -314q0 -145 -18 -255.5t-59 -198.5t-107.5 -144t-164 -85.5t-228.5 -29.5zM1001 1880l60 -199q-4 -5 -12 -14t-33 -31t-49.5 -39t-59 -31t-65.5 -14q-58 0 -187.5 47.5t-158.5 47.5q-25 0 -66 -21.5t-70 -43.5
l-28 -21l-60 196q5 5 13 14t33 31.5t50 40t59 31.5t65 14q54 0 127 -23.5t133 -47t82 -23.5q24 0 65.5 21.5t71.5 42.5z" />
    <glyph glyph-name="Odieresis" unicode="&#xd6;" horiz-adv-x="1335" 
d="M668 221q85 0 141 26.5t88 87t44.5 144t12.5 209.5q0 101 -8 174.5t-27 134t-51.5 97.5t-82 57t-117.5 20q-165 0 -226 -114t-61 -369q0 -252 60.5 -359.5t226.5 -107.5zM668 -25q-131 0 -228.5 29.5t-164 85.5t-108 144t-59.5 198.5t-18 255.5q0 183 29 314t95.5 226.5
t179 142t274.5 46.5t274.5 -46.5t178.5 -142t95 -226.5t29 -314q0 -145 -18 -255.5t-59 -198.5t-107.5 -144t-164 -85.5t-228.5 -29.5zM317 1565v270h263v-270h-263zM756 1565v270h262v-270h-262z" />
    <glyph glyph-name="multiply" unicode="&#xd7;" 
d="M291 969l282 -289l287 293l172 -174l-293 -287l293 -285l-174 -174l-285 291l-284 -289l-174 172l291 285l-289 283z" />
    <glyph glyph-name="Oslash" unicode="&#xd8;" horiz-adv-x="1335" 
d="M668 -25q-97 0 -197 21l-119 -256l-200 100l118 254q-96 85 -138 231t-42 363q0 183 29 314t95.5 226.5t179 142t274.5 46.5q118 0 206 -24l125 266l205 -88l-133 -287q174 -168 174 -596q0 -145 -18 -255.5t-59 -198.5t-107.5 -144t-164 -85.5t-228.5 -29.5zM381 688
q0 -191 31 -291l354 760q-51 14 -98 14q-165 0 -226 -114t-61 -369zM668 221q85 0 141 26.5t88 87t44.5 144t12.5 209.5q0 181 -28 285l-346 -744q36 -8 88 -8z" />
    <glyph glyph-name="Ugrave" unicode="&#xd9;" horiz-adv-x="1339" 
d="M422 465q0 -124 61.5 -184t186.5 -60q248 0 248 244v928h282v-922q0 -257 -132 -376.5t-398 -119.5t-398.5 119.5t-132.5 376.5v922h283v-928zM442 1935l516 -217l-67 -190l-533 162z" />
    <glyph glyph-name="Uacute" unicode="&#xda;" horiz-adv-x="1339" 
d="M422 465q0 -124 61.5 -184t186.5 -60q248 0 248 244v928h282v-922q0 -257 -132 -376.5t-398 -119.5t-398.5 119.5t-132.5 376.5v922h283v-928zM358 1718l516 217l84 -245l-532 -162z" />
    <glyph glyph-name="Ucircumflex" unicode="&#xdb;" horiz-adv-x="1339" 
d="M422 465q0 -124 61.5 -184t186.5 -60q248 0 248 244v928h282v-922q0 -257 -132 -376.5t-398 -119.5t-398.5 119.5t-132.5 376.5v922h283v-928zM276 1567l275 305h240l274 -305h-291l-100 114l-107 -114h-291z" />
    <glyph glyph-name="Udieresis" unicode="&#xdc;" horiz-adv-x="1339" 
d="M422 465q0 -124 61.5 -184t186.5 -60q248 0 248 244v928h282v-922q0 -257 -132 -376.5t-398 -119.5t-398.5 119.5t-132.5 376.5v922h283v-928zM319 1565v270h263v-270h-263zM758 1565v270h262v-270h-262z" />
    <glyph glyph-name="Yacute" unicode="&#xdd;" horiz-adv-x="1140" 
d="M713 563v-563h-283v563l-430 830h313l256 -555l256 555h314zM272 1718l516 217l84 -245l-532 -162z" />
    <glyph glyph-name="Thorn" unicode="&#xde;" horiz-adv-x="1220" 
d="M662 477q105 0 160 64.5t55 181.5q0 112 -54 165.5t-161 53.5h-228v-465h228zM664 203h-230v-203h-282v1413h282v-201h230q499 0 499 -489q0 -249 -127.5 -384.5t-371.5 -135.5z" />
    <glyph glyph-name="germandbls" unicode="&#xdf;" horiz-adv-x="1251" 
d="M401 0h-274v1069q0 210 110 299.5t363 89.5q237 0 354 -75.5t117 -245.5q0 -58 -11.5 -99t-38.5 -70.5t-58 -48.5t-84 -42q-75 -33 -98 -51.5t-23 -45.5q0 -21 12 -36t52 -38t128 -63q74 -34 117 -60.5t76.5 -62t47 -79t13.5 -105.5q0 -207 -92.5 -284t-320.5 -77
q-60 0 -139 12t-128 24l-49 12l8 219q199 -25 275 -25q92 0 128 20.5t36 57.5q0 46 -31 70.5t-156 78.5q-144 61 -202 130.5t-58 179.5q0 99 37 156t121 91q96 39 125.5 61.5t29.5 53.5q0 55 -41 78t-147 23q-113 0 -156 -35.5t-43 -118.5v-1063z" />
    <glyph glyph-name="agrave" unicode="&#xe0;" horiz-adv-x="1046" 
d="M911 705v-426q3 -49 16 -69.5t52 -27.5l-8 -207q-105 0 -167.5 15t-125.5 57q-16 -8 -45 -20t-108.5 -32t-147.5 -20q-159 0 -238.5 85.5t-79.5 250.5q0 85 23.5 144t72.5 94t111.5 52.5t151.5 23.5l219 16v64q0 63 -28 86.5t-93 23.5q-60 0 -156 -4t-162 -8l-67 -4
l-8 190q25 7 66.5 17t151.5 26.5t198 16.5q198 0 285 -81.5t87 -262.5zM637 451l-186 -17q-115 -10 -115 -115q0 -120 100 -120q39 0 89.5 8t80.5 16l31 8v220zM293 1542l516 -209l-61 -178l-537 152z" />
    <glyph glyph-name="aacute" unicode="&#xe1;" horiz-adv-x="1046" 
d="M911 705v-426q3 -49 16 -69.5t52 -27.5l-8 -207q-105 0 -167.5 15t-125.5 57q-16 -8 -45 -20t-108.5 -32t-147.5 -20q-159 0 -238.5 85.5t-79.5 250.5q0 85 23.5 144t72.5 94t111.5 52.5t151.5 23.5l219 16v64q0 63 -28 86.5t-93 23.5q-60 0 -156 -4t-162 -8l-67 -4
l-8 190q25 7 66.5 17t151.5 26.5t198 16.5q198 0 285 -81.5t87 -262.5zM637 451l-186 -17q-115 -10 -115 -115q0 -120 100 -120q39 0 89.5 8t80.5 16l31 8v220zM197 1333l516 209l82 -235l-537 -152z" />
    <glyph glyph-name="acircumflex" unicode="&#xe2;" horiz-adv-x="1046" 
d="M911 705v-426q3 -49 16 -69.5t52 -27.5l-8 -207q-105 0 -167.5 15t-125.5 57q-16 -8 -45 -20t-108.5 -32t-147.5 -20q-159 0 -238.5 85.5t-79.5 250.5q0 85 23.5 144t72.5 94t111.5 52.5t151.5 23.5l219 16v64q0 63 -28 86.5t-93 23.5q-60 0 -156 -4t-162 -8l-67 -4
l-8 190q25 7 66.5 17t151.5 26.5t198 16.5q198 0 285 -81.5t87 -262.5zM637 451l-186 -17q-115 -10 -115 -115q0 -120 100 -120q39 0 89.5 8t80.5 16l31 8v220zM170 1188l258 309h172l262 -309h-252l-94 137l-94 -137h-252z" />
    <glyph glyph-name="atilde" unicode="&#xe3;" horiz-adv-x="1046" 
d="M911 705v-426q3 -49 16 -69.5t52 -27.5l-8 -207q-105 0 -167.5 15t-125.5 57q-16 -8 -45 -20t-108.5 -32t-147.5 -20q-159 0 -238.5 85.5t-79.5 250.5q0 85 23.5 144t72.5 94t111.5 52.5t151.5 23.5l219 16v64q0 63 -28 86.5t-93 23.5q-60 0 -156 -4t-162 -8l-67 -4
l-8 190q25 7 66.5 17t151.5 26.5t198 16.5q198 0 285 -81.5t87 -262.5zM637 451l-186 -17q-115 -10 -115 -115q0 -120 100 -120q39 0 89.5 8t80.5 16l31 8v220zM748 1481l59 -156q-4 -5 -12 -13.5t-32.5 -30.5t-49 -39t-58 -30.5t-63.5 -13.5q-45 0 -138.5 37t-125.5 37
q-25 0 -64.5 -16t-66.5 -32l-27 -16l-59 154q4 5 12 13.5t32 29.5t48.5 37t57.5 29.5t63 13.5q45 0 140 -37t120 -37q24 0 65 17.5t70 35.5z" />
    <glyph glyph-name="adieresis" unicode="&#xe4;" horiz-adv-x="1046" 
d="M911 705v-426q3 -49 16 -69.5t52 -27.5l-8 -207q-105 0 -167.5 15t-125.5 57q-16 -8 -45 -20t-108.5 -32t-147.5 -20q-159 0 -238.5 85.5t-79.5 250.5q0 85 23.5 144t72.5 94t111.5 52.5t151.5 23.5l219 16v64q0 63 -28 86.5t-93 23.5q-60 0 -156 -4t-162 -8l-67 -4
l-8 190q25 7 66.5 17t151.5 26.5t198 16.5q198 0 285 -81.5t87 -262.5zM637 451l-186 -17q-115 -10 -115 -115q0 -120 100 -120q39 0 89.5 8t80.5 16l31 8v220zM133 1221v270h262v-270h-262zM575 1221v270h263v-270h-263z" />
    <glyph glyph-name="aring" unicode="&#xe5;" horiz-adv-x="1046" 
d="M911 705v-426q3 -49 16 -69.5t52 -27.5l-8 -207q-105 0 -167.5 15t-125.5 57q-16 -8 -45 -20t-108.5 -32t-147.5 -20q-159 0 -238.5 85.5t-79.5 250.5q0 85 23.5 144t72.5 94t111.5 52.5t151.5 23.5l219 16v64q0 63 -28 86.5t-93 23.5q-60 0 -156 -4t-162 -8l-67 -4
l-8 190q25 7 66.5 17t151.5 26.5t198 16.5q198 0 285 -81.5t87 -262.5zM637 451l-186 -17q-115 -10 -115 -115q0 -120 100 -120q39 0 89.5 8t80.5 16l31 8v220zM303 1307q0 100 69 169.5t171 69.5q100 0 169.5 -69.5t69.5 -169.5q0 -102 -69.5 -171t-169.5 -69
q-103 0 -171.5 68.5t-68.5 171.5zM451 1307q0 -41 26.5 -68t67.5 -27q40 0 66 27t26 68q0 40 -26 66t-66 26q-41 0 -67.5 -26t-26.5 -66z" />
    <glyph glyph-name="ae" unicode="&#xe6;" horiz-adv-x="1605" 
d="M1118 227q75 0 169.5 4.5t152.5 9.5l57 5l4 -213q-236 -58 -426 -58q-208 0 -313 99l-47 -23q-172 -76 -350 -76q-149 0 -227.5 89.5t-78.5 246.5q0 164 90 235t267 81l221 14v51q0 41 -28.5 66.5t-73.5 25.5q-68 0 -167.5 -5.5t-165.5 -10.5l-65 -6l-8 239
q272 46 422 46q177 0 264 -76q109 76 272 76q225 0 336 -114.5t111 -346.5l-21 -193h-602q2 -88 49.5 -127t157.5 -39zM420 211q37 0 91.5 7.5t90.5 15.5l35 8q0 32 -1 95t-1 95l-184 -8q-57 -3 -86 -27.5t-29 -77.5q0 -108 84 -108zM911 604h353q0 109 -40 154t-137 45
t-136.5 -47.5t-39.5 -151.5z" />
    <glyph glyph-name="ccedilla" unicode="&#xe7;" horiz-adv-x="913" 
d="M774 -260q0 -117 -60 -175.5t-167 -58.5q-39 0 -87 6t-76 12l-28 5l9 160q63 -2 98 -2q78 0 78 53q0 26 -18 35.5t-60 9.5h-49v197q-179 23 -257.5 151.5t-78.5 388.5q0 273 102.5 400t329.5 127q53 0 135 -11.5t137 -22.5l56 -11l-9 -218q-161 17 -239 17
q-74 0 -119.5 -14.5t-71 -50t-34.5 -85t-9 -131.5q0 -91 9 -144.5t35.5 -91t71.5 -51.5t120 -14q35 0 94 4.5t101 8.5l42 4l9 -220q-199 -39 -316 -43v-51q65 -1 107.5 -8t77.5 -26.5t51 -56t16 -93.5z" />
    <glyph glyph-name="egrave" unicode="&#xe8;" horiz-adv-x="1044" 
d="M559 217q75 0 169.5 4.5t151.5 9.5l58 5l4 -203q-236 -58 -426 -58q-232 0 -336 123.5t-104 399.5q0 274 114 412.5t338 138.5q447 0 447 -463l-21 -191h-602q2 -93 50 -135.5t157 -42.5zM350 604h355q0 123 -39.5 171t-137.5 48q-97 0 -136.5 -50t-41.5 -169zM307 1542
l516 -209l-61 -178l-537 152z" />
    <glyph glyph-name="eacute" unicode="&#xe9;" horiz-adv-x="1044" 
d="M559 217q75 0 169.5 4.5t151.5 9.5l58 5l4 -203q-236 -58 -426 -58q-232 0 -336 123.5t-104 399.5q0 274 114 412.5t338 138.5q447 0 447 -463l-21 -191h-602q2 -93 50 -135.5t157 -42.5zM350 604h355q0 123 -39.5 171t-137.5 48q-97 0 -136.5 -50t-41.5 -169zM215 1333
l516 209l82 -235l-537 -152z" />
    <glyph glyph-name="ecircumflex" unicode="&#xea;" horiz-adv-x="1044" 
d="M559 217q75 0 169.5 4.5t151.5 9.5l58 5l4 -203q-236 -58 -426 -58q-232 0 -336 123.5t-104 399.5q0 274 114 412.5t338 138.5q447 0 447 -463l-21 -191h-602q2 -93 50 -135.5t157 -42.5zM350 604h355q0 123 -39.5 171t-137.5 48q-97 0 -136.5 -50t-41.5 -169zM182 1188
l258 309h172l262 -309h-251l-95 137l-94 -137h-252z" />
    <glyph glyph-name="edieresis" unicode="&#xeb;" horiz-adv-x="1044" 
d="M559 217q75 0 169.5 4.5t151.5 9.5l58 5l4 -203q-236 -58 -426 -58q-232 0 -336 123.5t-104 399.5q0 274 114 412.5t338 138.5q447 0 447 -463l-21 -191h-602q2 -93 50 -135.5t157 -42.5zM350 604h355q0 123 -39.5 171t-137.5 48q-97 0 -136.5 -50t-41.5 -169zM172 1221
v270h262v-270h-262zM614 1221v270h263v-270h-263z" />
    <glyph glyph-name="igrave" unicode="&#xec;" horiz-adv-x="528" 
d="M127 0v1024h274v-1024h-274zM-39 1542l516 -209l-61 -178l-537 152z" />
    <glyph glyph-name="iacute" unicode="&#xed;" horiz-adv-x="528" 
d="M63 1333l517 209l82 -235l-537 -152zM127 1024v-1024h274v1024h-274z" />
    <glyph glyph-name="icircumflex" unicode="&#xee;" horiz-adv-x="528" 
d="M127 1024v-1024h274v1024h-274zM-92 1188l258 309h172l262 -309h-252l-94 137l-94 -137h-252z" />
    <glyph glyph-name="idieresis" unicode="&#xef;" horiz-adv-x="528" 
d="M127 1024v-1024h274v1024h-274zM-98 1221v270h262v-270h-262zM344 1221v270h262v-270h-262z" />
    <glyph glyph-name="eth" unicode="&#xf0;" horiz-adv-x="1161" 
d="M344 956l-111 156l156 105q-109 28 -221 49l37 192q245 -18 428 -80l196 131l111 -155l-111 -74q252 -180 252 -569q0 -376 -123 -552.5t-399 -176.5q-481 0 -481 460q0 213 112 334t334 121q63 0 129.5 -12.5t102.5 -24.5l35 -12q-10 96 -51 164.5t-132 120.5zM541 655
q-85 0 -128.5 -62.5t-43.5 -150.5q0 -215 190 -215q115 0 173.5 90t58.5 293q-12 5 -33 12.5t-86.5 20t-130.5 12.5z" />
    <glyph glyph-name="ntilde" unicode="&#xf1;" horiz-adv-x="1132" 
d="M127 0h274v766q91 37 187 37q39 0 67 -12t44.5 -32.5t26 -54.5t12.5 -70t3 -87v-547h275v555q0 98 -10 172t-34.5 136.5t-65.5 102t-103.5 61.5t-147.5 22q-52 0 -116 -20.5t-102 -40.5l-38 -21v57h-272v-1024zM864 1481l60 -156q-4 -5 -12 -13.5t-32.5 -30.5t-49 -39
t-58 -30.5t-63.5 -13.5q-45 0 -139 37t-126 37q-25 0 -64.5 -16t-65.5 -32l-27 -16l-60 154q4 5 12 13.5t32 29.5t48.5 37t57.5 29.5t63 13.5q45 0 140 -37t120 -37q24 0 65 17.5t70 35.5z" />
    <glyph glyph-name="ograve" unicode="&#xf2;" horiz-adv-x="1089" 
d="M545 1049q130 0 223 -38.5t146.5 -111.5t77.5 -167.5t24 -217.5t-24 -218t-77.5 -169t-146.5 -113t-223 -39t-223 39t-146.5 113t-77.5 169t-24 218t24 217.5t77.5 167.5t146.5 111.5t223 38.5zM545 209q109 0 150.5 73.5t41.5 231.5q0 157 -41.5 229t-150.5 72t-151 -72
t-42 -229q0 -158 42 -231.5t151 -73.5zM334 1542l516 -209l-62 -178l-536 152z" />
    <glyph glyph-name="oacute" unicode="&#xf3;" horiz-adv-x="1089" 
d="M545 1049q-130 0 -223 -38.5t-146.5 -111.5t-77.5 -167.5t-24 -217.5t24 -218t77.5 -169t146.5 -113t223 -39t223 39t146.5 113t77.5 169t24 218t-24 217.5t-77.5 167.5t-146.5 111.5t-223 38.5zM545 209q-109 0 -151 73.5t-42 231.5q0 157 42 229t151 72t150.5 -72
t41.5 -229q0 -158 -41.5 -231.5t-150.5 -73.5zM238 1333l516 209l82 -235l-537 -152z" />
    <glyph glyph-name="ocircumflex" unicode="&#xf4;" horiz-adv-x="1089" 
d="M545 1049q-130 0 -223 -38.5t-146.5 -111.5t-77.5 -167.5t-24 -217.5t24 -218t77.5 -169t146.5 -113t223 -39t223 39t146.5 113t77.5 169t24 218t-24 217.5t-77.5 167.5t-146.5 111.5t-223 38.5zM545 209q-109 0 -151 73.5t-42 231.5q0 157 42 229t151 72t150.5 -72
t41.5 -229q0 -158 -41.5 -231.5t-150.5 -73.5zM186 1188l258 309h172l263 -309h-252l-95 137l-94 -137h-252z" />
    <glyph glyph-name="otilde" unicode="&#xf5;" horiz-adv-x="1089" 
d="M545 1049q-130 0 -223 -38.5t-146.5 -111.5t-77.5 -167.5t-24 -217.5t24 -218t77.5 -169t146.5 -113t223 -39t223 39t146.5 113t77.5 169t24 218t-24 217.5t-77.5 167.5t-146.5 111.5t-223 38.5zM545 209q-109 0 -151 73.5t-42 231.5q0 157 42 229t151 72t150.5 -72
t41.5 -229q0 -158 -41.5 -231.5t-150.5 -73.5zM823 1481l60 -156q-4 -5 -12 -13.5t-32.5 -30.5t-49 -39t-58 -30.5t-63.5 -13.5q-45 0 -139 37t-126 37q-25 0 -64.5 -16t-66.5 -32l-26 -16l-60 154q4 5 12 13.5t32 29.5t48.5 37t57.5 29.5t63 13.5q45 0 140 -37t120 -37
q24 0 65 17.5t70 35.5z" />
    <glyph glyph-name="odieresis" unicode="&#xf6;" horiz-adv-x="1089" 
d="M545 1049q-130 0 -223 -38.5t-146.5 -111.5t-77.5 -167.5t-24 -217.5t24 -218t77.5 -169t146.5 -113t223 -39t223 39t146.5 113t77.5 169t24 218t-24 217.5t-77.5 167.5t-146.5 111.5t-223 38.5zM545 209q-109 0 -151 73.5t-42 231.5q0 157 42 229t151 72t150.5 -72
t41.5 -229q0 -158 -41.5 -231.5t-150.5 -73.5zM190 1221v270h263v-270h-263zM633 1221v270h262v-270h-262z" />
    <glyph glyph-name="divide" unicode="&#xf7;" 
d="M436 721v270h271v-270h-271zM102 391v246h942v-246h-942zM436 35v270h271v-270h-271z" />
    <glyph glyph-name="oslash" unicode="&#xf8;" horiz-adv-x="1089" 
d="M545 1049q50 0 114 -11l82 205l166 -61l-84 -201q193 -120 193 -467q0 -123 -24 -218t-77.5 -169t-146.5 -113t-223 -39q-66 0 -129 13l-84 -209l-164 61l88 211q-182 123 -182 463q0 123 24 217.5t77.5 167.5t146.5 111.5t223 38.5zM545 209q109 0 150.5 73.5
t41.5 231.5q0 134 -28 203l-205 -506q12 -2 41 -2zM545 815q-109 0 -151 -72t-42 -229q0 -127 25 -195l194 494q-4 0 -13 1t-13 1z" />
    <glyph glyph-name="ugrave" unicode="&#xf9;" horiz-adv-x="1132" 
d="M731 1024h275v-1024h-273v57q-16 -9 -43.5 -22.5t-96 -36.5t-116.5 -23q-111 0 -182 30t-110 97.5t-53.5 157t-14.5 227.5v537h274v-541q0 -52 1.5 -83.5t6 -65t14 -51.5t25.5 -34t39.5 -22t57.5 -6q45 0 94 9.5t75 18.5l27 9v766zM283 1542l516 -209l-62 -178l-536 152z
" />
    <glyph glyph-name="uacute" unicode="&#xfa;" horiz-adv-x="1132" 
d="M1006 1024h-275v-766q-94 -37 -196 -37q-34 0 -57.5 6t-39.5 22t-25.5 34t-14 51.5t-6 65t-1.5 83.5v541h-274v-537q0 -138 14.5 -227.5t53.5 -157t110 -97.5t182 -30q48 0 112 20.5t104 40.5l40 21v-57h273v1024zM266 1333l516 209l82 -235l-536 -152z" />
    <glyph glyph-name="ucircumflex" unicode="&#xfb;" horiz-adv-x="1132" 
d="M1006 1024h-275v-766q-94 -37 -196 -37q-34 0 -57.5 6t-39.5 22t-25.5 34t-14 51.5t-6 65t-1.5 83.5v541h-274v-537q0 -138 14.5 -227.5t53.5 -157t110 -97.5t182 -30q48 0 112 20.5t104 40.5l40 21v-57h273v1024zM168 1188l258 309h172l262 -309h-252l-94 137l-94 -137
h-252z" />
    <glyph glyph-name="udieresis" unicode="&#xfc;" horiz-adv-x="1132" 
d="M1006 1024h-275v-766q-94 -37 -196 -37q-34 0 -57.5 6t-39.5 22t-25.5 34t-14 51.5t-6 65t-1.5 83.5v541h-274v-537q0 -138 14.5 -227.5t53.5 -157t110 -97.5t182 -30q48 0 112 20.5t104 40.5l40 21v-57h273v1024zM217 1221v270h262v-270h-262zM659 1221v270h263v-270
h-263z" />
    <glyph glyph-name="yacute" unicode="&#xfd;" horiz-adv-x="1024" 
d="M33 1024h270l186 -791h48l186 791h270l-360 -1454h-268l112 430h-192zM250 1333l516 209l82 -235l-537 -152z" />
    <glyph glyph-name="thorn" unicode="&#xfe;" horiz-adv-x="1114" 
d="M551 213q120 0 163.5 69.5t43.5 239.5q0 281 -172 281q-36 0 -82.5 -6.5t-74.5 -13.5l-28 -7v-551q93 -12 150 -12zM623 1049q144 0 232.5 -48.5t134.5 -165.5t46 -313q0 -163 -27.5 -270t-88.5 -168t-143.5 -85t-205.5 -24q-34 0 -76.5 4.5t-68.5 8.5l-25 4v-422h-274
v1864h274v-441q132 56 222 56z" />
    <glyph glyph-name="ydieresis" unicode="&#xff;" horiz-adv-x="1024" 
d="M33 1024h270l186 -791h48l186 791h270l-360 -1454h-268l112 430h-192zM162 1221v270h262v-270h-262zM604 1221v270h262v-270h-262z" />
    <glyph glyph-name="Amacron" unicode="&#x100;" horiz-adv-x="1232" 
d="M35 0l313 1393h537l313 -1393h-283l-55 252h-487l-56 -252h-282zM567 1159l-141 -661h381l-141 661h-99zM254 1602v200h711v-200h-711z" />
    <glyph glyph-name="amacron" unicode="&#x101;" horiz-adv-x="1046" 
d="M911 705v-426q3 -49 16 -69.5t52 -27.5l-8 -207q-105 0 -167.5 15t-125.5 57q-16 -8 -45 -20t-108.5 -32t-147.5 -20q-159 0 -238.5 85.5t-79.5 250.5q0 85 23.5 144t72.5 94t111.5 52.5t151.5 23.5l219 16v64q0 63 -28 86.5t-93 23.5q-60 0 -156 -4t-162 -8l-67 -4
l-8 190q25 7 66.5 17t151.5 26.5t198 16.5q198 0 285 -81.5t87 -262.5zM637 451l-186 -17q-115 -10 -115 -115q0 -120 100 -120q39 0 89.5 8t80.5 16l31 8v220zM219 1223v204h588v-204h-588z" />
    <glyph glyph-name="Abreve" unicode="&#x102;" horiz-adv-x="1232" 
d="M35 0l313 1393h537l313 -1393h-283l-55 252h-487l-56 -252h-282zM567 1159l-141 -661h381l-141 661h-99zM227 1864h248q8 -52 43 -84.5t90 -32.5q58 0 93.5 32.5t41.5 84.5h248q-16 -140 -111 -225t-272 -85t-271 85t-110 225z" />
    <glyph glyph-name="abreve" unicode="&#x103;" horiz-adv-x="1048" 
d="M911 315v379q0 190 -90.5 271.5t-269.5 81.5q-67 0 -172.5 -11.5t-177.5 -23.5l-72 -11l8 -233q246 16 398 16q45 0 73.5 -25.5t28.5 -66.5v-51l-221 -14q-181 -13 -269 -82t-88 -234q0 -157 78.5 -246.5t227.5 -89.5q63 0 141 17.5t125 35.5l47 17q40 -26 66.5 -38.5
t83 -22t141.5 -9.5l8 234q-42 7 -54 27.5t-12 78.5zM451 424l186 8v-190q-133 -31 -217 -31t-84 108q0 53 29 77.5t86 27.5zM121 1532h285q15 -90 112 -90q101 0 113 90h284q-16 -153 -115.5 -243.5t-281.5 -90.5t-281.5 90.5t-115.5 243.5z" />
    <glyph glyph-name="Aogonek" unicode="&#x104;" horiz-adv-x="1232" 
d="M35 0l313 1393h537l313 -1393h-37q-16 -13 -36.5 -33t-49 -61.5t-28.5 -71.5q0 -33 18 -50t47 -17l86 8l25 -195q-121 -22 -209 -22q-98 0 -160.5 53t-62.5 143q0 80 41.5 142.5t93.5 103.5h-11l-55 252h-487l-56 -252h-282zM567 1159l-141 -661h381l-141 661h-99z" />
    <glyph glyph-name="aogonek" unicode="&#x105;" horiz-adv-x="1044" 
d="M911 705v-426q3 -49 16 -69.5t52 -27.5l-8 -207q-15 0 -41 1t-37 1q-90 -85 -90 -143q0 -33 18 -50t47 -17l86 8l25 -195q-121 -22 -209 -22q-98 0 -160.5 53t-62.5 143q0 46 17 91t41.5 76t49 55t41.5 36l17 11l6 -3l-41 27q-16 -8 -45 -20t-108.5 -32t-147.5 -20
q-159 0 -238.5 85.5t-79.5 250.5q0 85 23.5 144t72.5 94t111.5 52.5t151.5 23.5l219 16v64q0 63 -28 86.5t-93 23.5q-60 0 -156 -4t-162 -8l-67 -4l-8 190q25 7 66.5 17t151.5 26.5t198 16.5q198 0 285 -81.5t87 -262.5zM637 451l-186 -17q-115 -10 -115 -115
q0 -120 100 -120q39 0 89.5 8t80.5 16l31 8v220z" />
    <glyph glyph-name="Cacute" unicode="&#x106;" horiz-adv-x="1112" 
d="M1028 254l6 -231q-83 -18 -200.5 -33t-204.5 -15q-107 0 -188.5 19t-140.5 60t-98.5 98t-63 141t-33 180t-9.5 223q0 204 25 336.5t86.5 221t163 126t258.5 37.5q171 0 407 -55l-8 -225q-201 30 -358 30q-85 0 -135.5 -17.5t-86 -70t-48.5 -143t-13 -240.5
q0 -84 3.5 -144.5t11.5 -112.5t23.5 -86t36.5 -60.5t52.5 -40.5t71 -20.5t92.5 -6.5q152 0 350 29zM301 1718l516 217l84 -245l-532 -162z" />
    <glyph glyph-name="cacute" unicode="&#x107;" horiz-adv-x="913" 
d="M510 1049q53 0 135 -11.5t137 -22.5l56 -11l-9 -218q-161 17 -239 17q-74 0 -119.5 -14.5t-71 -50t-34.5 -85t-9 -131.5q0 -91 9 -144.5t35.5 -91t71.5 -51.5t120 -14q35 0 94 4.5t101 8.5l42 4l9 -220q-219 -43 -334 -43q-228 0 -327 128.5t-99 418.5q0 273 102.5 400
t329.5 127zM199 1333l516 209l82 -235l-537 -152z" />
    <glyph glyph-name="Ccircumflex" unicode="&#x108;" horiz-adv-x="1112" 
d="M1028 254l6 -231q-83 -18 -200.5 -33t-204.5 -15q-107 0 -188.5 19t-140.5 60t-98.5 98t-63 141t-33 180t-9.5 223q0 204 25 336.5t86.5 221t163 126t258.5 37.5q171 0 407 -55l-8 -225q-201 30 -358 30q-85 0 -135.5 -17.5t-86 -70t-48.5 -143t-13 -240.5
q0 -84 3.5 -144.5t11.5 -112.5t23.5 -86t36.5 -60.5t52.5 -40.5t71 -20.5t92.5 -6.5q152 0 350 29zM219 1567l275 305h239l275 -305h-291l-101 114l-106 -114h-291z" />
    <glyph glyph-name="ccircumflex" unicode="&#x109;" horiz-adv-x="913" 
d="M510 1049q53 0 135 -11.5t137 -22.5l56 -11l-9 -218q-161 17 -239 17q-74 0 -119.5 -14.5t-71 -50t-34.5 -85t-9 -131.5q0 -91 9 -144.5t35.5 -91t71.5 -51.5t120 -14q35 0 94 4.5t101 8.5l42 4l9 -220q-219 -43 -334 -43q-228 0 -327 128.5t-99 418.5q0 273 102.5 400
t329.5 127zM111 1188l258 309h172l262 -309h-252l-94 137l-95 -137h-251z" />
    <glyph glyph-name="Cdotaccent" unicode="&#x10a;" horiz-adv-x="1112" 
d="M1028 254l6 -231q-83 -18 -200.5 -33t-204.5 -15q-107 0 -188.5 19t-140.5 60t-98.5 98t-63 141t-33 180t-9.5 223q0 204 25 336.5t86.5 221t163 126t258.5 37.5q171 0 407 -55l-8 -225q-201 30 -358 30q-85 0 -135.5 -17.5t-86 -70t-48.5 -143t-13 -240.5
q0 -84 3.5 -144.5t11.5 -112.5t23.5 -86t36.5 -60.5t52.5 -40.5t71 -20.5t92.5 -6.5q152 0 350 29zM449 1556v277h274v-277h-274z" />
    <glyph glyph-name="cdotaccent" unicode="&#x10b;" horiz-adv-x="913" 
d="M510 1049q53 0 135 -11.5t137 -22.5l56 -11l-9 -218q-161 17 -239 17q-74 0 -119.5 -14.5t-71 -50t-34.5 -85t-9 -131.5q0 -91 9 -144.5t35.5 -91t71.5 -51.5t120 -14q35 0 94 4.5t101 8.5l42 4l9 -220q-219 -43 -334 -43q-228 0 -327 128.5t-99 418.5q0 273 102.5 400
t329.5 127zM387 1139v276h275v-276h-275z" />
    <glyph glyph-name="Ccaron" unicode="&#x10c;" horiz-adv-x="1112" 
d="M1028 254l6 -231q-83 -18 -200.5 -33t-204.5 -15q-107 0 -188.5 19t-140.5 60t-98.5 98t-63 141t-33 180t-9.5 223q0 204 25 336.5t86.5 221t163 126t258.5 37.5q171 0 407 -55l-8 -225q-201 30 -358 30q-85 0 -135.5 -17.5t-86 -70t-48.5 -143t-13 -240.5
q0 -84 3.5 -144.5t11.5 -112.5t23.5 -86t36.5 -60.5t52.5 -40.5t71 -20.5t92.5 -6.5q152 0 350 29zM512 1567l-274 305h290l107 -115l100 115h291l-274 -305h-240z" />
    <glyph glyph-name="ccaron" unicode="&#x10d;" horiz-adv-x="913" 
d="M510 1049q53 0 135 -11.5t137 -22.5l56 -11l-9 -218q-161 17 -239 17q-74 0 -119.5 -14.5t-71 -50t-34.5 -85t-9 -131.5q0 -91 9 -144.5t35.5 -91t71.5 -51.5t120 -14q35 0 94 4.5t101 8.5l42 4l9 -220q-219 -43 -334 -43q-228 0 -327 128.5t-99 418.5q0 273 102.5 400
t329.5 127zM408 1188l-258 309h251l95 -137l94 137h252l-262 -309h-172z" />
    <glyph glyph-name="Dcaron" unicode="&#x10e;" horiz-adv-x="1306" 
d="M621 0h-469v1393h469q104 0 185.5 -13t143.5 -38.5t107 -67t75 -93t47.5 -123.5t25 -152t7.5 -183q0 -108 -6.5 -190.5t-23 -160.5t-45.5 -133.5t-73.5 -103t-106.5 -76t-145.5 -44t-190.5 -15.5zM922 723q0 72 -2.5 120t-9.5 97t-20.5 78.5t-35 57t-54 41.5t-76.5 22
t-103 8h-187v-901h187q58 0 103 11t76.5 29t54 51t35.5 68t20 89t9.5 105t2.5 124zM504 1567l-275 305h291l107 -115l100 115h291l-275 -305h-239z" />
    <glyph glyph-name="dcaron" unicode="&#x10f;" horiz-adv-x="1359" 
d="M1208 1389l-94 -480h248l113 480h-267zM997 1434v-1434h-272v43q-16 -8 -43 -19t-93 -30t-112 -19q-115 0 -192.5 33t-123 103.5t-64.5 167.5t-19 237q0 277 105.5 405t318.5 128q34 0 89 -7.5t93 -14.5l39 -7v414h274zM524 221q43 0 92.5 7.5t77.5 15.5l29 8v539
q-113 20 -201 20q-166 0 -166 -295q0 -160 36.5 -227.5t131.5 -67.5z" />
    <glyph glyph-name="Dcroat" unicode="&#x110;" horiz-adv-x="1314" 
d="M51 567v271h111v575h465q121 0 212 -17.5t157 -55.5t109 -91t68.5 -132.5t35.5 -170.5t10 -213q0 -109 -6.5 -192t-23.5 -162t-45.5 -136t-73.5 -105t-107 -77t-146 -45t-190 -16h-465v567h-111zM928 733q0 68 -2.5 114t-9.5 93t-20.5 76.5t-35 56.5t-54 41t-76.5 22.5
t-103 8.5h-187v-307h267v-271h-267v-299h187q58 0 103 11t76.5 29.5t54 51.5t35.5 67.5t20 86.5t9.5 101t2.5 118z" />
    <glyph glyph-name="dcroat" unicode="&#x111;" horiz-adv-x="1124" 
d="M264 1274v237h670v-77h63v-1434h-272v43q-16 -8 -43 -19t-93 -30t-112 -19q-115 0 -192.5 33t-123 103.5t-64.5 167.5t-19 237q0 277 105.5 405t318.5 128q34 0 89 -7.5t93 -14.5l39 -7v254h-459zM524 221q43 0 92.5 7.5t77.5 15.5l29 8v539q-113 20 -201 20
q-166 0 -166 -295q0 -160 36.5 -227.5t131.5 -67.5z" />
    <glyph glyph-name="Emacron" unicode="&#x112;" horiz-adv-x="1134" 
d="M152 0v1393h901v-246h-619v-326h496v-241h-496v-334h619v-246h-901zM238 1602v200h710v-200h-710z" />
    <glyph glyph-name="emacron" unicode="&#x113;" horiz-adv-x="1044" 
d="M559 217q75 0 169.5 4.5t151.5 9.5l58 5l4 -203q-236 -58 -426 -58q-232 0 -336 123.5t-104 399.5q0 274 114 412.5t338 138.5q447 0 447 -463l-21 -191h-602q2 -93 50 -135.5t157 -42.5zM350 604h355q0 123 -39.5 171t-137.5 48q-97 0 -136.5 -50t-41.5 -169zM231 1223
v204h588v-204h-588z" />
    <glyph glyph-name="Ebreve" unicode="&#x114;" horiz-adv-x="1134" 
d="M152 0v1393h901v-246h-619v-326h496v-241h-496v-334h619v-246h-901zM233 1864h248q8 -52 43 -84.5t90 -32.5q58 0 94 32.5t42 84.5h247q-16 -140 -111 -225t-272 -85t-271 85t-110 225z" />
    <glyph glyph-name="ebreve" unicode="&#x115;" horiz-adv-x="1044" 
d="M559 217q75 0 169.5 4.5t151.5 9.5l58 5l4 -203q-236 -58 -426 -58q-232 0 -336 123.5t-104 399.5q0 274 114 412.5t338 138.5q447 0 447 -463l-21 -191h-602q2 -93 50 -135.5t157 -42.5zM350 604h355q0 123 -39.5 171t-137.5 48q-97 0 -136.5 -50t-41.5 -169zM193 1495
h206q8 -63 41.5 -99t87.5 -36q57 0 90 36.5t39 98.5h207q-8 -63 -32.5 -119.5t-65.5 -102t-102.5 -72.5t-135.5 -27t-135.5 27t-102 72.5t-65 102t-32.5 119.5z" />
    <glyph glyph-name="Edotaccent" unicode="&#x116;" horiz-adv-x="1134" 
d="M152 0v1393h901v-246h-619v-326h496v-241h-496v-334h619v-246h-901zM477 1571v276h275v-276h-275z" />
    <glyph glyph-name="edotaccent" unicode="&#x117;" horiz-adv-x="1044" 
d="M559 217q75 0 169.5 4.5t151.5 9.5l58 5l4 -203q-236 -58 -426 -58q-232 0 -336 123.5t-104 399.5q0 274 114 412.5t338 138.5q447 0 447 -463l-21 -191h-602q2 -93 50 -135.5t157 -42.5zM350 604h355q0 123 -39.5 171t-137.5 48q-97 0 -136.5 -50t-41.5 -169zM389 1139
v276h275v-276h-275z" />
    <glyph glyph-name="Eogonek" unicode="&#x118;" horiz-adv-x="1134" 
d="M152 0v1393h901v-246h-619v-326h496v-241h-496v-334h619v-246h-58q-16 -13 -36.5 -33t-49 -61.5t-28.5 -71.5q0 -33 18 -50t47 -17l86 8l25 -195q-121 -22 -209 -22q-98 0 -160.5 53t-62.5 143q0 80 41.5 142.5t93.5 103.5h-608z" />
    <glyph glyph-name="eogonek" unicode="&#x119;" horiz-adv-x="1046" 
d="M834 2q-5 -4 -13 -11t-28.5 -27.5t-36 -39.5t-28.5 -44.5t-13 -45.5q0 -33 18 -50t47 -17l86 8l25 -195q-121 -22 -209 -22q-98 0 -160.5 53t-62.5 143q0 122 106 223q-16 -2 -49 -2q-232 0 -336 123.5t-104 399.5q0 274 114 412.5t338 138.5q447 0 447 -463l-21 -191
h-602q2 -93 50 -135.5t157 -42.5q75 0 169.5 4.5t151.5 9.5l58 5l4 -203q-61 -15 -137 -29zM350 604h355q0 123 -39.5 171t-137.5 48q-97 0 -136.5 -50t-41.5 -169z" />
    <glyph glyph-name="Ecaron" unicode="&#x11a;" horiz-adv-x="1134" 
d="M152 0v1393h901v-246h-619v-326h496v-241h-496v-334h619v-246h-901zM453 1567l-275 305h291l106 -115l101 115h291l-275 -305h-239z" />
    <glyph glyph-name="ecaron" unicode="&#x11b;" horiz-adv-x="1044" 
d="M559 217q75 0 169.5 4.5t151.5 9.5l58 5l4 -203q-236 -58 -426 -58q-232 0 -336 123.5t-104 399.5q0 274 114 412.5t338 138.5q447 0 447 -463l-21 -191h-602q2 -93 50 -135.5t157 -42.5zM350 604h355q0 123 -39.5 171t-137.5 48q-97 0 -136.5 -50t-41.5 -169zM432 1188
l-258 309h252l94 -137l94 137h252l-262 -309h-172z" />
    <glyph glyph-name="Gcircumflex" unicode="&#x11c;" horiz-adv-x="1251" 
d="M731 500v245h406v-722q-293 -48 -475 -48q-135 0 -234 31t-163.5 87.5t-103 147.5t-54 200t-15.5 255q0 386 127 553.5t432 167.5q96 0 217.5 -14.5t195.5 -28.5l73 -14l-9 -219q-246 26 -432 26q-95 0 -151.5 -18t-95 -71t-52.5 -143t-14 -239q0 -117 7.5 -192.5
t26.5 -134t54.5 -89t87 -45t129.5 -14.5q37 0 79.5 2t66.5 4l24 2v271h-127zM279 1567l274 305h240l274 -305h-291l-100 114l-107 -114h-290z" />
    <glyph glyph-name="gcircumflex" unicode="&#x11d;" horiz-adv-x="1093" 
d="M569 -471q-94 0 -166.5 7.5t-135.5 27t-104 51t-64 82t-23 117.5q0 69 34.5 125.5t112.5 117.5q-34 23 -55 66t-21 90q0 23 20 64t40 71l20 29q-41 29 -69 62t-49 96t-21 147q0 96 33 167.5t92.5 113t135.5 61.5t169 20q40 0 91.5 -6.5t83.5 -13.5l32 -6l330 10v-219
l-154 12q45 -73 45 -139q0 -106 -27 -177t-84.5 -111t-133.5 -56t-187 -16q-48 0 -84 8q-20 -53 -20 -80q0 -28 13.5 -41t54.5 -19.5t130 -7.5q176 -1 272 -31.5t135.5 -95t39.5 -182.5q0 -73 -25.5 -131.5t-69.5 -98t-106 -65.5t-133 -37.5t-152 -11.5zM586 -55
q-25 0 -71.5 3.5t-80.5 7.5l-33 3q-55 -55 -55 -117q0 -88 225 -88q207 0 207 103q0 56 -36.5 71t-155.5 17zM520 530q156 0 156 152q0 74 -37.5 111.5t-118.5 37.5q-158 0 -158 -149q0 -152 158 -152zM211 1188l258 309h172l262 -309h-252l-94 137l-94 -137h-252z" />
    <glyph glyph-name="Gbreve" unicode="&#x11e;" horiz-adv-x="1251" 
d="M731 500v245h406v-722q-293 -48 -475 -48q-135 0 -234 31t-163.5 87.5t-103 147.5t-54 200t-15.5 255q0 386 127 553.5t432 167.5q96 0 217.5 -14.5t195.5 -28.5l73 -14l-9 -219q-246 26 -432 26q-95 0 -151.5 -18t-95 -71t-52.5 -143t-14 -239q0 -117 7.5 -192.5
t26.5 -134t54.5 -89t87 -45t129.5 -14.5q37 0 79.5 2t66.5 4l24 2v271h-127zM279 1864h247q8 -52 43 -84.5t90 -32.5q58 0 94 32.5t42 84.5h247q-16 -140 -111 -225t-272 -85q-176 0 -270 85t-110 225z" />
    <glyph glyph-name="gbreve" unicode="&#x11f;" horiz-adv-x="1093" 
d="M569 -471q-94 0 -166.5 7.5t-135.5 27t-104 51t-64 82t-23 117.5q0 69 34.5 125.5t112.5 117.5q-34 23 -55 66t-21 90q0 23 20 64t40 71l20 29q-41 29 -69 62t-49 96t-21 147q0 96 33 167.5t92.5 113t135.5 61.5t169 20q40 0 91.5 -6.5t83.5 -13.5l32 -6l330 10v-219
l-154 12q45 -73 45 -139q0 -106 -27 -177t-84.5 -111t-133.5 -56t-187 -16q-48 0 -84 8q-20 -53 -20 -80q0 -28 13.5 -41t54.5 -19.5t130 -7.5q176 -1 272 -31.5t135.5 -95t39.5 -182.5q0 -73 -25.5 -131.5t-69.5 -98t-106 -65.5t-133 -37.5t-152 -11.5zM586 -55
q-25 0 -71.5 3.5t-80.5 7.5l-33 3q-55 -55 -55 -117q0 -88 225 -88q207 0 207 103q0 56 -36.5 71t-155.5 17zM520 530q156 0 156 152q0 74 -37.5 111.5t-118.5 37.5q-158 0 -158 -149q0 -152 158 -152zM219 1495h207q8 -63 41.5 -99t87.5 -36q57 0 90 36.5t39 98.5h207
q-8 -63 -32.5 -119.5t-65.5 -102t-102.5 -72.5t-135.5 -27t-135.5 27t-102.5 72.5t-65.5 102t-32.5 119.5z" />
    <glyph glyph-name="Gdotaccent" unicode="&#x120;" horiz-adv-x="1251" 
d="M731 500v245h406v-722q-293 -48 -475 -48q-135 0 -234 31t-163.5 87.5t-103 147.5t-54 200t-15.5 255q0 386 127 553.5t432 167.5q96 0 217.5 -14.5t195.5 -28.5l73 -14l-9 -219q-246 26 -432 26q-95 0 -151.5 -18t-95 -71t-52.5 -143t-14 -239q0 -117 7.5 -192.5
t26.5 -134t54.5 -89t87 -45t129.5 -14.5q37 0 79.5 2t66.5 4l24 2v271h-127zM502 1571v276h274v-276h-274z" />
    <glyph glyph-name="gdotaccent" unicode="&#x121;" horiz-adv-x="1093" 
d="M569 -471q-94 0 -166.5 7.5t-135.5 27t-104 51t-64 82t-23 117.5q0 69 34.5 125.5t112.5 117.5q-34 23 -55 66t-21 90q0 23 20 64t40 71l20 29q-41 29 -69 62t-49 96t-21 147q0 96 33 167.5t92.5 113t135.5 61.5t169 20q40 0 91.5 -6.5t83.5 -13.5l32 -6l330 10v-219
l-154 12q45 -73 45 -139q0 -106 -27 -177t-84.5 -111t-133.5 -56t-187 -16q-48 0 -84 8q-20 -53 -20 -80q0 -28 13.5 -41t54.5 -19.5t130 -7.5q176 -1 272 -31.5t135.5 -95t39.5 -182.5q0 -73 -25.5 -131.5t-69.5 -98t-106 -65.5t-133 -37.5t-152 -11.5zM586 -55
q-25 0 -71.5 3.5t-80.5 7.5l-33 3q-55 -55 -55 -117q0 -88 225 -88q207 0 207 103q0 56 -36.5 71t-155.5 17zM520 530q156 0 156 152q0 74 -37.5 111.5t-118.5 37.5q-158 0 -158 -149q0 -152 158 -152zM416 1139v276h274v-276h-274z" />
    <glyph glyph-name="Gcommaaccent" unicode="&#x122;" horiz-adv-x="1251" 
d="M731 500v245h406v-722q-293 -48 -475 -48q-135 0 -234 31t-163.5 87.5t-103 147.5t-54 200t-15.5 255q0 386 127 553.5t432 167.5q96 0 217.5 -14.5t195.5 -28.5l73 -14l-9 -219q-246 26 -432 26q-95 0 -151.5 -18t-95 -71t-52.5 -143t-14 -239q0 -117 7.5 -192.5
t26.5 -134t54.5 -89t87 -45t129.5 -14.5q37 0 79.5 2t66.5 4l24 2v271h-127zM545 -158l-94 -479h247l113 479h-266z" />
    <glyph glyph-name="gcommaaccent" unicode="&#x123;" horiz-adv-x="1093" 
d="M709 1673l-95 -479h-266l113 479h248zM569 -471q-94 0 -166.5 7.5t-135.5 27t-104 51t-64 82t-23 117.5q0 69 34.5 125.5t112.5 117.5q-34 23 -55 66t-21 90q0 23 20 64t40 71l20 29q-41 29 -69 62t-49 96t-21 147q0 96 33 167.5t92.5 113t135.5 61.5t169 20
q40 0 91.5 -6.5t83.5 -13.5l32 -6l330 10v-219l-154 12q45 -73 45 -139q0 -106 -27 -177t-84.5 -111t-133.5 -56t-187 -16q-48 0 -84 8q-20 -53 -20 -80q0 -28 13.5 -41t54.5 -19.5t130 -7.5q176 -1 272 -31.5t135.5 -95t39.5 -182.5q0 -73 -25.5 -131.5t-69.5 -98
t-106 -65.5t-133 -37.5t-152 -11.5zM586 -55q-25 0 -71.5 3.5t-80.5 7.5l-33 3q-55 -55 -55 -117q0 -88 225 -88q207 0 207 103q0 56 -36.5 71t-155.5 17zM520 530q156 0 156 152q0 74 -37.5 111.5t-118.5 37.5q-158 0 -158 -149q0 -152 158 -152z" />
    <glyph glyph-name="Hcircumflex" unicode="&#x124;" horiz-adv-x="1386" 
d="M952 0v578h-518v-578h-282v1393h282v-570h518v570h283v-1393h-283zM299 1567l274 305h240l274 -305h-290l-101 114l-106 -114h-291z" />
    <glyph glyph-name="hcircumflex" unicode="&#x125;" horiz-adv-x="1132" 
d="M401 0h-274v1434h274v-459q16 8 42.5 20.5t94 33t117.5 20.5q85 0 147.5 -22t103.5 -61.5t65.5 -102t34.5 -136.5t10 -172v-555h-275v549q0 51 -3 86.5t-12.5 69t-26 54t-44.5 32.5t-67 12q-40 0 -86.5 -8.5t-73.5 -16.5l-27 -8v-770zM219 1536l258 309h172l262 -309
h-252l-94 137l-94 -137h-252z" />
    <glyph glyph-name="Hbar" unicode="&#x126;" horiz-adv-x="1402" 
d="M39 995v238h121v160h282v-160h519v160h282v-160h135v-238h-135v-995h-282v578h-519v-578h-282v995h-121zM442 823h519v172h-519v-172z" />
    <glyph glyph-name="hbar" unicode="&#x127;" horiz-adv-x="1132" 
d="M25 1090v237h102v107h274v-107h293v-237h-293v-115q16 8 42.5 20.5t94 33t117.5 20.5q85 0 147.5 -22t103.5 -61.5t65.5 -102t34.5 -136.5t10 -172v-555h-275v549q0 51 -3 86.5t-12.5 69t-26 54t-44.5 32.5t-67 12q-40 0 -86.5 -8.5t-73.5 -16.5l-27 -8v-770h-274v1090
h-102z" />
    <glyph glyph-name="Itilde" unicode="&#x128;" horiz-adv-x="585" 
d="M152 0v1393h282v-1393h-282zM625 1880l59 -199q-4 -5 -12 -14t-33 -31t-49.5 -39t-59 -31t-65.5 -14q-58 0 -187.5 47.5t-158.5 47.5q-25 0 -66 -21.5t-69 -43.5l-29 -21l-59 196q4 5 12.5 14t33 31.5t49.5 40t59 31.5t65 14q54 0 127 -23.5t133 -47t82 -23.5
q24 0 66 21.5t72 42.5z" />
    <glyph glyph-name="itilde" unicode="&#x129;" horiz-adv-x="528" 
d="M127 1024v-1024h274v1024h-274zM559 1481l59 -156q-4 -5 -12 -13.5t-32.5 -30.5t-49 -39t-58 -30.5t-63.5 -13.5q-45 0 -138.5 37t-125.5 37q-25 0 -64.5 -16t-66.5 -32l-26 -16l-60 154q4 5 12 13.5t32 29.5t48.5 37t57.5 29.5t63 13.5q45 0 140 -37t120 -37
q24 0 65 17.5t70 35.5z" />
    <glyph glyph-name="Imacron" unicode="&#x12a;" horiz-adv-x="585" 
d="M152 0v1393h282v-1393h-282zM-55 1602v200h710v-200h-710z" />
    <glyph glyph-name="imacron" unicode="&#x12b;" horiz-adv-x="528" 
d="M127 1024v-1024h274v1024h-274zM-29 1223v204h588v-204h-588z" />
    <glyph glyph-name="Ibreve" unicode="&#x12c;" horiz-adv-x="585" 
d="M152 0v1393h282v-1393h-282zM-53 1864h248q8 -52 43 -84.5t90 -32.5q58 0 93.5 32.5t41.5 84.5h248q-16 -140 -111 -225t-272 -85t-271 85t-110 225z" />
    <glyph glyph-name="ibreve" unicode="&#x12d;" horiz-adv-x="528" 
d="M127 1024v-1024h274v1024h-274zM-72 1495h207q8 -63 41.5 -99t87.5 -36q57 0 90 36.5t39 98.5h207q-8 -63 -32.5 -119.5t-65.5 -102t-102.5 -72.5t-135.5 -27t-135.5 27t-102.5 72.5t-65.5 102t-32.5 119.5z" />
    <glyph glyph-name="Iogonek" unicode="&#x12e;" horiz-adv-x="585" 
d="M152 0v1393h282v-1393q-6 -4 -15 -10.5t-32.5 -27t-41.5 -39.5t-33 -44t-15 -45q0 -33 18 -50t47 -17l87 8l24 -195q-121 -22 -209 -22q-98 0 -160.5 53t-62.5 143q0 135 139 246h-28z" />
    <glyph glyph-name="iogonek" unicode="&#x12f;" horiz-adv-x="528" 
d="M127 0v1024h274v-1024q-6 -4 -15 -10.5t-32.5 -26t-41.5 -38.5t-33 -44.5t-15 -46.5q0 -32 18.5 -49.5t47.5 -17.5l86 8l24 -195q-121 -22 -209 -22q-98 0 -160.5 53t-62.5 143q0 136 144 246h-25zM127 1155v279h274v-279h-274z" />
    <glyph glyph-name="Idotaccent" unicode="&#x130;" horiz-adv-x="585" 
d="M152 0v1393h282v-1393h-282zM156 1571v276h274v-276h-274z" />
    <glyph glyph-name="dotlessi" unicode="&#x131;" horiz-adv-x="528" 
d="M127 0v1024h274v-1024h-274z" />
    <glyph glyph-name="Jcircumflex" unicode="&#x134;" horiz-adv-x="618" 
d="M475 1393l2 -1157q0 -115 -24.5 -189t-80.5 -116t-134 -58t-199 -16v245q81 0 118.5 31t37.5 115v1145h280zM-59 1567l274 305h240l274 -305h-291l-100 114l-107 -114h-290z" />
    <glyph glyph-name="jcircumflex" unicode="&#x135;" horiz-adv-x="530" 
d="M129 49v975h274v-977q0 -88 -11 -150.5t-34 -113t-68.5 -93t-102.5 -79.5t-148 -82l-109 203q57 37 86 59.5t55.5 49t36.5 54.5t15.5 63.5t5.5 90.5zM-76 1188l258 309h172l262 -309h-251l-95 137l-94 -137h-252z" />
    <glyph glyph-name="Kcommaaccent" unicode="&#x136;" horiz-adv-x="1210" 
d="M856 0l-233 555l-189 -20v-535h-282v1413h282v-606l184 20l230 586h326l-304 -702l312 -711h-326zM502 -158l-94 -479h247l113 479h-266z" />
    <glyph glyph-name="kcommaaccent" unicode="&#x137;" horiz-adv-x="1054" 
d="M-20 -637l94 479h266l-113 -479h-247zM401 0h-274v1434h274v-816l105 19l203 387h307l-266 -485l280 -539h-309l-207 399l-113 -18v-381z" />
    <glyph glyph-name="Lacute" unicode="&#x139;" horiz-adv-x="968" 
d="M944 0h-792v1413h282v-1141h510v-272zM225 1718l516 217l84 -245l-532 -162z" />
    <glyph glyph-name="lacute" unicode="&#x13a;" horiz-adv-x="552" 
d="M139 0v1434h275v-1434h-275zM84 1763l516 209l82 -235l-537 -152z" />
    <glyph glyph-name="Lcommaaccent" unicode="&#x13b;" horiz-adv-x="966" 
d="M418 -158l-94 -479h247l113 479h-266zM944 0h-792v1393h282v-1143h510v-250z" />
    <glyph glyph-name="lcommaaccent" unicode="&#x13c;" horiz-adv-x="552" 
d="M139 0v1434h275v-1434h-275zM135 -158l-94 -479h248l112 479h-266z" />
    <glyph glyph-name="Lcaron" unicode="&#x13d;" horiz-adv-x="1019" 
d="M944 1413v-532h-266v532h266zM944 0h-792v1393h282v-1143h510v-250z" />
    <glyph glyph-name="lcaron" unicode="&#x13e;" horiz-adv-x="772" 
d="M621 1389l-95 -480h248l113 480h-266zM139 0v1434h275v-1434h-275z" />
    <glyph glyph-name="Lslash" unicode="&#x141;" horiz-adv-x="985" 
d="M963 0h-793v444l-86 -59l-133 184l219 154v670h283v-473l202 143l133 -184l-335 -236v-393h510v-250z" />
    <glyph glyph-name="lslash" unicode="&#x142;" horiz-adv-x="780" 
d="M244 0v446l-105 -71l-133 184l238 166v709h274v-516l129 90l133 -185l-262 -184v-639h-274z" />
    <glyph glyph-name="Nacute" unicode="&#x143;" horiz-adv-x="1419" 
d="M152 0v1393h477l336 -1147h20v1147h283v-1393h-465l-348 1147h-21v-1147h-282zM414 1718l516 217l84 -245l-533 -162z" />
    <glyph glyph-name="nacute" unicode="&#x144;" horiz-adv-x="1132" 
d="M127 0h274v766q91 37 187 37q39 0 67 -12t44.5 -32.5t26 -54.5t12.5 -70t3 -87v-547h275v555q0 98 -10 172t-34.5 136.5t-65.5 102t-103.5 61.5t-147.5 22q-52 0 -116 -20.5t-102 -40.5l-38 -21v57h-272v-1024zM299 1333l516 209l82 -235l-537 -152z" />
    <glyph glyph-name="Ncommaaccent" unicode="&#x145;" horiz-adv-x="1419" 
d="M612 -158l-94 -479h248l113 479h-267zM152 0v1393h477l336 -1147h20v1147h283v-1393h-465l-348 1147h-21v-1147h-282z" />
    <glyph glyph-name="ncommaaccent" unicode="&#x146;" horiz-adv-x="1132" 
d="M-20 -637l94 479h266l-113 -479h-247zM401 0h-274v1024h272v-57q16 9 42 22.5t94 36.5t120 23q85 0 147.5 -22t103.5 -61.5t65.5 -102t34.5 -136.5t10 -172v-555h-275v547q0 51 -3 87t-12.5 70t-26 54.5t-44.5 32.5t-67 12q-43 0 -89.5 -9.5t-72.5 -18.5l-25 -9v-766z
" />
    <glyph glyph-name="Ncaron" unicode="&#x147;" horiz-adv-x="1419" 
d="M152 0v1393h477l336 -1147h20v1147h283v-1393h-465l-348 1147h-21v-1147h-282zM592 1567l-275 305h291l107 -115l100 115h291l-275 -305h-239z" />
    <glyph glyph-name="ncaron" unicode="&#x148;" horiz-adv-x="1132" 
d="M401 0h-274v1024h272v-57q16 9 42 22.5t94 36.5t120 23q85 0 147.5 -22t103.5 -61.5t65.5 -102t34.5 -136.5t10 -172v-555h-275v547q0 51 -3 87t-12.5 70t-26 54.5t-44.5 32.5t-67 12q-43 0 -89.5 -9.5t-72.5 -18.5l-25 -9v-766zM473 1188l-258 309h252l94 -137l94 137
h252l-262 -309h-172z" />
    <glyph glyph-name="Eng" unicode="&#x14a;" horiz-adv-x="1419" 
d="M152 0v1393h477l336 -1147h20v1147h283v-1448q0 -115 -24.5 -189t-81 -116t-134.5 -58t-199 -16v246q82 0 119 30.5t37 114.5v43h-182l-348 1147h-21v-1147h-282z" />
    <glyph glyph-name="eng" unicode="&#x14b;" horiz-adv-x="1130" 
d="M399 0h-274v1022h274v-45q169 72 265 72q98 0 167 -36t109 -105.5t58 -160.5t18 -212v-525q0 -90 -9 -150.5t-31 -113t-65.5 -93.5t-104 -78.5t-155.5 -82.5l-123 227q141 77 177 124.5t36 156.5v535q0 56 -5.5 99t-19.5 82t-41.5 60t-68.5 21q-30 0 -82 -9.5t-88 -18.5
l-37 -9v-760z" />
    <glyph glyph-name="Omacron" unicode="&#x14c;" horiz-adv-x="1335" 
d="M668 221q85 0 141 26.5t88 87t44.5 144t12.5 209.5q0 101 -8 174.5t-27 134t-51.5 97.5t-82 57t-117.5 20q-165 0 -226 -114t-61 -369q0 -252 60.5 -359.5t226.5 -107.5zM668 -25q-131 0 -228.5 29.5t-164 85.5t-108 144t-59.5 198.5t-18 255.5q0 183 29 314t95.5 226.5
t179 142t274.5 46.5t274.5 -46.5t178.5 -142t95 -226.5t29 -314q0 -145 -18 -255.5t-59 -198.5t-107.5 -144t-164 -85.5t-228.5 -29.5zM305 1602v200h711v-200h-711z" />
    <glyph glyph-name="omacron" unicode="&#x14d;" horiz-adv-x="1089" 
d="M545 1049q-130 0 -223 -38.5t-146.5 -111.5t-77.5 -167.5t-24 -217.5t24 -218t77.5 -169t146.5 -113t223 -39t223 39t146.5 113t77.5 169t24 218t-24 217.5t-77.5 167.5t-146.5 111.5t-223 38.5zM545 209q-109 0 -151 73.5t-42 231.5q0 157 42 229t151 72t150.5 -72
t41.5 -229q0 -158 -41.5 -231.5t-150.5 -73.5zM258 1223v204h588v-204h-588z" />
    <glyph glyph-name="Obreve" unicode="&#x14e;" horiz-adv-x="1335" 
d="M668 221q85 0 141 26.5t88 87t44.5 144t12.5 209.5q0 101 -8 174.5t-27 134t-51.5 97.5t-82 57t-117.5 20q-165 0 -226 -114t-61 -369q0 -252 60.5 -359.5t226.5 -107.5zM668 -25q-131 0 -228.5 29.5t-164 85.5t-108 144t-59.5 198.5t-18 255.5q0 183 29 314t95.5 226.5
t179 142t274.5 46.5t274.5 -46.5t178.5 -142t95 -226.5t29 -314q0 -145 -18 -255.5t-59 -198.5t-107.5 -144t-164 -85.5t-228.5 -29.5zM289 1864h248q8 -52 43 -84.5t90 -32.5q58 0 93.5 32.5t41.5 84.5h248q-16 -140 -111 -225t-272 -85t-271 85t-110 225z" />
    <glyph glyph-name="obreve" unicode="&#x14f;" horiz-adv-x="1089" 
d="M545 1049q-130 0 -223 -38.5t-146.5 -111.5t-77.5 -167.5t-24 -217.5t24 -218t77.5 -169t146.5 -113t223 -39t223 39t146.5 113t77.5 169t24 218t-24 217.5t-77.5 167.5t-146.5 111.5t-223 38.5zM545 209q-109 0 -151 73.5t-42 231.5q0 157 42 229t151 72t150.5 -72
t41.5 -229q0 -158 -41.5 -231.5t-150.5 -73.5zM213 1495h207q8 -63 41.5 -99t87.5 -36q57 0 90 36.5t39 98.5h207q-8 -63 -32.5 -119.5t-65.5 -102t-102.5 -72.5t-135.5 -27t-135.5 27t-102.5 72.5t-65.5 102t-32.5 119.5z" />
    <glyph glyph-name="Ohungarumlaut" unicode="&#x150;" horiz-adv-x="1335" 
d="M668 221q85 0 141 26.5t88 87t44.5 144t12.5 209.5q0 101 -8 174.5t-27 134t-51.5 97.5t-82 57t-117.5 20q-165 0 -226 -114t-61 -369q0 -252 60.5 -359.5t226.5 -107.5zM668 -25q-131 0 -228.5 29.5t-164 85.5t-108 144t-59.5 198.5t-18 255.5q0 183 29 314t95.5 226.5
t179 142t274.5 46.5t274.5 -46.5t178.5 -142t95 -226.5t29 -314q0 -145 -18 -255.5t-59 -198.5t-107.5 -144t-164 -85.5t-228.5 -29.5zM750 1587l137 404l237 -86l-159 -392zM324 1589l137 404l237 -86l-159 -391z" />
    <glyph glyph-name="ohungarumlaut" unicode="&#x151;" horiz-adv-x="1089" 
d="M545 1049q-130 0 -223 -38.5t-146.5 -111.5t-77.5 -167.5t-24 -217.5t24 -218t77.5 -169t146.5 -113t223 -39t223 39t146.5 113t77.5 169t24 218t-24 217.5t-77.5 167.5t-146.5 111.5t-223 38.5zM545 209q-109 0 -151 73.5t-42 231.5q0 157 42 229t151 72t150.5 -72
t41.5 -229q0 -158 -41.5 -231.5t-150.5 -73.5zM526 1286l240 389l223 -137l-256 -385zM109 1286l239 387l223 -135l-256 -385z" />
    <glyph glyph-name="OE" unicode="&#x152;" horiz-adv-x="1847" 
d="M1763 0h-893q-163 -25 -243 -25q-128 0 -220.5 30t-153 85.5t-96 147.5t-49.5 203t-14 266q0 400 119.5 565.5t413.5 165.5q81 0 239 -25h897v-270h-618v-293h495v-268h-495v-312h618v-270zM676 254q50 0 190 12v881q-144 12 -198 12q-112 0 -170.5 -36t-85.5 -132.5
t-27 -283.5q0 -92 4.5 -155.5t17 -117t33 -86t53.5 -54.5t77 -31t106 -9z" />
    <glyph glyph-name="oe" unicode="&#x153;" horiz-adv-x="1708" 
d="M1221 227q75 0 169.5 4.5t151.5 9.5l57 5l5 -213q-236 -58 -426 -58q-111 0 -187 31t-127 109q-54 -76 -131 -108t-188 -32q-130 0 -223 39t-146.5 112.5t-77.5 168t-24 217.5t24 217.5t77.5 167.5t146.5 111.5t223 38.5q119 0 198.5 -37.5t133.5 -128.5q54 92 130 129
t183 37q225 0 335.5 -114.5t110.5 -346.5l-20 -193h-602q2 -88 49.5 -127t157.5 -39zM545 223q109 0 150.5 70t41.5 219t-41.5 218t-150.5 69t-151 -69t-42 -218t42 -219t151 -70zM1012 604h354q0 109 -39.5 154t-136.5 45q-96 0 -137 -48.5t-41 -150.5z" />
    <glyph glyph-name="Racute" unicode="&#x154;" horiz-adv-x="1269" 
d="M434 467h273l161 -467h310l-199 532q205 129 205 402q0 459 -492 459h-540v-1393h282v467zM895 930q0 -99 -49 -160t-150 -61h-262v442h258q99 0 151 -59.5t52 -161.5zM348 1718l516 217l84 -245l-532 -162z" />
    <glyph glyph-name="racute" unicode="&#x155;" horiz-adv-x="761" 
d="M127 0v1024h272v-109q19 12 52 29.5t120 54t156 50.5v-277q-80 -16 -161.5 -37.5t-123.5 -34.5l-41 -14v-686h-274zM98 1333l516 209l82 -235l-536 -152z" />
    <glyph glyph-name="Rcommaaccent" unicode="&#x156;" horiz-adv-x="1269" 
d="M432 -637l94 479h267l-113 -479h-248zM707 467h-273v-467h-282v1393h540q492 0 492 -459q0 -273 -205 -402l199 -532h-310zM895 930q0 102 -52 161.5t-151 59.5h-258v-442h262q101 0 150 61t49 160z" />
    <glyph glyph-name="rcommaaccent" unicode="&#x157;" horiz-adv-x="761" 
d="M127 -158l-94 -479h248l112 479h-266zM127 0v1024h272v-109q19 12 52 29.5t120 54t156 50.5v-277q-80 -16 -161.5 -37.5t-123.5 -34.5l-41 -14v-686h-274z" />
    <glyph glyph-name="Rcaron" unicode="&#x158;" horiz-adv-x="1269" 
d="M707 467h-273v-467h-282v1393h540q492 0 492 -459q0 -273 -205 -402l199 -532h-310zM895 930q0 102 -52 161.5t-151 59.5h-258v-442h262q101 0 150 61t49 160zM494 1567l-275 305h291l106 -115l101 115h291l-275 -305h-239z" />
    <glyph glyph-name="rcaron" unicode="&#x159;" horiz-adv-x="761" 
d="M127 0v1024h272v-109q19 12 52 29.5t120 54t156 50.5v-277q-80 -16 -161.5 -37.5t-123.5 -34.5l-41 -14v-686h-274zM268 1188l-258 309h252l94 -137l95 137h251l-262 -309h-172z" />
    <glyph glyph-name="Sacute" unicode="&#x15a;" horiz-adv-x="1114" 
d="M1010 1362l-23 -223q-288 32 -407 32q-112 0 -168 -38.5t-56 -108.5q0 -65 55 -100.5t234 -92.5q156 -50 237.5 -99.5t118.5 -122t37 -189.5q0 -147 -64 -249t-170.5 -149t-246.5 -47q-84 0 -200.5 16t-190.5 32l-74 16l29 219q275 -37 420 -37q110 0 163.5 47.5
t53.5 132.5q0 65 -50.5 103t-199.5 80q-237 68 -334.5 161t-97.5 259q0 209 126.5 311t348.5 102q83 0 197.5 -13.5t187.5 -27.5zM295 1718l516 217l84 -245l-533 -162z" />
    <glyph glyph-name="sacute" unicode="&#x15b;" horiz-adv-x="966" 
d="M866 995l-4 -227q-254 33 -373 33q-85 0 -114 -19t-29 -63q0 -34 40 -49.5t187 -42.5q182 -33 252 -100t70 -220q0 -174 -106 -253t-306 -79q-68 0 -166 12.5t-163 24.5l-64 13l8 229q255 -33 359 -33q94 0 130 19t36 61q0 25 -13.5 39t-59 28t-138.5 29
q-91 15 -147.5 33.5t-103 53.5t-67 90.5t-20.5 138.5q0 87 31 152.5t86 104.5t125 58t153 19q65 0 164.5 -13t166.5 -26zM186 1333l516 209l82 -235l-536 -152z" />
    <glyph glyph-name="Scircumflex" unicode="&#x15c;" horiz-adv-x="1114" 
d="M1010 1362l-23 -223q-288 32 -407 32q-112 0 -168 -38.5t-56 -108.5q0 -65 55 -100.5t234 -92.5q156 -50 237.5 -99.5t118.5 -122t37 -189.5q0 -147 -64 -249t-170.5 -149t-246.5 -47q-84 0 -200.5 16t-190.5 32l-74 16l29 219q275 -37 420 -37q110 0 163.5 47.5
t53.5 132.5q0 65 -50.5 103t-199.5 80q-237 68 -334.5 161t-97.5 259q0 209 126.5 311t348.5 102q83 0 197.5 -13.5t187.5 -27.5zM172 1567l274 305h240l275 -305h-291l-101 114l-106 -114h-291z" />
    <glyph glyph-name="scircumflex" unicode="&#x15d;" horiz-adv-x="966" 
d="M866 995l-4 -227q-254 33 -373 33q-85 0 -114 -19t-29 -63q0 -34 40 -49.5t187 -42.5q182 -33 252 -100t70 -220q0 -174 -106 -253t-306 -79q-68 0 -166 12.5t-163 24.5l-64 13l8 229q255 -33 359 -33q94 0 130 19t36 61q0 25 -13.5 39t-59 28t-138.5 29
q-91 15 -147.5 33.5t-103 53.5t-67 90.5t-20.5 138.5q0 87 31 152.5t86 104.5t125 58t153 19q65 0 164.5 -13t166.5 -26zM139 1188l258 309h172l262 -309h-251l-95 137l-94 -137h-252z" />
    <glyph glyph-name="Scedilla" unicode="&#x15e;" horiz-adv-x="1114" 
d="M889 -260q0 -117 -60 -175.5t-167 -58.5q-39 0 -87 6t-76 12l-28 5l8 160q64 -2 99 -2q77 0 77 53q0 26 -17.5 35.5t-59.5 9.5h-50v190q-84 3 -193 19t-176 30l-67 15l29 219q275 -37 420 -37q110 0 163.5 47.5t53.5 132.5q0 65 -50.5 103t-199.5 80q-237 68 -334.5 161
t-97.5 259q0 209 126.5 311t348.5 102q83 0 197.5 -13.5t187.5 -27.5l74 -14l-23 -223q-288 32 -407 32q-112 0 -168 -38.5t-56 -108.5q0 -65 55 -100.5t234 -92.5q156 -50 237.5 -99.5t118.5 -122t37 -189.5q0 -197 -109 -308.5t-292 -131.5v-56q65 -1 107.5 -8t77.5 -26.5
t51 -56t16 -93.5z" />
    <glyph glyph-name="scedilla" unicode="&#x15f;" horiz-adv-x="966" 
d="M776 -260q0 -117 -60 -175.5t-167 -58.5q-39 0 -87 6t-76 12l-28 5l9 160q63 -2 98 -2q78 0 78 53q0 26 -18 35.5t-60 9.5h-49v195q-65 4 -146.5 15.5t-130.5 20.5l-49 9l8 229q255 -33 359 -33q94 0 130 19t36 61q0 25 -13.5 39t-59 28t-138.5 29q-91 15 -147.5 33.5
t-103 53.5t-67 90.5t-20.5 138.5q0 87 31 152.5t86 104.5t125 58t153 19q65 0 164.5 -13t166.5 -26l66 -13l-4 -227q-254 33 -373 33q-85 0 -114 -19t-29 -63q0 -34 40 -49.5t187 -42.5q182 -33 252 -100t70 -220q0 -317 -371 -330v-53q65 -1 107.5 -8t77.5 -26.5t51 -56
t16 -93.5z" />
    <glyph glyph-name="Scaron" unicode="&#x160;" horiz-adv-x="1114" 
d="M1010 1362l-23 -223q-288 32 -407 32q-112 0 -168 -38.5t-56 -108.5q0 -65 55 -100.5t234 -92.5q156 -50 237.5 -99.5t118.5 -122t37 -189.5q0 -147 -64 -249t-170.5 -149t-246.5 -47q-84 0 -200.5 16t-190.5 32l-74 16l29 219q275 -37 420 -37q110 0 163.5 47.5
t53.5 132.5q0 65 -50.5 103t-199.5 80q-237 68 -334.5 161t-97.5 259q0 209 126.5 311t348.5 102q83 0 197.5 -13.5t187.5 -27.5zM481 1567l-274 305h291l106 -115l101 115h290l-274 -305h-240z" />
    <glyph glyph-name="scaron" unicode="&#x161;" horiz-adv-x="966" 
d="M866 995l-4 -227q-254 33 -373 33q-85 0 -114 -19t-29 -63q0 -34 40 -49.5t187 -42.5q182 -33 252 -100t70 -220q0 -174 -106 -253t-306 -79q-68 0 -166 12.5t-163 24.5l-64 13l8 229q255 -33 359 -33q94 0 130 19t36 61q0 25 -13.5 39t-59 28t-138.5 29
q-91 15 -147.5 33.5t-103 53.5t-67 90.5t-20.5 138.5q0 87 31 152.5t86 104.5t125 58t153 19q65 0 164.5 -13t166.5 -26zM416 1188l-258 309h252l94 -137l94 137h252l-262 -309h-172z" />
    <glyph glyph-name="Tcedilla" unicode="&#x162;" horiz-adv-x="0" 
 />
    <glyph glyph-name="tcedilla" unicode="&#x163;" horiz-adv-x="745" 
d="M582 -260q0 -117 -60.5 -175.5t-167.5 -58.5q-39 0 -86.5 6t-75.5 12l-28 5l8 160q63 -2 98 -2q78 0 78 53q0 26 -18 35.5t-60 9.5h-49v217h92q-81 33 -113 117t-32 246v426h-121v233h121v285h274v-285h252v-233h-252v-420q0 -32 0.5 -47t3 -36.5t7.5 -30.5t14.5 -19
t24.5 -13.5t36 -3.5l156 4l12 -219q-137 -31 -209 -31q-95 0 -157 21v-72q65 -1 107.5 -8t77.5 -26.5t51 -56t16 -93.5z" />
    <glyph glyph-name="Tcaron" unicode="&#x164;" horiz-adv-x="1077" 
d="M27 1143v250h1024v-250h-369v-1143h-283v1143h-372zM422 1567l-275 305h291l107 -115l100 115h291l-274 -305h-240z" />
    <glyph glyph-name="tcaron" unicode="&#x165;" horiz-adv-x="997" 
d="M696 774h-252v-387q0 -39 0.5 -56t5 -39.5t13.5 -31.5t25 -15.5t42 -6.5l156 4l12 -236q-137 -31 -209 -31q-185 0 -252 83.5t-67 306.5v409h-121v248h121v287h274v-287h252v-248zM1036 1413v-532h-266v532h266z" />
    <glyph glyph-name="Tbar" unicode="&#x166;" horiz-adv-x="1081" 
d="M29 1143v250h1024v-250h-369v-387h285v-238h-285v-518h-283v518h-270v238h270v387h-372z" />
    <glyph glyph-name="tbar" unicode="&#x167;" horiz-adv-x="747" 
d="M694 774h-252v-141h195v-205h-195v-41q0 -39 0.5 -56t5 -39.5t13.5 -31.5t25 -15.5t42 -6.5l156 4l12 -236q-137 -31 -209 -31q-185 0 -252 83.5t-67 306.5v63h-62v205h62v141h-121v248h121v287h274v-287h252v-248z" />
    <glyph glyph-name="Utilde" unicode="&#x168;" horiz-adv-x="1339" 
d="M422 465q0 -124 61.5 -184t186.5 -60q248 0 248 244v928h282v-922q0 -257 -132 -376.5t-398 -119.5t-398.5 119.5t-132.5 376.5v922h283v-928zM991 1880l60 -199q-4 -5 -12 -14t-33 -31t-50 -39t-59.5 -31t-65.5 -14q-58 0 -187.5 47.5t-158.5 47.5q-25 0 -66 -21.5
t-69 -43.5l-28 -21l-60 196q4 5 12.5 14t33 31.5t49.5 40t59 31.5t65 14q54 0 127 -23.5t133 -47t82 -23.5q24 0 66 21.5t72 42.5z" />
    <glyph glyph-name="utilde" unicode="&#x169;" horiz-adv-x="1132" 
d="M1006 1024h-275v-766q-94 -37 -196 -37q-34 0 -57.5 6t-39.5 22t-25.5 34t-14 51.5t-6 65t-1.5 83.5v541h-274v-537q0 -138 14.5 -227.5t53.5 -157t110 -97.5t182 -30q48 0 112 20.5t104 40.5l40 21v-57h273v1024zM840 1481l59 -156q-4 -5 -12 -13.5t-32.5 -30.5t-49 -39
t-58 -30.5t-63.5 -13.5q-45 0 -138.5 37t-125.5 37q-25 0 -64.5 -16t-66.5 -32l-27 -16l-59 154q4 5 12 13.5t32 29.5t48.5 37t57.5 29.5t63 13.5q45 0 140 -37t120 -37q24 0 65 17.5t70 35.5z" />
    <glyph glyph-name="Umacron" unicode="&#x16a;" horiz-adv-x="1339" 
d="M422 465q0 -124 61.5 -184t186.5 -60q248 0 248 244v928h282v-922q0 -257 -132 -376.5t-398 -119.5t-398.5 119.5t-132.5 376.5v922h283v-928zM322 1602v200h710v-200h-710z" />
    <glyph glyph-name="umacron" unicode="&#x16b;" horiz-adv-x="1132" 
d="M1006 1024h-275v-766q-94 -37 -196 -37q-34 0 -57.5 6t-39.5 22t-25.5 34t-14 51.5t-6 65t-1.5 83.5v541h-274v-537q0 -138 14.5 -227.5t53.5 -157t110 -97.5t182 -30q48 0 112 20.5t104 40.5l40 21v-57h273v1024zM272 1223v204h588v-204h-588z" />
    <glyph glyph-name="Ubreve" unicode="&#x16c;" horiz-adv-x="1339" 
d="M422 465q0 -124 61.5 -184t186.5 -60q248 0 248 244v928h282v-922q0 -257 -132 -376.5t-398 -119.5t-398.5 119.5t-132.5 376.5v922h283v-928zM297 1864h248q8 -52 43 -84.5t90 -32.5q58 0 93.5 32.5t41.5 84.5h248q-16 -140 -111 -225t-272 -85t-271 85t-110 225z" />
    <glyph glyph-name="ubreve" unicode="&#x16d;" horiz-adv-x="1132" 
d="M1006 1024h-275v-766q-94 -37 -196 -37q-34 0 -57.5 6t-39.5 22t-25.5 34t-14 51.5t-6 65t-1.5 83.5v541h-274v-537q0 -138 14.5 -227.5t53.5 -157t110 -97.5t182 -30q48 0 112 20.5t104 40.5l40 21v-57h273v1024zM229 1495h207q8 -63 41.5 -99t87.5 -36q57 0 90 36.5
t39 98.5h207q-8 -63 -32.5 -119.5t-65.5 -102t-102.5 -72.5t-135.5 -27t-135.5 27t-102.5 72.5t-65.5 102t-32.5 119.5z" />
    <glyph glyph-name="Uring" unicode="&#x16e;" horiz-adv-x="1339" 
d="M422 465q0 -124 61.5 -184t186.5 -60q248 0 248 244v928h282v-922q0 -257 -132 -376.5t-398 -119.5t-398.5 119.5t-132.5 376.5v922h283v-928zM985 1718q0 -120 -88.5 -189t-218.5 -69q-131 0 -219 69t-88 189t88 189t219 69q130 0 218.5 -69t88.5 -189zM557 1718
q0 -38 33 -61t88 -23t88 23t33 61t-33 61t-88 23t-88 -23t-33 -61z" />
    <glyph glyph-name="uring" unicode="&#x16f;" horiz-adv-x="1132" 
d="M1006 1024h-275v-766q-94 -37 -196 -37q-34 0 -57.5 6t-39.5 22t-25.5 34t-14 51.5t-6 65t-1.5 83.5v541h-274v-537q0 -138 14.5 -227.5t53.5 -157t110 -97.5t182 -30q48 0 112 20.5t104 40.5l40 21v-57h273v1024zM326 1307q0 100 68.5 169.5t170.5 69.5q100 0 170 -69.5
t70 -169.5q0 -102 -70 -171t-170 -69q-103 0 -171 68.5t-68 171.5zM473 1307q0 -41 26.5 -68t67.5 -27q40 0 66 27t26 68q0 40 -26 66t-66 26q-41 0 -67.5 -26t-26.5 -66z" />
    <glyph glyph-name="Uhungarumlaut" unicode="&#x170;" horiz-adv-x="1339" 
d="M422 465q0 -124 61.5 -184t186.5 -60q248 0 248 244v928h282v-922q0 -257 -132 -376.5t-398 -119.5t-398.5 119.5t-132.5 376.5v922h283v-928zM739 1587l138 404l237 -86l-160 -392zM313 1589l138 404l237 -86l-160 -391z" />
    <glyph glyph-name="uhungarumlaut" unicode="&#x171;" horiz-adv-x="1132" 
d="M1006 1024h-275v-766q-94 -37 -196 -37q-34 0 -57.5 6t-39.5 22t-25.5 34t-14 51.5t-6 65t-1.5 83.5v541h-274v-537q0 -138 14.5 -227.5t53.5 -157t110 -97.5t182 -30q48 0 112 20.5t104 40.5l40 21v-57h273v1024zM614 1286l240 389l223 -137l-256 -385zM197 1286
l239 387l223 -135l-256 -385z" />
    <glyph glyph-name="Uogonek" unicode="&#x172;" horiz-adv-x="1343" 
d="M424 465q0 -124 61.5 -184t186.5 -60q248 0 248 244v928h282v-922q0 -207 -85.5 -323.5t-256.5 -153.5q-20 -17 -41 -38.5t-44 -57.5t-23 -64q0 -33 18 -50t47 -17l86 8l25 -195q-121 -22 -209 -22q-98 0 -160.5 53t-62.5 143q0 124 108 223q-232 14 -347.5 133.5
t-115.5 360.5v922h283v-928z" />
    <glyph glyph-name="uogonek" unicode="&#x173;" horiz-adv-x="1132" 
d="M731 1022h275v-1022q-6 -3 -16 -8.5t-35 -23.5t-44 -36t-35 -45t-16 -53q0 -32 18.5 -49.5t47.5 -17.5l86 8l24 -195q-121 -22 -209 -22q-98 0 -160.5 53t-62.5 143q0 134 152 246h-25v43q-160 -68 -254 -68q-89 0 -152 20.5t-103.5 58t-63.5 102.5t-32 142.5t-9 188.5
v535h274v-535q0 -40 0.5 -64.5t2.5 -54t6.5 -46.5t11.5 -35.5t17.5 -28.5t25.5 -19t34.5 -12.5t45.5 -3.5q30 0 79 8.5t83 17.5l34 9v764z" />
    <glyph glyph-name="Wcircumflex" unicode="&#x174;" horiz-adv-x="1904" 
d="M39 1393h297l172 -1151h31l249 1151h328l250 -1151h31l172 1151h297l-267 -1393h-428l-219 1059l-219 -1059h-428zM559 1567l275 305h239l275 -305h-291l-101 114l-106 -114h-291z" />
    <glyph glyph-name="wcircumflex" unicode="&#x175;" horiz-adv-x="1581" 
d="M49 1024h270l125 -791h50l155 771h283l155 -771h50l125 791h270l-195 -1024h-430l-116 627l-117 -627h-430zM449 1188l258 309h172l262 -309h-252l-94 137l-95 -137h-251z" />
    <glyph glyph-name="Ycircumflex" unicode="&#x176;" horiz-adv-x="1140" 
d="M713 563v-563h-283v563l-430 830h313l256 -555l256 555h314zM180 1567l275 305h239l275 -305h-291l-100 114l-107 -114h-291z" />
    <glyph glyph-name="ycircumflex" unicode="&#x177;" horiz-adv-x="1024" 
d="M33 1024h270l186 -791h48l186 791h270l-360 -1454h-268l112 430h-192zM168 1188l258 309h172l262 -309h-252l-94 137l-94 -137h-252z" />
    <glyph glyph-name="Ydieresis" unicode="&#x178;" horiz-adv-x="1140" 
d="M713 563v-563h-283v563l-430 830h313l256 -555l256 555h314zM215 1565v270h262v-270h-262zM653 1565v270h262v-270h-262z" />
    <glyph glyph-name="Zacute" unicode="&#x179;" horiz-adv-x="1089" 
d="M84 1147v246h922v-246l-582 -864v-37h582v-246h-922v244l582 866v37h-582zM248 1718l516 217l84 -245l-533 -162z" />
    <glyph glyph-name="zacute" unicode="&#x17a;" horiz-adv-x="929" 
d="M84 1024v-246h430l-430 -532v-246h760v246h-430l430 532v246h-760zM168 1333l516 209l82 -235l-537 -152z" />
    <glyph glyph-name="Zdotaccent" unicode="&#x17b;" horiz-adv-x="1089" 
d="M84 1147v246h922v-246l-582 -864v-37h582v-246h-922v244l582 866v37h-582zM408 1571v276h274v-276h-274z" />
    <glyph glyph-name="zdotaccent" unicode="&#x17c;" horiz-adv-x="929" 
d="M84 1024v-246h430l-430 -532v-246h760v246h-430l430 532v246h-760zM326 1139v276h274v-276h-274z" />
    <glyph glyph-name="Zcaron" unicode="&#x17d;" horiz-adv-x="1089" 
d="M84 1147v246h922v-246l-582 -864v-37h582v-246h-922v244l582 866v37h-582zM430 1567l-274 305h290l107 -115l100 115h291l-274 -305h-240z" />
    <glyph glyph-name="zcaron" unicode="&#x17e;" horiz-adv-x="929" 
d="M84 778v246h760v-246l-430 -532h430v-246h-760v246l430 532h-430zM397 1188l-258 309h252l94 -137l95 137h251l-262 -309h-172z" />
    <glyph glyph-name="florin" unicode="&#x192;" 
d="M657 -96q0 -144 -38.5 -227t-111.5 -115.5t-194 -32.5q-48 0 -104 6.5t-87 13.5l-32 7v225q132 -6 189 -6q104 0 104 135v881h-111v233h111v49q0 219 65 302t234 83q31 0 88.5 -6.5t99.5 -13.5l41 -6v-224q-89 4 -155 4q-57 0 -78 -31.5t-21 -109.5v-47h248v-233h-248
v-887z" />
    <glyph glyph-name="Aringacute" unicode="&#x1fa;" horiz-adv-x="1232" 
d="M922 1477q0 -66 -29 -119l305 -1358h-283l-55 252h-487l-56 -252h-282l303 1352q-31 54 -31 125q0 120 88 189t219 69q130 0 219 -69t89 -189zM567 1159l-141 -661h381l-141 661h-99zM291 1923l516 217l84 -246l-533 -161zM494 1477q0 -38 32.5 -61t87.5 -23h11
q51 1 80.5 24t29.5 60q0 38 -33 61t-88 23t-87.5 -23t-32.5 -61z" />
    <glyph glyph-name="aringacute" unicode="&#x1fb;" horiz-adv-x="1046" 
d="M911 705v-426q3 -49 16 -69.5t52 -27.5l-8 -207q-105 0 -167.5 15t-125.5 57q-16 -8 -45 -20t-108.5 -32t-147.5 -20q-159 0 -238.5 85.5t-79.5 250.5q0 85 23.5 144t72.5 94t111.5 52.5t151.5 23.5l219 16v64q0 63 -28 86.5t-93 23.5q-60 0 -156 -4t-162 -8l-67 -4
l-8 190q25 7 66.5 17t151.5 26.5t198 16.5q198 0 285 -81.5t87 -262.5zM637 451l-186 -17q-115 -10 -115 -115q0 -120 100 -120q39 0 89.5 8t80.5 16l31 8v220zM276 1307q0 100 69 169.5t171 69.5q100 0 170 -69.5t70 -169.5q0 -102 -70 -171t-170 -69q-103 0 -171.5 68.5
t-68.5 171.5zM424 1307q0 -41 26.5 -68t67.5 -27q40 0 66 27t26 68q0 40 -26 66t-66 26q-41 0 -67.5 -26t-26.5 -66zM221 1745l516 209l82 -236l-536 -151z" />
    <glyph glyph-name="AEacute" unicode="&#x1fc;" horiz-adv-x="1785" 
d="M805 0v238h-436l-60 -238h-282l376 1413h1299v-270h-619v-293h496v-268h-496v-312h619v-270h-897zM602 1143l-164 -633h367l2 633h-205zM748 1718l516 217l84 -245l-533 -162z" />
    <glyph glyph-name="aeacute" unicode="&#x1fd;" horiz-adv-x="1605" 
d="M1118 227q75 0 169.5 4.5t152.5 9.5l57 5l4 -213q-236 -58 -426 -58q-208 0 -313 99l-47 -23q-172 -76 -350 -76q-149 0 -227.5 89.5t-78.5 246.5q0 164 90 235t267 81l221 14v51q0 41 -28.5 66.5t-73.5 25.5q-68 0 -167.5 -5.5t-165.5 -10.5l-65 -6l-8 239
q272 46 422 46q177 0 264 -76q109 76 272 76q225 0 336 -114.5t111 -346.5l-21 -193h-602q2 -88 49.5 -127t157.5 -39zM420 211q37 0 91.5 7.5t90.5 15.5l35 8q0 32 -1 95t-1 95l-184 -8q-57 -3 -86 -27.5t-29 -77.5q0 -108 84 -108zM911 604h353q0 109 -40 154t-137 45
t-136.5 -47.5t-39.5 -151.5zM524 1333l516 209l82 -235l-536 -152z" />
    <glyph glyph-name="Oslashacute" unicode="&#x1fe;" horiz-adv-x="1339" 
d="M670 -25q-97 0 -197 21l-119 -256l-200 100l118 254q-96 85 -138 231t-42 363q0 183 29 314t95.5 226.5t179 142t274.5 46.5q118 0 207 -24l124 266l205 -88l-133 -287q174 -168 174 -596q0 -145 -18 -255.5t-59 -198.5t-107.5 -144t-164 -85.5t-228.5 -29.5zM383 688
q0 -191 31 -291l354 760q-51 14 -98 14q-165 0 -226 -114t-61 -369zM670 221q85 0 141 26.5t88 87t44.5 144t12.5 209.5q0 181 -28 285l-346 -744q36 -8 88 -8zM348 1718l516 217l84 -245l-532 -162z" />
    <glyph glyph-name="oslashacute" unicode="&#x1ff;" horiz-adv-x="1089" 
d="M545 1049q-130 0 -223 -38.5t-146.5 -111.5t-77.5 -167.5t-24 -217.5q0 -340 182 -463l-88 -211l164 -61l84 209q63 -13 129 -13q130 0 223 39t146.5 113t77.5 169t24 218q0 347 -193 467l84 201l-166 61l-82 -205q-64 11 -114 11zM248 1333l516 209l82 -235l-537 -152z
M545 209q-29 0 -41 2l205 506q28 -69 28 -203q0 -158 -41.5 -231.5t-150.5 -73.5zM545 815q4 0 13 -1t13 -1l-194 -494q-25 68 -25 195q0 157 42 229t151 72z" />
    <glyph glyph-name="Scommaaccent" unicode="&#x218;" horiz-adv-x="1114" 
d="M440 -158l-94 -479h248l113 479h-267zM1010 1362l-23 -223q-288 32 -407 32q-112 0 -168 -38.5t-56 -108.5q0 -65 55 -100.5t234 -92.5q156 -50 237.5 -99.5t118.5 -122t37 -189.5q0 -147 -64 -249t-170.5 -149t-246.5 -47q-84 0 -200.5 16t-190.5 32l-74 16l29 219
q275 -37 420 -37q110 0 163.5 47.5t53.5 132.5q0 65 -50.5 103t-199.5 80q-237 68 -334.5 161t-97.5 259q0 209 126.5 311t348.5 102q83 0 197.5 -13.5t187.5 -27.5z" />
    <glyph glyph-name="scommaaccent" unicode="&#x219;" horiz-adv-x="966" 
d="M59 -158l-94 -479h248l113 479h-267zM866 995l-4 -227q-254 33 -373 33q-85 0 -114 -19t-29 -63q0 -34 40 -49.5t187 -42.5q182 -33 252 -100t70 -220q0 -174 -106 -253t-306 -79q-68 0 -166 12.5t-163 24.5l-64 13l8 229q255 -33 359 -33q94 0 130 19t36 61
q0 25 -13.5 39t-59 28t-138.5 29q-91 15 -147.5 33.5t-103 53.5t-67 90.5t-20.5 138.5q0 87 31 152.5t86 104.5t125 58t153 19q65 0 164.5 -13t166.5 -26z" />
    <glyph glyph-name="Tcommaaccent" unicode="&#x21a;" horiz-adv-x="1077" 
d="M457 -158l-95 -479h248l113 479h-266zM27 1143v250h1024v-250h-369v-1143h-283v1143h-372z" />
    <glyph glyph-name="tcommaaccent" unicode="&#x21b;" horiz-adv-x="745" 
d="M100 -158l-94 -479h248l113 479h-267zM694 791h-252v-420q0 -32 0.5 -47t3 -36.5t7.5 -30.5t14.5 -19t24.5 -13.5t36 -3.5l156 4l12 -219q-137 -31 -209 -31q-185 0 -252 83.5t-67 306.5v426h-121v233h121v285h274v-285h252v-233z" />
    <glyph glyph-name="circumflex" unicode="&#x2c6;" horiz-adv-x="548" 
d="M-49 1188l258 309h172l262 -309h-252l-94 137l-94 -137h-252z" />
    <glyph glyph-name="caron" unicode="&#x2c7;" horiz-adv-x="548" 
d="M217 1188l-258 309h252l94 -137l94 137h252l-262 -309h-172z" />
    <glyph glyph-name="breve" unicode="&#x2d8;" horiz-adv-x="548" 
d="M-41 1495h207q8 -63 41.5 -99t87.5 -36q57 0 90 36.5t39 98.5h207q-8 -63 -32.5 -119.5t-65.5 -102t-102.5 -72.5t-135.5 -27t-135.5 27t-102.5 72.5t-65.5 102t-32.5 119.5z" />
    <glyph glyph-name="dotaccent" unicode="&#x2d9;" horiz-adv-x="548" 
d="M137 1139v276h275v-276h-275z" />
    <glyph glyph-name="ring" unicode="&#x2da;" horiz-adv-x="548" 
d="M41 1307q0 100 69 169.5t171 69.5q100 0 169.5 -69.5t69.5 -169.5q0 -102 -69.5 -171t-169.5 -69q-103 0 -171.5 68.5t-68.5 171.5zM188 1307q0 -41 27 -68t68 -27q40 0 66 27t26 68q0 40 -26 66t-66 26q-41 0 -68 -26t-27 -66z" />
    <glyph glyph-name="ogonek" unicode="&#x2db;" horiz-adv-x="970" 
d="M823 2q-5 -4 -13 -11t-28 -27.5t-35.5 -39.5t-28.5 -44.5t-13 -45.5q0 -33 18 -50t47 -17l86 8l25 -195q-121 -22 -209 -22q-98 0 -160.5 53t-62.5 143q0 46 17 91t41.5 76t48.5 55t41 36l17 11z" />
    <glyph glyph-name="tilde" unicode="&#x2dc;" horiz-adv-x="548" 
d="M592 1481l59 -156q-4 -5 -12 -13.5t-32.5 -30.5t-49 -39t-58 -30.5t-63.5 -13.5q-45 0 -138.5 37t-125.5 37q-25 0 -64.5 -16t-66.5 -32l-27 -16l-59 154q4 5 12 13.5t32 29.5t48.5 37t57.5 29.5t63 13.5q45 0 140 -37t120 -37q24 0 65 17.5t70 35.5z" />
    <glyph glyph-name="hungarumlaut" unicode="&#x2dd;" horiz-adv-x="548" 
d="M315 1286l240 389l223 -137l-256 -385zM-102 1286l239 387l223 -135l-256 -385z" />
    <glyph glyph-name="pi" unicode="&#x3c0;" 
d="M655 315v476h-174l-53 -791h-276l65 791q-28 0 -73 -6.5t-76 -13.5l-31 -7v223q131 37 307 37h514q52 0 108 6t86 12l29 7v-226q-49 -22 -151 -28v-480q0 -55 28 -78.5t113 -23.5v-233q-96 0 -160 5t-112.5 21.5t-75 38t-43 62.5t-21 87.5t-4.5 120.5z" />
    <glyph glyph-name="Wgrave" unicode="&#x1e80;" horiz-adv-x="1904" 
d="M39 1393h297l172 -1151h31l249 1151h328l250 -1151h31l172 1151h297l-267 -1393h-428l-219 1059l-219 -1059h-428zM754 1935l516 -217l-68 -190l-532 162z" />
    <glyph glyph-name="wgrave" unicode="&#x1e81;" horiz-adv-x="1581" 
d="M49 1024h270l125 -791h50l155 771h283l155 -771h50l125 791h270l-195 -1024h-430l-116 627l-117 -627h-430zM541 1542l516 -209l-62 -178l-536 152z" />
    <glyph glyph-name="Wacute" unicode="&#x1e82;" horiz-adv-x="1904" 
d="M39 1393h297l172 -1151h31l249 1151h328l250 -1151h31l172 1151h297l-267 -1393h-428l-219 1059l-219 -1059h-428zM674 1718l516 217l84 -245l-533 -162z" />
    <glyph glyph-name="wacute" unicode="&#x1e83;" horiz-adv-x="1581" 
d="M49 1024h270l125 -791h50l155 771h283l155 -771h50l125 791h270l-195 -1024h-430l-116 627l-117 -627h-430zM514 1333l516 209l82 -235l-537 -152z" />
    <glyph glyph-name="Wdieresis" unicode="&#x1e84;" horiz-adv-x="1904" 
d="M39 1393h297l172 -1151h31l249 1151h328l250 -1151h31l172 1151h297l-267 -1393h-428l-219 1059l-219 -1059h-428zM598 1565v270h262v-270h-262zM1036 1565v270h262v-270h-262z" />
    <glyph glyph-name="wdieresis" unicode="&#x1e85;" horiz-adv-x="1581" 
d="M49 1024h270l125 -791h50l155 771h283l155 -771h50l125 791h270l-195 -1024h-430l-116 627l-117 -627h-430zM442 1221v270h263v-270h-263zM885 1221v270h262v-270h-262z" />
    <glyph glyph-name="uni1EAB" unicode="&#x1eab;" horiz-adv-x="1046" 
d="M911 705v-426q3 -49 16 -69.5t52 -27.5l-8 -207q-105 0 -167.5 15t-125.5 57q-16 -8 -45 -20t-108.5 -32t-147.5 -20q-159 0 -238.5 85.5t-79.5 250.5q0 85 23.5 144t72.5 94t111.5 52.5t151.5 23.5l219 16v64q0 63 -28 86.5t-93 23.5q-60 0 -156 -4t-162 -8l-67 -4
l-8 190q25 7 66.5 17t151.5 26.5t198 16.5q198 0 285 -81.5t87 -262.5zM637 451l-186 -17q-115 -10 -115 -115q0 -120 100 -120q39 0 89.5 8t80.5 16l31 8v220zM135 1126l258 310h172l262 -310h-252l-94 138l-94 -138h-252zM762 1808l59 -155q-4 -5 -12 -13.5t-32.5 -30.5
t-49 -39t-58 -30.5t-63.5 -13.5q-45 0 -138.5 36.5t-125.5 36.5q-25 0 -64.5 -15.5t-66.5 -31.5l-27 -16l-59 154q4 5 12 13t32 29t48.5 37.5t57.5 29.5t63 13q45 0 140 -36.5t120 -36.5q24 0 65 17.5t70 34.5z" />
    <glyph glyph-name="uni1EB0" unicode="&#x1eb0;" horiz-adv-x="1228" 
d="M35 0l313 1413h537l307 -1413h-283l-63 238h-475l-54 -238h-282zM567 1153l-137 -643h363l-134 643h-92zM242 1782h247q8 -51 43.5 -84t90.5 -33q58 0 93.5 32.5t41.5 84.5h248q-16 -140 -111 -224.5t-272 -84.5t-271 84.5t-110 224.5zM293 2281l516 -208l-61 -179
l-537 152z" />
    <glyph glyph-name="uni1EC5" unicode="&#x1ec5;" horiz-adv-x="1046" 
d="M559 227q75 0 169.5 4.5t151.5 9.5l58 5l4 -213q-236 -58 -426 -58q-232 0 -336 123.5t-104 399.5q0 549 452 549q225 0 336 -114.5t111 -346.5l-21 -193h-602q2 -88 49.5 -127t157.5 -39zM350 604h355q0 109 -40 154t-137 45q-96 0 -136 -47.5t-42 -151.5zM195 1126
l258 310h172l262 -310h-252l-94 138l-95 -138h-251zM807 1808l59 -155q-4 -5 -12 -13.5t-32.5 -30.5t-49 -39t-58 -30.5t-63.5 -13.5q-45 0 -138.5 36.5t-125.5 36.5q-25 0 -64.5 -15.5t-66.5 -31.5l-27 -16l-59 154q4 5 12 13t32 29t48.5 37.5t57.5 29.5t63 13
q45 0 140 -36.5t120 -36.5q24 0 65 17.5t70 34.5z" />
    <glyph glyph-name="uni1ED7" unicode="&#x1ed7;" horiz-adv-x="1089" 
d="M545 1049q-130 0 -223 -38.5t-146.5 -111.5t-77.5 -167.5t-24 -217.5t24 -218t77.5 -169t146.5 -113t223 -39t223 39t146.5 113t77.5 169t24 218t-24 217.5t-77.5 167.5t-146.5 111.5t-223 38.5zM545 209q-109 0 -151 73.5t-42 231.5q0 157 42 229t151 72t150.5 -72
t41.5 -229q0 -158 -41.5 -231.5t-150.5 -73.5zM201 1126l258 310h172l262 -310h-252l-94 138l-94 -138h-252zM807 1808l59 -155q-4 -5 -12 -13.5t-32.5 -30.5t-49 -39t-58 -30.5t-63.5 -13.5q-45 0 -138.5 36.5t-125.5 36.5q-25 0 -64.5 -15.5t-66.5 -31.5l-27 -16l-59 154
q4 5 12 13t32 29t48.5 37.5t57.5 29.5t63 13q45 0 140 -36.5t120 -36.5q24 0 65 17.5t70 34.5z" />
    <glyph glyph-name="Ygrave" unicode="&#x1ef2;" horiz-adv-x="1140" 
d="M713 563v-563h-283v563l-430 830h313l256 -555l256 555h314zM373 1935l516 -217l-68 -190l-532 162z" />
    <glyph glyph-name="ygrave" unicode="&#x1ef3;" horiz-adv-x="1024" 
d="M33 1024h270l186 -791h48l186 791h270l-360 -1454h-268l112 430h-192zM246 1542l516 -209l-62 -178l-536 152z" />
    <glyph glyph-name="uni1EF8" unicode="&#x1ef8;" horiz-adv-x="1107" 
d="M698 602v-602h-282v604l-426 809h313l252 -493l250 493h313zM838 1872l59 -156q-4 -5 -12 -13.5t-32.5 -30.5t-49 -39t-58 -30.5t-63.5 -13.5q-45 0 -138.5 37t-125.5 37q-25 0 -64.5 -16t-66.5 -32l-27 -16l-59 154q4 5 12 13.5t32 29.5t48.5 37t57.5 29.5t63 13.5
q45 0 140 -37t120 -37q24 0 65 17.5t70 34.5z" />
    <glyph glyph-name="uni1EF9" unicode="&#x1ef9;" horiz-adv-x="1024" 
d="M33 1022h270l186 -754h48l186 754h270l-360 -1452h-268l104 430h-184zM797 1481l59 -156q-4 -5 -12 -13.5t-32.5 -30.5t-49 -39t-58 -30.5t-63.5 -13.5q-45 0 -138.5 37t-125.5 37q-25 0 -64.5 -16t-66.5 -32l-27 -16l-59 154q4 5 12 13.5t32 29.5t48.5 37t57.5 29.5
t63 13.5q45 0 140 -37t120 -37q24 0 65 17.5t70 35.5z" />
    <glyph glyph-name="endash" unicode="&#x2013;" horiz-adv-x="1257" 
d="M117 662h1024v-234h-1024v234z" />
    <glyph glyph-name="emdash" unicode="&#x2014;" horiz-adv-x="2281" 
d="M117 662h2048v-234h-2048v234z" />
    <glyph glyph-name="quoteleft" unicode="&#x2018;" horiz-adv-x="530" 
d="M457 1391l-99 -506h-286l174 506h211z" />
    <glyph glyph-name="quoteright" unicode="&#x2019;" horiz-adv-x="520" 
d="M84 887l96 506h289l-174 -506h-211z" />
    <glyph glyph-name="quotesinglbase" unicode="&#x201a;" horiz-adv-x="524" 
d="M47 -240l96 506h289l-174 -506h-211z" />
    <glyph glyph-name="quotedblleft" unicode="&#x201c;" horiz-adv-x="907" 
d="M834 1391l-99 -506h-286l174 506h211zM457 1391l-99 -506h-286l174 506h211z" />
    <glyph glyph-name="quotedblright" unicode="&#x201d;" horiz-adv-x="899" 
d="M84 889l96 506h289l-176 -506h-209zM461 889l96 506h289l-174 -506h-211z" />
    <glyph glyph-name="quotedblbase" unicode="&#x201e;" horiz-adv-x="862" 
d="M371 240l-99 -506h-286l174 506h211zM760 240l-98 -506h-287l174 506h211z" />
    <glyph glyph-name="dagger" unicode="&#x2020;" horiz-adv-x="983" 
d="M57 791v233h297v369h275v-369h297v-233h-297l-21 -936h-233l-21 936h-297z" />
    <glyph glyph-name="daggerdbl" unicode="&#x2021;" horiz-adv-x="1048" 
d="M387 -145v368h-297v234h297v334h-297v233h297v369h275v-369h294v-233h-294v-334h296v-234h-296v-368h-275z" />
    <glyph glyph-name="bullet" unicode="&#x2022;" horiz-adv-x="921" 
d="M205 205v573h512v-573h-512z" />
    <glyph glyph-name="ellipsis" unicode="&#x2026;" horiz-adv-x="1568" 
d="M115 0v340h295v-340h-295zM637 0v340h295v-340h-295zM1159 0v340h295v-340h-295z" />
    <glyph glyph-name="perthousand" unicode="&#x2030;" horiz-adv-x="1730" 
d="M305 1212q27 0 36 -29.5t9 -103.5t-9 -104.5t-36 -30.5t-36 30.5t-9 104.5t9 103.5t36 29.5zM287 -16l481 1448l150 -54l-482 -1444zM59 1079q0 -148 63 -223.5t183 -75.5t183 75.5t63 223.5t-63 222.5t-183 74.5t-183 -74.5t-63 -222.5zM657 274q0 148 63 222.5
t183 74.5t183 -74.5t63 -222.5t-63 -223.5t-183 -75.5t-183 75.5t-63 223.5zM858 274q0 -74 9 -104.5t36 -30.5t36 30.5t9 104.5t-9 104t-36 30t-36 -30t-9 -104zM1184 274q0 148 63 222.5t183 74.5t182.5 -74.5t62.5 -222.5t-63 -223.5t-182 -75.5q-120 0 -183 75.5
t-63 223.5zM1384 274q0 -74 9.5 -104.5t36.5 -30.5t36 30.5t9 104.5t-9 104t-36 30t-36.5 -30.5t-9.5 -103.5z" />
    <glyph glyph-name="guilsinglleft" unicode="&#x2039;" horiz-adv-x="651" 
d="M539 653l-224 -153l224 -176v-277l-457 350v197l457 336v-277z" />
    <glyph glyph-name="guilsinglright" unicode="&#x203a;" horiz-adv-x="651" 
d="M334 520l-223 154v276l456 -336v-196l-456 -350v276z" />
    <glyph glyph-name="fraction" unicode="&#x2044;" horiz-adv-x="20" 
d="M-459 59l805 1295l109 -72l-805 -1296z" />
    <glyph glyph-name="zerosuperior" unicode="&#x2070;" horiz-adv-x="573" 
d="M287 1640q136 0 200 -78t64 -268q0 -189 -63.5 -263.5t-200.5 -74.5t-200.5 74.5t-63.5 263.5q0 190 64 268t200 78zM287 1446q-15 0 -22.5 -9.5t-12 -43t-4.5 -99.5q0 -65 4.5 -96.5t12 -39t22.5 -7.5q16 0 23.5 8t11.5 38.5t4 96.5q0 97 -8 124.5t-31 27.5z" />
    <glyph glyph-name="foursuperior" unicode="&#x2074;" horiz-adv-x="573" 
d="M299 979v72h-270v180l80 387h241l-106 -373h55l29 185h186v-185h23v-194h-23v-72h-215z" />
    <glyph glyph-name="fivesuperior" unicode="&#x2075;" horiz-adv-x="573" 
d="M90 1618h424v-184h-254l-6 -52q57 13 90 13q94 0 142.5 -48t48.5 -155q0 -227 -242 -227q-47 0 -107.5 7t-97.5 14l-37 7l17 174q114 -18 190 -18q51 0 51 31q0 32 -28 32l-54 -8l-159 23z" />
    <glyph glyph-name="sixsuperior" unicode="&#x2076;" horiz-adv-x="573" 
d="M526 1616l-12 -178q-135 12 -192 12q-68 0 -68 -53q0 -1 12.5 1.5t32.5 5.5t33 3q112 0 162.5 -53.5t50.5 -161.5q0 -111 -69 -173.5t-175 -62.5q-268 0 -268 318q0 183 62.5 274.5t217.5 91.5q33 0 86 -6t90 -12zM293 1231q-11 0 -21 -4.5t-14 -8.5l-4 -4
q0 -30 10 -49.5t27 -19.5q15 0 25 11.5t10 31.5q0 43 -33 43z" />
    <glyph glyph-name="sevensuperior" unicode="&#x2077;" horiz-adv-x="573" 
d="M53 1403v215h465v-207l-194 -453l-248 39l186 379v27h-209z" />
    <glyph glyph-name="eightsuperior" unicode="&#x2078;" horiz-adv-x="573" 
d="M287 1640q254 0 254 -184q0 -41 -14 -77t-28 -52l-14 -16q3 -2 7 -5t15 -15t19.5 -26.5t15.5 -39.5t7 -54q0 -117 -65 -166t-197 -49q-133 0 -197.5 49t-64.5 166q0 41 16.5 76.5t32.5 50.5l16 15q-2 2 -6 5t-13.5 16t-16.5 28t-13 41t-6 55q0 182 252 182zM287 1130
q39 0 39 46q0 26 -25 51h-29q-24 -24 -24 -51q0 -46 39 -46zM287 1466q-37 0 -37 -39q0 -25 22 -51h29q23 28 23 51q0 39 -37 39z" />
    <glyph glyph-name="ninesuperior" unicode="&#x2079;" horiz-adv-x="573" 
d="M53 985l13 178q100 -12 178 -12q67 0 67 47q0 1 -10 -1t-28 -4.5t-33 -2.5q-209 0 -209 213q0 112 65.5 174.5t177.5 62.5q140 0 204.5 -84.5t64.5 -252.5q0 -177 -62 -262t-207 -85q-44 0 -99 7t-89 15zM283 1358q7 0 17 3t16 6l6 3q0 80 -39 80q-15 0 -24 -12.5
t-9 -34.5q0 -21 10 -33t23 -12z" />
    <glyph glyph-name="zeroinferior" unicode="&#x2080;" horiz-adv-x="573" 
d="M287 457q136 0 200 -78t64 -268q0 -189 -63.5 -263.5t-200.5 -74.5t-200.5 74.5t-63.5 263.5q0 190 64 268t200 78zM287 262q-15 0 -22.5 -9.5t-12 -42.5t-4.5 -99q0 -65 4.5 -96.5t12 -39.5t22.5 -8q16 0 23.5 8t11.5 39t4 97q0 67 -4 99.5t-11.5 42t-23.5 9.5z" />
    <glyph glyph-name="oneinferior" unicode="&#x2081;" horiz-adv-x="573" 
d="M51 281l217 153h197v-639h-217v400l-96 -66z" />
    <glyph glyph-name="twoinferior" unicode="&#x2082;" horiz-adv-x="573" 
d="M526 -205h-473v185l150 120q52 41 73 67.5t21 49.5q0 18 -18 24.5t-58 6.5q-20 0 -58.5 -3t-67.5 -6l-29 -3l-9 202q150 19 242 19q126 0 176.5 -47.5t50.5 -157.5q0 -68 -26 -114t-88 -91l-78 -57h192v-195z" />
    <glyph glyph-name="threeinferior" unicode="&#x2083;" horiz-adv-x="573" 
d="M47 438q139 19 221 19q248 0 248 -183q0 -108 -59 -143q36 -15 53.5 -50t17.5 -99q0 -104 -63 -156.5t-178 -52.5q-44 0 -106 4t-102 8l-40 4l12 191q125 -13 193 -13q33 0 46 7t13 26q0 18 -11.5 23.5t-41.5 5.5h-135v174h131q41 0 41 28q0 31 -56 31q-34 0 -77 -2.5
t-69 -5.5l-26 -2z" />
    <glyph glyph-name="fourinferior" unicode="&#x2084;" horiz-adv-x="573" 
d="M307 -205v72h-270v180l80 387h241l-106 -373h55l29 185h186v-185h23v-194h-23v-72h-215z" />
    <glyph glyph-name="fiveinferior" unicode="&#x2085;" horiz-adv-x="573" 
d="M76 434h424v-184h-254l-6 -51q57 12 90 12q94 0 142 -48t48 -155q0 -227 -241 -227q-47 0 -107.5 7.5t-97.5 14.5l-37 7l16 174q115 -19 191 -19q51 0 51 31q0 33 -29 33l-53 -9l-160 23z" />
    <glyph glyph-name="sixinferior" unicode="&#x2086;" horiz-adv-x="573" 
d="M518 432l-12 -178q-136 12 -193 12q-67 0 -67 -53q0 -1 12.5 1.5t32.5 5.5t33 3q112 0 162.5 -53.5t50.5 -161.5q0 -111 -68.5 -173t-175.5 -62q-268 0 -268 317q0 183 62.5 275t217.5 92q33 0 86 -6.5t90 -12.5zM285 47q-11 0 -21 -4t-14 -8l-4 -4q0 -30 10 -50t27 -20
q15 0 24.5 11.5t9.5 31.5q0 43 -32 43z" />
    <glyph glyph-name="seveninferior" unicode="&#x2087;" horiz-adv-x="573" 
d="M53 219v215h465v-207l-194 -452l-248 39l186 379v26h-209z" />
    <glyph glyph-name="eightinferior" unicode="&#x2088;" horiz-adv-x="573" 
d="M285 457q254 0 254 -185q0 -41 -14 -77t-28 -52l-14 -16q3 -2 7 -5t15 -14.5t19.5 -26t15.5 -39.5t7 -54q0 -117 -65 -166t-197 -49q-133 0 -197.5 49t-64.5 166q0 41 16.5 76t32.5 50l16 15q-2 2 -6 5t-13.5 16t-16.5 28t-13 41t-6 55q0 183 252 183zM285 -53
q39 0 39 45q0 26 -25 51h-29q-24 -24 -24 -51q0 -45 39 -45zM285 283q-37 0 -37 -39q0 -25 22 -51h29q23 28 23 51q0 39 -37 39z" />
    <glyph glyph-name="nineinferior" unicode="&#x2089;" horiz-adv-x="573" 
d="M51 -199l12 179q101 -13 179 -13q67 0 67 47q0 1 -10 -1t-28 -4.5t-33 -2.5q-209 0 -209 213q0 113 65.5 175.5t177.5 62.5q140 0 204.5 -85t64.5 -253q0 -177 -62 -261.5t-207 -84.5q-44 0 -99 7t-89 14zM281 174q7 0 16.5 3t15.5 6l6 3q0 80 -38 80q-15 0 -24 -12.5
t-9 -34.5q0 -21 10 -33t23 -12z" />
    <glyph glyph-name="Euro" unicode="&#x20ac;" 
d="M53 727v209h127q31 239 145 339.5t357 100.5q154 0 395 -53l-8 -219q-70 11 -176 20t-170 9q-118 0 -176 -41t-82 -156h481v-209h-497v-51v-84h497v-209h-473q24 -93 81.5 -128.5t174.5 -35.5q129 0 340 27l6 -223q-79 -18 -194 -33t-199 -15q-234 0 -348.5 98.5
t-149.5 309.5h-131v209h113v84v51h-113z" />
    <glyph glyph-name="trademark" unicode="&#x2122;" horiz-adv-x="1351" 
d="M164 1157v162h409v-162h-84v-477h-180v477h-145zM625 678v641h211l84 -324l92 324h209v-641h-168v356l-70 -313h-113l-77 313v-356h-168z" />
    <glyph glyph-name="Omega" unicode="&#x2126;" 
d="M106 215h164q-8 9 -20.5 26t-45 74t-57 119.5t-45 158.5t-20.5 195q0 309 114 448.5t377 139.5t377.5 -139.5t114.5 -448.5q0 -99 -19.5 -194t-47 -160.5t-55 -117t-47.5 -76.5l-19 -25h163v-233h-426v202q7 11 17.5 31.5t38 82t48.5 122t38.5 143t17.5 154.5
q0 96 -4.5 158.5t-16.5 115t-34.5 81t-58 43.5t-87.5 15t-87.5 -15t-58 -43t-34.5 -81t-16 -115t-4 -159q0 -72 16.5 -153t39.5 -146t46.5 -119.5t40.5 -84.5l16 -30v-202h-426v233z" />
    <glyph glyph-name="partialdiff" unicode="&#x2202;" 
d="M174 1155l-8 211q20 10 54 25.5t131.5 41t185.5 25.5q277 0 400.5 -181.5t123.5 -565.5q0 -376 -123 -552.5t-399 -176.5q-237 0 -359.5 114.5t-122.5 345.5q0 218 117 336.5t332 118.5q62 0 127 -12.5t99 -24.5l34 -12q-12 214 -69 295.5t-208 81.5q-67 0 -145.5 -17.5
t-123.5 -35.5zM541 664q-189 0 -189 -222q0 -227 187 -227q114 0 170.5 95t56.5 308q-9 5 -26 12.5t-75.5 20.5t-123.5 13z" />
    <glyph glyph-name="Delta" unicode="&#x2206;" 
d="M90 213l254 1139h461l252 -1143v-209h-967v213zM602 1122h-55l-185 -889h422z" />
    <glyph glyph-name="product" unicode="&#x220f;" 
d="M686 -369v1680h-231v-1680h-283v1680h-109v245h1022v-245h-116v-1680h-283z" />
    <glyph glyph-name="summation" unicode="&#x2211;" 
d="M549 610l-488 660v286h1024v-245h-725v-31l441 -575v-191l-441 -606v-31h725v-246h-1024v285z" />
    <glyph glyph-name="minus" unicode="&#x2212;" 
d="M127 391v246h893v-246h-893z" />
    <glyph glyph-name="radical" unicode="&#x221a;" 
d="M2 655v246h340l188 -934h27l334 1653h278l-409 -1886h-438l-209 921h-111z" />
    <glyph glyph-name="infinity" unicode="&#x221e;" 
d="M340 248q-139 0 -212 87.5t-73 260.5q0 176 72 264t209 88q77 0 134.5 -36.5t102.5 -123.5q46 88 103 124t135 36q137 0 209 -87.5t72 -262.5t-72.5 -262.5t-212.5 -87.5q-76 0 -133 35.5t-101 122.5q-45 -87 -101 -122.5t-132 -35.5zM481 598q-30 59 -52.5 87t-49.5 28
q-74 0 -74 -117q0 -113 74 -113q27 0 48.5 27.5t53.5 87.5zM666 598q32 -60 53.5 -87.5t48.5 -27.5q74 0 74 113q0 117 -74 117q-27 0 -49.5 -28t-52.5 -87z" />
    <glyph glyph-name="integral" unicode="&#x222b;" 
d="M707 -33q0 -375 -306 -375q-36 0 -85.5 7t-81.5 13l-31 7l8 225q51 -6 108 -6q59 0 82 29.5t23 105.5v1241q0 218 67.5 301.5t237.5 83.5q35 0 88.5 -7t90.5 -14l36 -7l-8 -225q-65 8 -131 8q-57 0 -77.5 -31.5t-20.5 -110.5v-1245z" />
    <glyph glyph-name="approxequal" unicode="&#x2248;" 
d="M1006 866l16 -219q-5 -4 -13 -11t-34 -25t-52 -32t-63.5 -25t-71.5 -11q-61 0 -223.5 45t-197.5 45q-44 0 -100.5 -20t-90.5 -40l-35 -20l-20 219q5 4 14.5 11.5t38.5 26t58 32.5t68.5 25.5t74.5 11.5q57 0 214 -45.5t206 -45.5q36 0 88.5 19.5t87.5 38.5zM1006 416
l16 -219q-5 -4 -13 -11t-34 -25.5t-52 -32t-63.5 -25t-71.5 -11.5q-61 0 -223.5 45t-197.5 45q-44 0 -100.5 -20t-90.5 -40l-35 -20l-20 220q14 12 39 29.5t92 47t123 29.5q57 0 214 -45t206 -45q36 0 88.5 19.5t87.5 38.5z" />
    <glyph glyph-name="notequal" unicode="&#x2260;" 
d="M117 604v248h467l139 315l213 -84l-102 -231h192v-248h-301l-78 -178h379v-248h-487l-129 -293l-213 84l92 209h-172v248h280l78 178h-358z" />
    <glyph glyph-name="lessequal" unicode="&#x2264;" 
d="M997 791l-557 -101l557 -110v-267l-862 248v238l862 258v-266zM135 39v246h862v-246h-862z" />
    <glyph glyph-name="greaterequal" unicode="&#x2265;" 
d="M707 690l-557 101v266l862 -258v-238l-862 -248v267zM1012 285v-246h-862v246h862z" />
    <glyph glyph-name="lozenge" unicode="&#x25ca;" 
d="M395 0l-305 664l305 688h359l303 -688l-303 -664h-359zM592 233l192 431l-192 454h-35l-195 -454l195 -431h35z" />
    <glyph glyph-name="dotlessj" unicode="&#xf6be;" horiz-adv-x="530" 
d="M129 49v975h274v-977q0 -88 -11 -150.5t-34 -113t-68.5 -93t-102.5 -79.5t-148 -82l-109 203q57 37 86 59.5t55.5 49t36.5 54.5t15.5 63.5t5.5 90.5z" />
    <glyph glyph-name="commaaccent" unicode="&#xf6c3;" horiz-adv-x="348" 
d="M-10 -637l94 479h266l-112 -479h-248z" />
    <glyph glyph-name="CR" horiz-adv-x="481" 
 />
    <glyph glyph-name="DLE" horiz-adv-x="0" 
 />
    <glyph glyph-name="zero.pnum" horiz-adv-x="1097" 
d="M549 1042q109 0 191 -28t145.5 -90t96 -169t32.5 -257q0 -121 -22 -211t-60.5 -148t-98 -93.5t-128 -49.5t-156.5 -14t-156.5 14t-128 49.5t-98 93.5t-60.5 148t-22 211q0 150 32.5 257t96 169t145.5 90t191 28zM549 809q-54 0 -90 -13t-64.5 -47t-41.5 -95.5t-13 -155.5
q0 -111 25 -174t68.5 -86t115.5 -23t115.5 23t68.5 86t25 174q0 94 -13 155.5t-41.5 95.5t-64.5 47t-90 13z" />
    <glyph glyph-name="one.pnum" horiz-adv-x="811" 
d="M27 776l436 248h215v-1024h-256v727l-301 -158z" />
    <glyph glyph-name="two.pnum" horiz-adv-x="997" 
d="M911 0h-821v223l260 187q161 114 217 171.5t56 116.5t-48.5 79t-171.5 20q-30 0 -104 -7t-133.5 -14t-59.5 -8l-16 233q246 41 408 41q401 0 401 -305q0 -53 -11.5 -97t-30.5 -78.5t-55.5 -70.5t-73.5 -65.5t-97 -71.5l-170 -118h450v-236z" />
    <glyph glyph-name="three.pnum" horiz-adv-x="985" 
d="M90 1006q235 38 391 38q192 0 291.5 -58.5t99.5 -194.5q0 -98 -36.5 -154t-94.5 -90q64 -28 113 -88.5t49 -157.5q0 -108 -55 -181t-144.5 -105.5t-207.5 -32.5q-76 0 -181.5 11t-172.5 23l-68 11l30 233q226 -22 392 -22q88 0 119.5 21.5t31.5 68.5q0 75 -160 75h-270
v226h268q131 0 131 88q0 82 -133 82q-79 0 -171 -5.5t-144 -11.5l-53 -6z" />
    <glyph glyph-name="four.pnum" horiz-adv-x="991" 
d="M590 0v168h-531v184l258 672h273l-250 -610h250v233h256v-233h84v-246h-84v-168h-256z" />
    <glyph glyph-name="five.pnum" horiz-adv-x="1036" 
d="M152 1032h768v-270h-535l-25 -137q91 37 187 37q201 0 307.5 -84t106.5 -244q0 -164 -111.5 -258t-323.5 -94q-81 0 -193.5 16.5t-184.5 32.5l-72 16l30 234q258 -50 410 -50q80 0 121 19t41 67q0 55 -41.5 79t-126.5 24q-37 0 -87.5 -11t-82.5 -21l-31 -11l-203 39z" />
    <glyph glyph-name="six.pnum" horiz-adv-x="1046" 
d="M922 1012l-19 -213q-221 18 -352 18q-99 0 -155 -47.5t-56 -161.5q137 56 246 56q393 0 393 -342q0 -161 -128.5 -251.5t-332.5 -90.5q-217 0 -325.5 127t-108.5 413q0 114 25 203.5t67.5 148.5t102.5 98t127 55.5t145 16.5q86 0 178.5 -7.5t142.5 -14.5zM543 424
q-36 0 -87 -6t-84 -12l-32 -7q3 -96 54.5 -145t144.5 -49q35 0 65.5 5.5t58.5 18t44 36.5t16 57q0 56 -47 79t-133 23z" />
    <glyph glyph-name="seven.pnum" horiz-adv-x="862" 
d="M55 799v225h752v-272l-404 -770l-219 59l379 711v47h-508z" />
    <glyph glyph-name="eight.pnum" horiz-adv-x="1028" 
d="M514 1042q191 0 299.5 -70t108.5 -218q0 -81 -35.5 -131.5t-95.5 -87.5q33 -20 49 -31t40 -34.5t36 -46.5t21 -60.5t9 -83.5q0 -102 -59.5 -170.5t-154 -98.5t-218.5 -30t-218.5 30t-154 98.5t-59.5 170.5q0 98 41.5 156t114.5 100q-61 38 -96.5 87.5t-35.5 131.5
q0 148 108.5 218t299.5 70zM514 201q176 0 176 102q0 47 -28 74t-87 47h-122q-59 -22 -87 -49t-28 -72q0 -102 176 -102zM514 821q-78 0 -115 -26.5t-37 -63.5q0 -46 23 -71t68 -42h122q91 31 91 115q0 37 -37 62.5t-115 25.5z" />
    <glyph glyph-name="nine.pnum" horiz-adv-x="995" 
d="M113 27l24 211q158 -27 322 -27q92 0 143 55.5t51 151.5l-21 -8q-22 -9 -73 -19t-110 -10q-377 0 -377 317q0 164 112.5 255t298.5 91q205 0 317.5 -129t112.5 -401q0 -116 -23 -207t-63.5 -151.5t-98.5 -100t-124 -56.5t-145 -17q-92 0 -178.5 11t-126.5 23zM471 602
q50 0 92.5 8.5t60.5 17.5l17 9q-2 87 -44.5 134.5t-123.5 47.5q-76 0 -110.5 -27.5t-34.5 -89.5q0 -44 37.5 -72t105.5 -28z" />
    <glyph glyph-name="questiondown.cap" horiz-adv-x="870" 
d="M53 311q0 143 32.5 216t135.5 151q70 53 104.5 91t42 60.5t7.5 55.5v63h219q7 -8 17.5 -22.5t28 -63t17.5 -100.5q0 -40 -33 -84t-114 -109q-113 -90 -142.5 -129.5t-29.5 -97.5t39 -89.5t135 -31.5q61 0 134.5 8.5t117.5 16.5l43 8l14 -207q-20 -8 -54 -20t-126 -32
t-168 -20q-221 0 -320.5 79.5t-99.5 256.5zM639 1393v-330h-295v330h295z" />
    <glyph glyph-name="endash.cap" horiz-adv-x="1265" 
d="M121 723h1024v-234h-1024v234z" />
    <glyph glyph-name="emdash.cap" horiz-adv-x="2289" 
d="M121 723h2048v-234h-2048v234z" />
    <glyph glyph-name="periodcentered.cap" horiz-adv-x="524" 
d="M115 502v340h295v-340h-295z" />
    <glyph glyph-name="exclamdown.cap" horiz-adv-x="573" 
d="M434 1395v-330h-295v330h295zM408 883l26 -881h-297l29 881h242z" />
    <glyph glyph-name="parenleft.cap" horiz-adv-x="630" 
d="M315 1597h260q-8 -21 -21 -58t-46.5 -147t-59 -215.5t-46.5 -245t-21 -253.5t20 -246t48.5 -239t57 -197t48.5 -140l20 -51h-260q-10 16 -26 44.5t-56.5 121.5t-72 189.5t-57 238.5t-25.5 279t24.5 282t59.5 254t69.5 199t58.5 137z" />
    <glyph glyph-name="parenright.cap" horiz-adv-x="630" 
d="M315 -184h-260q8 21 21 58t46.5 147t59.5 215.5t47 245t21 253.5t-20 246t-48.5 239t-57.5 197t-49 141l-20 50h260q10 -16 26 -44.5t57 -121.5t72.5 -189.5t57 -238.5t25.5 -279t-24.5 -282t-59.5 -254t-70 -199t-59 -137z" />
    <glyph glyph-name="bracketleft.cap" horiz-adv-x="727" 
d="M655 1595v-245h-235v-1295h235v-245h-516v1785h516z" />
    <glyph glyph-name="bracketright.cap" horiz-adv-x="727" 
d="M72 1350v245h516v-1785h-516v245h235v1295h-235z" />
    <glyph glyph-name="braceleft.cap" horiz-adv-x="739" 
d="M530 414q0 -28 -7 -116.5t-7 -123.5q0 -70 29.5 -108.5t116.5 -45.5v-233q-226 7 -320 87.5t-94 264.5q0 44 7 135t7 113q0 149 -229 209v213q118 28 173.5 74.5t55.5 117.5q0 26 -7 123.5t-7 137.5q0 100 22 166t73.5 108t128.5 61t194 23v-234q-88 -7 -120 -42.5
t-32 -102.5q0 -35 7 -134.5t7 -127.5q0 -53 -4.5 -87.5t-18 -65.5t-39.5 -51.5t-66 -37.5t-101 -32q75 -18 121 -42t70 -61t32 -79t8 -109z" />
    <glyph glyph-name="braceright.cap" horiz-adv-x="741" 
d="M209 985q0 28 7 116.5t7 123.5q0 70 -29 108t-116 45v234q226 -7 320 -87.5t94 -264.5q0 -44 -7.5 -135t-7.5 -113q0 -72 57.5 -125.5t172.5 -83.5v-213q-118 -28 -174 -75t-56 -118q0 -26 7.5 -123t7.5 -137q0 -100 -22 -166t-73.5 -108t-128.5 -61t-194 -23v233
q88 7 119.5 42.5t31.5 103.5q0 35 -7 134.5t-7 127.5q0 53 4.5 87.5t18 65.5t39.5 51.5t66 37.5t101 32q-75 18 -121 42t-70 61t-32 79t-8 109z" />
    <glyph glyph-name="grave.cap" horiz-adv-x="548" 
d="M102 1935l516 -217l-67 -190l-533 162z" />
    <glyph glyph-name="acute.cap" horiz-adv-x="548" 
d="M2 1718l516 217l84 -245l-532 -162z" />
    <glyph glyph-name="circumflex.cap" horiz-adv-x="995" 
d="M49 1567l275 305h239l275 -305h-291l-101 114l-106 -114h-291z" />
    <glyph glyph-name="caron.cap" horiz-adv-x="548" 
d="M180 1567l-274 305h291l106 -115l100 115h291l-274 -305h-240z" />
    <glyph glyph-name="tilde.cap" horiz-adv-x="548" 
d="M647 1880l60 -199q-4 -5 -12 -14t-33 -31t-50 -39t-59.5 -31t-65.5 -14q-58 0 -187.5 47.5t-158.5 47.5q-25 0 -66 -21.5t-69 -43.5l-29 -21l-59 196q4 5 12.5 14t33 31.5t49.5 40t59 31.5t65 14q54 0 127 -23.5t133 -47t82 -23.5q24 0 66 21.5t72 42.5z" />
    <glyph glyph-name="dieresis.cap" horiz-adv-x="548" 
d="M-86 1565v270h262v-270h-262zM352 1565v270h262v-270h-262z" />
    <glyph glyph-name="macron.cap" horiz-adv-x="548" 
d="M-51 1602v200h710v-200h-710z" />
    <glyph glyph-name="breve.cap" horiz-adv-x="548" 
d="M-61 1864h247q8 -52 43 -84.5t90 -32.5q58 0 94 32.5t42 84.5h247q-16 -140 -111 -225t-272 -85q-176 0 -270 85t-110 225z" />
    <glyph glyph-name="ring.cap" horiz-adv-x="548" 
d="M612 1477q0 -120 -88.5 -189t-218.5 -69q-131 0 -219 69t-88 189t88 189t219 69q130 0 218.5 -69t88.5 -189zM184 1477q0 -38 33 -61t88 -23t88 23t33 61t-33 61t-88 23t-88 -23t-33 -61z" />
    <glyph glyph-name="hungarumlaut.cap" horiz-adv-x="548" 
d="M379 1587l137 404l238 -86l-160 -392zM-47 1589l137 404l238 -86l-160 -391z" />
    <glyph glyph-name="dotaccent.cap" horiz-adv-x="548" 
d="M137 1571v276h275v-276h-275z" />
    <glyph glyph-name="zero.numr" horiz-adv-x="573" 
d="M287 1436q136 0 200 -78t64 -268q0 -189 -63.5 -263.5t-200.5 -74.5t-200.5 74.5t-63.5 263.5q0 190 64 268t200 78zM287 1241q-15 0 -22.5 -9.5t-12 -42.5t-4.5 -99q0 -65 4.5 -96.5t12 -39.5t22.5 -8q16 0 23.5 8t11.5 39t4 97q0 67 -4 99.5t-11.5 42t-23.5 9.5z" />
    <glyph glyph-name="one.numr" horiz-adv-x="573" 
d="M41 1260l217 153h197v-639h-217v400l-97 -66z" />
    <glyph glyph-name="two.numr" horiz-adv-x="573" 
d="M522 774h-473v184l150 121q52 41 73 67.5t21 49.5q0 18 -18 24.5t-58 6.5q-20 0 -59 -3.5t-68 -6.5l-29 -3l-8 203q150 19 242 19q126 0 176.5 -47.5t50.5 -157.5q0 -68 -26 -114t-88 -91l-78 -57h192v-195z" />
    <glyph glyph-name="three.numr" horiz-adv-x="573" 
d="M55 1417q139 19 221 19q248 0 248 -183q0 -108 -59 -143q37 -16 54.5 -50.5t17.5 -98.5q0 -104 -63.5 -156.5t-178.5 -52.5q-44 0 -106 4t-102 8l-40 4l12 190q125 -12 193 -12q33 0 46 7t13 26q0 18 -11.5 23.5t-41.5 5.5h-135v174h131q41 0 41 28q0 31 -55 31
q-34 0 -77 -2.5t-69 -4.5l-26 -3z" />
    <glyph glyph-name="four.numr" horiz-adv-x="573" 
d="M301 774v72h-270v180l80 387h241l-106 -373h55l29 185h186v-185h23v-194h-23v-72h-215z" />
    <glyph glyph-name="five.numr" horiz-adv-x="573" 
d="M88 1413h424v-184h-254l-6 -51q57 12 90 12q94 0 142 -48t48 -155q0 -227 -241 -227q-47 0 -107.5 7t-97.5 14l-37 7l17 175q114 -19 190 -19q51 0 51 31q0 33 -28 33l-54 -9l-159 23z" />
    <glyph glyph-name="six.numr" horiz-adv-x="573" 
d="M522 1411l-12 -178q-136 12 -193 12q-67 0 -67 -53q0 -1 12.5 1.5t32.5 5.5t33 3q112 0 162.5 -53.5t50.5 -161.5q0 -111 -68.5 -173t-175.5 -62q-268 0 -268 317q0 183 62.5 275t217.5 92q33 0 86 -6t90 -12zM289 1026q-11 0 -21 -4t-14 -8l-4 -4q0 -30 10 -50t27 -20
q15 0 25 11.5t10 31.5q0 43 -33 43z" />
    <glyph glyph-name="seven.numr" horiz-adv-x="573" 
d="M63 1198v215h465v-207l-194 -452l-248 39l186 378v27h-209z" />
    <glyph glyph-name="eight.numr" horiz-adv-x="573" 
d="M285 1436q254 0 254 -185q0 -41 -14 -77t-28 -52l-14 -16q3 -2 7 -5t15 -14.5t19.5 -26t15.5 -39.5t7 -54q0 -117 -65 -166t-197 -49q-133 0 -197.5 49t-64.5 166q0 41 16.5 76t32.5 50l16 15q-2 2 -6 5t-13.5 16t-16.5 28t-13 41t-6 55q0 183 252 183zM285 926
q39 0 39 45q0 26 -25 51h-29q-24 -24 -24 -51q0 -45 39 -45zM285 1262q-37 0 -37 -39q0 -26 22 -52h29q23 28 23 52q0 39 -37 39z" />
    <glyph glyph-name="nine.numr" horiz-adv-x="573" 
d="M57 780l13 178q100 -12 178 -12q67 0 67 47q0 1 -10 -1t-28 -4.5t-33 -2.5q-209 0 -209 213q0 112 66 175t178 63q139 0 203.5 -85t64.5 -253q0 -177 -61.5 -261.5t-206.5 -84.5q-44 0 -99.5 7t-89.5 14zM287 1153q7 0 17 3t16 6l6 3q0 80 -39 80q-15 0 -24 -12.5
t-9 -34.5q0 -21 10 -33t23 -12z" />
    <glyph glyph-name="zero.slash" 
d="M514 563v205h119v-205h-119zM573 1376q261 0 393 -167.5t132 -540.5q0 -190 -34 -324t-103 -215t-164 -117.5t-224 -36.5t-224 36.5t-163.5 117.5t-102.5 215t-34 324q0 252 62 410.5t176 228t286 69.5zM575 1130q-84 0 -134.5 -42t-75.5 -143.5t-25 -276.5
q0 -245 55 -346t180 -101t178.5 100.5t53.5 346.5q0 259 -53 360.5t-179 101.5z" />
    <glyph glyph-name="at.cap" horiz-adv-x="1982" 
d="M1929 625v-17q0 -315 -99.5 -461.5t-295.5 -146.5q-60 0 -110 12t-78.5 28.5t-48.5 33.5t-27 29l-8 12q-7 -5 -19 -12.5t-48 -27.5t-70.5 -35t-81 -27.5t-85.5 -12.5q-193 0 -288 120t-95 394q0 259 89 384.5t303 125.5q34 0 80.5 -13t76.5 -25l29 -13v26h274v-366
q0 -100 1 -160t5.5 -110t10.5 -73t19 -38.5t27.5 -19t39.5 -3.5q43 0 69 30.5t41 115t15 233.5v19q0 327 -151 475.5t-478 148.5q-330 0 -504 -188t-174 -528q0 -189 36 -322.5t117 -223.5t210 -132.5t315 -42.5q45 0 118.5 4.5t123.5 9.5l51 4l10 -240q-184 -20 -303 -20
q-188 0 -332.5 29t-263.5 97.5t-196 178.5t-118.5 274.5t-41.5 383.5q0 239 69 423.5t195.5 300.5t300 175t387.5 59q449 0 676 -222t227 -646zM981 242q80 0 184 51q-12 73 -12 217v252q-86 20 -125 20q-105 0 -139.5 -59.5t-34.5 -208.5q0 -138 31 -205t96 -67z" />
    <glyph glyph-name="zero.dnom" horiz-adv-x="573" 
d="M287 662q136 0 200 -78.5t64 -268.5q0 -189 -63.5 -263.5t-200.5 -74.5t-200.5 74.5t-63.5 263.5q0 190 64 268.5t200 78.5zM287 467q-15 0 -22.5 -9.5t-12 -43t-4.5 -99.5q0 -65 4.5 -96.5t12 -39t22.5 -7.5q16 0 23.5 8t11.5 38.5t4 96.5q0 97 -8 124.5t-31 27.5z" />
    <glyph glyph-name="one.dnom" horiz-adv-x="573" 
d="M43 485l217 154h197v-639h-217v399l-97 -65z" />
    <glyph glyph-name="two.dnom" horiz-adv-x="573" 
d="M526 0h-473v184l150 121q52 41 73 67.5t21 49.5q0 18 -18 24.5t-58 6.5q-20 0 -59 -3.5t-68 -6.5l-28 -3l-9 203q150 19 242 19q126 0 176.5 -47.5t50.5 -157.5q0 -68 -26 -114t-88 -91l-78 -57h192v-195z" />
    <glyph glyph-name="three.dnom" horiz-adv-x="573" 
d="M55 643q139 19 221 19q248 0 248 -183q0 -108 -59 -143q72 -31 72 -150q0 -104 -63.5 -156.5t-178.5 -52.5q-44 0 -106 4.5t-102 8.5l-40 4l12 190q125 -12 193 -12q33 0 46 7t13 26q0 18 -11.5 23t-41.5 5h-135v175h131q41 0 41 28q0 31 -55 31q-34 0 -77 -2.5t-69 -4.5
l-26 -3z" />
    <glyph glyph-name="four.dnom" horiz-adv-x="573" 
d="M305 0v72h-270v180l80 387h241l-106 -373h55l29 185h186v-185h23v-194h-23v-72h-215z" />
    <glyph glyph-name="five.dnom" horiz-adv-x="573" 
d="M82 639h424v-184h-254l-6 -52q57 13 90 13q94 0 142 -48t48 -155q0 -227 -241 -227q-47 0 -107.5 7t-97.5 14l-37 7l16 174q115 -18 191 -18q51 0 51 31q0 32 -29 32l-53 -8l-160 23z" />
    <glyph glyph-name="six.dnom" horiz-adv-x="573" 
d="M518 637l-12 -178q-136 12 -193 12q-67 0 -67 -53q0 -1 12.5 1.5t32.5 5.5t33 3q112 0 162.5 -53.5t50.5 -161.5q0 -111 -69 -173.5t-175 -62.5q-268 0 -268 318q0 183 62.5 275t217.5 92q33 0 86 -6t90 -12zM285 252q-11 0 -21 -4t-14 -8l-4 -4q0 -30 10 -50t27 -20
q15 0 24.5 11.5t9.5 31.5q0 43 -32 43z" />
    <glyph glyph-name="seven.dnom" horiz-adv-x="573" 
d="M59 424v215h465v-207l-194 -452l-248 38l186 379v27h-209z" />
    <glyph glyph-name="eight.dnom" horiz-adv-x="573" 
d="M287 662q254 0 254 -185q0 -41 -14 -77t-28 -52l-14 -16q3 -2 7 -5t15 -14.5t19.5 -26t15.5 -39.5t7 -54q0 -117 -65 -166.5t-197 -49.5q-133 0 -197.5 49.5t-64.5 166.5q0 41 16.5 76t32.5 50l16 15q-2 2 -6 5t-13.5 16t-16.5 28t-13 41t-6 55q0 183 252 183zM287 152
q39 0 39 45q0 26 -25 51h-29q-24 -24 -24 -51q0 -45 39 -45zM287 487q-37 0 -37 -38q0 -26 22 -52h29q23 28 23 52q0 38 -37 38z" />
    <glyph glyph-name="nine.dnom" horiz-adv-x="573" 
d="M53 6l13 178q100 -12 178 -12q67 0 67 47q0 1 -10 -1t-28 -4.5t-33 -2.5q-209 0 -209 213q0 113 65.5 175.5t177.5 62.5q140 0 204.5 -85t64.5 -253q0 -177 -62 -262t-207 -85q-44 0 -99 7.5t-89 14.5zM283 379q7 0 17 3t16 6l6 3q0 80 -39 80q-15 0 -24 -12.5t-9 -34.5
q0 -21 10 -33t23 -12z" />
    <glyph glyph-name="hyphen.cap" horiz-adv-x="835" 
d="M115 481v250h606v-250h-606z" />
    </font>
</defs>
</svg>
